<svg width="960.0px" height="462.0px" xmlns="http://www.w3.org/2000/svg" version="1.1">

<path d="M 0.0 0.0 L 960.0 0.0 L 960.0 462.0 L 0.0 462.0 L 0.0 0.0 Z" fill="#ffffff" stroke="none" stroke-width="1.0" /><g transform="translate(20.0,20.0)">
<path d="M 0.0 0.0 L 286.0 0.0 L 286.0 204.0 L 0.0 204.0 L 0.0 0.0 Z" fill="#ffffff" stroke="none" stroke-width="1.0" />
<path d="M 0.0 57.0 L 286.0 57.0 M 0.0 65.0 L 286.0 65.0 M 0.0 73.0 L 286.0 73.0 M 0.0 81.0 L 286.0 81.0 M 0.0 89.0 L 286.0 89.0 Z" fill="none" stroke="#d6d6d6" stroke-width="0.75" />
<path d="M 0.0 133.0 L 286.0 133.0 M 0.0 143.0 L 286.0 143.0 M 0.0 153.0 L 286.0 153.0 M 0.0 163.0 L 286.0 163.0 M 0.0 173.0 L 286.0 173.0 M 0.0 183.0 L 286.0 183.0 Z" fill="none" stroke="#d6d6d6" stroke-width="0.75" />
<path d="M 67.77043 57.40856 C 68.324905 57.40856 68.821014 57.350193 69.25876 57.20428 C 69.6965 57.058365 69.959145 57.0 70.04669 57.0 C 70.192604 57.0 70.28015 57.029182 70.36771 57.11673 C 70.42607 57.1751 70.45525 57.233463 70.484436 57.32101 C 70.484436 57.37938 70.45525 57.437744 70.42607 57.49611 L 61.933853 67.359924 L 66.924126 67.359924 L 66.924126 63.449417 C 66.924126 63.18677 67.01167 62.95331 67.1284 62.807392 C 67.3035 62.661476 67.4786 62.515564 67.71206 62.4572 C 67.97471 62.340466 68.26653 62.07782 68.64591 61.640076 C 68.937744 61.319065 69.317116 60.706226 69.75486 59.801556 C 69.81323 59.684826 69.90078 59.626457 70.01751 59.626457 C 70.28015 59.626457 70.39688 59.772373 70.42607 60.03502 L 70.42607 67.359924 L 72.55642 67.359924 C 72.84825 67.359924 72.99416 67.50584 73.023346 67.79767 C 73.023346 68.08949 72.877426 68.235405 72.55642 68.235405 L 70.42607 68.235405 L 70.42607 68.46887 C 70.42607 69.28599 70.63035 69.92802 71.00973 70.45331 C 71.44747 70.9786 71.97276 71.270424 72.5856 71.270424 C 72.81906 71.270424 72.9358 71.38716 72.9358 71.62062 C 72.9358 71.85408 72.81906 71.97082 72.5856 71.97082 C 72.14786 71.97082 71.50584 71.91245 70.601166 71.795715 C 69.696495 71.6498 69.054474 71.59144 68.64591 71.59144 C 68.23735 71.59144 67.56615 71.6498 66.69066 71.795715 C 65.81517 71.91245 65.17315 71.97082 64.735405 71.97082 C 64.501945 71.97082 64.385216 71.85408 64.385216 71.62062 C 64.385216 71.38716 64.501945 71.270424 64.735405 71.270424 C 65.34825 71.270424 65.87354 70.9786 66.31128 70.45331 C 66.71984 69.898834 66.924126 69.256805 66.924126 68.46887 L 66.924126 68.235405 L 61.933853 68.235405 C 61.61284 68.235405 61.379375 68.17704 61.233463 68.001945 C 61.087547 67.88521 61.0 67.71011 61.0 67.53502 C 61.0 67.476654 61.145912 67.27237 61.437744 66.92218 C 61.729572 66.57198 62.079765 66.10506 62.488327 65.49222 C 62.488327 65.49222 63.305447 64.20817 63.71401 63.449417 C 63.71401 63.449417 64.47276 61.78599 64.735405 60.706226 C 65.02724 59.65564 65.17315 58.575874 65.17315 57.49611 C 65.17315 57.175095 65.31907 57.029182 65.58171 57.029182 C 65.61089 57.029182 65.756805 57.058365 65.96109 57.11673 C 66.16537 57.175095 66.4572 57.233463 66.77821 57.32101 C 67.1284 57.379375 67.44942 57.408558 67.77043 57.408558 Z" fill="#000000" stroke="none" stroke-width="0.75" />
<path d="M 67.77043 74.40856 C 68.324905 74.40856 68.821014 74.3502 69.25876 74.20428 C 69.6965 74.058365 69.959145 74.0 70.04669 74.0 C 70.192604 74.0 70.28015 74.02918 70.36771 74.11673 C 70.42607 74.175095 70.45525 74.23346 70.484436 74.321014 C 70.484436 74.37938 70.45525 74.437744 70.42607 74.49611 L 61.933853 84.359924 L 66.924126 84.359924 L 66.924126 80.44942 C 66.924126 80.18677 67.01167 79.95331 67.1284 79.807396 C 67.3035 79.661476 67.4786 79.515564 67.71206 79.4572 C 67.97471 79.34047 68.26653 79.07782 68.64591 78.640076 C 68.937744 78.31907 69.317116 77.70622 69.75486 76.80156 C 69.81323 76.68482 69.90078 76.62646 70.01751 76.62646 C 70.28015 76.62646 70.39688 76.77237 70.42607 77.03502 L 70.42607 84.359924 L 72.55642 84.359924 C 72.84825 84.359924 72.99416 84.50584 73.023346 84.79767 C 73.023346 85.08949 72.877426 85.235405 72.55642 85.235405 L 70.42607 85.235405 L 70.42607 85.46887 C 70.42607 86.28599 70.63035 86.92802 71.00973 87.45331 C 71.44747 87.9786 71.97276 88.270424 72.5856 88.270424 C 72.81906 88.270424 72.9358 88.38716 72.9358 88.62062 C 72.9358 88.85408 72.81906 88.97082 72.5856 88.97082 C 72.14786 88.97082 71.50584 88.91245 70.601166 88.795715 C 69.696495 88.6498 69.054474 88.59144 68.64591 88.59144 C 68.23735 88.59144 67.56615 88.6498 66.69066 88.795715 C 65.81517 88.91245 65.17315 88.97082 64.735405 88.97082 C 64.501945 88.97082 64.385216 88.85408 64.385216 88.62062 C 64.385216 88.38716 64.501945 88.270424 64.735405 88.270424 C 65.34825 88.270424 65.87354 87.9786 66.31128 87.45331 C 66.71984 86.898834 66.924126 86.256805 66.924126 85.46887 L 66.924126 85.235405 L 61.933853 85.235405 C 61.61284 85.235405 61.379375 85.17704 61.233463 85.001945 C 61.087547 84.88521 61.0 84.71011 61.0 84.53502 C 61.0 84.476654 61.145912 84.27237 61.437744 83.92218 C 61.729572 83.57198 62.079765 83.10506 62.488327 82.49222 C 62.488327 82.49222 63.305447 81.20817 63.71401 80.44942 C 63.71401 80.44942 64.47276 78.78599 64.735405 77.70622 C 65.02724 76.65564 65.17315 75.575874 65.17315 74.49611 C 65.17315 74.175095 65.31907 74.02918 65.58171 74.02918 C 65.61089 74.02918 65.756805 74.058365 65.96109 74.11673 C 66.16537 74.175095 66.4572 74.23346 66.77821 74.321014 C 67.1284 74.37938 67.44942 74.40856 67.77043 74.40856 Z" fill="#000000" stroke="none" stroke-width="0.75" />
<path d="M 22.764973 49.115383 C 22.921913 49.03691 22.948072 49.03691 23.105015 49.03691 C 23.314268 49.063072 23.445057 49.14154 23.73278 49.455425 C 25.616081 51.39104 27.185501 54.843758 27.577856 57.773342 C 27.630169 58.244167 27.630169 59.34276 27.577856 59.839737 C 27.29013 62.533905 26.165377 64.99266 23.57584 68.52385 L 23.209644 69.02083 L 23.418898 69.62244 C 23.915882 71.06107 24.491331 72.81359 24.85753 74.09528 C 24.96216 74.409164 25.04063 74.67074 25.04063 74.6969 C 25.04063 74.6969 25.223728 74.6969 25.406826 74.72305 C 26.322319 74.80152 27.10703 75.01078 27.917896 75.40313 C 28.57182 75.74317 29.147274 76.13552 29.696568 76.65866 C 30.29818 77.26028 30.690535 77.80957 31.05673 78.56812 C 31.606026 79.66672 31.84144 80.81762 31.81528 81.96853 C 31.789125 82.70093 31.684496 83.25022 31.449085 83.930305 C 31.1352 84.92426 30.559748 85.83976 29.77504 86.624466 C 29.094955 87.30455 28.46719 87.72306 27.630169 88.0631 L 27.316284 88.193886 L 27.316284 89.13554 C 27.316284 90.46954 27.237814 92.038956 27.133184 92.980606 C 27.02856 93.94841 26.766989 94.86391 26.348476 95.700935 C 25.249886 97.92427 23.314268 99.10133 21.143244 98.89209 C 18.684484 98.65667 16.69656 96.98262 16.199577 94.73312 C 15.964161 93.713 16.068794 92.9283 16.487303 92.27437 C 17.036598 91.411194 18.082878 90.914215 19.102997 90.94037 C 20.30622 90.99268 21.274027 91.934326 21.457123 93.24218 C 21.58791 94.28845 21.143244 95.25626 20.30622 95.7794 C 19.835394 96.06713 19.181469 96.197914 18.684484 96.119446 C 18.606018 96.119446 18.527544 96.093285 18.527544 96.119446 L 18.84143 96.43333 C 19.416882 97.00878 20.070807 97.374985 20.907831 97.558075 C 21.090927 97.584236 21.247868 97.584236 21.666382 97.584236 C 22.137207 97.584236 22.189518 97.584236 22.451088 97.53192 C 22.81729 97.42729 23.131172 97.29651 23.418898 97.139565 C 24.726748 96.35486 25.616081 94.73312 25.851494 92.77136 C 25.929964 92.038956 26.008434 90.46954 26.008434 89.318634 C 26.008434 88.56009 26.008434 88.50777 25.956123 88.50777 C 25.851494 88.56009 25.302197 88.6124 24.909843 88.63855 C 24.41286 88.66471 23.57584 88.66471 23.183485 88.6124 C 21.640223 88.4293 20.227747 87.90616 18.998373 87.04298 C 17.167385 85.76129 15.859535 83.85182 15.31024 81.65465 C 14.604002 78.908165 15.100986 75.978584 16.827343 72.89206 C 17.55974 71.610374 18.265978 70.564095 20.018494 68.23612 L 21.012455 66.90212 L 20.829355 66.405136 C 19.573822 63.083202 19.15531 61.173744 19.024527 58.401108 C 18.972214 57.197887 19.024527 56.17776 19.181469 55.34074 C 19.573822 53.14356 20.593945 51.181786 22.189518 49.612366 C 22.503403 49.298485 22.63419 49.193855 22.764973 49.115383 M 24.831371 53.588226 C 24.569805 53.14356 24.622118 53.169712 24.386707 53.32666 C 23.65431 53.771324 22.89576 54.451405 22.34646 55.131485 C 21.221714 56.57012 20.593945 58.244167 20.515476 60.048996 C 20.489319 60.78139 20.56779 61.252216 20.907831 62.37696 C 21.169397 63.292458 21.901793 65.5158 21.95411 65.568115 C 21.95411 65.59427 22.111048 65.41118 22.26799 65.17576 C 24.072823 62.58622 25.04063 60.467506 25.406826 58.348793 C 25.485298 57.799496 25.53761 57.354828 25.563768 56.727062 C 25.589928 55.28843 25.432985 54.58219 24.831371 53.588226 M 22.581877 71.191864 C 22.424934 70.69488 22.26799 70.30252 22.26799 70.30252 C 22.241835 70.30252 21.143244 71.76731 20.672415 72.421234 C 19.129156 74.59227 18.187506 76.34478 17.638206 78.07114 C 17.27201 79.14357 17.115068 80.13754 17.062756 81.23613 C 17.062756 81.837746 17.088915 82.20394 17.193539 82.648605 C 17.795153 84.97658 20.280064 86.88603 23.209644 87.30455 C 23.65431 87.35686 24.909843 87.35686 25.459139 87.30455 C 26.008434 87.226074 25.956123 87.252235 25.929964 87.01682 C 25.773026 84.531906 25.563768 83.0148 25.14526 80.765305 C 24.988314 79.823654 24.543648 77.835724 24.517488 77.80957 C 24.491331 77.78342 23.99435 77.835724 23.706627 77.9142 C 23.340427 77.99267 23.105015 78.07114 22.79113 78.22808 C 21.090927 79.09126 20.593945 81.05304 21.666382 82.648605 C 21.849482 82.91018 22.320305 83.381004 22.608032 83.5641 C 22.71266 83.64258 22.948072 83.799515 23.105015 83.87799 C 23.340427 84.00877 23.392738 84.06108 23.445057 84.16571 C 23.65431 84.50575 23.523525 84.92426 23.131172 85.10736 C 22.921913 85.21199 22.764973 85.18584 22.34646 84.97658 C 21.326344 84.4796 20.56779 83.799515 20.018494 82.962494 C 18.998373 81.393074 18.867586 79.37899 19.70461 77.67879 C 20.437006 76.214 21.744852 75.22003 23.418898 74.853836 C 23.57584 74.80152 23.706627 74.77537 23.706627 74.77537 C 23.73278 74.74921 23.000385 72.36893 22.581877 71.191864 M 26.139221 77.94036 C 26.060753 77.94036 25.98228 77.9142 25.956123 77.9142 L 25.877651 77.88804 L 26.008434 78.43734 C 26.610046 81.07919 27.054714 83.95645 27.211655 86.38905 C 27.237814 86.65063 27.237814 86.85988 27.237814 86.85988 C 27.263973 86.85988 27.60401 86.70294 27.78711 86.57216 C 28.231777 86.31058 28.65029 85.91823 28.99033 85.47356 C 29.801197 84.40112 30.08892 83.06712 29.77504 81.706955 C 29.539627 80.60837 28.911861 79.58824 28.022522 78.882 C 27.473227 78.46349 26.740831 78.0973 26.139221 77.94036 Z" fill="#000000" stroke="none" stroke-width="0.75" />
<path d="M 92.0 97.0 L 108.0 97.0 Z" fill="none" stroke="#d6d6d6" stroke-width="0.75" />
<path d="M 92.0 105.0 L 108.0 105.0 Z" fill="none" stroke="#d6d6d6" stroke-width="0.75" />
<path d="M 92.0 97.0 L 108.0 97.0 Z" fill="none" stroke="#d6d6d6" stroke-width="0.75" />
<path d="M 92.0 105.0 L 108.0 105.0 Z" fill="none" stroke="#d6d6d6" stroke-width="0.75" />
<path d="M 95.52 106.232 C 95.52 107.456 96.715195 108.68 97.895996 108.68 C 101.495995 108.68 105.09599 106.232 105.09599 103.856 C 105.09599 102.6752 103.871994 101.48 102.71999 101.48 C 99.119995 101.48 95.52 103.856 95.52 106.232 Z" fill="#404040" stroke="none" stroke-width="1.0" />
<path d="M 94.0 179.25 L 102.0 179.25 L 102.0 186.75 L 94.0 186.75 L 94.0 179.25 Z" fill="#ffffff" stroke="none" stroke-width="1.0" />
<text x='94.0' y='186.75' font-family="Default" font-size="10.0" fill="#404040" >5</text>
<path d="M 104.18 104.04 L 105.18 104.04 L 105.18 67.0 L 104.18 67.0 M 104.18 104.04 Z" fill="#404040" stroke="none" stroke-width="0.75" />
<path d="M 104.18 65.0 L 104.18 69.0 L 127.055 59.0 L 127.055 55.0 L 104.18 65.0 Z" fill="#404040" stroke="none" stroke-width="0.75" />
<path d="M 117.395 90.232 C 117.395 91.456 118.590195 92.68 119.770996 92.68 C 123.370995 92.68 126.97099 90.232 126.97099 87.856 C 126.97099 86.6752 125.746994 85.48 124.59499 85.48 C 120.994995 85.48 117.395 87.856 117.395 90.232 Z" fill="#404040" stroke="none" stroke-width="1.0" />
<path d="M 115.875 169.25 L 123.875 169.25 L 123.875 176.75 L 115.875 176.75 L 115.875 169.25 Z" fill="#ffffff" stroke="none" stroke-width="1.0" />
<text x='115.875' y='176.75' font-family="Default" font-size="10.0" fill="#404040" >7</text>
<path d="M 126.055 88.04 L 127.055 88.04 L 127.055 57.0 L 126.055 57.0 M 126.055 88.04 Z" fill="#404040" stroke="none" stroke-width="0.75" />
<path d="M 135.75 97.0 L 151.75 97.0 Z" fill="none" stroke="#d6d6d6" stroke-width="0.75" />
<path d="M 135.75 105.0 L 151.75 105.0 Z" fill="none" stroke="#d6d6d6" stroke-width="0.75" />
<path d="M 135.75 97.0 L 151.75 97.0 Z" fill="none" stroke="#d6d6d6" stroke-width="0.75" />
<path d="M 135.75 105.0 L 151.75 105.0 Z" fill="none" stroke="#d6d6d6" stroke-width="0.75" />
<path d="M 139.27 106.232 C 139.27 107.456 140.46521 108.68 141.64601 108.68 C 145.246 108.68 148.84601 106.232 148.84601 103.856 C 148.84601 102.6752 147.62201 101.48 146.47 101.48 C 142.87001 101.48 139.27 103.856 139.27 106.232 Z" fill="#404040" stroke="none" stroke-width="1.0" />
<path d="M 137.75 179.25 L 145.75 179.25 L 145.75 186.75 L 137.75 186.75 L 137.75 179.25 Z" fill="#ffffff" stroke="none" stroke-width="1.0" />
<text x='137.75' y='186.75' font-family="Default" font-size="10.0" fill="#404040" >5</text>
<path d="M 147.93 104.04 L 148.93 104.04 L 148.93 71.0 L 147.93 71.0 M 147.93 104.04 Z" fill="#404040" stroke="none" stroke-width="0.75" />
<path d="M 147.93 69.0 L 147.93 73.0 L 170.805 63.0 L 170.805 59.0 L 147.93 69.0 Z" fill="#404040" stroke="none" stroke-width="0.75" />
<path d="M 157.625 97.0 L 173.625 97.0 Z" fill="none" stroke="#d6d6d6" stroke-width="0.75" />
<path d="M 157.625 105.0 L 173.625 105.0 Z" fill="none" stroke="#d6d6d6" stroke-width="0.75" />
<path d="M 161.145 94.232 C 161.145 95.456 162.34021 96.68 163.52101 96.68 C 167.121 96.68 170.72101 94.232 170.72101 91.856 C 170.72101 90.6752 169.49701 89.48 168.345 89.48 C 164.74501 89.48 161.145 91.856 161.145 94.232 Z" fill="#404040" stroke="none" stroke-width="1.0" />
<path d="M 159.625 169.25 L 167.625 169.25 L 167.625 176.75 L 159.625 176.75 L 159.625 169.25 Z" fill="#ffffff" stroke="none" stroke-width="1.0" />
<text x='159.625' y='176.75' font-family="Default" font-size="10.0" fill="#404040" >5</text>
<path d="M 149.75 105.0 C 149.75 109.0 158.625 109.0 158.625 105.0 C 158.625 107.0 149.75 107.0 149.75 105.0 Z" fill="#404040" stroke="none" stroke-width="1.0" />
<path d="M 161.145 106.232 C 161.145 107.456 162.34021 108.68 163.52101 108.68 C 167.121 108.68 170.72101 106.232 170.72101 103.856 C 170.72101 102.6752 169.49701 101.48 168.345 101.48 C 164.74501 101.48 161.145 103.856 161.145 106.232 Z" fill="#404040" stroke="none" stroke-width="1.0" />
<path d="M 169.805 104.04 L 170.805 104.04 L 170.805 61.0 L 169.805 61.0 M 169.805 104.04 Z" fill="#404040" stroke="none" stroke-width="0.75" />
<path d="M 179.5 97.0 L 195.5 97.0 Z" fill="none" stroke="#d6d6d6" stroke-width="0.75" />
<path d="M 179.5 105.0 L 195.5 105.0 Z" fill="none" stroke="#d6d6d6" stroke-width="0.75" />
<path d="M 171.625 93.0 C 171.625 97.0 180.5 97.0 180.5 93.0 C 180.5 95.0 171.625 95.0 171.625 93.0 Z" fill="#404040" stroke="none" stroke-width="0.75" />
<path d="M 183.02 94.232 C 183.02 95.456 184.21521 96.68 185.39601 96.68 C 188.996 96.68 192.59601 94.232 192.59601 91.856 C 192.59601 90.6752 191.37201 89.48 190.22 89.48 C 186.62001 89.48 183.02 91.856 183.02 94.232 Z" fill="#404040" stroke="none" stroke-width="1.0" />
<path d="M 171.625 105.0 C 171.625 109.0 180.5 109.0 180.5 105.0 C 180.5 107.0 171.625 107.0 171.625 105.0 Z" fill="#404040" stroke="none" stroke-width="1.0" />
<path d="M 183.02 106.232 C 183.02 107.456 184.21521 108.68 185.39601 108.68 C 188.996 108.68 192.59601 106.232 192.59601 103.856 C 192.59601 102.6752 191.37201 101.48 190.22 101.48 C 186.62001 101.48 183.02 103.856 183.02 106.232 Z" fill="#404040" stroke="none" stroke-width="1.0" />
<path d="M 191.68 104.04 L 192.68 104.04 L 192.68 61.0 L 191.68 61.0 M 191.68 104.04 Z" fill="#404040" stroke="none" stroke-width="0.75" />
<path d="M 191.68 59.0 L 191.68 63.0 L 214.555 73.0 L 214.555 69.0 L 191.68 59.0 Z" fill="#404040" stroke="none" stroke-width="0.75" />
<path d="M 201.375 97.0 L 217.375 97.0 Z" fill="none" stroke="#d6d6d6" stroke-width="0.75" />
<path d="M 201.375 105.0 L 217.375 105.0 Z" fill="none" stroke="#d6d6d6" stroke-width="0.75" />
<path d="M 201.375 97.0 L 217.375 97.0 Z" fill="none" stroke="#d6d6d6" stroke-width="0.75" />
<path d="M 201.375 105.0 L 217.375 105.0 Z" fill="none" stroke="#d6d6d6" stroke-width="0.75" />
<path d="M 204.895 106.232 C 204.895 107.456 206.09021 108.68 207.27101 108.68 C 210.871 108.68 214.47101 106.232 214.47101 103.856 C 214.47101 102.6752 213.24701 101.48 212.095 101.48 C 208.49501 101.48 204.895 103.856 204.895 106.232 Z" fill="#404040" stroke="none" stroke-width="1.0" />
<path d="M 203.375 179.25 L 211.375 179.25 L 211.375 186.75 L 203.375 186.75 L 203.375 179.25 Z" fill="#ffffff" stroke="none" stroke-width="1.0" />
<text x='203.375' y='186.75' font-family="Default" font-size="10.0" fill="#404040" >5</text>
<path d="M 213.555 104.04 L 214.555 104.04 L 214.555 71.0 L 213.555 71.0 M 213.555 104.04 Z" fill="#404040" stroke="none" stroke-width="0.75" />
<path d="M 223.25 97.0 L 239.25 97.0 Z" fill="none" stroke="#d6d6d6" stroke-width="0.75" />
<path d="M 223.25 105.0 L 239.25 105.0 Z" fill="none" stroke="#d6d6d6" stroke-width="0.75" />
<path d="M 223.25 97.0 L 239.25 97.0 Z" fill="none" stroke="#d6d6d6" stroke-width="0.75" />
<path d="M 223.25 105.0 L 239.25 105.0 Z" fill="none" stroke="#d6d6d6" stroke-width="0.75" />
<path d="M 226.77 106.232 C 226.77 107.456 227.96521 108.68 229.14601 108.68 C 232.746 108.68 236.34601 106.232 236.34601 103.856 C 236.34601 102.6752 235.12201 101.48 233.97 101.48 C 230.37001 101.48 226.77 103.856 226.77 106.232 Z" fill="#404040" stroke="none" stroke-width="1.0" />
<path d="M 225.25 179.25 L 233.25 179.25 L 233.25 186.75 L 225.25 186.75 L 225.25 179.25 Z" fill="#ffffff" stroke="none" stroke-width="1.0" />
<text x='225.25' y='186.75' font-family="Default" font-size="10.0" fill="#404040" >5</text>
<path d="M 234.25 180.0 L 246.125 186.0 Z" fill="none" stroke="#404040" stroke-width="1.0" />
<path d="M 235.43 104.04 L 236.43 104.04 L 236.43 73.0 L 235.43 73.0 M 235.43 104.04 Z" fill="#404040" stroke="none" stroke-width="0.75" />
<path d="M 235.43 71.0 L 235.43 75.0 L 258.305 67.0 L 258.305 63.0 L 235.43 71.0 Z" fill="#404040" stroke="none" stroke-width="0.75" />
<path d="M 245.125 97.0 L 261.125 97.0 Z" fill="none" stroke="#d6d6d6" stroke-width="0.75" />
<path d="M 245.125 97.0 L 261.125 97.0 Z" fill="none" stroke="#d6d6d6" stroke-width="0.75" />
<path d="M 245.125 105.0 L 261.125 105.0 Z" fill="none" stroke="#d6d6d6" stroke-width="0.75" />
<path d="M 248.645 98.232 C 248.645 99.456 249.84021 100.68 251.02101 100.68 C 254.621 100.68 258.221 98.232 258.221 95.856 C 258.221 94.6752 256.997 93.48 255.845 93.48 C 252.24501 93.48 248.645 95.856 248.645 98.232 Z" fill="#404040" stroke="none" stroke-width="1.0" />
<path d="M 247.125 169.25 L 255.125 169.25 L 255.125 176.75 L 247.125 176.75 L 247.125 169.25 Z" fill="#ffffff" stroke="none" stroke-width="1.0" />
<text x='247.125' y='176.75' font-family="Default" font-size="10.0" fill="#404040" >3</text>
<path d="M 248.645 110.232 C 248.645 111.456 249.84021 112.68 251.02101 112.68 C 254.621 112.68 258.221 110.232 258.221 107.856 C 258.221 106.6752 256.997 105.48 255.845 105.48 C 252.24501 105.48 248.645 107.856 248.645 110.232 Z" fill="#404040" stroke="none" stroke-width="1.0" />
<path d="M 247.125 179.25 L 255.125 179.25 L 255.125 186.75 L 247.125 186.75 L 247.125 179.25 Z" fill="#ffffff" stroke="none" stroke-width="1.0" />
<text x='247.125' y='186.75' font-family="Default" font-size="10.0" fill="#404040" >3</text>
<path d="M 257.305 108.04 L 258.305 108.04 L 258.305 65.0 L 257.305 65.0 M 257.305 108.04 Z" fill="#404040" stroke="none" stroke-width="0.75" /></g>
<text x='116.0' y='20.0' font-family="Default" font-size="10.0" fill="#000000" >Intro grave</text>
<path d="M 35.35 63.3 C 35.35 64.15 36.18 65.0 37.0 65.0 C 39.5 65.0 42.0 63.3 42.0 61.65 C 42.0 60.83 41.149998 60.0 40.35 60.0 C 37.85 60.0 35.35 61.65 35.35 63.3 Z" fill="#000000" stroke="none" stroke-width="1.0" />
<path d="M 42.0 47.0 L 42.0 61.7 Z" fill="none" stroke="#000000" stroke-width="1.0" />
<text x='43.0' y='63.25' font-family="Default" font-size="10.0" fill="#000000" > = 95</text>
<text x='21.0' y='75.0' font-family="Default" font-size="10.0" fill="#ff0000" >1</text>
<path d="M 20.0 77.0 L 23.0 77.0 L 23.0 153.0 L 20.0 153.0 L 20.0 77.0 Z" fill="#000000" stroke="#000000" stroke-width="0.75" />
<path d="M 25.0 77.0 L 26.0 77.0 L 26.0 153.0 L 25.0 153.0 L 25.0 77.0 Z" fill="#000000" stroke="#000000" stroke-width="0.75" />
<path d="M 306.0 77.0 L 306.0 109.0 Z" fill="#000000" stroke="#000000" stroke-width="0.75" />
<path d="M 20.0 153.0 L 23.0 153.0 L 23.0 203.0 L 20.0 203.0 L 20.0 153.0 Z" fill="#000000" stroke="#000000" stroke-width="0.75" />
<path d="M 25.0 153.0 L 26.0 153.0 L 26.0 203.0 L 25.0 203.0 L 25.0 153.0 Z" fill="#000000" stroke="#000000" stroke-width="0.75" />
<path d="M 306.0 153.0 L 306.0 203.0 Z" fill="#000000" stroke="#000000" stroke-width="0.75" /><g transform="translate(306.0,20.0)">
<path d="M 0.0 0.0 L 215.0 0.0 L 215.0 204.0 L 0.0 204.0 L 0.0 0.0 Z" fill="#ffffff" stroke="none" stroke-width="1.0" />
<path d="M 0.0 57.0 L 215.0 57.0 M 0.0 65.0 L 215.0 65.0 M 0.0 73.0 L 215.0 73.0 M 0.0 81.0 L 215.0 81.0 M 0.0 89.0 L 215.0 89.0 Z" fill="none" stroke="#d6d6d6" stroke-width="0.75" />
<path d="M 0.0 133.0 L 215.0 133.0 M 0.0 143.0 L 215.0 143.0 M 0.0 153.0 L 215.0 153.0 M 0.0 163.0 L 215.0 163.0 M 0.0 173.0 L 215.0 173.0 M 0.0 183.0 L 215.0 183.0 Z" fill="none" stroke="#d6d6d6" stroke-width="0.75" />
<path d="M 21.0 97.0 L 37.0 97.0 Z" fill="none" stroke="#d6d6d6" stroke-width="0.75" />
<path d="M 21.0 97.0 L 37.0 97.0 Z" fill="none" stroke="#d6d6d6" stroke-width="0.75" />
<path d="M 21.0 105.0 L 37.0 105.0 Z" fill="none" stroke="#d6d6d6" stroke-width="0.75" />
<path d="M 5.0 109.0 C 5.0 113.0 22.0 113.0 22.0 109.0 C 22.0 111.0 5.0 111.0 5.0 109.0 Z" fill="#404040" stroke="none" stroke-width="0.75" />
<path d="M 24.52 110.232 C 24.52 111.456 25.7152 112.68 26.896 112.68 C 30.496 112.68 34.096 110.232 34.096 107.856 C 34.096 106.6752 32.872 105.48 31.720001 105.48 C 28.12 105.48 24.52 107.856 24.52 110.232 Z" fill="#404040" stroke="none" stroke-width="1.0" />
<path d="M 5.0 97.0 C 5.0 101.0 22.0 101.0 22.0 97.0 C 22.0 99.0 5.0 99.0 5.0 97.0 Z" fill="#404040" stroke="none" stroke-width="1.0" />
<path d="M 24.52 98.232 C 24.52 99.456 25.7152 100.68 26.896 100.68 C 30.496 100.68 34.096 98.232 34.096 95.856 C 34.096 94.6752 32.872 93.48 31.720001 93.48 C 28.12 93.48 24.52 95.856 24.52 98.232 Z" fill="#404040" stroke="none" stroke-width="1.0" />
<path d="M 33.18 108.04 L 34.18 108.04 L 34.18 65.0 L 33.18 65.0 M 33.18 108.04 Z" fill="#404040" stroke="none" stroke-width="0.75" />
<path d="M 33.18 63.0 L 33.18 67.0 L 56.055 77.0 L 56.055 73.0 L 33.18 63.0 Z" fill="#404040" stroke="none" stroke-width="0.75" />
<path d="M 42.875 97.0 L 58.875 97.0 Z" fill="none" stroke="#d6d6d6" stroke-width="0.75" />
<path d="M 42.875 105.0 L 58.875 105.0 Z" fill="none" stroke="#d6d6d6" stroke-width="0.75" />
<path d="M 42.875 97.0 L 58.875 97.0 Z" fill="none" stroke="#d6d6d6" stroke-width="0.75" />
<path d="M 42.875 105.0 L 58.875 105.0 Z" fill="none" stroke="#d6d6d6" stroke-width="0.75" />
<path d="M 46.395 110.232 C 46.395 111.456 47.590202 112.68 48.771 112.68 C 52.371002 112.68 55.971 110.232 55.971 107.856 C 55.971 106.6752 54.747 105.48 53.595 105.48 C 49.995 105.48 46.395 107.856 46.395 110.232 Z" fill="#404040" stroke="none" stroke-width="1.0" />
<path d="M 44.875 179.25 L 52.875 179.25 L 52.875 186.75 L 44.875 186.75 L 44.875 179.25 Z" fill="#ffffff" stroke="none" stroke-width="1.0" />
<text x='44.875' y='186.75' font-family="Default" font-size="10.0" fill="#404040" >3</text>
<path d="M 55.055 108.04 L 56.055 108.04 L 56.055 75.0 L 55.055 75.0 M 55.055 108.04 Z" fill="#404040" stroke="none" stroke-width="0.75" />
<path d="M 64.75 97.0 L 80.75 97.0 Z" fill="none" stroke="#d6d6d6" stroke-width="0.75" />
<path d="M 64.75 105.0 L 80.75 105.0 Z" fill="none" stroke="#d6d6d6" stroke-width="0.75" />
<path d="M 64.75 97.0 L 80.75 97.0 Z" fill="none" stroke="#d6d6d6" stroke-width="0.75" />
<path d="M 64.75 105.0 L 80.75 105.0 Z" fill="none" stroke="#d6d6d6" stroke-width="0.75" />
<path d="M 68.27 110.232 C 68.27 111.456 69.465195 112.68 70.645996 112.68 C 74.245995 112.68 77.84599 110.232 77.84599 107.856 C 77.84599 106.6752 76.621994 105.48 75.46999 105.48 C 71.869995 105.48 68.27 107.856 68.27 110.232 Z" fill="#404040" stroke="none" stroke-width="1.0" />
<path d="M 66.75 179.25 L 74.75 179.25 L 74.75 186.75 L 66.75 186.75 L 66.75 179.25 Z" fill="#ffffff" stroke="none" stroke-width="1.0" />
<text x='66.75' y='186.75' font-family="Default" font-size="10.0" fill="#404040" >3</text>
<path d="M 75.75 186.0 L 87.625 180.0 Z" fill="none" stroke="#404040" stroke-width="1.0" />
<path d="M 76.93 108.04 L 77.93 108.04 L 77.93 71.0 L 76.93 71.0 M 76.93 108.04 Z" fill="#404040" stroke="none" stroke-width="0.75" />
<path d="M 76.93 69.0 L 76.93 73.0 L 99.805 63.0 L 99.805 59.0 L 76.93 69.0 Z" fill="#404040" stroke="none" stroke-width="0.75" />
<path d="M 86.625 97.0 L 102.625 97.0 Z" fill="none" stroke="#d6d6d6" stroke-width="0.75" />
<path d="M 86.625 105.0 L 102.625 105.0 Z" fill="none" stroke="#d6d6d6" stroke-width="0.75" />
<path d="M 90.145 106.232 C 90.145 107.456 91.340195 108.68 92.520996 108.68 C 96.120995 108.68 99.72099 106.232 99.72099 103.856 C 99.72099 102.6752 98.496994 101.48 97.34499 101.48 C 93.744995 101.48 90.145 103.856 90.145 106.232 Z" fill="#404040" stroke="none" stroke-width="1.0" />
<path d="M 88.625 179.25 L 96.625 179.25 L 96.625 186.75 L 88.625 186.75 L 88.625 179.25 Z" fill="#ffffff" stroke="none" stroke-width="1.0" />
<text x='88.625' y='186.75' font-family="Default" font-size="10.0" fill="#404040" >5</text>
<path d="M 90.145 94.232 C 90.145 95.456 91.340195 96.68 92.520996 96.68 C 96.120995 96.68 99.72099 94.232 99.72099 91.856 C 99.72099 90.6752 98.496994 89.48 97.34499 89.48 C 93.744995 89.48 90.145 91.856 90.145 94.232 Z" fill="#404040" stroke="none" stroke-width="1.0" />
<path d="M 88.625 169.25 L 96.625 169.25 L 96.625 176.75 L 88.625 176.75 L 88.625 169.25 Z" fill="#ffffff" stroke="none" stroke-width="1.0" />
<text x='88.625' y='176.75' font-family="Default" font-size="10.0" fill="#404040" >5</text>
<path d="M 98.805 104.04 L 99.805 104.04 L 99.805 61.0 L 98.805 61.0 M 98.805 104.04 Z" fill="#404040" stroke="none" stroke-width="0.75" />
<path d="M 108.5 97.0 L 124.5 97.0 Z" fill="none" stroke="#d6d6d6" stroke-width="0.75" />
<path d="M 108.5 105.0 L 124.5 105.0 Z" fill="none" stroke="#d6d6d6" stroke-width="0.75" />
<path d="M 100.625 105.0 C 100.625 109.0 109.5 109.0 109.5 105.0 C 109.5 107.0 100.625 107.0 100.625 105.0 Z" fill="#404040" stroke="none" stroke-width="0.75" />
<path d="M 112.02 106.232 C 112.02 107.456 113.215195 108.68 114.395996 108.68 C 117.995995 108.68 121.59599 106.232 121.59599 103.856 C 121.59599 102.6752 120.371994 101.48 119.21999 101.48 C 115.619995 101.48 112.02 103.856 112.02 106.232 Z" fill="#404040" stroke="none" stroke-width="1.0" />
<path d="M 100.625 93.0 C 100.625 97.0 109.5 97.0 109.5 93.0 C 109.5 95.0 100.625 95.0 100.625 93.0 Z" fill="#404040" stroke="none" stroke-width="1.0" />
<path d="M 112.02 94.232 C 112.02 95.456 113.215195 96.68 114.395996 96.68 C 117.995995 96.68 121.59599 94.232 121.59599 91.856 C 121.59599 90.6752 120.371994 89.48 119.21999 89.48 C 115.619995 89.48 112.02 91.856 112.02 94.232 Z" fill="#404040" stroke="none" stroke-width="1.0" />
<path d="M 120.68 104.04 L 121.68 104.04 L 121.68 61.0 L 120.68 61.0 M 120.68 104.04 Z" fill="#404040" stroke="none" stroke-width="0.75" />
<path d="M 120.68 59.0 L 120.68 63.0 L 143.555 73.0 L 143.555 69.0 L 120.68 59.0 Z" fill="#404040" stroke="none" stroke-width="0.75" />
<path d="M 130.375 97.0 L 146.375 97.0 Z" fill="none" stroke="#d6d6d6" stroke-width="0.75" />
<path d="M 130.375 105.0 L 146.375 105.0 Z" fill="none" stroke="#d6d6d6" stroke-width="0.75" />
<path d="M 130.375 97.0 L 146.375 97.0 Z" fill="none" stroke="#d6d6d6" stroke-width="0.75" />
<path d="M 130.375 105.0 L 146.375 105.0 Z" fill="none" stroke="#d6d6d6" stroke-width="0.75" />
<path d="M 133.895 106.232 C 133.895 107.456 135.09021 108.68 136.27101 108.68 C 139.871 108.68 143.47101 106.232 143.47101 103.856 C 143.47101 102.6752 142.24701 101.48 141.095 101.48 C 137.49501 101.48 133.895 103.856 133.895 106.232 Z" fill="#404040" stroke="none" stroke-width="1.0" />
<path d="M 132.375 179.25 L 140.375 179.25 L 140.375 186.75 L 132.375 186.75 L 132.375 179.25 Z" fill="#ffffff" stroke="none" stroke-width="1.0" />
<text x='132.375' y='186.75' font-family="Default" font-size="10.0" fill="#404040" >5</text>
<path d="M 142.555 104.04 L 143.555 104.04 L 143.555 71.0 L 142.555 71.0 M 142.555 104.04 Z" fill="#404040" stroke="none" stroke-width="0.75" />
<path d="M 152.25 97.0 L 168.25 97.0 Z" fill="none" stroke="#d6d6d6" stroke-width="0.75" />
<path d="M 152.25 105.0 L 168.25 105.0 Z" fill="none" stroke="#d6d6d6" stroke-width="0.75" />
<path d="M 152.25 97.0 L 168.25 97.0 Z" fill="none" stroke="#d6d6d6" stroke-width="0.75" />
<path d="M 152.25 105.0 L 168.25 105.0 Z" fill="none" stroke="#d6d6d6" stroke-width="0.75" />
<path d="M 155.77 106.232 C 155.77 107.456 156.96521 108.68 158.14601 108.68 C 161.746 108.68 165.34601 106.232 165.34601 103.856 C 165.34601 102.6752 164.12201 101.48 162.97 101.48 C 159.37001 101.48 155.77 103.856 155.77 106.232 Z" fill="#404040" stroke="none" stroke-width="1.0" />
<path d="M 154.25 179.25 L 162.25 179.25 L 162.25 186.75 L 154.25 186.75 L 154.25 179.25 Z" fill="#ffffff" stroke="none" stroke-width="1.0" />
<text x='154.25' y='186.75' font-family="Default" font-size="10.0" fill="#404040" >5</text>
<path d="M 164.43 104.04 L 165.43 104.04 L 165.43 73.0 L 164.43 73.0 M 164.43 104.04 Z" fill="#404040" stroke="none" stroke-width="0.75" />
<path d="M 164.43 71.0 L 164.43 75.0 L 187.305 75.0 L 187.305 71.0 L 164.43 71.0 Z" fill="#404040" stroke="none" stroke-width="0.75" />
<path d="M 174.125 97.0 L 190.125 97.0 Z" fill="none" stroke="#d6d6d6" stroke-width="0.75" />
<path d="M 174.125 105.0 L 190.125 105.0 Z" fill="none" stroke="#d6d6d6" stroke-width="0.75" />
<path d="M 174.125 97.0 L 190.125 97.0 Z" fill="none" stroke="#d6d6d6" stroke-width="0.75" />
<path d="M 174.125 105.0 L 190.125 105.0 Z" fill="none" stroke="#d6d6d6" stroke-width="0.75" />
<path d="M 177.645 106.232 C 177.645 107.456 178.84021 108.68 180.02101 108.68 C 183.621 108.68 187.22101 106.232 187.22101 103.856 C 187.22101 102.6752 185.99701 101.48 184.845 101.48 C 181.24501 101.48 177.645 103.856 177.645 106.232 Z" fill="#404040" stroke="none" stroke-width="1.0" />
<path d="M 176.125 179.25 L 184.125 179.25 L 184.125 186.75 L 176.125 186.75 L 176.125 179.25 Z" fill="#ffffff" stroke="none" stroke-width="1.0" />
<text x='176.125' y='186.75' font-family="Default" font-size="10.0" fill="#404040" >5</text>
<path d="M 186.305 104.04 L 187.305 104.04 L 187.305 73.0 L 186.305 73.0 M 186.305 104.04 Z" fill="#404040" stroke="none" stroke-width="0.75" /></g>
<text x='307.0' y='75.0' font-family="Default" font-size="10.0" fill="#ff0000" >2</text>
<path d="M 306.0 77.0 L 306.0 109.0 Z" fill="#000000" stroke="#000000" stroke-width="0.75" />
<path d="M 521.0 77.0 L 521.0 109.0 Z" fill="#000000" stroke="#000000" stroke-width="0.75" />
<path d="M 306.0 153.0 L 306.0 203.0 Z" fill="#000000" stroke="#000000" stroke-width="0.75" />
<path d="M 521.0 153.0 L 521.0 203.0 Z" fill="#000000" stroke="#000000" stroke-width="0.75" /><g transform="translate(521.0,20.0)">
<path d="M 0.0 0.0 L 214.0 0.0 L 214.0 204.0 L 0.0 204.0 L 0.0 0.0 Z" fill="#ffffff" stroke="none" stroke-width="1.0" />
<path d="M 0.0 57.0 L 214.0 57.0 M 0.0 65.0 L 214.0 65.0 M 0.0 73.0 L 214.0 73.0 M 0.0 81.0 L 214.0 81.0 M 0.0 89.0 L 214.0 89.0 Z" fill="none" stroke="#d6d6d6" stroke-width="0.75" />
<path d="M 0.0 133.0 L 214.0 133.0 M 0.0 143.0 L 214.0 143.0 M 0.0 153.0 L 214.0 153.0 M 0.0 163.0 L 214.0 163.0 M 0.0 173.0 L 214.0 173.0 M 0.0 183.0 L 214.0 183.0 Z" fill="none" stroke="#d6d6d6" stroke-width="0.75" />
<path d="M 21.0 97.0 L 37.0 97.0 Z" fill="none" stroke="#d6d6d6" stroke-width="0.75" />
<path d="M 21.0 105.0 L 37.0 105.0 Z" fill="none" stroke="#d6d6d6" stroke-width="0.75" />
<path d="M 21.0 97.0 L 37.0 97.0 Z" fill="none" stroke="#d6d6d6" stroke-width="0.75" />
<path d="M 21.0 105.0 L 37.0 105.0 Z" fill="none" stroke="#d6d6d6" stroke-width="0.75" />
<path d="M 5.0 105.0 C 5.0 109.0 22.0 109.0 22.0 105.0 C 22.0 107.0 5.0 107.0 5.0 105.0 Z" fill="#404040" stroke="none" stroke-width="0.75" />
<path d="M 24.52 106.232 C 24.52 107.456 25.7152 108.68 26.896 108.68 C 30.496 108.68 34.096 106.232 34.096 103.856 C 34.096 102.6752 32.872 101.48 31.720001 101.48 C 28.12 101.48 24.52 103.856 24.52 106.232 Z" fill="#404040" stroke="none" stroke-width="1.0" />
<path d="M 33.18 104.04 L 34.18 104.04 L 34.18 67.0 L 33.18 67.0 M 33.18 104.04 Z" fill="#404040" stroke="none" stroke-width="0.75" />
<path d="M 33.18 65.0 L 33.18 69.0 L 55.93 59.0 L 55.93 55.0 L 33.18 65.0 Z" fill="#404040" stroke="none" stroke-width="0.75" />
<path d="M 46.27 90.232 C 46.27 91.456 47.465202 92.68 48.646 92.68 C 52.246002 92.68 55.846 90.232 55.846 87.856 C 55.846 86.6752 54.622 85.48 53.47 85.48 C 49.87 85.48 46.27 87.856 46.27 90.232 Z" fill="#404040" stroke="none" stroke-width="1.0" />
<path d="M 44.75 169.25 L 52.75 169.25 L 52.75 176.75 L 44.75 176.75 L 44.75 169.25 Z" fill="#ffffff" stroke="none" stroke-width="1.0" />
<text x='44.75' y='176.75' font-family="Default" font-size="10.0" fill="#404040" >7</text>
<path d="M 54.93 88.04 L 55.93 88.04 L 55.93 57.0 L 54.93 57.0 M 54.93 88.04 Z" fill="#404040" stroke="none" stroke-width="0.75" />
<path d="M 64.5 97.0 L 80.5 97.0 Z" fill="none" stroke="#d6d6d6" stroke-width="0.75" />
<path d="M 64.5 105.0 L 80.5 105.0 Z" fill="none" stroke="#d6d6d6" stroke-width="0.75" />
<path d="M 64.5 97.0 L 80.5 97.0 Z" fill="none" stroke="#d6d6d6" stroke-width="0.75" />
<path d="M 64.5 105.0 L 80.5 105.0 Z" fill="none" stroke="#d6d6d6" stroke-width="0.75" />
<path d="M 68.02 106.232 C 68.02 107.456 69.215195 108.68 70.395996 108.68 C 73.995995 108.68 77.59599 106.232 77.59599 103.856 C 77.59599 102.6752 76.371994 101.48 75.21999 101.48 C 71.619995 101.48 68.02 103.856 68.02 106.232 Z" fill="#404040" stroke="none" stroke-width="1.0" />
<path d="M 66.5 179.25 L 74.5 179.25 L 74.5 186.75 L 66.5 186.75 L 66.5 179.25 Z" fill="#ffffff" stroke="none" stroke-width="1.0" />
<text x='66.5' y='186.75' font-family="Default" font-size="10.0" fill="#404040" >5</text>
<path d="M 76.68 104.04 L 77.68 104.04 L 77.68 71.0 L 76.68 71.0 M 76.68 104.04 Z" fill="#404040" stroke="none" stroke-width="0.75" />
<path d="M 76.68 69.0 L 76.68 73.0 L 99.43 63.0 L 99.43 59.0 L 76.68 69.0 Z" fill="#404040" stroke="none" stroke-width="0.75" />
<path d="M 86.25 97.0 L 102.25 97.0 Z" fill="none" stroke="#d6d6d6" stroke-width="0.75" />
<path d="M 86.25 105.0 L 102.25 105.0 Z" fill="none" stroke="#d6d6d6" stroke-width="0.75" />
<path d="M 89.77 94.232 C 89.77 95.456 90.965195 96.68 92.145996 96.68 C 95.745995 96.68 99.34599 94.232 99.34599 91.856 C 99.34599 90.6752 98.121994 89.48 96.96999 89.48 C 93.369995 89.48 89.77 91.856 89.77 94.232 Z" fill="#404040" stroke="none" stroke-width="1.0" />
<path d="M 88.25 169.25 L 96.25 169.25 L 96.25 176.75 L 88.25 176.75 L 88.25 169.25 Z" fill="#ffffff" stroke="none" stroke-width="1.0" />
<text x='88.25' y='176.75' font-family="Default" font-size="10.0" fill="#404040" >5</text>
<path d="M 78.5 105.0 C 78.5 109.0 87.25 109.0 87.25 105.0 C 87.25 107.0 78.5 107.0 78.5 105.0 Z" fill="#404040" stroke="none" stroke-width="1.0" />
<path d="M 89.77 106.232 C 89.77 107.456 90.965195 108.68 92.145996 108.68 C 95.745995 108.68 99.34599 106.232 99.34599 103.856 C 99.34599 102.6752 98.121994 101.48 96.96999 101.48 C 93.369995 101.48 89.77 103.856 89.77 106.232 Z" fill="#404040" stroke="none" stroke-width="1.0" />
<path d="M 98.43 104.04 L 99.43 104.04 L 99.43 61.0 L 98.43 61.0 M 98.43 104.04 Z" fill="#404040" stroke="none" stroke-width="0.75" />
<path d="M 108.0 97.0 L 124.0 97.0 Z" fill="none" stroke="#d6d6d6" stroke-width="0.75" />
<path d="M 108.0 105.0 L 124.0 105.0 Z" fill="none" stroke="#d6d6d6" stroke-width="0.75" />
<path d="M 100.25 93.0 C 100.25 97.0 109.0 97.0 109.0 93.0 C 109.0 95.0 100.25 95.0 100.25 93.0 Z" fill="#404040" stroke="none" stroke-width="0.75" />
<path d="M 111.52 94.232 C 111.52 95.456 112.715195 96.68 113.895996 96.68 C 117.495995 96.68 121.09599 94.232 121.09599 91.856 C 121.09599 90.6752 119.871994 89.48 118.71999 89.48 C 115.119995 89.48 111.52 91.856 111.52 94.232 Z" fill="#404040" stroke="none" stroke-width="1.0" />
<path d="M 100.25 105.0 C 100.25 109.0 109.0 109.0 109.0 105.0 C 109.0 107.0 100.25 107.0 100.25 105.0 Z" fill="#404040" stroke="none" stroke-width="1.0" />
<path d="M 111.52 106.232 C 111.52 107.456 112.715195 108.68 113.895996 108.68 C 117.495995 108.68 121.09599 106.232 121.09599 103.856 C 121.09599 102.6752 119.871994 101.48 118.71999 101.48 C 115.119995 101.48 111.52 103.856 111.52 106.232 Z" fill="#404040" stroke="none" stroke-width="1.0" />
<path d="M 120.18 104.04 L 121.18 104.04 L 121.18 61.0 L 120.18 61.0 M 120.18 104.04 Z" fill="#404040" stroke="none" stroke-width="0.75" />
<path d="M 120.18 59.0 L 120.18 63.0 L 142.93 73.0 L 142.93 69.0 L 120.18 59.0 Z" fill="#404040" stroke="none" stroke-width="0.75" />
<path d="M 129.75 97.0 L 145.75 97.0 Z" fill="none" stroke="#d6d6d6" stroke-width="0.75" />
<path d="M 129.75 105.0 L 145.75 105.0 Z" fill="none" stroke="#d6d6d6" stroke-width="0.75" />
<path d="M 129.75 97.0 L 145.75 97.0 Z" fill="none" stroke="#d6d6d6" stroke-width="0.75" />
<path d="M 129.75 105.0 L 145.75 105.0 Z" fill="none" stroke="#d6d6d6" stroke-width="0.75" />
<path d="M 133.27 106.232 C 133.27 107.456 134.46521 108.68 135.64601 108.68 C 139.246 108.68 142.84601 106.232 142.84601 103.856 C 142.84601 102.6752 141.62201 101.48 140.47 101.48 C 136.87001 101.48 133.27 103.856 133.27 106.232 Z" fill="#404040" stroke="none" stroke-width="1.0" />
<path d="M 131.75 179.25 L 139.75 179.25 L 139.75 186.75 L 131.75 186.75 L 131.75 179.25 Z" fill="#ffffff" stroke="none" stroke-width="1.0" />
<text x='131.75' y='186.75' font-family="Default" font-size="10.0" fill="#404040" >5</text>
<path d="M 141.93 104.04 L 142.93 104.04 L 142.93 71.0 L 141.93 71.0 M 141.93 104.04 Z" fill="#404040" stroke="none" stroke-width="0.75" />
<path d="M 151.5 97.0 L 167.5 97.0 Z" fill="none" stroke="#d6d6d6" stroke-width="0.75" />
<path d="M 151.5 105.0 L 167.5 105.0 Z" fill="none" stroke="#d6d6d6" stroke-width="0.75" />
<path d="M 151.5 97.0 L 167.5 97.0 Z" fill="none" stroke="#d6d6d6" stroke-width="0.75" />
<path d="M 151.5 105.0 L 167.5 105.0 Z" fill="none" stroke="#d6d6d6" stroke-width="0.75" />
<path d="M 155.02 106.232 C 155.02 107.456 156.21521 108.68 157.39601 108.68 C 160.996 108.68 164.59601 106.232 164.59601 103.856 C 164.59601 102.6752 163.37201 101.48 162.22 101.48 C 158.62001 101.48 155.02 103.856 155.02 106.232 Z" fill="#404040" stroke="none" stroke-width="1.0" />
<path d="M 153.5 179.25 L 161.5 179.25 L 161.5 186.75 L 153.5 186.75 L 153.5 179.25 Z" fill="#ffffff" stroke="none" stroke-width="1.0" />
<text x='153.5' y='186.75' font-family="Default" font-size="10.0" fill="#404040" >5</text>
<path d="M 162.5 180.0 L 174.25 186.0 Z" fill="none" stroke="#404040" stroke-width="1.0" />
<path d="M 163.68 104.04 L 164.68 104.04 L 164.68 73.0 L 163.68 73.0 M 163.68 104.04 Z" fill="#404040" stroke="none" stroke-width="0.75" />
<path d="M 163.68 71.0 L 163.68 75.0 L 186.43 67.0 L 186.43 63.0 L 163.68 71.0 Z" fill="#404040" stroke="none" stroke-width="0.75" />
<path d="M 173.25 97.0 L 189.25 97.0 Z" fill="none" stroke="#d6d6d6" stroke-width="0.75" />
<path d="M 173.25 97.0 L 189.25 97.0 Z" fill="none" stroke="#d6d6d6" stroke-width="0.75" />
<path d="M 173.25 105.0 L 189.25 105.0 Z" fill="none" stroke="#d6d6d6" stroke-width="0.75" />
<path d="M 176.77 98.232 C 176.77 99.456 177.96521 100.68 179.14601 100.68 C 182.746 100.68 186.34601 98.232 186.34601 95.856 C 186.34601 94.6752 185.12201 93.48 183.97 93.48 C 180.37001 93.48 176.77 95.856 176.77 98.232 Z" fill="#404040" stroke="none" stroke-width="1.0" />
<path d="M 175.25 169.25 L 183.25 169.25 L 183.25 176.75 L 175.25 176.75 L 175.25 169.25 Z" fill="#ffffff" stroke="none" stroke-width="1.0" />
<text x='175.25' y='176.75' font-family="Default" font-size="10.0" fill="#404040" >3</text>
<path d="M 176.77 110.232 C 176.77 111.456 177.96521 112.68 179.14601 112.68 C 182.746 112.68 186.34601 110.232 186.34601 107.856 C 186.34601 106.6752 185.12201 105.48 183.97 105.48 C 180.37001 105.48 176.77 107.856 176.77 110.232 Z" fill="#404040" stroke="none" stroke-width="1.0" />
<path d="M 175.25 179.25 L 183.25 179.25 L 183.25 186.75 L 175.25 186.75 L 175.25 179.25 Z" fill="#ffffff" stroke="none" stroke-width="1.0" />
<text x='175.25' y='186.75' font-family="Default" font-size="10.0" fill="#404040" >3</text>
<path d="M 185.43 108.04 L 186.43 108.04 L 186.43 65.0 L 185.43 65.0 M 185.43 108.04 Z" fill="#404040" stroke="none" stroke-width="0.75" /></g>
<text x='522.0' y='75.0' font-family="Default" font-size="10.0" fill="#ff0000" >3</text>
<path d="M 521.0 77.0 L 521.0 109.0 Z" fill="#000000" stroke="#000000" stroke-width="0.75" />
<path d="M 735.0 77.0 L 735.0 109.0 Z" fill="#000000" stroke="#000000" stroke-width="0.75" />
<path d="M 521.0 153.0 L 521.0 203.0 Z" fill="#000000" stroke="#000000" stroke-width="0.75" />
<path d="M 735.0 153.0 L 735.0 203.0 Z" fill="#000000" stroke="#000000" stroke-width="0.75" /><g transform="translate(735.0,20.0)">
<path d="M 0.0 0.0 L 215.0 0.0 L 215.0 204.0 L 0.0 204.0 L 0.0 0.0 Z" fill="#ffffff" stroke="none" stroke-width="1.0" />
<path d="M 0.0 57.0 L 215.0 57.0 M 0.0 65.0 L 215.0 65.0 M 0.0 73.0 L 215.0 73.0 M 0.0 81.0 L 215.0 81.0 M 0.0 89.0 L 215.0 89.0 Z" fill="none" stroke="#d6d6d6" stroke-width="0.75" />
<path d="M 0.0 133.0 L 215.0 133.0 M 0.0 143.0 L 215.0 143.0 M 0.0 153.0 L 215.0 153.0 M 0.0 163.0 L 215.0 163.0 M 0.0 173.0 L 215.0 173.0 M 0.0 183.0 L 215.0 183.0 Z" fill="none" stroke="#d6d6d6" stroke-width="0.75" />
<path d="M 21.0 97.0 L 37.0 97.0 Z" fill="none" stroke="#d6d6d6" stroke-width="0.75" />
<path d="M 21.0 97.0 L 37.0 97.0 Z" fill="none" stroke="#d6d6d6" stroke-width="0.75" />
<path d="M 21.0 105.0 L 37.0 105.0 Z" fill="none" stroke="#d6d6d6" stroke-width="0.75" />
<path d="M 5.0 109.0 C 5.0 113.0 22.0 113.0 22.0 109.0 C 22.0 111.0 5.0 111.0 5.0 109.0 Z" fill="#404040" stroke="none" stroke-width="0.75" />
<path d="M 24.52 110.232 C 24.52 111.456 25.7152 112.68 26.896 112.68 C 30.496 112.68 34.096 110.232 34.096 107.856 C 34.096 106.6752 32.872 105.48 31.720001 105.48 C 28.12 105.48 24.52 107.856 24.52 110.232 Z" fill="#404040" stroke="none" stroke-width="1.0" />
<path d="M 5.0 97.0 C 5.0 101.0 22.0 101.0 22.0 97.0 C 22.0 99.0 5.0 99.0 5.0 97.0 Z" fill="#404040" stroke="none" stroke-width="1.0" />
<path d="M 24.52 98.232 C 24.52 99.456 25.7152 100.68 26.896 100.68 C 30.496 100.68 34.096 98.232 34.096 95.856 C 34.096 94.6752 32.872 93.48 31.720001 93.48 C 28.12 93.48 24.52 95.856 24.52 98.232 Z" fill="#404040" stroke="none" stroke-width="1.0" />
<path d="M 33.18 108.04 L 34.18 108.04 L 34.18 65.0 L 33.18 65.0 M 33.18 108.04 Z" fill="#404040" stroke="none" stroke-width="0.75" />
<path d="M 33.18 63.0 L 33.18 67.0 L 56.055 77.0 L 56.055 73.0 L 33.18 63.0 Z" fill="#404040" stroke="none" stroke-width="0.75" />
<path d="M 42.875 97.0 L 58.875 97.0 Z" fill="none" stroke="#d6d6d6" stroke-width="0.75" />
<path d="M 42.875 105.0 L 58.875 105.0 Z" fill="none" stroke="#d6d6d6" stroke-width="0.75" />
<path d="M 42.875 97.0 L 58.875 97.0 Z" fill="none" stroke="#d6d6d6" stroke-width="0.75" />
<path d="M 42.875 105.0 L 58.875 105.0 Z" fill="none" stroke="#d6d6d6" stroke-width="0.75" />
<path d="M 46.395 110.232 C 46.395 111.456 47.590202 112.68 48.771 112.68 C 52.371002 112.68 55.971 110.232 55.971 107.856 C 55.971 106.6752 54.747 105.48 53.595 105.48 C 49.995 105.48 46.395 107.856 46.395 110.232 Z" fill="#404040" stroke="none" stroke-width="1.0" />
<path d="M 44.875 179.25 L 52.875 179.25 L 52.875 186.75 L 44.875 186.75 L 44.875 179.25 Z" fill="#ffffff" stroke="none" stroke-width="1.0" />
<text x='44.875' y='186.75' font-family="Default" font-size="10.0" fill="#404040" >3</text>
<path d="M 55.055 108.04 L 56.055 108.04 L 56.055 75.0 L 55.055 75.0 M 55.055 108.04 Z" fill="#404040" stroke="none" stroke-width="0.75" />
<path d="M 64.75 97.0 L 80.75 97.0 Z" fill="none" stroke="#d6d6d6" stroke-width="0.75" />
<path d="M 64.75 105.0 L 80.75 105.0 Z" fill="none" stroke="#d6d6d6" stroke-width="0.75" />
<path d="M 64.75 97.0 L 80.75 97.0 Z" fill="none" stroke="#d6d6d6" stroke-width="0.75" />
<path d="M 64.75 105.0 L 80.75 105.0 Z" fill="none" stroke="#d6d6d6" stroke-width="0.75" />
<path d="M 68.27 110.232 C 68.27 111.456 69.465195 112.68 70.645996 112.68 C 74.245995 112.68 77.84599 110.232 77.84599 107.856 C 77.84599 106.6752 76.621994 105.48 75.46999 105.48 C 71.869995 105.48 68.27 107.856 68.27 110.232 Z" fill="#404040" stroke="none" stroke-width="1.0" />
<path d="M 66.75 179.25 L 74.75 179.25 L 74.75 186.75 L 66.75 186.75 L 66.75 179.25 Z" fill="#ffffff" stroke="none" stroke-width="1.0" />
<text x='66.75' y='186.75' font-family="Default" font-size="10.0" fill="#404040" >3</text>
<path d="M 75.75 186.0 L 87.625 180.0 Z" fill="none" stroke="#404040" stroke-width="1.0" />
<path d="M 76.93 108.04 L 77.93 108.04 L 77.93 71.0 L 76.93 71.0 M 76.93 108.04 Z" fill="#404040" stroke="none" stroke-width="0.75" />
<path d="M 76.93 69.0 L 76.93 73.0 L 99.805 63.0 L 99.805 59.0 L 76.93 69.0 Z" fill="#404040" stroke="none" stroke-width="0.75" />
<path d="M 86.625 97.0 L 102.625 97.0 Z" fill="none" stroke="#d6d6d6" stroke-width="0.75" />
<path d="M 86.625 105.0 L 102.625 105.0 Z" fill="none" stroke="#d6d6d6" stroke-width="0.75" />
<path d="M 90.145 106.232 C 90.145 107.456 91.340195 108.68 92.520996 108.68 C 96.120995 108.68 99.72099 106.232 99.72099 103.856 C 99.72099 102.6752 98.496994 101.48 97.34499 101.48 C 93.744995 101.48 90.145 103.856 90.145 106.232 Z" fill="#404040" stroke="none" stroke-width="1.0" />
<path d="M 88.625 179.25 L 96.625 179.25 L 96.625 186.75 L 88.625 186.75 L 88.625 179.25 Z" fill="#ffffff" stroke="none" stroke-width="1.0" />
<text x='88.625' y='186.75' font-family="Default" font-size="10.0" fill="#404040" >5</text>
<path d="M 90.145 94.232 C 90.145 95.456 91.340195 96.68 92.520996 96.68 C 96.120995 96.68 99.72099 94.232 99.72099 91.856 C 99.72099 90.6752 98.496994 89.48 97.34499 89.48 C 93.744995 89.48 90.145 91.856 90.145 94.232 Z" fill="#404040" stroke="none" stroke-width="1.0" />
<path d="M 88.625 169.25 L 96.625 169.25 L 96.625 176.75 L 88.625 176.75 L 88.625 169.25 Z" fill="#ffffff" stroke="none" stroke-width="1.0" />
<text x='88.625' y='176.75' font-family="Default" font-size="10.0" fill="#404040" >5</text>
<path d="M 98.805 104.04 L 99.805 104.04 L 99.805 61.0 L 98.805 61.0 M 98.805 104.04 Z" fill="#404040" stroke="none" stroke-width="0.75" />
<path d="M 108.5 97.0 L 124.5 97.0 Z" fill="none" stroke="#d6d6d6" stroke-width="0.75" />
<path d="M 108.5 105.0 L 124.5 105.0 Z" fill="none" stroke="#d6d6d6" stroke-width="0.75" />
<path d="M 100.625 105.0 C 100.625 109.0 109.5 109.0 109.5 105.0 C 109.5 107.0 100.625 107.0 100.625 105.0 Z" fill="#404040" stroke="none" stroke-width="0.75" />
<path d="M 112.02 106.232 C 112.02 107.456 113.215195 108.68 114.395996 108.68 C 117.995995 108.68 121.59599 106.232 121.59599 103.856 C 121.59599 102.6752 120.371994 101.48 119.21999 101.48 C 115.619995 101.48 112.02 103.856 112.02 106.232 Z" fill="#404040" stroke="none" stroke-width="1.0" />
<path d="M 100.625 93.0 C 100.625 97.0 109.5 97.0 109.5 93.0 C 109.5 95.0 100.625 95.0 100.625 93.0 Z" fill="#404040" stroke="none" stroke-width="1.0" />
<path d="M 112.02 94.232 C 112.02 95.456 113.215195 96.68 114.395996 96.68 C 117.995995 96.68 121.59599 94.232 121.59599 91.856 C 121.59599 90.6752 120.371994 89.48 119.21999 89.48 C 115.619995 89.48 112.02 91.856 112.02 94.232 Z" fill="#404040" stroke="none" stroke-width="1.0" />
<path d="M 120.68 104.04 L 121.68 104.04 L 121.68 47.0 L 120.68 47.0 M 120.68 104.04 Z" fill="#404040" stroke="none" stroke-width="0.75" />
<path d="M 120.68 45.0 L 120.68 49.0 L 143.555 39.0 L 143.555 35.0 L 120.68 45.0 Z" fill="#404040" stroke="none" stroke-width="0.75" />
<path d="M 130.375 97.0 L 146.375 97.0 Z" fill="none" stroke="#d6d6d6" stroke-width="0.75" />
<path d="M 133.895 98.232 C 133.895 99.456 135.09021 100.68 136.27101 100.68 C 139.871 100.68 143.47101 98.232 143.47101 95.856 C 143.47101 94.6752 142.24701 93.48 141.095 93.48 C 137.49501 93.48 133.895 95.856 133.895 98.232 Z" fill="#404040" stroke="none" stroke-width="1.0" />
<path d="M 132.375 169.25 L 140.375 169.25 L 140.375 176.75 L 132.375 176.75 L 132.375 169.25 Z" fill="#ffffff" stroke="none" stroke-width="1.0" />
<text x='132.375' y='176.75' font-family="Default" font-size="10.0" fill="#404040" >3</text>
<path d="M 133.895 82.232 C 133.895 83.456 135.09021 84.68 136.27101 84.68 C 139.871 84.68 143.47101 82.232 143.47101 79.856 C 143.47101 78.6752 142.24701 77.48 141.095 77.48 C 137.49501 77.48 133.895 79.856 133.895 82.232 Z" fill="#404040" stroke="none" stroke-width="1.0" />
<path d="M 132.375 159.25 L 140.375 159.25 L 140.375 166.75 L 132.375 166.75 L 132.375 159.25 Z" fill="#ffffff" stroke="none" stroke-width="1.0" />
<text x='132.375' y='166.75' font-family="Default" font-size="10.0" fill="#404040" >5</text>
<path d="M 133.895 70.232 C 133.895 71.456 135.09021 72.68 136.27101 72.68 C 139.871 72.68 143.47101 70.232 143.47101 67.856 C 143.47101 66.6752 142.24701 65.48 141.095 65.48 C 137.49501 65.48 133.895 67.856 133.895 70.232 Z" fill="#404040" stroke="none" stroke-width="1.0" />
<path d="M 132.375 149.25 L 140.375 149.25 L 140.375 156.75 L 132.375 156.75 L 132.375 149.25 Z" fill="#ffffff" stroke="none" stroke-width="1.0" />
<text x='132.375' y='156.75' font-family="Default" font-size="10.0" fill="#404040" >5</text>
<path d="M 142.555 96.04 L 143.555 96.04 L 143.555 37.0 L 142.555 37.0 M 142.555 96.04 Z" fill="#404040" stroke="none" stroke-width="0.75" />
<path d="M 152.25 97.0 L 168.25 97.0 Z" fill="none" stroke="#d6d6d6" stroke-width="0.75" />
<path d="M 155.77 102.232 C 155.77 103.456 156.96521 104.68 158.14601 104.68 C 161.746 104.68 165.34601 102.232 165.34601 99.856 C 165.34601 98.6752 164.12201 97.48 162.97 97.48 C 159.37001 97.48 155.77 99.856 155.77 102.232 Z" fill="#404040" stroke="none" stroke-width="1.0" />
<path d="M 154.25 169.25 L 162.25 169.25 L 162.25 176.75 L 154.25 176.75 L 154.25 169.25 Z" fill="#ffffff" stroke="none" stroke-width="1.0" />
<text x='154.25' y='176.75' font-family="Default" font-size="10.0" fill="#404040" >2</text>
<path d="M 155.77 82.232 C 155.77 83.456 156.96521 84.68 158.14601 84.68 C 161.746 84.68 165.34601 82.232 165.34601 79.856 C 165.34601 78.6752 164.12201 77.48 162.97 77.48 C 159.37001 77.48 155.77 79.856 155.77 82.232 Z" fill="#404040" stroke="none" stroke-width="1.0" />
<path d="M 154.25 159.25 L 162.25 159.25 L 162.25 166.75 L 154.25 166.75 L 154.25 159.25 Z" fill="#ffffff" stroke="none" stroke-width="1.0" />
<text x='154.25' y='166.75' font-family="Default" font-size="10.0" fill="#404040" >5</text>
<path d="M 155.77 70.232 C 155.77 71.456 156.96521 72.68 158.14601 72.68 C 161.746 72.68 165.34601 70.232 165.34601 67.856 C 165.34601 66.6752 164.12201 65.48 162.97 65.48 C 159.37001 65.48 155.77 67.856 155.77 70.232 Z" fill="#404040" stroke="none" stroke-width="1.0" />
<path d="M 154.25 149.25 L 162.25 149.25 L 162.25 156.75 L 154.25 156.75 L 154.25 149.25 Z" fill="#ffffff" stroke="none" stroke-width="1.0" />
<text x='154.25' y='156.75' font-family="Default" font-size="10.0" fill="#404040" >5</text>
<path d="M 164.43 100.04 L 165.43 100.04 L 165.43 37.0 L 164.43 37.0 M 164.43 100.04 Z" fill="#404040" stroke="none" stroke-width="0.75" />
<path d="M 164.43 35.0 L 164.43 39.0 L 187.305 47.0 L 187.305 43.0 L 164.43 35.0 Z" fill="#404040" stroke="none" stroke-width="0.75" />
<path d="M 174.125 97.0 L 190.125 97.0 Z" fill="none" stroke="#d6d6d6" stroke-width="0.75" />
<path d="M 174.125 105.0 L 190.125 105.0 Z" fill="none" stroke="#d6d6d6" stroke-width="0.75" />
<path d="M 177.645 106.232 C 177.645 107.456 178.84021 108.68 180.02101 108.68 C 183.621 108.68 187.22101 106.232 187.22101 103.856 C 187.22101 102.6752 185.99701 101.48 184.845 101.48 C 181.24501 101.48 177.645 103.856 177.645 106.232 Z" fill="#404040" stroke="none" stroke-width="1.0" />
<path d="M 176.125 179.25 L 184.125 179.25 L 184.125 186.75 L 176.125 186.75 L 176.125 179.25 Z" fill="#ffffff" stroke="none" stroke-width="1.0" />
<text x='176.125' y='186.75' font-family="Default" font-size="10.0" fill="#404040" >5</text>
<path d="M 177.645 90.232 C 177.645 91.456 178.84021 92.68 180.02101 92.68 C 183.621 92.68 187.22101 90.232 187.22101 87.856 C 187.22101 86.6752 185.99701 85.48 184.845 85.48 C 181.24501 85.48 177.645 87.856 177.645 90.232 Z" fill="#404040" stroke="none" stroke-width="1.0" />
<path d="M 176.125 169.25 L 184.125 169.25 L 184.125 176.75 L 176.125 176.75 L 176.125 169.25 Z" fill="#ffffff" stroke="none" stroke-width="1.0" />
<text x='176.125' y='176.75' font-family="Default" font-size="10.0" fill="#404040" >7</text>
<path d="M 177.645 78.232 C 177.645 79.456 178.84021 80.68 180.02101 80.68 C 183.621 80.68 187.22101 78.232 187.22101 75.856 C 187.22101 74.6752 185.99701 73.48 184.845 73.48 C 181.24501 73.48 177.645 75.856 177.645 78.232 Z" fill="#404040" stroke="none" stroke-width="1.0" />
<path d="M 176.125 159.25 L 184.125 159.25 L 184.125 166.75 L 176.125 166.75 L 176.125 159.25 Z" fill="#ffffff" stroke="none" stroke-width="1.0" />
<text x='176.125' y='166.75' font-family="Default" font-size="10.0" fill="#404040" >7</text>
<path d="M 186.305 104.04 L 187.305 104.04 L 187.305 45.0 L 186.305 45.0 M 186.305 104.04 Z" fill="#404040" stroke="none" stroke-width="0.75" /></g>
<text x='736.0' y='75.0' font-family="Default" font-size="10.0" fill="#ff0000" >4</text>
<path d="M 735.0 77.0 L 735.0 109.0 Z" fill="#000000" stroke="#000000" stroke-width="0.75" />
<path d="M 950.0 77.0 L 950.0 109.0 Z" fill="#000000" stroke="#000000" stroke-width="0.75" />
<path d="M 735.0 153.0 L 735.0 203.0 Z" fill="#000000" stroke="#000000" stroke-width="0.75" />
<path d="M 950.0 153.0 L 950.0 203.0 Z" fill="#000000" stroke="#000000" stroke-width="0.75" /><g transform="translate(20.0,235.0)">
<path d="M 0.0 0.0 L 200.0 0.0 L 200.0 216.0 L 0.0 216.0 L 0.0 0.0 Z" fill="#ffffff" stroke="none" stroke-width="1.0" />
<path d="M 0.0 61.0 L 200.0 61.0 M 0.0 69.0 L 200.0 69.0 M 0.0 77.0 L 200.0 77.0 M 0.0 85.0 L 200.0 85.0 M 0.0 93.0 L 200.0 93.0 Z" fill="none" stroke="#d6d6d6" stroke-width="0.75" />
<path d="M 0.0 145.0 L 200.0 145.0 M 0.0 155.0 L 200.0 155.0 M 0.0 165.0 L 200.0 165.0 M 0.0 175.0 L 200.0 175.0 M 0.0 185.0 L 200.0 185.0 M 0.0 195.0 L 200.0 195.0 Z" fill="none" stroke="#d6d6d6" stroke-width="0.75" />
<path d="M 21.0 101.0 L 37.0 101.0 Z" fill="none" stroke="#d6d6d6" stroke-width="0.75" />
<path d="M 21.0 109.0 L 37.0 109.0 Z" fill="none" stroke="#d6d6d6" stroke-width="0.75" />
<path d="M 24.52 110.232 C 24.52 111.456 25.7152 112.68 26.896 112.68 C 30.496 112.68 34.096 110.232 34.096 107.856 C 34.096 106.6752 32.872 105.48 31.720001 105.48 C 28.12 105.48 24.52 107.856 24.52 110.232 Z" fill="#404040" stroke="none" stroke-width="1.0" />
<text x='25.0' y='126.5' font-family="Default" font-size="10.0" fill="#404040" >P.M</text>
<path d="M 23.0 191.25 L 31.0 191.25 L 31.0 198.75 L 23.0 198.75 L 23.0 191.25 Z" fill="#ffffff" stroke="none" stroke-width="1.0" />
<text x='23.0' y='198.75' font-family="Default" font-size="10.0" fill="#404040" >5</text>
<path d="M 24.52 94.232 C 24.52 95.456 25.7152 96.68 26.896 96.68 C 30.496 96.68 34.096 94.232 34.096 91.856 C 34.096 90.6752 32.872 89.48 31.720001 89.48 C 28.12 89.48 24.52 91.856 24.52 94.232 Z" fill="#404040" stroke="none" stroke-width="1.0" />
<text x='25.0' y='126.5' font-family="Default" font-size="10.0" fill="#404040" >P.M</text>
<path d="M 23.0 181.25 L 31.0 181.25 L 31.0 188.75 L 23.0 188.75 L 23.0 181.25 Z" fill="#ffffff" stroke="none" stroke-width="1.0" />
<text x='23.0' y='188.75' font-family="Default" font-size="10.0" fill="#404040" >7</text>
<path d="M 33.18 108.04 L 34.18 108.04 L 34.18 61.0 L 33.18 61.0 M 33.18 108.04 Z" fill="#404040" stroke="none" stroke-width="0.75" />
<path d="M 33.18 59.0 L 33.18 63.0 L 54.18 63.0 L 54.18 59.0 L 33.18 59.0 Z" fill="#404040" stroke="none" stroke-width="0.75" />
<path d="M 41.0 101.0 L 57.0 101.0 Z" fill="none" stroke="#d6d6d6" stroke-width="0.75" />
<path d="M 41.0 109.0 L 57.0 109.0 Z" fill="none" stroke="#d6d6d6" stroke-width="0.75" />
<path d="M 44.52 110.232 C 44.52 111.456 45.715202 112.68 46.896 112.68 C 50.496002 112.68 54.096 110.232 54.096 107.856 C 54.096 106.6752 52.872 105.48 51.72 105.48 C 48.12 105.48 44.52 107.856 44.52 110.232 Z" fill="#404040" stroke="none" stroke-width="1.0" />
<text x='45.0' y='126.5' font-family="Default" font-size="10.0" fill="#404040" >P.M</text>
<path d="M 43.0 191.25 L 51.0 191.25 L 51.0 198.75 L 43.0 198.75 L 43.0 191.25 Z" fill="#ffffff" stroke="none" stroke-width="1.0" />
<text x='43.0' y='198.75' font-family="Default" font-size="10.0" fill="#404040" >5</text>
<path d="M 44.52 94.232 C 44.52 95.456 45.715202 96.68 46.896 96.68 C 50.496002 96.68 54.096 94.232 54.096 91.856 C 54.096 90.6752 52.872 89.48 51.72 89.48 C 48.12 89.48 44.52 91.856 44.52 94.232 Z" fill="#404040" stroke="none" stroke-width="1.0" />
<text x='45.0' y='126.5' font-family="Default" font-size="10.0" fill="#404040" >P.M</text>
<path d="M 43.0 181.25 L 51.0 181.25 L 51.0 188.75 L 43.0 188.75 L 43.0 181.25 Z" fill="#ffffff" stroke="none" stroke-width="1.0" />
<text x='43.0' y='188.75' font-family="Default" font-size="10.0" fill="#404040" >7</text>
<path d="M 53.18 108.04 L 54.18 108.04 L 54.18 61.0 L 53.18 61.0 M 53.18 108.04 Z" fill="#404040" stroke="none" stroke-width="0.75" />
<path d="M 61.0 101.0 L 77.0 101.0 Z" fill="none" stroke="#d6d6d6" stroke-width="0.75" />
<path d="M 61.0 109.0 L 77.0 109.0 Z" fill="none" stroke="#d6d6d6" stroke-width="0.75" />
<path d="M 64.52 110.232 C 64.52 111.456 65.715195 112.68 66.895996 112.68 C 70.495995 112.68 74.09599 110.232 74.09599 107.856 C 74.09599 106.6752 72.871994 105.48 71.71999 105.48 C 68.119995 105.48 64.52 107.856 64.52 110.232 Z" fill="#404040" stroke="none" stroke-width="1.0" />
<text x='65.0' y='126.5' font-family="Default" font-size="10.0" fill="#404040" >P.M</text>
<path d="M 63.0 191.25 L 71.0 191.25 L 71.0 198.75 L 63.0 198.75 L 63.0 191.25 Z" fill="#ffffff" stroke="none" stroke-width="1.0" />
<text x='63.0' y='198.75' font-family="Default" font-size="10.0" fill="#404040" >5</text>
<path d="M 64.52 94.232 C 64.52 95.456 65.715195 96.68 66.895996 96.68 C 70.495995 96.68 74.09599 94.232 74.09599 91.856 C 74.09599 90.6752 72.871994 89.48 71.71999 89.48 C 68.119995 89.48 64.52 91.856 64.52 94.232 Z" fill="#404040" stroke="none" stroke-width="1.0" />
<text x='65.0' y='126.5' font-family="Default" font-size="10.0" fill="#404040" >P.M</text>
<path d="M 63.0 181.25 L 71.0 181.25 L 71.0 188.75 L 63.0 188.75 L 63.0 181.25 Z" fill="#ffffff" stroke="none" stroke-width="1.0" />
<text x='63.0' y='188.75' font-family="Default" font-size="10.0" fill="#404040" >7</text>
<path d="M 73.18 108.04 L 74.18 108.04 L 74.18 61.0 L 73.18 61.0 M 73.18 108.04 Z" fill="#404040" stroke="none" stroke-width="0.75" />
<path d="M 73.18 59.0 L 73.18 63.0 L 94.18 63.0 L 94.18 59.0 L 73.18 59.0 Z" fill="#404040" stroke="none" stroke-width="0.75" />
<path d="M 81.0 101.0 L 97.0 101.0 Z" fill="none" stroke="#d6d6d6" stroke-width="0.75" />
<path d="M 81.0 109.0 L 97.0 109.0 Z" fill="none" stroke="#d6d6d6" stroke-width="0.75" />
<path d="M 84.52 110.232 C 84.52 111.456 85.715195 112.68 86.895996 112.68 C 90.495995 112.68 94.09599 110.232 94.09599 107.856 C 94.09599 106.6752 92.871994 105.48 91.71999 105.48 C 88.119995 105.48 84.52 107.856 84.52 110.232 Z" fill="#404040" stroke="none" stroke-width="1.0" />
<text x='85.0' y='126.5' font-family="Default" font-size="10.0" fill="#404040" >P.M</text>
<path d="M 83.0 191.25 L 91.0 191.25 L 91.0 198.75 L 83.0 198.75 L 83.0 191.25 Z" fill="#ffffff" stroke="none" stroke-width="1.0" />
<text x='83.0' y='198.75' font-family="Default" font-size="10.0" fill="#404040" >5</text>
<path d="M 84.52 94.232 C 84.52 95.456 85.715195 96.68 86.895996 96.68 C 90.495995 96.68 94.09599 94.232 94.09599 91.856 C 94.09599 90.6752 92.871994 89.48 91.71999 89.48 C 88.119995 89.48 84.52 91.856 84.52 94.232 Z" fill="#404040" stroke="none" stroke-width="1.0" />
<text x='85.0' y='126.5' font-family="Default" font-size="10.0" fill="#404040" >P.M</text>
<path d="M 83.0 181.25 L 91.0 181.25 L 91.0 188.75 L 83.0 188.75 L 83.0 181.25 Z" fill="#ffffff" stroke="none" stroke-width="1.0" />
<text x='83.0' y='188.75' font-family="Default" font-size="10.0" fill="#404040" >7</text>
<path d="M 93.18 108.04 L 94.18 108.04 L 94.18 61.0 L 93.18 61.0 M 93.18 108.04 Z" fill="#404040" stroke="none" stroke-width="0.75" />
<path d="M 101.0 101.0 L 117.0 101.0 Z" fill="none" stroke="#d6d6d6" stroke-width="0.75" />
<path d="M 101.0 109.0 L 117.0 109.0 Z" fill="none" stroke="#d6d6d6" stroke-width="0.75" />
<path d="M 104.52 110.232 C 104.52 111.456 105.715195 112.68 106.895996 112.68 C 110.495995 112.68 114.09599 110.232 114.09599 107.856 C 114.09599 106.6752 112.871994 105.48 111.71999 105.48 C 108.119995 105.48 104.52 107.856 104.52 110.232 Z" fill="#404040" stroke="none" stroke-width="1.0" />
<text x='105.0' y='126.5' font-family="Default" font-size="10.0" fill="#404040" >P.M</text>
<path d="M 103.0 191.25 L 111.0 191.25 L 111.0 198.75 L 103.0 198.75 L 103.0 191.25 Z" fill="#ffffff" stroke="none" stroke-width="1.0" />
<text x='103.0' y='198.75' font-family="Default" font-size="10.0" fill="#404040" >5</text>
<path d="M 104.52 94.232 C 104.52 95.456 105.715195 96.68 106.895996 96.68 C 110.495995 96.68 114.09599 94.232 114.09599 91.856 C 114.09599 90.6752 112.871994 89.48 111.71999 89.48 C 108.119995 89.48 104.52 91.856 104.52 94.232 Z" fill="#404040" stroke="none" stroke-width="1.0" />
<text x='105.0' y='126.5' font-family="Default" font-size="10.0" fill="#404040" >P.M</text>
<path d="M 103.0 181.25 L 111.0 181.25 L 111.0 188.75 L 103.0 188.75 L 103.0 181.25 Z" fill="#ffffff" stroke="none" stroke-width="1.0" />
<text x='103.0' y='188.75' font-family="Default" font-size="10.0" fill="#404040" >7</text>
<path d="M 113.18 108.04 L 114.18 108.04 L 114.18 61.0 L 113.18 61.0 M 113.18 108.04 Z" fill="#404040" stroke="none" stroke-width="0.75" />
<path d="M 113.18 59.0 L 113.18 63.0 L 134.18 63.0 L 134.18 59.0 L 113.18 59.0 Z" fill="#404040" stroke="none" stroke-width="0.75" />
<path d="M 121.0 101.0 L 137.0 101.0 Z" fill="none" stroke="#d6d6d6" stroke-width="0.75" />
<path d="M 121.0 109.0 L 137.0 109.0 Z" fill="none" stroke="#d6d6d6" stroke-width="0.75" />
<path d="M 124.52 110.232 C 124.52 111.456 125.715195 112.68 126.895996 112.68 C 130.496 112.68 134.096 110.232 134.096 107.856 C 134.096 106.6752 132.872 105.48 131.72 105.48 C 128.12 105.48 124.52 107.856 124.52 110.232 Z" fill="#404040" stroke="none" stroke-width="1.0" />
<text x='125.0' y='126.5' font-family="Default" font-size="10.0" fill="#404040" >P.M</text>
<path d="M 123.0 191.25 L 131.0 191.25 L 131.0 198.75 L 123.0 198.75 L 123.0 191.25 Z" fill="#ffffff" stroke="none" stroke-width="1.0" />
<text x='123.0' y='198.75' font-family="Default" font-size="10.0" fill="#404040" >5</text>
<path d="M 124.52 94.232 C 124.52 95.456 125.715195 96.68 126.895996 96.68 C 130.496 96.68 134.096 94.232 134.096 91.856 C 134.096 90.6752 132.872 89.48 131.72 89.48 C 128.12 89.48 124.52 91.856 124.52 94.232 Z" fill="#404040" stroke="none" stroke-width="1.0" />
<text x='125.0' y='126.5' font-family="Default" font-size="10.0" fill="#404040" >P.M</text>
<path d="M 123.0 181.25 L 131.0 181.25 L 131.0 188.75 L 123.0 188.75 L 123.0 181.25 Z" fill="#ffffff" stroke="none" stroke-width="1.0" />
<text x='123.0' y='188.75' font-family="Default" font-size="10.0" fill="#404040" >7</text>
<path d="M 133.18 108.04 L 134.18 108.04 L 134.18 61.0 L 133.18 61.0 M 133.18 108.04 Z" fill="#404040" stroke="none" stroke-width="0.75" />
<path d="M 141.0 101.0 L 157.0 101.0 Z" fill="none" stroke="#d6d6d6" stroke-width="0.75" />
<path d="M 141.0 109.0 L 157.0 109.0 Z" fill="none" stroke="#d6d6d6" stroke-width="0.75" />
<path d="M 144.52 110.232 C 144.52 111.456 145.71521 112.68 146.89601 112.68 C 150.496 112.68 154.09601 110.232 154.09601 107.856 C 154.09601 106.6752 152.87201 105.48 151.72 105.48 C 148.12001 105.48 144.52 107.856 144.52 110.232 Z" fill="#404040" stroke="none" stroke-width="1.0" />
<text x='145.0' y='126.5' font-family="Default" font-size="10.0" fill="#404040" >P.M</text>
<path d="M 143.0 191.25 L 151.0 191.25 L 151.0 198.75 L 143.0 198.75 L 143.0 191.25 Z" fill="#ffffff" stroke="none" stroke-width="1.0" />
<text x='143.0' y='198.75' font-family="Default" font-size="10.0" fill="#404040" >5</text>
<path d="M 144.52 94.232 C 144.52 95.456 145.71521 96.68 146.89601 96.68 C 150.496 96.68 154.09601 94.232 154.09601 91.856 C 154.09601 90.6752 152.87201 89.48 151.72 89.48 C 148.12001 89.48 144.52 91.856 144.52 94.232 Z" fill="#404040" stroke="none" stroke-width="1.0" />
<text x='145.0' y='126.5' font-family="Default" font-size="10.0" fill="#404040" >P.M</text>
<path d="M 143.0 181.25 L 151.0 181.25 L 151.0 188.75 L 143.0 188.75 L 143.0 181.25 Z" fill="#ffffff" stroke="none" stroke-width="1.0" />
<text x='143.0' y='188.75' font-family="Default" font-size="10.0" fill="#404040" >7</text>
<path d="M 153.18 108.04 L 154.18 108.04 L 154.18 61.0 L 153.18 61.0 M 153.18 108.04 Z" fill="#404040" stroke="none" stroke-width="0.75" />
<path d="M 153.18 59.0 L 153.18 63.0 L 174.18 63.0 L 174.18 59.0 L 153.18 59.0 Z" fill="#404040" stroke="none" stroke-width="0.75" />
<path d="M 161.0 101.0 L 177.0 101.0 Z" fill="none" stroke="#d6d6d6" stroke-width="0.75" />
<path d="M 161.0 109.0 L 177.0 109.0 Z" fill="none" stroke="#d6d6d6" stroke-width="0.75" />
<path d="M 164.52 110.232 C 164.52 111.456 165.71521 112.68 166.89601 112.68 C 170.496 112.68 174.09601 110.232 174.09601 107.856 C 174.09601 106.6752 172.87201 105.48 171.72 105.48 C 168.12001 105.48 164.52 107.856 164.52 110.232 Z" fill="#404040" stroke="none" stroke-width="1.0" />
<text x='165.0' y='126.5' font-family="Default" font-size="10.0" fill="#404040" >P.M</text>
<path d="M 163.0 191.25 L 171.0 191.25 L 171.0 198.75 L 163.0 198.75 L 163.0 191.25 Z" fill="#ffffff" stroke="none" stroke-width="1.0" />
<text x='163.0' y='198.75' font-family="Default" font-size="10.0" fill="#404040" >5</text>
<path d="M 164.52 94.232 C 164.52 95.456 165.71521 96.68 166.89601 96.68 C 170.496 96.68 174.09601 94.232 174.09601 91.856 C 174.09601 90.6752 172.87201 89.48 171.72 89.48 C 168.12001 89.48 164.52 91.856 164.52 94.232 Z" fill="#404040" stroke="none" stroke-width="1.0" />
<text x='165.0' y='126.5' font-family="Default" font-size="10.0" fill="#404040" >P.M</text>
<path d="M 163.0 181.25 L 171.0 181.25 L 171.0 188.75 L 163.0 188.75 L 163.0 181.25 Z" fill="#ffffff" stroke="none" stroke-width="1.0" />
<text x='163.0' y='188.75' font-family="Default" font-size="10.0" fill="#404040" >7</text>
<path d="M 173.18 108.04 L 174.18 108.04 L 174.18 61.0 L 173.18 61.0 M 173.18 108.04 Z" fill="#404040" stroke="none" stroke-width="0.75" /></g>
<text x='45.0' y='235.0' font-family="Default" font-size="10.0" fill="#000000" >Solo Fabien</text>
<text x='21.0' y='294.0' font-family="Default" font-size="10.0" fill="#ff0000" >5</text>
<path d="M 20.0 296.0 L 20.0 380.0 Z" fill="#000000" stroke="#000000" stroke-width="0.75" />
<path d="M 220.0 296.0 L 220.0 328.0 Z" fill="#000000" stroke="#000000" stroke-width="0.75" />
<path d="M 20.0 380.0 L 20.0 430.0 Z" fill="#000000" stroke="#000000" stroke-width="0.75" />
<path d="M 220.0 380.0 L 220.0 430.0 Z" fill="#000000" stroke="#000000" stroke-width="0.75" /><g transform="translate(220.0,235.0)">
<path d="M 0.0 0.0 L 181.0 0.0 L 181.0 216.0 L 0.0 216.0 L 0.0 0.0 Z" fill="#ffffff" stroke="none" stroke-width="1.0" />
<path d="M 0.0 61.0 L 181.0 61.0 M 0.0 69.0 L 181.0 69.0 M 0.0 77.0 L 181.0 77.0 M 0.0 85.0 L 181.0 85.0 M 0.0 93.0 L 181.0 93.0 Z" fill="none" stroke="#d6d6d6" stroke-width="0.75" />
<path d="M 0.0 145.0 L 181.0 145.0 M 0.0 155.0 L 181.0 155.0 M 0.0 165.0 L 181.0 165.0 M 0.0 175.0 L 181.0 175.0 M 0.0 185.0 L 181.0 185.0 M 0.0 195.0 L 181.0 195.0 Z" fill="none" stroke="#d6d6d6" stroke-width="0.75" />
<path d="M 26.491554 71.72969 C 26.953726 71.666664 27.352875 71.79271 27.66799 72.08682 C 27.857061 72.2969 27.941092 72.46496 28.067139 72.96915 C 28.130161 73.20023 28.193186 73.43132 28.214195 73.473335 C 28.298225 73.66241 28.44528 73.78845 28.63435 73.809456 C 28.71838 73.809456 28.760395 73.809456 28.865435 73.74644 C 29.138536 73.62039 29.78978 72.8431 30.041872 72.359924 C 30.104895 72.21287 30.209934 72.14984 30.314974 72.14984 C 30.399004 72.14984 30.504044 72.21287 30.546059 72.27589 C 30.567066 72.31791 30.356989 73.05318 29.243574 76.77156 C 28.52931 79.20846 27.920084 81.246216 27.899076 81.26723 C 27.899076 81.288246 27.815046 81.35125 27.731014 81.37227 C 27.604967 81.435295 27.58396 81.435295 27.415897 81.435295 C 27.247833 81.435295 27.205818 81.435295 27.079773 81.39328 C 27.016748 81.35125 26.932718 81.309235 26.932718 81.288246 C 26.890703 81.26723 27.037756 80.88909 28.109154 77.84296 C 28.781403 75.97327 29.327608 74.418686 29.306599 74.418686 L 28.949467 74.52373 C 28.193186 74.77582 27.731014 74.85985 27.163803 74.85985 C 26.701632 74.85985 26.575584 74.838844 26.23946 74.67078 C 25.315117 74.229614 25.0 73.15822 25.525194 72.359924 C 25.75628 72.04481 26.113413 71.79271 26.491554 71.72969 Z" fill="#404040" stroke="none" stroke-width="0.75" />
<path d="M 41.0 101.0 L 57.0 101.0 Z" fill="none" stroke="#d6d6d6" stroke-width="0.75" />
<path d="M 41.0 109.0 L 57.0 109.0 Z" fill="none" stroke="#d6d6d6" stroke-width="0.75" />
<path d="M 44.52 110.232 C 44.52 111.456 45.715202 112.68 46.896 112.68 C 50.496002 112.68 54.096 110.232 54.096 107.856 C 54.096 106.6752 52.872 105.48 51.72 105.48 C 48.12 105.48 44.52 107.856 44.52 110.232 Z" fill="#404040" stroke="none" stroke-width="1.0" />
<path d="M 43.0 191.25 L 51.0 191.25 L 51.0 198.75 L 43.0 198.75 L 43.0 191.25 Z" fill="#ffffff" stroke="none" stroke-width="1.0" />
<text x='43.0' y='198.75' font-family="Default" font-size="10.0" fill="#404040" >5</text>
<path d="M 44.52 94.232 C 44.52 95.456 45.715202 96.68 46.896 96.68 C 50.496002 96.68 54.096 94.232 54.096 91.856 C 54.096 90.6752 52.872 89.48 51.72 89.48 C 48.12 89.48 44.52 91.856 44.52 94.232 Z" fill="#404040" stroke="none" stroke-width="1.0" />
<path d="M 43.0 181.25 L 51.0 181.25 L 51.0 188.75 L 43.0 188.75 L 43.0 181.25 Z" fill="#ffffff" stroke="none" stroke-width="1.0" />
<text x='43.0' y='188.75' font-family="Default" font-size="10.0" fill="#404040" >7</text>
<path d="M 44.52 82.232 C 44.52 83.456 45.715202 84.68 46.896 84.68 C 50.496002 84.68 54.096 82.232 54.096 79.856 C 54.096 78.6752 52.872 77.48 51.72 77.48 C 48.12 77.48 44.52 79.856 44.52 82.232 Z" fill="#404040" stroke="none" stroke-width="1.0" />
<path d="M 43.0 171.25 L 51.0 171.25 L 51.0 178.75 L 43.0 178.75 L 43.0 171.25 Z" fill="#ffffff" stroke="none" stroke-width="1.0" />
<text x='43.0' y='178.75' font-family="Default" font-size="10.0" fill="#404040" >7</text>
<path d="M 53.18 108.04 L 54.18 108.04 L 54.18 49.0 L 53.18 49.0 M 53.18 108.04 Z" fill="#404040" stroke="none" stroke-width="0.75" />
<path d="M 58.33 64.95 C 58.455 65.0 58.73 64.95 58.83 64.9 C 58.98 64.8 59.03 64.75 59.18 64.475 C 59.705 63.5 60.13 62.3 60.305 61.3 C 60.655 59.325 60.405 57.875 59.405 56.225 C 58.955 55.45 58.405 54.75 57.18 53.375 C 55.905 51.9 55.505 51.375 55.005 50.675 C 54.505 49.9 54.155 49.175 53.93 48.45 C 53.805 48.0 53.705 47.325 53.705 46.95 L 53.705 46.825 L 53.455 46.825 L 53.18 46.825 L 53.18 49.95 L 53.18 53.075 L 53.455 53.075 L 53.73 53.075 L 54.38 53.525 C 56.23 54.75 57.355 55.75 58.155 56.825 C 59.13 58.15 59.405 59.25 59.13 60.9 C 58.955 61.95 58.53 63.025 57.98 63.975 C 57.855 64.15 57.83 64.225 57.83 64.3 C 57.83 64.6 58.03 64.85 58.33 64.95 Z" fill="#404040" stroke="none" stroke-width="0.75" />
<path d="M 61.0 101.0 L 77.0 101.0 Z" fill="none" stroke="#d6d6d6" stroke-width="0.75" />
<path d="M 61.0 109.0 L 77.0 109.0 Z" fill="none" stroke="#d6d6d6" stroke-width="0.75" />
<path d="M 64.52 114.232 C 64.52 115.456 65.715195 116.68 66.895996 116.68 C 70.495995 116.68 74.09599 114.232 74.09599 111.856 C 74.09599 110.6752 72.871994 109.48 71.71999 109.48 C 68.119995 109.48 64.52 111.856 64.52 114.232 Z" fill="#404040" stroke="none" stroke-width="1.0" />
<path d="M 63.0 191.25 L 71.0 191.25 L 71.0 198.75 L 63.0 198.75 L 63.0 191.25 Z" fill="#ffffff" stroke="none" stroke-width="1.0" />
<text x='63.0' y='198.75' font-family="Default" font-size="10.0" fill="#404040" >3</text>
<path d="M 64.52 98.232 C 64.52 99.456 65.715195 100.68 66.895996 100.68 C 70.495995 100.68 74.09599 98.232 74.09599 95.856 C 74.09599 94.6752 72.871994 93.48 71.71999 93.48 C 68.119995 93.48 64.52 95.856 64.52 98.232 Z" fill="#404040" stroke="none" stroke-width="1.0" />
<path d="M 63.0 181.25 L 71.0 181.25 L 71.0 188.75 L 63.0 188.75 L 63.0 181.25 Z" fill="#ffffff" stroke="none" stroke-width="1.0" />
<text x='63.0' y='188.75' font-family="Default" font-size="10.0" fill="#404040" >5</text>
<path d="M 64.52 86.232 C 64.52 87.456 65.715195 88.68 66.895996 88.68 C 70.495995 88.68 74.09599 86.232 74.09599 83.856 C 74.09599 82.6752 72.871994 81.48 71.71999 81.48 C 68.119995 81.48 64.52 83.856 64.52 86.232 Z" fill="#404040" stroke="none" stroke-width="1.0" />
<path d="M 63.0 171.25 L 71.0 171.25 L 71.0 178.75 L 63.0 178.75 L 63.0 171.25 Z" fill="#ffffff" stroke="none" stroke-width="1.0" />
<text x='63.0' y='178.75' font-family="Default" font-size="10.0" fill="#404040" >5</text>
<path d="M 73.18 112.04 L 74.18 112.04 L 74.18 53.0 L 73.18 53.0 M 73.18 112.04 Z" fill="#404040" stroke="none" stroke-width="0.75" />
<path d="M 73.18 51.0 L 73.18 55.0 L 94.18 51.0 L 94.18 47.0 L 73.18 51.0 Z" fill="#404040" stroke="none" stroke-width="0.75" />
<path d="M 81.0 101.0 L 97.0 101.0 Z" fill="none" stroke="#d6d6d6" stroke-width="0.75" />
<path d="M 81.0 109.0 L 97.0 109.0 Z" fill="none" stroke="#d6d6d6" stroke-width="0.75" />
<path d="M 84.52 110.232 C 84.52 111.456 85.715195 112.68 86.895996 112.68 C 90.495995 112.68 94.09599 110.232 94.09599 107.856 C 94.09599 106.6752 92.871994 105.48 91.71999 105.48 C 88.119995 105.48 84.52 107.856 84.52 110.232 Z" fill="#404040" stroke="none" stroke-width="1.0" />
<path d="M 83.0 191.25 L 91.0 191.25 L 91.0 198.75 L 83.0 198.75 L 83.0 191.25 Z" fill="#ffffff" stroke="none" stroke-width="1.0" />
<text x='83.0' y='198.75' font-family="Default" font-size="10.0" fill="#404040" >5</text>
<path d="M 84.52 94.232 C 84.52 95.456 85.715195 96.68 86.895996 96.68 C 90.495995 96.68 94.09599 94.232 94.09599 91.856 C 94.09599 90.6752 92.871994 89.48 91.71999 89.48 C 88.119995 89.48 84.52 91.856 84.52 94.232 Z" fill="#404040" stroke="none" stroke-width="1.0" />
<path d="M 83.0 181.25 L 91.0 181.25 L 91.0 188.75 L 83.0 188.75 L 83.0 181.25 Z" fill="#ffffff" stroke="none" stroke-width="1.0" />
<text x='83.0' y='188.75' font-family="Default" font-size="10.0" fill="#404040" >7</text>
<path d="M 84.52 82.232 C 84.52 83.456 85.715195 84.68 86.895996 84.68 C 90.495995 84.68 94.09599 82.232 94.09599 79.856 C 94.09599 78.6752 92.871994 77.48 91.71999 77.48 C 88.119995 77.48 84.52 79.856 84.52 82.232 Z" fill="#404040" stroke="none" stroke-width="1.0" />
<path d="M 83.0 171.25 L 91.0 171.25 L 91.0 178.75 L 83.0 178.75 L 83.0 171.25 Z" fill="#ffffff" stroke="none" stroke-width="1.0" />
<text x='83.0' y='178.75' font-family="Default" font-size="10.0" fill="#404040" >7</text>
<path d="M 93.18 108.04 L 94.18 108.04 L 94.18 49.0 L 93.18 49.0 M 93.18 108.04 Z" fill="#404040" stroke="none" stroke-width="0.75" />
<path d="M 101.0 101.0 L 117.0 101.0 Z" fill="none" stroke="#d6d6d6" stroke-width="0.75" />
<path d="M 101.0 109.0 L 117.0 109.0 Z" fill="none" stroke="#d6d6d6" stroke-width="0.75" />
<path d="M 95.0 109.0 C 95.0 113.0 102.0 113.0 102.0 109.0 C 102.0 111.0 95.0 111.0 95.0 109.0 Z" fill="#404040" stroke="none" stroke-width="0.75" />
<path d="M 104.52 110.232 C 104.52 111.456 105.715195 112.68 106.895996 112.68 C 110.495995 112.68 114.09599 110.232 114.09599 107.856 C 114.09599 106.6752 112.871994 105.48 111.71999 105.48 C 108.119995 105.48 104.52 107.856 104.52 110.232 Z" fill="#404040" stroke="none" stroke-width="1.0" />
<path d="M 95.0 93.0 C 95.0 97.0 102.0 97.0 102.0 93.0 C 102.0 95.0 95.0 95.0 95.0 93.0 Z" fill="#404040" stroke="none" stroke-width="1.0" />
<path d="M 104.52 94.232 C 104.52 95.456 105.715195 96.68 106.895996 96.68 C 110.495995 96.68 114.09599 94.232 114.09599 91.856 C 114.09599 90.6752 112.871994 89.48 111.71999 89.48 C 108.119995 89.48 104.52 91.856 104.52 94.232 Z" fill="#404040" stroke="none" stroke-width="1.0" />
<path d="M 95.0 81.0 C 95.0 85.0 102.0 85.0 102.0 81.0 C 102.0 83.0 95.0 83.0 95.0 81.0 Z" fill="#404040" stroke="none" stroke-width="1.0" />
<path d="M 104.52 82.232 C 104.52 83.456 105.715195 84.68 106.895996 84.68 C 110.495995 84.68 114.09599 82.232 114.09599 79.856 C 114.09599 78.6752 112.871994 77.48 111.71999 77.48 C 108.119995 77.48 104.52 79.856 104.52 82.232 Z" fill="#404040" stroke="none" stroke-width="1.0" />
<path d="M 113.18 108.04 L 114.18 108.04 L 114.18 49.0 L 113.18 49.0 M 113.18 108.04 Z" fill="#404040" stroke="none" stroke-width="0.75" />
<path d="M 127.491554 71.72969 C 127.95373 71.666664 128.35287 71.79271 128.66798 72.08682 C 128.85706 72.2969 128.94109 72.46496 129.06714 72.96915 C 129.13016 73.20023 129.19319 73.43132 129.21419 73.473335 C 129.29822 73.66241 129.44528 73.78845 129.63435 73.809456 C 129.71838 73.809456 129.76039 73.809456 129.86543 73.74644 C 130.13853 73.62039 130.78978 72.8431 131.04187 72.359924 C 131.10489 72.21287 131.20993 72.14984 131.31497 72.14984 C 131.399 72.14984 131.50404 72.21287 131.54605 72.27589 C 131.56706 72.31791 131.357 73.05318 130.24358 76.77156 C 129.52931 79.20846 128.92009 81.246216 128.89908 81.26723 C 128.89908 81.288246 128.81505 81.35125 128.73102 81.37227 C 128.60497 81.435295 128.58395 81.435295 128.4159 81.435295 C 128.24783 81.435295 128.20583 81.435295 128.07977 81.39328 C 128.01675 81.35125 127.93272 81.309235 127.93272 81.288246 C 127.8907 81.26723 128.03775 80.88909 129.10916 77.84296 C 129.7814 75.97327 130.3276 74.418686 130.3066 74.418686 L 129.94946 74.52373 C 129.19319 74.77582 128.73102 74.85985 128.1638 74.85985 C 127.70163 74.85985 127.575584 74.838844 127.23946 74.67078 C 126.31512 74.229614 126.0 73.15822 126.52519 72.359924 C 126.75628 72.04481 127.11341 71.79271 127.491554 71.72969 Z" fill="#404040" stroke="none" stroke-width="0.75" />
<path d="M 142.0 101.0 L 158.0 101.0 Z" fill="none" stroke="#d6d6d6" stroke-width="0.75" />
<path d="M 145.52 102.232 C 145.52 103.456 146.71521 104.68 147.89601 104.68 C 151.496 104.68 155.09601 102.232 155.09601 99.856 C 155.09601 98.6752 153.87201 97.48 152.72 97.48 C 149.12001 97.48 145.52 99.856 145.52 102.232 Z" fill="#404040" stroke="none" stroke-width="1.0" />
<path d="M 144.0 181.25 L 152.0 181.25 L 152.0 188.75 L 144.0 188.75 L 144.0 181.25 Z" fill="#ffffff" stroke="none" stroke-width="1.0" />
<text x='144.0' y='188.75' font-family="Default" font-size="10.0" fill="#404040" >3</text>
<path d="M 145.52 86.232 C 145.52 87.456 146.71521 88.68 147.89601 88.68 C 151.496 88.68 155.09601 86.232 155.09601 83.856 C 155.09601 82.6752 153.87201 81.48 152.72 81.48 C 149.12001 81.48 145.52 83.856 145.52 86.232 Z" fill="#404040" stroke="none" stroke-width="1.0" />
<path d="M 144.0 171.25 L 152.0 171.25 L 152.0 178.75 L 144.0 178.75 L 144.0 171.25 Z" fill="#ffffff" stroke="none" stroke-width="1.0" />
<text x='144.0' y='178.75' font-family="Default" font-size="10.0" fill="#404040" >5</text>
<path d="M 145.52 74.232 C 145.52 75.456 146.71521 76.68 147.89601 76.68 C 151.496 76.68 155.09601 74.232 155.09601 71.856 C 155.09601 70.6752 153.87201 69.48 152.72 69.48 C 149.12001 69.48 145.52 71.856 145.52 74.232 Z" fill="#404040" stroke="none" stroke-width="1.0" />
<path d="M 144.0 161.25 L 152.0 161.25 L 152.0 168.75 L 144.0 168.75 L 144.0 161.25 Z" fill="#ffffff" stroke="none" stroke-width="1.0" />
<text x='144.0' y='168.75' font-family="Default" font-size="10.0" fill="#404040" >5</text>
<path d="M 154.18 100.04 L 155.18 100.04 L 155.18 41.0 L 154.18 41.0 M 154.18 100.04 Z" fill="#404040" stroke="none" stroke-width="0.75" />
<path d="M 159.32999 56.95 C 159.45499 57.0 159.73 56.95 159.82999 56.9 C 159.98 56.8 160.03 56.75 160.18 56.475 C 160.70499 55.5 161.12999 54.3 161.305 53.3 C 161.655 51.325 161.405 49.875 160.405 48.225 C 159.95499 47.45 159.405 46.75 158.18 45.375 C 156.905 43.9 156.50499 43.375 156.00499 42.675 C 155.50499 41.9 155.155 41.175 154.93 40.45 C 154.805 40.0 154.70499 39.325 154.70499 38.95 L 154.70499 38.825 L 154.45499 38.825 L 154.18 38.825 L 154.18 41.95 L 154.18 45.075 L 154.45499 45.075 L 154.73 45.075 L 155.37999 45.525 C 157.23 46.75 158.355 47.75 159.155 48.825 C 160.12999 50.15 160.405 51.25 160.12999 52.9 C 159.95499 53.95 159.53 55.025 158.98 55.975 C 158.855 56.15 158.82999 56.225 158.82999 56.3 C 158.82999 56.6 159.03 56.85 159.32999 56.95 Z" fill="#404040" stroke="none" stroke-width="0.75" /></g>
<text x='245.0' y='235.0' font-family="Default" font-size="10.0" fill="#000000" >Solo Sylvain</text>
<text x='221.0' y='294.0' font-family="Default" font-size="10.0" fill="#ff0000" >6</text>
<path d="M 220.0 296.0 L 220.0 328.0 Z" fill="#000000" stroke="#000000" stroke-width="0.75" />
<path d="M 401.0 296.0 L 401.0 328.0 Z" fill="#000000" stroke="#000000" stroke-width="0.75" />
<path d="M 220.0 380.0 L 220.0 430.0 Z" fill="#000000" stroke="#000000" stroke-width="0.75" />
<path d="M 401.0 380.0 L 401.0 430.0 Z" fill="#000000" stroke="#000000" stroke-width="0.75" /><g transform="translate(401.0,235.0)">
<path d="M 0.0 0.0 L 126.0 0.0 L 126.0 216.0 L 0.0 216.0 L 0.0 0.0 Z" fill="#ffffff" stroke="none" stroke-width="1.0" />
<path d="M 0.0 61.0 L 126.0 61.0 M 0.0 69.0 L 126.0 69.0 M 0.0 77.0 L 126.0 77.0 M 0.0 85.0 L 126.0 85.0 M 0.0 93.0 L 126.0 93.0 Z" fill="none" stroke="#d6d6d6" stroke-width="0.75" />
<path d="M 0.0 145.0 L 126.0 145.0 M 0.0 155.0 L 126.0 155.0 M 0.0 165.0 L 126.0 165.0 M 0.0 175.0 L 126.0 175.0 M 0.0 185.0 L 126.0 185.0 M 0.0 195.0 L 126.0 195.0 Z" fill="none" stroke="#d6d6d6" stroke-width="0.75" />
<path d="M 21.0 101.0 L 37.0 101.0 Z" fill="none" stroke="#d6d6d6" stroke-width="0.75" />
<path d="M 5.0 101.0 C 5.0 105.0 22.0 105.0 22.0 101.0 C 22.0 103.0 5.0 103.0 5.0 101.0 Z" fill="#404040" stroke="none" stroke-width="0.75" />
<path d="M 24.52 102.232 C 24.52 103.456 25.7152 104.68 26.896 104.68 C 30.496 104.68 34.096 102.232 34.096 99.856 C 34.096 98.6752 32.872 97.48 31.720001 97.48 C 28.12 97.48 24.52 99.856 24.52 102.232 Z" fill="#404040" stroke="none" stroke-width="1.0" />
<path d="M 5.0 85.0 C 5.0 89.0 22.0 89.0 22.0 85.0 C 22.0 87.0 5.0 87.0 5.0 85.0 Z" fill="#404040" stroke="none" stroke-width="1.0" />
<path d="M 24.52 86.232 C 24.52 87.456 25.7152 88.68 26.896 88.68 C 30.496 88.68 34.096 86.232 34.096 83.856 C 34.096 82.6752 32.872 81.48 31.720001 81.48 C 28.12 81.48 24.52 83.856 24.52 86.232 Z" fill="#404040" stroke="none" stroke-width="1.0" />
<path d="M 5.0 73.0 C 5.0 77.0 22.0 77.0 22.0 73.0 C 22.0 75.0 5.0 75.0 5.0 73.0 Z" fill="#404040" stroke="none" stroke-width="1.0" />
<path d="M 24.52 74.232 C 24.52 75.456 25.7152 76.68 26.896 76.68 C 30.496 76.68 34.096 74.232 34.096 71.856 C 34.096 70.6752 32.872 69.48 31.720001 69.48 C 28.12 69.48 24.52 71.856 24.52 74.232 Z" fill="#404040" stroke="none" stroke-width="1.0" />
<path d="M 33.18 100.04 L 34.18 100.04 L 34.18 41.0 L 33.18 41.0 M 33.18 100.04 Z" fill="#404040" stroke="none" stroke-width="0.75" />
<path d="M 47.491554 71.72969 C 47.953724 71.666664 48.352875 71.79271 48.66799 72.08682 C 48.85706 72.2969 48.94109 72.46496 49.06714 72.96915 C 49.13016 73.20023 49.193188 73.43132 49.214195 73.473335 C 49.298225 73.66241 49.44528 73.78845 49.63435 73.809456 C 49.71838 73.809456 49.760395 73.809456 49.865437 73.74644 C 50.13854 73.62039 50.78978 72.8431 51.041874 72.359924 C 51.104897 72.21287 51.209934 72.14984 51.314972 72.14984 C 51.399002 72.14984 51.504044 72.21287 51.54606 72.27589 C 51.567066 72.31791 51.356987 73.05318 50.243576 76.77156 C 49.529312 79.20846 48.920082 81.246216 48.899075 81.26723 C 48.899075 81.288246 48.815044 81.35125 48.731014 81.37227 C 48.60497 81.435295 48.58396 81.435295 48.415897 81.435295 C 48.247833 81.435295 48.20582 81.435295 48.079773 81.39328 C 48.016747 81.35125 47.932716 81.309235 47.932716 81.288246 C 47.8907 81.26723 48.037754 80.88909 49.109154 77.84296 C 49.781403 75.97327 50.327606 74.418686 50.3066 74.418686 L 49.949467 74.52373 C 49.193188 74.77582 48.731014 74.85985 48.163803 74.85985 C 47.701633 74.85985 47.575584 74.838844 47.23946 74.67078 C 46.315117 74.229614 46.0 73.15822 46.525196 72.359924 C 46.75628 72.04481 47.11341 71.79271 47.491554 71.72969 Z" fill="#404040" stroke="none" stroke-width="0.75" />
<path d="M 65.52 98.232 C 65.52 99.456 66.715195 100.68 67.895996 100.68 C 71.495995 100.68 75.09599 98.232 75.09599 95.856 C 75.09599 94.6752 73.871994 93.48 72.71999 93.48 C 69.119995 93.48 65.52 95.856 65.52 98.232 Z" fill="#404040" stroke="none" stroke-width="1.0" />
<path d="M 64.0 181.25 L 72.0 181.25 L 72.0 188.75 L 64.0 188.75 L 64.0 181.25 Z" fill="#ffffff" stroke="none" stroke-width="1.0" />
<text x='64.0' y='188.75' font-family="Default" font-size="10.0" fill="#404040" >5</text>
<path d="M 65.52 82.232 C 65.52 83.456 66.715195 84.68 67.895996 84.68 C 71.495995 84.68 75.09599 82.232 75.09599 79.856 C 75.09599 78.6752 73.871994 77.48 72.71999 77.48 C 69.119995 77.48 65.52 79.856 65.52 82.232 Z" fill="#404040" stroke="none" stroke-width="1.0" />
<path d="M 64.0 171.25 L 72.0 171.25 L 72.0 178.75 L 64.0 178.75 L 64.0 171.25 Z" fill="#ffffff" stroke="none" stroke-width="1.0" />
<text x='64.0' y='178.75' font-family="Default" font-size="10.0" fill="#404040" >7</text>
<path d="M 65.52 70.232 C 65.52 71.456 66.715195 72.68 67.895996 72.68 C 71.495995 72.68 75.09599 70.232 75.09599 67.856 C 75.09599 66.6752 73.871994 65.48 72.71999 65.48 C 69.119995 65.48 65.52 67.856 65.52 70.232 Z" fill="#404040" stroke="none" stroke-width="1.0" />
<path d="M 64.0 161.25 L 72.0 161.25 L 72.0 168.75 L 64.0 168.75 L 64.0 161.25 Z" fill="#ffffff" stroke="none" stroke-width="1.0" />
<text x='64.0' y='168.75' font-family="Default" font-size="10.0" fill="#404040" >7</text>
<path d="M 74.18 96.04 L 75.18 96.04 L 75.18 37.0 L 74.18 37.0 M 74.18 96.04 Z" fill="#404040" stroke="none" stroke-width="0.75" />
<path d="M 79.33 52.95 C 79.455 53.0 79.73 52.95 79.83 52.9 C 79.98 52.8 80.03 52.75 80.18 52.475 C 80.705 51.5 81.13 50.3 81.305 49.3 C 81.655 47.325 81.405 45.875 80.405 44.225 C 79.955 43.45 79.405 42.75 78.18 41.375 C 76.905 39.9 76.505 39.375 76.005 38.675 C 75.505 37.9 75.155 37.175 74.93 36.45 C 74.805 36.0 74.705 35.325 74.705 34.95 L 74.705 34.825 L 74.455 34.825 L 74.18 34.825 L 74.18 37.95 L 74.18 41.075 L 74.455 41.075 L 74.73 41.075 L 75.38 41.525 C 77.23 42.75 78.355 43.75 79.155 44.825 C 80.13 46.15 80.405 47.25 80.13 48.9 C 79.955 49.95 79.53 51.025 78.98 51.975 C 78.855 52.15 78.83 52.225 78.83 52.3 C 78.83 52.6 79.03 52.85 79.33 52.95 Z" fill="#404040" stroke="none" stroke-width="0.75" />
<path d="M 76.0 97.0 C 76.0 101.0 83.0 101.0 83.0 97.0 C 83.0 99.0 76.0 99.0 76.0 97.0 Z" fill="#404040" stroke="none" stroke-width="0.75" />
<path d="M 86.0 98.024 C 86.0 99.112 87.0624 100.200005 88.112 100.200005 C 91.312 100.200005 94.512 98.024 94.512 95.912 C 94.512 94.862404 93.423996 93.8 92.4 93.8 C 89.2 93.8 86.0 95.912 86.0 98.024 Z" fill="none" stroke="#404040" stroke-width="1.0" />
<path d="M 76.0 81.0 C 76.0 85.0 83.0 85.0 83.0 81.0 C 83.0 83.0 76.0 83.0 76.0 81.0 Z" fill="#404040" stroke="none" stroke-width="1.0" />
<path d="M 86.0 82.024 C 86.0 83.112 87.0624 84.200005 88.112 84.200005 C 91.312 84.200005 94.512 82.024 94.512 79.912 C 94.512 78.862404 93.423996 77.8 92.4 77.8 C 89.2 77.8 86.0 79.912 86.0 82.024 Z" fill="none" stroke="#404040" stroke-width="1.0" />
<path d="M 76.0 69.0 C 76.0 73.0 83.0 73.0 83.0 69.0 C 83.0 71.0 76.0 71.0 76.0 69.0 Z" fill="#404040" stroke="none" stroke-width="1.0" />
<path d="M 86.0 70.024 C 86.0 71.112 87.0624 72.200005 88.112 72.200005 C 91.312 72.200005 94.512 70.024 94.512 67.912 C 94.512 66.862404 93.423996 65.8 92.4 65.8 C 89.2 65.8 86.0 67.912 86.0 70.024 Z" fill="none" stroke="#404040" stroke-width="1.0" />
<path d="M 94.18 96.04 L 95.18 96.04 L 95.18 37.0 L 94.18 37.0 M 94.18 96.04 Z" fill="#404040" stroke="none" stroke-width="0.75" /></g>
<text x='402.0' y='294.0' font-family="Default" font-size="10.0" fill="#ff0000" >7</text>
<path d="M 401.0 296.0 L 401.0 328.0 Z" fill="#000000" stroke="#000000" stroke-width="0.75" />
<path d="M 521.0 296.0 L 522.0 296.0 L 522.0 328.0 L 521.0 328.0 L 521.0 296.0 Z" fill="#000000" stroke="#000000" stroke-width="0.75" />
<path d="M 524.0 296.0 L 527.0 296.0 L 527.0 328.0 L 524.0 328.0 L 524.0 296.0 Z" fill="#000000" stroke="#000000" stroke-width="0.75" />
<path d="M 401.0 380.0 L 401.0 430.0 Z" fill="#000000" stroke="#000000" stroke-width="0.75" />
<path d="M 521.0 380.0 L 522.0 380.0 L 522.0 430.0 L 521.0 430.0 L 521.0 380.0 Z" fill="#000000" stroke="#000000" stroke-width="0.75" />
<path d="M 524.0 380.0 L 527.0 380.0 L 527.0 430.0 L 524.0 430.0 L 524.0 380.0 Z" fill="#000000" stroke="#000000" stroke-width="0.75" />
<path d="M 529.0 296.0 L 930.0 296.0 M 529.0 304.0 L 930.0 304.0 M 529.0 312.0 L 930.0 312.0 M 529.0 320.0 L 930.0 320.0 M 529.0 328.0 L 930.0 328.0 Z" fill="none" stroke="#d6d6d6" stroke-width="0.75" />
<path d="M 529.0 380.0 L 930.0 380.0 M 529.0 390.0 L 930.0 390.0 M 529.0 400.0 L 930.0 400.0 M 529.0 410.0 L 930.0 410.0 M 529.0 420.0 L 930.0 420.0 M 529.0 430.0 L 930.0 430.0 Z" fill="none" stroke="#d6d6d6" stroke-width="0.75" />
</svg>