<svg width="960.0px" height="253.0px" xmlns="http://www.w3.org/2000/svg" version="1.1">

<path d="M 0.0 0.0 L 960.0 0.0 L 960.0 253.0 L 0.0 253.0 L 0.0 0.0 Z" fill="#ffffff" stroke="none" stroke-width="1.0" /><g transform="translate(20.0,20.0)">
<path d="M 0.0 0.0 L 195.0 0.0 L 195.0 222.0 L 0.0 222.0 L 0.0 0.0 Z" fill="#ffffff" stroke="none" stroke-width="1.0" />
<path d="M 0.0 54.0 L 195.0 54.0 M 0.0 62.0 L 195.0 62.0 M 0.0 70.0 L 195.0 70.0 M 0.0 78.0 L 195.0 78.0 M 0.0 86.0 L 195.0 86.0 Z" fill="none" stroke="#d6d6d6" stroke-width="0.75" />
<path d="M 0.0 151.0 L 195.0 151.0 M 0.0 161.0 L 195.0 161.0 M 0.0 171.0 L 195.0 171.0 M 0.0 181.0 L 195.0 181.0 M 0.0 191.0 L 195.0 191.0 M 0.0 201.0 L 195.0 201.0 Z" fill="none" stroke="#d6d6d6" stroke-width="0.75" />
<path d="M 67.77043 54.40856 C 68.324905 54.40856 68.821014 54.350193 69.25876 54.20428 C 69.6965 54.058365 69.959145 54.0 70.04669 54.0 C 70.192604 54.0 70.28015 54.029182 70.36771 54.11673 C 70.42607 54.1751 70.45525 54.233463 70.484436 54.32101 C 70.484436 54.37938 70.45525 54.437744 70.42607 54.49611 L 61.933853 64.359924 L 66.924126 64.359924 L 66.924126 60.449417 C 66.924126 60.18677 67.01167 59.95331 67.1284 59.807392 C 67.3035 59.661476 67.4786 59.515564 67.71206 59.4572 C 67.97471 59.340466 68.26653 59.07782 68.64591 58.640076 C 68.937744 58.319065 69.317116 57.706226 69.75486 56.801556 C 69.81323 56.684826 69.90078 56.626457 70.01751 56.626457 C 70.28015 56.626457 70.39688 56.772373 70.42607 57.03502 L 70.42607 64.359924 L 72.55642 64.359924 C 72.84825 64.359924 72.99416 64.50584 73.023346 64.79767 C 73.023346 65.08949 72.877426 65.235405 72.55642 65.235405 L 70.42607 65.235405 L 70.42607 65.46887 C 70.42607 66.28599 70.63035 66.92802 71.00973 67.45331 C 71.44747 67.9786 71.97276 68.270424 72.5856 68.270424 C 72.81906 68.270424 72.9358 68.38716 72.9358 68.62062 C 72.9358 68.85408 72.81906 68.97082 72.5856 68.97082 C 72.14786 68.97082 71.50584 68.91245 70.601166 68.795715 C 69.696495 68.6498 69.054474 68.59144 68.64591 68.59144 C 68.23735 68.59144 67.56615 68.6498 66.69066 68.795715 C 65.81517 68.91245 65.17315 68.97082 64.735405 68.97082 C 64.501945 68.97082 64.385216 68.85408 64.385216 68.62062 C 64.385216 68.38716 64.501945 68.270424 64.735405 68.270424 C 65.34825 68.270424 65.87354 67.9786 66.31128 67.45331 C 66.71984 66.898834 66.924126 66.256805 66.924126 65.46887 L 66.924126 65.235405 L 61.933853 65.235405 C 61.61284 65.235405 61.379375 65.17704 61.233463 65.001945 C 61.087547 64.88521 61.0 64.71011 61.0 64.53502 C 61.0 64.476654 61.145912 64.27237 61.437744 63.92218 C 61.729572 63.571983 62.079765 63.105057 62.488327 62.492218 C 62.488327 62.492218 63.305447 61.20817 63.71401 60.449417 C 63.71401 60.449417 64.47276 58.78599 64.735405 57.706226 C 65.02724 56.65564 65.17315 55.575874 65.17315 54.49611 C 65.17315 54.175095 65.31907 54.029182 65.58171 54.029182 C 65.61089 54.029182 65.756805 54.058365 65.96109 54.11673 C 66.16537 54.175095 66.4572 54.233463 66.77821 54.32101 C 67.1284 54.379375 67.44942 54.408558 67.77043 54.408558 Z" fill="#000000" stroke="none" stroke-width="0.75" />
<path d="M 67.77043 71.40856 C 68.324905 71.40856 68.821014 71.3502 69.25876 71.20428 C 69.6965 71.058365 69.959145 71.0 70.04669 71.0 C 70.192604 71.0 70.28015 71.02918 70.36771 71.11673 C 70.42607 71.175095 70.45525 71.23346 70.484436 71.321014 C 70.484436 71.37938 70.45525 71.437744 70.42607 71.49611 L 61.933853 81.359924 L 66.924126 81.359924 L 66.924126 77.44942 C 66.924126 77.18677 67.01167 76.95331 67.1284 76.807396 C 67.3035 76.661476 67.4786 76.515564 67.71206 76.4572 C 67.97471 76.34047 68.26653 76.07782 68.64591 75.640076 C 68.937744 75.31907 69.317116 74.70622 69.75486 73.80156 C 69.81323 73.68482 69.90078 73.62646 70.01751 73.62646 C 70.28015 73.62646 70.39688 73.77237 70.42607 74.03502 L 70.42607 81.359924 L 72.55642 81.359924 C 72.84825 81.359924 72.99416 81.50584 73.023346 81.79767 C 73.023346 82.08949 72.877426 82.235405 72.55642 82.235405 L 70.42607 82.235405 L 70.42607 82.46887 C 70.42607 83.28599 70.63035 83.92802 71.00973 84.45331 C 71.44747 84.9786 71.97276 85.270424 72.5856 85.270424 C 72.81906 85.270424 72.9358 85.38716 72.9358 85.62062 C 72.9358 85.85408 72.81906 85.97082 72.5856 85.97082 C 72.14786 85.97082 71.50584 85.91245 70.601166 85.795715 C 69.696495 85.6498 69.054474 85.59144 68.64591 85.59144 C 68.23735 85.59144 67.56615 85.6498 66.69066 85.795715 C 65.81517 85.91245 65.17315 85.97082 64.735405 85.97082 C 64.501945 85.97082 64.385216 85.85408 64.385216 85.62062 C 64.385216 85.38716 64.501945 85.270424 64.735405 85.270424 C 65.34825 85.270424 65.87354 84.9786 66.31128 84.45331 C 66.71984 83.898834 66.924126 83.256805 66.924126 82.46887 L 66.924126 82.235405 L 61.933853 82.235405 C 61.61284 82.235405 61.379375 82.17704 61.233463 82.001945 C 61.087547 81.88521 61.0 81.71011 61.0 81.53502 C 61.0 81.476654 61.145912 81.27237 61.437744 80.92218 C 61.729572 80.57198 62.079765 80.10506 62.488327 79.49222 C 62.488327 79.49222 63.305447 78.20817 63.71401 77.44942 C 63.71401 77.44942 64.47276 75.78599 64.735405 74.70622 C 65.02724 73.65564 65.17315 72.575874 65.17315 71.49611 C 65.17315 71.175095 65.31907 71.02918 65.58171 71.02918 C 65.61089 71.02918 65.756805 71.058365 65.96109 71.11673 C 66.16537 71.175095 66.4572 71.23346 66.77821 71.321014 C 67.1284 71.37938 67.44942 71.40856 67.77043 71.40856 Z" fill="#000000" stroke="none" stroke-width="0.75" />
<path d="M 22.764973 46.115383 C 22.921913 46.03691 22.948072 46.03691 23.105015 46.03691 C 23.314268 46.063072 23.445057 46.14154 23.73278 46.455425 C 25.616081 48.39104 27.185501 51.843758 27.577856 54.773342 C 27.630169 55.244167 27.630169 56.34276 27.577856 56.839737 C 27.29013 59.533905 26.165377 61.99266 23.57584 65.52385 L 23.209644 66.02083 L 23.418898 66.62244 C 23.915882 68.06107 24.491331 69.81359 24.85753 71.09528 C 24.96216 71.409164 25.04063 71.67074 25.04063 71.6969 C 25.04063 71.6969 25.223728 71.6969 25.406826 71.72305 C 26.322319 71.80152 27.10703 72.01078 27.917896 72.40313 C 28.57182 72.74317 29.147274 73.13552 29.696568 73.65866 C 30.29818 74.26028 30.690535 74.80957 31.05673 75.56812 C 31.606026 76.66672 31.84144 77.81762 31.81528 78.96853 C 31.789125 79.70093 31.684496 80.25022 31.449085 80.930305 C 31.1352 81.92426 30.559748 82.83976 29.77504 83.624466 C 29.094955 84.30455 28.46719 84.72306 27.630169 85.0631 L 27.316284 85.193886 L 27.316284 86.13554 C 27.316284 87.46954 27.237814 89.038956 27.133184 89.980606 C 27.02856 90.94841 26.766989 91.86391 26.348476 92.700935 C 25.249886 94.92427 23.314268 96.10133 21.143244 95.89209 C 18.684484 95.65667 16.69656 93.98262 16.199577 91.73312 C 15.964161 90.713 16.068794 89.9283 16.487303 89.27437 C 17.036598 88.411194 18.082878 87.914215 19.102997 87.94037 C 20.30622 87.99268 21.274027 88.934326 21.457123 90.24218 C 21.58791 91.28845 21.143244 92.25626 20.30622 92.7794 C 19.835394 93.06713 19.181469 93.197914 18.684484 93.119446 C 18.606018 93.119446 18.527544 93.093285 18.527544 93.119446 L 18.84143 93.43333 C 19.416882 94.00878 20.070807 94.374985 20.907831 94.558075 C 21.090927 94.584236 21.247868 94.584236 21.666382 94.584236 C 22.137207 94.584236 22.189518 94.584236 22.451088 94.53192 C 22.81729 94.42729 23.131172 94.29651 23.418898 94.139565 C 24.726748 93.35486 25.616081 91.73312 25.851494 89.77136 C 25.929964 89.038956 26.008434 87.46954 26.008434 86.318634 C 26.008434 85.56009 26.008434 85.50777 25.956123 85.50777 C 25.851494 85.56009 25.302197 85.6124 24.909843 85.63855 C 24.41286 85.66471 23.57584 85.66471 23.183485 85.6124 C 21.640223 85.4293 20.227747 84.90616 18.998373 84.04298 C 17.167385 82.76129 15.859535 80.85182 15.31024 78.65465 C 14.604002 75.908165 15.100986 72.978584 16.827343 69.89206 C 17.55974 68.610374 18.265978 67.564095 20.018494 65.23612 L 21.012455 63.902122 L 20.829355 63.405136 C 19.573822 60.083202 19.15531 58.173744 19.024527 55.401108 C 18.972214 54.197887 19.024527 53.17776 19.181469 52.34074 C 19.573822 50.14356 20.593945 48.181786 22.189518 46.612366 C 22.503403 46.298485 22.63419 46.193855 22.764973 46.115383 M 24.831371 50.588226 C 24.569805 50.14356 24.622118 50.169712 24.386707 50.32666 C 23.65431 50.771324 22.89576 51.451405 22.34646 52.131485 C 21.221714 53.57012 20.593945 55.244167 20.515476 57.048996 C 20.489319 57.78139 20.56779 58.252216 20.907831 59.37696 C 21.169397 60.292458 21.901793 62.5158 21.95411 62.56811 C 21.95411 62.59427 22.111048 62.411175 22.26799 62.17576 C 24.072823 59.58622 25.04063 57.467506 25.406826 55.348793 C 25.485298 54.799496 25.53761 54.354828 25.563768 53.727062 C 25.589928 52.28843 25.432985 51.58219 24.831371 50.588226 M 22.581877 68.191864 C 22.424934 67.69488 22.26799 67.30252 22.26799 67.30252 C 22.241835 67.30252 21.143244 68.76731 20.672415 69.421234 C 19.129156 71.59227 18.187506 73.34478 17.638206 75.07114 C 17.27201 76.14357 17.115068 77.13754 17.062756 78.23613 C 17.062756 78.837746 17.088915 79.20394 17.193539 79.648605 C 17.795153 81.97658 20.280064 83.88603 23.209644 84.30455 C 23.65431 84.35686 24.909843 84.35686 25.459139 84.30455 C 26.008434 84.226074 25.956123 84.252235 25.929964 84.01682 C 25.773026 81.531906 25.563768 80.0148 25.14526 77.765305 C 24.988314 76.823654 24.543648 74.835724 24.517488 74.80957 C 24.491331 74.78342 23.99435 74.835724 23.706627 74.9142 C 23.340427 74.99267 23.105015 75.07114 22.79113 75.22808 C 21.090927 76.09126 20.593945 78.05304 21.666382 79.648605 C 21.849482 79.91018 22.320305 80.381004 22.608032 80.5641 C 22.71266 80.64258 22.948072 80.799515 23.105015 80.87799 C 23.340427 81.00877 23.392738 81.06108 23.445057 81.16571 C 23.65431 81.50575 23.523525 81.92426 23.131172 82.10736 C 22.921913 82.21199 22.764973 82.18584 22.34646 81.97658 C 21.326344 81.4796 20.56779 80.799515 20.018494 79.962494 C 18.998373 78.393074 18.867586 76.37899 19.70461 74.67879 C 20.437006 73.214 21.744852 72.22003 23.418898 71.853836 C 23.57584 71.80152 23.706627 71.77537 23.706627 71.77537 C 23.73278 71.74921 23.000385 69.36893 22.581877 68.191864 M 26.139221 74.94036 C 26.060753 74.94036 25.98228 74.9142 25.956123 74.9142 L 25.877651 74.88804 L 26.008434 75.43734 C 26.610046 78.07919 27.054714 80.95645 27.211655 83.38905 C 27.237814 83.65063 27.237814 83.85988 27.237814 83.85988 C 27.263973 83.85988 27.60401 83.70294 27.78711 83.57216 C 28.231777 83.31058 28.65029 82.91823 28.99033 82.47356 C 29.801197 81.40112 30.08892 80.06712 29.77504 78.706955 C 29.539627 77.60837 28.911861 76.58824 28.022522 75.882 C 27.473227 75.46349 26.740831 75.0973 26.139221 74.94036 Z" fill="#000000" stroke="none" stroke-width="0.75" />
<path d="M 92.0 94.0 L 108.0 94.0 Z" fill="none" stroke="#d6d6d6" stroke-width="0.75" />
<path d="M 95.52 95.232 C 95.52 96.456 96.715195 97.68 97.895996 97.68 C 101.495995 97.68 105.09599 95.232 105.09599 92.856 C 105.09599 91.6752 103.871994 90.48 102.71999 90.48 C 99.119995 90.48 95.52 92.856 95.52 95.232 Z" fill="#404040" stroke="none" stroke-width="1.0" />
<path d="M 94.0 187.25 L 102.0 187.25 L 102.0 194.75 L 94.0 194.75 L 94.0 187.25 Z" fill="#ffffff" stroke="none" stroke-width="1.0" />
<text x='94.0' y='194.75' font-family="Default" font-size="10.0" fill="#404040" >3</text>
<path d="M 95.52 79.232 C 95.52 80.456 96.715195 81.68 97.895996 81.68 C 101.495995 81.68 105.09599 79.232 105.09599 76.856 C 105.09599 75.6752 103.871994 74.48 102.71999 74.48 C 99.119995 74.48 95.52 76.856 95.52 79.232 Z" fill="#404040" stroke="none" stroke-width="1.0" />
<path d="M 94.0 177.25 L 102.0 177.25 L 102.0 184.75 L 94.0 184.75 L 94.0 177.25 Z" fill="#ffffff" stroke="none" stroke-width="1.0" />
<text x='94.0' y='184.75' font-family="Default" font-size="10.0" fill="#404040" >5</text>
<path d="M 95.52 67.232 C 95.52 68.456 96.715195 69.68 97.895996 69.68 C 101.495995 69.68 105.09599 67.232 105.09599 64.856 C 105.09599 63.6752 103.871994 62.48 102.71999 62.48 C 99.119995 62.48 95.52 64.856 95.52 67.232 Z" fill="#404040" stroke="none" stroke-width="1.0" />
<path d="M 94.0 167.25 L 102.0 167.25 L 102.0 174.75 L 94.0 174.75 L 94.0 167.25 Z" fill="#ffffff" stroke="none" stroke-width="1.0" />
<text x='94.0' y='174.75' font-family="Default" font-size="10.0" fill="#404040" >5</text>
<path d="M 95.52 59.232 C 95.52 60.456 96.715195 61.68 97.895996 61.68 C 101.495995 61.68 105.09599 59.232 105.09599 56.856 C 105.09599 55.6752 103.871994 54.48 102.71999 54.48 C 99.119995 54.48 95.52 56.856 95.52 59.232 Z" fill="#404040" stroke="none" stroke-width="1.0" />
<path d="M 94.0 157.25 L 102.0 157.25 L 102.0 164.75 L 94.0 164.75 L 94.0 157.25 Z" fill="#ffffff" stroke="none" stroke-width="1.0" />
<text x='94.0' y='164.75' font-family="Default" font-size="10.0" fill="#404040" >5</text>
<path d="M 104.18 93.04 L 105.18 93.04 L 105.18 26.0 L 104.18 26.0 M 104.18 93.04 Z" fill="#404040" stroke="none" stroke-width="0.75" />
<path d="M 113.0 94.0 L 129.0 94.0 Z" fill="none" stroke="#d6d6d6" stroke-width="0.75" />
<path d="M 116.52 95.232 C 116.52 96.456 117.715195 97.68 118.895996 97.68 C 122.495995 97.68 126.09599 95.232 126.09599 92.856 C 126.09599 91.6752 124.871994 90.48 123.71999 90.48 C 120.119995 90.48 116.52 92.856 116.52 95.232 Z" fill="#404040" stroke="none" stroke-width="1.0" />
<path d="M 115.0 187.25 L 123.0 187.25 L 123.0 194.75 L 115.0 194.75 L 115.0 187.25 Z" fill="#ffffff" stroke="none" stroke-width="1.0" />
<text x='115.0' y='194.75' font-family="Default" font-size="10.0" fill="#404040" >3</text>
<path d="M 116.52 79.232 C 116.52 80.456 117.715195 81.68 118.895996 81.68 C 122.495995 81.68 126.09599 79.232 126.09599 76.856 C 126.09599 75.6752 124.871994 74.48 123.71999 74.48 C 120.119995 74.48 116.52 76.856 116.52 79.232 Z" fill="#404040" stroke="none" stroke-width="1.0" />
<path d="M 115.0 177.25 L 123.0 177.25 L 123.0 184.75 L 115.0 184.75 L 115.0 177.25 Z" fill="#ffffff" stroke="none" stroke-width="1.0" />
<text x='115.0' y='184.75' font-family="Default" font-size="10.0" fill="#404040" >5</text>
<path d="M 116.52 67.232 C 116.52 68.456 117.715195 69.68 118.895996 69.68 C 122.495995 69.68 126.09599 67.232 126.09599 64.856 C 126.09599 63.6752 124.871994 62.48 123.71999 62.48 C 120.119995 62.48 116.52 64.856 116.52 67.232 Z" fill="#404040" stroke="none" stroke-width="1.0" />
<path d="M 115.0 167.25 L 123.0 167.25 L 123.0 174.75 L 115.0 174.75 L 115.0 167.25 Z" fill="#ffffff" stroke="none" stroke-width="1.0" />
<text x='115.0' y='174.75' font-family="Default" font-size="10.0" fill="#404040" >5</text>
<path d="M 116.52 59.232 C 116.52 60.456 117.715195 61.68 118.895996 61.68 C 122.495995 61.68 126.09599 59.232 126.09599 56.856 C 126.09599 55.6752 124.871994 54.48 123.71999 54.48 C 120.119995 54.48 116.52 56.856 116.52 59.232 Z" fill="#404040" stroke="none" stroke-width="1.0" />
<path d="M 115.0 157.25 L 123.0 157.25 L 123.0 164.75 L 115.0 164.75 L 115.0 157.25 Z" fill="#ffffff" stroke="none" stroke-width="1.0" />
<text x='115.0' y='164.75' font-family="Default" font-size="10.0" fill="#404040" >5</text>
<path d="M 125.18 93.04 L 126.18 93.04 L 126.18 26.0 L 125.18 26.0 M 125.18 93.04 Z" fill="#404040" stroke="none" stroke-width="0.75" />
<path d="M 134.0 94.0 L 150.0 94.0 Z" fill="none" stroke="#d6d6d6" stroke-width="0.75" />
<path d="M 134.0 102.0 L 150.0 102.0 Z" fill="none" stroke="#d6d6d6" stroke-width="0.75" />
<path d="M 137.52 107.232 C 137.52 108.456 138.71521 109.68 139.89601 109.68 C 143.496 109.68 147.09601 107.232 147.09601 104.856 C 147.09601 103.6752 145.87201 102.48 144.72 102.48 C 141.12001 102.48 137.52 104.856 137.52 107.232 Z" fill="#404040" stroke="none" stroke-width="1.0" />
<path d="M 136.0 197.25 L 144.0 197.25 L 144.0 204.75 L 136.0 204.75 L 136.0 197.25 Z" fill="#ffffff" stroke="none" stroke-width="1.0" />
<text x='136.0' y='204.75' font-family="Default" font-size="10.0" fill="#404040" >3</text>
<path d="M 137.52 91.232 C 137.52 92.456 138.71521 93.68 139.89601 93.68 C 143.496 93.68 147.09601 91.232 147.09601 88.856 C 147.09601 87.6752 145.87201 86.48 144.72 86.48 C 141.12001 86.48 137.52 88.856 137.52 91.232 Z" fill="#404040" stroke="none" stroke-width="1.0" />
<path d="M 136.0 187.25 L 144.0 187.25 L 144.0 194.75 L 136.0 194.75 L 136.0 187.25 Z" fill="#ffffff" stroke="none" stroke-width="1.0" />
<text x='136.0' y='194.75' font-family="Default" font-size="10.0" fill="#404040" >5</text>
<path d="M 137.52 79.232 C 137.52 80.456 138.71521 81.68 139.89601 81.68 C 143.496 81.68 147.09601 79.232 147.09601 76.856 C 147.09601 75.6752 145.87201 74.48 144.72 74.48 C 141.12001 74.48 137.52 76.856 137.52 79.232 Z" fill="#404040" stroke="none" stroke-width="1.0" />
<path d="M 136.0 177.25 L 144.0 177.25 L 144.0 184.75 L 136.0 184.75 L 136.0 177.25 Z" fill="#ffffff" stroke="none" stroke-width="1.0" />
<text x='136.0' y='184.75' font-family="Default" font-size="10.0" fill="#404040" >5</text>
<path d="M 137.52 71.232 C 137.52 72.456 138.71521 73.68 139.89601 73.68 C 143.496 73.68 147.09601 71.232 147.09601 68.856 C 147.09601 67.6752 145.87201 66.48 144.72 66.48 C 141.12001 66.48 137.52 68.856 137.52 71.232 Z" fill="#404040" stroke="none" stroke-width="1.0" />
<path d="M 136.0 167.25 L 144.0 167.25 L 144.0 174.75 L 136.0 174.75 L 136.0 167.25 Z" fill="#ffffff" stroke="none" stroke-width="1.0" />
<text x='136.0' y='174.75' font-family="Default" font-size="10.0" fill="#404040" >4</text>
<path d="M 146.18 105.04 L 147.18 105.04 L 147.18 38.0 L 146.18 38.0 M 146.18 105.04 Z" fill="#404040" stroke="none" stroke-width="0.75" />
<path d="M 155.0 94.0 L 171.0 94.0 Z" fill="none" stroke="#d6d6d6" stroke-width="0.75" />
<path d="M 155.0 102.0 L 171.0 102.0 Z" fill="none" stroke="#d6d6d6" stroke-width="0.75" />
<path d="M 158.52 107.232 C 158.52 108.456 159.71521 109.68 160.89601 109.68 C 164.496 109.68 168.09601 107.232 168.09601 104.856 C 168.09601 103.6752 166.87201 102.48 165.72 102.48 C 162.12001 102.48 158.52 104.856 158.52 107.232 Z" fill="#404040" stroke="none" stroke-width="1.0" />
<path d="M 157.0 197.25 L 165.0 197.25 L 165.0 204.75 L 157.0 204.75 L 157.0 197.25 Z" fill="#ffffff" stroke="none" stroke-width="1.0" />
<text x='157.0' y='204.75' font-family="Default" font-size="10.0" fill="#404040" >3</text>
<path d="M 158.52 91.232 C 158.52 92.456 159.71521 93.68 160.89601 93.68 C 164.496 93.68 168.09601 91.232 168.09601 88.856 C 168.09601 87.6752 166.87201 86.48 165.72 86.48 C 162.12001 86.48 158.52 88.856 158.52 91.232 Z" fill="#404040" stroke="none" stroke-width="1.0" />
<path d="M 157.0 187.25 L 165.0 187.25 L 165.0 194.75 L 157.0 194.75 L 157.0 187.25 Z" fill="#ffffff" stroke="none" stroke-width="1.0" />
<text x='157.0' y='194.75' font-family="Default" font-size="10.0" fill="#404040" >5</text>
<path d="M 158.52 79.232 C 158.52 80.456 159.71521 81.68 160.89601 81.68 C 164.496 81.68 168.09601 79.232 168.09601 76.856 C 168.09601 75.6752 166.87201 74.48 165.72 74.48 C 162.12001 74.48 158.52 76.856 158.52 79.232 Z" fill="#404040" stroke="none" stroke-width="1.0" />
<path d="M 157.0 177.25 L 165.0 177.25 L 165.0 184.75 L 157.0 184.75 L 157.0 177.25 Z" fill="#ffffff" stroke="none" stroke-width="1.0" />
<text x='157.0' y='184.75' font-family="Default" font-size="10.0" fill="#404040" >5</text>
<path d="M 158.52 71.232 C 158.52 72.456 159.71521 73.68 160.89601 73.68 C 164.496 73.68 168.09601 71.232 168.09601 68.856 C 168.09601 67.6752 166.87201 66.48 165.72 66.48 C 162.12001 66.48 158.52 68.856 158.52 71.232 Z" fill="#404040" stroke="none" stroke-width="1.0" />
<path d="M 157.0 167.25 L 165.0 167.25 L 165.0 174.75 L 157.0 174.75 L 157.0 167.25 Z" fill="#ffffff" stroke="none" stroke-width="1.0" />
<text x='157.0' y='174.75' font-family="Default" font-size="10.0" fill="#404040" >4</text>
<path d="M 167.18 105.04 L 168.18 105.04 L 168.18 38.0 L 167.18 38.0 M 167.18 105.04 Z" fill="#404040" stroke="none" stroke-width="0.75" /></g>
<path d="M 35.35 60.3 C 35.35 61.15 36.18 62.0 37.0 62.0 C 39.5 62.0 42.0 60.3 42.0 58.65 C 42.0 57.83 41.149998 57.0 40.35 57.0 C 37.85 57.0 35.35 58.65 35.35 60.3 Z" fill="#000000" stroke="none" stroke-width="1.0" />
<path d="M 42.0 44.0 L 42.0 58.7 Z" fill="none" stroke="#000000" stroke-width="1.0" />
<text x='43.0' y='60.25' font-family="Default" font-size="10.0" fill="#000000" > = 100</text>
<text x='21.0' y='72.0' font-family="Default" font-size="10.0" fill="#ff0000" >1</text>
<path d="M 20.0 74.0 L 23.0 74.0 L 23.0 171.0 L 20.0 171.0 L 20.0 74.0 Z" fill="#000000" stroke="#000000" stroke-width="0.75" />
<path d="M 25.0 74.0 L 26.0 74.0 L 26.0 171.0 L 25.0 171.0 L 25.0 74.0 Z" fill="#000000" stroke="#000000" stroke-width="0.75" />
<path d="M 215.0 74.0 L 215.0 106.0 Z" fill="#000000" stroke="#000000" stroke-width="0.75" />
<path d="M 20.0 171.0 L 23.0 171.0 L 23.0 221.0 L 20.0 221.0 L 20.0 171.0 Z" fill="#000000" stroke="#000000" stroke-width="0.75" />
<path d="M 25.0 171.0 L 26.0 171.0 L 26.0 221.0 L 25.0 221.0 L 25.0 171.0 Z" fill="#000000" stroke="#000000" stroke-width="0.75" />
<path d="M 215.0 171.0 L 215.0 221.0 Z" fill="#000000" stroke="#000000" stroke-width="0.75" /><g transform="translate(215.0,20.0)">
<path d="M 0.0 0.0 L 124.0 0.0 L 124.0 222.0 L 0.0 222.0 L 0.0 0.0 Z" fill="#ffffff" stroke="none" stroke-width="1.0" />
<path d="M 0.0 54.0 L 124.0 54.0 M 0.0 62.0 L 124.0 62.0 M 0.0 70.0 L 124.0 70.0 M 0.0 78.0 L 124.0 78.0 M 0.0 86.0 L 124.0 86.0 Z" fill="none" stroke="#d6d6d6" stroke-width="0.75" />
<path d="M 0.0 151.0 L 124.0 151.0 M 0.0 161.0 L 124.0 161.0 M 0.0 171.0 L 124.0 171.0 M 0.0 181.0 L 124.0 181.0 M 0.0 191.0 L 124.0 191.0 M 0.0 201.0 L 124.0 201.0 Z" fill="none" stroke="#d6d6d6" stroke-width="0.75" />
<path d="M 24.52 91.232 C 24.52 92.456 25.7152 93.68 26.896 93.68 C 30.496 93.68 34.096 91.232 34.096 88.856 C 34.096 87.6752 32.872 86.48 31.720001 86.48 C 28.12 86.48 24.52 88.856 24.52 91.232 Z" fill="#404040" stroke="none" stroke-width="1.0" />
<path d="M 23.0 187.25 L 31.0 187.25 L 31.0 194.75 L 23.0 194.75 L 23.0 187.25 Z" fill="#ffffff" stroke="none" stroke-width="1.0" />
<text x='23.0' y='194.75' font-family="Default" font-size="10.0" fill="#404040" >5</text>
<path d="M 24.52 75.232 C 24.52 76.456 25.7152 77.68 26.896 77.68 C 30.496 77.68 34.096 75.232 34.096 72.856 C 34.096 71.6752 32.872 70.48 31.720001 70.48 C 28.12 70.48 24.52 72.856 24.52 75.232 Z" fill="#404040" stroke="none" stroke-width="1.0" />
<path d="M 23.0 177.25 L 31.0 177.25 L 31.0 184.75 L 23.0 184.75 L 23.0 177.25 Z" fill="#ffffff" stroke="none" stroke-width="1.0" />
<text x='23.0' y='184.75' font-family="Default" font-size="10.0" fill="#404040" >7</text>
<path d="M 24.52 63.232 C 24.52 64.456 25.7152 65.68 26.896 65.68 C 30.496 65.68 34.096 63.232 34.096 60.856 C 34.096 59.6752 32.872 58.48 31.720001 58.48 C 28.12 58.48 24.52 60.856 24.52 63.232 Z" fill="#404040" stroke="none" stroke-width="1.0" />
<path d="M 23.0 167.25 L 31.0 167.25 L 31.0 174.75 L 23.0 174.75 L 23.0 167.25 Z" fill="#ffffff" stroke="none" stroke-width="1.0" />
<text x='23.0' y='174.75' font-family="Default" font-size="10.0" fill="#404040" >7</text>
<path d="M 24.52 55.232 C 24.52 56.456 25.7152 57.68 26.896 57.68 C 30.496 57.68 34.096 55.232 34.096 52.856 C 34.096 51.6752 32.872 50.48 31.720001 50.48 C 28.12 50.48 24.52 52.856 24.52 55.232 Z" fill="#404040" stroke="none" stroke-width="1.0" />
<path d="M 23.0 157.25 L 31.0 157.25 L 31.0 164.75 L 23.0 164.75 L 23.0 157.25 Z" fill="#ffffff" stroke="none" stroke-width="1.0" />
<text x='23.0' y='164.75' font-family="Default" font-size="10.0" fill="#404040" >6</text>
<path d="M 24.5 54.96 L 25.5 54.96 L 25.5 121.0 L 24.5 121.0 M 24.5 54.96 Z" fill="#404040" stroke="none" stroke-width="0.75" />
<path d="M 45.52 91.232 C 45.52 92.456 46.715202 93.68 47.896 93.68 C 51.496002 93.68 55.096 91.232 55.096 88.856 C 55.096 87.6752 53.872 86.48 52.72 86.48 C 49.12 86.48 45.52 88.856 45.52 91.232 Z" fill="#404040" stroke="none" stroke-width="1.0" />
<path d="M 44.0 187.25 L 52.0 187.25 L 52.0 194.75 L 44.0 194.75 L 44.0 187.25 Z" fill="#ffffff" stroke="none" stroke-width="1.0" />
<text x='44.0' y='194.75' font-family="Default" font-size="10.0" fill="#404040" >5</text>
<path d="M 45.52 75.232 C 45.52 76.456 46.715202 77.68 47.896 77.68 C 51.496002 77.68 55.096 75.232 55.096 72.856 C 55.096 71.6752 53.872 70.48 52.72 70.48 C 49.12 70.48 45.52 72.856 45.52 75.232 Z" fill="#404040" stroke="none" stroke-width="1.0" />
<path d="M 44.0 177.25 L 52.0 177.25 L 52.0 184.75 L 44.0 184.75 L 44.0 177.25 Z" fill="#ffffff" stroke="none" stroke-width="1.0" />
<text x='44.0' y='184.75' font-family="Default" font-size="10.0" fill="#404040" >7</text>
<path d="M 45.52 63.232 C 45.52 64.456 46.715202 65.68 47.896 65.68 C 51.496002 65.68 55.096 63.232 55.096 60.856 C 55.096 59.6752 53.872 58.48 52.72 58.48 C 49.12 58.48 45.52 60.856 45.52 63.232 Z" fill="#404040" stroke="none" stroke-width="1.0" />
<path d="M 44.0 167.25 L 52.0 167.25 L 52.0 174.75 L 44.0 174.75 L 44.0 167.25 Z" fill="#ffffff" stroke="none" stroke-width="1.0" />
<text x='44.0' y='174.75' font-family="Default" font-size="10.0" fill="#404040" >7</text>
<path d="M 45.52 55.232 C 45.52 56.456 46.715202 57.68 47.896 57.68 C 51.496002 57.68 55.096 55.232 55.096 52.856 C 55.096 51.6752 53.872 50.48 52.72 50.48 C 49.12 50.48 45.52 52.856 45.52 55.232 Z" fill="#404040" stroke="none" stroke-width="1.0" />
<path d="M 44.0 157.25 L 52.0 157.25 L 52.0 164.75 L 44.0 164.75 L 44.0 157.25 Z" fill="#ffffff" stroke="none" stroke-width="1.0" />
<text x='44.0' y='164.75' font-family="Default" font-size="10.0" fill="#404040" >6</text>
<path d="M 45.5 54.96 L 46.5 54.96 L 46.5 121.0 L 45.5 121.0 M 45.5 54.96 Z" fill="#404040" stroke="none" stroke-width="0.75" />
<path d="M 63.0 94.0 L 79.0 94.0 Z" fill="none" stroke="#d6d6d6" stroke-width="0.75" />
<path d="M 63.0 102.0 L 79.0 102.0 Z" fill="none" stroke="#d6d6d6" stroke-width="0.75" />
<path d="M 66.52 103.232 C 66.52 104.456 67.715195 105.68 68.895996 105.68 C 72.495995 105.68 76.09599 103.232 76.09599 100.856 C 76.09599 99.6752 74.871994 98.48 73.71999 98.48 C 70.119995 98.48 66.52 100.856 66.52 103.232 Z" fill="#404040" stroke="none" stroke-width="1.0" />
<path d="M 65.0 197.25 L 73.0 197.25 L 73.0 204.75 L 65.0 204.75 L 65.0 197.25 Z" fill="#ffffff" stroke="none" stroke-width="1.0" />
<text x='65.0' y='204.75' font-family="Default" font-size="10.0" fill="#404040" >5</text>
<path d="M 66.52 87.232 C 66.52 88.456 67.715195 89.68 68.895996 89.68 C 72.495995 89.68 76.09599 87.232 76.09599 84.856 C 76.09599 83.6752 74.871994 82.48 73.71999 82.48 C 70.119995 82.48 66.52 84.856 66.52 87.232 Z" fill="#404040" stroke="none" stroke-width="1.0" />
<path d="M 65.0 187.25 L 73.0 187.25 L 73.0 194.75 L 65.0 194.75 L 65.0 187.25 Z" fill="#ffffff" stroke="none" stroke-width="1.0" />
<text x='65.0' y='194.75' font-family="Default" font-size="10.0" fill="#404040" >7</text>
<path d="M 66.52 75.232 C 66.52 76.456 67.715195 77.68 68.895996 77.68 C 72.495995 77.68 76.09599 75.232 76.09599 72.856 C 76.09599 71.6752 74.871994 70.48 73.71999 70.48 C 70.119995 70.48 66.52 72.856 66.52 75.232 Z" fill="#404040" stroke="none" stroke-width="1.0" />
<path d="M 65.0 177.25 L 73.0 177.25 L 73.0 184.75 L 65.0 184.75 L 65.0 177.25 Z" fill="#ffffff" stroke="none" stroke-width="1.0" />
<text x='65.0' y='184.75' font-family="Default" font-size="10.0" fill="#404040" >7</text>
<path d="M 66.52 67.232 C 66.52 68.456 67.715195 69.68 68.895996 69.68 C 72.495995 69.68 76.09599 67.232 76.09599 64.856 C 76.09599 63.6752 74.871994 62.48 73.71999 62.48 C 70.119995 62.48 66.52 64.856 66.52 67.232 Z" fill="#404040" stroke="none" stroke-width="1.0" />
<path d="M 65.0 167.25 L 73.0 167.25 L 73.0 174.75 L 65.0 174.75 L 65.0 167.25 Z" fill="#ffffff" stroke="none" stroke-width="1.0" />
<text x='65.0' y='174.75' font-family="Default" font-size="10.0" fill="#404040" >5</text>
<path d="M 75.18 101.04 L 76.18 101.04 L 76.18 34.0 L 75.18 34.0 M 75.18 101.04 Z" fill="#404040" stroke="none" stroke-width="0.75" />
<path d="M 84.0 94.0 L 100.0 94.0 Z" fill="none" stroke="#d6d6d6" stroke-width="0.75" />
<path d="M 84.0 102.0 L 100.0 102.0 Z" fill="none" stroke="#d6d6d6" stroke-width="0.75" />
<path d="M 87.52 67.232 C 87.52 68.456 88.715195 69.68 89.895996 69.68 C 93.495995 69.68 97.09599 67.232 97.09599 64.856 C 97.09599 63.6752 95.871994 62.48 94.71999 62.48 C 91.119995 62.48 87.52 64.856 87.52 67.232 Z" fill="#404040" stroke="none" stroke-width="1.0" />
<path d="M 86.0 167.25 L 94.0 167.25 L 94.0 174.75 L 86.0 174.75 L 86.0 167.25 Z" fill="#ffffff" stroke="none" stroke-width="1.0" />
<text x='86.0' y='174.75' font-family="Default" font-size="10.0" fill="#404040" >5</text>
<path d="M 87.52 75.232 C 87.52 76.456 88.715195 77.68 89.895996 77.68 C 93.495995 77.68 97.09599 75.232 97.09599 72.856 C 97.09599 71.6752 95.871994 70.48 94.71999 70.48 C 91.119995 70.48 87.52 72.856 87.52 75.232 Z" fill="#404040" stroke="none" stroke-width="1.0" />
<path d="M 86.0 177.25 L 94.0 177.25 L 94.0 184.75 L 86.0 184.75 L 86.0 177.25 Z" fill="#ffffff" stroke="none" stroke-width="1.0" />
<text x='86.0' y='184.75' font-family="Default" font-size="10.0" fill="#404040" >7</text>
<path d="M 87.52 87.232 C 87.52 88.456 88.715195 89.68 89.895996 89.68 C 93.495995 89.68 97.09599 87.232 97.09599 84.856 C 97.09599 83.6752 95.871994 82.48 94.71999 82.48 C 91.119995 82.48 87.52 84.856 87.52 87.232 Z" fill="#404040" stroke="none" stroke-width="1.0" />
<path d="M 86.0 187.25 L 94.0 187.25 L 94.0 194.75 L 86.0 194.75 L 86.0 187.25 Z" fill="#ffffff" stroke="none" stroke-width="1.0" />
<text x='86.0' y='194.75' font-family="Default" font-size="10.0" fill="#404040" >7</text>
<path d="M 87.52 103.232 C 87.52 104.456 88.715195 105.68 89.895996 105.68 C 93.495995 105.68 97.09599 103.232 97.09599 100.856 C 97.09599 99.6752 95.871994 98.48 94.71999 98.48 C 91.119995 98.48 87.52 100.856 87.52 103.232 Z" fill="#404040" stroke="none" stroke-width="1.0" />
<path d="M 86.0 197.25 L 94.0 197.25 L 94.0 204.75 L 86.0 204.75 L 86.0 197.25 Z" fill="#ffffff" stroke="none" stroke-width="1.0" />
<text x='86.0' y='204.75' font-family="Default" font-size="10.0" fill="#404040" >5</text>
<path d="M 96.18 101.04 L 97.18 101.04 L 97.18 34.0 L 96.18 34.0 M 96.18 101.04 Z" fill="#404040" stroke="none" stroke-width="0.75" /></g>
<text x='216.0' y='72.0' font-family="Default" font-size="10.0" fill="#ff0000" >2</text>
<path d="M 215.0 74.0 L 215.0 106.0 Z" fill="#000000" stroke="#000000" stroke-width="0.75" />
<path d="M 339.0 74.0 L 339.0 106.0 Z" fill="#000000" stroke="#000000" stroke-width="0.75" />
<path d="M 215.0 171.0 L 215.0 221.0 Z" fill="#000000" stroke="#000000" stroke-width="0.75" />
<path d="M 339.0 171.0 L 339.0 221.0 Z" fill="#000000" stroke="#000000" stroke-width="0.75" /><g transform="translate(339.0,20.0)">
<path d="M 0.0 0.0 L 143.0 0.0 L 143.0 222.0 L 0.0 222.0 L 0.0 0.0 Z" fill="#ffffff" stroke="none" stroke-width="1.0" />
<path d="M 0.0 54.0 L 143.0 54.0 M 0.0 62.0 L 143.0 62.0 M 0.0 70.0 L 143.0 70.0 M 0.0 78.0 L 143.0 78.0 M 0.0 86.0 L 143.0 86.0 Z" fill="none" stroke="#d6d6d6" stroke-width="0.75" />
<path d="M 0.0 151.0 L 143.0 151.0 M 0.0 161.0 L 143.0 161.0 M 0.0 171.0 L 143.0 171.0 M 0.0 181.0 L 143.0 181.0 M 0.0 191.0 L 143.0 191.0 M 0.0 201.0 L 143.0 201.0 Z" fill="none" stroke="#d6d6d6" stroke-width="0.75" />
<path d="M 21.0 94.0 L 37.0 94.0 Z" fill="none" stroke="#d6d6d6" stroke-width="0.75" />
<path d="M 24.52 95.232 C 24.52 96.456 25.7152 97.68 26.896 97.68 C 30.496 97.68 34.096 95.232 34.096 92.856 C 34.096 91.6752 32.872 90.48 31.720001 90.48 C 28.12 90.48 24.52 92.856 24.52 95.232 Z" fill="#404040" stroke="none" stroke-width="1.0" />
<path d="M 23.0 187.25 L 31.0 187.25 L 31.0 194.75 L 23.0 194.75 L 23.0 187.25 Z" fill="#ffffff" stroke="none" stroke-width="1.0" />
<text x='23.0' y='194.75' font-family="Default" font-size="10.0" fill="#404040" >3</text>
<path d="M 24.52 79.232 C 24.52 80.456 25.7152 81.68 26.896 81.68 C 30.496 81.68 34.096 79.232 34.096 76.856 C 34.096 75.6752 32.872 74.48 31.720001 74.48 C 28.12 74.48 24.52 76.856 24.52 79.232 Z" fill="#404040" stroke="none" stroke-width="1.0" />
<path d="M 23.0 177.25 L 31.0 177.25 L 31.0 184.75 L 23.0 184.75 L 23.0 177.25 Z" fill="#ffffff" stroke="none" stroke-width="1.0" />
<text x='23.0' y='184.75' font-family="Default" font-size="10.0" fill="#404040" >5</text>
<path d="M 24.52 67.232 C 24.52 68.456 25.7152 69.68 26.896 69.68 C 30.496 69.68 34.096 67.232 34.096 64.856 C 34.096 63.6752 32.872 62.48 31.720001 62.48 C 28.12 62.48 24.52 64.856 24.52 67.232 Z" fill="#404040" stroke="none" stroke-width="1.0" />
<path d="M 23.0 167.25 L 31.0 167.25 L 31.0 174.75 L 23.0 174.75 L 23.0 167.25 Z" fill="#ffffff" stroke="none" stroke-width="1.0" />
<text x='23.0' y='174.75' font-family="Default" font-size="10.0" fill="#404040" >5</text>
<path d="M 24.52 59.232 C 24.52 60.456 25.7152 61.68 26.896 61.68 C 30.496 61.68 34.096 59.232 34.096 56.856 C 34.096 55.6752 32.872 54.48 31.720001 54.48 C 28.12 54.48 24.52 56.856 24.52 59.232 Z" fill="#404040" stroke="none" stroke-width="1.0" />
<path d="M 23.0 157.25 L 31.0 157.25 L 31.0 164.75 L 23.0 164.75 L 23.0 157.25 Z" fill="#ffffff" stroke="none" stroke-width="1.0" />
<text x='23.0' y='164.75' font-family="Default" font-size="10.0" fill="#404040" >5</text>
<path d="M 33.18 93.04 L 34.18 93.04 L 34.18 26.0 L 33.18 26.0 M 33.18 93.04 Z" fill="#404040" stroke="none" stroke-width="0.75" />
<path d="M 42.0 94.0 L 58.0 94.0 Z" fill="none" stroke="#d6d6d6" stroke-width="0.75" />
<path d="M 45.52 95.232 C 45.52 96.456 46.715202 97.68 47.896 97.68 C 51.496002 97.68 55.096 95.232 55.096 92.856 C 55.096 91.6752 53.872 90.48 52.72 90.48 C 49.12 90.48 45.52 92.856 45.52 95.232 Z" fill="#404040" stroke="none" stroke-width="1.0" />
<path d="M 44.0 187.25 L 52.0 187.25 L 52.0 194.75 L 44.0 194.75 L 44.0 187.25 Z" fill="#ffffff" stroke="none" stroke-width="1.0" />
<text x='44.0' y='194.75' font-family="Default" font-size="10.0" fill="#404040" >3</text>
<path d="M 45.52 79.232 C 45.52 80.456 46.715202 81.68 47.896 81.68 C 51.496002 81.68 55.096 79.232 55.096 76.856 C 55.096 75.6752 53.872 74.48 52.72 74.48 C 49.12 74.48 45.52 76.856 45.52 79.232 Z" fill="#404040" stroke="none" stroke-width="1.0" />
<path d="M 44.0 177.25 L 52.0 177.25 L 52.0 184.75 L 44.0 184.75 L 44.0 177.25 Z" fill="#ffffff" stroke="none" stroke-width="1.0" />
<text x='44.0' y='184.75' font-family="Default" font-size="10.0" fill="#404040" >5</text>
<path d="M 45.52 67.232 C 45.52 68.456 46.715202 69.68 47.896 69.68 C 51.496002 69.68 55.096 67.232 55.096 64.856 C 55.096 63.6752 53.872 62.48 52.72 62.48 C 49.12 62.48 45.52 64.856 45.52 67.232 Z" fill="#404040" stroke="none" stroke-width="1.0" />
<path d="M 44.0 167.25 L 52.0 167.25 L 52.0 174.75 L 44.0 174.75 L 44.0 167.25 Z" fill="#ffffff" stroke="none" stroke-width="1.0" />
<text x='44.0' y='174.75' font-family="Default" font-size="10.0" fill="#404040" >5</text>
<path d="M 45.52 59.232 C 45.52 60.456 46.715202 61.68 47.896 61.68 C 51.496002 61.68 55.096 59.232 55.096 56.856 C 55.096 55.6752 53.872 54.48 52.72 54.48 C 49.12 54.48 45.52 56.856 45.52 59.232 Z" fill="#404040" stroke="none" stroke-width="1.0" />
<path d="M 44.0 157.25 L 52.0 157.25 L 52.0 164.75 L 44.0 164.75 L 44.0 157.25 Z" fill="#ffffff" stroke="none" stroke-width="1.0" />
<text x='44.0' y='164.75' font-family="Default" font-size="10.0" fill="#404040" >5</text>
<path d="M 54.18 93.04 L 55.18 93.04 L 55.18 26.0 L 54.18 26.0 M 54.18 93.04 Z" fill="#404040" stroke="none" stroke-width="0.75" />
<path d="M 63.0 94.0 L 79.0 94.0 Z" fill="none" stroke="#d6d6d6" stroke-width="0.75" />
<path d="M 63.0 102.0 L 79.0 102.0 Z" fill="none" stroke="#d6d6d6" stroke-width="0.75" />
<path d="M 66.52 107.232 C 66.52 108.456 67.715195 109.68 68.895996 109.68 C 72.495995 109.68 76.09599 107.232 76.09599 104.856 C 76.09599 103.6752 74.871994 102.48 73.71999 102.48 C 70.119995 102.48 66.52 104.856 66.52 107.232 Z" fill="#404040" stroke="none" stroke-width="1.0" />
<path d="M 65.0 197.25 L 73.0 197.25 L 73.0 204.75 L 65.0 204.75 L 65.0 197.25 Z" fill="#ffffff" stroke="none" stroke-width="1.0" />
<text x='65.0' y='204.75' font-family="Default" font-size="10.0" fill="#404040" >3</text>
<path d="M 66.52 91.232 C 66.52 92.456 67.715195 93.68 68.895996 93.68 C 72.495995 93.68 76.09599 91.232 76.09599 88.856 C 76.09599 87.6752 74.871994 86.48 73.71999 86.48 C 70.119995 86.48 66.52 88.856 66.52 91.232 Z" fill="#404040" stroke="none" stroke-width="1.0" />
<path d="M 65.0 187.25 L 73.0 187.25 L 73.0 194.75 L 65.0 194.75 L 65.0 187.25 Z" fill="#ffffff" stroke="none" stroke-width="1.0" />
<text x='65.0' y='194.75' font-family="Default" font-size="10.0" fill="#404040" >5</text>
<path d="M 66.52 79.232 C 66.52 80.456 67.715195 81.68 68.895996 81.68 C 72.495995 81.68 76.09599 79.232 76.09599 76.856 C 76.09599 75.6752 74.871994 74.48 73.71999 74.48 C 70.119995 74.48 66.52 76.856 66.52 79.232 Z" fill="#404040" stroke="none" stroke-width="1.0" />
<path d="M 65.0 177.25 L 73.0 177.25 L 73.0 184.75 L 65.0 184.75 L 65.0 177.25 Z" fill="#ffffff" stroke="none" stroke-width="1.0" />
<text x='65.0' y='184.75' font-family="Default" font-size="10.0" fill="#404040" >5</text>
<path d="M 66.52 71.232 C 66.52 72.456 67.715195 73.68 68.895996 73.68 C 72.495995 73.68 76.09599 71.232 76.09599 68.856 C 76.09599 67.6752 74.871994 66.48 73.71999 66.48 C 70.119995 66.48 66.52 68.856 66.52 71.232 Z" fill="#404040" stroke="none" stroke-width="1.0" />
<path d="M 65.0 167.25 L 73.0 167.25 L 73.0 174.75 L 65.0 174.75 L 65.0 167.25 Z" fill="#ffffff" stroke="none" stroke-width="1.0" />
<text x='65.0' y='174.75' font-family="Default" font-size="10.0" fill="#404040" >4</text>
<path d="M 75.18 105.04 L 76.18 105.04 L 76.18 38.0 L 75.18 38.0 M 75.18 105.04 Z" fill="#404040" stroke="none" stroke-width="0.75" />
<path d="M 84.0 94.0 L 100.0 94.0 Z" fill="none" stroke="#d6d6d6" stroke-width="0.75" />
<path d="M 84.0 102.0 L 100.0 102.0 Z" fill="none" stroke="#d6d6d6" stroke-width="0.75" />
<path d="M 87.52 107.232 C 87.52 108.456 88.715195 109.68 89.895996 109.68 C 93.495995 109.68 97.09599 107.232 97.09599 104.856 C 97.09599 103.6752 95.871994 102.48 94.71999 102.48 C 91.119995 102.48 87.52 104.856 87.52 107.232 Z" fill="#404040" stroke="none" stroke-width="1.0" />
<path d="M 86.0 197.25 L 94.0 197.25 L 94.0 204.75 L 86.0 204.75 L 86.0 197.25 Z" fill="#ffffff" stroke="none" stroke-width="1.0" />
<text x='86.0' y='204.75' font-family="Default" font-size="10.0" fill="#404040" >3</text>
<path d="M 87.52 91.232 C 87.52 92.456 88.715195 93.68 89.895996 93.68 C 93.495995 93.68 97.09599 91.232 97.09599 88.856 C 97.09599 87.6752 95.871994 86.48 94.71999 86.48 C 91.119995 86.48 87.52 88.856 87.52 91.232 Z" fill="#404040" stroke="none" stroke-width="1.0" />
<path d="M 86.0 187.25 L 94.0 187.25 L 94.0 194.75 L 86.0 194.75 L 86.0 187.25 Z" fill="#ffffff" stroke="none" stroke-width="1.0" />
<text x='86.0' y='194.75' font-family="Default" font-size="10.0" fill="#404040" >5</text>
<path d="M 87.52 79.232 C 87.52 80.456 88.715195 81.68 89.895996 81.68 C 93.495995 81.68 97.09599 79.232 97.09599 76.856 C 97.09599 75.6752 95.871994 74.48 94.71999 74.48 C 91.119995 74.48 87.52 76.856 87.52 79.232 Z" fill="#404040" stroke="none" stroke-width="1.0" />
<path d="M 86.0 177.25 L 94.0 177.25 L 94.0 184.75 L 86.0 184.75 L 86.0 177.25 Z" fill="#ffffff" stroke="none" stroke-width="1.0" />
<text x='86.0' y='184.75' font-family="Default" font-size="10.0" fill="#404040" >5</text>
<path d="M 87.52 71.232 C 87.52 72.456 88.715195 73.68 89.895996 73.68 C 93.495995 73.68 97.09599 71.232 97.09599 68.856 C 97.09599 67.6752 95.871994 66.48 94.71999 66.48 C 91.119995 66.48 87.52 68.856 87.52 71.232 Z" fill="#404040" stroke="none" stroke-width="1.0" />
<path d="M 86.0 167.25 L 94.0 167.25 L 94.0 174.75 L 86.0 174.75 L 86.0 167.25 Z" fill="#ffffff" stroke="none" stroke-width="1.0" />
<text x='86.0' y='174.75' font-family="Default" font-size="10.0" fill="#404040" >4</text>
<path d="M 96.18 105.04 L 97.18 105.04 L 97.18 32.0 L 96.18 32.0 M 96.18 105.04 Z" fill="#404040" stroke="none" stroke-width="0.75" />
<path d="M 96.18 30.0 L 96.18 34.0 L 117.18 24.0 L 117.18 20.0 L 96.18 30.0 Z" fill="#404040" stroke="none" stroke-width="0.75" />
<path d="M 107.52 91.232 C 107.52 92.456 108.715195 93.68 109.895996 93.68 C 113.495995 93.68 117.09599 91.232 117.09599 88.856 C 117.09599 87.6752 115.871994 86.48 114.71999 86.48 C 111.119995 86.48 107.52 88.856 107.52 91.232 Z" fill="#404040" stroke="none" stroke-width="1.0" />
<path d="M 106.0 187.25 L 114.0 187.25 L 114.0 194.75 L 106.0 194.75 L 106.0 187.25 Z" fill="#ffffff" stroke="none" stroke-width="1.0" />
<text x='106.0' y='194.75' font-family="Default" font-size="10.0" fill="#404040" >5</text>
<path d="M 107.52 75.232 C 107.52 76.456 108.715195 77.68 109.895996 77.68 C 113.495995 77.68 117.09599 75.232 117.09599 72.856 C 117.09599 71.6752 115.871994 70.48 114.71999 70.48 C 111.119995 70.48 107.52 72.856 107.52 75.232 Z" fill="#404040" stroke="none" stroke-width="1.0" />
<path d="M 106.0 177.25 L 114.0 177.25 L 114.0 184.75 L 106.0 184.75 L 106.0 177.25 Z" fill="#ffffff" stroke="none" stroke-width="1.0" />
<text x='106.0' y='184.75' font-family="Default" font-size="10.0" fill="#404040" >7</text>
<path d="M 107.52 63.232 C 107.52 64.456 108.715195 65.68 109.895996 65.68 C 113.495995 65.68 117.09599 63.232 117.09599 60.856 C 117.09599 59.6752 115.871994 58.48 114.71999 58.48 C 111.119995 58.48 107.52 60.856 107.52 63.232 Z" fill="#404040" stroke="none" stroke-width="1.0" />
<path d="M 106.0 167.25 L 114.0 167.25 L 114.0 174.75 L 106.0 174.75 L 106.0 167.25 Z" fill="#ffffff" stroke="none" stroke-width="1.0" />
<text x='106.0' y='174.75' font-family="Default" font-size="10.0" fill="#404040" >7</text>
<path d="M 107.52 55.232 C 107.52 56.456 108.715195 57.68 109.895996 57.68 C 113.495995 57.68 117.09599 55.232 117.09599 52.856 C 117.09599 51.6752 115.871994 50.48 114.71999 50.48 C 111.119995 50.48 107.52 52.856 107.52 55.232 Z" fill="#404040" stroke="none" stroke-width="1.0" />
<path d="M 106.0 157.25 L 114.0 157.25 L 114.0 164.75 L 106.0 164.75 L 106.0 157.25 Z" fill="#ffffff" stroke="none" stroke-width="1.0" />
<text x='106.0' y='164.75' font-family="Default" font-size="10.0" fill="#404040" >6</text>
<path d="M 116.18 89.04 L 117.18 89.04 L 117.18 22.0 L 116.18 22.0 M 116.18 89.04 Z" fill="#404040" stroke="none" stroke-width="0.75" /></g>
<text x='340.0' y='72.0' font-family="Default" font-size="10.0" fill="#ff0000" >3</text>
<path d="M 339.0 74.0 L 339.0 106.0 Z" fill="#000000" stroke="#000000" stroke-width="0.75" />
<path d="M 482.0 74.0 L 482.0 106.0 Z" fill="#000000" stroke="#000000" stroke-width="0.75" />
<path d="M 339.0 171.0 L 339.0 221.0 Z" fill="#000000" stroke="#000000" stroke-width="0.75" />
<path d="M 482.0 171.0 L 482.0 221.0 Z" fill="#000000" stroke="#000000" stroke-width="0.75" /><g transform="translate(482.0,20.0)">
<path d="M 0.0 0.0 L 70.0 0.0 L 70.0 222.0 L 0.0 222.0 L 0.0 0.0 Z" fill="#ffffff" stroke="none" stroke-width="1.0" />
<path d="M 0.0 54.0 L 70.0 54.0 M 0.0 62.0 L 70.0 62.0 M 0.0 70.0 L 70.0 70.0 M 0.0 78.0 L 70.0 78.0 M 0.0 86.0 L 70.0 86.0 Z" fill="none" stroke="#d6d6d6" stroke-width="0.75" />
<path d="M 0.0 151.0 L 70.0 151.0 M 0.0 161.0 L 70.0 161.0 M 0.0 171.0 L 70.0 171.0 M 0.0 181.0 L 70.0 181.0 M 0.0 191.0 L 70.0 191.0 M 0.0 201.0 L 70.0 201.0 Z" fill="none" stroke="#d6d6d6" stroke-width="0.75" />
<path d="M 5.0 90.0 C 5.0 86.0 22.0 86.0 22.0 90.0 C 22.0 88.0 5.0 88.0 5.0 90.0 Z" fill="#404040" stroke="none" stroke-width="0.75" />
<path d="M 25.0 91.024 C 25.0 92.112 26.0624 93.200005 27.112 93.200005 C 30.312 93.200005 33.512 91.024 33.512 88.912 C 33.512 87.862404 32.424 86.8 31.4 86.8 C 28.2 86.8 25.0 88.912 25.0 91.024 Z" fill="none" stroke="#404040" stroke-width="1.0" />
<path d="M 5.0 74.0 C 5.0 70.0 22.0 70.0 22.0 74.0 C 22.0 72.0 5.0 72.0 5.0 74.0 Z" fill="#404040" stroke="none" stroke-width="1.0" />
<path d="M 25.0 75.024 C 25.0 76.112 26.0624 77.200005 27.112 77.200005 C 30.312 77.200005 33.512 75.024 33.512 72.912 C 33.512 71.862404 32.424 70.8 31.4 70.8 C 28.2 70.8 25.0 72.912 25.0 75.024 Z" fill="none" stroke="#404040" stroke-width="1.0" />
<path d="M 5.0 62.0 C 5.0 58.0 22.0 58.0 22.0 62.0 C 22.0 60.0 5.0 60.0 5.0 62.0 Z" fill="#404040" stroke="none" stroke-width="1.0" />
<path d="M 25.0 63.024 C 25.0 64.112 26.0624 65.2 27.112 65.2 C 30.312 65.2 33.512 63.024 33.512 60.912 C 33.512 59.8624 32.424 58.8 31.4 58.8 C 28.2 58.8 25.0 60.912 25.0 63.024 Z" fill="none" stroke="#404040" stroke-width="1.0" />
<path d="M 5.0 54.0 C 5.0 50.0 22.0 50.0 22.0 54.0 C 22.0 52.0 5.0 52.0 5.0 54.0 Z" fill="#404040" stroke="none" stroke-width="1.0" />
<path d="M 25.0 55.024 C 25.0 56.112 26.0624 57.2 27.112 57.2 C 30.312 57.2 33.512 55.024 33.512 52.912 C 33.512 51.8624 32.424 50.8 31.4 50.8 C 28.2 50.8 25.0 52.912 25.0 55.024 Z" fill="none" stroke="#404040" stroke-width="1.0" /></g>
<text x='483.0' y='72.0' font-family="Default" font-size="10.0" fill="#ff0000" >4</text>
<path d="M 482.0 74.0 L 482.0 106.0 Z" fill="#000000" stroke="#000000" stroke-width="0.75" />
<path d="M 546.0 74.0 L 547.0 74.0 L 547.0 106.0 L 546.0 106.0 L 546.0 74.0 Z" fill="#000000" stroke="#000000" stroke-width="0.75" />
<path d="M 549.0 74.0 L 552.0 74.0 L 552.0 106.0 L 549.0 106.0 L 549.0 74.0 Z" fill="#000000" stroke="#000000" stroke-width="0.75" />
<path d="M 482.0 171.0 L 482.0 221.0 Z" fill="#000000" stroke="#000000" stroke-width="0.75" />
<path d="M 546.0 171.0 L 547.0 171.0 L 547.0 221.0 L 546.0 221.0 L 546.0 171.0 Z" fill="#000000" stroke="#000000" stroke-width="0.75" />
<path d="M 549.0 171.0 L 552.0 171.0 L 552.0 221.0 L 549.0 221.0 L 549.0 171.0 Z" fill="#000000" stroke="#000000" stroke-width="0.75" />
<path d="M 554.0 74.0 L 930.0 74.0 M 554.0 82.0 L 930.0 82.0 M 554.0 90.0 L 930.0 90.0 M 554.0 98.0 L 930.0 98.0 M 554.0 106.0 L 930.0 106.0 Z" fill="none" stroke="#d6d6d6" stroke-width="0.75" />
<path d="M 554.0 171.0 L 930.0 171.0 M 554.0 181.0 L 930.0 181.0 M 554.0 191.0 L 930.0 191.0 M 554.0 201.0 L 930.0 201.0 M 554.0 211.0 L 930.0 211.0 M 554.0 221.0 L 930.0 221.0 Z" fill="none" stroke="#d6d6d6" stroke-width="0.75" />
</svg>