<svg width="960.0px" height="482.0px" xmlns="http://www.w3.org/2000/svg" version="1.1">

<path d="M 0.0 0.0 L 960.0 0.0 L 960.0 482.0 L 0.0 482.0 L 0.0 0.0 Z" fill="#ffffff" stroke="none" stroke-width="1.0" /><g transform="translate(20.0,20.0)">
<path d="M 0.0 0.0 L 214.0 0.0 L 214.0 218.0 L 0.0 218.0 L 0.0 0.0 Z" fill="#ffffff" stroke="none" stroke-width="1.0" />
<path d="M 0.0 50.0 L 214.0 50.0 M 0.0 58.0 L 214.0 58.0 M 0.0 66.0 L 214.0 66.0 M 0.0 74.0 L 214.0 74.0 M 0.0 82.0 L 214.0 82.0 Z" fill="none" stroke="#d6d6d6" stroke-width="0.75" />
<path d="M 0.0 147.0 L 214.0 147.0 M 0.0 157.0 L 214.0 157.0 M 0.0 167.0 L 214.0 167.0 M 0.0 177.0 L 214.0 177.0 M 0.0 187.0 L 214.0 187.0 M 0.0 197.0 L 214.0 197.0 Z" fill="none" stroke="#d6d6d6" stroke-width="0.75" />
<path d="M 67.77043 50.40856 C 68.324905 50.40856 68.821014 50.350193 69.25876 50.20428 C 69.6965 50.058365 69.959145 50.0 70.04669 50.0 C 70.192604 50.0 70.28015 50.029182 70.36771 50.11673 C 70.42607 50.1751 70.45525 50.233463 70.484436 50.32101 C 70.484436 50.37938 70.45525 50.437744 70.42607 50.49611 L 61.933853 60.35992 L 66.924126 60.35992 L 66.924126 56.449417 C 66.924126 56.18677 67.01167 55.95331 67.1284 55.807392 C 67.3035 55.661476 67.4786 55.515564 67.71206 55.4572 C 67.97471 55.340466 68.26653 55.07782 68.64591 54.640076 C 68.937744 54.319065 69.317116 53.706226 69.75486 52.801556 C 69.81323 52.684826 69.90078 52.626457 70.01751 52.626457 C 70.28015 52.626457 70.39688 52.772373 70.42607 53.03502 L 70.42607 60.35992 L 72.55642 60.35992 C 72.84825 60.35992 72.99416 60.505836 73.023346 60.797665 C 73.023346 61.089493 72.877426 61.235405 72.55642 61.235405 L 70.42607 61.235405 L 70.42607 61.468872 C 70.42607 62.28599 70.63035 62.928013 71.00973 63.45331 C 71.44747 63.9786 71.97276 64.270424 72.5856 64.270424 C 72.81906 64.270424 72.9358 64.38716 72.9358 64.62062 C 72.9358 64.85408 72.81906 64.97082 72.5856 64.97082 C 72.14786 64.97082 71.50584 64.91245 70.601166 64.795715 C 69.696495 64.6498 69.054474 64.59144 68.64591 64.59144 C 68.23735 64.59144 67.56615 64.6498 66.69066 64.795715 C 65.81517 64.91245 65.17315 64.97082 64.735405 64.97082 C 64.501945 64.97082 64.385216 64.85408 64.385216 64.62062 C 64.385216 64.38716 64.501945 64.270424 64.735405 64.270424 C 65.34825 64.270424 65.87354 63.9786 66.31128 63.45331 C 66.71984 62.89883 66.924126 62.25681 66.924126 61.468872 L 66.924126 61.235405 L 61.933853 61.235405 C 61.61284 61.235405 61.379375 61.17704 61.233463 61.001945 C 61.087547 60.885212 61.0 60.710114 61.0 60.53502 C 61.0 60.476654 61.145912 60.272373 61.437744 59.92218 C 61.729572 59.571983 62.079765 59.105057 62.488327 58.492218 C 62.488327 58.492218 63.305447 57.20817 63.71401 56.449417 C 63.71401 56.449417 64.47276 54.78599 64.735405 53.706226 C 65.02724 52.65564 65.17315 51.575874 65.17315 50.49611 C 65.17315 50.175095 65.31907 50.029182 65.58171 50.029182 C 65.61089 50.029182 65.756805 50.058365 65.96109 50.11673 C 66.16537 50.175095 66.4572 50.233463 66.77821 50.32101 C 67.1284 50.379375 67.44942 50.408558 67.77043 50.408558 Z" fill="#000000" stroke="none" stroke-width="0.75" />
<path d="M 67.77043 67.40856 C 68.324905 67.40856 68.821014 67.3502 69.25876 67.20428 C 69.6965 67.058365 69.959145 67.0 70.04669 67.0 C 70.192604 67.0 70.28015 67.02918 70.36771 67.11673 C 70.42607 67.175095 70.45525 67.23346 70.484436 67.321014 C 70.484436 67.37938 70.45525 67.437744 70.42607 67.49611 L 61.933853 77.359924 L 66.924126 77.359924 L 66.924126 73.44942 C 66.924126 73.18677 67.01167 72.95331 67.1284 72.807396 C 67.3035 72.661476 67.4786 72.515564 67.71206 72.4572 C 67.97471 72.34047 68.26653 72.07782 68.64591 71.640076 C 68.937744 71.31907 69.317116 70.70622 69.75486 69.80156 C 69.81323 69.68482 69.90078 69.62646 70.01751 69.62646 C 70.28015 69.62646 70.39688 69.77237 70.42607 70.03502 L 70.42607 77.359924 L 72.55642 77.359924 C 72.84825 77.359924 72.99416 77.50584 73.023346 77.79767 C 73.023346 78.08949 72.877426 78.235405 72.55642 78.235405 L 70.42607 78.235405 L 70.42607 78.46887 C 70.42607 79.28599 70.63035 79.92802 71.00973 80.45331 C 71.44747 80.9786 71.97276 81.270424 72.5856 81.270424 C 72.81906 81.270424 72.9358 81.38716 72.9358 81.62062 C 72.9358 81.85408 72.81906 81.97082 72.5856 81.97082 C 72.14786 81.97082 71.50584 81.91245 70.601166 81.795715 C 69.696495 81.6498 69.054474 81.59144 68.64591 81.59144 C 68.23735 81.59144 67.56615 81.6498 66.69066 81.795715 C 65.81517 81.91245 65.17315 81.97082 64.735405 81.97082 C 64.501945 81.97082 64.385216 81.85408 64.385216 81.62062 C 64.385216 81.38716 64.501945 81.270424 64.735405 81.270424 C 65.34825 81.270424 65.87354 80.9786 66.31128 80.45331 C 66.71984 79.898834 66.924126 79.256805 66.924126 78.46887 L 66.924126 78.235405 L 61.933853 78.235405 C 61.61284 78.235405 61.379375 78.17704 61.233463 78.001945 C 61.087547 77.88521 61.0 77.71011 61.0 77.53502 C 61.0 77.476654 61.145912 77.27237 61.437744 76.92218 C 61.729572 76.57198 62.079765 76.10506 62.488327 75.49222 C 62.488327 75.49222 63.305447 74.20817 63.71401 73.44942 C 63.71401 73.44942 64.47276 71.78599 64.735405 70.70622 C 65.02724 69.65564 65.17315 68.575874 65.17315 67.49611 C 65.17315 67.175095 65.31907 67.02918 65.58171 67.02918 C 65.61089 67.02918 65.756805 67.058365 65.96109 67.11673 C 66.16537 67.175095 66.4572 67.23346 66.77821 67.321014 C 67.1284 67.37938 67.44942 67.40856 67.77043 67.40856 Z" fill="#000000" stroke="none" stroke-width="0.75" />
<path d="M 22.764973 42.115383 C 22.921913 42.03691 22.948072 42.03691 23.105015 42.03691 C 23.314268 42.063072 23.445057 42.14154 23.73278 42.455425 C 25.616081 44.39104 27.185501 47.843758 27.577856 50.773342 C 27.630169 51.244167 27.630169 52.34276 27.577856 52.839737 C 27.29013 55.533905 26.165377 57.99266 23.57584 61.52385 L 23.209644 62.020832 L 23.418898 62.62244 C 23.915882 64.06107 24.491331 65.81359 24.85753 67.09528 C 24.96216 67.409164 25.04063 67.67074 25.04063 67.6969 C 25.04063 67.6969 25.223728 67.6969 25.406826 67.72305 C 26.322319 67.80152 27.10703 68.01078 27.917896 68.40313 C 28.57182 68.74317 29.147274 69.13552 29.696568 69.65866 C 30.29818 70.26028 30.690535 70.80957 31.05673 71.56812 C 31.606026 72.66672 31.84144 73.81762 31.81528 74.96853 C 31.789125 75.70093 31.684496 76.25022 31.449085 76.930305 C 31.1352 77.92426 30.559748 78.83976 29.77504 79.624466 C 29.094955 80.30455 28.46719 80.72306 27.630169 81.0631 L 27.316284 81.193886 L 27.316284 82.13554 C 27.316284 83.46954 27.237814 85.038956 27.133184 85.980606 C 27.02856 86.94841 26.766989 87.86391 26.348476 88.700935 C 25.249886 90.92427 23.314268 92.10133 21.143244 91.89209 C 18.684484 91.65667 16.69656 89.98262 16.199577 87.73312 C 15.964161 86.713 16.068794 85.9283 16.487303 85.27437 C 17.036598 84.411194 18.082878 83.914215 19.102997 83.94037 C 20.30622 83.99268 21.274027 84.934326 21.457123 86.24218 C 21.58791 87.28845 21.143244 88.25626 20.30622 88.7794 C 19.835394 89.06713 19.181469 89.197914 18.684484 89.119446 C 18.606018 89.119446 18.527544 89.093285 18.527544 89.119446 L 18.84143 89.43333 C 19.416882 90.00878 20.070807 90.374985 20.907831 90.558075 C 21.090927 90.584236 21.247868 90.584236 21.666382 90.584236 C 22.137207 90.584236 22.189518 90.584236 22.451088 90.53192 C 22.81729 90.42729 23.131172 90.29651 23.418898 90.139565 C 24.726748 89.35486 25.616081 87.73312 25.851494 85.77136 C 25.929964 85.038956 26.008434 83.46954 26.008434 82.318634 C 26.008434 81.56009 26.008434 81.50777 25.956123 81.50777 C 25.851494 81.56009 25.302197 81.6124 24.909843 81.63855 C 24.41286 81.66471 23.57584 81.66471 23.183485 81.6124 C 21.640223 81.4293 20.227747 80.90616 18.998373 80.04298 C 17.167385 78.76129 15.859535 76.85182 15.31024 74.65465 C 14.604002 71.908165 15.100986 68.978584 16.827343 65.89206 C 17.55974 64.610374 18.265978 63.564095 20.018494 61.236122 L 21.012455 59.902122 L 20.829355 59.405136 C 19.573822 56.083202 19.15531 54.173744 19.024527 51.401108 C 18.972214 50.197887 19.024527 49.17776 19.181469 48.34074 C 19.573822 46.14356 20.593945 44.181786 22.189518 42.612366 C 22.503403 42.298485 22.63419 42.193855 22.764973 42.115383 M 24.831371 46.588226 C 24.569805 46.14356 24.622118 46.169712 24.386707 46.32666 C 23.65431 46.771324 22.89576 47.451405 22.34646 48.131485 C 21.221714 49.57012 20.593945 51.244167 20.515476 53.048996 C 20.489319 53.78139 20.56779 54.252216 20.907831 55.37696 C 21.169397 56.292458 21.901793 58.5158 21.95411 58.56811 C 21.95411 58.59427 22.111048 58.411175 22.26799 58.17576 C 24.072823 55.58622 25.04063 53.467506 25.406826 51.348793 C 25.485298 50.799496 25.53761 50.354828 25.563768 49.727062 C 25.589928 48.28843 25.432985 47.58219 24.831371 46.588226 M 22.581877 64.191864 C 22.424934 63.694878 22.26799 63.302525 22.26799 63.302525 C 22.241835 63.302525 21.143244 64.76731 20.672415 65.421234 C 19.129156 67.59227 18.187506 69.34478 17.638206 71.07114 C 17.27201 72.14357 17.115068 73.13754 17.062756 74.23613 C 17.062756 74.837746 17.088915 75.20394 17.193539 75.648605 C 17.795153 77.97658 20.280064 79.88603 23.209644 80.30455 C 23.65431 80.35686 24.909843 80.35686 25.459139 80.30455 C 26.008434 80.226074 25.956123 80.252235 25.929964 80.01682 C 25.773026 77.531906 25.563768 76.0148 25.14526 73.765305 C 24.988314 72.823654 24.543648 70.835724 24.517488 70.80957 C 24.491331 70.78342 23.99435 70.835724 23.706627 70.9142 C 23.340427 70.99267 23.105015 71.07114 22.79113 71.22808 C 21.090927 72.09126 20.593945 74.05304 21.666382 75.648605 C 21.849482 75.91018 22.320305 76.381004 22.608032 76.5641 C 22.71266 76.64258 22.948072 76.799515 23.105015 76.87799 C 23.340427 77.00877 23.392738 77.06108 23.445057 77.16571 C 23.65431 77.50575 23.523525 77.92426 23.131172 78.10736 C 22.921913 78.21199 22.764973 78.18584 22.34646 77.97658 C 21.326344 77.4796 20.56779 76.799515 20.018494 75.962494 C 18.998373 74.393074 18.867586 72.37899 19.70461 70.67879 C 20.437006 69.214 21.744852 68.22003 23.418898 67.853836 C 23.57584 67.80152 23.706627 67.77537 23.706627 67.77537 C 23.73278 67.74921 23.000385 65.36893 22.581877 64.191864 M 26.139221 70.94036 C 26.060753 70.94036 25.98228 70.9142 25.956123 70.9142 L 25.877651 70.88804 L 26.008434 71.43734 C 26.610046 74.07919 27.054714 76.95645 27.211655 79.38905 C 27.237814 79.65063 27.237814 79.85988 27.237814 79.85988 C 27.263973 79.85988 27.60401 79.70294 27.78711 79.57216 C 28.231777 79.31058 28.65029 78.91823 28.99033 78.47356 C 29.801197 77.40112 30.08892 76.06712 29.77504 74.706955 C 29.539627 73.60837 28.911861 72.58824 28.022522 71.882 C 27.473227 71.46349 26.740831 71.0973 26.139221 70.94036 Z" fill="#000000" stroke="none" stroke-width="0.75" />
<path d="M 92.0 90.0 L 108.0 90.0 Z" fill="none" stroke="#d6d6d6" stroke-width="0.75" />
<path d="M 95.52 91.232 C 95.52 92.456 96.715195 93.68 97.895996 93.68 C 101.495995 93.68 105.09599 91.232 105.09599 88.856 C 105.09599 87.6752 103.871994 86.48 102.71999 86.48 C 99.119995 86.48 95.52 88.856 95.52 91.232 Z" fill="#404040" stroke="none" stroke-width="1.0" />
<path d="M 94.0 183.25 L 102.0 183.25 L 102.0 190.75 L 94.0 190.75 L 94.0 183.25 Z" fill="#ffffff" stroke="none" stroke-width="1.0" />
<text x='94.0' y='190.75' font-family="Default" font-size="10.0" fill="#404040" >3</text>
<path d="M 95.52 75.232 C 95.52 76.456 96.715195 77.68 97.895996 77.68 C 101.495995 77.68 105.09599 75.232 105.09599 72.856 C 105.09599 71.6752 103.871994 70.48 102.71999 70.48 C 99.119995 70.48 95.52 72.856 95.52 75.232 Z" fill="#404040" stroke="none" stroke-width="1.0" />
<path d="M 94.0 173.25 L 102.0 173.25 L 102.0 180.75 L 94.0 180.75 L 94.0 173.25 Z" fill="#ffffff" stroke="none" stroke-width="1.0" />
<text x='94.0' y='180.75' font-family="Default" font-size="10.0" fill="#404040" >5</text>
<path d="M 95.52 63.232 C 95.52 64.456 96.715195 65.68 97.895996 65.68 C 101.495995 65.68 105.09599 63.232 105.09599 60.856 C 105.09599 59.6752 103.871994 58.48 102.71999 58.48 C 99.119995 58.48 95.52 60.856 95.52 63.232 Z" fill="#404040" stroke="none" stroke-width="1.0" />
<path d="M 94.0 163.25 L 102.0 163.25 L 102.0 170.75 L 94.0 170.75 L 94.0 163.25 Z" fill="#ffffff" stroke="none" stroke-width="1.0" />
<text x='94.0' y='170.75' font-family="Default" font-size="10.0" fill="#404040" >5</text>
<path d="M 95.52 55.232 C 95.52 56.456 96.715195 57.68 97.895996 57.68 C 101.495995 57.68 105.09599 55.232 105.09599 52.856 C 105.09599 51.6752 103.871994 50.48 102.71999 50.48 C 99.119995 50.48 95.52 52.856 95.52 55.232 Z" fill="#404040" stroke="none" stroke-width="1.0" />
<path d="M 94.0 153.25 L 102.0 153.25 L 102.0 160.75 L 94.0 160.75 L 94.0 153.25 Z" fill="#ffffff" stroke="none" stroke-width="1.0" />
<text x='94.0' y='160.75' font-family="Default" font-size="10.0" fill="#404040" >5</text>
<path d="M 104.18 89.04 L 105.18 89.04 L 105.18 22.0 L 104.18 22.0 M 104.18 89.04 Z" fill="#404040" stroke="none" stroke-width="0.75" />
<path d="M 117.75 90.0 L 133.75 90.0 Z" fill="none" stroke="#d6d6d6" stroke-width="0.75" />
<path d="M 121.27 91.232 C 121.27 92.456 122.465195 93.68 123.645996 93.68 C 127.245995 93.68 130.846 91.232 130.846 88.856 C 130.846 87.6752 129.622 86.48 128.47 86.48 C 124.869995 86.48 121.27 88.856 121.27 91.232 Z" fill="#404040" stroke="none" stroke-width="1.0" />
<path d="M 119.75 183.25 L 127.75 183.25 L 127.75 190.75 L 119.75 190.75 L 119.75 183.25 Z" fill="#ffffff" stroke="none" stroke-width="1.0" />
<text x='119.75' y='190.75' font-family="Default" font-size="10.0" fill="#404040" >3</text>
<path d="M 121.27 75.232 C 121.27 76.456 122.465195 77.68 123.645996 77.68 C 127.245995 77.68 130.846 75.232 130.846 72.856 C 130.846 71.6752 129.622 70.48 128.47 70.48 C 124.869995 70.48 121.27 72.856 121.27 75.232 Z" fill="#404040" stroke="none" stroke-width="1.0" />
<path d="M 119.75 173.25 L 127.75 173.25 L 127.75 180.75 L 119.75 180.75 L 119.75 173.25 Z" fill="#ffffff" stroke="none" stroke-width="1.0" />
<text x='119.75' y='180.75' font-family="Default" font-size="10.0" fill="#404040" >5</text>
<path d="M 121.27 63.232 C 121.27 64.456 122.465195 65.68 123.645996 65.68 C 127.245995 65.68 130.846 63.232 130.846 60.856 C 130.846 59.6752 129.622 58.48 128.47 58.48 C 124.869995 58.48 121.27 60.856 121.27 63.232 Z" fill="#404040" stroke="none" stroke-width="1.0" />
<path d="M 119.75 163.25 L 127.75 163.25 L 127.75 170.75 L 119.75 170.75 L 119.75 163.25 Z" fill="#ffffff" stroke="none" stroke-width="1.0" />
<text x='119.75' y='170.75' font-family="Default" font-size="10.0" fill="#404040" >5</text>
<path d="M 121.27 55.232 C 121.27 56.456 122.465195 57.68 123.645996 57.68 C 127.245995 57.68 130.846 55.232 130.846 52.856 C 130.846 51.6752 129.622 50.48 128.47 50.48 C 124.869995 50.48 121.27 52.856 121.27 55.232 Z" fill="#404040" stroke="none" stroke-width="1.0" />
<path d="M 119.75 153.25 L 127.75 153.25 L 127.75 160.75 L 119.75 160.75 L 119.75 153.25 Z" fill="#ffffff" stroke="none" stroke-width="1.0" />
<text x='119.75' y='160.75' font-family="Default" font-size="10.0" fill="#404040" >5</text>
<path d="M 129.93 89.04 L 130.93 89.04 L 130.93 22.0 L 129.93 22.0 M 129.93 89.04 Z" fill="#404040" stroke="none" stroke-width="0.75" />
<path d="M 143.5 90.0 L 159.5 90.0 Z" fill="none" stroke="#d6d6d6" stroke-width="0.75" />
<path d="M 143.5 98.0 L 159.5 98.0 Z" fill="none" stroke="#d6d6d6" stroke-width="0.75" />
<path d="M 147.02 103.232 C 147.02 104.456 148.21521 105.68 149.39601 105.68 C 152.996 105.68 156.59601 103.232 156.59601 100.856 C 156.59601 99.6752 155.37201 98.48 154.22 98.48 C 150.62001 98.48 147.02 100.856 147.02 103.232 Z" fill="#404040" stroke="none" stroke-width="1.0" />
<path d="M 145.5 193.25 L 153.5 193.25 L 153.5 200.75 L 145.5 200.75 L 145.5 193.25 Z" fill="#ffffff" stroke="none" stroke-width="1.0" />
<text x='145.5' y='200.75' font-family="Default" font-size="10.0" fill="#404040" >3</text>
<path d="M 147.02 87.232 C 147.02 88.456 148.21521 89.68 149.39601 89.68 C 152.996 89.68 156.59601 87.232 156.59601 84.856 C 156.59601 83.6752 155.37201 82.48 154.22 82.48 C 150.62001 82.48 147.02 84.856 147.02 87.232 Z" fill="#404040" stroke="none" stroke-width="1.0" />
<path d="M 145.5 183.25 L 153.5 183.25 L 153.5 190.75 L 145.5 190.75 L 145.5 183.25 Z" fill="#ffffff" stroke="none" stroke-width="1.0" />
<text x='145.5' y='190.75' font-family="Default" font-size="10.0" fill="#404040" >5</text>
<path d="M 147.02 75.232 C 147.02 76.456 148.21521 77.68 149.39601 77.68 C 152.996 77.68 156.59601 75.232 156.59601 72.856 C 156.59601 71.6752 155.37201 70.48 154.22 70.48 C 150.62001 70.48 147.02 72.856 147.02 75.232 Z" fill="#404040" stroke="none" stroke-width="1.0" />
<path d="M 145.5 173.25 L 153.5 173.25 L 153.5 180.75 L 145.5 180.75 L 145.5 173.25 Z" fill="#ffffff" stroke="none" stroke-width="1.0" />
<text x='145.5' y='180.75' font-family="Default" font-size="10.0" fill="#404040" >5</text>
<path d="M 147.02 67.232 C 147.02 68.456 148.21521 69.68 149.39601 69.68 C 152.996 69.68 156.59601 67.232 156.59601 64.856 C 156.59601 63.6752 155.37201 62.48 154.22 62.48 C 150.62001 62.48 147.02 64.856 147.02 67.232 Z" fill="#404040" stroke="none" stroke-width="1.0" />
<path d="M 145.5 163.25 L 153.5 163.25 L 153.5 170.75 L 145.5 170.75 L 145.5 163.25 Z" fill="#ffffff" stroke="none" stroke-width="1.0" />
<text x='145.5' y='170.75' font-family="Default" font-size="10.0" fill="#404040" >4</text>
<path d="M 155.68 101.04 L 156.68 101.04 L 156.68 34.0 L 155.68 34.0 M 155.68 101.04 Z" fill="#404040" stroke="none" stroke-width="0.75" />
<path d="M 169.25 90.0 L 185.25 90.0 Z" fill="none" stroke="#d6d6d6" stroke-width="0.75" />
<path d="M 169.25 98.0 L 185.25 98.0 Z" fill="none" stroke="#d6d6d6" stroke-width="0.75" />
<path d="M 172.77 103.232 C 172.77 104.456 173.96521 105.68 175.14601 105.68 C 178.746 105.68 182.34601 103.232 182.34601 100.856 C 182.34601 99.6752 181.12201 98.48 179.97 98.48 C 176.37001 98.48 172.77 100.856 172.77 103.232 Z" fill="#404040" stroke="none" stroke-width="1.0" />
<path d="M 171.25 193.25 L 179.25 193.25 L 179.25 200.75 L 171.25 200.75 L 171.25 193.25 Z" fill="#ffffff" stroke="none" stroke-width="1.0" />
<text x='171.25' y='200.75' font-family="Default" font-size="10.0" fill="#404040" >3</text>
<path d="M 172.77 87.232 C 172.77 88.456 173.96521 89.68 175.14601 89.68 C 178.746 89.68 182.34601 87.232 182.34601 84.856 C 182.34601 83.6752 181.12201 82.48 179.97 82.48 C 176.37001 82.48 172.77 84.856 172.77 87.232 Z" fill="#404040" stroke="none" stroke-width="1.0" />
<path d="M 171.25 183.25 L 179.25 183.25 L 179.25 190.75 L 171.25 190.75 L 171.25 183.25 Z" fill="#ffffff" stroke="none" stroke-width="1.0" />
<text x='171.25' y='190.75' font-family="Default" font-size="10.0" fill="#404040" >5</text>
<path d="M 172.77 75.232 C 172.77 76.456 173.96521 77.68 175.14601 77.68 C 178.746 77.68 182.34601 75.232 182.34601 72.856 C 182.34601 71.6752 181.12201 70.48 179.97 70.48 C 176.37001 70.48 172.77 72.856 172.77 75.232 Z" fill="#404040" stroke="none" stroke-width="1.0" />
<path d="M 171.25 173.25 L 179.25 173.25 L 179.25 180.75 L 171.25 180.75 L 171.25 173.25 Z" fill="#ffffff" stroke="none" stroke-width="1.0" />
<text x='171.25' y='180.75' font-family="Default" font-size="10.0" fill="#404040" >5</text>
<path d="M 172.77 67.232 C 172.77 68.456 173.96521 69.68 175.14601 69.68 C 178.746 69.68 182.34601 67.232 182.34601 64.856 C 182.34601 63.6752 181.12201 62.48 179.97 62.48 C 176.37001 62.48 172.77 64.856 172.77 67.232 Z" fill="#404040" stroke="none" stroke-width="1.0" />
<path d="M 171.25 163.25 L 179.25 163.25 L 179.25 170.75 L 171.25 170.75 L 171.25 163.25 Z" fill="#ffffff" stroke="none" stroke-width="1.0" />
<text x='171.25' y='170.75' font-family="Default" font-size="10.0" fill="#404040" >4</text>
<path d="M 181.43 101.04 L 182.43 101.04 L 182.43 34.0 L 181.43 34.0 M 181.43 101.04 Z" fill="#404040" stroke="none" stroke-width="0.75" /></g>
<path d="M 35.35 56.3 C 35.35 57.15 36.18 58.0 37.0 58.0 C 39.5 58.0 42.0 56.3 42.0 54.65 C 42.0 53.83 41.149998 53.0 40.35 53.0 C 37.85 53.0 35.35 54.65 35.35 56.3 Z" fill="#000000" stroke="none" stroke-width="1.0" />
<path d="M 42.0 40.0 L 42.0 54.7 Z" fill="none" stroke="#000000" stroke-width="1.0" />
<text x='43.0' y='56.25' font-family="Default" font-size="10.0" fill="#000000" > = 100</text>
<text x='21.0' y='68.0' font-family="Default" font-size="10.0" fill="#ff0000" >1</text>
<path d="M 20.0 70.0 L 23.0 70.0 L 23.0 167.0 L 20.0 167.0 L 20.0 70.0 Z" fill="#000000" stroke="#000000" stroke-width="0.75" />
<path d="M 25.0 70.0 L 26.0 70.0 L 26.0 167.0 L 25.0 167.0 L 25.0 70.0 Z" fill="#000000" stroke="#000000" stroke-width="0.75" />
<path d="M 234.0 70.0 L 234.0 102.0 Z" fill="#000000" stroke="#000000" stroke-width="0.75" />
<path d="M 20.0 167.0 L 23.0 167.0 L 23.0 217.0 L 20.0 217.0 L 20.0 167.0 Z" fill="#000000" stroke="#000000" stroke-width="0.75" />
<path d="M 25.0 167.0 L 26.0 167.0 L 26.0 217.0 L 25.0 217.0 L 25.0 167.0 Z" fill="#000000" stroke="#000000" stroke-width="0.75" />
<path d="M 234.0 167.0 L 234.0 217.0 Z" fill="#000000" stroke="#000000" stroke-width="0.75" /><g transform="translate(234.0,20.0)">
<path d="M 0.0 0.0 L 143.0 0.0 L 143.0 218.0 L 0.0 218.0 L 0.0 0.0 Z" fill="#ffffff" stroke="none" stroke-width="1.0" />
<path d="M 0.0 50.0 L 143.0 50.0 M 0.0 58.0 L 143.0 58.0 M 0.0 66.0 L 143.0 66.0 M 0.0 74.0 L 143.0 74.0 M 0.0 82.0 L 143.0 82.0 Z" fill="none" stroke="#d6d6d6" stroke-width="0.75" />
<path d="M 0.0 147.0 L 143.0 147.0 M 0.0 157.0 L 143.0 157.0 M 0.0 167.0 L 143.0 167.0 M 0.0 177.0 L 143.0 177.0 M 0.0 187.0 L 143.0 187.0 M 0.0 197.0 L 143.0 197.0 Z" fill="none" stroke="#d6d6d6" stroke-width="0.75" />
<path d="M 24.52 87.232 C 24.52 88.456 25.7152 89.68 26.896 89.68 C 30.496 89.68 34.096 87.232 34.096 84.856 C 34.096 83.6752 32.872 82.48 31.720001 82.48 C 28.12 82.48 24.52 84.856 24.52 87.232 Z" fill="#404040" stroke="none" stroke-width="1.0" />
<path d="M 23.0 183.25 L 31.0 183.25 L 31.0 190.75 L 23.0 190.75 L 23.0 183.25 Z" fill="#ffffff" stroke="none" stroke-width="1.0" />
<text x='23.0' y='190.75' font-family="Default" font-size="10.0" fill="#404040" >5</text>
<path d="M 24.52 71.232 C 24.52 72.456 25.7152 73.68 26.896 73.68 C 30.496 73.68 34.096 71.232 34.096 68.856 C 34.096 67.6752 32.872 66.48 31.720001 66.48 C 28.12 66.48 24.52 68.856 24.52 71.232 Z" fill="#404040" stroke="none" stroke-width="1.0" />
<path d="M 23.0 173.25 L 31.0 173.25 L 31.0 180.75 L 23.0 180.75 L 23.0 173.25 Z" fill="#ffffff" stroke="none" stroke-width="1.0" />
<text x='23.0' y='180.75' font-family="Default" font-size="10.0" fill="#404040" >7</text>
<path d="M 24.52 59.232 C 24.52 60.456 25.7152 61.68 26.896 61.68 C 30.496 61.68 34.096 59.232 34.096 56.856 C 34.096 55.6752 32.872 54.48 31.720001 54.48 C 28.12 54.48 24.52 56.856 24.52 59.232 Z" fill="#404040" stroke="none" stroke-width="1.0" />
<path d="M 23.0 163.25 L 31.0 163.25 L 31.0 170.75 L 23.0 170.75 L 23.0 163.25 Z" fill="#ffffff" stroke="none" stroke-width="1.0" />
<text x='23.0' y='170.75' font-family="Default" font-size="10.0" fill="#404040" >7</text>
<path d="M 24.52 51.232 C 24.52 52.456 25.7152 53.68 26.896 53.68 C 30.496 53.68 34.096 51.232 34.096 48.856 C 34.096 47.6752 32.872 46.48 31.720001 46.48 C 28.12 46.48 24.52 48.856 24.52 51.232 Z" fill="#404040" stroke="none" stroke-width="1.0" />
<path d="M 23.0 153.25 L 31.0 153.25 L 31.0 160.75 L 23.0 160.75 L 23.0 153.25 Z" fill="#ffffff" stroke="none" stroke-width="1.0" />
<text x='23.0' y='160.75' font-family="Default" font-size="10.0" fill="#404040" >6</text>
<path d="M 24.5 50.96 L 25.5 50.96 L 25.5 117.0 L 24.5 117.0 M 24.5 50.96 Z" fill="#404040" stroke="none" stroke-width="0.75" />
<path d="M 50.27 87.232 C 50.27 88.456 51.465202 89.68 52.646 89.68 C 56.246002 89.68 59.846 87.232 59.846 84.856 C 59.846 83.6752 58.622 82.48 57.47 82.48 C 53.87 82.48 50.27 84.856 50.27 87.232 Z" fill="#404040" stroke="none" stroke-width="1.0" />
<path d="M 48.75 183.25 L 56.75 183.25 L 56.75 190.75 L 48.75 190.75 L 48.75 183.25 Z" fill="#ffffff" stroke="none" stroke-width="1.0" />
<text x='48.75' y='190.75' font-family="Default" font-size="10.0" fill="#404040" >5</text>
<path d="M 50.27 71.232 C 50.27 72.456 51.465202 73.68 52.646 73.68 C 56.246002 73.68 59.846 71.232 59.846 68.856 C 59.846 67.6752 58.622 66.48 57.47 66.48 C 53.87 66.48 50.27 68.856 50.27 71.232 Z" fill="#404040" stroke="none" stroke-width="1.0" />
<path d="M 48.75 173.25 L 56.75 173.25 L 56.75 180.75 L 48.75 180.75 L 48.75 173.25 Z" fill="#ffffff" stroke="none" stroke-width="1.0" />
<text x='48.75' y='180.75' font-family="Default" font-size="10.0" fill="#404040" >7</text>
<path d="M 50.27 59.232 C 50.27 60.456 51.465202 61.68 52.646 61.68 C 56.246002 61.68 59.846 59.232 59.846 56.856 C 59.846 55.6752 58.622 54.48 57.47 54.48 C 53.87 54.48 50.27 56.856 50.27 59.232 Z" fill="#404040" stroke="none" stroke-width="1.0" />
<path d="M 48.75 163.25 L 56.75 163.25 L 56.75 170.75 L 48.75 170.75 L 48.75 163.25 Z" fill="#ffffff" stroke="none" stroke-width="1.0" />
<text x='48.75' y='170.75' font-family="Default" font-size="10.0" fill="#404040" >7</text>
<path d="M 50.27 51.232 C 50.27 52.456 51.465202 53.68 52.646 53.68 C 56.246002 53.68 59.846 51.232 59.846 48.856 C 59.846 47.6752 58.622 46.48 57.47 46.48 C 53.87 46.48 50.27 48.856 50.27 51.232 Z" fill="#404040" stroke="none" stroke-width="1.0" />
<path d="M 48.75 153.25 L 56.75 153.25 L 56.75 160.75 L 48.75 160.75 L 48.75 153.25 Z" fill="#ffffff" stroke="none" stroke-width="1.0" />
<text x='48.75' y='160.75' font-family="Default" font-size="10.0" fill="#404040" >6</text>
<path d="M 50.25 50.96 L 51.25 50.96 L 51.25 117.0 L 50.25 117.0 M 50.25 50.96 Z" fill="#404040" stroke="none" stroke-width="0.75" />
<path d="M 72.5 90.0 L 88.5 90.0 Z" fill="none" stroke="#d6d6d6" stroke-width="0.75" />
<path d="M 72.5 98.0 L 88.5 98.0 Z" fill="none" stroke="#d6d6d6" stroke-width="0.75" />
<path d="M 76.02 99.232 C 76.02 100.456 77.215195 101.68 78.395996 101.68 C 81.995995 101.68 85.59599 99.232 85.59599 96.856 C 85.59599 95.6752 84.371994 94.48 83.21999 94.48 C 79.619995 94.48 76.02 96.856 76.02 99.232 Z" fill="#404040" stroke="none" stroke-width="1.0" />
<path d="M 74.5 193.25 L 82.5 193.25 L 82.5 200.75 L 74.5 200.75 L 74.5 193.25 Z" fill="#ffffff" stroke="none" stroke-width="1.0" />
<text x='74.5' y='200.75' font-family="Default" font-size="10.0" fill="#404040" >5</text>
<path d="M 76.02 83.232 C 76.02 84.456 77.215195 85.68 78.395996 85.68 C 81.995995 85.68 85.59599 83.232 85.59599 80.856 C 85.59599 79.6752 84.371994 78.48 83.21999 78.48 C 79.619995 78.48 76.02 80.856 76.02 83.232 Z" fill="#404040" stroke="none" stroke-width="1.0" />
<path d="M 74.5 183.25 L 82.5 183.25 L 82.5 190.75 L 74.5 190.75 L 74.5 183.25 Z" fill="#ffffff" stroke="none" stroke-width="1.0" />
<text x='74.5' y='190.75' font-family="Default" font-size="10.0" fill="#404040" >7</text>
<path d="M 76.02 71.232 C 76.02 72.456 77.215195 73.68 78.395996 73.68 C 81.995995 73.68 85.59599 71.232 85.59599 68.856 C 85.59599 67.6752 84.371994 66.48 83.21999 66.48 C 79.619995 66.48 76.02 68.856 76.02 71.232 Z" fill="#404040" stroke="none" stroke-width="1.0" />
<path d="M 74.5 173.25 L 82.5 173.25 L 82.5 180.75 L 74.5 180.75 L 74.5 173.25 Z" fill="#ffffff" stroke="none" stroke-width="1.0" />
<text x='74.5' y='180.75' font-family="Default" font-size="10.0" fill="#404040" >7</text>
<path d="M 76.02 63.232 C 76.02 64.456 77.215195 65.68 78.395996 65.68 C 81.995995 65.68 85.59599 63.232 85.59599 60.856 C 85.59599 59.6752 84.371994 58.48 83.21999 58.48 C 79.619995 58.48 76.02 60.856 76.02 63.232 Z" fill="#404040" stroke="none" stroke-width="1.0" />
<path d="M 74.5 163.25 L 82.5 163.25 L 82.5 170.75 L 74.5 170.75 L 74.5 163.25 Z" fill="#ffffff" stroke="none" stroke-width="1.0" />
<text x='74.5' y='170.75' font-family="Default" font-size="10.0" fill="#404040" >5</text>
<path d="M 84.68 97.04 L 85.68 97.04 L 85.68 30.0 L 84.68 30.0 M 84.68 97.04 Z" fill="#404040" stroke="none" stroke-width="0.75" />
<path d="M 98.25 90.0 L 114.25 90.0 Z" fill="none" stroke="#d6d6d6" stroke-width="0.75" />
<path d="M 98.25 98.0 L 114.25 98.0 Z" fill="none" stroke="#d6d6d6" stroke-width="0.75" />
<path d="M 101.77 63.232 C 101.77 64.456 102.965195 65.68 104.145996 65.68 C 107.745995 65.68 111.34599 63.232 111.34599 60.856 C 111.34599 59.6752 110.121994 58.48 108.96999 58.48 C 105.369995 58.48 101.77 60.856 101.77 63.232 Z" fill="#404040" stroke="none" stroke-width="1.0" />
<path d="M 100.25 163.25 L 108.25 163.25 L 108.25 170.75 L 100.25 170.75 L 100.25 163.25 Z" fill="#ffffff" stroke="none" stroke-width="1.0" />
<text x='100.25' y='170.75' font-family="Default" font-size="10.0" fill="#404040" >5</text>
<path d="M 101.77 71.232 C 101.77 72.456 102.965195 73.68 104.145996 73.68 C 107.745995 73.68 111.34599 71.232 111.34599 68.856 C 111.34599 67.6752 110.121994 66.48 108.96999 66.48 C 105.369995 66.48 101.77 68.856 101.77 71.232 Z" fill="#404040" stroke="none" stroke-width="1.0" />
<path d="M 100.25 173.25 L 108.25 173.25 L 108.25 180.75 L 100.25 180.75 L 100.25 173.25 Z" fill="#ffffff" stroke="none" stroke-width="1.0" />
<text x='100.25' y='180.75' font-family="Default" font-size="10.0" fill="#404040" >7</text>
<path d="M 101.77 83.232 C 101.77 84.456 102.965195 85.68 104.145996 85.68 C 107.745995 85.68 111.34599 83.232 111.34599 80.856 C 111.34599 79.6752 110.121994 78.48 108.96999 78.48 C 105.369995 78.48 101.77 80.856 101.77 83.232 Z" fill="#404040" stroke="none" stroke-width="1.0" />
<path d="M 100.25 183.25 L 108.25 183.25 L 108.25 190.75 L 100.25 190.75 L 100.25 183.25 Z" fill="#ffffff" stroke="none" stroke-width="1.0" />
<text x='100.25' y='190.75' font-family="Default" font-size="10.0" fill="#404040" >7</text>
<path d="M 101.77 99.232 C 101.77 100.456 102.965195 101.68 104.145996 101.68 C 107.745995 101.68 111.34599 99.232 111.34599 96.856 C 111.34599 95.6752 110.121994 94.48 108.96999 94.48 C 105.369995 94.48 101.77 96.856 101.77 99.232 Z" fill="#404040" stroke="none" stroke-width="1.0" />
<path d="M 100.25 193.25 L 108.25 193.25 L 108.25 200.75 L 100.25 200.75 L 100.25 193.25 Z" fill="#ffffff" stroke="none" stroke-width="1.0" />
<text x='100.25' y='200.75' font-family="Default" font-size="10.0" fill="#404040" >5</text>
<path d="M 110.43 97.04 L 111.43 97.04 L 111.43 30.0 L 110.43 30.0 M 110.43 97.04 Z" fill="#404040" stroke="none" stroke-width="0.75" /></g>
<text x='235.0' y='68.0' font-family="Default" font-size="10.0" fill="#ff0000" >2</text>
<path d="M 234.0 70.0 L 234.0 102.0 Z" fill="#000000" stroke="#000000" stroke-width="0.75" />
<path d="M 377.0 70.0 L 377.0 102.0 Z" fill="#000000" stroke="#000000" stroke-width="0.75" />
<path d="M 234.0 167.0 L 234.0 217.0 Z" fill="#000000" stroke="#000000" stroke-width="0.75" />
<path d="M 377.0 167.0 L 377.0 217.0 Z" fill="#000000" stroke="#000000" stroke-width="0.75" /><g transform="translate(377.0,20.0)">
<path d="M 0.0 0.0 L 144.0 0.0 L 144.0 218.0 L 0.0 218.0 L 0.0 0.0 Z" fill="#ffffff" stroke="none" stroke-width="1.0" />
<path d="M 0.0 50.0 L 144.0 50.0 M 0.0 58.0 L 144.0 58.0 M 0.0 66.0 L 144.0 66.0 M 0.0 74.0 L 144.0 74.0 M 0.0 82.0 L 144.0 82.0 Z" fill="none" stroke="#d6d6d6" stroke-width="0.75" />
<path d="M 0.0 147.0 L 144.0 147.0 M 0.0 157.0 L 144.0 157.0 M 0.0 167.0 L 144.0 167.0 M 0.0 177.0 L 144.0 177.0 M 0.0 187.0 L 144.0 187.0 M 0.0 197.0 L 144.0 197.0 Z" fill="none" stroke="#d6d6d6" stroke-width="0.75" />
<path d="M 21.0 90.0 L 37.0 90.0 Z" fill="none" stroke="#d6d6d6" stroke-width="0.75" />
<path d="M 24.52 91.232 C 24.52 92.456 25.7152 93.68 26.896 93.68 C 30.496 93.68 34.096 91.232 34.096 88.856 C 34.096 87.6752 32.872 86.48 31.720001 86.48 C 28.12 86.48 24.52 88.856 24.52 91.232 Z" fill="#404040" stroke="none" stroke-width="1.0" />
<path d="M 23.0 183.25 L 31.0 183.25 L 31.0 190.75 L 23.0 190.75 L 23.0 183.25 Z" fill="#ffffff" stroke="none" stroke-width="1.0" />
<text x='23.0' y='190.75' font-family="Default" font-size="10.0" fill="#404040" >3</text>
<path d="M 24.52 75.232 C 24.52 76.456 25.7152 77.68 26.896 77.68 C 30.496 77.68 34.096 75.232 34.096 72.856 C 34.096 71.6752 32.872 70.48 31.720001 70.48 C 28.12 70.48 24.52 72.856 24.52 75.232 Z" fill="#404040" stroke="none" stroke-width="1.0" />
<path d="M 23.0 173.25 L 31.0 173.25 L 31.0 180.75 L 23.0 180.75 L 23.0 173.25 Z" fill="#ffffff" stroke="none" stroke-width="1.0" />
<text x='23.0' y='180.75' font-family="Default" font-size="10.0" fill="#404040" >5</text>
<path d="M 24.52 63.232 C 24.52 64.456 25.7152 65.68 26.896 65.68 C 30.496 65.68 34.096 63.232 34.096 60.856 C 34.096 59.6752 32.872 58.48 31.720001 58.48 C 28.12 58.48 24.52 60.856 24.52 63.232 Z" fill="#404040" stroke="none" stroke-width="1.0" />
<path d="M 23.0 163.25 L 31.0 163.25 L 31.0 170.75 L 23.0 170.75 L 23.0 163.25 Z" fill="#ffffff" stroke="none" stroke-width="1.0" />
<text x='23.0' y='170.75' font-family="Default" font-size="10.0" fill="#404040" >5</text>
<path d="M 24.52 55.232 C 24.52 56.456 25.7152 57.68 26.896 57.68 C 30.496 57.68 34.096 55.232 34.096 52.856 C 34.096 51.6752 32.872 50.48 31.720001 50.48 C 28.12 50.48 24.52 52.856 24.52 55.232 Z" fill="#404040" stroke="none" stroke-width="1.0" />
<path d="M 23.0 153.25 L 31.0 153.25 L 31.0 160.75 L 23.0 160.75 L 23.0 153.25 Z" fill="#ffffff" stroke="none" stroke-width="1.0" />
<text x='23.0' y='160.75' font-family="Default" font-size="10.0" fill="#404040" >5</text>
<path d="M 33.18 89.04 L 34.18 89.04 L 34.18 22.0 L 33.18 22.0 M 33.18 89.04 Z" fill="#404040" stroke="none" stroke-width="0.75" />
<path d="M 47.0 90.0 L 63.0 90.0 Z" fill="none" stroke="#d6d6d6" stroke-width="0.75" />
<path d="M 50.52 91.232 C 50.52 92.456 51.715202 93.68 52.896 93.68 C 56.496002 93.68 60.096 91.232 60.096 88.856 C 60.096 87.6752 58.872 86.48 57.72 86.48 C 54.12 86.48 50.52 88.856 50.52 91.232 Z" fill="#404040" stroke="none" stroke-width="1.0" />
<path d="M 49.0 183.25 L 57.0 183.25 L 57.0 190.75 L 49.0 190.75 L 49.0 183.25 Z" fill="#ffffff" stroke="none" stroke-width="1.0" />
<text x='49.0' y='190.75' font-family="Default" font-size="10.0" fill="#404040" >3</text>
<path d="M 50.52 75.232 C 50.52 76.456 51.715202 77.68 52.896 77.68 C 56.496002 77.68 60.096 75.232 60.096 72.856 C 60.096 71.6752 58.872 70.48 57.72 70.48 C 54.12 70.48 50.52 72.856 50.52 75.232 Z" fill="#404040" stroke="none" stroke-width="1.0" />
<path d="M 49.0 173.25 L 57.0 173.25 L 57.0 180.75 L 49.0 180.75 L 49.0 173.25 Z" fill="#ffffff" stroke="none" stroke-width="1.0" />
<text x='49.0' y='180.75' font-family="Default" font-size="10.0" fill="#404040" >5</text>
<path d="M 50.52 63.232 C 50.52 64.456 51.715202 65.68 52.896 65.68 C 56.496002 65.68 60.096 63.232 60.096 60.856 C 60.096 59.6752 58.872 58.48 57.72 58.48 C 54.12 58.48 50.52 60.856 50.52 63.232 Z" fill="#404040" stroke="none" stroke-width="1.0" />
<path d="M 49.0 163.25 L 57.0 163.25 L 57.0 170.75 L 49.0 170.75 L 49.0 163.25 Z" fill="#ffffff" stroke="none" stroke-width="1.0" />
<text x='49.0' y='170.75' font-family="Default" font-size="10.0" fill="#404040" >5</text>
<path d="M 50.52 55.232 C 50.52 56.456 51.715202 57.68 52.896 57.68 C 56.496002 57.68 60.096 55.232 60.096 52.856 C 60.096 51.6752 58.872 50.48 57.72 50.48 C 54.12 50.48 50.52 52.856 50.52 55.232 Z" fill="#404040" stroke="none" stroke-width="1.0" />
<path d="M 49.0 153.25 L 57.0 153.25 L 57.0 160.75 L 49.0 160.75 L 49.0 153.25 Z" fill="#ffffff" stroke="none" stroke-width="1.0" />
<text x='49.0' y='160.75' font-family="Default" font-size="10.0" fill="#404040" >5</text>
<path d="M 59.18 89.04 L 60.18 89.04 L 60.18 22.0 L 59.18 22.0 M 59.18 89.04 Z" fill="#404040" stroke="none" stroke-width="0.75" />
<path d="M 73.0 90.0 L 89.0 90.0 Z" fill="none" stroke="#d6d6d6" stroke-width="0.75" />
<path d="M 73.0 98.0 L 89.0 98.0 Z" fill="none" stroke="#d6d6d6" stroke-width="0.75" />
<path d="M 76.52 103.232 C 76.52 104.456 77.715195 105.68 78.895996 105.68 C 82.495995 105.68 86.09599 103.232 86.09599 100.856 C 86.09599 99.6752 84.871994 98.48 83.71999 98.48 C 80.119995 98.48 76.52 100.856 76.52 103.232 Z" fill="#404040" stroke="none" stroke-width="1.0" />
<path d="M 75.0 193.25 L 83.0 193.25 L 83.0 200.75 L 75.0 200.75 L 75.0 193.25 Z" fill="#ffffff" stroke="none" stroke-width="1.0" />
<text x='75.0' y='200.75' font-family="Default" font-size="10.0" fill="#404040" >3</text>
<path d="M 76.52 87.232 C 76.52 88.456 77.715195 89.68 78.895996 89.68 C 82.495995 89.68 86.09599 87.232 86.09599 84.856 C 86.09599 83.6752 84.871994 82.48 83.71999 82.48 C 80.119995 82.48 76.52 84.856 76.52 87.232 Z" fill="#404040" stroke="none" stroke-width="1.0" />
<path d="M 75.0 183.25 L 83.0 183.25 L 83.0 190.75 L 75.0 190.75 L 75.0 183.25 Z" fill="#ffffff" stroke="none" stroke-width="1.0" />
<text x='75.0' y='190.75' font-family="Default" font-size="10.0" fill="#404040" >5</text>
<path d="M 76.52 75.232 C 76.52 76.456 77.715195 77.68 78.895996 77.68 C 82.495995 77.68 86.09599 75.232 86.09599 72.856 C 86.09599 71.6752 84.871994 70.48 83.71999 70.48 C 80.119995 70.48 76.52 72.856 76.52 75.232 Z" fill="#404040" stroke="none" stroke-width="1.0" />
<path d="M 75.0 173.25 L 83.0 173.25 L 83.0 180.75 L 75.0 180.75 L 75.0 173.25 Z" fill="#ffffff" stroke="none" stroke-width="1.0" />
<text x='75.0' y='180.75' font-family="Default" font-size="10.0" fill="#404040" >5</text>
<path d="M 76.52 67.232 C 76.52 68.456 77.715195 69.68 78.895996 69.68 C 82.495995 69.68 86.09599 67.232 86.09599 64.856 C 86.09599 63.6752 84.871994 62.48 83.71999 62.48 C 80.119995 62.48 76.52 64.856 76.52 67.232 Z" fill="#404040" stroke="none" stroke-width="1.0" />
<path d="M 75.0 163.25 L 83.0 163.25 L 83.0 170.75 L 75.0 170.75 L 75.0 163.25 Z" fill="#ffffff" stroke="none" stroke-width="1.0" />
<text x='75.0' y='170.75' font-family="Default" font-size="10.0" fill="#404040" >4</text>
<path d="M 85.18 101.04 L 86.18 101.04 L 86.18 34.0 L 85.18 34.0 M 85.18 101.04 Z" fill="#404040" stroke="none" stroke-width="0.75" />
<path d="M 99.0 90.0 L 115.0 90.0 Z" fill="none" stroke="#d6d6d6" stroke-width="0.75" />
<path d="M 99.0 98.0 L 115.0 98.0 Z" fill="none" stroke="#d6d6d6" stroke-width="0.75" />
<path d="M 102.52 103.232 C 102.52 104.456 103.715195 105.68 104.895996 105.68 C 108.495995 105.68 112.09599 103.232 112.09599 100.856 C 112.09599 99.6752 110.871994 98.48 109.71999 98.48 C 106.119995 98.48 102.52 100.856 102.52 103.232 Z" fill="#404040" stroke="none" stroke-width="1.0" />
<path d="M 101.0 193.25 L 109.0 193.25 L 109.0 200.75 L 101.0 200.75 L 101.0 193.25 Z" fill="#ffffff" stroke="none" stroke-width="1.0" />
<text x='101.0' y='200.75' font-family="Default" font-size="10.0" fill="#404040" >3</text>
<path d="M 102.52 87.232 C 102.52 88.456 103.715195 89.68 104.895996 89.68 C 108.495995 89.68 112.09599 87.232 112.09599 84.856 C 112.09599 83.6752 110.871994 82.48 109.71999 82.48 C 106.119995 82.48 102.52 84.856 102.52 87.232 Z" fill="#404040" stroke="none" stroke-width="1.0" />
<path d="M 101.0 183.25 L 109.0 183.25 L 109.0 190.75 L 101.0 190.75 L 101.0 183.25 Z" fill="#ffffff" stroke="none" stroke-width="1.0" />
<text x='101.0' y='190.75' font-family="Default" font-size="10.0" fill="#404040" >5</text>
<path d="M 102.52 75.232 C 102.52 76.456 103.715195 77.68 104.895996 77.68 C 108.495995 77.68 112.09599 75.232 112.09599 72.856 C 112.09599 71.6752 110.871994 70.48 109.71999 70.48 C 106.119995 70.48 102.52 72.856 102.52 75.232 Z" fill="#404040" stroke="none" stroke-width="1.0" />
<path d="M 101.0 173.25 L 109.0 173.25 L 109.0 180.75 L 101.0 180.75 L 101.0 173.25 Z" fill="#ffffff" stroke="none" stroke-width="1.0" />
<text x='101.0' y='180.75' font-family="Default" font-size="10.0" fill="#404040" >5</text>
<path d="M 102.52 67.232 C 102.52 68.456 103.715195 69.68 104.895996 69.68 C 108.495995 69.68 112.09599 67.232 112.09599 64.856 C 112.09599 63.6752 110.871994 62.48 109.71999 62.48 C 106.119995 62.48 102.52 64.856 102.52 67.232 Z" fill="#404040" stroke="none" stroke-width="1.0" />
<path d="M 101.0 163.25 L 109.0 163.25 L 109.0 170.75 L 101.0 170.75 L 101.0 163.25 Z" fill="#ffffff" stroke="none" stroke-width="1.0" />
<text x='101.0' y='170.75' font-family="Default" font-size="10.0" fill="#404040" >4</text>
<path d="M 111.18 101.04 L 112.18 101.04 L 112.18 34.0 L 111.18 34.0 M 111.18 101.04 Z" fill="#404040" stroke="none" stroke-width="0.75" /></g>
<text x='378.0' y='68.0' font-family="Default" font-size="10.0" fill="#ff0000" >3</text>
<path d="M 377.0 70.0 L 377.0 102.0 Z" fill="#000000" stroke="#000000" stroke-width="0.75" />
<path d="M 521.0 70.0 L 521.0 102.0 Z" fill="#000000" stroke="#000000" stroke-width="0.75" />
<path d="M 377.0 167.0 L 377.0 217.0 Z" fill="#000000" stroke="#000000" stroke-width="0.75" />
<path d="M 521.0 167.0 L 521.0 217.0 Z" fill="#000000" stroke="#000000" stroke-width="0.75" /><g transform="translate(521.0,20.0)">
<path d="M 0.0 0.0 L 143.0 0.0 L 143.0 218.0 L 0.0 218.0 L 0.0 0.0 Z" fill="#ffffff" stroke="none" stroke-width="1.0" />
<path d="M 0.0 50.0 L 143.0 50.0 M 0.0 58.0 L 143.0 58.0 M 0.0 66.0 L 143.0 66.0 M 0.0 74.0 L 143.0 74.0 M 0.0 82.0 L 143.0 82.0 Z" fill="none" stroke="#d6d6d6" stroke-width="0.75" />
<path d="M 0.0 147.0 L 143.0 147.0 M 0.0 157.0 L 143.0 157.0 M 0.0 167.0 L 143.0 167.0 M 0.0 177.0 L 143.0 177.0 M 0.0 187.0 L 143.0 187.0 M 0.0 197.0 L 143.0 197.0 Z" fill="none" stroke="#d6d6d6" stroke-width="0.75" />
<path d="M 24.52 87.232 C 24.52 88.456 25.7152 89.68 26.896 89.68 C 30.496 89.68 34.096 87.232 34.096 84.856 C 34.096 83.6752 32.872 82.48 31.720001 82.48 C 28.12 82.48 24.52 84.856 24.52 87.232 Z" fill="#404040" stroke="none" stroke-width="1.0" />
<path d="M 23.0 183.25 L 31.0 183.25 L 31.0 190.75 L 23.0 190.75 L 23.0 183.25 Z" fill="#ffffff" stroke="none" stroke-width="1.0" />
<text x='23.0' y='190.75' font-family="Default" font-size="10.0" fill="#404040" >5</text>
<path d="M 24.52 71.232 C 24.52 72.456 25.7152 73.68 26.896 73.68 C 30.496 73.68 34.096 71.232 34.096 68.856 C 34.096 67.6752 32.872 66.48 31.720001 66.48 C 28.12 66.48 24.52 68.856 24.52 71.232 Z" fill="#404040" stroke="none" stroke-width="1.0" />
<path d="M 23.0 173.25 L 31.0 173.25 L 31.0 180.75 L 23.0 180.75 L 23.0 173.25 Z" fill="#ffffff" stroke="none" stroke-width="1.0" />
<text x='23.0' y='180.75' font-family="Default" font-size="10.0" fill="#404040" >7</text>
<path d="M 24.52 59.232 C 24.52 60.456 25.7152 61.68 26.896 61.68 C 30.496 61.68 34.096 59.232 34.096 56.856 C 34.096 55.6752 32.872 54.48 31.720001 54.48 C 28.12 54.48 24.52 56.856 24.52 59.232 Z" fill="#404040" stroke="none" stroke-width="1.0" />
<path d="M 23.0 163.25 L 31.0 163.25 L 31.0 170.75 L 23.0 170.75 L 23.0 163.25 Z" fill="#ffffff" stroke="none" stroke-width="1.0" />
<text x='23.0' y='170.75' font-family="Default" font-size="10.0" fill="#404040" >7</text>
<path d="M 24.52 51.232 C 24.52 52.456 25.7152 53.68 26.896 53.68 C 30.496 53.68 34.096 51.232 34.096 48.856 C 34.096 47.6752 32.872 46.48 31.720001 46.48 C 28.12 46.48 24.52 48.856 24.52 51.232 Z" fill="#404040" stroke="none" stroke-width="1.0" />
<path d="M 23.0 153.25 L 31.0 153.25 L 31.0 160.75 L 23.0 160.75 L 23.0 153.25 Z" fill="#ffffff" stroke="none" stroke-width="1.0" />
<text x='23.0' y='160.75' font-family="Default" font-size="10.0" fill="#404040" >6</text>
<path d="M 24.5 50.96 L 25.5 50.96 L 25.5 117.0 L 24.5 117.0 M 24.5 50.96 Z" fill="#404040" stroke="none" stroke-width="0.75" />
<path d="M 50.27 87.232 C 50.27 88.456 51.465202 89.68 52.646 89.68 C 56.246002 89.68 59.846 87.232 59.846 84.856 C 59.846 83.6752 58.622 82.48 57.47 82.48 C 53.87 82.48 50.27 84.856 50.27 87.232 Z" fill="#404040" stroke="none" stroke-width="1.0" />
<path d="M 48.75 183.25 L 56.75 183.25 L 56.75 190.75 L 48.75 190.75 L 48.75 183.25 Z" fill="#ffffff" stroke="none" stroke-width="1.0" />
<text x='48.75' y='190.75' font-family="Default" font-size="10.0" fill="#404040" >5</text>
<path d="M 50.27 71.232 C 50.27 72.456 51.465202 73.68 52.646 73.68 C 56.246002 73.68 59.846 71.232 59.846 68.856 C 59.846 67.6752 58.622 66.48 57.47 66.48 C 53.87 66.48 50.27 68.856 50.27 71.232 Z" fill="#404040" stroke="none" stroke-width="1.0" />
<path d="M 48.75 173.25 L 56.75 173.25 L 56.75 180.75 L 48.75 180.75 L 48.75 173.25 Z" fill="#ffffff" stroke="none" stroke-width="1.0" />
<text x='48.75' y='180.75' font-family="Default" font-size="10.0" fill="#404040" >7</text>
<path d="M 50.27 59.232 C 50.27 60.456 51.465202 61.68 52.646 61.68 C 56.246002 61.68 59.846 59.232 59.846 56.856 C 59.846 55.6752 58.622 54.48 57.47 54.48 C 53.87 54.48 50.27 56.856 50.27 59.232 Z" fill="#404040" stroke="none" stroke-width="1.0" />
<path d="M 48.75 163.25 L 56.75 163.25 L 56.75 170.75 L 48.75 170.75 L 48.75 163.25 Z" fill="#ffffff" stroke="none" stroke-width="1.0" />
<text x='48.75' y='170.75' font-family="Default" font-size="10.0" fill="#404040" >7</text>
<path d="M 50.27 51.232 C 50.27 52.456 51.465202 53.68 52.646 53.68 C 56.246002 53.68 59.846 51.232 59.846 48.856 C 59.846 47.6752 58.622 46.48 57.47 46.48 C 53.87 46.48 50.27 48.856 50.27 51.232 Z" fill="#404040" stroke="none" stroke-width="1.0" />
<path d="M 48.75 153.25 L 56.75 153.25 L 56.75 160.75 L 48.75 160.75 L 48.75 153.25 Z" fill="#ffffff" stroke="none" stroke-width="1.0" />
<text x='48.75' y='160.75' font-family="Default" font-size="10.0" fill="#404040" >6</text>
<path d="M 50.25 50.96 L 51.25 50.96 L 51.25 117.0 L 50.25 117.0 M 50.25 50.96 Z" fill="#404040" stroke="none" stroke-width="0.75" />
<path d="M 72.5 90.0 L 88.5 90.0 Z" fill="none" stroke="#d6d6d6" stroke-width="0.75" />
<path d="M 72.5 98.0 L 88.5 98.0 Z" fill="none" stroke="#d6d6d6" stroke-width="0.75" />
<path d="M 76.02 99.232 C 76.02 100.456 77.215195 101.68 78.395996 101.68 C 81.995995 101.68 85.59599 99.232 85.59599 96.856 C 85.59599 95.6752 84.371994 94.48 83.21999 94.48 C 79.619995 94.48 76.02 96.856 76.02 99.232 Z" fill="#404040" stroke="none" stroke-width="1.0" />
<path d="M 74.5 193.25 L 82.5 193.25 L 82.5 200.75 L 74.5 200.75 L 74.5 193.25 Z" fill="#ffffff" stroke="none" stroke-width="1.0" />
<text x='74.5' y='200.75' font-family="Default" font-size="10.0" fill="#404040" >5</text>
<path d="M 76.02 83.232 C 76.02 84.456 77.215195 85.68 78.395996 85.68 C 81.995995 85.68 85.59599 83.232 85.59599 80.856 C 85.59599 79.6752 84.371994 78.48 83.21999 78.48 C 79.619995 78.48 76.02 80.856 76.02 83.232 Z" fill="#404040" stroke="none" stroke-width="1.0" />
<path d="M 74.5 183.25 L 82.5 183.25 L 82.5 190.75 L 74.5 190.75 L 74.5 183.25 Z" fill="#ffffff" stroke="none" stroke-width="1.0" />
<text x='74.5' y='190.75' font-family="Default" font-size="10.0" fill="#404040" >7</text>
<path d="M 76.02 71.232 C 76.02 72.456 77.215195 73.68 78.395996 73.68 C 81.995995 73.68 85.59599 71.232 85.59599 68.856 C 85.59599 67.6752 84.371994 66.48 83.21999 66.48 C 79.619995 66.48 76.02 68.856 76.02 71.232 Z" fill="#404040" stroke="none" stroke-width="1.0" />
<path d="M 74.5 173.25 L 82.5 173.25 L 82.5 180.75 L 74.5 180.75 L 74.5 173.25 Z" fill="#ffffff" stroke="none" stroke-width="1.0" />
<text x='74.5' y='180.75' font-family="Default" font-size="10.0" fill="#404040" >7</text>
<path d="M 76.02 63.232 C 76.02 64.456 77.215195 65.68 78.395996 65.68 C 81.995995 65.68 85.59599 63.232 85.59599 60.856 C 85.59599 59.6752 84.371994 58.48 83.21999 58.48 C 79.619995 58.48 76.02 60.856 76.02 63.232 Z" fill="#404040" stroke="none" stroke-width="1.0" />
<path d="M 74.5 163.25 L 82.5 163.25 L 82.5 170.75 L 74.5 170.75 L 74.5 163.25 Z" fill="#ffffff" stroke="none" stroke-width="1.0" />
<text x='74.5' y='170.75' font-family="Default" font-size="10.0" fill="#404040" >5</text>
<path d="M 84.68 97.04 L 85.68 97.04 L 85.68 30.0 L 84.68 30.0 M 84.68 97.04 Z" fill="#404040" stroke="none" stroke-width="0.75" />
<path d="M 98.25 90.0 L 114.25 90.0 Z" fill="none" stroke="#d6d6d6" stroke-width="0.75" />
<path d="M 98.25 98.0 L 114.25 98.0 Z" fill="none" stroke="#d6d6d6" stroke-width="0.75" />
<path d="M 101.77 63.232 C 101.77 64.456 102.965195 65.68 104.145996 65.68 C 107.745995 65.68 111.34599 63.232 111.34599 60.856 C 111.34599 59.6752 110.121994 58.48 108.96999 58.48 C 105.369995 58.48 101.77 60.856 101.77 63.232 Z" fill="#404040" stroke="none" stroke-width="1.0" />
<path d="M 100.25 163.25 L 108.25 163.25 L 108.25 170.75 L 100.25 170.75 L 100.25 163.25 Z" fill="#ffffff" stroke="none" stroke-width="1.0" />
<text x='100.25' y='170.75' font-family="Default" font-size="10.0" fill="#404040" >5</text>
<path d="M 101.77 71.232 C 101.77 72.456 102.965195 73.68 104.145996 73.68 C 107.745995 73.68 111.34599 71.232 111.34599 68.856 C 111.34599 67.6752 110.121994 66.48 108.96999 66.48 C 105.369995 66.48 101.77 68.856 101.77 71.232 Z" fill="#404040" stroke="none" stroke-width="1.0" />
<path d="M 100.25 173.25 L 108.25 173.25 L 108.25 180.75 L 100.25 180.75 L 100.25 173.25 Z" fill="#ffffff" stroke="none" stroke-width="1.0" />
<text x='100.25' y='180.75' font-family="Default" font-size="10.0" fill="#404040" >7</text>
<path d="M 101.77 83.232 C 101.77 84.456 102.965195 85.68 104.145996 85.68 C 107.745995 85.68 111.34599 83.232 111.34599 80.856 C 111.34599 79.6752 110.121994 78.48 108.96999 78.48 C 105.369995 78.48 101.77 80.856 101.77 83.232 Z" fill="#404040" stroke="none" stroke-width="1.0" />
<path d="M 100.25 183.25 L 108.25 183.25 L 108.25 190.75 L 100.25 190.75 L 100.25 183.25 Z" fill="#ffffff" stroke="none" stroke-width="1.0" />
<text x='100.25' y='190.75' font-family="Default" font-size="10.0" fill="#404040" >7</text>
<path d="M 101.77 99.232 C 101.77 100.456 102.965195 101.68 104.145996 101.68 C 107.745995 101.68 111.34599 99.232 111.34599 96.856 C 111.34599 95.6752 110.121994 94.48 108.96999 94.48 C 105.369995 94.48 101.77 96.856 101.77 99.232 Z" fill="#404040" stroke="none" stroke-width="1.0" />
<path d="M 100.25 193.25 L 108.25 193.25 L 108.25 200.75 L 100.25 200.75 L 100.25 193.25 Z" fill="#ffffff" stroke="none" stroke-width="1.0" />
<text x='100.25' y='200.75' font-family="Default" font-size="10.0" fill="#404040" >5</text>
<path d="M 110.43 97.04 L 111.43 97.04 L 111.43 30.0 L 110.43 30.0 M 110.43 97.04 Z" fill="#404040" stroke="none" stroke-width="0.75" /></g>
<text x='522.0' y='68.0' font-family="Default" font-size="10.0" fill="#ff0000" >4</text>
<path d="M 521.0 70.0 L 521.0 102.0 Z" fill="#000000" stroke="#000000" stroke-width="0.75" />
<path d="M 664.0 70.0 L 664.0 102.0 Z" fill="#000000" stroke="#000000" stroke-width="0.75" />
<path d="M 521.0 167.0 L 521.0 217.0 Z" fill="#000000" stroke="#000000" stroke-width="0.75" />
<path d="M 664.0 167.0 L 664.0 217.0 Z" fill="#000000" stroke="#000000" stroke-width="0.75" /><g transform="translate(664.0,20.0)">
<path d="M 0.0 0.0 L 143.0 0.0 L 143.0 218.0 L 0.0 218.0 L 0.0 0.0 Z" fill="#ffffff" stroke="none" stroke-width="1.0" />
<path d="M 0.0 50.0 L 143.0 50.0 M 0.0 58.0 L 143.0 58.0 M 0.0 66.0 L 143.0 66.0 M 0.0 74.0 L 143.0 74.0 M 0.0 82.0 L 143.0 82.0 Z" fill="none" stroke="#d6d6d6" stroke-width="0.75" />
<path d="M 0.0 147.0 L 143.0 147.0 M 0.0 157.0 L 143.0 157.0 M 0.0 167.0 L 143.0 167.0 M 0.0 177.0 L 143.0 177.0 M 0.0 187.0 L 143.0 187.0 M 0.0 197.0 L 143.0 197.0 Z" fill="none" stroke="#d6d6d6" stroke-width="0.75" />
<path d="M 21.0 90.0 L 37.0 90.0 Z" fill="none" stroke="#d6d6d6" stroke-width="0.75" />
<path d="M 24.52 91.232 C 24.52 92.456 25.7152 93.68 26.896 93.68 C 30.496 93.68 34.096 91.232 34.096 88.856 C 34.096 87.6752 32.872 86.48 31.720001 86.48 C 28.12 86.48 24.52 88.856 24.52 91.232 Z" fill="#404040" stroke="none" stroke-width="1.0" />
<path d="M 23.0 183.25 L 31.0 183.25 L 31.0 190.75 L 23.0 190.75 L 23.0 183.25 Z" fill="#ffffff" stroke="none" stroke-width="1.0" />
<text x='23.0' y='190.75' font-family="Default" font-size="10.0" fill="#404040" >3</text>
<path d="M 24.52 75.232 C 24.52 76.456 25.7152 77.68 26.896 77.68 C 30.496 77.68 34.096 75.232 34.096 72.856 C 34.096 71.6752 32.872 70.48 31.720001 70.48 C 28.12 70.48 24.52 72.856 24.52 75.232 Z" fill="#404040" stroke="none" stroke-width="1.0" />
<path d="M 23.0 173.25 L 31.0 173.25 L 31.0 180.75 L 23.0 180.75 L 23.0 173.25 Z" fill="#ffffff" stroke="none" stroke-width="1.0" />
<text x='23.0' y='180.75' font-family="Default" font-size="10.0" fill="#404040" >5</text>
<path d="M 24.52 63.232 C 24.52 64.456 25.7152 65.68 26.896 65.68 C 30.496 65.68 34.096 63.232 34.096 60.856 C 34.096 59.6752 32.872 58.48 31.720001 58.48 C 28.12 58.48 24.52 60.856 24.52 63.232 Z" fill="#404040" stroke="none" stroke-width="1.0" />
<path d="M 23.0 163.25 L 31.0 163.25 L 31.0 170.75 L 23.0 170.75 L 23.0 163.25 Z" fill="#ffffff" stroke="none" stroke-width="1.0" />
<text x='23.0' y='170.75' font-family="Default" font-size="10.0" fill="#404040" >5</text>
<path d="M 24.52 55.232 C 24.52 56.456 25.7152 57.68 26.896 57.68 C 30.496 57.68 34.096 55.232 34.096 52.856 C 34.096 51.6752 32.872 50.48 31.720001 50.48 C 28.12 50.48 24.52 52.856 24.52 55.232 Z" fill="#404040" stroke="none" stroke-width="1.0" />
<path d="M 23.0 153.25 L 31.0 153.25 L 31.0 160.75 L 23.0 160.75 L 23.0 153.25 Z" fill="#ffffff" stroke="none" stroke-width="1.0" />
<text x='23.0' y='160.75' font-family="Default" font-size="10.0" fill="#404040" >5</text>
<path d="M 33.18 89.04 L 34.18 89.04 L 34.18 22.0 L 33.18 22.0 M 33.18 89.04 Z" fill="#404040" stroke="none" stroke-width="0.75" />
<path d="M 46.75 90.0 L 62.75 90.0 Z" fill="none" stroke="#d6d6d6" stroke-width="0.75" />
<path d="M 50.27 91.232 C 50.27 92.456 51.465202 93.68 52.646 93.68 C 56.246002 93.68 59.846 91.232 59.846 88.856 C 59.846 87.6752 58.622 86.48 57.47 86.48 C 53.87 86.48 50.27 88.856 50.27 91.232 Z" fill="#404040" stroke="none" stroke-width="1.0" />
<path d="M 48.75 183.25 L 56.75 183.25 L 56.75 190.75 L 48.75 190.75 L 48.75 183.25 Z" fill="#ffffff" stroke="none" stroke-width="1.0" />
<text x='48.75' y='190.75' font-family="Default" font-size="10.0" fill="#404040" >3</text>
<path d="M 50.27 75.232 C 50.27 76.456 51.465202 77.68 52.646 77.68 C 56.246002 77.68 59.846 75.232 59.846 72.856 C 59.846 71.6752 58.622 70.48 57.47 70.48 C 53.87 70.48 50.27 72.856 50.27 75.232 Z" fill="#404040" stroke="none" stroke-width="1.0" />
<path d="M 48.75 173.25 L 56.75 173.25 L 56.75 180.75 L 48.75 180.75 L 48.75 173.25 Z" fill="#ffffff" stroke="none" stroke-width="1.0" />
<text x='48.75' y='180.75' font-family="Default" font-size="10.0" fill="#404040" >5</text>
<path d="M 50.27 63.232 C 50.27 64.456 51.465202 65.68 52.646 65.68 C 56.246002 65.68 59.846 63.232 59.846 60.856 C 59.846 59.6752 58.622 58.48 57.47 58.48 C 53.87 58.48 50.27 60.856 50.27 63.232 Z" fill="#404040" stroke="none" stroke-width="1.0" />
<path d="M 48.75 163.25 L 56.75 163.25 L 56.75 170.75 L 48.75 170.75 L 48.75 163.25 Z" fill="#ffffff" stroke="none" stroke-width="1.0" />
<text x='48.75' y='170.75' font-family="Default" font-size="10.0" fill="#404040" >5</text>
<path d="M 50.27 55.232 C 50.27 56.456 51.465202 57.68 52.646 57.68 C 56.246002 57.68 59.846 55.232 59.846 52.856 C 59.846 51.6752 58.622 50.48 57.47 50.48 C 53.87 50.48 50.27 52.856 50.27 55.232 Z" fill="#404040" stroke="none" stroke-width="1.0" />
<path d="M 48.75 153.25 L 56.75 153.25 L 56.75 160.75 L 48.75 160.75 L 48.75 153.25 Z" fill="#ffffff" stroke="none" stroke-width="1.0" />
<text x='48.75' y='160.75' font-family="Default" font-size="10.0" fill="#404040" >5</text>
<path d="M 58.93 89.04 L 59.93 89.04 L 59.93 22.0 L 58.93 22.0 M 58.93 89.04 Z" fill="#404040" stroke="none" stroke-width="0.75" />
<path d="M 72.5 90.0 L 88.5 90.0 Z" fill="none" stroke="#d6d6d6" stroke-width="0.75" />
<path d="M 72.5 98.0 L 88.5 98.0 Z" fill="none" stroke="#d6d6d6" stroke-width="0.75" />
<path d="M 76.02 103.232 C 76.02 104.456 77.215195 105.68 78.395996 105.68 C 81.995995 105.68 85.59599 103.232 85.59599 100.856 C 85.59599 99.6752 84.371994 98.48 83.21999 98.48 C 79.619995 98.48 76.02 100.856 76.02 103.232 Z" fill="#404040" stroke="none" stroke-width="1.0" />
<path d="M 74.5 193.25 L 82.5 193.25 L 82.5 200.75 L 74.5 200.75 L 74.5 193.25 Z" fill="#ffffff" stroke="none" stroke-width="1.0" />
<text x='74.5' y='200.75' font-family="Default" font-size="10.0" fill="#404040" >3</text>
<path d="M 76.02 87.232 C 76.02 88.456 77.215195 89.68 78.395996 89.68 C 81.995995 89.68 85.59599 87.232 85.59599 84.856 C 85.59599 83.6752 84.371994 82.48 83.21999 82.48 C 79.619995 82.48 76.02 84.856 76.02 87.232 Z" fill="#404040" stroke="none" stroke-width="1.0" />
<path d="M 74.5 183.25 L 82.5 183.25 L 82.5 190.75 L 74.5 190.75 L 74.5 183.25 Z" fill="#ffffff" stroke="none" stroke-width="1.0" />
<text x='74.5' y='190.75' font-family="Default" font-size="10.0" fill="#404040" >5</text>
<path d="M 76.02 75.232 C 76.02 76.456 77.215195 77.68 78.395996 77.68 C 81.995995 77.68 85.59599 75.232 85.59599 72.856 C 85.59599 71.6752 84.371994 70.48 83.21999 70.48 C 79.619995 70.48 76.02 72.856 76.02 75.232 Z" fill="#404040" stroke="none" stroke-width="1.0" />
<path d="M 74.5 173.25 L 82.5 173.25 L 82.5 180.75 L 74.5 180.75 L 74.5 173.25 Z" fill="#ffffff" stroke="none" stroke-width="1.0" />
<text x='74.5' y='180.75' font-family="Default" font-size="10.0" fill="#404040" >5</text>
<path d="M 76.02 67.232 C 76.02 68.456 77.215195 69.68 78.395996 69.68 C 81.995995 69.68 85.59599 67.232 85.59599 64.856 C 85.59599 63.6752 84.371994 62.48 83.21999 62.48 C 79.619995 62.48 76.02 64.856 76.02 67.232 Z" fill="#404040" stroke="none" stroke-width="1.0" />
<path d="M 74.5 163.25 L 82.5 163.25 L 82.5 170.75 L 74.5 170.75 L 74.5 163.25 Z" fill="#ffffff" stroke="none" stroke-width="1.0" />
<text x='74.5' y='170.75' font-family="Default" font-size="10.0" fill="#404040" >4</text>
<path d="M 84.68 101.04 L 85.68 101.04 L 85.68 34.0 L 84.68 34.0 M 84.68 101.04 Z" fill="#404040" stroke="none" stroke-width="0.75" />
<path d="M 98.25 90.0 L 114.25 90.0 Z" fill="none" stroke="#d6d6d6" stroke-width="0.75" />
<path d="M 98.25 98.0 L 114.25 98.0 Z" fill="none" stroke="#d6d6d6" stroke-width="0.75" />
<path d="M 101.77 103.232 C 101.77 104.456 102.965195 105.68 104.145996 105.68 C 107.745995 105.68 111.34599 103.232 111.34599 100.856 C 111.34599 99.6752 110.121994 98.48 108.96999 98.48 C 105.369995 98.48 101.77 100.856 101.77 103.232 Z" fill="#404040" stroke="none" stroke-width="1.0" />
<path d="M 100.25 193.25 L 108.25 193.25 L 108.25 200.75 L 100.25 200.75 L 100.25 193.25 Z" fill="#ffffff" stroke="none" stroke-width="1.0" />
<text x='100.25' y='200.75' font-family="Default" font-size="10.0" fill="#404040" >3</text>
<path d="M 101.77 87.232 C 101.77 88.456 102.965195 89.68 104.145996 89.68 C 107.745995 89.68 111.34599 87.232 111.34599 84.856 C 111.34599 83.6752 110.121994 82.48 108.96999 82.48 C 105.369995 82.48 101.77 84.856 101.77 87.232 Z" fill="#404040" stroke="none" stroke-width="1.0" />
<path d="M 100.25 183.25 L 108.25 183.25 L 108.25 190.75 L 100.25 190.75 L 100.25 183.25 Z" fill="#ffffff" stroke="none" stroke-width="1.0" />
<text x='100.25' y='190.75' font-family="Default" font-size="10.0" fill="#404040" >5</text>
<path d="M 101.77 75.232 C 101.77 76.456 102.965195 77.68 104.145996 77.68 C 107.745995 77.68 111.34599 75.232 111.34599 72.856 C 111.34599 71.6752 110.121994 70.48 108.96999 70.48 C 105.369995 70.48 101.77 72.856 101.77 75.232 Z" fill="#404040" stroke="none" stroke-width="1.0" />
<path d="M 100.25 173.25 L 108.25 173.25 L 108.25 180.75 L 100.25 180.75 L 100.25 173.25 Z" fill="#ffffff" stroke="none" stroke-width="1.0" />
<text x='100.25' y='180.75' font-family="Default" font-size="10.0" fill="#404040" >5</text>
<path d="M 101.77 67.232 C 101.77 68.456 102.965195 69.68 104.145996 69.68 C 107.745995 69.68 111.34599 67.232 111.34599 64.856 C 111.34599 63.6752 110.121994 62.48 108.96999 62.48 C 105.369995 62.48 101.77 64.856 101.77 67.232 Z" fill="#404040" stroke="none" stroke-width="1.0" />
<path d="M 100.25 163.25 L 108.25 163.25 L 108.25 170.75 L 100.25 170.75 L 100.25 163.25 Z" fill="#ffffff" stroke="none" stroke-width="1.0" />
<text x='100.25' y='170.75' font-family="Default" font-size="10.0" fill="#404040" >4</text>
<path d="M 110.43 101.04 L 111.43 101.04 L 111.43 34.0 L 110.43 34.0 M 110.43 101.04 Z" fill="#404040" stroke="none" stroke-width="0.75" /></g>
<text x='665.0' y='68.0' font-family="Default" font-size="10.0" fill="#ff0000" >5</text>
<path d="M 664.0 70.0 L 664.0 102.0 Z" fill="#000000" stroke="#000000" stroke-width="0.75" />
<path d="M 807.0 70.0 L 807.0 102.0 Z" fill="#000000" stroke="#000000" stroke-width="0.75" />
<path d="M 664.0 167.0 L 664.0 217.0 Z" fill="#000000" stroke="#000000" stroke-width="0.75" />
<path d="M 807.0 167.0 L 807.0 217.0 Z" fill="#000000" stroke="#000000" stroke-width="0.75" /><g transform="translate(807.0,20.0)">
<path d="M 0.0 0.0 L 143.0 0.0 L 143.0 218.0 L 0.0 218.0 L 0.0 0.0 Z" fill="#ffffff" stroke="none" stroke-width="1.0" />
<path d="M 0.0 50.0 L 143.0 50.0 M 0.0 58.0 L 143.0 58.0 M 0.0 66.0 L 143.0 66.0 M 0.0 74.0 L 143.0 74.0 M 0.0 82.0 L 143.0 82.0 Z" fill="none" stroke="#d6d6d6" stroke-width="0.75" />
<path d="M 0.0 147.0 L 143.0 147.0 M 0.0 157.0 L 143.0 157.0 M 0.0 167.0 L 143.0 167.0 M 0.0 177.0 L 143.0 177.0 M 0.0 187.0 L 143.0 187.0 M 0.0 197.0 L 143.0 197.0 Z" fill="none" stroke="#d6d6d6" stroke-width="0.75" />
<path d="M 24.52 87.232 C 24.52 88.456 25.7152 89.68 26.896 89.68 C 30.496 89.68 34.096 87.232 34.096 84.856 C 34.096 83.6752 32.872 82.48 31.720001 82.48 C 28.12 82.48 24.52 84.856 24.52 87.232 Z" fill="#404040" stroke="none" stroke-width="1.0" />
<path d="M 23.0 183.25 L 31.0 183.25 L 31.0 190.75 L 23.0 190.75 L 23.0 183.25 Z" fill="#ffffff" stroke="none" stroke-width="1.0" />
<text x='23.0' y='190.75' font-family="Default" font-size="10.0" fill="#404040" >5</text>
<path d="M 24.52 71.232 C 24.52 72.456 25.7152 73.68 26.896 73.68 C 30.496 73.68 34.096 71.232 34.096 68.856 C 34.096 67.6752 32.872 66.48 31.720001 66.48 C 28.12 66.48 24.52 68.856 24.52 71.232 Z" fill="#404040" stroke="none" stroke-width="1.0" />
<path d="M 23.0 173.25 L 31.0 173.25 L 31.0 180.75 L 23.0 180.75 L 23.0 173.25 Z" fill="#ffffff" stroke="none" stroke-width="1.0" />
<text x='23.0' y='180.75' font-family="Default" font-size="10.0" fill="#404040" >7</text>
<path d="M 24.52 59.232 C 24.52 60.456 25.7152 61.68 26.896 61.68 C 30.496 61.68 34.096 59.232 34.096 56.856 C 34.096 55.6752 32.872 54.48 31.720001 54.48 C 28.12 54.48 24.52 56.856 24.52 59.232 Z" fill="#404040" stroke="none" stroke-width="1.0" />
<path d="M 23.0 163.25 L 31.0 163.25 L 31.0 170.75 L 23.0 170.75 L 23.0 163.25 Z" fill="#ffffff" stroke="none" stroke-width="1.0" />
<text x='23.0' y='170.75' font-family="Default" font-size="10.0" fill="#404040" >7</text>
<path d="M 24.52 51.232 C 24.52 52.456 25.7152 53.68 26.896 53.68 C 30.496 53.68 34.096 51.232 34.096 48.856 C 34.096 47.6752 32.872 46.48 31.720001 46.48 C 28.12 46.48 24.52 48.856 24.52 51.232 Z" fill="#404040" stroke="none" stroke-width="1.0" />
<path d="M 23.0 153.25 L 31.0 153.25 L 31.0 160.75 L 23.0 160.75 L 23.0 153.25 Z" fill="#ffffff" stroke="none" stroke-width="1.0" />
<text x='23.0' y='160.75' font-family="Default" font-size="10.0" fill="#404040" >6</text>
<path d="M 24.5 50.96 L 25.5 50.96 L 25.5 117.0 L 24.5 117.0 M 24.5 50.96 Z" fill="#404040" stroke="none" stroke-width="0.75" />
<path d="M 50.27 87.232 C 50.27 88.456 51.465202 89.68 52.646 89.68 C 56.246002 89.68 59.846 87.232 59.846 84.856 C 59.846 83.6752 58.622 82.48 57.47 82.48 C 53.87 82.48 50.27 84.856 50.27 87.232 Z" fill="#404040" stroke="none" stroke-width="1.0" />
<path d="M 48.75 183.25 L 56.75 183.25 L 56.75 190.75 L 48.75 190.75 L 48.75 183.25 Z" fill="#ffffff" stroke="none" stroke-width="1.0" />
<text x='48.75' y='190.75' font-family="Default" font-size="10.0" fill="#404040" >5</text>
<path d="M 50.27 71.232 C 50.27 72.456 51.465202 73.68 52.646 73.68 C 56.246002 73.68 59.846 71.232 59.846 68.856 C 59.846 67.6752 58.622 66.48 57.47 66.48 C 53.87 66.48 50.27 68.856 50.27 71.232 Z" fill="#404040" stroke="none" stroke-width="1.0" />
<path d="M 48.75 173.25 L 56.75 173.25 L 56.75 180.75 L 48.75 180.75 L 48.75 173.25 Z" fill="#ffffff" stroke="none" stroke-width="1.0" />
<text x='48.75' y='180.75' font-family="Default" font-size="10.0" fill="#404040" >7</text>
<path d="M 50.27 59.232 C 50.27 60.456 51.465202 61.68 52.646 61.68 C 56.246002 61.68 59.846 59.232 59.846 56.856 C 59.846 55.6752 58.622 54.48 57.47 54.48 C 53.87 54.48 50.27 56.856 50.27 59.232 Z" fill="#404040" stroke="none" stroke-width="1.0" />
<path d="M 48.75 163.25 L 56.75 163.25 L 56.75 170.75 L 48.75 170.75 L 48.75 163.25 Z" fill="#ffffff" stroke="none" stroke-width="1.0" />
<text x='48.75' y='170.75' font-family="Default" font-size="10.0" fill="#404040" >7</text>
<path d="M 50.27 51.232 C 50.27 52.456 51.465202 53.68 52.646 53.68 C 56.246002 53.68 59.846 51.232 59.846 48.856 C 59.846 47.6752 58.622 46.48 57.47 46.48 C 53.87 46.48 50.27 48.856 50.27 51.232 Z" fill="#404040" stroke="none" stroke-width="1.0" />
<path d="M 48.75 153.25 L 56.75 153.25 L 56.75 160.75 L 48.75 160.75 L 48.75 153.25 Z" fill="#ffffff" stroke="none" stroke-width="1.0" />
<text x='48.75' y='160.75' font-family="Default" font-size="10.0" fill="#404040" >6</text>
<path d="M 50.25 50.96 L 51.25 50.96 L 51.25 117.0 L 50.25 117.0 M 50.25 50.96 Z" fill="#404040" stroke="none" stroke-width="0.75" />
<path d="M 72.5 90.0 L 88.5 90.0 Z" fill="none" stroke="#d6d6d6" stroke-width="0.75" />
<path d="M 72.5 98.0 L 88.5 98.0 Z" fill="none" stroke="#d6d6d6" stroke-width="0.75" />
<path d="M 76.02 99.232 C 76.02 100.456 77.215195 101.68 78.395996 101.68 C 81.995995 101.68 85.59599 99.232 85.59599 96.856 C 85.59599 95.6752 84.371994 94.48 83.21999 94.48 C 79.619995 94.48 76.02 96.856 76.02 99.232 Z" fill="#404040" stroke="none" stroke-width="1.0" />
<path d="M 74.5 193.25 L 82.5 193.25 L 82.5 200.75 L 74.5 200.75 L 74.5 193.25 Z" fill="#ffffff" stroke="none" stroke-width="1.0" />
<text x='74.5' y='200.75' font-family="Default" font-size="10.0" fill="#404040" >5</text>
<path d="M 76.02 83.232 C 76.02 84.456 77.215195 85.68 78.395996 85.68 C 81.995995 85.68 85.59599 83.232 85.59599 80.856 C 85.59599 79.6752 84.371994 78.48 83.21999 78.48 C 79.619995 78.48 76.02 80.856 76.02 83.232 Z" fill="#404040" stroke="none" stroke-width="1.0" />
<path d="M 74.5 183.25 L 82.5 183.25 L 82.5 190.75 L 74.5 190.75 L 74.5 183.25 Z" fill="#ffffff" stroke="none" stroke-width="1.0" />
<text x='74.5' y='190.75' font-family="Default" font-size="10.0" fill="#404040" >7</text>
<path d="M 76.02 71.232 C 76.02 72.456 77.215195 73.68 78.395996 73.68 C 81.995995 73.68 85.59599 71.232 85.59599 68.856 C 85.59599 67.6752 84.371994 66.48 83.21999 66.48 C 79.619995 66.48 76.02 68.856 76.02 71.232 Z" fill="#404040" stroke="none" stroke-width="1.0" />
<path d="M 74.5 173.25 L 82.5 173.25 L 82.5 180.75 L 74.5 180.75 L 74.5 173.25 Z" fill="#ffffff" stroke="none" stroke-width="1.0" />
<text x='74.5' y='180.75' font-family="Default" font-size="10.0" fill="#404040" >7</text>
<path d="M 76.02 63.232 C 76.02 64.456 77.215195 65.68 78.395996 65.68 C 81.995995 65.68 85.59599 63.232 85.59599 60.856 C 85.59599 59.6752 84.371994 58.48 83.21999 58.48 C 79.619995 58.48 76.02 60.856 76.02 63.232 Z" fill="#404040" stroke="none" stroke-width="1.0" />
<path d="M 74.5 163.25 L 82.5 163.25 L 82.5 170.75 L 74.5 170.75 L 74.5 163.25 Z" fill="#ffffff" stroke="none" stroke-width="1.0" />
<text x='74.5' y='170.75' font-family="Default" font-size="10.0" fill="#404040" >5</text>
<path d="M 84.68 97.04 L 85.68 97.04 L 85.68 30.0 L 84.68 30.0 M 84.68 97.04 Z" fill="#404040" stroke="none" stroke-width="0.75" />
<path d="M 98.25 90.0 L 114.25 90.0 Z" fill="none" stroke="#d6d6d6" stroke-width="0.75" />
<path d="M 98.25 98.0 L 114.25 98.0 Z" fill="none" stroke="#d6d6d6" stroke-width="0.75" />
<path d="M 101.77 63.232 C 101.77 64.456 102.965195 65.68 104.145996 65.68 C 107.745995 65.68 111.34599 63.232 111.34599 60.856 C 111.34599 59.6752 110.121994 58.48 108.96999 58.48 C 105.369995 58.48 101.77 60.856 101.77 63.232 Z" fill="#404040" stroke="none" stroke-width="1.0" />
<path d="M 100.25 163.25 L 108.25 163.25 L 108.25 170.75 L 100.25 170.75 L 100.25 163.25 Z" fill="#ffffff" stroke="none" stroke-width="1.0" />
<text x='100.25' y='170.75' font-family="Default" font-size="10.0" fill="#404040" >5</text>
<path d="M 101.77 71.232 C 101.77 72.456 102.965195 73.68 104.145996 73.68 C 107.745995 73.68 111.34599 71.232 111.34599 68.856 C 111.34599 67.6752 110.121994 66.48 108.96999 66.48 C 105.369995 66.48 101.77 68.856 101.77 71.232 Z" fill="#404040" stroke="none" stroke-width="1.0" />
<path d="M 100.25 173.25 L 108.25 173.25 L 108.25 180.75 L 100.25 180.75 L 100.25 173.25 Z" fill="#ffffff" stroke="none" stroke-width="1.0" />
<text x='100.25' y='180.75' font-family="Default" font-size="10.0" fill="#404040" >7</text>
<path d="M 101.77 83.232 C 101.77 84.456 102.965195 85.68 104.145996 85.68 C 107.745995 85.68 111.34599 83.232 111.34599 80.856 C 111.34599 79.6752 110.121994 78.48 108.96999 78.48 C 105.369995 78.48 101.77 80.856 101.77 83.232 Z" fill="#404040" stroke="none" stroke-width="1.0" />
<path d="M 100.25 183.25 L 108.25 183.25 L 108.25 190.75 L 100.25 190.75 L 100.25 183.25 Z" fill="#ffffff" stroke="none" stroke-width="1.0" />
<text x='100.25' y='190.75' font-family="Default" font-size="10.0" fill="#404040" >7</text>
<path d="M 101.77 99.232 C 101.77 100.456 102.965195 101.68 104.145996 101.68 C 107.745995 101.68 111.34599 99.232 111.34599 96.856 C 111.34599 95.6752 110.121994 94.48 108.96999 94.48 C 105.369995 94.48 101.77 96.856 101.77 99.232 Z" fill="#404040" stroke="none" stroke-width="1.0" />
<path d="M 100.25 193.25 L 108.25 193.25 L 108.25 200.75 L 100.25 200.75 L 100.25 193.25 Z" fill="#ffffff" stroke="none" stroke-width="1.0" />
<text x='100.25' y='200.75' font-family="Default" font-size="10.0" fill="#404040" >5</text>
<path d="M 110.43 97.04 L 111.43 97.04 L 111.43 30.0 L 110.43 30.0 M 110.43 97.04 Z" fill="#404040" stroke="none" stroke-width="0.75" /></g>
<text x='808.0' y='68.0' font-family="Default" font-size="10.0" fill="#ff0000" >6</text>
<path d="M 807.0 70.0 L 807.0 102.0 Z" fill="#000000" stroke="#000000" stroke-width="0.75" />
<path d="M 950.0 70.0 L 950.0 102.0 Z" fill="#000000" stroke="#000000" stroke-width="0.75" />
<path d="M 807.0 167.0 L 807.0 217.0 Z" fill="#000000" stroke="#000000" stroke-width="0.75" />
<path d="M 950.0 167.0 L 950.0 217.0 Z" fill="#000000" stroke="#000000" stroke-width="0.75" /><g transform="translate(20.0,249.0)">
<path d="M 0.0 0.0 L 143.0 0.0 L 143.0 222.0 L 0.0 222.0 L 0.0 0.0 Z" fill="#ffffff" stroke="none" stroke-width="1.0" />
<path d="M 0.0 54.0 L 143.0 54.0 M 0.0 62.0 L 143.0 62.0 M 0.0 70.0 L 143.0 70.0 M 0.0 78.0 L 143.0 78.0 M 0.0 86.0 L 143.0 86.0 Z" fill="none" stroke="#d6d6d6" stroke-width="0.75" />
<path d="M 0.0 151.0 L 143.0 151.0 M 0.0 161.0 L 143.0 161.0 M 0.0 171.0 L 143.0 171.0 M 0.0 181.0 L 143.0 181.0 M 0.0 191.0 L 143.0 191.0 M 0.0 201.0 L 143.0 201.0 Z" fill="none" stroke="#d6d6d6" stroke-width="0.75" />
<path d="M 21.0 94.0 L 37.0 94.0 Z" fill="none" stroke="#d6d6d6" stroke-width="0.75" />
<path d="M 24.52 95.232 C 24.52 96.456 25.7152 97.68 26.896 97.68 C 30.496 97.68 34.096 95.232 34.096 92.856 C 34.096 91.6752 32.872 90.48 31.720001 90.48 C 28.12 90.48 24.52 92.856 24.52 95.232 Z" fill="#404040" stroke="none" stroke-width="1.0" />
<path d="M 23.0 187.25 L 31.0 187.25 L 31.0 194.75 L 23.0 194.75 L 23.0 187.25 Z" fill="#ffffff" stroke="none" stroke-width="1.0" />
<text x='23.0' y='194.75' font-family="Default" font-size="10.0" fill="#404040" >3</text>
<path d="M 24.52 79.232 C 24.52 80.456 25.7152 81.68 26.896 81.68 C 30.496 81.68 34.096 79.232 34.096 76.856 C 34.096 75.6752 32.872 74.48 31.720001 74.48 C 28.12 74.48 24.52 76.856 24.52 79.232 Z" fill="#404040" stroke="none" stroke-width="1.0" />
<path d="M 23.0 177.25 L 31.0 177.25 L 31.0 184.75 L 23.0 184.75 L 23.0 177.25 Z" fill="#ffffff" stroke="none" stroke-width="1.0" />
<text x='23.0' y='184.75' font-family="Default" font-size="10.0" fill="#404040" >5</text>
<path d="M 24.52 67.232 C 24.52 68.456 25.7152 69.68 26.896 69.68 C 30.496 69.68 34.096 67.232 34.096 64.856 C 34.096 63.6752 32.872 62.48 31.720001 62.48 C 28.12 62.48 24.52 64.856 24.52 67.232 Z" fill="#404040" stroke="none" stroke-width="1.0" />
<path d="M 23.0 167.25 L 31.0 167.25 L 31.0 174.75 L 23.0 174.75 L 23.0 167.25 Z" fill="#ffffff" stroke="none" stroke-width="1.0" />
<text x='23.0' y='174.75' font-family="Default" font-size="10.0" fill="#404040" >5</text>
<path d="M 24.52 59.232 C 24.52 60.456 25.7152 61.68 26.896 61.68 C 30.496 61.68 34.096 59.232 34.096 56.856 C 34.096 55.6752 32.872 54.48 31.720001 54.48 C 28.12 54.48 24.52 56.856 24.52 59.232 Z" fill="#404040" stroke="none" stroke-width="1.0" />
<path d="M 23.0 157.25 L 31.0 157.25 L 31.0 164.75 L 23.0 164.75 L 23.0 157.25 Z" fill="#ffffff" stroke="none" stroke-width="1.0" />
<text x='23.0' y='164.75' font-family="Default" font-size="10.0" fill="#404040" >5</text>
<path d="M 33.18 93.04 L 34.18 93.04 L 34.18 26.0 L 33.18 26.0 M 33.18 93.04 Z" fill="#404040" stroke="none" stroke-width="0.75" />
<path d="M 42.0 94.0 L 58.0 94.0 Z" fill="none" stroke="#d6d6d6" stroke-width="0.75" />
<path d="M 45.52 95.232 C 45.52 96.456 46.715202 97.68 47.896 97.68 C 51.496002 97.68 55.096 95.232 55.096 92.856 C 55.096 91.6752 53.872 90.48 52.72 90.48 C 49.12 90.48 45.52 92.856 45.52 95.232 Z" fill="#404040" stroke="none" stroke-width="1.0" />
<path d="M 44.0 187.25 L 52.0 187.25 L 52.0 194.75 L 44.0 194.75 L 44.0 187.25 Z" fill="#ffffff" stroke="none" stroke-width="1.0" />
<text x='44.0' y='194.75' font-family="Default" font-size="10.0" fill="#404040" >3</text>
<path d="M 45.52 79.232 C 45.52 80.456 46.715202 81.68 47.896 81.68 C 51.496002 81.68 55.096 79.232 55.096 76.856 C 55.096 75.6752 53.872 74.48 52.72 74.48 C 49.12 74.48 45.52 76.856 45.52 79.232 Z" fill="#404040" stroke="none" stroke-width="1.0" />
<path d="M 44.0 177.25 L 52.0 177.25 L 52.0 184.75 L 44.0 184.75 L 44.0 177.25 Z" fill="#ffffff" stroke="none" stroke-width="1.0" />
<text x='44.0' y='184.75' font-family="Default" font-size="10.0" fill="#404040" >5</text>
<path d="M 45.52 67.232 C 45.52 68.456 46.715202 69.68 47.896 69.68 C 51.496002 69.68 55.096 67.232 55.096 64.856 C 55.096 63.6752 53.872 62.48 52.72 62.48 C 49.12 62.48 45.52 64.856 45.52 67.232 Z" fill="#404040" stroke="none" stroke-width="1.0" />
<path d="M 44.0 167.25 L 52.0 167.25 L 52.0 174.75 L 44.0 174.75 L 44.0 167.25 Z" fill="#ffffff" stroke="none" stroke-width="1.0" />
<text x='44.0' y='174.75' font-family="Default" font-size="10.0" fill="#404040" >5</text>
<path d="M 45.52 59.232 C 45.52 60.456 46.715202 61.68 47.896 61.68 C 51.496002 61.68 55.096 59.232 55.096 56.856 C 55.096 55.6752 53.872 54.48 52.72 54.48 C 49.12 54.48 45.52 56.856 45.52 59.232 Z" fill="#404040" stroke="none" stroke-width="1.0" />
<path d="M 44.0 157.25 L 52.0 157.25 L 52.0 164.75 L 44.0 164.75 L 44.0 157.25 Z" fill="#ffffff" stroke="none" stroke-width="1.0" />
<text x='44.0' y='164.75' font-family="Default" font-size="10.0" fill="#404040" >5</text>
<path d="M 54.18 93.04 L 55.18 93.04 L 55.18 26.0 L 54.18 26.0 M 54.18 93.04 Z" fill="#404040" stroke="none" stroke-width="0.75" />
<path d="M 63.0 94.0 L 79.0 94.0 Z" fill="none" stroke="#d6d6d6" stroke-width="0.75" />
<path d="M 63.0 102.0 L 79.0 102.0 Z" fill="none" stroke="#d6d6d6" stroke-width="0.75" />
<path d="M 66.52 107.232 C 66.52 108.456 67.715195 109.68 68.895996 109.68 C 72.495995 109.68 76.09599 107.232 76.09599 104.856 C 76.09599 103.6752 74.871994 102.48 73.71999 102.48 C 70.119995 102.48 66.52 104.856 66.52 107.232 Z" fill="#404040" stroke="none" stroke-width="1.0" />
<path d="M 65.0 197.25 L 73.0 197.25 L 73.0 204.75 L 65.0 204.75 L 65.0 197.25 Z" fill="#ffffff" stroke="none" stroke-width="1.0" />
<text x='65.0' y='204.75' font-family="Default" font-size="10.0" fill="#404040" >3</text>
<path d="M 66.52 91.232 C 66.52 92.456 67.715195 93.68 68.895996 93.68 C 72.495995 93.68 76.09599 91.232 76.09599 88.856 C 76.09599 87.6752 74.871994 86.48 73.71999 86.48 C 70.119995 86.48 66.52 88.856 66.52 91.232 Z" fill="#404040" stroke="none" stroke-width="1.0" />
<path d="M 65.0 187.25 L 73.0 187.25 L 73.0 194.75 L 65.0 194.75 L 65.0 187.25 Z" fill="#ffffff" stroke="none" stroke-width="1.0" />
<text x='65.0' y='194.75' font-family="Default" font-size="10.0" fill="#404040" >5</text>
<path d="M 66.52 79.232 C 66.52 80.456 67.715195 81.68 68.895996 81.68 C 72.495995 81.68 76.09599 79.232 76.09599 76.856 C 76.09599 75.6752 74.871994 74.48 73.71999 74.48 C 70.119995 74.48 66.52 76.856 66.52 79.232 Z" fill="#404040" stroke="none" stroke-width="1.0" />
<path d="M 65.0 177.25 L 73.0 177.25 L 73.0 184.75 L 65.0 184.75 L 65.0 177.25 Z" fill="#ffffff" stroke="none" stroke-width="1.0" />
<text x='65.0' y='184.75' font-family="Default" font-size="10.0" fill="#404040" >5</text>
<path d="M 66.52 71.232 C 66.52 72.456 67.715195 73.68 68.895996 73.68 C 72.495995 73.68 76.09599 71.232 76.09599 68.856 C 76.09599 67.6752 74.871994 66.48 73.71999 66.48 C 70.119995 66.48 66.52 68.856 66.52 71.232 Z" fill="#404040" stroke="none" stroke-width="1.0" />
<path d="M 65.0 167.25 L 73.0 167.25 L 73.0 174.75 L 65.0 174.75 L 65.0 167.25 Z" fill="#ffffff" stroke="none" stroke-width="1.0" />
<text x='65.0' y='174.75' font-family="Default" font-size="10.0" fill="#404040" >4</text>
<path d="M 75.18 105.04 L 76.18 105.04 L 76.18 38.0 L 75.18 38.0 M 75.18 105.04 Z" fill="#404040" stroke="none" stroke-width="0.75" />
<path d="M 84.0 94.0 L 100.0 94.0 Z" fill="none" stroke="#d6d6d6" stroke-width="0.75" />
<path d="M 84.0 102.0 L 100.0 102.0 Z" fill="none" stroke="#d6d6d6" stroke-width="0.75" />
<path d="M 87.52 107.232 C 87.52 108.456 88.715195 109.68 89.895996 109.68 C 93.495995 109.68 97.09599 107.232 97.09599 104.856 C 97.09599 103.6752 95.871994 102.48 94.71999 102.48 C 91.119995 102.48 87.52 104.856 87.52 107.232 Z" fill="#404040" stroke="none" stroke-width="1.0" />
<path d="M 86.0 197.25 L 94.0 197.25 L 94.0 204.75 L 86.0 204.75 L 86.0 197.25 Z" fill="#ffffff" stroke="none" stroke-width="1.0" />
<text x='86.0' y='204.75' font-family="Default" font-size="10.0" fill="#404040" >3</text>
<path d="M 87.52 91.232 C 87.52 92.456 88.715195 93.68 89.895996 93.68 C 93.495995 93.68 97.09599 91.232 97.09599 88.856 C 97.09599 87.6752 95.871994 86.48 94.71999 86.48 C 91.119995 86.48 87.52 88.856 87.52 91.232 Z" fill="#404040" stroke="none" stroke-width="1.0" />
<path d="M 86.0 187.25 L 94.0 187.25 L 94.0 194.75 L 86.0 194.75 L 86.0 187.25 Z" fill="#ffffff" stroke="none" stroke-width="1.0" />
<text x='86.0' y='194.75' font-family="Default" font-size="10.0" fill="#404040" >5</text>
<path d="M 87.52 79.232 C 87.52 80.456 88.715195 81.68 89.895996 81.68 C 93.495995 81.68 97.09599 79.232 97.09599 76.856 C 97.09599 75.6752 95.871994 74.48 94.71999 74.48 C 91.119995 74.48 87.52 76.856 87.52 79.232 Z" fill="#404040" stroke="none" stroke-width="1.0" />
<path d="M 86.0 177.25 L 94.0 177.25 L 94.0 184.75 L 86.0 184.75 L 86.0 177.25 Z" fill="#ffffff" stroke="none" stroke-width="1.0" />
<text x='86.0' y='184.75' font-family="Default" font-size="10.0" fill="#404040" >5</text>
<path d="M 87.52 71.232 C 87.52 72.456 88.715195 73.68 89.895996 73.68 C 93.495995 73.68 97.09599 71.232 97.09599 68.856 C 97.09599 67.6752 95.871994 66.48 94.71999 66.48 C 91.119995 66.48 87.52 68.856 87.52 71.232 Z" fill="#404040" stroke="none" stroke-width="1.0" />
<path d="M 86.0 167.25 L 94.0 167.25 L 94.0 174.75 L 86.0 174.75 L 86.0 167.25 Z" fill="#ffffff" stroke="none" stroke-width="1.0" />
<text x='86.0' y='174.75' font-family="Default" font-size="10.0" fill="#404040" >4</text>
<path d="M 96.18 105.04 L 97.18 105.04 L 97.18 32.0 L 96.18 32.0 M 96.18 105.04 Z" fill="#404040" stroke="none" stroke-width="0.75" />
<path d="M 96.18 30.0 L 96.18 34.0 L 117.18 24.0 L 117.18 20.0 L 96.18 30.0 Z" fill="#404040" stroke="none" stroke-width="0.75" />
<path d="M 107.52 91.232 C 107.52 92.456 108.715195 93.68 109.895996 93.68 C 113.495995 93.68 117.09599 91.232 117.09599 88.856 C 117.09599 87.6752 115.871994 86.48 114.71999 86.48 C 111.119995 86.48 107.52 88.856 107.52 91.232 Z" fill="#404040" stroke="none" stroke-width="1.0" />
<path d="M 106.0 187.25 L 114.0 187.25 L 114.0 194.75 L 106.0 194.75 L 106.0 187.25 Z" fill="#ffffff" stroke="none" stroke-width="1.0" />
<text x='106.0' y='194.75' font-family="Default" font-size="10.0" fill="#404040" >5</text>
<path d="M 107.52 75.232 C 107.52 76.456 108.715195 77.68 109.895996 77.68 C 113.495995 77.68 117.09599 75.232 117.09599 72.856 C 117.09599 71.6752 115.871994 70.48 114.71999 70.48 C 111.119995 70.48 107.52 72.856 107.52 75.232 Z" fill="#404040" stroke="none" stroke-width="1.0" />
<path d="M 106.0 177.25 L 114.0 177.25 L 114.0 184.75 L 106.0 184.75 L 106.0 177.25 Z" fill="#ffffff" stroke="none" stroke-width="1.0" />
<text x='106.0' y='184.75' font-family="Default" font-size="10.0" fill="#404040" >7</text>
<path d="M 107.52 63.232 C 107.52 64.456 108.715195 65.68 109.895996 65.68 C 113.495995 65.68 117.09599 63.232 117.09599 60.856 C 117.09599 59.6752 115.871994 58.48 114.71999 58.48 C 111.119995 58.48 107.52 60.856 107.52 63.232 Z" fill="#404040" stroke="none" stroke-width="1.0" />
<path d="M 106.0 167.25 L 114.0 167.25 L 114.0 174.75 L 106.0 174.75 L 106.0 167.25 Z" fill="#ffffff" stroke="none" stroke-width="1.0" />
<text x='106.0' y='174.75' font-family="Default" font-size="10.0" fill="#404040" >7</text>
<path d="M 107.52 55.232 C 107.52 56.456 108.715195 57.68 109.895996 57.68 C 113.495995 57.68 117.09599 55.232 117.09599 52.856 C 117.09599 51.6752 115.871994 50.48 114.71999 50.48 C 111.119995 50.48 107.52 52.856 107.52 55.232 Z" fill="#404040" stroke="none" stroke-width="1.0" />
<path d="M 106.0 157.25 L 114.0 157.25 L 114.0 164.75 L 106.0 164.75 L 106.0 157.25 Z" fill="#ffffff" stroke="none" stroke-width="1.0" />
<text x='106.0' y='164.75' font-family="Default" font-size="10.0" fill="#404040" >6</text>
<path d="M 116.18 89.04 L 117.18 89.04 L 117.18 22.0 L 116.18 22.0 M 116.18 89.04 Z" fill="#404040" stroke="none" stroke-width="0.75" /></g>
<text x='21.0' y='301.0' font-family="Default" font-size="10.0" fill="#ff0000" >7</text>
<path d="M 20.0 303.0 L 20.0 400.0 Z" fill="#000000" stroke="#000000" stroke-width="0.75" />
<path d="M 163.0 303.0 L 163.0 335.0 Z" fill="#000000" stroke="#000000" stroke-width="0.75" />
<path d="M 20.0 400.0 L 20.0 450.0 Z" fill="#000000" stroke="#000000" stroke-width="0.75" />
<path d="M 163.0 400.0 L 163.0 450.0 Z" fill="#000000" stroke="#000000" stroke-width="0.75" /><g transform="translate(163.0,249.0)">
<path d="M 0.0 0.0 L 70.0 0.0 L 70.0 222.0 L 0.0 222.0 L 0.0 0.0 Z" fill="#ffffff" stroke="none" stroke-width="1.0" />
<path d="M 0.0 54.0 L 70.0 54.0 M 0.0 62.0 L 70.0 62.0 M 0.0 70.0 L 70.0 70.0 M 0.0 78.0 L 70.0 78.0 M 0.0 86.0 L 70.0 86.0 Z" fill="none" stroke="#d6d6d6" stroke-width="0.75" />
<path d="M 0.0 151.0 L 70.0 151.0 M 0.0 161.0 L 70.0 161.0 M 0.0 171.0 L 70.0 171.0 M 0.0 181.0 L 70.0 181.0 M 0.0 191.0 L 70.0 191.0 M 0.0 201.0 L 70.0 201.0 Z" fill="none" stroke="#d6d6d6" stroke-width="0.75" />
<path d="M 5.0 90.0 C 5.0 86.0 22.0 86.0 22.0 90.0 C 22.0 88.0 5.0 88.0 5.0 90.0 Z" fill="#404040" stroke="none" stroke-width="0.75" />
<path d="M 25.0 91.024 C 25.0 92.112 26.0624 93.200005 27.112 93.200005 C 30.312 93.200005 33.512 91.024 33.512 88.912 C 33.512 87.862404 32.424 86.8 31.4 86.8 C 28.2 86.8 25.0 88.912 25.0 91.024 Z" fill="none" stroke="#404040" stroke-width="1.0" />
<path d="M 5.0 74.0 C 5.0 70.0 22.0 70.0 22.0 74.0 C 22.0 72.0 5.0 72.0 5.0 74.0 Z" fill="#404040" stroke="none" stroke-width="1.0" />
<path d="M 25.0 75.024 C 25.0 76.112 26.0624 77.200005 27.112 77.200005 C 30.312 77.200005 33.512 75.024 33.512 72.912 C 33.512 71.862404 32.424 70.8 31.4 70.8 C 28.2 70.8 25.0 72.912 25.0 75.024 Z" fill="none" stroke="#404040" stroke-width="1.0" />
<path d="M 5.0 62.0 C 5.0 58.0 22.0 58.0 22.0 62.0 C 22.0 60.0 5.0 60.0 5.0 62.0 Z" fill="#404040" stroke="none" stroke-width="1.0" />
<path d="M 25.0 63.024 C 25.0 64.112 26.0624 65.2 27.112 65.2 C 30.312 65.2 33.512 63.024 33.512 60.912 C 33.512 59.8624 32.424 58.8 31.4 58.8 C 28.2 58.8 25.0 60.912 25.0 63.024 Z" fill="none" stroke="#404040" stroke-width="1.0" />
<path d="M 5.0 54.0 C 5.0 50.0 22.0 50.0 22.0 54.0 C 22.0 52.0 5.0 52.0 5.0 54.0 Z" fill="#404040" stroke="none" stroke-width="1.0" />
<path d="M 25.0 55.024 C 25.0 56.112 26.0624 57.2 27.112 57.2 C 30.312 57.2 33.512 55.024 33.512 52.912 C 33.512 51.8624 32.424 50.8 31.4 50.8 C 28.2 50.8 25.0 52.912 25.0 55.024 Z" fill="none" stroke="#404040" stroke-width="1.0" /></g>
<text x='164.0' y='301.0' font-family="Default" font-size="10.0" fill="#ff0000" >8</text>
<path d="M 163.0 303.0 L 163.0 335.0 Z" fill="#000000" stroke="#000000" stroke-width="0.75" />
<path d="M 227.0 303.0 L 228.0 303.0 L 228.0 335.0 L 227.0 335.0 L 227.0 303.0 Z" fill="#000000" stroke="#000000" stroke-width="0.75" />
<path d="M 230.0 303.0 L 233.0 303.0 L 233.0 335.0 L 230.0 335.0 L 230.0 303.0 Z" fill="#000000" stroke="#000000" stroke-width="0.75" />
<path d="M 163.0 400.0 L 163.0 450.0 Z" fill="#000000" stroke="#000000" stroke-width="0.75" />
<path d="M 227.0 400.0 L 228.0 400.0 L 228.0 450.0 L 227.0 450.0 L 227.0 400.0 Z" fill="#000000" stroke="#000000" stroke-width="0.75" />
<path d="M 230.0 400.0 L 233.0 400.0 L 233.0 450.0 L 230.0 450.0 L 230.0 400.0 Z" fill="#000000" stroke="#000000" stroke-width="0.75" />
<path d="M 235.0 303.0 L 930.0 303.0 M 235.0 311.0 L 930.0 311.0 M 235.0 319.0 L 930.0 319.0 M 235.0 327.0 L 930.0 327.0 M 235.0 335.0 L 930.0 335.0 Z" fill="none" stroke="#d6d6d6" stroke-width="0.75" />
<path d="M 235.0 400.0 L 930.0 400.0 M 235.0 410.0 L 930.0 410.0 M 235.0 420.0 L 930.0 420.0 M 235.0 430.0 L 930.0 430.0 M 235.0 440.0 L 930.0 440.0 M 235.0 450.0 L 930.0 450.0 Z" fill="none" stroke="#d6d6d6" stroke-width="0.75" />
</svg>