<svg width="960.0px" height="200.0px" xmlns="http://www.w3.org/2000/svg" version="1.1">

<path d="M 0.0 0.0 L 960.0 0.0 L 960.0 200.0 L 0.0 200.0 L 0.0 0.0 Z" fill="#ffffff" stroke="none" stroke-width="1.0" /><g transform="translate(20.0,20.0)">
<path d="M 0.0 0.0 L 271.0 0.0 L 271.0 169.0 L 0.0 169.0 L 0.0 0.0 Z" fill="#ffffff" stroke="none" stroke-width="1.0" />
<path d="M 0.0 30.0 L 271.0 30.0 M 0.0 38.0 L 271.0 38.0 M 0.0 46.0 L 271.0 46.0 M 0.0 54.0 L 271.0 54.0 M 0.0 62.0 L 271.0 62.0 Z" fill="none" stroke="#d6d6d6" stroke-width="0.75" />
<path d="M 0.0 98.0 L 271.0 98.0 M 0.0 108.0 L 271.0 108.0 M 0.0 118.0 L 271.0 118.0 M 0.0 128.0 L 271.0 128.0 M 0.0 138.0 L 271.0 138.0 M 0.0 148.0 L 271.0 148.0 Z" fill="none" stroke="#d6d6d6" stroke-width="0.75" />
<path d="M 67.77043 30.40856 C 68.324905 30.40856 68.821014 30.350195 69.25876 30.20428 C 69.6965 30.058365 69.959145 30.0 70.04669 30.0 C 70.192604 30.0 70.28015 30.029182 70.36771 30.116732 C 70.42607 30.175097 70.45525 30.233463 70.484436 30.321012 C 70.484436 30.379377 70.45525 30.437744 70.42607 30.496109 L 61.933853 40.35992 L 66.924126 40.35992 L 66.924126 36.449417 C 66.924126 36.18677 67.01167 35.95331 67.1284 35.807392 C 67.3035 35.661476 67.4786 35.515564 67.71206 35.4572 C 67.97471 35.340466 68.26653 35.07782 68.64591 34.640076 C 68.937744 34.319065 69.317116 33.706226 69.75486 32.801556 C 69.81323 32.684826 69.90078 32.626457 70.01751 32.626457 C 70.28015 32.626457 70.39688 32.772373 70.42607 33.03502 L 70.42607 40.35992 L 72.55642 40.35992 C 72.84825 40.35992 72.99416 40.505836 73.023346 40.797665 C 73.023346 41.089493 72.877426 41.235405 72.55642 41.235405 L 70.42607 41.235405 L 70.42607 41.468872 C 70.42607 42.28599 70.63035 42.928013 71.00973 43.45331 C 71.44747 43.9786 71.97276 44.270428 72.5856 44.270428 C 72.81906 44.270428 72.9358 44.387157 72.9358 44.62062 C 72.9358 44.854084 72.81906 44.970818 72.5856 44.970818 C 72.14786 44.970818 71.50584 44.91245 70.601166 44.79572 C 69.696495 44.649803 69.054474 44.59144 68.64591 44.59144 C 68.23735 44.59144 67.56615 44.649803 66.69066 44.79572 C 65.81517 44.91245 65.17315 44.970818 64.735405 44.970818 C 64.501945 44.970818 64.385216 44.854084 64.385216 44.62062 C 64.385216 44.387157 64.501945 44.270428 64.735405 44.270428 C 65.34825 44.270428 65.87354 43.9786 66.31128 43.45331 C 66.71984 42.89883 66.924126 42.25681 66.924126 41.468872 L 66.924126 41.235405 L 61.933853 41.235405 C 61.61284 41.235405 61.379375 41.17704 61.233463 41.001945 C 61.087547 40.885212 61.0 40.710114 61.0 40.53502 C 61.0 40.476654 61.145912 40.272373 61.437744 39.92218 C 61.729572 39.571983 62.079765 39.105057 62.488327 38.492218 C 62.488327 38.492218 63.305447 37.20817 63.71401 36.449417 C 63.71401 36.449417 64.47276 34.78599 64.735405 33.706226 C 65.02724 32.65564 65.17315 31.575874 65.17315 30.496109 C 65.17315 30.175097 65.31907 30.029182 65.58171 30.029182 C 65.61089 30.029182 65.756805 30.058365 65.96109 30.11673 C 66.16537 30.175097 66.4572 30.233461 66.77821 30.32101 C 67.1284 30.379377 67.44942 30.40856 67.77043 30.40856 Z" fill="#000000" stroke="none" stroke-width="0.75" />
<path d="M 67.77043 47.40856 C 68.324905 47.40856 68.821014 47.350193 69.25876 47.20428 C 69.6965 47.058365 69.959145 47.0 70.04669 47.0 C 70.192604 47.0 70.28015 47.029182 70.36771 47.11673 C 70.42607 47.1751 70.45525 47.233463 70.484436 47.32101 C 70.484436 47.37938 70.45525 47.437744 70.42607 47.49611 L 61.933853 57.35992 L 66.924126 57.35992 L 66.924126 53.449417 C 66.924126 53.18677 67.01167 52.95331 67.1284 52.807392 C 67.3035 52.661476 67.4786 52.515564 67.71206 52.4572 C 67.97471 52.340466 68.26653 52.07782 68.64591 51.640076 C 68.937744 51.319065 69.317116 50.706226 69.75486 49.801556 C 69.81323 49.684826 69.90078 49.626457 70.01751 49.626457 C 70.28015 49.626457 70.39688 49.772373 70.42607 50.03502 L 70.42607 57.35992 L 72.55642 57.35992 C 72.84825 57.35992 72.99416 57.505836 73.023346 57.797665 C 73.023346 58.089493 72.877426 58.235405 72.55642 58.235405 L 70.42607 58.235405 L 70.42607 58.468872 C 70.42607 59.28599 70.63035 59.928013 71.00973 60.45331 C 71.44747 60.9786 71.97276 61.270428 72.5856 61.270428 C 72.81906 61.270428 72.9358 61.387157 72.9358 61.62062 C 72.9358 61.854084 72.81906 61.970818 72.5856 61.970818 C 72.14786 61.970818 71.50584 61.91245 70.601166 61.79572 C 69.696495 61.649803 69.054474 61.59144 68.64591 61.59144 C 68.23735 61.59144 67.56615 61.649803 66.69066 61.79572 C 65.81517 61.91245 65.17315 61.970818 64.735405 61.970818 C 64.501945 61.970818 64.385216 61.854084 64.385216 61.62062 C 64.385216 61.387157 64.501945 61.270428 64.735405 61.270428 C 65.34825 61.270428 65.87354 60.9786 66.31128 60.45331 C 66.71984 59.89883 66.924126 59.25681 66.924126 58.468872 L 66.924126 58.235405 L 61.933853 58.235405 C 61.61284 58.235405 61.379375 58.17704 61.233463 58.001945 C 61.087547 57.885212 61.0 57.710114 61.0 57.53502 C 61.0 57.476654 61.145912 57.272373 61.437744 56.92218 C 61.729572 56.571983 62.079765 56.105057 62.488327 55.492218 C 62.488327 55.492218 63.305447 54.20817 63.71401 53.449417 C 63.71401 53.449417 64.47276 51.78599 64.735405 50.706226 C 65.02724 49.65564 65.17315 48.575874 65.17315 47.49611 C 65.17315 47.175095 65.31907 47.029182 65.58171 47.029182 C 65.61089 47.029182 65.756805 47.058365 65.96109 47.11673 C 66.16537 47.175095 66.4572 47.233463 66.77821 47.32101 C 67.1284 47.379375 67.44942 47.408558 67.77043 47.408558 Z" fill="#000000" stroke="none" stroke-width="0.75" />
<path d="M 22.764973 22.115383 C 22.921913 22.036913 22.948072 22.036913 23.105015 22.036913 C 23.314268 22.06307 23.445057 22.14154 23.73278 22.455425 C 25.616081 24.39104 27.185501 27.843758 27.577856 30.773342 C 27.630169 31.244167 27.630169 32.34276 27.577856 32.839737 C 27.29013 35.533905 26.165377 37.99266 23.57584 41.52385 L 23.209644 42.020832 L 23.418898 42.62244 C 23.915882 44.061073 24.491331 45.81359 24.85753 47.095284 C 24.96216 47.409164 25.04063 47.67074 25.04063 47.696896 C 25.04063 47.696896 25.223728 47.696896 25.406826 47.723053 C 26.322319 47.80152 27.10703 48.01078 27.917896 48.40313 C 28.57182 48.74317 29.147274 49.13552 29.696568 49.658665 C 30.29818 50.260277 30.690535 50.80957 31.05673 51.568123 C 31.606026 52.666718 31.84144 53.81762 31.81528 54.96853 C 31.789125 55.700924 31.684496 56.25022 31.449085 56.930305 C 31.1352 57.924263 30.559748 58.83976 29.77504 59.62447 C 29.094955 60.30455 28.46719 60.72306 27.630169 61.063103 L 27.316284 61.193886 L 27.316284 62.135536 C 27.316284 63.469543 27.237814 65.038956 27.133184 65.980606 C 27.02856 66.94841 26.766989 67.86391 26.348476 68.700935 C 25.249886 70.92427 23.314268 72.10133 21.143244 71.89209 C 18.684484 71.65667 16.69656 69.98262 16.199577 67.73312 C 15.964161 66.713 16.068794 65.9283 16.487303 65.27437 C 17.036598 64.411194 18.082878 63.91421 19.102997 63.940365 C 20.30622 63.992683 21.274027 64.934326 21.457123 66.24218 C 21.58791 67.28845 21.143244 68.25626 20.30622 68.7794 C 19.835394 69.06713 19.181469 69.197914 18.684484 69.119446 C 18.606018 69.119446 18.527544 69.093285 18.527544 69.119446 L 18.84143 69.43333 C 19.416882 70.00878 20.070807 70.374985 20.907831 70.558075 C 21.090927 70.584236 21.247868 70.584236 21.666382 70.584236 C 22.137207 70.584236 22.189518 70.584236 22.451088 70.53192 C 22.81729 70.42729 23.131172 70.29651 23.418898 70.139565 C 24.726748 69.35486 25.616081 67.73312 25.851494 65.77136 C 25.929964 65.038956 26.008434 63.469543 26.008434 62.318638 C 26.008434 61.560085 26.008434 61.50777 25.956123 61.50777 C 25.851494 61.560085 25.302197 61.6124 24.909843 61.638554 C 24.41286 61.66471 23.57584 61.66471 23.183485 61.6124 C 21.640223 61.4293 20.227747 60.90616 18.998373 60.042976 C 17.167385 58.761288 15.859535 56.851826 15.31024 54.654644 C 14.604002 51.908165 15.100986 48.978584 16.827343 45.89206 C 17.55974 44.610374 18.265978 43.564095 20.018494 41.236122 L 21.012455 39.902122 L 20.829355 39.405136 C 19.573822 36.083202 19.15531 34.173744 19.024527 31.401108 C 18.972214 30.197887 19.024527 29.177761 19.181469 28.340742 C 19.573822 26.143559 20.593945 24.181787 22.189518 22.612366 C 22.503403 22.298483 22.63419 22.193855 22.764973 22.115383 M 24.831371 26.588224 C 24.569805 26.143559 24.622118 26.169712 24.386707 26.326658 C 23.65431 26.771324 22.89576 27.451405 22.34646 28.131483 C 21.221714 29.57012 20.593945 31.244167 20.515476 33.048996 C 20.489319 33.78139 20.56779 34.252216 20.907831 35.37696 C 21.169397 36.292458 21.901793 38.5158 21.95411 38.56811 C 21.95411 38.59427 22.111048 38.411175 22.26799 38.17576 C 24.072823 35.58622 25.04063 33.467506 25.406826 31.348791 C 25.485298 30.799496 25.53761 30.354828 25.563768 29.727062 C 25.589928 28.28843 25.432985 27.582191 24.831371 26.588224 M 22.581877 44.191864 C 22.424934 43.694878 22.26799 43.302525 22.26799 43.302525 C 22.241835 43.302525 21.143244 44.76731 20.672415 45.421238 C 19.129156 47.592266 18.187506 49.34478 17.638206 51.071136 C 17.27201 52.143574 17.115068 53.137543 17.062756 54.236134 C 17.062756 54.837746 17.088915 55.20394 17.193539 55.64861 C 17.795153 57.976578 20.280064 59.886036 23.209644 60.30455 C 23.65431 60.35686 24.909843 60.35686 25.459139 60.30455 C 26.008434 60.226078 25.956123 60.252235 25.929964 60.016823 C 25.773026 57.53191 25.563768 56.014805 25.14526 53.765305 C 24.988314 52.823658 24.543648 50.835728 24.517488 50.80957 C 24.491331 50.783417 23.99435 50.835728 23.706627 50.9142 C 23.340427 50.99267 23.105015 51.071136 22.79113 51.22808 C 21.090927 52.091263 20.593945 54.053036 21.666382 55.64861 C 21.849482 55.91018 22.320305 56.381004 22.608032 56.564102 C 22.71266 56.642574 22.948072 56.799515 23.105015 56.877987 C 23.340427 57.00877 23.392738 57.061085 23.445057 57.165714 C 23.65431 57.505756 23.523525 57.924263 23.131172 58.107365 C 22.921913 58.21199 22.764973 58.185837 22.34646 57.976578 C 21.326344 57.4796 20.56779 56.799515 20.018494 55.962494 C 18.998373 54.393074 18.867586 52.37899 19.70461 50.678787 C 20.437006 49.213997 21.744852 48.22003 23.418898 47.853836 C 23.57584 47.80152 23.706627 47.775368 23.706627 47.775368 C 23.73278 47.749207 23.000385 45.368923 22.581877 44.191864 M 26.139221 50.94036 C 26.060753 50.94036 25.98228 50.9142 25.956123 50.9142 L 25.877651 50.88804 L 26.008434 51.43734 C 26.610046 54.07919 27.054714 56.956455 27.211655 59.389057 C 27.237814 59.650627 27.237814 59.859882 27.237814 59.859882 C 27.263973 59.859882 27.60401 59.70294 27.78711 59.572155 C 28.231777 59.31058 28.65029 58.91823 28.99033 58.47356 C 29.801197 57.401123 30.08892 56.06712 29.77504 54.706955 C 29.539627 53.608364 28.911861 52.58824 28.022522 51.882008 C 27.473227 51.463493 26.740831 51.097298 26.139221 50.94036 Z" fill="#000000" stroke="none" stroke-width="0.75" />
<path d="M 92.0 70.0 L 108.0 70.0 Z" fill="none" stroke="#d6d6d6" stroke-width="0.75" />
<path d="M 95.52 75.232 C 95.52 76.456 96.715195 77.68 97.895996 77.68 C 101.495995 77.68 105.09599 75.232 105.09599 72.856 C 105.09599 71.6752 103.871994 70.48 102.71999 70.48 C 99.119995 70.48 95.52 72.856 95.52 75.232 Z" fill="#404040" stroke="none" stroke-width="1.0" />
<path d="M 94.0 144.25 L 102.0 144.25 L 102.0 151.75 L 94.0 151.75 L 94.0 144.25 Z" fill="#ffffff" stroke="none" stroke-width="1.0" />
<text x='94.0' y='151.75' font-family="Default" font-size="10.0" fill="#404040" >7</text>
<path d="M 93.46439 51.63119 C 93.59136 51.55864 93.79088 51.613052 93.863434 51.7763 C 93.89971 51.84885 93.89971 51.903263 93.89971 53.172935 C 93.89971 53.916603 93.89971 54.515163 93.91785 54.515163 C 93.91785 54.515163 94.08109 54.442608 94.28061 54.370056 C 94.69779 54.206814 94.752205 54.188675 94.86103 54.279366 C 94.988 54.370056 94.988 54.388195 94.988 55.113724 C 94.988 55.73042 94.988 55.784836 94.95172 55.83925 C 94.933586 55.875526 94.89731 55.911804 94.87917 55.92994 C 94.842896 55.94808 94.62524 56.056908 94.3713 56.1476 L 93.91785 56.34712 L 93.89971 57.81631 C 93.89971 58.61439 93.89971 59.285503 93.91785 59.285503 C 93.91785 59.285503 94.08109 59.21295 94.28061 59.1404 C 94.69779 58.977154 94.752205 58.95902 94.86103 59.04971 C 94.988 59.1404 94.988 59.15854 94.988 59.884064 C 94.988 60.500763 94.988 60.555176 94.95172 60.609592 C 94.933586 60.64587 94.89731 60.682144 94.87917 60.700283 C 94.842896 60.718422 94.62524 60.82725 94.3713 60.917942 L 93.91785 61.117462 L 93.89971 62.641068 C 93.89971 64.01957 93.88157 64.182816 93.863434 64.23723 C 93.736465 64.45489 93.428116 64.45489 93.30115 64.23723 C 93.28301 64.182816 93.26487 64.037704 93.26487 62.768036 L 93.26487 61.371395 L 92.48493 61.679745 L 91.72313 61.988094 L 91.72313 63.457287 C 91.72313 65.01717 91.72313 64.980896 91.63244 65.07159 C 91.59616 65.126 91.46919 65.18041 91.41478 65.18041 C 91.342224 65.18041 91.215256 65.126 91.178986 65.07159 C 91.08829 64.980896 91.08829 65.01717 91.08829 63.60239 C 91.08829 62.858727 91.08829 62.260166 91.07015 62.260166 C 91.07015 62.260166 90.906906 62.332718 90.70739 62.405273 C 90.290215 62.568516 90.235794 62.586655 90.12697 62.495964 C 90.0 62.405273 90.0 62.387135 90.0 61.661606 C 90.0 61.044907 90.0 60.990494 90.03628 60.936077 C 90.05441 60.899803 90.09069 60.863525 90.108826 60.845387 C 90.1451 60.82725 90.36276 60.718422 90.6167 60.62773 L 91.08829 60.42821 L 91.08829 58.95902 C 91.08829 58.16094 91.08829 57.489826 91.07015 57.489826 C 91.07015 57.489826 90.906906 57.562378 90.70739 57.63493 C 90.290215 57.798172 90.235794 57.81631 90.12697 57.72562 C 90.0 57.63493 90.0 57.61679 90.0 56.891266 C 90.0 56.274567 90.0 56.22015 90.03628 56.165737 C 90.05441 56.12946 90.09069 56.093185 90.108826 56.075047 C 90.1451 56.056908 90.36276 55.94808 90.6167 55.857388 L 91.08829 55.657867 L 91.08829 54.134262 C 91.08829 52.75576 91.10643 52.592514 91.124565 52.5381 C 91.25153 52.320442 91.55988 52.320442 91.68685 52.5381 C 91.70499 52.592514 91.72313 52.73762 91.72313 54.007294 L 91.741264 55.403934 L 92.50307 55.095585 L 93.26487 54.787235 L 93.26487 53.318043 C 93.26487 51.93954 93.26487 51.84885 93.30115 51.7763 C 93.337425 51.703743 93.3737 51.667465 93.46439 51.63119 M 93.26487 58.070248 L 93.26487 56.601055 L 92.48493 56.9094 L 91.72313 57.21775 L 91.72313 58.705082 L 91.72313 60.174274 L 91.77754 60.156136 C 91.81382 60.138 92.15845 59.992893 92.55749 59.84779 L 93.26487 59.55758 L 93.26487 58.070248 Z" fill="#404040" stroke="none" stroke-width="0.75" />
<path d="M 95.52 59.232 C 95.52 60.456 96.715195 61.68 97.895996 61.68 C 101.495995 61.68 105.09599 59.232 105.09599 56.856 C 105.09599 55.6752 103.871994 54.48 102.71999 54.48 C 99.119995 54.48 95.52 56.856 95.52 59.232 Z" fill="#404040" stroke="none" stroke-width="1.0" />
<path d="M 94.0 134.25 L 102.0 134.25 L 102.0 141.75 L 94.0 141.75 L 94.0 134.25 Z" fill="#ffffff" stroke="none" stroke-width="1.0" />
<text x='94.0' y='141.75' font-family="Default" font-size="10.0" fill="#404040" >9</text>
<path d="M 104.18 73.04 L 105.18 73.04 L 105.18 26.0 L 104.18 26.0 M 104.18 73.04 Z" fill="#404040" stroke="none" stroke-width="0.75" />
<path d="M 104.18 24.0 L 104.18 28.0 L 125.18 28.0 L 125.18 24.0 L 104.18 24.0 Z" fill="#404040" stroke="none" stroke-width="0.75" />
<path d="M 112.0 70.0 L 128.0 70.0 Z" fill="none" stroke="#d6d6d6" stroke-width="0.75" />
<path d="M 115.52 75.232 C 115.52 76.456 116.715195 77.68 117.895996 77.68 C 121.495995 77.68 125.09599 75.232 125.09599 72.856 C 125.09599 71.6752 123.871994 70.48 122.71999 70.48 C 119.119995 70.48 115.52 72.856 115.52 75.232 Z" fill="#404040" stroke="none" stroke-width="1.0" />
<path d="M 114.0 144.25 L 122.0 144.25 L 122.0 151.75 L 114.0 151.75 L 114.0 144.25 Z" fill="#ffffff" stroke="none" stroke-width="1.0" />
<text x='114.0' y='151.75' font-family="Default" font-size="10.0" fill="#404040" >7</text>
<path d="M 115.52 59.232 C 115.52 60.456 116.715195 61.68 117.895996 61.68 C 121.495995 61.68 125.09599 59.232 125.09599 56.856 C 125.09599 55.6752 123.871994 54.48 122.71999 54.48 C 119.119995 54.48 115.52 56.856 115.52 59.232 Z" fill="#404040" stroke="none" stroke-width="1.0" />
<path d="M 114.0 134.25 L 122.0 134.25 L 122.0 141.75 L 114.0 141.75 L 114.0 134.25 Z" fill="#ffffff" stroke="none" stroke-width="1.0" />
<text x='114.0' y='141.75' font-family="Default" font-size="10.0" fill="#404040" >9</text>
<path d="M 124.18 73.04 L 125.18 73.04 L 125.18 26.0 L 124.18 26.0 M 124.18 73.04 Z" fill="#404040" stroke="none" stroke-width="0.75" />
<path d="M 132.0 70.0 L 148.0 70.0 Z" fill="none" stroke="#d6d6d6" stroke-width="0.75" />
<path d="M 135.52 75.232 C 135.52 76.456 136.71521 77.68 137.89601 77.68 C 141.496 77.68 145.09601 75.232 145.09601 72.856 C 145.09601 71.6752 143.87201 70.48 142.72 70.48 C 139.12001 70.48 135.52 72.856 135.52 75.232 Z" fill="#404040" stroke="none" stroke-width="1.0" />
<path d="M 134.0 144.25 L 142.0 144.25 L 142.0 151.75 L 134.0 151.75 L 134.0 144.25 Z" fill="#ffffff" stroke="none" stroke-width="1.0" />
<text x='134.0' y='151.75' font-family="Default" font-size="10.0" fill="#404040" >7</text>
<path d="M 135.52 59.232 C 135.52 60.456 136.71521 61.68 137.89601 61.68 C 141.496 61.68 145.09601 59.232 145.09601 56.856 C 145.09601 55.6752 143.87201 54.48 142.72 54.48 C 139.12001 54.48 135.52 56.856 135.52 59.232 Z" fill="#404040" stroke="none" stroke-width="1.0" />
<path d="M 134.0 134.25 L 142.0 134.25 L 142.0 141.75 L 134.0 141.75 L 134.0 134.25 Z" fill="#ffffff" stroke="none" stroke-width="1.0" />
<text x='134.0' y='141.75' font-family="Default" font-size="10.0" fill="#404040" >9</text>
<path d="M 144.18 73.04 L 145.18 73.04 L 145.18 26.0 L 144.18 26.0 M 144.18 73.04 Z" fill="#404040" stroke="none" stroke-width="0.75" />
<path d="M 144.18 24.0 L 144.18 28.0 L 165.18 28.0 L 165.18 24.0 L 144.18 24.0 Z" fill="#404040" stroke="none" stroke-width="0.75" />
<path d="M 152.0 70.0 L 168.0 70.0 Z" fill="none" stroke="#d6d6d6" stroke-width="0.75" />
<path d="M 155.52 75.232 C 155.52 76.456 156.71521 77.68 157.89601 77.68 C 161.496 77.68 165.09601 75.232 165.09601 72.856 C 165.09601 71.6752 163.87201 70.48 162.72 70.48 C 159.12001 70.48 155.52 72.856 155.52 75.232 Z" fill="#404040" stroke="none" stroke-width="1.0" />
<path d="M 154.0 144.25 L 162.0 144.25 L 162.0 151.75 L 154.0 151.75 L 154.0 144.25 Z" fill="#ffffff" stroke="none" stroke-width="1.0" />
<text x='154.0' y='151.75' font-family="Default" font-size="10.0" fill="#404040" >7</text>
<path d="M 155.52 59.232 C 155.52 60.456 156.71521 61.68 157.89601 61.68 C 161.496 61.68 165.09601 59.232 165.09601 56.856 C 165.09601 55.6752 163.87201 54.48 162.72 54.48 C 159.12001 54.48 155.52 56.856 155.52 59.232 Z" fill="#404040" stroke="none" stroke-width="1.0" />
<path d="M 154.0 134.25 L 162.0 134.25 L 162.0 141.75 L 154.0 141.75 L 154.0 134.25 Z" fill="#ffffff" stroke="none" stroke-width="1.0" />
<text x='154.0' y='141.75' font-family="Default" font-size="10.0" fill="#404040" >9</text>
<path d="M 164.18 73.04 L 165.18 73.04 L 165.18 26.0 L 164.18 26.0 M 164.18 73.04 Z" fill="#404040" stroke="none" stroke-width="0.75" />
<path d="M 172.0 70.0 L 188.0 70.0 Z" fill="none" stroke="#d6d6d6" stroke-width="0.75" />
<path d="M 175.52 75.232 C 175.52 76.456 176.71521 77.68 177.89601 77.68 C 181.496 77.68 185.09601 75.232 185.09601 72.856 C 185.09601 71.6752 183.87201 70.48 182.72 70.48 C 179.12001 70.48 175.52 72.856 175.52 75.232 Z" fill="#404040" stroke="none" stroke-width="1.0" />
<path d="M 174.0 144.25 L 182.0 144.25 L 182.0 151.75 L 174.0 151.75 L 174.0 144.25 Z" fill="#ffffff" stroke="none" stroke-width="1.0" />
<text x='174.0' y='151.75' font-family="Default" font-size="10.0" fill="#404040" >7</text>
<path d="M 175.52 59.232 C 175.52 60.456 176.71521 61.68 177.89601 61.68 C 181.496 61.68 185.09601 59.232 185.09601 56.856 C 185.09601 55.6752 183.87201 54.48 182.72 54.48 C 179.12001 54.48 175.52 56.856 175.52 59.232 Z" fill="#404040" stroke="none" stroke-width="1.0" />
<path d="M 174.0 134.25 L 182.0 134.25 L 182.0 141.75 L 174.0 141.75 L 174.0 134.25 Z" fill="#ffffff" stroke="none" stroke-width="1.0" />
<text x='174.0' y='141.75' font-family="Default" font-size="10.0" fill="#404040" >9</text>
<path d="M 184.18 73.04 L 185.18 73.04 L 185.18 26.0 L 184.18 26.0 M 184.18 73.04 Z" fill="#404040" stroke="none" stroke-width="0.75" />
<path d="M 184.18 24.0 L 184.18 28.0 L 205.18 28.0 L 205.18 24.0 L 184.18 24.0 Z" fill="#404040" stroke="none" stroke-width="0.75" />
<path d="M 192.0 70.0 L 208.0 70.0 Z" fill="none" stroke="#d6d6d6" stroke-width="0.75" />
<path d="M 195.52 75.232 C 195.52 76.456 196.71521 77.68 197.89601 77.68 C 201.496 77.68 205.09601 75.232 205.09601 72.856 C 205.09601 71.6752 203.87201 70.48 202.72 70.48 C 199.12001 70.48 195.52 72.856 195.52 75.232 Z" fill="#404040" stroke="none" stroke-width="1.0" />
<path d="M 194.0 144.25 L 202.0 144.25 L 202.0 151.75 L 194.0 151.75 L 194.0 144.25 Z" fill="#ffffff" stroke="none" stroke-width="1.0" />
<text x='194.0' y='151.75' font-family="Default" font-size="10.0" fill="#404040" >7</text>
<path d="M 195.52 59.232 C 195.52 60.456 196.71521 61.68 197.89601 61.68 C 201.496 61.68 205.09601 59.232 205.09601 56.856 C 205.09601 55.6752 203.87201 54.48 202.72 54.48 C 199.12001 54.48 195.52 56.856 195.52 59.232 Z" fill="#404040" stroke="none" stroke-width="1.0" />
<path d="M 194.0 134.25 L 202.0 134.25 L 202.0 141.75 L 194.0 141.75 L 194.0 134.25 Z" fill="#ffffff" stroke="none" stroke-width="1.0" />
<text x='194.0' y='141.75' font-family="Default" font-size="10.0" fill="#404040" >9</text>
<path d="M 204.18 73.04 L 205.18 73.04 L 205.18 26.0 L 204.18 26.0 M 204.18 73.04 Z" fill="#404040" stroke="none" stroke-width="0.75" />
<path d="M 212.0 70.0 L 228.0 70.0 Z" fill="none" stroke="#d6d6d6" stroke-width="0.75" />
<path d="M 215.52 75.232 C 215.52 76.456 216.71521 77.68 217.89601 77.68 C 221.496 77.68 225.09601 75.232 225.09601 72.856 C 225.09601 71.6752 223.87201 70.48 222.72 70.48 C 219.12001 70.48 215.52 72.856 215.52 75.232 Z" fill="#404040" stroke="none" stroke-width="1.0" />
<path d="M 214.0 144.25 L 222.0 144.25 L 222.0 151.75 L 214.0 151.75 L 214.0 144.25 Z" fill="#ffffff" stroke="none" stroke-width="1.0" />
<text x='214.0' y='151.75' font-family="Default" font-size="10.0" fill="#404040" >7</text>
<path d="M 215.52 59.232 C 215.52 60.456 216.71521 61.68 217.89601 61.68 C 221.496 61.68 225.09601 59.232 225.09601 56.856 C 225.09601 55.6752 223.87201 54.48 222.72 54.48 C 219.12001 54.48 215.52 56.856 215.52 59.232 Z" fill="#404040" stroke="none" stroke-width="1.0" />
<path d="M 214.0 134.25 L 222.0 134.25 L 222.0 141.75 L 214.0 141.75 L 214.0 134.25 Z" fill="#ffffff" stroke="none" stroke-width="1.0" />
<text x='214.0' y='141.75' font-family="Default" font-size="10.0" fill="#404040" >9</text>
<path d="M 224.18 73.04 L 225.18 73.04 L 225.18 26.0 L 224.18 26.0 M 224.18 73.04 Z" fill="#404040" stroke="none" stroke-width="0.75" />
<path d="M 224.18 24.0 L 224.18 28.0 L 245.18 28.0 L 245.18 24.0 L 224.18 24.0 Z" fill="#404040" stroke="none" stroke-width="0.75" />
<path d="M 232.0 70.0 L 248.0 70.0 Z" fill="none" stroke="#d6d6d6" stroke-width="0.75" />
<path d="M 235.52 75.232 C 235.52 76.456 236.71521 77.68 237.89601 77.68 C 241.496 77.68 245.09601 75.232 245.09601 72.856 C 245.09601 71.6752 243.87201 70.48 242.72 70.48 C 239.12001 70.48 235.52 72.856 235.52 75.232 Z" fill="#404040" stroke="none" stroke-width="1.0" />
<path d="M 234.0 144.25 L 242.0 144.25 L 242.0 151.75 L 234.0 151.75 L 234.0 144.25 Z" fill="#ffffff" stroke="none" stroke-width="1.0" />
<text x='234.0' y='151.75' font-family="Default" font-size="10.0" fill="#404040" >7</text>
<path d="M 235.52 59.232 C 235.52 60.456 236.71521 61.68 237.89601 61.68 C 241.496 61.68 245.09601 59.232 245.09601 56.856 C 245.09601 55.6752 243.87201 54.48 242.72 54.48 C 239.12001 54.48 235.52 56.856 235.52 59.232 Z" fill="#404040" stroke="none" stroke-width="1.0" />
<path d="M 234.0 134.25 L 242.0 134.25 L 242.0 141.75 L 234.0 141.75 L 234.0 134.25 Z" fill="#ffffff" stroke="none" stroke-width="1.0" />
<text x='234.0' y='141.75' font-family="Default" font-size="10.0" fill="#404040" >9</text>
<path d="M 244.18 73.04 L 245.18 73.04 L 245.18 26.0 L 244.18 26.0 M 244.18 73.04 Z" fill="#404040" stroke="none" stroke-width="0.75" /></g>
<path d="M 35.35 36.3 C 35.35 37.15 36.18 38.0 37.0 38.0 C 39.5 38.0 42.0 36.3 42.0 34.65 C 42.0 33.83 41.149998 33.0 40.35 33.0 C 37.85 33.0 35.35 34.65 35.35 36.3 Z" fill="#000000" stroke="none" stroke-width="1.0" />
<path d="M 42.0 20.0 L 42.0 34.7 Z" fill="none" stroke="#000000" stroke-width="1.0" />
<text x='43.0' y='36.25' font-family="Default" font-size="10.0" fill="#000000" > = 120</text>
<text x='21.0' y='48.0' font-family="Default" font-size="10.0" fill="#ff0000" >1</text>
<path d="M 20.0 50.0 L 23.0 50.0 L 23.0 118.0 L 20.0 118.0 L 20.0 50.0 Z" fill="#000000" stroke="#000000" stroke-width="0.75" />
<path d="M 25.0 50.0 L 26.0 50.0 L 26.0 118.0 L 25.0 118.0 L 25.0 50.0 Z" fill="#000000" stroke="#000000" stroke-width="0.75" />
<path d="M 291.0 50.0 L 291.0 82.0 Z" fill="#000000" stroke="#000000" stroke-width="0.75" />
<path d="M 20.0 118.0 L 23.0 118.0 L 23.0 168.0 L 20.0 168.0 L 20.0 118.0 Z" fill="#000000" stroke="#000000" stroke-width="0.75" />
<path d="M 25.0 118.0 L 26.0 118.0 L 26.0 168.0 L 25.0 168.0 L 25.0 118.0 Z" fill="#000000" stroke="#000000" stroke-width="0.75" />
<path d="M 291.0 118.0 L 291.0 168.0 Z" fill="#000000" stroke="#000000" stroke-width="0.75" /><g transform="translate(291.0,20.0)">
<path d="M 0.0 0.0 L 200.0 0.0 L 200.0 169.0 L 0.0 169.0 L 0.0 0.0 Z" fill="#ffffff" stroke="none" stroke-width="1.0" />
<path d="M 0.0 30.0 L 200.0 30.0 M 0.0 38.0 L 200.0 38.0 M 0.0 46.0 L 200.0 46.0 M 0.0 54.0 L 200.0 54.0 M 0.0 62.0 L 200.0 62.0 Z" fill="none" stroke="#d6d6d6" stroke-width="0.75" />
<path d="M 0.0 98.0 L 200.0 98.0 M 0.0 108.0 L 200.0 108.0 M 0.0 118.0 L 200.0 118.0 M 0.0 128.0 L 200.0 128.0 M 0.0 138.0 L 200.0 138.0 M 0.0 148.0 L 200.0 148.0 Z" fill="none" stroke="#d6d6d6" stroke-width="0.75" />
<path d="M 21.0 70.0 L 37.0 70.0 Z" fill="none" stroke="#d6d6d6" stroke-width="0.75" />
<path d="M 24.52 75.232 C 24.52 76.456 25.7152 77.68 26.896 77.68 C 30.496 77.68 34.096 75.232 34.096 72.856 C 34.096 71.6752 32.872 70.48 31.720001 70.48 C 28.12 70.48 24.52 72.856 24.52 75.232 Z" fill="#404040" stroke="none" stroke-width="1.0" />
<path d="M 23.0 144.25 L 31.0 144.25 L 31.0 151.75 L 23.0 151.75 L 23.0 144.25 Z" fill="#ffffff" stroke="none" stroke-width="1.0" />
<text x='23.0' y='151.75' font-family="Default" font-size="10.0" fill="#404040" >7</text>
<path d="M 22.464394 51.63119 C 22.59136 51.55864 22.79088 51.613052 22.863434 51.7763 C 22.89971 51.84885 22.89971 51.903263 22.89971 53.172935 C 22.89971 53.916603 22.89971 54.515163 22.917847 54.515163 C 22.917847 54.515163 23.08109 54.442608 23.280611 54.370056 C 23.69779 54.206814 23.752205 54.188675 23.861032 54.279366 C 23.988 54.370056 23.988 54.388195 23.988 55.113724 C 23.988 55.73042 23.988 55.784836 23.951725 55.83925 C 23.933586 55.875526 23.897308 55.911804 23.879171 55.92994 C 23.842896 55.94808 23.625237 56.056908 23.371302 56.1476 L 22.917847 56.34712 L 22.89971 57.81631 C 22.89971 58.61439 22.89971 59.285503 22.917847 59.285503 C 22.917847 59.285503 23.08109 59.21295 23.280611 59.1404 C 23.69779 58.977154 23.752205 58.95902 23.861032 59.04971 C 23.988 59.1404 23.988 59.15854 23.988 59.884064 C 23.988 60.500763 23.988 60.555176 23.951725 60.609592 C 23.933586 60.64587 23.897308 60.682144 23.879171 60.700283 C 23.842896 60.718422 23.625237 60.82725 23.371302 60.917942 L 22.917847 61.117462 L 22.89971 62.641068 C 22.89971 64.01957 22.88157 64.182816 22.863434 64.23723 C 22.736465 64.45489 22.428116 64.45489 22.30115 64.23723 C 22.283012 64.182816 22.264874 64.037704 22.264874 62.768036 L 22.264874 61.371395 L 21.484932 61.679745 L 20.723127 61.988094 L 20.723127 63.457287 C 20.723127 65.01717 20.723127 64.980896 20.632437 65.07159 C 20.59616 65.126 20.469193 65.18041 20.414778 65.18041 C 20.342226 65.18041 20.215258 65.126 20.178982 65.07159 C 20.088291 64.980896 20.088291 65.01717 20.088291 63.60239 C 20.088291 62.858727 20.088291 62.260166 20.070152 62.260166 C 20.070152 62.260166 19.90691 62.332718 19.70739 62.405273 C 19.29021 62.568516 19.235796 62.586655 19.126966 62.495964 C 19.0 62.405273 19.0 62.387135 19.0 61.661606 C 19.0 61.044907 19.0 60.990494 19.036276 60.936077 C 19.054415 60.899803 19.09069 60.863525 19.10883 60.845387 C 19.145105 60.82725 19.362764 60.718422 19.6167 60.62773 L 20.088291 60.42821 L 20.088291 58.95902 C 20.088291 58.16094 20.088291 57.489826 20.070152 57.489826 C 20.070152 57.489826 19.90691 57.562378 19.70739 57.63493 C 19.29021 57.798172 19.235796 57.81631 19.126966 57.72562 C 19.0 57.63493 19.0 57.61679 19.0 56.891266 C 19.0 56.274567 19.0 56.22015 19.036276 56.165737 C 19.054415 56.12946 19.09069 56.093185 19.10883 56.075047 C 19.145105 56.056908 19.362764 55.94808 19.6167 55.857388 L 20.088291 55.657867 L 20.088291 54.134262 C 20.088291 52.75576 20.10643 52.592514 20.124567 52.5381 C 20.251535 52.320442 20.559883 52.320442 20.686852 52.5381 C 20.704988 52.592514 20.723127 52.73762 20.723127 54.007294 L 20.741266 55.403934 L 21.503069 55.095585 L 22.264874 54.787235 L 22.264874 53.318043 C 22.264874 51.93954 22.264874 51.84885 22.30115 51.7763 C 22.337425 51.703743 22.373703 51.667465 22.464394 51.63119 M 22.264874 58.070248 L 22.264874 56.601055 L 21.484932 56.9094 L 20.723127 57.21775 L 20.723127 58.705082 L 20.723127 60.174274 L 20.777542 60.156136 C 20.813818 60.138 21.158443 59.992893 21.557484 59.84779 L 22.264874 59.55758 L 22.264874 58.070248 Z" fill="#404040" stroke="none" stroke-width="0.75" />
<path d="M 24.52 59.232 C 24.52 60.456 25.7152 61.68 26.896 61.68 C 30.496 61.68 34.096 59.232 34.096 56.856 C 34.096 55.6752 32.872 54.48 31.720001 54.48 C 28.12 54.48 24.52 56.856 24.52 59.232 Z" fill="#404040" stroke="none" stroke-width="1.0" />
<path d="M 23.0 134.25 L 31.0 134.25 L 31.0 141.75 L 23.0 141.75 L 23.0 134.25 Z" fill="#ffffff" stroke="none" stroke-width="1.0" />
<text x='23.0' y='141.75' font-family="Default" font-size="10.0" fill="#404040" >9</text>
<path d="M 33.18 73.04 L 34.18 73.04 L 34.18 26.0 L 33.18 26.0 M 33.18 73.04 Z" fill="#404040" stroke="none" stroke-width="0.75" />
<path d="M 33.18 24.0 L 33.18 28.0 L 54.18 28.0 L 54.18 24.0 L 33.18 24.0 Z" fill="#404040" stroke="none" stroke-width="0.75" />
<path d="M 41.0 70.0 L 57.0 70.0 Z" fill="none" stroke="#d6d6d6" stroke-width="0.75" />
<path d="M 44.52 75.232 C 44.52 76.456 45.715202 77.68 46.896 77.68 C 50.496002 77.68 54.096 75.232 54.096 72.856 C 54.096 71.6752 52.872 70.48 51.72 70.48 C 48.12 70.48 44.52 72.856 44.52 75.232 Z" fill="#404040" stroke="none" stroke-width="1.0" />
<path d="M 43.0 144.25 L 51.0 144.25 L 51.0 151.75 L 43.0 151.75 L 43.0 144.25 Z" fill="#ffffff" stroke="none" stroke-width="1.0" />
<text x='43.0' y='151.75' font-family="Default" font-size="10.0" fill="#404040" >7</text>
<path d="M 44.52 59.232 C 44.52 60.456 45.715202 61.68 46.896 61.68 C 50.496002 61.68 54.096 59.232 54.096 56.856 C 54.096 55.6752 52.872 54.48 51.72 54.48 C 48.12 54.48 44.52 56.856 44.52 59.232 Z" fill="#404040" stroke="none" stroke-width="1.0" />
<path d="M 43.0 134.25 L 51.0 134.25 L 51.0 141.75 L 43.0 141.75 L 43.0 134.25 Z" fill="#ffffff" stroke="none" stroke-width="1.0" />
<text x='43.0' y='141.75' font-family="Default" font-size="10.0" fill="#404040" >9</text>
<path d="M 53.18 73.04 L 54.18 73.04 L 54.18 26.0 L 53.18 26.0 M 53.18 73.04 Z" fill="#404040" stroke="none" stroke-width="0.75" />
<path d="M 61.0 70.0 L 77.0 70.0 Z" fill="none" stroke="#d6d6d6" stroke-width="0.75" />
<path d="M 64.52 75.232 C 64.52 76.456 65.715195 77.68 66.895996 77.68 C 70.495995 77.68 74.09599 75.232 74.09599 72.856 C 74.09599 71.6752 72.871994 70.48 71.71999 70.48 C 68.119995 70.48 64.52 72.856 64.52 75.232 Z" fill="#404040" stroke="none" stroke-width="1.0" />
<path d="M 63.0 144.25 L 71.0 144.25 L 71.0 151.75 L 63.0 151.75 L 63.0 144.25 Z" fill="#ffffff" stroke="none" stroke-width="1.0" />
<text x='63.0' y='151.75' font-family="Default" font-size="10.0" fill="#404040" >7</text>
<path d="M 64.52 59.232 C 64.52 60.456 65.715195 61.68 66.895996 61.68 C 70.495995 61.68 74.09599 59.232 74.09599 56.856 C 74.09599 55.6752 72.871994 54.48 71.71999 54.48 C 68.119995 54.48 64.52 56.856 64.52 59.232 Z" fill="#404040" stroke="none" stroke-width="1.0" />
<path d="M 63.0 134.25 L 71.0 134.25 L 71.0 141.75 L 63.0 141.75 L 63.0 134.25 Z" fill="#ffffff" stroke="none" stroke-width="1.0" />
<text x='63.0' y='141.75' font-family="Default" font-size="10.0" fill="#404040" >9</text>
<path d="M 73.18 73.04 L 74.18 73.04 L 74.18 26.0 L 73.18 26.0 M 73.18 73.04 Z" fill="#404040" stroke="none" stroke-width="0.75" />
<path d="M 73.18 24.0 L 73.18 28.0 L 94.18 28.0 L 94.18 24.0 L 73.18 24.0 Z" fill="#404040" stroke="none" stroke-width="0.75" />
<path d="M 81.0 70.0 L 97.0 70.0 Z" fill="none" stroke="#d6d6d6" stroke-width="0.75" />
<path d="M 84.52 75.232 C 84.52 76.456 85.715195 77.68 86.895996 77.68 C 90.495995 77.68 94.09599 75.232 94.09599 72.856 C 94.09599 71.6752 92.871994 70.48 91.71999 70.48 C 88.119995 70.48 84.52 72.856 84.52 75.232 Z" fill="#404040" stroke="none" stroke-width="1.0" />
<path d="M 83.0 144.25 L 91.0 144.25 L 91.0 151.75 L 83.0 151.75 L 83.0 144.25 Z" fill="#ffffff" stroke="none" stroke-width="1.0" />
<text x='83.0' y='151.75' font-family="Default" font-size="10.0" fill="#404040" >7</text>
<path d="M 84.52 59.232 C 84.52 60.456 85.715195 61.68 86.895996 61.68 C 90.495995 61.68 94.09599 59.232 94.09599 56.856 C 94.09599 55.6752 92.871994 54.48 91.71999 54.48 C 88.119995 54.48 84.52 56.856 84.52 59.232 Z" fill="#404040" stroke="none" stroke-width="1.0" />
<path d="M 83.0 134.25 L 91.0 134.25 L 91.0 141.75 L 83.0 141.75 L 83.0 134.25 Z" fill="#ffffff" stroke="none" stroke-width="1.0" />
<text x='83.0' y='141.75' font-family="Default" font-size="10.0" fill="#404040" >9</text>
<path d="M 93.18 73.04 L 94.18 73.04 L 94.18 26.0 L 93.18 26.0 M 93.18 73.04 Z" fill="#404040" stroke="none" stroke-width="0.75" />
<path d="M 101.0 70.0 L 117.0 70.0 Z" fill="none" stroke="#d6d6d6" stroke-width="0.75" />
<path d="M 104.52 75.232 C 104.52 76.456 105.715195 77.68 106.895996 77.68 C 110.495995 77.68 114.09599 75.232 114.09599 72.856 C 114.09599 71.6752 112.871994 70.48 111.71999 70.48 C 108.119995 70.48 104.52 72.856 104.52 75.232 Z" fill="#404040" stroke="none" stroke-width="1.0" />
<path d="M 103.0 144.25 L 111.0 144.25 L 111.0 151.75 L 103.0 151.75 L 103.0 144.25 Z" fill="#ffffff" stroke="none" stroke-width="1.0" />
<text x='103.0' y='151.75' font-family="Default" font-size="10.0" fill="#404040" >7</text>
<path d="M 104.52 59.232 C 104.52 60.456 105.715195 61.68 106.895996 61.68 C 110.495995 61.68 114.09599 59.232 114.09599 56.856 C 114.09599 55.6752 112.871994 54.48 111.71999 54.48 C 108.119995 54.48 104.52 56.856 104.52 59.232 Z" fill="#404040" stroke="none" stroke-width="1.0" />
<path d="M 103.0 134.25 L 111.0 134.25 L 111.0 141.75 L 103.0 141.75 L 103.0 134.25 Z" fill="#ffffff" stroke="none" stroke-width="1.0" />
<text x='103.0' y='141.75' font-family="Default" font-size="10.0" fill="#404040" >9</text>
<path d="M 113.18 73.04 L 114.18 73.04 L 114.18 26.0 L 113.18 26.0 M 113.18 73.04 Z" fill="#404040" stroke="none" stroke-width="0.75" />
<path d="M 113.18 24.0 L 113.18 28.0 L 134.18 28.0 L 134.18 24.0 L 113.18 24.0 Z" fill="#404040" stroke="none" stroke-width="0.75" />
<path d="M 121.0 70.0 L 137.0 70.0 Z" fill="none" stroke="#d6d6d6" stroke-width="0.75" />
<path d="M 124.52 75.232 C 124.52 76.456 125.715195 77.68 126.895996 77.68 C 130.496 77.68 134.096 75.232 134.096 72.856 C 134.096 71.6752 132.872 70.48 131.72 70.48 C 128.12 70.48 124.52 72.856 124.52 75.232 Z" fill="#404040" stroke="none" stroke-width="1.0" />
<path d="M 123.0 144.25 L 131.0 144.25 L 131.0 151.75 L 123.0 151.75 L 123.0 144.25 Z" fill="#ffffff" stroke="none" stroke-width="1.0" />
<text x='123.0' y='151.75' font-family="Default" font-size="10.0" fill="#404040" >7</text>
<path d="M 124.52 59.232 C 124.52 60.456 125.715195 61.68 126.895996 61.68 C 130.496 61.68 134.096 59.232 134.096 56.856 C 134.096 55.6752 132.872 54.48 131.72 54.48 C 128.12 54.48 124.52 56.856 124.52 59.232 Z" fill="#404040" stroke="none" stroke-width="1.0" />
<path d="M 123.0 134.25 L 131.0 134.25 L 131.0 141.75 L 123.0 141.75 L 123.0 134.25 Z" fill="#ffffff" stroke="none" stroke-width="1.0" />
<text x='123.0' y='141.75' font-family="Default" font-size="10.0" fill="#404040" >9</text>
<path d="M 133.18 73.04 L 134.18 73.04 L 134.18 26.0 L 133.18 26.0 M 133.18 73.04 Z" fill="#404040" stroke="none" stroke-width="0.75" />
<path d="M 141.0 70.0 L 157.0 70.0 Z" fill="none" stroke="#d6d6d6" stroke-width="0.75" />
<path d="M 144.52 75.232 C 144.52 76.456 145.71521 77.68 146.89601 77.68 C 150.496 77.68 154.09601 75.232 154.09601 72.856 C 154.09601 71.6752 152.87201 70.48 151.72 70.48 C 148.12001 70.48 144.52 72.856 144.52 75.232 Z" fill="#404040" stroke="none" stroke-width="1.0" />
<path d="M 143.0 144.25 L 151.0 144.25 L 151.0 151.75 L 143.0 151.75 L 143.0 144.25 Z" fill="#ffffff" stroke="none" stroke-width="1.0" />
<text x='143.0' y='151.75' font-family="Default" font-size="10.0" fill="#404040" >7</text>
<path d="M 144.52 59.232 C 144.52 60.456 145.71521 61.68 146.89601 61.68 C 150.496 61.68 154.09601 59.232 154.09601 56.856 C 154.09601 55.6752 152.87201 54.48 151.72 54.48 C 148.12001 54.48 144.52 56.856 144.52 59.232 Z" fill="#404040" stroke="none" stroke-width="1.0" />
<path d="M 143.0 134.25 L 151.0 134.25 L 151.0 141.75 L 143.0 141.75 L 143.0 134.25 Z" fill="#ffffff" stroke="none" stroke-width="1.0" />
<text x='143.0' y='141.75' font-family="Default" font-size="10.0" fill="#404040" >9</text>
<path d="M 153.18 73.04 L 154.18 73.04 L 154.18 26.0 L 153.18 26.0 M 153.18 73.04 Z" fill="#404040" stroke="none" stroke-width="0.75" />
<path d="M 153.18 24.0 L 153.18 28.0 L 174.18 28.0 L 174.18 24.0 L 153.18 24.0 Z" fill="#404040" stroke="none" stroke-width="0.75" />
<path d="M 161.0 70.0 L 177.0 70.0 Z" fill="none" stroke="#d6d6d6" stroke-width="0.75" />
<path d="M 164.52 75.232 C 164.52 76.456 165.71521 77.68 166.89601 77.68 C 170.496 77.68 174.09601 75.232 174.09601 72.856 C 174.09601 71.6752 172.87201 70.48 171.72 70.48 C 168.12001 70.48 164.52 72.856 164.52 75.232 Z" fill="#404040" stroke="none" stroke-width="1.0" />
<path d="M 163.0 144.25 L 171.0 144.25 L 171.0 151.75 L 163.0 151.75 L 163.0 144.25 Z" fill="#ffffff" stroke="none" stroke-width="1.0" />
<text x='163.0' y='151.75' font-family="Default" font-size="10.0" fill="#404040" >7</text>
<path d="M 164.52 59.232 C 164.52 60.456 165.71521 61.68 166.89601 61.68 C 170.496 61.68 174.09601 59.232 174.09601 56.856 C 174.09601 55.6752 172.87201 54.48 171.72 54.48 C 168.12001 54.48 164.52 56.856 164.52 59.232 Z" fill="#404040" stroke="none" stroke-width="1.0" />
<path d="M 163.0 134.25 L 171.0 134.25 L 171.0 141.75 L 163.0 141.75 L 163.0 134.25 Z" fill="#ffffff" stroke="none" stroke-width="1.0" />
<text x='163.0' y='141.75' font-family="Default" font-size="10.0" fill="#404040" >9</text>
<path d="M 173.18 73.04 L 174.18 73.04 L 174.18 26.0 L 173.18 26.0 M 173.18 73.04 Z" fill="#404040" stroke="none" stroke-width="0.75" /></g>
<text x='292.0' y='48.0' font-family="Default" font-size="10.0" fill="#ff0000" >2</text>
<path d="M 291.0 50.0 L 291.0 82.0 Z" fill="#000000" stroke="#000000" stroke-width="0.75" />
<path d="M 491.0 50.0 L 491.0 82.0 Z" fill="#000000" stroke="#000000" stroke-width="0.75" />
<path d="M 291.0 118.0 L 291.0 168.0 Z" fill="#000000" stroke="#000000" stroke-width="0.75" />
<path d="M 491.0 118.0 L 491.0 168.0 Z" fill="#000000" stroke="#000000" stroke-width="0.75" /><g transform="translate(491.0,20.0)">
<path d="M 0.0 0.0 L 200.0 0.0 L 200.0 169.0 L 0.0 169.0 L 0.0 0.0 Z" fill="#ffffff" stroke="none" stroke-width="1.0" />
<path d="M 0.0 30.0 L 200.0 30.0 M 0.0 38.0 L 200.0 38.0 M 0.0 46.0 L 200.0 46.0 M 0.0 54.0 L 200.0 54.0 M 0.0 62.0 L 200.0 62.0 Z" fill="none" stroke="#d6d6d6" stroke-width="0.75" />
<path d="M 0.0 98.0 L 200.0 98.0 M 0.0 108.0 L 200.0 108.0 M 0.0 118.0 L 200.0 118.0 M 0.0 128.0 L 200.0 128.0 M 0.0 138.0 L 200.0 138.0 M 0.0 148.0 L 200.0 148.0 Z" fill="none" stroke="#d6d6d6" stroke-width="0.75" />
<path d="M 21.0 70.0 L 37.0 70.0 Z" fill="none" stroke="#d6d6d6" stroke-width="0.75" />
<path d="M 24.52 75.232 C 24.52 76.456 25.7152 77.68 26.896 77.68 C 30.496 77.68 34.096 75.232 34.096 72.856 C 34.096 71.6752 32.872 70.48 31.720001 70.48 C 28.12 70.48 24.52 72.856 24.52 75.232 Z" fill="#404040" stroke="none" stroke-width="1.0" />
<path d="M 23.0 144.25 L 31.0 144.25 L 31.0 151.75 L 23.0 151.75 L 23.0 144.25 Z" fill="#ffffff" stroke="none" stroke-width="1.0" />
<text x='23.0' y='151.75' font-family="Default" font-size="10.0" fill="#404040" >7</text>
<path d="M 22.464394 51.63119 C 22.59136 51.55864 22.79088 51.613052 22.863434 51.7763 C 22.89971 51.84885 22.89971 51.903263 22.89971 53.172935 C 22.89971 53.916603 22.89971 54.515163 22.917847 54.515163 C 22.917847 54.515163 23.08109 54.442608 23.280611 54.370056 C 23.69779 54.206814 23.752205 54.188675 23.861032 54.279366 C 23.988 54.370056 23.988 54.388195 23.988 55.113724 C 23.988 55.73042 23.988 55.784836 23.951725 55.83925 C 23.933586 55.875526 23.897308 55.911804 23.879171 55.92994 C 23.842896 55.94808 23.625237 56.056908 23.371302 56.1476 L 22.917847 56.34712 L 22.89971 57.81631 C 22.89971 58.61439 22.89971 59.285503 22.917847 59.285503 C 22.917847 59.285503 23.08109 59.21295 23.280611 59.1404 C 23.69779 58.977154 23.752205 58.95902 23.861032 59.04971 C 23.988 59.1404 23.988 59.15854 23.988 59.884064 C 23.988 60.500763 23.988 60.555176 23.951725 60.609592 C 23.933586 60.64587 23.897308 60.682144 23.879171 60.700283 C 23.842896 60.718422 23.625237 60.82725 23.371302 60.917942 L 22.917847 61.117462 L 22.89971 62.641068 C 22.89971 64.01957 22.88157 64.182816 22.863434 64.23723 C 22.736465 64.45489 22.428116 64.45489 22.30115 64.23723 C 22.283012 64.182816 22.264874 64.037704 22.264874 62.768036 L 22.264874 61.371395 L 21.484932 61.679745 L 20.723127 61.988094 L 20.723127 63.457287 C 20.723127 65.01717 20.723127 64.980896 20.632437 65.07159 C 20.59616 65.126 20.469193 65.18041 20.414778 65.18041 C 20.342226 65.18041 20.215258 65.126 20.178982 65.07159 C 20.088291 64.980896 20.088291 65.01717 20.088291 63.60239 C 20.088291 62.858727 20.088291 62.260166 20.070152 62.260166 C 20.070152 62.260166 19.90691 62.332718 19.70739 62.405273 C 19.29021 62.568516 19.235796 62.586655 19.126966 62.495964 C 19.0 62.405273 19.0 62.387135 19.0 61.661606 C 19.0 61.044907 19.0 60.990494 19.036276 60.936077 C 19.054415 60.899803 19.09069 60.863525 19.10883 60.845387 C 19.145105 60.82725 19.362764 60.718422 19.6167 60.62773 L 20.088291 60.42821 L 20.088291 58.95902 C 20.088291 58.16094 20.088291 57.489826 20.070152 57.489826 C 20.070152 57.489826 19.90691 57.562378 19.70739 57.63493 C 19.29021 57.798172 19.235796 57.81631 19.126966 57.72562 C 19.0 57.63493 19.0 57.61679 19.0 56.891266 C 19.0 56.274567 19.0 56.22015 19.036276 56.165737 C 19.054415 56.12946 19.09069 56.093185 19.10883 56.075047 C 19.145105 56.056908 19.362764 55.94808 19.6167 55.857388 L 20.088291 55.657867 L 20.088291 54.134262 C 20.088291 52.75576 20.10643 52.592514 20.124567 52.5381 C 20.251535 52.320442 20.559883 52.320442 20.686852 52.5381 C 20.704988 52.592514 20.723127 52.73762 20.723127 54.007294 L 20.741266 55.403934 L 21.503069 55.095585 L 22.264874 54.787235 L 22.264874 53.318043 C 22.264874 51.93954 22.264874 51.84885 22.30115 51.7763 C 22.337425 51.703743 22.373703 51.667465 22.464394 51.63119 M 22.264874 58.070248 L 22.264874 56.601055 L 21.484932 56.9094 L 20.723127 57.21775 L 20.723127 58.705082 L 20.723127 60.174274 L 20.777542 60.156136 C 20.813818 60.138 21.158443 59.992893 21.557484 59.84779 L 22.264874 59.55758 L 22.264874 58.070248 Z" fill="#404040" stroke="none" stroke-width="0.75" />
<path d="M 24.52 59.232 C 24.52 60.456 25.7152 61.68 26.896 61.68 C 30.496 61.68 34.096 59.232 34.096 56.856 C 34.096 55.6752 32.872 54.48 31.720001 54.48 C 28.12 54.48 24.52 56.856 24.52 59.232 Z" fill="#404040" stroke="none" stroke-width="1.0" />
<path d="M 23.0 134.25 L 31.0 134.25 L 31.0 141.75 L 23.0 141.75 L 23.0 134.25 Z" fill="#ffffff" stroke="none" stroke-width="1.0" />
<text x='23.0' y='141.75' font-family="Default" font-size="10.0" fill="#404040" >9</text>
<path d="M 33.18 73.04 L 34.18 73.04 L 34.18 26.0 L 33.18 26.0 M 33.18 73.04 Z" fill="#404040" stroke="none" stroke-width="0.75" />
<path d="M 33.18 24.0 L 33.18 28.0 L 54.18 28.0 L 54.18 24.0 L 33.18 24.0 Z" fill="#404040" stroke="none" stroke-width="0.75" />
<path d="M 41.0 70.0 L 57.0 70.0 Z" fill="none" stroke="#d6d6d6" stroke-width="0.75" />
<path d="M 44.52 75.232 C 44.52 76.456 45.715202 77.68 46.896 77.68 C 50.496002 77.68 54.096 75.232 54.096 72.856 C 54.096 71.6752 52.872 70.48 51.72 70.48 C 48.12 70.48 44.52 72.856 44.52 75.232 Z" fill="#404040" stroke="none" stroke-width="1.0" />
<path d="M 43.0 144.25 L 51.0 144.25 L 51.0 151.75 L 43.0 151.75 L 43.0 144.25 Z" fill="#ffffff" stroke="none" stroke-width="1.0" />
<text x='43.0' y='151.75' font-family="Default" font-size="10.0" fill="#404040" >7</text>
<path d="M 44.52 59.232 C 44.52 60.456 45.715202 61.68 46.896 61.68 C 50.496002 61.68 54.096 59.232 54.096 56.856 C 54.096 55.6752 52.872 54.48 51.72 54.48 C 48.12 54.48 44.52 56.856 44.52 59.232 Z" fill="#404040" stroke="none" stroke-width="1.0" />
<path d="M 43.0 134.25 L 51.0 134.25 L 51.0 141.75 L 43.0 141.75 L 43.0 134.25 Z" fill="#ffffff" stroke="none" stroke-width="1.0" />
<text x='43.0' y='141.75' font-family="Default" font-size="10.0" fill="#404040" >9</text>
<path d="M 53.18 73.04 L 54.18 73.04 L 54.18 26.0 L 53.18 26.0 M 53.18 73.04 Z" fill="#404040" stroke="none" stroke-width="0.75" />
<path d="M 61.0 70.0 L 77.0 70.0 Z" fill="none" stroke="#d6d6d6" stroke-width="0.75" />
<path d="M 64.52 75.232 C 64.52 76.456 65.715195 77.68 66.895996 77.68 C 70.495995 77.68 74.09599 75.232 74.09599 72.856 C 74.09599 71.6752 72.871994 70.48 71.71999 70.48 C 68.119995 70.48 64.52 72.856 64.52 75.232 Z" fill="#404040" stroke="none" stroke-width="1.0" />
<path d="M 63.0 144.25 L 71.0 144.25 L 71.0 151.75 L 63.0 151.75 L 63.0 144.25 Z" fill="#ffffff" stroke="none" stroke-width="1.0" />
<text x='63.0' y='151.75' font-family="Default" font-size="10.0" fill="#404040" >7</text>
<path d="M 64.52 59.232 C 64.52 60.456 65.715195 61.68 66.895996 61.68 C 70.495995 61.68 74.09599 59.232 74.09599 56.856 C 74.09599 55.6752 72.871994 54.48 71.71999 54.48 C 68.119995 54.48 64.52 56.856 64.52 59.232 Z" fill="#404040" stroke="none" stroke-width="1.0" />
<path d="M 63.0 134.25 L 71.0 134.25 L 71.0 141.75 L 63.0 141.75 L 63.0 134.25 Z" fill="#ffffff" stroke="none" stroke-width="1.0" />
<text x='63.0' y='141.75' font-family="Default" font-size="10.0" fill="#404040" >9</text>
<path d="M 73.18 73.04 L 74.18 73.04 L 74.18 26.0 L 73.18 26.0 M 73.18 73.04 Z" fill="#404040" stroke="none" stroke-width="0.75" />
<path d="M 73.18 24.0 L 73.18 28.0 L 94.18 28.0 L 94.18 24.0 L 73.18 24.0 Z" fill="#404040" stroke="none" stroke-width="0.75" />
<path d="M 81.0 70.0 L 97.0 70.0 Z" fill="none" stroke="#d6d6d6" stroke-width="0.75" />
<path d="M 84.52 75.232 C 84.52 76.456 85.715195 77.68 86.895996 77.68 C 90.495995 77.68 94.09599 75.232 94.09599 72.856 C 94.09599 71.6752 92.871994 70.48 91.71999 70.48 C 88.119995 70.48 84.52 72.856 84.52 75.232 Z" fill="#404040" stroke="none" stroke-width="1.0" />
<path d="M 83.0 144.25 L 91.0 144.25 L 91.0 151.75 L 83.0 151.75 L 83.0 144.25 Z" fill="#ffffff" stroke="none" stroke-width="1.0" />
<text x='83.0' y='151.75' font-family="Default" font-size="10.0" fill="#404040" >7</text>
<path d="M 84.52 59.232 C 84.52 60.456 85.715195 61.68 86.895996 61.68 C 90.495995 61.68 94.09599 59.232 94.09599 56.856 C 94.09599 55.6752 92.871994 54.48 91.71999 54.48 C 88.119995 54.48 84.52 56.856 84.52 59.232 Z" fill="#404040" stroke="none" stroke-width="1.0" />
<path d="M 83.0 134.25 L 91.0 134.25 L 91.0 141.75 L 83.0 141.75 L 83.0 134.25 Z" fill="#ffffff" stroke="none" stroke-width="1.0" />
<text x='83.0' y='141.75' font-family="Default" font-size="10.0" fill="#404040" >9</text>
<path d="M 93.18 73.04 L 94.18 73.04 L 94.18 26.0 L 93.18 26.0 M 93.18 73.04 Z" fill="#404040" stroke="none" stroke-width="0.75" />
<path d="M 101.0 70.0 L 117.0 70.0 Z" fill="none" stroke="#d6d6d6" stroke-width="0.75" />
<path d="M 104.52 75.232 C 104.52 76.456 105.715195 77.68 106.895996 77.68 C 110.495995 77.68 114.09599 75.232 114.09599 72.856 C 114.09599 71.6752 112.871994 70.48 111.71999 70.48 C 108.119995 70.48 104.52 72.856 104.52 75.232 Z" fill="#404040" stroke="none" stroke-width="1.0" />
<path d="M 103.0 144.25 L 111.0 144.25 L 111.0 151.75 L 103.0 151.75 L 103.0 144.25 Z" fill="#ffffff" stroke="none" stroke-width="1.0" />
<text x='103.0' y='151.75' font-family="Default" font-size="10.0" fill="#404040" >7</text>
<path d="M 104.52 59.232 C 104.52 60.456 105.715195 61.68 106.895996 61.68 C 110.495995 61.68 114.09599 59.232 114.09599 56.856 C 114.09599 55.6752 112.871994 54.48 111.71999 54.48 C 108.119995 54.48 104.52 56.856 104.52 59.232 Z" fill="#404040" stroke="none" stroke-width="1.0" />
<path d="M 103.0 134.25 L 111.0 134.25 L 111.0 141.75 L 103.0 141.75 L 103.0 134.25 Z" fill="#ffffff" stroke="none" stroke-width="1.0" />
<text x='103.0' y='141.75' font-family="Default" font-size="10.0" fill="#404040" >9</text>
<path d="M 113.18 73.04 L 114.18 73.04 L 114.18 26.0 L 113.18 26.0 M 113.18 73.04 Z" fill="#404040" stroke="none" stroke-width="0.75" />
<path d="M 113.18 24.0 L 113.18 28.0 L 134.18 28.0 L 134.18 24.0 L 113.18 24.0 Z" fill="#404040" stroke="none" stroke-width="0.75" />
<path d="M 121.0 70.0 L 137.0 70.0 Z" fill="none" stroke="#d6d6d6" stroke-width="0.75" />
<path d="M 124.52 75.232 C 124.52 76.456 125.715195 77.68 126.895996 77.68 C 130.496 77.68 134.096 75.232 134.096 72.856 C 134.096 71.6752 132.872 70.48 131.72 70.48 C 128.12 70.48 124.52 72.856 124.52 75.232 Z" fill="#404040" stroke="none" stroke-width="1.0" />
<path d="M 123.0 144.25 L 131.0 144.25 L 131.0 151.75 L 123.0 151.75 L 123.0 144.25 Z" fill="#ffffff" stroke="none" stroke-width="1.0" />
<text x='123.0' y='151.75' font-family="Default" font-size="10.0" fill="#404040" >7</text>
<path d="M 124.52 59.232 C 124.52 60.456 125.715195 61.68 126.895996 61.68 C 130.496 61.68 134.096 59.232 134.096 56.856 C 134.096 55.6752 132.872 54.48 131.72 54.48 C 128.12 54.48 124.52 56.856 124.52 59.232 Z" fill="#404040" stroke="none" stroke-width="1.0" />
<path d="M 123.0 134.25 L 131.0 134.25 L 131.0 141.75 L 123.0 141.75 L 123.0 134.25 Z" fill="#ffffff" stroke="none" stroke-width="1.0" />
<text x='123.0' y='141.75' font-family="Default" font-size="10.0" fill="#404040" >9</text>
<path d="M 133.18 73.04 L 134.18 73.04 L 134.18 26.0 L 133.18 26.0 M 133.18 73.04 Z" fill="#404040" stroke="none" stroke-width="0.75" />
<path d="M 141.0 70.0 L 157.0 70.0 Z" fill="none" stroke="#d6d6d6" stroke-width="0.75" />
<path d="M 144.52 75.232 C 144.52 76.456 145.71521 77.68 146.89601 77.68 C 150.496 77.68 154.09601 75.232 154.09601 72.856 C 154.09601 71.6752 152.87201 70.48 151.72 70.48 C 148.12001 70.48 144.52 72.856 144.52 75.232 Z" fill="#404040" stroke="none" stroke-width="1.0" />
<path d="M 143.0 144.25 L 151.0 144.25 L 151.0 151.75 L 143.0 151.75 L 143.0 144.25 Z" fill="#ffffff" stroke="none" stroke-width="1.0" />
<text x='143.0' y='151.75' font-family="Default" font-size="10.0" fill="#404040" >7</text>
<path d="M 144.52 59.232 C 144.52 60.456 145.71521 61.68 146.89601 61.68 C 150.496 61.68 154.09601 59.232 154.09601 56.856 C 154.09601 55.6752 152.87201 54.48 151.72 54.48 C 148.12001 54.48 144.52 56.856 144.52 59.232 Z" fill="#404040" stroke="none" stroke-width="1.0" />
<path d="M 143.0 134.25 L 151.0 134.25 L 151.0 141.75 L 143.0 141.75 L 143.0 134.25 Z" fill="#ffffff" stroke="none" stroke-width="1.0" />
<text x='143.0' y='141.75' font-family="Default" font-size="10.0" fill="#404040" >9</text>
<path d="M 153.18 73.04 L 154.18 73.04 L 154.18 26.0 L 153.18 26.0 M 153.18 73.04 Z" fill="#404040" stroke="none" stroke-width="0.75" />
<path d="M 153.18 24.0 L 153.18 28.0 L 174.18 28.0 L 174.18 24.0 L 153.18 24.0 Z" fill="#404040" stroke="none" stroke-width="0.75" />
<path d="M 161.0 70.0 L 177.0 70.0 Z" fill="none" stroke="#d6d6d6" stroke-width="0.75" />
<path d="M 164.52 75.232 C 164.52 76.456 165.71521 77.68 166.89601 77.68 C 170.496 77.68 174.09601 75.232 174.09601 72.856 C 174.09601 71.6752 172.87201 70.48 171.72 70.48 C 168.12001 70.48 164.52 72.856 164.52 75.232 Z" fill="#404040" stroke="none" stroke-width="1.0" />
<path d="M 163.0 144.25 L 171.0 144.25 L 171.0 151.75 L 163.0 151.75 L 163.0 144.25 Z" fill="#ffffff" stroke="none" stroke-width="1.0" />
<text x='163.0' y='151.75' font-family="Default" font-size="10.0" fill="#404040" >7</text>
<path d="M 164.52 59.232 C 164.52 60.456 165.71521 61.68 166.89601 61.68 C 170.496 61.68 174.09601 59.232 174.09601 56.856 C 174.09601 55.6752 172.87201 54.48 171.72 54.48 C 168.12001 54.48 164.52 56.856 164.52 59.232 Z" fill="#404040" stroke="none" stroke-width="1.0" />
<path d="M 163.0 134.25 L 171.0 134.25 L 171.0 141.75 L 163.0 141.75 L 163.0 134.25 Z" fill="#ffffff" stroke="none" stroke-width="1.0" />
<text x='163.0' y='141.75' font-family="Default" font-size="10.0" fill="#404040" >9</text>
<path d="M 173.18 73.04 L 174.18 73.04 L 174.18 26.0 L 173.18 26.0 M 173.18 73.04 Z" fill="#404040" stroke="none" stroke-width="0.75" /></g>
<text x='492.0' y='48.0' font-family="Default" font-size="10.0" fill="#ff0000" >3</text>
<path d="M 491.0 50.0 L 491.0 82.0 Z" fill="#000000" stroke="#000000" stroke-width="0.75" />
<path d="M 685.0 50.0 L 686.0 50.0 L 686.0 82.0 L 685.0 82.0 L 685.0 50.0 Z" fill="#000000" stroke="#000000" stroke-width="0.75" />
<path d="M 688.0 50.0 L 691.0 50.0 L 691.0 82.0 L 688.0 82.0 L 688.0 50.0 Z" fill="#000000" stroke="#000000" stroke-width="0.75" />
<path d="M 491.0 118.0 L 491.0 168.0 Z" fill="#000000" stroke="#000000" stroke-width="0.75" />
<path d="M 685.0 118.0 L 686.0 118.0 L 686.0 168.0 L 685.0 168.0 L 685.0 118.0 Z" fill="#000000" stroke="#000000" stroke-width="0.75" />
<path d="M 688.0 118.0 L 691.0 118.0 L 691.0 168.0 L 688.0 168.0 L 688.0 118.0 Z" fill="#000000" stroke="#000000" stroke-width="0.75" />
<path d="M 693.0 50.0 L 930.0 50.0 M 693.0 58.0 L 930.0 58.0 M 693.0 66.0 L 930.0 66.0 M 693.0 74.0 L 930.0 74.0 M 693.0 82.0 L 930.0 82.0 Z" fill="none" stroke="#d6d6d6" stroke-width="0.75" />
<path d="M 693.0 118.0 L 930.0 118.0 M 693.0 128.0 L 930.0 128.0 M 693.0 138.0 L 930.0 138.0 M 693.0 148.0 L 930.0 148.0 M 693.0 158.0 L 930.0 158.0 M 693.0 168.0 L 930.0 168.0 Z" fill="none" stroke="#d6d6d6" stroke-width="0.75" />
</svg>