<svg width="960.0px" height="233.0px" xmlns="http://www.w3.org/2000/svg" version="1.1">

<path d="M 0.0 0.0 L 960.0 0.0 L 960.0 233.0 L 0.0 233.0 L 0.0 0.0 Z" fill="#ffffff" stroke="none" stroke-width="1.0" /><g transform="translate(20.0,20.0)">
<path d="M 0.0 0.0 L 161.0 0.0 L 161.0 202.0 L 0.0 202.0 L 0.0 0.0 Z" fill="#ffffff" stroke="none" stroke-width="1.0" />
<path d="M 0.0 30.0 L 161.0 30.0 M 0.0 38.0 L 161.0 38.0 M 0.0 46.0 L 161.0 46.0 M 0.0 54.0 L 161.0 54.0 M 0.0 62.0 L 161.0 62.0 Z" fill="none" stroke="#d6d6d6" stroke-width="0.75" />
<path d="M 0.0 131.0 L 161.0 131.0 M 0.0 141.0 L 161.0 141.0 M 0.0 151.0 L 161.0 151.0 M 0.0 161.0 L 161.0 161.0 M 0.0 171.0 L 161.0 171.0 M 0.0 181.0 L 161.0 181.0 Z" fill="none" stroke="#d6d6d6" stroke-width="0.75" />
<path d="M 67.77043 30.40856 C 68.324905 30.40856 68.821014 30.350195 69.25876 30.20428 C 69.6965 30.058365 69.959145 30.0 70.04669 30.0 C 70.192604 30.0 70.28015 30.029182 70.36771 30.116732 C 70.42607 30.175097 70.45525 30.233463 70.484436 30.321012 C 70.484436 30.379377 70.45525 30.437744 70.42607 30.496109 L 61.933853 40.35992 L 66.924126 40.35992 L 66.924126 36.449417 C 66.924126 36.18677 67.01167 35.95331 67.1284 35.807392 C 67.3035 35.661476 67.4786 35.515564 67.71206 35.4572 C 67.97471 35.340466 68.26653 35.07782 68.64591 34.640076 C 68.937744 34.319065 69.317116 33.706226 69.75486 32.801556 C 69.81323 32.684826 69.90078 32.626457 70.01751 32.626457 C 70.28015 32.626457 70.39688 32.772373 70.42607 33.03502 L 70.42607 40.35992 L 72.55642 40.35992 C 72.84825 40.35992 72.99416 40.505836 73.023346 40.797665 C 73.023346 41.089493 72.877426 41.235405 72.55642 41.235405 L 70.42607 41.235405 L 70.42607 41.468872 C 70.42607 42.28599 70.63035 42.928013 71.00973 43.45331 C 71.44747 43.9786 71.97276 44.270428 72.5856 44.270428 C 72.81906 44.270428 72.9358 44.387157 72.9358 44.62062 C 72.9358 44.854084 72.81906 44.970818 72.5856 44.970818 C 72.14786 44.970818 71.50584 44.91245 70.601166 44.79572 C 69.696495 44.649803 69.054474 44.59144 68.64591 44.59144 C 68.23735 44.59144 67.56615 44.649803 66.69066 44.79572 C 65.81517 44.91245 65.17315 44.970818 64.735405 44.970818 C 64.501945 44.970818 64.385216 44.854084 64.385216 44.62062 C 64.385216 44.387157 64.501945 44.270428 64.735405 44.270428 C 65.34825 44.270428 65.87354 43.9786 66.31128 43.45331 C 66.71984 42.89883 66.924126 42.25681 66.924126 41.468872 L 66.924126 41.235405 L 61.933853 41.235405 C 61.61284 41.235405 61.379375 41.17704 61.233463 41.001945 C 61.087547 40.885212 61.0 40.710114 61.0 40.53502 C 61.0 40.476654 61.145912 40.272373 61.437744 39.92218 C 61.729572 39.571983 62.079765 39.105057 62.488327 38.492218 C 62.488327 38.492218 63.305447 37.20817 63.71401 36.449417 C 63.71401 36.449417 64.47276 34.78599 64.735405 33.706226 C 65.02724 32.65564 65.17315 31.575874 65.17315 30.496109 C 65.17315 30.175097 65.31907 30.029182 65.58171 30.029182 C 65.61089 30.029182 65.756805 30.058365 65.96109 30.11673 C 66.16537 30.175097 66.4572 30.233461 66.77821 30.32101 C 67.1284 30.379377 67.44942 30.40856 67.77043 30.40856 Z" fill="#000000" stroke="none" stroke-width="0.75" />
<path d="M 67.77043 47.40856 C 68.324905 47.40856 68.821014 47.350193 69.25876 47.20428 C 69.6965 47.058365 69.959145 47.0 70.04669 47.0 C 70.192604 47.0 70.28015 47.029182 70.36771 47.11673 C 70.42607 47.1751 70.45525 47.233463 70.484436 47.32101 C 70.484436 47.37938 70.45525 47.437744 70.42607 47.49611 L 61.933853 57.35992 L 66.924126 57.35992 L 66.924126 53.449417 C 66.924126 53.18677 67.01167 52.95331 67.1284 52.807392 C 67.3035 52.661476 67.4786 52.515564 67.71206 52.4572 C 67.97471 52.340466 68.26653 52.07782 68.64591 51.640076 C 68.937744 51.319065 69.317116 50.706226 69.75486 49.801556 C 69.81323 49.684826 69.90078 49.626457 70.01751 49.626457 C 70.28015 49.626457 70.39688 49.772373 70.42607 50.03502 L 70.42607 57.35992 L 72.55642 57.35992 C 72.84825 57.35992 72.99416 57.505836 73.023346 57.797665 C 73.023346 58.089493 72.877426 58.235405 72.55642 58.235405 L 70.42607 58.235405 L 70.42607 58.468872 C 70.42607 59.28599 70.63035 59.928013 71.00973 60.45331 C 71.44747 60.9786 71.97276 61.270428 72.5856 61.270428 C 72.81906 61.270428 72.9358 61.387157 72.9358 61.62062 C 72.9358 61.854084 72.81906 61.970818 72.5856 61.970818 C 72.14786 61.970818 71.50584 61.91245 70.601166 61.79572 C 69.696495 61.649803 69.054474 61.59144 68.64591 61.59144 C 68.23735 61.59144 67.56615 61.649803 66.69066 61.79572 C 65.81517 61.91245 65.17315 61.970818 64.735405 61.970818 C 64.501945 61.970818 64.385216 61.854084 64.385216 61.62062 C 64.385216 61.387157 64.501945 61.270428 64.735405 61.270428 C 65.34825 61.270428 65.87354 60.9786 66.31128 60.45331 C 66.71984 59.89883 66.924126 59.25681 66.924126 58.468872 L 66.924126 58.235405 L 61.933853 58.235405 C 61.61284 58.235405 61.379375 58.17704 61.233463 58.001945 C 61.087547 57.885212 61.0 57.710114 61.0 57.53502 C 61.0 57.476654 61.145912 57.272373 61.437744 56.92218 C 61.729572 56.571983 62.079765 56.105057 62.488327 55.492218 C 62.488327 55.492218 63.305447 54.20817 63.71401 53.449417 C 63.71401 53.449417 64.47276 51.78599 64.735405 50.706226 C 65.02724 49.65564 65.17315 48.575874 65.17315 47.49611 C 65.17315 47.175095 65.31907 47.029182 65.58171 47.029182 C 65.61089 47.029182 65.756805 47.058365 65.96109 47.11673 C 66.16537 47.175095 66.4572 47.233463 66.77821 47.32101 C 67.1284 47.379375 67.44942 47.408558 67.77043 47.408558 Z" fill="#000000" stroke="none" stroke-width="0.75" />
<path d="M 22.764973 22.115383 C 22.921913 22.036913 22.948072 22.036913 23.105015 22.036913 C 23.314268 22.06307 23.445057 22.14154 23.73278 22.455425 C 25.616081 24.39104 27.185501 27.843758 27.577856 30.773342 C 27.630169 31.244167 27.630169 32.34276 27.577856 32.839737 C 27.29013 35.533905 26.165377 37.99266 23.57584 41.52385 L 23.209644 42.020832 L 23.418898 42.62244 C 23.915882 44.061073 24.491331 45.81359 24.85753 47.095284 C 24.96216 47.409164 25.04063 47.67074 25.04063 47.696896 C 25.04063 47.696896 25.223728 47.696896 25.406826 47.723053 C 26.322319 47.80152 27.10703 48.01078 27.917896 48.40313 C 28.57182 48.74317 29.147274 49.13552 29.696568 49.658665 C 30.29818 50.260277 30.690535 50.80957 31.05673 51.568123 C 31.606026 52.666718 31.84144 53.81762 31.81528 54.96853 C 31.789125 55.700924 31.684496 56.25022 31.449085 56.930305 C 31.1352 57.924263 30.559748 58.83976 29.77504 59.62447 C 29.094955 60.30455 28.46719 60.72306 27.630169 61.063103 L 27.316284 61.193886 L 27.316284 62.135536 C 27.316284 63.469543 27.237814 65.038956 27.133184 65.980606 C 27.02856 66.94841 26.766989 67.86391 26.348476 68.700935 C 25.249886 70.92427 23.314268 72.10133 21.143244 71.89209 C 18.684484 71.65667 16.69656 69.98262 16.199577 67.73312 C 15.964161 66.713 16.068794 65.9283 16.487303 65.27437 C 17.036598 64.411194 18.082878 63.91421 19.102997 63.940365 C 20.30622 63.992683 21.274027 64.934326 21.457123 66.24218 C 21.58791 67.28845 21.143244 68.25626 20.30622 68.7794 C 19.835394 69.06713 19.181469 69.197914 18.684484 69.119446 C 18.606018 69.119446 18.527544 69.093285 18.527544 69.119446 L 18.84143 69.43333 C 19.416882 70.00878 20.070807 70.374985 20.907831 70.558075 C 21.090927 70.584236 21.247868 70.584236 21.666382 70.584236 C 22.137207 70.584236 22.189518 70.584236 22.451088 70.53192 C 22.81729 70.42729 23.131172 70.29651 23.418898 70.139565 C 24.726748 69.35486 25.616081 67.73312 25.851494 65.77136 C 25.929964 65.038956 26.008434 63.469543 26.008434 62.318638 C 26.008434 61.560085 26.008434 61.50777 25.956123 61.50777 C 25.851494 61.560085 25.302197 61.6124 24.909843 61.638554 C 24.41286 61.66471 23.57584 61.66471 23.183485 61.6124 C 21.640223 61.4293 20.227747 60.90616 18.998373 60.042976 C 17.167385 58.761288 15.859535 56.851826 15.31024 54.654644 C 14.604002 51.908165 15.100986 48.978584 16.827343 45.89206 C 17.55974 44.610374 18.265978 43.564095 20.018494 41.236122 L 21.012455 39.902122 L 20.829355 39.405136 C 19.573822 36.083202 19.15531 34.173744 19.024527 31.401108 C 18.972214 30.197887 19.024527 29.177761 19.181469 28.340742 C 19.573822 26.143559 20.593945 24.181787 22.189518 22.612366 C 22.503403 22.298483 22.63419 22.193855 22.764973 22.115383 M 24.831371 26.588224 C 24.569805 26.143559 24.622118 26.169712 24.386707 26.326658 C 23.65431 26.771324 22.89576 27.451405 22.34646 28.131483 C 21.221714 29.57012 20.593945 31.244167 20.515476 33.048996 C 20.489319 33.78139 20.56779 34.252216 20.907831 35.37696 C 21.169397 36.292458 21.901793 38.5158 21.95411 38.56811 C 21.95411 38.59427 22.111048 38.411175 22.26799 38.17576 C 24.072823 35.58622 25.04063 33.467506 25.406826 31.348791 C 25.485298 30.799496 25.53761 30.354828 25.563768 29.727062 C 25.589928 28.28843 25.432985 27.582191 24.831371 26.588224 M 22.581877 44.191864 C 22.424934 43.694878 22.26799 43.302525 22.26799 43.302525 C 22.241835 43.302525 21.143244 44.76731 20.672415 45.421238 C 19.129156 47.592266 18.187506 49.34478 17.638206 51.071136 C 17.27201 52.143574 17.115068 53.137543 17.062756 54.236134 C 17.062756 54.837746 17.088915 55.20394 17.193539 55.64861 C 17.795153 57.976578 20.280064 59.886036 23.209644 60.30455 C 23.65431 60.35686 24.909843 60.35686 25.459139 60.30455 C 26.008434 60.226078 25.956123 60.252235 25.929964 60.016823 C 25.773026 57.53191 25.563768 56.014805 25.14526 53.765305 C 24.988314 52.823658 24.543648 50.835728 24.517488 50.80957 C 24.491331 50.783417 23.99435 50.835728 23.706627 50.9142 C 23.340427 50.99267 23.105015 51.071136 22.79113 51.22808 C 21.090927 52.091263 20.593945 54.053036 21.666382 55.64861 C 21.849482 55.91018 22.320305 56.381004 22.608032 56.564102 C 22.71266 56.642574 22.948072 56.799515 23.105015 56.877987 C 23.340427 57.00877 23.392738 57.061085 23.445057 57.165714 C 23.65431 57.505756 23.523525 57.924263 23.131172 58.107365 C 22.921913 58.21199 22.764973 58.185837 22.34646 57.976578 C 21.326344 57.4796 20.56779 56.799515 20.018494 55.962494 C 18.998373 54.393074 18.867586 52.37899 19.70461 50.678787 C 20.437006 49.213997 21.744852 48.22003 23.418898 47.853836 C 23.57584 47.80152 23.706627 47.775368 23.706627 47.775368 C 23.73278 47.749207 23.000385 45.368923 22.581877 44.191864 M 26.139221 50.94036 C 26.060753 50.94036 25.98228 50.9142 25.956123 50.9142 L 25.877651 50.88804 L 26.008434 51.43734 C 26.610046 54.07919 27.054714 56.956455 27.211655 59.389057 C 27.237814 59.650627 27.237814 59.859882 27.237814 59.859882 C 27.263973 59.859882 27.60401 59.70294 27.78711 59.572155 C 28.231777 59.31058 28.65029 58.91823 28.99033 58.47356 C 29.801197 57.401123 30.08892 56.06712 29.77504 54.706955 C 29.539627 53.608364 28.911861 52.58824 28.022522 51.882008 C 27.473227 51.463493 26.740831 51.097298 26.139221 50.94036 Z" fill="#000000" stroke="none" stroke-width="0.75" />
<path d="M 92.0 70.0 L 108.0 70.0 Z" fill="none" stroke="#d6d6d6" stroke-width="0.75" />
<path d="M 92.0 78.0 L 108.0 78.0 Z" fill="none" stroke="#d6d6d6" stroke-width="0.75" />
<path d="M 92.0 86.0 L 108.0 86.0 Z" fill="none" stroke="#d6d6d6" stroke-width="0.75" />
<path d="M 92.0 70.0 L 108.0 70.0 Z" fill="none" stroke="#d6d6d6" stroke-width="0.75" />
<path d="M 92.0 78.0 L 108.0 78.0 Z" fill="none" stroke="#d6d6d6" stroke-width="0.75" />
<path d="M 92.0 86.0 L 108.0 86.0 Z" fill="none" stroke="#d6d6d6" stroke-width="0.75" />
<path d="M 96.0 91.024 C 96.0 92.112 97.0624 93.200005 98.112 93.200005 C 101.312 93.200005 104.512 91.024 104.512 88.912 C 104.512 87.862404 103.423996 86.8 102.4 86.8 C 99.2 86.8 96.0 88.912 96.0 91.024 Z" fill="none" stroke="#404040" stroke-width="1.0" />
<path d="M 94.0 177.25 L 102.0 177.25 L 102.0 184.75 L 94.0 184.75 L 94.0 177.25 Z" fill="#ffffff" stroke="none" stroke-width="1.0" />
<text x='94.0' y='184.75' font-family="Default" font-size="10.0" fill="#404040" >0</text>
<path d="M 104.18 89.04 L 105.18 89.04 L 105.18 58.0 L 104.18 58.0 M 104.18 89.04 Z" fill="#404040" stroke="none" stroke-width="0.75" />
<path d="M 117.0 70.0 L 133.0 70.0 Z" fill="none" stroke="#d6d6d6" stroke-width="0.75" />
<path d="M 117.0 70.0 L 133.0 70.0 Z" fill="none" stroke="#d6d6d6" stroke-width="0.75" />
<path d="M 118.46439 63.63119 C 118.59136 63.55864 118.79088 63.613052 118.863434 63.7763 C 118.89971 63.84885 118.89971 63.903263 118.89971 65.172935 C 118.89971 65.9166 118.89971 66.51516 118.91785 66.51516 C 118.91785 66.51516 119.08109 66.44261 119.28061 66.370056 C 119.69779 66.20681 119.752205 66.188675 119.86103 66.279366 C 119.988 66.370056 119.988 66.38819 119.988 67.11372 C 119.988 67.73042 119.988 67.784836 119.95172 67.83925 C 119.933586 67.87553 119.89731 67.911804 119.87917 67.92994 C 119.842896 67.94808 119.62524 68.05691 119.3713 68.1476 L 118.91785 68.34712 L 118.89971 69.816315 C 118.89971 70.614395 118.89971 71.28551 118.91785 71.28551 C 118.91785 71.28551 119.08109 71.21295 119.28061 71.140396 C 119.69779 70.97716 119.752205 70.959015 119.86103 71.049706 C 119.988 71.140396 119.988 71.15854 119.988 71.88406 C 119.988 72.50076 119.988 72.555176 119.95172 72.60959 C 119.933586 72.64587 119.89731 72.682144 119.87917 72.70028 C 119.842896 72.71842 119.62524 72.82725 119.3713 72.91794 L 118.91785 73.11746 L 118.89971 74.64107 C 118.89971 76.01957 118.88157 76.182816 118.863434 76.23723 C 118.736465 76.45489 118.428116 76.45489 118.30115 76.23723 C 118.28301 76.182816 118.26487 76.037704 118.26487 74.768036 L 118.26487 73.3714 L 117.48493 73.67974 L 116.72313 73.98809 L 116.72313 75.45728 C 116.72313 77.01717 116.72313 76.980896 116.63244 77.07159 C 116.59616 77.126 116.46919 77.18041 116.41478 77.18041 C 116.342224 77.18041 116.215256 77.126 116.178986 77.07159 C 116.08829 76.980896 116.08829 77.01717 116.08829 75.602394 C 116.08829 74.85873 116.08829 74.26017 116.07015 74.26017 C 116.07015 74.26017 115.906906 74.33272 115.70739 74.40527 C 115.290215 74.56851 115.235794 74.586655 115.12697 74.495964 C 115.0 74.40527 115.0 74.38713 115.0 73.661606 C 115.0 73.04491 115.0 72.99049 115.03628 72.93608 C 115.05441 72.8998 115.09069 72.863525 115.108826 72.84539 C 115.1451 72.82725 115.36276 72.71842 115.6167 72.62773 L 116.08829 72.42821 L 116.08829 70.959015 C 116.08829 70.160934 116.08829 69.48982 116.07015 69.48982 C 116.07015 69.48982 115.906906 69.56238 115.70739 69.63493 C 115.290215 69.79817 115.235794 69.816315 115.12697 69.725624 C 115.0 69.63493 115.0 69.61679 115.0 68.891266 C 115.0 68.27457 115.0 68.22015 115.03628 68.16573 C 115.05441 68.12946 115.09069 68.093185 115.108826 68.07504 C 115.1451 68.05691 115.36276 67.94808 115.6167 67.85739 L 116.08829 67.65787 L 116.08829 66.13426 C 116.08829 64.75576 116.10643 64.592514 116.124565 64.5381 C 116.25153 64.32044 116.55988 64.32044 116.68685 64.5381 C 116.70499 64.592514 116.72313 64.73762 116.72313 66.00729 L 116.741264 67.40393 L 117.50307 67.09558 L 118.26487 66.78723 L 118.26487 65.31804 C 118.26487 63.93954 118.26487 63.84885 118.30115 63.7763 C 118.337425 63.703743 118.3737 63.667465 118.46439 63.63119 M 118.26487 70.070244 L 118.26487 68.60105 L 117.48493 68.9094 L 116.72313 69.21775 L 116.72313 70.705086 L 116.72313 72.17428 L 116.77754 72.156136 C 116.81382 72.138 117.15845 71.9929 117.55749 71.847786 L 118.26487 71.55758 L 118.26487 70.070244 Z" fill="#404040" stroke="none" stroke-width="0.75" />
<path d="M 121.0 71.024 C 121.0 72.112 122.0624 73.200005 123.112 73.200005 C 126.312 73.200005 129.512 71.024 129.512 68.912 C 129.512 67.862404 128.424 66.8 127.4 66.8 C 124.2 66.8 121.0 68.912 121.0 71.024 Z" fill="none" stroke="#404040" stroke-width="1.0" />
<path d="M 119.0 167.25 L 127.0 167.25 L 127.0 174.75 L 119.0 174.75 L 119.0 167.25 Z" fill="#ffffff" stroke="none" stroke-width="1.0" />
<text x='119.0' y='174.75' font-family="Default" font-size="10.0" fill="#404040" >4</text>
<path d="M 129.18 69.04 L 130.18 69.04 L 130.18 38.0 L 129.18 38.0 M 129.18 69.04 Z" fill="#404040" stroke="none" stroke-width="0.75" /></g>
<path d="M 35.35 36.3 C 35.35 37.15 36.18 38.0 37.0 38.0 C 39.5 38.0 42.0 36.3 42.0 34.65 C 42.0 33.83 41.149998 33.0 40.35 33.0 C 37.85 33.0 35.35 34.65 35.35 36.3 Z" fill="#000000" stroke="none" stroke-width="1.0" />
<path d="M 42.0 20.0 L 42.0 34.7 Z" fill="none" stroke="#000000" stroke-width="1.0" />
<text x='43.0' y='36.25' font-family="Default" font-size="10.0" fill="#000000" > = 81</text>
<text x='21.0' y='48.0' font-family="Default" font-size="10.0" fill="#ff0000" >1</text>
<path d="M 20.0 50.0 L 23.0 50.0 L 23.0 151.0 L 20.0 151.0 L 20.0 50.0 Z" fill="#000000" stroke="#000000" stroke-width="0.75" />
<path d="M 25.0 50.0 L 26.0 50.0 L 26.0 151.0 L 25.0 151.0 L 25.0 50.0 Z" fill="#000000" stroke="#000000" stroke-width="0.75" />
<path d="M 181.0 50.0 L 181.0 82.0 Z" fill="#000000" stroke="#000000" stroke-width="0.75" />
<path d="M 20.0 151.0 L 23.0 151.0 L 23.0 201.0 L 20.0 201.0 L 20.0 151.0 Z" fill="#000000" stroke="#000000" stroke-width="0.75" />
<path d="M 25.0 151.0 L 26.0 151.0 L 26.0 201.0 L 25.0 201.0 L 25.0 151.0 Z" fill="#000000" stroke="#000000" stroke-width="0.75" />
<path d="M 181.0 151.0 L 181.0 201.0 Z" fill="#000000" stroke="#000000" stroke-width="0.75" /><g transform="translate(181.0,20.0)">
<path d="M 0.0 0.0 L 90.0 0.0 L 90.0 202.0 L 0.0 202.0 L 0.0 0.0 Z" fill="#ffffff" stroke="none" stroke-width="1.0" />
<path d="M 0.0 30.0 L 90.0 30.0 M 0.0 38.0 L 90.0 38.0 M 0.0 46.0 L 90.0 46.0 M 0.0 54.0 L 90.0 54.0 M 0.0 62.0 L 90.0 62.0 Z" fill="none" stroke="#d6d6d6" stroke-width="0.75" />
<path d="M 0.0 131.0 L 90.0 131.0 M 0.0 141.0 L 90.0 141.0 M 0.0 151.0 L 90.0 151.0 M 0.0 161.0 L 90.0 161.0 M 0.0 171.0 L 90.0 171.0 M 0.0 181.0 L 90.0 181.0 Z" fill="none" stroke="#d6d6d6" stroke-width="0.75" />
<path d="M 21.0 70.0 L 37.0 70.0 Z" fill="none" stroke="#d6d6d6" stroke-width="0.75" />
<path d="M 21.0 78.0 L 37.0 78.0 Z" fill="none" stroke="#d6d6d6" stroke-width="0.75" />
<path d="M 21.0 70.0 L 37.0 70.0 Z" fill="none" stroke="#d6d6d6" stroke-width="0.75" />
<path d="M 21.0 78.0 L 37.0 78.0 Z" fill="none" stroke="#d6d6d6" stroke-width="0.75" />
<path d="M 22.464394 75.63119 C 22.59136 75.55864 22.79088 75.61305 22.863434 75.7763 C 22.89971 75.84885 22.89971 75.90327 22.89971 77.172935 C 22.89971 77.9166 22.89971 78.51516 22.917847 78.51516 C 22.917847 78.51516 23.08109 78.44261 23.280611 78.370056 C 23.69779 78.20681 23.752205 78.188675 23.861032 78.279366 C 23.988 78.370056 23.988 78.38819 23.988 79.11372 C 23.988 79.73042 23.988 79.784836 23.951725 79.83925 C 23.933586 79.87553 23.897308 79.911804 23.879171 79.92994 C 23.842896 79.94808 23.625237 80.05691 23.371302 80.1476 L 22.917847 80.34712 L 22.89971 81.816315 C 22.89971 82.614395 22.89971 83.28551 22.917847 83.28551 C 22.917847 83.28551 23.08109 83.21295 23.280611 83.140396 C 23.69779 82.97716 23.752205 82.959015 23.861032 83.049706 C 23.988 83.140396 23.988 83.15854 23.988 83.88406 C 23.988 84.50076 23.988 84.555176 23.951725 84.60959 C 23.933586 84.64587 23.897308 84.682144 23.879171 84.70028 C 23.842896 84.71842 23.625237 84.82725 23.371302 84.91794 L 22.917847 85.11746 L 22.89971 86.64107 C 22.89971 88.01957 22.88157 88.182816 22.863434 88.23723 C 22.736465 88.45489 22.428116 88.45489 22.30115 88.23723 C 22.283012 88.182816 22.264874 88.037704 22.264874 86.768036 L 22.264874 85.3714 L 21.484932 85.67974 L 20.723127 85.98809 L 20.723127 87.45728 C 20.723127 89.01717 20.723127 88.980896 20.632437 89.07159 C 20.59616 89.126 20.469193 89.18041 20.414778 89.18041 C 20.342226 89.18041 20.215258 89.126 20.178982 89.07159 C 20.088291 88.980896 20.088291 89.01717 20.088291 87.602394 C 20.088291 86.85873 20.088291 86.26017 20.070152 86.26017 C 20.070152 86.26017 19.90691 86.33272 19.70739 86.40527 C 19.29021 86.56851 19.235796 86.586655 19.126966 86.495964 C 19.0 86.40527 19.0 86.38713 19.0 85.661606 C 19.0 85.04491 19.0 84.99049 19.036276 84.93608 C 19.054415 84.8998 19.09069 84.863525 19.10883 84.84539 C 19.145105 84.82725 19.362764 84.71842 19.6167 84.62773 L 20.088291 84.42821 L 20.088291 82.959015 C 20.088291 82.160934 20.088291 81.48982 20.070152 81.48982 C 20.070152 81.48982 19.90691 81.56238 19.70739 81.63493 C 19.29021 81.79817 19.235796 81.816315 19.126966 81.725624 C 19.0 81.63493 19.0 81.61679 19.0 80.891266 C 19.0 80.27457 19.0 80.22015 19.036276 80.16573 C 19.054415 80.12946 19.09069 80.093185 19.10883 80.07504 C 19.145105 80.05691 19.362764 79.94808 19.6167 79.85739 L 20.088291 79.65787 L 20.088291 78.13426 C 20.088291 76.75576 20.10643 76.592514 20.124567 76.5381 C 20.251535 76.32044 20.559883 76.32044 20.686852 76.5381 C 20.704988 76.592514 20.723127 76.73762 20.723127 78.00729 L 20.741266 79.40393 L 21.503069 79.09558 L 22.264874 78.78723 L 22.264874 77.31804 C 22.264874 75.93954 22.264874 75.84885 22.30115 75.7763 C 22.337425 75.70374 22.373703 75.667465 22.464394 75.63119 M 22.264874 82.070244 L 22.264874 80.60105 L 21.484932 80.9094 L 20.723127 81.21775 L 20.723127 82.705086 L 20.723127 84.17428 L 20.777542 84.156136 C 20.813818 84.138 21.158443 83.9929 21.557484 83.847786 L 22.264874 83.55758 L 22.264874 82.070244 Z" fill="#404040" stroke="none" stroke-width="0.75" />
<path d="M 25.0 83.024 C 25.0 84.112 26.0624 85.200005 27.112 85.200005 C 30.312 85.200005 33.512 83.024 33.512 80.912 C 33.512 79.862404 32.424 78.8 31.4 78.8 C 28.2 78.8 25.0 80.912 25.0 83.024 Z" fill="none" stroke="#404040" stroke-width="1.0" />
<path d="M 23.0 177.25 L 31.0 177.25 L 31.0 184.75 L 23.0 184.75 L 23.0 177.25 Z" fill="#ffffff" stroke="none" stroke-width="1.0" />
<text x='23.0' y='184.75' font-family="Default" font-size="10.0" fill="#404040" >4</text>
<path d="M 33.18 81.04 L 34.18 81.04 L 34.18 50.0 L 33.18 50.0 M 33.18 81.04 Z" fill="#404040" stroke="none" stroke-width="0.75" />
<path d="M 46.0 70.0 L 62.0 70.0 Z" fill="none" stroke="#d6d6d6" stroke-width="0.75" />
<path d="M 46.0 78.0 L 62.0 78.0 Z" fill="none" stroke="#d6d6d6" stroke-width="0.75" />
<path d="M 46.0 70.0 L 62.0 70.0 Z" fill="none" stroke="#d6d6d6" stroke-width="0.75" />
<path d="M 46.0 78.0 L 62.0 78.0 Z" fill="none" stroke="#d6d6d6" stroke-width="0.75" />
<path d="M 50.0 79.024 C 50.0 80.112 51.0624 81.200005 52.112 81.200005 C 55.312 81.200005 58.512 79.024 58.512 76.912 C 58.512 75.862404 57.424 74.8 56.4 74.8 C 53.2 74.8 50.0 76.912 50.0 79.024 Z" fill="none" stroke="#404040" stroke-width="1.0" />
<path d="M 48.0 177.25 L 56.0 177.25 L 56.0 184.75 L 48.0 184.75 L 48.0 177.25 Z" fill="#ffffff" stroke="none" stroke-width="1.0" />
<text x='48.0' y='184.75' font-family="Default" font-size="10.0" fill="#404040" >5</text>
<path d="M 58.18 77.04 L 59.18 77.04 L 59.18 46.0 L 58.18 46.0 M 58.18 77.04 Z" fill="#404040" stroke="none" stroke-width="0.75" /></g>
<text x='182.0' y='48.0' font-family="Default" font-size="10.0" fill="#ff0000" >2</text>
<path d="M 181.0 50.0 L 181.0 82.0 Z" fill="#000000" stroke="#000000" stroke-width="0.75" />
<path d="M 271.0 50.0 L 271.0 82.0 Z" fill="#000000" stroke="#000000" stroke-width="0.75" />
<path d="M 181.0 151.0 L 181.0 201.0 Z" fill="#000000" stroke="#000000" stroke-width="0.75" />
<path d="M 271.0 151.0 L 271.0 201.0 Z" fill="#000000" stroke="#000000" stroke-width="0.75" /><g transform="translate(271.0,20.0)">
<path d="M 0.0 0.0 L 200.0 0.0 L 200.0 202.0 L 0.0 202.0 L 0.0 0.0 Z" fill="#ffffff" stroke="none" stroke-width="1.0" />
<path d="M 0.0 30.0 L 200.0 30.0 M 0.0 38.0 L 200.0 38.0 M 0.0 46.0 L 200.0 46.0 M 0.0 54.0 L 200.0 54.0 M 0.0 62.0 L 200.0 62.0 Z" fill="none" stroke="#d6d6d6" stroke-width="0.75" />
<path d="M 0.0 131.0 L 200.0 131.0 M 0.0 141.0 L 200.0 141.0 M 0.0 151.0 L 200.0 151.0 M 0.0 161.0 L 200.0 161.0 M 0.0 171.0 L 200.0 171.0 M 0.0 181.0 L 200.0 181.0 Z" fill="none" stroke="#d6d6d6" stroke-width="0.75" />
<path d="M 21.0 70.0 L 37.0 70.0 Z" fill="none" stroke="#d6d6d6" stroke-width="0.75" />
<path d="M 21.0 70.0 L 37.0 70.0 Z" fill="none" stroke="#d6d6d6" stroke-width="0.75" />
<path d="M 21.0 78.0 L 37.0 78.0 Z" fill="none" stroke="#d6d6d6" stroke-width="0.75" />
<path d="M 21.0 86.0 L 37.0 86.0 Z" fill="none" stroke="#d6d6d6" stroke-width="0.75" />
<path d="M 24.52 91.232 C 24.52 92.456 25.7152 93.68 26.896 93.68 C 30.496 93.68 34.096 91.232 34.096 88.856 C 34.096 87.6752 32.872 86.48 31.720001 86.48 C 28.12 86.48 24.52 88.856 24.52 91.232 Z" fill="#404040" stroke="none" stroke-width="1.0" />
<path d="M 23.0 177.25 L 31.0 177.25 L 31.0 184.75 L 23.0 184.75 L 23.0 177.25 Z" fill="#ffffff" stroke="none" stroke-width="1.0" />
<text x='23.0' y='184.75' font-family="Default" font-size="10.0" fill="#404040" >0</text>
<path d="M 24.52 75.232 C 24.52 76.456 25.7152 77.68 26.896 77.68 C 30.496 77.68 34.096 75.232 34.096 72.856 C 34.096 71.6752 32.872 70.48 31.720001 70.48 C 28.12 70.48 24.52 72.856 24.52 75.232 Z" fill="#404040" stroke="none" stroke-width="1.0" />
<path d="M 23.0 167.25 L 31.0 167.25 L 31.0 174.75 L 23.0 174.75 L 23.0 167.25 Z" fill="#ffffff" stroke="none" stroke-width="1.0" />
<text x='23.0' y='174.75' font-family="Default" font-size="10.0" fill="#404040" >2</text>
<path d="M 33.18 89.04 L 34.18 89.04 L 34.18 42.0 L 33.18 42.0 M 33.18 89.04 Z" fill="#404040" stroke="none" stroke-width="0.75" />
<path d="M 33.18 40.0 L 33.18 44.0 L 54.18 44.0 L 54.18 40.0 L 33.18 40.0 Z" fill="#404040" stroke="none" stroke-width="0.75" />
<path d="M 41.0 70.0 L 57.0 70.0 Z" fill="none" stroke="#d6d6d6" stroke-width="0.75" />
<path d="M 41.0 70.0 L 57.0 70.0 Z" fill="none" stroke="#d6d6d6" stroke-width="0.75" />
<path d="M 41.0 78.0 L 57.0 78.0 Z" fill="none" stroke="#d6d6d6" stroke-width="0.75" />
<path d="M 41.0 86.0 L 57.0 86.0 Z" fill="none" stroke="#d6d6d6" stroke-width="0.75" />
<path d="M 44.52 75.232 C 44.52 76.456 45.715202 77.68 46.896 77.68 C 50.496002 77.68 54.096 75.232 54.096 72.856 C 54.096 71.6752 52.872 70.48 51.72 70.48 C 48.12 70.48 44.52 72.856 44.52 75.232 Z" fill="#404040" stroke="none" stroke-width="1.0" />
<path d="M 43.0 167.25 L 51.0 167.25 L 51.0 174.75 L 43.0 174.75 L 43.0 167.25 Z" fill="#ffffff" stroke="none" stroke-width="1.0" />
<text x='43.0' y='174.75' font-family="Default" font-size="10.0" fill="#404040" >2</text>
<path d="M 44.52 91.232 C 44.52 92.456 45.715202 93.68 46.896 93.68 C 50.496002 93.68 54.096 91.232 54.096 88.856 C 54.096 87.6752 52.872 86.48 51.72 86.48 C 48.12 86.48 44.52 88.856 44.52 91.232 Z" fill="#404040" stroke="none" stroke-width="1.0" />
<path d="M 43.0 177.25 L 51.0 177.25 L 51.0 184.75 L 43.0 184.75 L 43.0 177.25 Z" fill="#ffffff" stroke="none" stroke-width="1.0" />
<text x='43.0' y='184.75' font-family="Default" font-size="10.0" fill="#404040" >0</text>
<path d="M 53.18 89.04 L 54.18 89.04 L 54.18 42.0 L 53.18 42.0 M 53.18 89.04 Z" fill="#404040" stroke="none" stroke-width="0.75" />
<path d="M 61.0 70.0 L 77.0 70.0 Z" fill="none" stroke="#d6d6d6" stroke-width="0.75" />
<path d="M 61.0 70.0 L 77.0 70.0 Z" fill="none" stroke="#d6d6d6" stroke-width="0.75" />
<path d="M 61.0 78.0 L 77.0 78.0 Z" fill="none" stroke="#d6d6d6" stroke-width="0.75" />
<path d="M 61.0 86.0 L 77.0 86.0 Z" fill="none" stroke="#d6d6d6" stroke-width="0.75" />
<path d="M 64.52 91.232 C 64.52 92.456 65.715195 93.68 66.895996 93.68 C 70.495995 93.68 74.09599 91.232 74.09599 88.856 C 74.09599 87.6752 72.871994 86.48 71.71999 86.48 C 68.119995 86.48 64.52 88.856 64.52 91.232 Z" fill="#404040" stroke="none" stroke-width="1.0" />
<path d="M 63.0 177.25 L 71.0 177.25 L 71.0 184.75 L 63.0 184.75 L 63.0 177.25 Z" fill="#ffffff" stroke="none" stroke-width="1.0" />
<text x='63.0' y='184.75' font-family="Default" font-size="10.0" fill="#404040" >0</text>
<path d="M 64.52 75.232 C 64.52 76.456 65.715195 77.68 66.895996 77.68 C 70.495995 77.68 74.09599 75.232 74.09599 72.856 C 74.09599 71.6752 72.871994 70.48 71.71999 70.48 C 68.119995 70.48 64.52 72.856 64.52 75.232 Z" fill="#404040" stroke="none" stroke-width="1.0" />
<path d="M 63.0 167.25 L 71.0 167.25 L 71.0 174.75 L 63.0 174.75 L 63.0 167.25 Z" fill="#ffffff" stroke="none" stroke-width="1.0" />
<text x='63.0' y='174.75' font-family="Default" font-size="10.0" fill="#404040" >2</text>
<path d="M 73.18 89.04 L 74.18 89.04 L 74.18 42.0 L 73.18 42.0 M 73.18 89.04 Z" fill="#404040" stroke="none" stroke-width="0.75" />
<path d="M 73.18 40.0 L 73.18 44.0 L 94.18 44.0 L 94.18 40.0 L 73.18 40.0 Z" fill="#404040" stroke="none" stroke-width="0.75" />
<path d="M 81.0 70.0 L 97.0 70.0 Z" fill="none" stroke="#d6d6d6" stroke-width="0.75" />
<path d="M 81.0 70.0 L 97.0 70.0 Z" fill="none" stroke="#d6d6d6" stroke-width="0.75" />
<path d="M 81.0 78.0 L 97.0 78.0 Z" fill="none" stroke="#d6d6d6" stroke-width="0.75" />
<path d="M 81.0 86.0 L 97.0 86.0 Z" fill="none" stroke="#d6d6d6" stroke-width="0.75" />
<path d="M 84.52 91.232 C 84.52 92.456 85.715195 93.68 86.895996 93.68 C 90.495995 93.68 94.09599 91.232 94.09599 88.856 C 94.09599 87.6752 92.871994 86.48 91.71999 86.48 C 88.119995 86.48 84.52 88.856 84.52 91.232 Z" fill="#404040" stroke="none" stroke-width="1.0" />
<path d="M 83.0 177.25 L 91.0 177.25 L 91.0 184.75 L 83.0 184.75 L 83.0 177.25 Z" fill="#ffffff" stroke="none" stroke-width="1.0" />
<text x='83.0' y='184.75' font-family="Default" font-size="10.0" fill="#404040" >0</text>
<path d="M 84.52 75.232 C 84.52 76.456 85.715195 77.68 86.895996 77.68 C 90.495995 77.68 94.09599 75.232 94.09599 72.856 C 94.09599 71.6752 92.871994 70.48 91.71999 70.48 C 88.119995 70.48 84.52 72.856 84.52 75.232 Z" fill="#404040" stroke="none" stroke-width="1.0" />
<path d="M 83.0 167.25 L 91.0 167.25 L 91.0 174.75 L 83.0 174.75 L 83.0 167.25 Z" fill="#ffffff" stroke="none" stroke-width="1.0" />
<text x='83.0' y='174.75' font-family="Default" font-size="10.0" fill="#404040" >2</text>
<path d="M 93.18 89.04 L 94.18 89.04 L 94.18 42.0 L 93.18 42.0 M 93.18 89.04 Z" fill="#404040" stroke="none" stroke-width="0.75" />
<path d="M 101.0 70.0 L 117.0 70.0 Z" fill="none" stroke="#d6d6d6" stroke-width="0.75" />
<path d="M 101.0 78.0 L 117.0 78.0 Z" fill="none" stroke="#d6d6d6" stroke-width="0.75" />
<path d="M 102.46439 75.63119 C 102.59136 75.55864 102.79088 75.61305 102.863434 75.7763 C 102.89971 75.84885 102.89971 75.90327 102.89971 77.172935 C 102.89971 77.9166 102.89971 78.51516 102.91785 78.51516 C 102.91785 78.51516 103.08109 78.44261 103.28061 78.370056 C 103.69779 78.20681 103.752205 78.188675 103.86103 78.279366 C 103.988 78.370056 103.988 78.38819 103.988 79.11372 C 103.988 79.73042 103.988 79.784836 103.95172 79.83925 C 103.933586 79.87553 103.89731 79.911804 103.87917 79.92994 C 103.842896 79.94808 103.62524 80.05691 103.3713 80.1476 L 102.91785 80.34712 L 102.89971 81.816315 C 102.89971 82.614395 102.89971 83.28551 102.91785 83.28551 C 102.91785 83.28551 103.08109 83.21295 103.28061 83.140396 C 103.69779 82.97716 103.752205 82.959015 103.86103 83.049706 C 103.988 83.140396 103.988 83.15854 103.988 83.88406 C 103.988 84.50076 103.988 84.555176 103.95172 84.60959 C 103.933586 84.64587 103.89731 84.682144 103.87917 84.70028 C 103.842896 84.71842 103.62524 84.82725 103.3713 84.91794 L 102.91785 85.11746 L 102.89971 86.64107 C 102.89971 88.01957 102.88157 88.182816 102.863434 88.23723 C 102.736465 88.45489 102.428116 88.45489 102.30115 88.23723 C 102.28301 88.182816 102.26487 88.037704 102.26487 86.768036 L 102.26487 85.3714 L 101.48493 85.67974 L 100.72313 85.98809 L 100.72313 87.45728 C 100.72313 89.01717 100.72313 88.980896 100.63244 89.07159 C 100.59616 89.126 100.46919 89.18041 100.41478 89.18041 C 100.342224 89.18041 100.215256 89.126 100.178986 89.07159 C 100.08829 88.980896 100.08829 89.01717 100.08829 87.602394 C 100.08829 86.85873 100.08829 86.26017 100.07015 86.26017 C 100.07015 86.26017 99.906906 86.33272 99.70739 86.40527 C 99.290215 86.56851 99.235794 86.586655 99.12697 86.495964 C 99.0 86.40527 99.0 86.38713 99.0 85.661606 C 99.0 85.04491 99.0 84.99049 99.03628 84.93608 C 99.05441 84.8998 99.09069 84.863525 99.108826 84.84539 C 99.1451 84.82725 99.36276 84.71842 99.6167 84.62773 L 100.08829 84.42821 L 100.08829 82.959015 C 100.08829 82.160934 100.08829 81.48982 100.07015 81.48982 C 100.07015 81.48982 99.906906 81.56238 99.70739 81.63493 C 99.290215 81.79817 99.235794 81.816315 99.12697 81.725624 C 99.0 81.63493 99.0 81.61679 99.0 80.891266 C 99.0 80.27457 99.0 80.22015 99.03628 80.16573 C 99.05441 80.12946 99.09069 80.093185 99.108826 80.07504 C 99.1451 80.05691 99.36276 79.94808 99.6167 79.85739 L 100.08829 79.65787 L 100.08829 78.13426 C 100.08829 76.75576 100.10643 76.592514 100.124565 76.5381 C 100.25153 76.32044 100.55988 76.32044 100.68685 76.5381 C 100.70499 76.592514 100.72313 76.73762 100.72313 78.00729 L 100.741264 79.40393 L 101.50307 79.09558 L 102.26487 78.78723 L 102.26487 77.31804 C 102.26487 75.93954 102.26487 75.84885 102.30115 75.7763 C 102.337425 75.70374 102.3737 75.667465 102.46439 75.63119 M 102.26487 82.070244 L 102.26487 80.60105 L 101.48493 80.9094 L 100.72313 81.21775 L 100.72313 82.705086 L 100.72313 84.17428 L 100.77754 84.156136 C 100.81382 84.138 101.15845 83.9929 101.55749 83.847786 L 102.26487 83.55758 L 102.26487 82.070244 Z" fill="#404040" stroke="none" stroke-width="0.75" />
<path d="M 104.52 83.232 C 104.52 84.456 105.715195 85.68 106.895996 85.68 C 110.495995 85.68 114.09599 83.232 114.09599 80.856 C 114.09599 79.6752 112.871994 78.48 111.71999 78.48 C 108.119995 78.48 104.52 80.856 104.52 83.232 Z" fill="#404040" stroke="none" stroke-width="1.0" />
<path d="M 103.0 177.25 L 111.0 177.25 L 111.0 184.75 L 103.0 184.75 L 103.0 177.25 Z" fill="#ffffff" stroke="none" stroke-width="1.0" />
<text x='103.0' y='184.75' font-family="Default" font-size="10.0" fill="#404040" >4</text>
<path d="M 102.46439 59.63119 C 102.59136 59.55864 102.79088 59.613052 102.863434 59.7763 C 102.89971 59.84885 102.89971 59.903263 102.89971 61.172935 C 102.89971 61.916603 102.89971 62.515163 102.91785 62.515163 C 102.91785 62.515163 103.08109 62.442608 103.28061 62.370056 C 103.69779 62.206814 103.752205 62.188675 103.86103 62.279366 C 103.988 62.370056 103.988 62.388195 103.988 63.113724 C 103.988 63.73042 103.988 63.784836 103.95172 63.83925 C 103.933586 63.875526 103.89731 63.911804 103.87917 63.92994 C 103.842896 63.94808 103.62524 64.05691 103.3713 64.1476 L 102.91785 64.34712 L 102.89971 65.816315 C 102.89971 66.614395 102.89971 67.28551 102.91785 67.28551 C 102.91785 67.28551 103.08109 67.21295 103.28061 67.140396 C 103.69779 66.97716 103.752205 66.959015 103.86103 67.049706 C 103.988 67.140396 103.988 67.15854 103.988 67.88406 C 103.988 68.50076 103.988 68.555176 103.95172 68.60959 C 103.933586 68.64587 103.89731 68.682144 103.87917 68.70028 C 103.842896 68.71842 103.62524 68.82725 103.3713 68.91794 L 102.91785 69.11746 L 102.89971 70.64107 C 102.89971 72.01957 102.88157 72.182816 102.863434 72.23723 C 102.736465 72.45489 102.428116 72.45489 102.30115 72.23723 C 102.28301 72.182816 102.26487 72.037704 102.26487 70.768036 L 102.26487 69.3714 L 101.48493 69.67974 L 100.72313 69.98809 L 100.72313 71.45728 C 100.72313 73.01717 100.72313 72.980896 100.63244 73.07159 C 100.59616 73.126 100.46919 73.18041 100.41478 73.18041 C 100.342224 73.18041 100.215256 73.126 100.178986 73.07159 C 100.08829 72.980896 100.08829 73.01717 100.08829 71.602394 C 100.08829 70.85873 100.08829 70.26017 100.07015 70.26017 C 100.07015 70.26017 99.906906 70.33272 99.70739 70.40527 C 99.290215 70.56851 99.235794 70.586655 99.12697 70.495964 C 99.0 70.40527 99.0 70.38713 99.0 69.661606 C 99.0 69.04491 99.0 68.99049 99.03628 68.93608 C 99.05441 68.8998 99.09069 68.863525 99.108826 68.84539 C 99.1451 68.82725 99.36276 68.71842 99.6167 68.62773 L 100.08829 68.42821 L 100.08829 66.959015 C 100.08829 66.160934 100.08829 65.48982 100.07015 65.48982 C 100.07015 65.48982 99.906906 65.56238 99.70739 65.63493 C 99.290215 65.79817 99.235794 65.816315 99.12697 65.725624 C 99.0 65.63493 99.0 65.61679 99.0 64.891266 C 99.0 64.27457 99.0 64.22015 99.03628 64.16573 C 99.05441 64.12946 99.09069 64.093185 99.108826 64.07504 C 99.1451 64.05691 99.36276 63.94808 99.6167 63.857388 L 100.08829 63.657867 L 100.08829 62.134262 C 100.08829 60.75576 100.10643 60.592514 100.124565 60.5381 C 100.25153 60.320442 100.55988 60.320442 100.68685 60.5381 C 100.70499 60.592514 100.72313 60.73762 100.72313 62.007294 L 100.741264 63.403934 L 101.50307 63.095585 L 102.26487 62.787235 L 102.26487 61.318043 C 102.26487 59.93954 102.26487 59.84885 102.30115 59.7763 C 102.337425 59.703743 102.3737 59.667465 102.46439 59.63119 M 102.26487 66.070244 L 102.26487 64.60105 L 101.48493 64.9094 L 100.72313 65.21775 L 100.72313 66.705086 L 100.72313 68.17428 L 100.77754 68.156136 C 100.81382 68.138 101.15845 67.9929 101.55749 67.847786 L 102.26487 67.55758 L 102.26487 66.070244 Z" fill="#404040" stroke="none" stroke-width="0.75" />
<path d="M 104.52 67.232 C 104.52 68.456 105.715195 69.68 106.895996 69.68 C 110.495995 69.68 114.09599 67.232 114.09599 64.856 C 114.09599 63.6752 112.871994 62.48 111.71999 62.48 C 108.119995 62.48 104.52 64.856 104.52 67.232 Z" fill="#404040" stroke="none" stroke-width="1.0" />
<path d="M 103.0 167.25 L 111.0 167.25 L 111.0 174.75 L 103.0 174.75 L 103.0 167.25 Z" fill="#ffffff" stroke="none" stroke-width="1.0" />
<text x='103.0' y='174.75' font-family="Default" font-size="10.0" fill="#404040" >6</text>
<path d="M 113.18 81.04 L 114.18 81.04 L 114.18 34.0 L 113.18 34.0 M 113.18 81.04 Z" fill="#404040" stroke="none" stroke-width="0.75" />
<path d="M 113.18 32.0 L 113.18 36.0 L 134.18 36.0 L 134.18 32.0 L 113.18 32.0 Z" fill="#404040" stroke="none" stroke-width="0.75" />
<path d="M 121.0 70.0 L 137.0 70.0 Z" fill="none" stroke="#d6d6d6" stroke-width="0.75" />
<path d="M 121.0 78.0 L 137.0 78.0 Z" fill="none" stroke="#d6d6d6" stroke-width="0.75" />
<path d="M 124.52 67.232 C 124.52 68.456 125.715195 69.68 126.895996 69.68 C 130.496 69.68 134.096 67.232 134.096 64.856 C 134.096 63.6752 132.872 62.48 131.72 62.48 C 128.12 62.48 124.52 64.856 124.52 67.232 Z" fill="#404040" stroke="none" stroke-width="1.0" />
<path d="M 123.0 167.25 L 131.0 167.25 L 131.0 174.75 L 123.0 174.75 L 123.0 167.25 Z" fill="#ffffff" stroke="none" stroke-width="1.0" />
<text x='123.0' y='174.75' font-family="Default" font-size="10.0" fill="#404040" >6</text>
<path d="M 124.52 83.232 C 124.52 84.456 125.715195 85.68 126.895996 85.68 C 130.496 85.68 134.096 83.232 134.096 80.856 C 134.096 79.6752 132.872 78.48 131.72 78.48 C 128.12 78.48 124.52 80.856 124.52 83.232 Z" fill="#404040" stroke="none" stroke-width="1.0" />
<path d="M 123.0 177.25 L 131.0 177.25 L 131.0 184.75 L 123.0 184.75 L 123.0 177.25 Z" fill="#ffffff" stroke="none" stroke-width="1.0" />
<text x='123.0' y='184.75' font-family="Default" font-size="10.0" fill="#404040" >4</text>
<path d="M 133.18 81.04 L 134.18 81.04 L 134.18 34.0 L 133.18 34.0 M 133.18 81.04 Z" fill="#404040" stroke="none" stroke-width="0.75" />
<path d="M 141.0 70.0 L 157.0 70.0 Z" fill="none" stroke="#d6d6d6" stroke-width="0.75" />
<path d="M 141.0 78.0 L 157.0 78.0 Z" fill="none" stroke="#d6d6d6" stroke-width="0.75" />
<path d="M 144.52 67.232 C 144.52 68.456 145.71521 69.68 146.89601 69.68 C 150.496 69.68 154.09601 67.232 154.09601 64.856 C 154.09601 63.6752 152.87201 62.48 151.72 62.48 C 148.12001 62.48 144.52 64.856 144.52 67.232 Z" fill="#404040" stroke="none" stroke-width="1.0" />
<path d="M 143.0 167.25 L 151.0 167.25 L 151.0 174.75 L 143.0 174.75 L 143.0 167.25 Z" fill="#ffffff" stroke="none" stroke-width="1.0" />
<text x='143.0' y='174.75' font-family="Default" font-size="10.0" fill="#404040" >6</text>
<path d="M 144.52 83.232 C 144.52 84.456 145.71521 85.68 146.89601 85.68 C 150.496 85.68 154.09601 83.232 154.09601 80.856 C 154.09601 79.6752 152.87201 78.48 151.72 78.48 C 148.12001 78.48 144.52 80.856 144.52 83.232 Z" fill="#404040" stroke="none" stroke-width="1.0" />
<path d="M 143.0 177.25 L 151.0 177.25 L 151.0 184.75 L 143.0 184.75 L 143.0 177.25 Z" fill="#ffffff" stroke="none" stroke-width="1.0" />
<text x='143.0' y='184.75' font-family="Default" font-size="10.0" fill="#404040" >4</text>
<path d="M 153.18 81.04 L 154.18 81.04 L 154.18 34.0 L 153.18 34.0 M 153.18 81.04 Z" fill="#404040" stroke="none" stroke-width="0.75" />
<path d="M 153.18 32.0 L 153.18 36.0 L 174.18 36.0 L 174.18 32.0 L 153.18 32.0 Z" fill="#404040" stroke="none" stroke-width="0.75" />
<path d="M 161.0 70.0 L 177.0 70.0 Z" fill="none" stroke="#d6d6d6" stroke-width="0.75" />
<path d="M 161.0 78.0 L 177.0 78.0 Z" fill="none" stroke="#d6d6d6" stroke-width="0.75" />
<path d="M 164.52 67.232 C 164.52 68.456 165.71521 69.68 166.89601 69.68 C 170.496 69.68 174.09601 67.232 174.09601 64.856 C 174.09601 63.6752 172.87201 62.48 171.72 62.48 C 168.12001 62.48 164.52 64.856 164.52 67.232 Z" fill="#404040" stroke="none" stroke-width="1.0" />
<path d="M 163.0 167.25 L 171.0 167.25 L 171.0 174.75 L 163.0 174.75 L 163.0 167.25 Z" fill="#ffffff" stroke="none" stroke-width="1.0" />
<text x='163.0' y='174.75' font-family="Default" font-size="10.0" fill="#404040" >6</text>
<path d="M 164.52 83.232 C 164.52 84.456 165.71521 85.68 166.89601 85.68 C 170.496 85.68 174.09601 83.232 174.09601 80.856 C 174.09601 79.6752 172.87201 78.48 171.72 78.48 C 168.12001 78.48 164.52 80.856 164.52 83.232 Z" fill="#404040" stroke="none" stroke-width="1.0" />
<path d="M 163.0 177.25 L 171.0 177.25 L 171.0 184.75 L 163.0 184.75 L 163.0 177.25 Z" fill="#ffffff" stroke="none" stroke-width="1.0" />
<text x='163.0' y='184.75' font-family="Default" font-size="10.0" fill="#404040" >4</text>
<path d="M 173.18 81.04 L 174.18 81.04 L 174.18 34.0 L 173.18 34.0 M 173.18 81.04 Z" fill="#404040" stroke="none" stroke-width="0.75" /></g>
<text x='272.0' y='48.0' font-family="Default" font-size="10.0" fill="#ff0000" >3</text>
<path d="M 271.0 50.0 L 271.0 82.0 Z" fill="#000000" stroke="#000000" stroke-width="0.75" />
<path d="M 471.0 50.0 L 471.0 82.0 Z" fill="#000000" stroke="#000000" stroke-width="0.75" />
<path d="M 271.0 151.0 L 271.0 201.0 Z" fill="#000000" stroke="#000000" stroke-width="0.75" />
<path d="M 471.0 151.0 L 471.0 201.0 Z" fill="#000000" stroke="#000000" stroke-width="0.75" /><g transform="translate(471.0,20.0)">
<path d="M 0.0 0.0 L 200.0 0.0 L 200.0 202.0 L 0.0 202.0 L 0.0 0.0 Z" fill="#ffffff" stroke="none" stroke-width="1.0" />
<path d="M 0.0 30.0 L 200.0 30.0 M 0.0 38.0 L 200.0 38.0 M 0.0 46.0 L 200.0 46.0 M 0.0 54.0 L 200.0 54.0 M 0.0 62.0 L 200.0 62.0 Z" fill="none" stroke="#d6d6d6" stroke-width="0.75" />
<path d="M 0.0 131.0 L 200.0 131.0 M 0.0 141.0 L 200.0 141.0 M 0.0 151.0 L 200.0 151.0 M 0.0 161.0 L 200.0 161.0 M 0.0 171.0 L 200.0 171.0 M 0.0 181.0 L 200.0 181.0 Z" fill="none" stroke="#d6d6d6" stroke-width="0.75" />
<path d="M 21.0 70.0 L 37.0 70.0 Z" fill="none" stroke="#d6d6d6" stroke-width="0.75" />
<path d="M 21.0 78.0 L 37.0 78.0 Z" fill="none" stroke="#d6d6d6" stroke-width="0.75" />
<path d="M 24.52 79.232 C 24.52 80.456 25.7152 81.68 26.896 81.68 C 30.496 81.68 34.096 79.232 34.096 76.856 C 34.096 75.6752 32.872 74.48 31.720001 74.48 C 28.12 74.48 24.52 76.856 24.52 79.232 Z" fill="#404040" stroke="none" stroke-width="1.0" />
<path d="M 23.0 177.25 L 31.0 177.25 L 31.0 184.75 L 23.0 184.75 L 23.0 177.25 Z" fill="#ffffff" stroke="none" stroke-width="1.0" />
<text x='23.0' y='184.75' font-family="Default" font-size="10.0" fill="#404040" >5</text>
<path d="M 24.52 63.232 C 24.52 64.456 25.7152 65.68 26.896 65.68 C 30.496 65.68 34.096 63.232 34.096 60.856 C 34.096 59.6752 32.872 58.48 31.720001 58.48 C 28.12 58.48 24.52 60.856 24.52 63.232 Z" fill="#404040" stroke="none" stroke-width="1.0" />
<path d="M 23.0 167.25 L 31.0 167.25 L 31.0 174.75 L 23.0 174.75 L 23.0 167.25 Z" fill="#ffffff" stroke="none" stroke-width="1.0" />
<text x='23.0' y='174.75' font-family="Default" font-size="10.0" fill="#404040" >7</text>
<path d="M 33.18 77.04 L 34.18 77.04 L 34.18 30.0 L 33.18 30.0 M 33.18 77.04 Z" fill="#404040" stroke="none" stroke-width="0.75" />
<path d="M 33.18 28.0 L 33.18 32.0 L 54.18 32.0 L 54.18 28.0 L 33.18 28.0 Z" fill="#404040" stroke="none" stroke-width="0.75" />
<path d="M 41.0 70.0 L 57.0 70.0 Z" fill="none" stroke="#d6d6d6" stroke-width="0.75" />
<path d="M 41.0 78.0 L 57.0 78.0 Z" fill="none" stroke="#d6d6d6" stroke-width="0.75" />
<path d="M 44.52 79.232 C 44.52 80.456 45.715202 81.68 46.896 81.68 C 50.496002 81.68 54.096 79.232 54.096 76.856 C 54.096 75.6752 52.872 74.48 51.72 74.48 C 48.12 74.48 44.52 76.856 44.52 79.232 Z" fill="#404040" stroke="none" stroke-width="1.0" />
<path d="M 43.0 177.25 L 51.0 177.25 L 51.0 184.75 L 43.0 184.75 L 43.0 177.25 Z" fill="#ffffff" stroke="none" stroke-width="1.0" />
<text x='43.0' y='184.75' font-family="Default" font-size="10.0" fill="#404040" >5</text>
<path d="M 44.52 63.232 C 44.52 64.456 45.715202 65.68 46.896 65.68 C 50.496002 65.68 54.096 63.232 54.096 60.856 C 54.096 59.6752 52.872 58.48 51.72 58.48 C 48.12 58.48 44.52 60.856 44.52 63.232 Z" fill="#404040" stroke="none" stroke-width="1.0" />
<path d="M 43.0 167.25 L 51.0 167.25 L 51.0 174.75 L 43.0 174.75 L 43.0 167.25 Z" fill="#ffffff" stroke="none" stroke-width="1.0" />
<text x='43.0' y='174.75' font-family="Default" font-size="10.0" fill="#404040" >7</text>
<path d="M 53.18 77.04 L 54.18 77.04 L 54.18 30.0 L 53.18 30.0 M 53.18 77.04 Z" fill="#404040" stroke="none" stroke-width="0.75" />
<path d="M 61.0 70.0 L 77.0 70.0 Z" fill="none" stroke="#d6d6d6" stroke-width="0.75" />
<path d="M 61.0 78.0 L 77.0 78.0 Z" fill="none" stroke="#d6d6d6" stroke-width="0.75" />
<path d="M 64.52 79.232 C 64.52 80.456 65.715195 81.68 66.895996 81.68 C 70.495995 81.68 74.09599 79.232 74.09599 76.856 C 74.09599 75.6752 72.871994 74.48 71.71999 74.48 C 68.119995 74.48 64.52 76.856 64.52 79.232 Z" fill="#404040" stroke="none" stroke-width="1.0" />
<path d="M 63.0 177.25 L 71.0 177.25 L 71.0 184.75 L 63.0 184.75 L 63.0 177.25 Z" fill="#ffffff" stroke="none" stroke-width="1.0" />
<text x='63.0' y='184.75' font-family="Default" font-size="10.0" fill="#404040" >5</text>
<path d="M 64.52 63.232 C 64.52 64.456 65.715195 65.68 66.895996 65.68 C 70.495995 65.68 74.09599 63.232 74.09599 60.856 C 74.09599 59.6752 72.871994 58.48 71.71999 58.48 C 68.119995 58.48 64.52 60.856 64.52 63.232 Z" fill="#404040" stroke="none" stroke-width="1.0" />
<path d="M 63.0 167.25 L 71.0 167.25 L 71.0 174.75 L 63.0 174.75 L 63.0 167.25 Z" fill="#ffffff" stroke="none" stroke-width="1.0" />
<text x='63.0' y='174.75' font-family="Default" font-size="10.0" fill="#404040" >7</text>
<path d="M 73.18 77.04 L 74.18 77.04 L 74.18 30.0 L 73.18 30.0 M 73.18 77.04 Z" fill="#404040" stroke="none" stroke-width="0.75" />
<path d="M 73.18 28.0 L 73.18 32.0 L 94.18 32.0 L 94.18 28.0 L 73.18 28.0 Z" fill="#404040" stroke="none" stroke-width="0.75" />
<path d="M 81.0 70.0 L 97.0 70.0 Z" fill="none" stroke="#d6d6d6" stroke-width="0.75" />
<path d="M 81.0 78.0 L 97.0 78.0 Z" fill="none" stroke="#d6d6d6" stroke-width="0.75" />
<path d="M 84.52 79.232 C 84.52 80.456 85.715195 81.68 86.895996 81.68 C 90.495995 81.68 94.09599 79.232 94.09599 76.856 C 94.09599 75.6752 92.871994 74.48 91.71999 74.48 C 88.119995 74.48 84.52 76.856 84.52 79.232 Z" fill="#404040" stroke="none" stroke-width="1.0" />
<path d="M 83.0 177.25 L 91.0 177.25 L 91.0 184.75 L 83.0 184.75 L 83.0 177.25 Z" fill="#ffffff" stroke="none" stroke-width="1.0" />
<text x='83.0' y='184.75' font-family="Default" font-size="10.0" fill="#404040" >5</text>
<path d="M 84.52 63.232 C 84.52 64.456 85.715195 65.68 86.895996 65.68 C 90.495995 65.68 94.09599 63.232 94.09599 60.856 C 94.09599 59.6752 92.871994 58.48 91.71999 58.48 C 88.119995 58.48 84.52 60.856 84.52 63.232 Z" fill="#404040" stroke="none" stroke-width="1.0" />
<path d="M 83.0 167.25 L 91.0 167.25 L 91.0 174.75 L 83.0 174.75 L 83.0 167.25 Z" fill="#ffffff" stroke="none" stroke-width="1.0" />
<text x='83.0' y='174.75' font-family="Default" font-size="10.0" fill="#404040" >7</text>
<path d="M 93.18 77.04 L 94.18 77.04 L 94.18 30.0 L 93.18 30.0 M 93.18 77.04 Z" fill="#404040" stroke="none" stroke-width="0.75" />
<path d="M 101.0 70.0 L 117.0 70.0 Z" fill="none" stroke="#d6d6d6" stroke-width="0.75" />
<path d="M 101.0 78.0 L 117.0 78.0 Z" fill="none" stroke="#d6d6d6" stroke-width="0.75" />
<path d="M 104.52 79.232 C 104.52 80.456 105.715195 81.68 106.895996 81.68 C 110.495995 81.68 114.09599 79.232 114.09599 76.856 C 114.09599 75.6752 112.871994 74.48 111.71999 74.48 C 108.119995 74.48 104.52 76.856 104.52 79.232 Z" fill="#404040" stroke="none" stroke-width="1.0" />
<path d="M 103.0 177.25 L 111.0 177.25 L 111.0 184.75 L 103.0 184.75 L 103.0 177.25 Z" fill="#ffffff" stroke="none" stroke-width="1.0" />
<text x='103.0' y='184.75' font-family="Default" font-size="10.0" fill="#404040" >5</text>
<path d="M 104.52 63.232 C 104.52 64.456 105.715195 65.68 106.895996 65.68 C 110.495995 65.68 114.09599 63.232 114.09599 60.856 C 114.09599 59.6752 112.871994 58.48 111.71999 58.48 C 108.119995 58.48 104.52 60.856 104.52 63.232 Z" fill="#404040" stroke="none" stroke-width="1.0" />
<path d="M 103.0 167.25 L 111.0 167.25 L 111.0 174.75 L 103.0 174.75 L 103.0 167.25 Z" fill="#ffffff" stroke="none" stroke-width="1.0" />
<text x='103.0' y='174.75' font-family="Default" font-size="10.0" fill="#404040" >7</text>
<path d="M 113.18 77.04 L 114.18 77.04 L 114.18 30.0 L 113.18 30.0 M 113.18 77.04 Z" fill="#404040" stroke="none" stroke-width="0.75" />
<path d="M 113.18 28.0 L 113.18 32.0 L 134.18 32.0 L 134.18 28.0 L 113.18 28.0 Z" fill="#404040" stroke="none" stroke-width="0.75" />
<path d="M 121.0 70.0 L 137.0 70.0 Z" fill="none" stroke="#d6d6d6" stroke-width="0.75" />
<path d="M 121.0 78.0 L 137.0 78.0 Z" fill="none" stroke="#d6d6d6" stroke-width="0.75" />
<path d="M 124.52 79.232 C 124.52 80.456 125.715195 81.68 126.895996 81.68 C 130.496 81.68 134.096 79.232 134.096 76.856 C 134.096 75.6752 132.872 74.48 131.72 74.48 C 128.12 74.48 124.52 76.856 124.52 79.232 Z" fill="#404040" stroke="none" stroke-width="1.0" />
<path d="M 123.0 177.25 L 131.0 177.25 L 131.0 184.75 L 123.0 184.75 L 123.0 177.25 Z" fill="#ffffff" stroke="none" stroke-width="1.0" />
<text x='123.0' y='184.75' font-family="Default" font-size="10.0" fill="#404040" >5</text>
<path d="M 124.52 63.232 C 124.52 64.456 125.715195 65.68 126.895996 65.68 C 130.496 65.68 134.096 63.232 134.096 60.856 C 134.096 59.6752 132.872 58.48 131.72 58.48 C 128.12 58.48 124.52 60.856 124.52 63.232 Z" fill="#404040" stroke="none" stroke-width="1.0" />
<path d="M 123.0 167.25 L 131.0 167.25 L 131.0 174.75 L 123.0 174.75 L 123.0 167.25 Z" fill="#ffffff" stroke="none" stroke-width="1.0" />
<text x='123.0' y='174.75' font-family="Default" font-size="10.0" fill="#404040" >7</text>
<path d="M 133.18 77.04 L 134.18 77.04 L 134.18 30.0 L 133.18 30.0 M 133.18 77.04 Z" fill="#404040" stroke="none" stroke-width="0.75" />
<path d="M 141.0 70.0 L 157.0 70.0 Z" fill="none" stroke="#d6d6d6" stroke-width="0.75" />
<path d="M 141.0 78.0 L 157.0 78.0 Z" fill="none" stroke="#d6d6d6" stroke-width="0.75" />
<path d="M 144.52 79.232 C 144.52 80.456 145.71521 81.68 146.89601 81.68 C 150.496 81.68 154.09601 79.232 154.09601 76.856 C 154.09601 75.6752 152.87201 74.48 151.72 74.48 C 148.12001 74.48 144.52 76.856 144.52 79.232 Z" fill="#404040" stroke="none" stroke-width="1.0" />
<path d="M 143.0 177.25 L 151.0 177.25 L 151.0 184.75 L 143.0 184.75 L 143.0 177.25 Z" fill="#ffffff" stroke="none" stroke-width="1.0" />
<text x='143.0' y='184.75' font-family="Default" font-size="10.0" fill="#404040" >5</text>
<path d="M 144.52 63.232 C 144.52 64.456 145.71521 65.68 146.89601 65.68 C 150.496 65.68 154.09601 63.232 154.09601 60.856 C 154.09601 59.6752 152.87201 58.48 151.72 58.48 C 148.12001 58.48 144.52 60.856 144.52 63.232 Z" fill="#404040" stroke="none" stroke-width="1.0" />
<path d="M 143.0 167.25 L 151.0 167.25 L 151.0 174.75 L 143.0 174.75 L 143.0 167.25 Z" fill="#ffffff" stroke="none" stroke-width="1.0" />
<text x='143.0' y='174.75' font-family="Default" font-size="10.0" fill="#404040" >7</text>
<path d="M 153.18 77.04 L 154.18 77.04 L 154.18 30.0 L 153.18 30.0 M 153.18 77.04 Z" fill="#404040" stroke="none" stroke-width="0.75" />
<path d="M 153.18 28.0 L 153.18 32.0 L 174.18 32.0 L 174.18 28.0 L 153.18 28.0 Z" fill="#404040" stroke="none" stroke-width="0.75" />
<path d="M 161.0 70.0 L 177.0 70.0 Z" fill="none" stroke="#d6d6d6" stroke-width="0.75" />
<path d="M 161.0 78.0 L 177.0 78.0 Z" fill="none" stroke="#d6d6d6" stroke-width="0.75" />
<path d="M 164.52 79.232 C 164.52 80.456 165.71521 81.68 166.89601 81.68 C 170.496 81.68 174.09601 79.232 174.09601 76.856 C 174.09601 75.6752 172.87201 74.48 171.72 74.48 C 168.12001 74.48 164.52 76.856 164.52 79.232 Z" fill="#404040" stroke="none" stroke-width="1.0" />
<path d="M 163.0 177.25 L 171.0 177.25 L 171.0 184.75 L 163.0 184.75 L 163.0 177.25 Z" fill="#ffffff" stroke="none" stroke-width="1.0" />
<text x='163.0' y='184.75' font-family="Default" font-size="10.0" fill="#404040" >5</text>
<path d="M 164.52 63.232 C 164.52 64.456 165.71521 65.68 166.89601 65.68 C 170.496 65.68 174.09601 63.232 174.09601 60.856 C 174.09601 59.6752 172.87201 58.48 171.72 58.48 C 168.12001 58.48 164.52 60.856 164.52 63.232 Z" fill="#404040" stroke="none" stroke-width="1.0" />
<path d="M 163.0 167.25 L 171.0 167.25 L 171.0 174.75 L 163.0 174.75 L 163.0 167.25 Z" fill="#ffffff" stroke="none" stroke-width="1.0" />
<text x='163.0' y='174.75' font-family="Default" font-size="10.0" fill="#404040" >7</text>
<path d="M 173.18 77.04 L 174.18 77.04 L 174.18 30.0 L 173.18 30.0 M 173.18 77.04 Z" fill="#404040" stroke="none" stroke-width="0.75" /></g>
<text x='472.0' y='48.0' font-family="Default" font-size="10.0" fill="#ff0000" >4</text>
<path d="M 471.0 50.0 L 471.0 82.0 Z" fill="#000000" stroke="#000000" stroke-width="0.75" />
<path d="M 671.0 50.0 L 671.0 82.0 Z" fill="#000000" stroke="#000000" stroke-width="0.75" />
<path d="M 471.0 151.0 L 471.0 201.0 Z" fill="#000000" stroke="#000000" stroke-width="0.75" />
<path d="M 671.0 151.0 L 671.0 201.0 Z" fill="#000000" stroke="#000000" stroke-width="0.75" /><g transform="translate(671.0,20.0)">
<path d="M 0.0 0.0 L 70.0 0.0 L 70.0 202.0 L 0.0 202.0 L 0.0 0.0 Z" fill="#ffffff" stroke="none" stroke-width="1.0" />
<path d="M 0.0 30.0 L 70.0 30.0 M 0.0 38.0 L 70.0 38.0 M 0.0 46.0 L 70.0 46.0 M 0.0 54.0 L 70.0 54.0 M 0.0 62.0 L 70.0 62.0 Z" fill="none" stroke="#d6d6d6" stroke-width="0.75" />
<path d="M 0.0 131.0 L 70.0 131.0 M 0.0 141.0 L 70.0 141.0 M 0.0 151.0 L 70.0 151.0 M 0.0 161.0 L 70.0 161.0 M 0.0 171.0 L 70.0 171.0 M 0.0 181.0 L 70.0 181.0 Z" fill="none" stroke="#d6d6d6" stroke-width="0.75" />
<path d="M 21.0 70.0 L 37.0 70.0 Z" fill="none" stroke="#d6d6d6" stroke-width="0.75" />
<path d="M 22.464394 63.63119 C 22.59136 63.55864 22.79088 63.613052 22.863434 63.7763 C 22.89971 63.84885 22.89971 63.903263 22.89971 65.172935 C 22.89971 65.9166 22.89971 66.51516 22.917847 66.51516 C 22.917847 66.51516 23.08109 66.44261 23.280611 66.370056 C 23.69779 66.20681 23.752205 66.188675 23.861032 66.279366 C 23.988 66.370056 23.988 66.38819 23.988 67.11372 C 23.988 67.73042 23.988 67.784836 23.951725 67.83925 C 23.933586 67.87553 23.897308 67.911804 23.879171 67.92994 C 23.842896 67.94808 23.625237 68.05691 23.371302 68.1476 L 22.917847 68.34712 L 22.89971 69.816315 C 22.89971 70.614395 22.89971 71.28551 22.917847 71.28551 C 22.917847 71.28551 23.08109 71.21295 23.280611 71.140396 C 23.69779 70.97716 23.752205 70.959015 23.861032 71.049706 C 23.988 71.140396 23.988 71.15854 23.988 71.88406 C 23.988 72.50076 23.988 72.555176 23.951725 72.60959 C 23.933586 72.64587 23.897308 72.682144 23.879171 72.70028 C 23.842896 72.71842 23.625237 72.82725 23.371302 72.91794 L 22.917847 73.11746 L 22.89971 74.64107 C 22.89971 76.01957 22.88157 76.182816 22.863434 76.23723 C 22.736465 76.45489 22.428116 76.45489 22.30115 76.23723 C 22.283012 76.182816 22.264874 76.037704 22.264874 74.768036 L 22.264874 73.3714 L 21.484932 73.67974 L 20.723127 73.98809 L 20.723127 75.45728 C 20.723127 77.01717 20.723127 76.980896 20.632437 77.07159 C 20.59616 77.126 20.469193 77.18041 20.414778 77.18041 C 20.342226 77.18041 20.215258 77.126 20.178982 77.07159 C 20.088291 76.980896 20.088291 77.01717 20.088291 75.602394 C 20.088291 74.85873 20.088291 74.26017 20.070152 74.26017 C 20.070152 74.26017 19.90691 74.33272 19.70739 74.40527 C 19.29021 74.56851 19.235796 74.586655 19.126966 74.495964 C 19.0 74.40527 19.0 74.38713 19.0 73.661606 C 19.0 73.04491 19.0 72.99049 19.036276 72.93608 C 19.054415 72.8998 19.09069 72.863525 19.10883 72.84539 C 19.145105 72.82725 19.362764 72.71842 19.6167 72.62773 L 20.088291 72.42821 L 20.088291 70.959015 C 20.088291 70.160934 20.088291 69.48982 20.070152 69.48982 C 20.070152 69.48982 19.90691 69.56238 19.70739 69.63493 C 19.29021 69.79817 19.235796 69.816315 19.126966 69.725624 C 19.0 69.63493 19.0 69.61679 19.0 68.891266 C 19.0 68.27457 19.0 68.22015 19.036276 68.16573 C 19.054415 68.12946 19.09069 68.093185 19.10883 68.07504 C 19.145105 68.05691 19.362764 67.94808 19.6167 67.85739 L 20.088291 67.65787 L 20.088291 66.13426 C 20.088291 64.75576 20.10643 64.592514 20.124567 64.5381 C 20.251535 64.32044 20.559883 64.32044 20.686852 64.5381 C 20.704988 64.592514 20.723127 64.73762 20.723127 66.00729 L 20.741266 67.40393 L 21.503069 67.09558 L 22.264874 66.78723 L 22.264874 65.31804 C 22.264874 63.93954 22.264874 63.84885 22.30115 63.7763 C 22.337425 63.703743 22.373703 63.667465 22.464394 63.63119 M 22.264874 70.070244 L 22.264874 68.60105 L 21.484932 68.9094 L 20.723127 69.21775 L 20.723127 70.705086 L 20.723127 72.17428 L 20.777542 72.156136 C 20.813818 72.138 21.158443 71.9929 21.557484 71.847786 L 22.264874 71.55758 L 22.264874 70.070244 Z" fill="#404040" stroke="none" stroke-width="0.75" />
<path d="M 25.0 71.024 C 25.0 72.112 26.0624 73.200005 27.112 73.200005 C 30.312 73.200005 33.512 71.024 33.512 68.912 C 33.512 67.862404 32.424 66.8 31.4 66.8 C 28.2 66.8 25.0 68.912 25.0 71.024 Z" fill="none" stroke="#404040" stroke-width="1.0" />
<path d="M 23.0 167.25 L 31.0 167.25 L 31.0 174.75 L 23.0 174.75 L 23.0 167.25 Z" fill="#ffffff" stroke="none" stroke-width="1.0" />
<text x='23.0' y='174.75' font-family="Default" font-size="10.0" fill="#404040" >4</text>
<path d="M 22.464394 47.63119 C 22.59136 47.55864 22.79088 47.613052 22.863434 47.7763 C 22.89971 47.84885 22.89971 47.903263 22.89971 49.172935 C 22.89971 49.916603 22.89971 50.515163 22.917847 50.515163 C 22.917847 50.515163 23.08109 50.442608 23.280611 50.370056 C 23.69779 50.206814 23.752205 50.188675 23.861032 50.279366 C 23.988 50.370056 23.988 50.388195 23.988 51.113724 C 23.988 51.73042 23.988 51.784836 23.951725 51.83925 C 23.933586 51.875526 23.897308 51.911804 23.879171 51.92994 C 23.842896 51.94808 23.625237 52.056908 23.371302 52.1476 L 22.917847 52.34712 L 22.89971 53.81631 C 22.89971 54.61439 22.89971 55.285503 22.917847 55.285503 C 22.917847 55.285503 23.08109 55.21295 23.280611 55.1404 C 23.69779 54.977154 23.752205 54.95902 23.861032 55.04971 C 23.988 55.1404 23.988 55.15854 23.988 55.884064 C 23.988 56.500763 23.988 56.555176 23.951725 56.609592 C 23.933586 56.64587 23.897308 56.682144 23.879171 56.700283 C 23.842896 56.718422 23.625237 56.82725 23.371302 56.917942 L 22.917847 57.117462 L 22.89971 58.641068 C 22.89971 60.01957 22.88157 60.18281 22.863434 60.23723 C 22.736465 60.454887 22.428116 60.454887 22.30115 60.23723 C 22.283012 60.18281 22.264874 60.03771 22.264874 58.768036 L 22.264874 57.371395 L 21.484932 57.679745 L 20.723127 57.988094 L 20.723127 59.457287 C 20.723127 61.01717 20.723127 60.980892 20.632437 61.071587 C 20.59616 61.126 20.469193 61.180412 20.414778 61.180412 C 20.342226 61.180412 20.215258 61.126 20.178982 61.071587 C 20.088291 60.980892 20.088291 61.01717 20.088291 59.60239 C 20.088291 58.858727 20.088291 58.260166 20.070152 58.260166 C 20.070152 58.260166 19.90691 58.332718 19.70739 58.405273 C 19.29021 58.568516 19.235796 58.586655 19.126966 58.495964 C 19.0 58.405273 19.0 58.387135 19.0 57.661606 C 19.0 57.044907 19.0 56.990494 19.036276 56.936077 C 19.054415 56.899803 19.09069 56.863525 19.10883 56.845387 C 19.145105 56.82725 19.362764 56.718422 19.6167 56.62773 L 20.088291 56.42821 L 20.088291 54.95902 C 20.088291 54.16094 20.088291 53.489826 20.070152 53.489826 C 20.070152 53.489826 19.90691 53.562378 19.70739 53.63493 C 19.29021 53.798172 19.235796 53.81631 19.126966 53.72562 C 19.0 53.63493 19.0 53.61679 19.0 52.891266 C 19.0 52.274567 19.0 52.22015 19.036276 52.165737 C 19.054415 52.12946 19.09069 52.093185 19.10883 52.075047 C 19.145105 52.056908 19.362764 51.94808 19.6167 51.857388 L 20.088291 51.657867 L 20.088291 50.134262 C 20.088291 48.75576 20.10643 48.592514 20.124567 48.5381 C 20.251535 48.320442 20.559883 48.320442 20.686852 48.5381 C 20.704988 48.592514 20.723127 48.73762 20.723127 50.007294 L 20.741266 51.403934 L 21.503069 51.095585 L 22.264874 50.787235 L 22.264874 49.318043 C 22.264874 47.93954 22.264874 47.84885 22.30115 47.7763 C 22.337425 47.703743 22.373703 47.667465 22.464394 47.63119 M 22.264874 54.070248 L 22.264874 52.601055 L 21.484932 52.9094 L 20.723127 53.21775 L 20.723127 54.705082 L 20.723127 56.174274 L 20.777542 56.156136 C 20.813818 56.138 21.158443 55.992893 21.557484 55.84779 L 22.264874 55.55758 L 22.264874 54.070248 Z" fill="#404040" stroke="none" stroke-width="0.75" />
<path d="M 25.0 55.024 C 25.0 56.112 26.0624 57.2 27.112 57.2 C 30.312 57.2 33.512 55.024 33.512 52.912 C 33.512 51.8624 32.424 50.8 31.4 50.8 C 28.2 50.8 25.0 52.912 25.0 55.024 Z" fill="none" stroke="#404040" stroke-width="1.0" />
<path d="M 23.0 157.25 L 31.0 157.25 L 31.0 164.75 L 23.0 164.75 L 23.0 157.25 Z" fill="#ffffff" stroke="none" stroke-width="1.0" />
<text x='23.0' y='164.75' font-family="Default" font-size="10.0" fill="#404040" >6</text>
<path d="M 22.464394 35.63119 C 22.59136 35.55864 22.79088 35.613052 22.863434 35.7763 C 22.89971 35.84885 22.89971 35.903263 22.89971 37.172935 C 22.89971 37.916603 22.89971 38.515163 22.917847 38.515163 C 22.917847 38.515163 23.08109 38.442608 23.280611 38.370056 C 23.69779 38.206814 23.752205 38.188675 23.861032 38.279366 C 23.988 38.370056 23.988 38.388195 23.988 39.113724 C 23.988 39.73042 23.988 39.784836 23.951725 39.83925 C 23.933586 39.875526 23.897308 39.911804 23.879171 39.92994 C 23.842896 39.94808 23.625237 40.056908 23.371302 40.1476 L 22.917847 40.34712 L 22.89971 41.81631 C 22.89971 42.61439 22.89971 43.285503 22.917847 43.285503 C 22.917847 43.285503 23.08109 43.21295 23.280611 43.1404 C 23.69779 42.977154 23.752205 42.95902 23.861032 43.04971 C 23.988 43.1404 23.988 43.15854 23.988 43.884064 C 23.988 44.500763 23.988 44.555176 23.951725 44.609592 C 23.933586 44.64587 23.897308 44.682144 23.879171 44.700283 C 23.842896 44.718422 23.625237 44.82725 23.371302 44.917942 L 22.917847 45.117462 L 22.89971 46.641068 C 22.89971 48.01957 22.88157 48.18281 22.863434 48.23723 C 22.736465 48.454887 22.428116 48.454887 22.30115 48.23723 C 22.283012 48.18281 22.264874 48.03771 22.264874 46.768036 L 22.264874 45.371395 L 21.484932 45.679745 L 20.723127 45.988094 L 20.723127 47.457287 C 20.723127 49.01717 20.723127 48.980892 20.632437 49.071587 C 20.59616 49.126 20.469193 49.180412 20.414778 49.180412 C 20.342226 49.180412 20.215258 49.126 20.178982 49.071587 C 20.088291 48.980892 20.088291 49.01717 20.088291 47.60239 C 20.088291 46.858727 20.088291 46.260166 20.070152 46.260166 C 20.070152 46.260166 19.90691 46.332718 19.70739 46.405273 C 19.29021 46.568516 19.235796 46.586655 19.126966 46.495964 C 19.0 46.405273 19.0 46.387135 19.0 45.661606 C 19.0 45.044907 19.0 44.990494 19.036276 44.936077 C 19.054415 44.899803 19.09069 44.863525 19.10883 44.845387 C 19.145105 44.82725 19.362764 44.718422 19.6167 44.62773 L 20.088291 44.42821 L 20.088291 42.95902 C 20.088291 42.16094 20.088291 41.489826 20.070152 41.489826 C 20.070152 41.489826 19.90691 41.562378 19.70739 41.63493 C 19.29021 41.798172 19.235796 41.81631 19.126966 41.72562 C 19.0 41.63493 19.0 41.61679 19.0 40.891266 C 19.0 40.274567 19.0 40.22015 19.036276 40.165737 C 19.054415 40.12946 19.09069 40.093185 19.10883 40.075047 C 19.145105 40.056908 19.362764 39.94808 19.6167 39.857388 L 20.088291 39.657867 L 20.088291 38.134262 C 20.088291 36.75576 20.10643 36.592514 20.124567 36.5381 C 20.251535 36.320442 20.559883 36.320442 20.686852 36.5381 C 20.704988 36.592514 20.723127 36.73762 20.723127 38.007294 L 20.741266 39.403934 L 21.503069 39.095585 L 22.264874 38.787235 L 22.264874 37.318043 C 22.264874 35.93954 22.264874 35.84885 22.30115 35.7763 C 22.337425 35.703743 22.373703 35.667465 22.464394 35.63119 M 22.264874 42.070248 L 22.264874 40.601055 L 21.484932 40.9094 L 20.723127 41.21775 L 20.723127 42.705082 L 20.723127 44.174274 L 20.777542 44.156136 C 20.813818 44.138 21.158443 43.992893 21.557484 43.84779 L 22.264874 43.55758 L 22.264874 42.070248 Z" fill="#404040" stroke="none" stroke-width="0.75" />
<path d="M 25.0 43.024 C 25.0 44.112 26.0624 45.2 27.112 45.2 C 30.312 45.2 33.512 43.024 33.512 40.912 C 33.512 39.8624 32.424 38.8 31.4 38.8 C 28.2 38.8 25.0 40.912 25.0 43.024 Z" fill="none" stroke="#404040" stroke-width="1.0" />
<path d="M 23.0 147.25 L 31.0 147.25 L 31.0 154.75 L 23.0 154.75 L 23.0 147.25 Z" fill="#ffffff" stroke="none" stroke-width="1.0" />
<text x='23.0' y='154.75' font-family="Default" font-size="10.0" fill="#404040" >6</text>
<path d="M 25.0 35.024 C 25.0 36.112 26.0624 37.2 27.112 37.2 C 30.312 37.2 33.512 35.024 33.512 32.912 C 33.512 31.8624 32.424 30.8 31.4 30.8 C 28.2 30.8 25.0 32.912 25.0 35.024 Z" fill="none" stroke="#404040" stroke-width="1.0" />
<path d="M 23.0 137.25 L 31.0 137.25 L 31.0 144.75 L 23.0 144.75 L 23.0 137.25 Z" fill="#ffffff" stroke="none" stroke-width="1.0" />
<text x='23.0' y='144.75' font-family="Default" font-size="10.0" fill="#404040" >5</text>
<path d="M 22.464394 19.631191 C 22.59136 19.558638 22.79088 19.613052 22.863434 19.776297 C 22.89971 19.84885 22.89971 19.903263 22.89971 21.172935 C 22.89971 21.916603 22.89971 22.515162 22.917847 22.515162 C 22.917847 22.515162 23.08109 22.44261 23.280611 22.370056 C 23.69779 22.206814 23.752205 22.188675 23.861032 22.279366 C 23.988 22.370056 23.988 22.388195 23.988 23.113722 C 23.988 23.73042 23.988 23.784836 23.951725 23.839249 C 23.933586 23.875526 23.897308 23.911802 23.879171 23.92994 C 23.842896 23.948078 23.625237 24.056908 23.371302 24.147598 L 22.917847 24.347118 L 22.89971 25.81631 C 22.89971 26.614391 22.89971 27.285505 22.917847 27.285505 C 22.917847 27.285505 23.08109 27.212952 23.280611 27.1404 C 23.69779 26.977156 23.752205 26.959017 23.861032 27.049707 C 23.988 27.1404 23.988 27.158537 23.988 27.884064 C 23.988 28.500763 23.988 28.555178 23.951725 28.609592 C 23.933586 28.645868 23.897308 28.682144 23.879171 28.700283 C 23.842896 28.718422 23.625237 28.82725 23.371302 28.91794 L 22.917847 29.11746 L 22.89971 30.641068 C 22.89971 32.01957 22.88157 32.18281 22.863434 32.23723 C 22.736465 32.454887 22.428116 32.454887 22.30115 32.23723 C 22.283012 32.18281 22.264874 32.03771 22.264874 30.768036 L 22.264874 29.371395 L 21.484932 29.679745 L 20.723127 29.988094 L 20.723127 31.457285 C 20.723127 33.01717 20.723127 32.980892 20.632437 33.071587 C 20.59616 33.126 20.469193 33.180412 20.414778 33.180412 C 20.342226 33.180412 20.215258 33.126 20.178982 33.071587 C 20.088291 32.980892 20.088291 33.01717 20.088291 31.602392 C 20.088291 30.858727 20.088291 30.260166 20.070152 30.260166 C 20.070152 30.260166 19.90691 30.33272 19.70739 30.405272 C 19.29021 30.568516 19.235796 30.586655 19.126966 30.495962 C 19.0 30.405272 19.0 30.387133 19.0 29.661606 C 19.0 29.044909 19.0 28.990494 19.036276 28.936079 C 19.054415 28.899803 19.09069 28.863525 19.10883 28.845388 C 19.145105 28.82725 19.362764 28.718422 19.6167 28.62773 L 20.088291 28.42821 L 20.088291 26.959017 C 20.088291 26.160938 20.088291 25.489824 20.070152 25.489824 C 20.070152 25.489824 19.90691 25.562378 19.70739 25.63493 C 19.29021 25.798174 19.235796 25.81631 19.126966 25.72562 C 19.0 25.63493 19.0 25.616793 19.0 24.891264 C 19.0 24.274567 19.0 24.220152 19.036276 24.165737 C 19.054415 24.129461 19.09069 24.093184 19.10883 24.075047 C 19.145105 24.056908 19.362764 23.948078 19.6167 23.857388 L 20.088291 23.657867 L 20.088291 22.13426 C 20.088291 20.755758 20.10643 20.592514 20.124567 20.538101 C 20.251535 20.320442 20.559883 20.320442 20.686852 20.538101 C 20.704988 20.592514 20.723127 20.73762 20.723127 22.007294 L 20.741266 23.403933 L 21.503069 23.095585 L 22.264874 22.787235 L 22.264874 21.318043 C 22.264874 19.93954 22.264874 19.84885 22.30115 19.776297 C 22.337425 19.703743 22.373703 19.667467 22.464394 19.631191 M 22.264874 26.070246 L 22.264874 24.601053 L 21.484932 24.909403 L 20.723127 25.217752 L 20.723127 26.705082 L 20.723127 28.174274 L 20.777542 28.156137 C 20.813818 28.137999 21.158443 27.992893 21.557484 27.847788 L 22.264874 27.557577 L 22.264874 26.070246 Z" fill="#404040" stroke="none" stroke-width="0.75" />
<path d="M 25.0 27.024 C 25.0 28.112 26.0624 29.199999 27.112 29.199999 C 30.312 29.199999 33.512 27.024 33.512 24.911999 C 33.512 23.8624 32.424 22.8 31.4 22.8 C 28.2 22.8 25.0 24.911999 25.0 27.024 Z" fill="none" stroke="#404040" stroke-width="1.0" />
<path d="M 23.0 127.25 L 31.0 127.25 L 31.0 134.75 L 23.0 134.75 L 23.0 127.25 Z" fill="#ffffff" stroke="none" stroke-width="1.0" />
<text x='23.0' y='134.75' font-family="Default" font-size="10.0" fill="#404040" >4</text></g>
<text x='672.0' y='48.0' font-family="Default" font-size="10.0" fill="#ff0000" >5</text>
<path d="M 671.0 50.0 L 671.0 82.0 Z" fill="#000000" stroke="#000000" stroke-width="0.75" />
<path d="M 735.0 50.0 L 736.0 50.0 L 736.0 82.0 L 735.0 82.0 L 735.0 50.0 Z" fill="#000000" stroke="#000000" stroke-width="0.75" />
<path d="M 738.0 50.0 L 741.0 50.0 L 741.0 82.0 L 738.0 82.0 L 738.0 50.0 Z" fill="#000000" stroke="#000000" stroke-width="0.75" />
<path d="M 671.0 151.0 L 671.0 201.0 Z" fill="#000000" stroke="#000000" stroke-width="0.75" />
<path d="M 735.0 151.0 L 736.0 151.0 L 736.0 201.0 L 735.0 201.0 L 735.0 151.0 Z" fill="#000000" stroke="#000000" stroke-width="0.75" />
<path d="M 738.0 151.0 L 741.0 151.0 L 741.0 201.0 L 738.0 201.0 L 738.0 151.0 Z" fill="#000000" stroke="#000000" stroke-width="0.75" />
<path d="M 743.0 50.0 L 930.0 50.0 M 743.0 58.0 L 930.0 58.0 M 743.0 66.0 L 930.0 66.0 M 743.0 74.0 L 930.0 74.0 M 743.0 82.0 L 930.0 82.0 Z" fill="none" stroke="#d6d6d6" stroke-width="0.75" />
<path d="M 743.0 151.0 L 930.0 151.0 M 743.0 161.0 L 930.0 161.0 M 743.0 171.0 L 930.0 171.0 M 743.0 181.0 L 930.0 181.0 M 743.0 191.0 L 930.0 191.0 M 743.0 201.0 L 930.0 201.0 Z" fill="none" stroke="#d6d6d6" stroke-width="0.75" />
</svg>