<svg width="960.0px" height="411.0px" xmlns="http://www.w3.org/2000/svg" version="1.1">

<path d="M 0.0 0.0 L 960.0 0.0 L 960.0 411.0 L 0.0 411.0 L 0.0 0.0 Z" fill="#ffffff" stroke="none" stroke-width="1.0" /><g transform="translate(20.0,20.0)">
<path d="M 0.0 0.0 L 357.0 0.0 L 357.0 189.0 L 0.0 189.0 L 0.0 0.0 Z" fill="#ffffff" stroke="none" stroke-width="1.0" />
<path d="M 0.0 30.0 L 357.0 30.0 M 0.0 38.0 L 357.0 38.0 M 0.0 46.0 L 357.0 46.0 M 0.0 54.0 L 357.0 54.0 M 0.0 62.0 L 357.0 62.0 Z" fill="none" stroke="#d6d6d6" stroke-width="0.75" />
<path d="M 0.0 118.0 L 357.0 118.0 M 0.0 128.0 L 357.0 128.0 M 0.0 138.0 L 357.0 138.0 M 0.0 148.0 L 357.0 148.0 M 0.0 158.0 L 357.0 158.0 M 0.0 168.0 L 357.0 168.0 Z" fill="none" stroke="#d6d6d6" stroke-width="0.75" />
<path d="M 67.77043 30.40856 C 68.324905 30.40856 68.821014 30.350195 69.25876 30.20428 C 69.6965 30.058365 69.959145 30.0 70.04669 30.0 C 70.192604 30.0 70.28015 30.029182 70.36771 30.116732 C 70.42607 30.175097 70.45525 30.233463 70.484436 30.321012 C 70.484436 30.379377 70.45525 30.437744 70.42607 30.496109 L 61.933853 40.35992 L 66.924126 40.35992 L 66.924126 36.449417 C 66.924126 36.18677 67.01167 35.95331 67.1284 35.807392 C 67.3035 35.661476 67.4786 35.515564 67.71206 35.4572 C 67.97471 35.340466 68.26653 35.07782 68.64591 34.640076 C 68.937744 34.319065 69.317116 33.706226 69.75486 32.801556 C 69.81323 32.684826 69.90078 32.626457 70.01751 32.626457 C 70.28015 32.626457 70.39688 32.772373 70.42607 33.03502 L 70.42607 40.35992 L 72.55642 40.35992 C 72.84825 40.35992 72.99416 40.505836 73.023346 40.797665 C 73.023346 41.089493 72.877426 41.235405 72.55642 41.235405 L 70.42607 41.235405 L 70.42607 41.468872 C 70.42607 42.28599 70.63035 42.928013 71.00973 43.45331 C 71.44747 43.9786 71.97276 44.270428 72.5856 44.270428 C 72.81906 44.270428 72.9358 44.387157 72.9358 44.62062 C 72.9358 44.854084 72.81906 44.970818 72.5856 44.970818 C 72.14786 44.970818 71.50584 44.91245 70.601166 44.79572 C 69.696495 44.649803 69.054474 44.59144 68.64591 44.59144 C 68.23735 44.59144 67.56615 44.649803 66.69066 44.79572 C 65.81517 44.91245 65.17315 44.970818 64.735405 44.970818 C 64.501945 44.970818 64.385216 44.854084 64.385216 44.62062 C 64.385216 44.387157 64.501945 44.270428 64.735405 44.270428 C 65.34825 44.270428 65.87354 43.9786 66.31128 43.45331 C 66.71984 42.89883 66.924126 42.25681 66.924126 41.468872 L 66.924126 41.235405 L 61.933853 41.235405 C 61.61284 41.235405 61.379375 41.17704 61.233463 41.001945 C 61.087547 40.885212 61.0 40.710114 61.0 40.53502 C 61.0 40.476654 61.145912 40.272373 61.437744 39.92218 C 61.729572 39.571983 62.079765 39.105057 62.488327 38.492218 C 62.488327 38.492218 63.305447 37.20817 63.71401 36.449417 C 63.71401 36.449417 64.47276 34.78599 64.735405 33.706226 C 65.02724 32.65564 65.17315 31.575874 65.17315 30.496109 C 65.17315 30.175097 65.31907 30.029182 65.58171 30.029182 C 65.61089 30.029182 65.756805 30.058365 65.96109 30.11673 C 66.16537 30.175097 66.4572 30.233461 66.77821 30.32101 C 67.1284 30.379377 67.44942 30.40856 67.77043 30.40856 Z" fill="#000000" stroke="none" stroke-width="0.75" />
<path d="M 67.77043 47.40856 C 68.324905 47.40856 68.821014 47.350193 69.25876 47.20428 C 69.6965 47.058365 69.959145 47.0 70.04669 47.0 C 70.192604 47.0 70.28015 47.029182 70.36771 47.11673 C 70.42607 47.1751 70.45525 47.233463 70.484436 47.32101 C 70.484436 47.37938 70.45525 47.437744 70.42607 47.49611 L 61.933853 57.35992 L 66.924126 57.35992 L 66.924126 53.449417 C 66.924126 53.18677 67.01167 52.95331 67.1284 52.807392 C 67.3035 52.661476 67.4786 52.515564 67.71206 52.4572 C 67.97471 52.340466 68.26653 52.07782 68.64591 51.640076 C 68.937744 51.319065 69.317116 50.706226 69.75486 49.801556 C 69.81323 49.684826 69.90078 49.626457 70.01751 49.626457 C 70.28015 49.626457 70.39688 49.772373 70.42607 50.03502 L 70.42607 57.35992 L 72.55642 57.35992 C 72.84825 57.35992 72.99416 57.505836 73.023346 57.797665 C 73.023346 58.089493 72.877426 58.235405 72.55642 58.235405 L 70.42607 58.235405 L 70.42607 58.468872 C 70.42607 59.28599 70.63035 59.928013 71.00973 60.45331 C 71.44747 60.9786 71.97276 61.270428 72.5856 61.270428 C 72.81906 61.270428 72.9358 61.387157 72.9358 61.62062 C 72.9358 61.854084 72.81906 61.970818 72.5856 61.970818 C 72.14786 61.970818 71.50584 61.91245 70.601166 61.79572 C 69.696495 61.649803 69.054474 61.59144 68.64591 61.59144 C 68.23735 61.59144 67.56615 61.649803 66.69066 61.79572 C 65.81517 61.91245 65.17315 61.970818 64.735405 61.970818 C 64.501945 61.970818 64.385216 61.854084 64.385216 61.62062 C 64.385216 61.387157 64.501945 61.270428 64.735405 61.270428 C 65.34825 61.270428 65.87354 60.9786 66.31128 60.45331 C 66.71984 59.89883 66.924126 59.25681 66.924126 58.468872 L 66.924126 58.235405 L 61.933853 58.235405 C 61.61284 58.235405 61.379375 58.17704 61.233463 58.001945 C 61.087547 57.885212 61.0 57.710114 61.0 57.53502 C 61.0 57.476654 61.145912 57.272373 61.437744 56.92218 C 61.729572 56.571983 62.079765 56.105057 62.488327 55.492218 C 62.488327 55.492218 63.305447 54.20817 63.71401 53.449417 C 63.71401 53.449417 64.47276 51.78599 64.735405 50.706226 C 65.02724 49.65564 65.17315 48.575874 65.17315 47.49611 C 65.17315 47.175095 65.31907 47.029182 65.58171 47.029182 C 65.61089 47.029182 65.756805 47.058365 65.96109 47.11673 C 66.16537 47.175095 66.4572 47.233463 66.77821 47.32101 C 67.1284 47.379375 67.44942 47.408558 67.77043 47.408558 Z" fill="#000000" stroke="none" stroke-width="0.75" />
<path d="M 22.764973 22.115383 C 22.921913 22.036913 22.948072 22.036913 23.105015 22.036913 C 23.314268 22.06307 23.445057 22.14154 23.73278 22.455425 C 25.616081 24.39104 27.185501 27.843758 27.577856 30.773342 C 27.630169 31.244167 27.630169 32.34276 27.577856 32.839737 C 27.29013 35.533905 26.165377 37.99266 23.57584 41.52385 L 23.209644 42.020832 L 23.418898 42.62244 C 23.915882 44.061073 24.491331 45.81359 24.85753 47.095284 C 24.96216 47.409164 25.04063 47.67074 25.04063 47.696896 C 25.04063 47.696896 25.223728 47.696896 25.406826 47.723053 C 26.322319 47.80152 27.10703 48.01078 27.917896 48.40313 C 28.57182 48.74317 29.147274 49.13552 29.696568 49.658665 C 30.29818 50.260277 30.690535 50.80957 31.05673 51.568123 C 31.606026 52.666718 31.84144 53.81762 31.81528 54.96853 C 31.789125 55.700924 31.684496 56.25022 31.449085 56.930305 C 31.1352 57.924263 30.559748 58.83976 29.77504 59.62447 C 29.094955 60.30455 28.46719 60.72306 27.630169 61.063103 L 27.316284 61.193886 L 27.316284 62.135536 C 27.316284 63.469543 27.237814 65.038956 27.133184 65.980606 C 27.02856 66.94841 26.766989 67.86391 26.348476 68.700935 C 25.249886 70.92427 23.314268 72.10133 21.143244 71.89209 C 18.684484 71.65667 16.69656 69.98262 16.199577 67.73312 C 15.964161 66.713 16.068794 65.9283 16.487303 65.27437 C 17.036598 64.411194 18.082878 63.91421 19.102997 63.940365 C 20.30622 63.992683 21.274027 64.934326 21.457123 66.24218 C 21.58791 67.28845 21.143244 68.25626 20.30622 68.7794 C 19.835394 69.06713 19.181469 69.197914 18.684484 69.119446 C 18.606018 69.119446 18.527544 69.093285 18.527544 69.119446 L 18.84143 69.43333 C 19.416882 70.00878 20.070807 70.374985 20.907831 70.558075 C 21.090927 70.584236 21.247868 70.584236 21.666382 70.584236 C 22.137207 70.584236 22.189518 70.584236 22.451088 70.53192 C 22.81729 70.42729 23.131172 70.29651 23.418898 70.139565 C 24.726748 69.35486 25.616081 67.73312 25.851494 65.77136 C 25.929964 65.038956 26.008434 63.469543 26.008434 62.318638 C 26.008434 61.560085 26.008434 61.50777 25.956123 61.50777 C 25.851494 61.560085 25.302197 61.6124 24.909843 61.638554 C 24.41286 61.66471 23.57584 61.66471 23.183485 61.6124 C 21.640223 61.4293 20.227747 60.90616 18.998373 60.042976 C 17.167385 58.761288 15.859535 56.851826 15.31024 54.654644 C 14.604002 51.908165 15.100986 48.978584 16.827343 45.89206 C 17.55974 44.610374 18.265978 43.564095 20.018494 41.236122 L 21.012455 39.902122 L 20.829355 39.405136 C 19.573822 36.083202 19.15531 34.173744 19.024527 31.401108 C 18.972214 30.197887 19.024527 29.177761 19.181469 28.340742 C 19.573822 26.143559 20.593945 24.181787 22.189518 22.612366 C 22.503403 22.298483 22.63419 22.193855 22.764973 22.115383 M 24.831371 26.588224 C 24.569805 26.143559 24.622118 26.169712 24.386707 26.326658 C 23.65431 26.771324 22.89576 27.451405 22.34646 28.131483 C 21.221714 29.57012 20.593945 31.244167 20.515476 33.048996 C 20.489319 33.78139 20.56779 34.252216 20.907831 35.37696 C 21.169397 36.292458 21.901793 38.5158 21.95411 38.56811 C 21.95411 38.59427 22.111048 38.411175 22.26799 38.17576 C 24.072823 35.58622 25.04063 33.467506 25.406826 31.348791 C 25.485298 30.799496 25.53761 30.354828 25.563768 29.727062 C 25.589928 28.28843 25.432985 27.582191 24.831371 26.588224 M 22.581877 44.191864 C 22.424934 43.694878 22.26799 43.302525 22.26799 43.302525 C 22.241835 43.302525 21.143244 44.76731 20.672415 45.421238 C 19.129156 47.592266 18.187506 49.34478 17.638206 51.071136 C 17.27201 52.143574 17.115068 53.137543 17.062756 54.236134 C 17.062756 54.837746 17.088915 55.20394 17.193539 55.64861 C 17.795153 57.976578 20.280064 59.886036 23.209644 60.30455 C 23.65431 60.35686 24.909843 60.35686 25.459139 60.30455 C 26.008434 60.226078 25.956123 60.252235 25.929964 60.016823 C 25.773026 57.53191 25.563768 56.014805 25.14526 53.765305 C 24.988314 52.823658 24.543648 50.835728 24.517488 50.80957 C 24.491331 50.783417 23.99435 50.835728 23.706627 50.9142 C 23.340427 50.99267 23.105015 51.071136 22.79113 51.22808 C 21.090927 52.091263 20.593945 54.053036 21.666382 55.64861 C 21.849482 55.91018 22.320305 56.381004 22.608032 56.564102 C 22.71266 56.642574 22.948072 56.799515 23.105015 56.877987 C 23.340427 57.00877 23.392738 57.061085 23.445057 57.165714 C 23.65431 57.505756 23.523525 57.924263 23.131172 58.107365 C 22.921913 58.21199 22.764973 58.185837 22.34646 57.976578 C 21.326344 57.4796 20.56779 56.799515 20.018494 55.962494 C 18.998373 54.393074 18.867586 52.37899 19.70461 50.678787 C 20.437006 49.213997 21.744852 48.22003 23.418898 47.853836 C 23.57584 47.80152 23.706627 47.775368 23.706627 47.775368 C 23.73278 47.749207 23.000385 45.368923 22.581877 44.191864 M 26.139221 50.94036 C 26.060753 50.94036 25.98228 50.9142 25.956123 50.9142 L 25.877651 50.88804 L 26.008434 51.43734 C 26.610046 54.07919 27.054714 56.956455 27.211655 59.389057 C 27.237814 59.650627 27.237814 59.859882 27.237814 59.859882 C 27.263973 59.859882 27.60401 59.70294 27.78711 59.572155 C 28.231777 59.31058 28.65029 58.91823 28.99033 58.47356 C 29.801197 57.401123 30.08892 56.06712 29.77504 54.706955 C 29.539627 53.608364 28.911861 52.58824 28.022522 51.882008 C 27.473227 51.463493 26.740831 51.097298 26.139221 50.94036 Z" fill="#000000" stroke="none" stroke-width="0.75" />
<path d="M 92.0 70.0 L 108.0 70.0 Z" fill="none" stroke="#d6d6d6" stroke-width="0.75" />
<path d="M 92.0 78.0 L 108.0 78.0 Z" fill="none" stroke="#d6d6d6" stroke-width="0.75" />
<path d="M 92.0 86.0 L 108.0 86.0 Z" fill="none" stroke="#d6d6d6" stroke-width="0.75" />
<path d="M 92.0 94.0 L 108.0 94.0 Z" fill="none" stroke="#d6d6d6" stroke-width="0.75" />
<path d="M 92.0 70.0 L 108.0 70.0 Z" fill="none" stroke="#d6d6d6" stroke-width="0.75" />
<path d="M 92.0 78.0 L 108.0 78.0 Z" fill="none" stroke="#d6d6d6" stroke-width="0.75" />
<path d="M 92.0 86.0 L 108.0 86.0 Z" fill="none" stroke="#d6d6d6" stroke-width="0.75" />
<path d="M 92.0 94.0 L 108.0 94.0 Z" fill="none" stroke="#d6d6d6" stroke-width="0.75" />
<path d="M 95.52 95.232 C 95.52 96.456 96.715195 97.68 97.895996 97.68 C 101.495995 97.68 105.09599 95.232 105.09599 92.856 C 105.09599 91.6752 103.871994 90.48 102.71999 90.48 C 99.119995 90.48 95.52 92.856 95.52 95.232 Z" fill="#404040" stroke="none" stroke-width="1.0" />
<path d="M 94.0 164.25 L 102.0 164.25 L 102.0 171.75 L 94.0 171.75 L 94.0 164.25 Z" fill="#ffffff" stroke="none" stroke-width="1.0" />
<text x='94.0' y='171.75' font-family="Default" font-size="10.0" fill="#404040" >0</text>
<path d="M 104.18 93.04 L 105.18 93.04 L 105.18 62.0 L 104.18 62.0 M 104.18 93.04 Z" fill="#404040" stroke="none" stroke-width="0.75" />
<path d="M 120.22951 70.0 L 136.2295 70.0 Z" fill="none" stroke="#d6d6d6" stroke-width="0.75" />
<path d="M 120.22951 78.0 L 136.2295 78.0 Z" fill="none" stroke="#d6d6d6" stroke-width="0.75" />
<path d="M 120.22951 86.0 L 136.2295 86.0 Z" fill="none" stroke="#d6d6d6" stroke-width="0.75" />
<path d="M 120.22951 94.0 L 136.2295 94.0 Z" fill="none" stroke="#d6d6d6" stroke-width="0.75" />
<path d="M 120.22951 70.0 L 136.2295 70.0 Z" fill="none" stroke="#d6d6d6" stroke-width="0.75" />
<path d="M 120.22951 78.0 L 136.2295 78.0 Z" fill="none" stroke="#d6d6d6" stroke-width="0.75" />
<path d="M 120.22951 86.0 L 136.2295 86.0 Z" fill="none" stroke="#d6d6d6" stroke-width="0.75" />
<path d="M 120.22951 94.0 L 136.2295 94.0 Z" fill="none" stroke="#d6d6d6" stroke-width="0.75" />
<path d="M 123.749504 95.232 C 123.749504 96.456 124.9447 97.68 126.1255 97.68 C 129.72551 97.68 133.3255 95.232 133.3255 92.856 C 133.3255 91.6752 132.1015 90.48 130.94951 90.48 C 127.3495 90.48 123.749504 92.856 123.749504 95.232 Z" fill="#404040" stroke="none" stroke-width="1.0" />
<path d="M 122.22951 164.25 L 130.2295 164.25 L 130.2295 171.75 L 122.22951 171.75 L 122.22951 164.25 Z" fill="#ffffff" stroke="none" stroke-width="1.0" />
<text x='122.22951' y='171.75' font-family="Default" font-size="10.0" fill="#404040" >0</text>
<path d="M 132.40952 93.04 L 133.40952 93.04 L 133.40952 62.0 L 132.40952 62.0 M 132.40952 93.04 Z" fill="#404040" stroke="none" stroke-width="0.75" />
<path d="M 137.55951 77.95 C 137.68451 78.0 137.95952 77.95 138.05951 77.9 C 138.20952 77.8 138.25952 77.75 138.40952 77.475 C 138.93451 76.5 139.35951 75.3 139.53452 74.3 C 139.88452 72.325 139.63452 70.875 138.63452 69.225 C 138.18451 68.45 137.63452 67.75 136.40952 66.375 C 135.13452 64.9 134.73451 64.375 134.23451 63.675 C 133.73451 62.9 133.38452 62.175 133.15952 61.45 C 133.03452 61.0 132.93451 60.325 132.93451 59.95 L 132.93451 59.825 L 132.68451 59.825 L 132.40952 59.825 L 132.40952 62.95 L 132.40952 66.075 L 132.68451 66.075 L 132.95952 66.075 L 133.60951 66.525 C 135.45952 67.75 136.58452 68.75 137.38452 69.825 C 138.35951 71.15 138.63452 72.25 138.35951 73.9 C 138.18451 74.95 137.75952 76.025 137.20952 76.975 C 137.08452 77.15 137.05951 77.225 137.05951 77.3 C 137.05951 77.6 137.25952 77.85 137.55951 77.95 Z" fill="#404040" stroke="none" stroke-width="0.75" />
<path d="M 147.11475 70.0 L 163.11475 70.0 Z" fill="none" stroke="#d6d6d6" stroke-width="0.75" />
<path d="M 147.11475 78.0 L 163.11475 78.0 Z" fill="none" stroke="#d6d6d6" stroke-width="0.75" />
<path d="M 147.11475 86.0 L 163.11475 86.0 Z" fill="none" stroke="#d6d6d6" stroke-width="0.75" />
<path d="M 147.11475 94.0 L 163.11475 94.0 Z" fill="none" stroke="#d6d6d6" stroke-width="0.75" />
<path d="M 147.11475 70.0 L 163.11475 70.0 Z" fill="none" stroke="#d6d6d6" stroke-width="0.75" />
<path d="M 147.11475 78.0 L 163.11475 78.0 Z" fill="none" stroke="#d6d6d6" stroke-width="0.75" />
<path d="M 147.11475 86.0 L 163.11475 86.0 Z" fill="none" stroke="#d6d6d6" stroke-width="0.75" />
<path d="M 147.11475 94.0 L 163.11475 94.0 Z" fill="none" stroke="#d6d6d6" stroke-width="0.75" />
<path d="M 150.63475 95.232 C 150.63475 96.456 151.82996 97.68 153.01076 97.68 C 156.61075 97.68 160.21075 95.232 160.21075 92.856 C 160.21075 91.6752 158.98676 90.48 157.83475 90.48 C 154.23476 90.48 150.63475 92.856 150.63475 95.232 Z" fill="#404040" stroke="none" stroke-width="1.0" />
<path d="M 149.11475 164.25 L 157.11475 164.25 L 157.11475 171.75 L 149.11475 171.75 L 149.11475 164.25 Z" fill="#ffffff" stroke="none" stroke-width="1.0" />
<text x='149.11475' y='171.75' font-family="Default" font-size="10.0" fill="#404040" >0</text>
<path d="M 159.29474 93.04 L 160.29474 93.04 L 160.29474 62.0 L 159.29474 62.0 M 159.29474 93.04 Z" fill="#404040" stroke="none" stroke-width="0.75" />
<path d="M 175.34427 70.0 L 191.34427 70.0 Z" fill="none" stroke="#d6d6d6" stroke-width="0.75" />
<path d="M 175.34427 78.0 L 191.34427 78.0 Z" fill="none" stroke="#d6d6d6" stroke-width="0.75" />
<path d="M 175.34427 86.0 L 191.34427 86.0 Z" fill="none" stroke="#d6d6d6" stroke-width="0.75" />
<path d="M 175.34427 94.0 L 191.34427 94.0 Z" fill="none" stroke="#d6d6d6" stroke-width="0.75" />
<path d="M 175.34427 70.0 L 191.34427 70.0 Z" fill="none" stroke="#d6d6d6" stroke-width="0.75" />
<path d="M 175.34427 78.0 L 191.34427 78.0 Z" fill="none" stroke="#d6d6d6" stroke-width="0.75" />
<path d="M 175.34427 86.0 L 191.34427 86.0 Z" fill="none" stroke="#d6d6d6" stroke-width="0.75" />
<path d="M 175.34427 94.0 L 191.34427 94.0 Z" fill="none" stroke="#d6d6d6" stroke-width="0.75" />
<path d="M 178.86427 95.232 C 178.86427 96.456 180.05948 97.68 181.24028 97.68 C 184.84027 97.68 188.44028 95.232 188.44028 92.856 C 188.44028 91.6752 187.21628 90.48 186.06427 90.48 C 182.46428 90.48 178.86427 92.856 178.86427 95.232 Z" fill="#404040" stroke="none" stroke-width="1.0" />
<path d="M 177.34427 164.25 L 185.34427 164.25 L 185.34427 171.75 L 177.34427 171.75 L 177.34427 164.25 Z" fill="#ffffff" stroke="none" stroke-width="1.0" />
<text x='177.34427' y='171.75' font-family="Default" font-size="10.0" fill="#404040" >0</text>
<path d="M 187.52426 93.04 L 188.52426 93.04 L 188.52426 62.0 L 187.52426 62.0 M 187.52426 93.04 Z" fill="#404040" stroke="none" stroke-width="0.75" />
<path d="M 192.67426 77.95 C 192.79926 78.0 193.07426 77.95 193.17426 77.9 C 193.32426 77.8 193.37427 77.75 193.52426 77.475 C 194.04926 76.5 194.47426 75.3 194.64926 74.3 C 194.99927 72.325 194.74927 70.875 193.74927 69.225 C 193.29926 68.45 192.74927 67.75 191.52426 66.375 C 190.24927 64.9 189.84926 64.375 189.34926 63.675 C 188.84926 62.9 188.49927 62.175 188.27426 61.45 C 188.14926 61.0 188.04926 60.325 188.04926 59.95 L 188.04926 59.825 L 187.79926 59.825 L 187.52426 59.825 L 187.52426 62.95 L 187.52426 66.075 L 187.79926 66.075 L 188.07426 66.075 L 188.72426 66.525 C 190.57426 67.75 191.69926 68.75 192.49927 69.825 C 193.47426 71.15 193.74927 72.25 193.47426 73.9 C 193.29926 74.95 192.87427 76.025 192.32426 76.975 C 192.19926 77.15 192.17426 77.225 192.17426 77.3 C 192.17426 77.6 192.37427 77.85 192.67426 77.95 Z" fill="#404040" stroke="none" stroke-width="0.75" />
<path d="M 202.2295 70.0 L 218.2295 70.0 Z" fill="none" stroke="#d6d6d6" stroke-width="0.75" />
<path d="M 202.2295 78.0 L 218.2295 78.0 Z" fill="none" stroke="#d6d6d6" stroke-width="0.75" />
<path d="M 202.2295 86.0 L 218.2295 86.0 Z" fill="none" stroke="#d6d6d6" stroke-width="0.75" />
<path d="M 202.2295 94.0 L 218.2295 94.0 Z" fill="none" stroke="#d6d6d6" stroke-width="0.75" />
<path d="M 202.2295 70.0 L 218.2295 70.0 Z" fill="none" stroke="#d6d6d6" stroke-width="0.75" />
<path d="M 202.2295 78.0 L 218.2295 78.0 Z" fill="none" stroke="#d6d6d6" stroke-width="0.75" />
<path d="M 202.2295 86.0 L 218.2295 86.0 Z" fill="none" stroke="#d6d6d6" stroke-width="0.75" />
<path d="M 202.2295 94.0 L 218.2295 94.0 Z" fill="none" stroke="#d6d6d6" stroke-width="0.75" />
<path d="M 205.74951 95.232 C 205.74951 96.456 206.94472 97.68 208.12552 97.68 C 211.72551 97.68 215.32552 95.232 215.32552 92.856 C 215.32552 91.6752 214.10152 90.48 212.94951 90.48 C 209.34952 90.48 205.74951 92.856 205.74951 95.232 Z" fill="#404040" stroke="none" stroke-width="1.0" />
<path d="M 204.2295 164.25 L 212.2295 164.25 L 212.2295 171.75 L 204.2295 171.75 L 204.2295 164.25 Z" fill="#ffffff" stroke="none" stroke-width="1.0" />
<text x='204.2295' y='171.75' font-family="Default" font-size="10.0" fill="#404040" >0</text>
<path d="M 214.40952 93.04 L 215.40952 93.04 L 215.40952 62.0 L 214.40952 62.0 M 214.40952 93.04 Z" fill="#404040" stroke="none" stroke-width="0.75" />
<path d="M 230.45901 70.0 L 246.45901 70.0 Z" fill="none" stroke="#d6d6d6" stroke-width="0.75" />
<path d="M 230.45901 78.0 L 246.45901 78.0 Z" fill="none" stroke="#d6d6d6" stroke-width="0.75" />
<path d="M 230.45901 86.0 L 246.45901 86.0 Z" fill="none" stroke="#d6d6d6" stroke-width="0.75" />
<path d="M 230.45901 94.0 L 246.45901 94.0 Z" fill="none" stroke="#d6d6d6" stroke-width="0.75" />
<path d="M 230.45901 70.0 L 246.45901 70.0 Z" fill="none" stroke="#d6d6d6" stroke-width="0.75" />
<path d="M 230.45901 78.0 L 246.45901 78.0 Z" fill="none" stroke="#d6d6d6" stroke-width="0.75" />
<path d="M 230.45901 86.0 L 246.45901 86.0 Z" fill="none" stroke="#d6d6d6" stroke-width="0.75" />
<path d="M 230.45901 94.0 L 246.45901 94.0 Z" fill="none" stroke="#d6d6d6" stroke-width="0.75" />
<path d="M 233.97902 95.232 C 233.97902 96.456 235.17422 97.68 236.35503 97.68 C 239.95502 97.68 243.55502 95.232 243.55502 92.856 C 243.55502 91.6752 242.33102 90.48 241.17902 90.48 C 237.57903 90.48 233.97902 92.856 233.97902 95.232 Z" fill="#404040" stroke="none" stroke-width="1.0" />
<path d="M 232.45901 164.25 L 240.45901 164.25 L 240.45901 171.75 L 232.45901 171.75 L 232.45901 164.25 Z" fill="#ffffff" stroke="none" stroke-width="1.0" />
<text x='232.45901' y='171.75' font-family="Default" font-size="10.0" fill="#404040" >0</text>
<path d="M 242.639 93.04 L 243.639 93.04 L 243.639 62.0 L 242.639 62.0 M 242.639 93.04 Z" fill="#404040" stroke="none" stroke-width="0.75" />
<path d="M 247.789 77.95 C 247.914 78.0 248.18901 77.95 248.289 77.9 C 248.43901 77.8 248.48901 77.75 248.639 77.475 C 249.164 76.5 249.589 75.3 249.764 74.3 C 250.11401 72.325 249.86401 70.875 248.86401 69.225 C 248.414 68.45 247.86401 67.75 246.639 66.375 C 245.36401 64.9 244.964 64.375 244.464 63.675 C 243.964 62.9 243.61401 62.175 243.389 61.45 C 243.264 61.0 243.164 60.325 243.164 59.95 L 243.164 59.825 L 242.914 59.825 L 242.639 59.825 L 242.639 62.95 L 242.639 66.075 L 242.914 66.075 L 243.18901 66.075 L 243.839 66.525 C 245.68901 67.75 246.81401 68.75 247.61401 69.825 C 248.589 71.15 248.86401 72.25 248.589 73.9 C 248.414 74.95 247.98901 76.025 247.43901 76.975 C 247.31401 77.15 247.289 77.225 247.289 77.3 C 247.289 77.6 247.48901 77.85 247.789 77.95 Z" fill="#404040" stroke="none" stroke-width="0.75" />
<path d="M 257.34427 70.0 L 273.34427 70.0 Z" fill="none" stroke="#d6d6d6" stroke-width="0.75" />
<path d="M 257.34427 78.0 L 273.34427 78.0 Z" fill="none" stroke="#d6d6d6" stroke-width="0.75" />
<path d="M 257.34427 70.0 L 273.34427 70.0 Z" fill="none" stroke="#d6d6d6" stroke-width="0.75" />
<path d="M 257.34427 78.0 L 273.34427 78.0 Z" fill="none" stroke="#d6d6d6" stroke-width="0.75" />
<path d="M 260.86426 83.232 C 260.86426 84.456 262.05945 85.68 263.24026 85.68 C 266.84027 85.68 270.44025 83.232 270.44025 80.856 C 270.44025 79.6752 269.21625 78.48 268.06427 78.48 C 264.46426 78.48 260.86426 80.856 260.86426 83.232 Z" fill="#404040" stroke="none" stroke-width="1.0" />
<path d="M 259.34427 164.25 L 267.34427 164.25 L 267.34427 171.75 L 259.34427 171.75 L 259.34427 164.25 Z" fill="#ffffff" stroke="none" stroke-width="1.0" />
<text x='259.34427' y='171.75' font-family="Default" font-size="10.0" fill="#404040" >5</text>
<path d="M 268.34427 168.0 C 268.34427 163.0 285.2295 163.0 285.2295 168.0 C 285.2295 165.0 268.34427 165.0 268.34427 168.0 Z" fill="#404040" stroke="none" stroke-width="1.0" />
<path d="M 269.52426 81.04 L 270.52426 81.04 L 270.52426 50.0 L 269.52426 50.0 M 269.52426 81.04 Z" fill="#404040" stroke="none" stroke-width="0.75" />
<path d="M 269.52426 48.0 L 269.52426 52.0 L 297.4095 50.0 L 297.4095 46.0 L 269.52426 48.0 Z" fill="#404040" stroke="none" stroke-width="0.75" />
<path d="M 284.2295 70.0 L 300.2295 70.0 Z" fill="none" stroke="#d6d6d6" stroke-width="0.75" />
<path d="M 284.2295 78.0 L 300.2295 78.0 Z" fill="none" stroke="#d6d6d6" stroke-width="0.75" />
<path d="M 284.2295 70.0 L 300.2295 70.0 Z" fill="none" stroke="#d6d6d6" stroke-width="0.75" />
<path d="M 284.2295 78.0 L 300.2295 78.0 Z" fill="none" stroke="#d6d6d6" stroke-width="0.75" />
<path d="M 285.69388 75.63119 C 285.82086 75.55864 286.0204 75.61305 286.09293 75.7763 C 286.1292 75.84885 286.1292 75.90327 286.1292 77.172935 C 286.1292 77.9166 286.1292 78.51516 286.14734 78.51516 C 286.14734 78.51516 286.31058 78.44261 286.5101 78.370056 C 286.92728 78.20681 286.9817 78.188675 287.0905 78.279366 C 287.2175 78.370056 287.2175 78.38819 287.2175 79.11372 C 287.2175 79.73042 287.2175 79.784836 287.1812 79.83925 C 287.1631 79.87553 287.1268 79.911804 287.10867 79.92994 C 287.0724 79.94808 286.85474 80.05691 286.6008 80.1476 L 286.14734 80.34712 L 286.1292 81.816315 C 286.1292 82.614395 286.1292 83.28551 286.14734 83.28551 C 286.14734 83.28551 286.31058 83.21295 286.5101 83.140396 C 286.92728 82.97716 286.9817 82.959015 287.0905 83.049706 C 287.2175 83.140396 287.2175 83.15854 287.2175 83.88406 C 287.2175 84.50076 287.2175 84.555176 287.1812 84.60959 C 287.1631 84.64587 287.1268 84.682144 287.10867 84.70028 C 287.0724 84.71842 286.85474 84.82725 286.6008 84.91794 L 286.14734 85.11746 L 286.1292 86.64107 C 286.1292 88.01957 286.11105 88.182816 286.09293 88.23723 C 285.96597 88.45489 285.65762 88.45489 285.53064 88.23723 C 285.5125 88.182816 285.49435 88.037704 285.49435 86.768036 L 285.49435 85.3714 L 284.71442 85.67974 L 283.9526 85.98809 L 283.9526 87.45728 C 283.9526 89.01717 283.9526 88.980896 283.86194 89.07159 C 283.82565 89.126 283.6987 89.18041 283.64426 89.18041 C 283.57172 89.18041 283.44476 89.126 283.40848 89.07159 C 283.31778 88.980896 283.31778 89.01717 283.31778 87.602394 C 283.31778 86.85873 283.31778 86.26017 283.29965 86.26017 C 283.29965 86.26017 283.1364 86.33272 282.9369 86.40527 C 282.5197 86.56851 282.4653 86.586655 282.35645 86.495964 C 282.2295 86.40527 282.2295 86.38713 282.2295 85.661606 C 282.2295 85.04491 282.2295 84.99049 282.26578 84.93608 C 282.2839 84.8998 282.3202 84.863525 282.33832 84.84539 C 282.3746 84.82725 282.59225 84.71842 282.8462 84.62773 L 283.31778 84.42821 L 283.31778 82.959015 C 283.31778 82.160934 283.31778 81.48982 283.29965 81.48982 C 283.29965 81.48982 283.1364 81.56238 282.9369 81.63493 C 282.5197 81.79817 282.4653 81.816315 282.35645 81.725624 C 282.2295 81.63493 282.2295 81.61679 282.2295 80.891266 C 282.2295 80.27457 282.2295 80.22015 282.26578 80.16573 C 282.2839 80.12946 282.3202 80.093185 282.33832 80.07504 C 282.3746 80.05691 282.59225 79.94808 282.8462 79.85739 L 283.31778 79.65787 L 283.31778 78.13426 C 283.31778 76.75576 283.3359 76.592514 283.35406 76.5381 C 283.48102 76.32044 283.78937 76.32044 283.91635 76.5381 C 283.93448 76.592514 283.9526 76.73762 283.9526 78.00729 L 283.97076 79.40393 L 284.73257 79.09558 L 285.49435 78.78723 L 285.49435 77.31804 C 285.49435 75.93954 285.49435 75.84885 285.53064 75.7763 C 285.56693 75.70374 285.60318 75.667465 285.69388 75.63119 M 285.49435 82.070244 L 285.49435 80.60105 L 284.71442 80.9094 L 283.9526 81.21775 L 283.9526 82.705086 L 283.9526 84.17428 L 284.00702 84.156136 C 284.0433 84.138 284.38794 83.9929 284.787 83.847786 L 285.49435 83.55758 L 285.49435 82.070244 Z" fill="#404040" stroke="none" stroke-width="0.75" />
<path d="M 287.74948 83.232 C 287.74948 84.456 288.94467 85.68 290.1255 85.68 C 293.7255 85.68 297.32547 83.232 297.32547 80.856 C 297.32547 79.6752 296.10147 78.48 294.9495 78.48 C 291.3495 78.48 287.74948 80.856 287.74948 83.232 Z" fill="#404040" stroke="none" stroke-width="1.0" />
<path d="M 286.2295 164.25 L 294.2295 164.25 L 294.2295 171.75 L 286.2295 171.75 L 286.2295 164.25 Z" fill="#ffffff" stroke="none" stroke-width="1.0" />
<text x='286.2295' y='171.75' font-family="Default" font-size="10.0" fill="#404040" >6</text>
<path d="M 295.2295 168.0 C 295.2295 163.0 312.11475 163.0 312.11475 168.0 C 312.11475 165.0 295.2295 165.0 295.2295 168.0 Z" fill="#404040" stroke="none" stroke-width="1.0" />
<path d="M 296.4095 81.04 L 297.4095 81.04 L 297.4095 48.0 L 296.4095 48.0 M 296.4095 81.04 Z" fill="#404040" stroke="none" stroke-width="0.75" />
<path d="M 296.4095 46.0 L 296.4095 50.0 L 324.29474 48.0 L 324.29474 44.0 L 296.4095 46.0 Z" fill="#404040" stroke="none" stroke-width="0.75" />
<path d="M 311.11475 70.0 L 327.11475 70.0 Z" fill="none" stroke="#d6d6d6" stroke-width="0.75" />
<path d="M 311.11475 78.0 L 327.11475 78.0 Z" fill="none" stroke="#d6d6d6" stroke-width="0.75" />
<path d="M 311.11475 70.0 L 327.11475 70.0 Z" fill="none" stroke="#d6d6d6" stroke-width="0.75" />
<path d="M 311.11475 78.0 L 327.11475 78.0 Z" fill="none" stroke="#d6d6d6" stroke-width="0.75" />
<path d="M 314.63474 79.232 C 314.63474 80.456 315.82993 81.68 317.01074 81.68 C 320.61075 81.68 324.21072 79.232 324.21072 76.856 C 324.21072 75.6752 322.98672 74.48 321.83475 74.48 C 318.23474 74.48 314.63474 76.856 314.63474 79.232 Z" fill="#404040" stroke="none" stroke-width="1.0" />
<path d="M 313.11475 164.25 L 321.11475 164.25 L 321.11475 171.75 L 313.11475 171.75 L 313.11475 164.25 Z" fill="#ffffff" stroke="none" stroke-width="1.0" />
<text x='313.11475' y='171.75' font-family="Default" font-size="10.0" fill="#404040" >7</text>
<path d="M 323.29474 77.04 L 324.29474 77.04 L 324.29474 46.0 L 323.29474 46.0 M 323.29474 77.04 Z" fill="#404040" stroke="none" stroke-width="0.75" />
<path d="M 90.66 28.0 L 90.66 24.0 L 107.78476 24.0 M 134.90952 28.0 L 134.90952 24.0 L 117.78476 24.0 Z" fill="none" stroke="#404040" stroke-width="1.0" />
<text x='108.78476' y='27.75' font-family="Default" font-size="10.0" fill="#404040" >3</text>
<path d="M 145.77475 28.0 L 145.77475 24.0 L 162.8995 24.0 M 190.02426 28.0 L 190.02426 24.0 L 172.8995 24.0 Z" fill="none" stroke="#404040" stroke-width="1.0" />
<text x='163.8995' y='27.75' font-family="Default" font-size="10.0" fill="#404040" >3</text>
<path d="M 200.88951 28.0 L 200.88951 24.0 L 218.01425 24.0 M 245.139 28.0 L 245.139 24.0 L 228.01425 24.0 Z" fill="none" stroke="#404040" stroke-width="1.0" />
<text x='219.01425' y='27.75' font-family="Default" font-size="10.0" fill="#404040" >3</text>
<path d="M 256.00427 28.0 L 256.00427 24.0 L 285.8995 24.0 M 325.79474 28.0 L 325.79474 24.0 L 295.8995 24.0 Z" fill="none" stroke="#404040" stroke-width="1.0" />
<text x='286.8995' y='27.75' font-family="Default" font-size="10.0" fill="#404040" >3</text></g>
<path d="M 35.35 36.3 C 35.35 37.15 36.18 38.0 37.0 38.0 C 39.5 38.0 42.0 36.3 42.0 34.65 C 42.0 33.83 41.149998 33.0 40.35 33.0 C 37.85 33.0 35.35 34.65 35.35 36.3 Z" fill="#000000" stroke="none" stroke-width="1.0" />
<path d="M 42.0 20.0 L 42.0 34.7 Z" fill="none" stroke="#000000" stroke-width="1.0" />
<text x='43.0' y='36.25' font-family="Default" font-size="10.0" fill="#000000" > = 120</text>
<text x='21.0' y='48.0' font-family="Default" font-size="10.0" fill="#ff0000" >1</text>
<path d="M 20.0 50.0 L 23.0 50.0 L 23.0 138.0 L 20.0 138.0 L 20.0 50.0 Z" fill="#000000" stroke="#000000" stroke-width="0.75" />
<path d="M 25.0 50.0 L 26.0 50.0 L 26.0 138.0 L 25.0 138.0 L 25.0 50.0 Z" fill="#000000" stroke="#000000" stroke-width="0.75" />
<path d="M 377.0 50.0 L 377.0 82.0 Z" fill="#000000" stroke="#000000" stroke-width="0.75" />
<path d="M 20.0 138.0 L 23.0 138.0 L 23.0 188.0 L 20.0 188.0 L 20.0 138.0 Z" fill="#000000" stroke="#000000" stroke-width="0.75" />
<path d="M 25.0 138.0 L 26.0 138.0 L 26.0 188.0 L 25.0 188.0 L 25.0 138.0 Z" fill="#000000" stroke="#000000" stroke-width="0.75" />
<path d="M 377.0 138.0 L 377.0 188.0 Z" fill="#000000" stroke="#000000" stroke-width="0.75" /><g transform="translate(377.0,20.0)">
<path d="M 0.0 0.0 L 287.0 0.0 L 287.0 189.0 L 0.0 189.0 L 0.0 0.0 Z" fill="#ffffff" stroke="none" stroke-width="1.0" />
<path d="M 0.0 30.0 L 287.0 30.0 M 0.0 38.0 L 287.0 38.0 M 0.0 46.0 L 287.0 46.0 M 0.0 54.0 L 287.0 54.0 M 0.0 62.0 L 287.0 62.0 Z" fill="none" stroke="#d6d6d6" stroke-width="0.75" />
<path d="M 0.0 118.0 L 287.0 118.0 M 0.0 128.0 L 287.0 128.0 M 0.0 138.0 L 287.0 138.0 M 0.0 148.0 L 287.0 148.0 M 0.0 158.0 L 287.0 158.0 M 0.0 168.0 L 287.0 168.0 Z" fill="none" stroke="#d6d6d6" stroke-width="0.75" />
<path d="M 21.0 70.0 L 37.0 70.0 Z" fill="none" stroke="#d6d6d6" stroke-width="0.75" />
<path d="M 21.0 78.0 L 37.0 78.0 Z" fill="none" stroke="#d6d6d6" stroke-width="0.75" />
<path d="M 21.0 86.0 L 37.0 86.0 Z" fill="none" stroke="#d6d6d6" stroke-width="0.75" />
<path d="M 21.0 94.0 L 37.0 94.0 Z" fill="none" stroke="#d6d6d6" stroke-width="0.75" />
<path d="M 21.0 70.0 L 37.0 70.0 Z" fill="none" stroke="#d6d6d6" stroke-width="0.75" />
<path d="M 21.0 78.0 L 37.0 78.0 Z" fill="none" stroke="#d6d6d6" stroke-width="0.75" />
<path d="M 21.0 86.0 L 37.0 86.0 Z" fill="none" stroke="#d6d6d6" stroke-width="0.75" />
<path d="M 21.0 94.0 L 37.0 94.0 Z" fill="none" stroke="#d6d6d6" stroke-width="0.75" />
<path d="M 24.52 95.232 C 24.52 96.456 25.7152 97.68 26.896 97.68 C 30.496 97.68 34.096 95.232 34.096 92.856 C 34.096 91.6752 32.872 90.48 31.720001 90.48 C 28.12 90.48 24.52 92.856 24.52 95.232 Z" fill="#404040" stroke="none" stroke-width="1.0" />
<path d="M 23.0 164.25 L 31.0 164.25 L 31.0 171.75 L 23.0 171.75 L 23.0 164.25 Z" fill="#ffffff" stroke="none" stroke-width="1.0" />
<text x='23.0' y='171.75' font-family="Default" font-size="10.0" fill="#404040" >0</text>
<path d="M 33.18 93.04 L 34.18 93.04 L 34.18 62.0 L 33.18 62.0 M 33.18 93.04 Z" fill="#404040" stroke="none" stroke-width="0.75" />
<path d="M 49.34426 70.0 L 65.34426 70.0 Z" fill="none" stroke="#d6d6d6" stroke-width="0.75" />
<path d="M 49.34426 78.0 L 65.34426 78.0 Z" fill="none" stroke="#d6d6d6" stroke-width="0.75" />
<path d="M 49.34426 86.0 L 65.34426 86.0 Z" fill="none" stroke="#d6d6d6" stroke-width="0.75" />
<path d="M 49.34426 94.0 L 65.34426 94.0 Z" fill="none" stroke="#d6d6d6" stroke-width="0.75" />
<path d="M 49.34426 70.0 L 65.34426 70.0 Z" fill="none" stroke="#d6d6d6" stroke-width="0.75" />
<path d="M 49.34426 78.0 L 65.34426 78.0 Z" fill="none" stroke="#d6d6d6" stroke-width="0.75" />
<path d="M 49.34426 86.0 L 65.34426 86.0 Z" fill="none" stroke="#d6d6d6" stroke-width="0.75" />
<path d="M 49.34426 94.0 L 65.34426 94.0 Z" fill="none" stroke="#d6d6d6" stroke-width="0.75" />
<path d="M 52.86426 95.232 C 52.86426 96.456 54.059464 97.68 55.24026 97.68 C 58.840263 97.68 62.44026 95.232 62.44026 92.856 C 62.44026 91.6752 61.216263 90.48 60.064262 90.48 C 56.46426 90.48 52.86426 92.856 52.86426 95.232 Z" fill="#404040" stroke="none" stroke-width="1.0" />
<path d="M 51.34426 164.25 L 59.34426 164.25 L 59.34426 171.75 L 51.34426 171.75 L 51.34426 164.25 Z" fill="#ffffff" stroke="none" stroke-width="1.0" />
<text x='51.34426' y='171.75' font-family="Default" font-size="10.0" fill="#404040" >0</text>
<path d="M 61.52426 93.04 L 62.52426 93.04 L 62.52426 62.0 L 61.52426 62.0 M 61.52426 93.04 Z" fill="#404040" stroke="none" stroke-width="0.75" />
<path d="M 66.67426 77.95 C 66.79926 78.0 67.074265 77.95 67.17426 77.9 C 67.324265 77.8 67.37426 77.75 67.52426 77.475 C 68.04926 76.5 68.47426 75.3 68.64926 74.3 C 68.99926 72.325 68.74926 70.875 67.74926 69.225 C 67.29926 68.45 66.74926 67.75 65.52426 66.375 C 64.24926 64.9 63.849262 64.375 63.349262 63.675 C 62.849262 62.9 62.49926 62.175 62.27426 61.45 C 62.14926 61.0 62.049263 60.325 62.049263 59.95 L 62.049263 59.825 L 61.799263 59.825 L 61.52426 59.825 L 61.52426 62.95 L 61.52426 66.075 L 61.799263 66.075 L 62.07426 66.075 L 62.724262 66.525 C 64.574265 67.75 65.699265 68.75 66.49926 69.825 C 67.47426 71.15 67.74926 72.25 67.47426 73.9 C 67.29926 74.95 66.87426 76.025 66.324265 76.975 C 66.199265 77.15 66.17426 77.225 66.17426 77.3 C 66.17426 77.6 66.37426 77.85 66.67426 77.95 Z" fill="#404040" stroke="none" stroke-width="0.75" />
<path d="M 76.3388 70.0 L 92.3388 70.0 Z" fill="none" stroke="#d6d6d6" stroke-width="0.75" />
<path d="M 76.3388 78.0 L 92.3388 78.0 Z" fill="none" stroke="#d6d6d6" stroke-width="0.75" />
<path d="M 76.3388 86.0 L 92.3388 86.0 Z" fill="none" stroke="#d6d6d6" stroke-width="0.75" />
<path d="M 76.3388 94.0 L 92.3388 94.0 Z" fill="none" stroke="#d6d6d6" stroke-width="0.75" />
<path d="M 76.3388 70.0 L 92.3388 70.0 Z" fill="none" stroke="#d6d6d6" stroke-width="0.75" />
<path d="M 76.3388 78.0 L 92.3388 78.0 Z" fill="none" stroke="#d6d6d6" stroke-width="0.75" />
<path d="M 76.3388 86.0 L 92.3388 86.0 Z" fill="none" stroke="#d6d6d6" stroke-width="0.75" />
<path d="M 76.3388 94.0 L 92.3388 94.0 Z" fill="none" stroke="#d6d6d6" stroke-width="0.75" />
<path d="M 79.858795 95.232 C 79.858795 96.456 81.05399 97.68 82.234795 97.68 C 85.83479 97.68 89.4348 95.232 89.4348 92.856 C 89.4348 91.6752 88.21079 90.48 87.05879 90.48 C 83.45879 90.48 79.858795 92.856 79.858795 95.232 Z" fill="#404040" stroke="none" stroke-width="1.0" />
<path d="M 78.3388 164.25 L 86.3388 164.25 L 86.3388 171.75 L 78.3388 171.75 L 78.3388 164.25 Z" fill="#ffffff" stroke="none" stroke-width="1.0" />
<text x='78.3388' y='171.75' font-family="Default" font-size="10.0" fill="#404040" >0</text>
<path d="M 88.5188 93.04 L 89.5188 93.04 L 89.5188 62.0 L 88.5188 62.0 M 88.5188 93.04 Z" fill="#404040" stroke="none" stroke-width="0.75" />
<path d="M 104.68306 70.0 L 120.68306 70.0 Z" fill="none" stroke="#d6d6d6" stroke-width="0.75" />
<path d="M 104.68306 78.0 L 120.68306 78.0 Z" fill="none" stroke="#d6d6d6" stroke-width="0.75" />
<path d="M 104.68306 86.0 L 120.68306 86.0 Z" fill="none" stroke="#d6d6d6" stroke-width="0.75" />
<path d="M 104.68306 94.0 L 120.68306 94.0 Z" fill="none" stroke="#d6d6d6" stroke-width="0.75" />
<path d="M 104.68306 70.0 L 120.68306 70.0 Z" fill="none" stroke="#d6d6d6" stroke-width="0.75" />
<path d="M 104.68306 78.0 L 120.68306 78.0 Z" fill="none" stroke="#d6d6d6" stroke-width="0.75" />
<path d="M 104.68306 86.0 L 120.68306 86.0 Z" fill="none" stroke="#d6d6d6" stroke-width="0.75" />
<path d="M 104.68306 94.0 L 120.68306 94.0 Z" fill="none" stroke="#d6d6d6" stroke-width="0.75" />
<path d="M 108.20306 95.232 C 108.20306 96.456 109.398254 97.68 110.579056 97.68 C 114.179054 97.68 117.77905 95.232 117.77905 92.856 C 117.77905 91.6752 116.55505 90.48 115.40305 90.48 C 111.803055 90.48 108.20306 92.856 108.20306 95.232 Z" fill="#404040" stroke="none" stroke-width="1.0" />
<path d="M 106.68306 164.25 L 114.68306 164.25 L 114.68306 171.75 L 106.68306 171.75 L 106.68306 164.25 Z" fill="#ffffff" stroke="none" stroke-width="1.0" />
<text x='106.68306' y='171.75' font-family="Default" font-size="10.0" fill="#404040" >0</text>
<path d="M 116.86306 93.04 L 117.86306 93.04 L 117.86306 62.0 L 116.86306 62.0 M 116.86306 93.04 Z" fill="#404040" stroke="none" stroke-width="0.75" />
<path d="M 122.01306 77.95 C 122.13806 78.0 122.41306 77.95 122.51306 77.9 C 122.66306 77.8 122.71306 77.75 122.86306 77.475 C 123.38806 76.5 123.81306 75.3 123.98806 74.3 C 124.33806 72.325 124.08806 70.875 123.08806 69.225 C 122.63806 68.45 122.08806 67.75 120.86306 66.375 C 119.58806 64.9 119.18806 64.375 118.68806 63.675 C 118.18806 62.9 117.83806 62.175 117.61306 61.45 C 117.48806 61.0 117.38806 60.325 117.38806 59.95 L 117.38806 59.825 L 117.13806 59.825 L 116.86306 59.825 L 116.86306 62.95 L 116.86306 66.075 L 117.13806 66.075 L 117.41306 66.075 L 118.06306 66.525 C 119.91306 67.75 121.03806 68.75 121.83806 69.825 C 122.81306 71.15 123.08806 72.25 122.81306 73.9 C 122.63806 74.95 122.21306 76.025 121.66306 76.975 C 121.53806 77.15 121.51306 77.225 121.51306 77.3 C 121.51306 77.6 121.71306 77.85 122.01306 77.95 Z" fill="#404040" stroke="none" stroke-width="0.75" />
<path d="M 131.6776 70.0 L 147.6776 70.0 Z" fill="none" stroke="#d6d6d6" stroke-width="0.75" />
<path d="M 131.6776 78.0 L 147.6776 78.0 Z" fill="none" stroke="#d6d6d6" stroke-width="0.75" />
<path d="M 131.6776 86.0 L 147.6776 86.0 Z" fill="none" stroke="#d6d6d6" stroke-width="0.75" />
<path d="M 131.6776 94.0 L 147.6776 94.0 Z" fill="none" stroke="#d6d6d6" stroke-width="0.75" />
<path d="M 131.6776 70.0 L 147.6776 70.0 Z" fill="none" stroke="#d6d6d6" stroke-width="0.75" />
<path d="M 131.6776 78.0 L 147.6776 78.0 Z" fill="none" stroke="#d6d6d6" stroke-width="0.75" />
<path d="M 131.6776 86.0 L 147.6776 86.0 Z" fill="none" stroke="#d6d6d6" stroke-width="0.75" />
<path d="M 131.6776 94.0 L 147.6776 94.0 Z" fill="none" stroke="#d6d6d6" stroke-width="0.75" />
<path d="M 135.1976 95.232 C 135.1976 96.456 136.3928 97.68 137.57361 97.68 C 141.1736 97.68 144.7736 95.232 144.7736 92.856 C 144.7736 91.6752 143.5496 90.48 142.3976 90.48 C 138.7976 90.48 135.1976 92.856 135.1976 95.232 Z" fill="#404040" stroke="none" stroke-width="1.0" />
<path d="M 133.6776 164.25 L 141.6776 164.25 L 141.6776 171.75 L 133.6776 171.75 L 133.6776 164.25 Z" fill="#ffffff" stroke="none" stroke-width="1.0" />
<text x='133.6776' y='171.75' font-family="Default" font-size="10.0" fill="#404040" >0</text>
<path d="M 143.8576 93.04 L 144.8576 93.04 L 144.8576 62.0 L 143.8576 62.0 M 143.8576 93.04 Z" fill="#404040" stroke="none" stroke-width="0.75" />
<path d="M 160.02185 70.0 L 176.02185 70.0 Z" fill="none" stroke="#d6d6d6" stroke-width="0.75" />
<path d="M 160.02185 78.0 L 176.02185 78.0 Z" fill="none" stroke="#d6d6d6" stroke-width="0.75" />
<path d="M 160.02185 86.0 L 176.02185 86.0 Z" fill="none" stroke="#d6d6d6" stroke-width="0.75" />
<path d="M 160.02185 94.0 L 176.02185 94.0 Z" fill="none" stroke="#d6d6d6" stroke-width="0.75" />
<path d="M 160.02185 70.0 L 176.02185 70.0 Z" fill="none" stroke="#d6d6d6" stroke-width="0.75" />
<path d="M 160.02185 78.0 L 176.02185 78.0 Z" fill="none" stroke="#d6d6d6" stroke-width="0.75" />
<path d="M 160.02185 86.0 L 176.02185 86.0 Z" fill="none" stroke="#d6d6d6" stroke-width="0.75" />
<path d="M 160.02185 94.0 L 176.02185 94.0 Z" fill="none" stroke="#d6d6d6" stroke-width="0.75" />
<path d="M 163.54185 95.232 C 163.54185 96.456 164.73706 97.68 165.91786 97.68 C 169.51785 97.68 173.11786 95.232 173.11786 92.856 C 173.11786 91.6752 171.89386 90.48 170.74185 90.48 C 167.14186 90.48 163.54185 92.856 163.54185 95.232 Z" fill="#404040" stroke="none" stroke-width="1.0" />
<path d="M 162.02185 164.25 L 170.02185 164.25 L 170.02185 171.75 L 162.02185 171.75 L 162.02185 164.25 Z" fill="#ffffff" stroke="none" stroke-width="1.0" />
<text x='162.02185' y='171.75' font-family="Default" font-size="10.0" fill="#404040" >0</text>
<path d="M 172.20184 93.04 L 173.20184 93.04 L 173.20184 62.0 L 172.20184 62.0 M 172.20184 93.04 Z" fill="#404040" stroke="none" stroke-width="0.75" />
<path d="M 177.35184 77.95 C 177.47684 78.0 177.75185 77.95 177.85184 77.9 C 178.00185 77.8 178.05185 77.75 178.20184 77.475 C 178.72684 76.5 179.15184 75.3 179.32684 74.3 C 179.67685 72.325 179.42685 70.875 178.42685 69.225 C 177.97684 68.45 177.42685 67.75 176.20184 66.375 C 174.92685 64.9 174.52684 64.375 174.02684 63.675 C 173.52684 62.9 173.17685 62.175 172.95184 61.45 C 172.82684 61.0 172.72684 60.325 172.72684 59.95 L 172.72684 59.825 L 172.47684 59.825 L 172.20184 59.825 L 172.20184 62.95 L 172.20184 66.075 L 172.47684 66.075 L 172.75185 66.075 L 173.40184 66.525 C 175.25185 67.75 176.37685 68.75 177.17685 69.825 C 178.15184 71.15 178.42685 72.25 178.15184 73.9 C 177.97684 74.95 177.55185 76.025 177.00185 76.975 C 176.87685 77.15 176.85184 77.225 176.85184 77.3 C 176.85184 77.6 177.05185 77.85 177.35184 77.95 Z" fill="#404040" stroke="none" stroke-width="0.75" />
<path d="M 187.01639 70.0 L 203.01639 70.0 Z" fill="none" stroke="#d6d6d6" stroke-width="0.75" />
<path d="M 187.01639 70.0 L 203.01639 70.0 Z" fill="none" stroke="#d6d6d6" stroke-width="0.75" />
<path d="M 190.53639 71.232 C 190.53639 72.456 191.7316 73.68 192.9124 73.68 C 196.51239 73.68 200.1124 71.232 200.1124 68.856 C 200.1124 67.6752 198.8884 66.48 197.73639 66.48 C 194.1364 66.48 190.53639 68.856 190.53639 71.232 Z" fill="#404040" stroke="none" stroke-width="1.0" />
<path d="M 185.51639 164.25 L 200.51639 164.25 L 200.51639 171.75 L 185.51639 171.75 L 185.51639 164.25 Z" fill="#ffffff" stroke="none" stroke-width="1.0" />
<text x='185.51639' y='171.75' font-family="Default" font-size="10.0" fill="#404040" >10</text>
<path d="M 198.01639 168.0 C 198.01639 163.0 215.01093 163.0 215.01093 168.0 C 215.01093 165.0 198.01639 165.0 198.01639 168.0 Z" fill="#404040" stroke="none" stroke-width="1.0" />
<path d="M 199.19638 69.04 L 200.19638 69.04 L 200.19638 38.0 L 199.19638 38.0 M 199.19638 69.04 Z" fill="#404040" stroke="none" stroke-width="0.75" />
<path d="M 199.19638 36.0 L 199.19638 40.0 L 227.19092 38.0 L 227.19092 34.0 L 199.19638 36.0 Z" fill="#404040" stroke="none" stroke-width="0.75" />
<path d="M 214.01093 70.0 L 230.01093 70.0 Z" fill="none" stroke="#d6d6d6" stroke-width="0.75" />
<path d="M 214.01093 70.0 L 230.01093 70.0 Z" fill="none" stroke="#d6d6d6" stroke-width="0.75" />
<path d="M 215.47531 63.63119 C 215.60228 63.55864 215.8018 63.613052 215.87436 63.7763 C 215.91063 63.84885 215.91063 63.903263 215.91063 65.172935 C 215.91063 65.9166 215.91063 66.51516 215.92877 66.51516 C 215.92877 66.51516 216.09201 66.44261 216.29153 66.370056 C 216.70871 66.20681 216.76312 66.188675 216.87196 66.279366 C 216.99893 66.370056 216.99893 66.38819 216.99893 67.11372 C 216.99893 67.73042 216.99893 67.784836 216.96265 67.83925 C 216.9445 67.87553 216.90823 67.911804 216.89009 67.92994 C 216.85382 67.94808 216.63617 68.05691 216.38223 68.1476 L 215.92877 68.34712 L 215.91063 69.816315 C 215.91063 70.614395 215.91063 71.28551 215.92877 71.28551 C 215.92877 71.28551 216.09201 71.21295 216.29153 71.140396 C 216.70871 70.97716 216.76312 70.959015 216.87196 71.049706 C 216.99893 71.140396 216.99893 71.15854 216.99893 71.88406 C 216.99893 72.50076 216.99893 72.555176 216.96265 72.60959 C 216.9445 72.64587 216.90823 72.682144 216.89009 72.70028 C 216.85382 72.71842 216.63617 72.82725 216.38223 72.91794 L 215.92877 73.11746 L 215.91063 74.64107 C 215.91063 76.01957 215.8925 76.182816 215.87436 76.23723 C 215.74739 76.45489 215.43904 76.45489 215.31207 76.23723 C 215.29393 76.182816 215.2758 76.037704 215.2758 74.768036 L 215.2758 73.3714 L 214.49585 73.67974 L 213.73405 73.98809 L 213.73405 75.45728 C 213.73405 77.01717 213.73405 76.980896 213.64336 77.07159 C 213.60709 77.126 213.48012 77.18041 213.4257 77.18041 C 213.35315 77.18041 213.22618 77.126 213.18991 77.07159 C 213.09921 76.980896 213.09921 77.01717 213.09921 75.602394 C 213.09921 74.85873 213.09921 74.26017 213.08109 74.26017 C 213.08109 74.26017 212.91783 74.33272 212.7183 74.40527 C 212.30113 74.56851 212.24672 74.586655 212.1379 74.495964 C 212.01093 74.40527 212.01093 74.38713 212.01093 73.661606 C 212.01093 73.04491 212.01093 72.99049 212.0472 72.93608 C 212.06534 72.8998 212.10162 72.863525 212.11975 72.84539 C 212.15604 72.82725 212.37369 72.71842 212.62762 72.62773 L 213.09921 72.42821 L 213.09921 70.959015 C 213.09921 70.160934 213.09921 69.48982 213.08109 69.48982 C 213.08109 69.48982 212.91783 69.56238 212.7183 69.63493 C 212.30113 69.79817 212.24672 69.816315 212.1379 69.725624 C 212.01093 69.63493 212.01093 69.61679 212.01093 68.891266 C 212.01093 68.27457 212.01093 68.22015 212.0472 68.16573 C 212.06534 68.12946 212.10162 68.093185 212.11975 68.07504 C 212.15604 68.05691 212.37369 67.94808 212.62762 67.85739 L 213.09921 67.65787 L 213.09921 66.13426 C 213.09921 64.75576 213.11736 64.592514 213.1355 64.5381 C 213.26247 64.32044 213.57082 64.32044 213.69777 64.5381 C 213.71591 64.592514 213.73405 64.73762 213.73405 66.00729 L 213.7522 67.40393 L 214.51399 67.09558 L 215.2758 66.78723 L 215.2758 65.31804 C 215.2758 63.93954 215.2758 63.84885 215.31207 63.7763 C 215.34836 63.703743 215.38463 63.667465 215.47531 63.63119 M 215.2758 70.070244 L 215.2758 68.60105 L 214.49585 68.9094 L 213.73405 69.21775 L 213.73405 70.705086 L 213.73405 72.17428 L 213.78847 72.156136 C 213.82474 72.138 214.16937 71.9929 214.5684 71.847786 L 215.2758 71.55758 L 215.2758 70.070244 Z" fill="#404040" stroke="none" stroke-width="0.75" />
<path d="M 217.53093 71.232 C 217.53093 72.456 218.72614 73.68 219.90694 73.68 C 223.50693 73.68 227.10693 71.232 227.10693 68.856 C 227.10693 67.6752 225.88293 66.48 224.73093 66.48 C 221.13094 66.48 217.53093 68.856 217.53093 71.232 Z" fill="#404040" stroke="none" stroke-width="1.0" />
<path d="M 212.51093 164.25 L 227.51093 164.25 L 227.51093 171.75 L 212.51093 171.75 L 212.51093 164.25 Z" fill="#ffffff" stroke="none" stroke-width="1.0" />
<text x='212.51093' y='171.75' font-family="Default" font-size="10.0" fill="#404040" >11</text>
<path d="M 225.01093 168.0 C 225.01093 163.0 242.00546 163.0 242.00546 168.0 C 242.00546 165.0 225.01093 165.0 225.01093 168.0 Z" fill="#404040" stroke="none" stroke-width="1.0" />
<path d="M 226.19092 69.04 L 227.19092 69.04 L 227.19092 36.0 L 226.19092 36.0 M 226.19092 69.04 Z" fill="#404040" stroke="none" stroke-width="0.75" />
<path d="M 226.19092 34.0 L 226.19092 38.0 L 254.18546 36.0 L 254.18546 32.0 L 226.19092 34.0 Z" fill="#404040" stroke="none" stroke-width="0.75" />
<path d="M 244.52547 67.232 C 244.52547 68.456 245.72067 69.68 246.90147 69.68 C 250.50146 69.68 254.10147 67.232 254.10147 64.856 C 254.10147 63.6752 252.87747 62.48 251.72546 62.48 C 248.12547 62.48 244.52547 64.856 244.52547 67.232 Z" fill="#404040" stroke="none" stroke-width="1.0" />
<path d="M 239.50546 164.25 L 254.50546 164.25 L 254.50546 171.75 L 239.50546 171.75 L 239.50546 164.25 Z" fill="#ffffff" stroke="none" stroke-width="1.0" />
<text x='239.50546' y='171.75' font-family="Default" font-size="10.0" fill="#404040" >12</text>
<path d="M 253.18546 65.04 L 254.18546 65.04 L 254.18546 34.0 L 253.18546 34.0 M 253.18546 65.04 Z" fill="#404040" stroke="none" stroke-width="0.75" />
<path d="M 19.66 28.0 L 19.66 24.0 L 36.842133 24.0 M 64.02426 28.0 L 64.02426 24.0 L 46.842133 24.0 Z" fill="none" stroke="#404040" stroke-width="1.0" />
<text x='37.842133' y='27.75' font-family="Default" font-size="10.0" fill="#404040" >3</text>
<path d="M 74.998795 28.0 L 74.998795 24.0 L 92.18092 24.0 M 119.36306 28.0 L 119.36306 24.0 L 102.18092 24.0 Z" fill="none" stroke="#404040" stroke-width="1.0" />
<text x='93.18092' y='27.75' font-family="Default" font-size="10.0" fill="#404040" >3</text>
<path d="M 130.3376 28.0 L 130.3376 24.0 L 147.51971 24.0 M 174.70184 28.0 L 174.70184 24.0 L 157.51971 24.0 Z" fill="none" stroke="#404040" stroke-width="1.0" />
<text x='148.51971' y='27.75' font-family="Default" font-size="10.0" fill="#404040" >3</text>
<path d="M 185.67639 28.0 L 185.67639 24.0 L 215.68092 24.0 M 255.68546 28.0 L 255.68546 24.0 L 225.68092 24.0 Z" fill="none" stroke="#404040" stroke-width="1.0" />
<text x='216.68092' y='27.75' font-family="Default" font-size="10.0" fill="#404040" >3</text></g>
<text x='378.0' y='48.0' font-family="Default" font-size="10.0" fill="#ff0000" >2</text>
<path d="M 377.0 50.0 L 377.0 82.0 Z" fill="#000000" stroke="#000000" stroke-width="0.75" />
<path d="M 664.0 50.0 L 664.0 82.0 Z" fill="#000000" stroke="#000000" stroke-width="0.75" />
<path d="M 377.0 138.0 L 377.0 188.0 Z" fill="#000000" stroke="#000000" stroke-width="0.75" />
<path d="M 664.0 138.0 L 664.0 188.0 Z" fill="#000000" stroke="#000000" stroke-width="0.75" /><g transform="translate(664.0,20.0)">
<path d="M 0.0 0.0 L 286.0 0.0 L 286.0 189.0 L 0.0 189.0 L 0.0 0.0 Z" fill="#ffffff" stroke="none" stroke-width="1.0" />
<path d="M 0.0 30.0 L 286.0 30.0 M 0.0 38.0 L 286.0 38.0 M 0.0 46.0 L 286.0 46.0 M 0.0 54.0 L 286.0 54.0 M 0.0 62.0 L 286.0 62.0 Z" fill="none" stroke="#d6d6d6" stroke-width="0.75" />
<path d="M 0.0 118.0 L 286.0 118.0 M 0.0 128.0 L 286.0 128.0 M 0.0 138.0 L 286.0 138.0 M 0.0 148.0 L 286.0 148.0 M 0.0 158.0 L 286.0 158.0 M 0.0 168.0 L 286.0 168.0 Z" fill="none" stroke="#d6d6d6" stroke-width="0.75" />
<path d="M 21.0 70.0 L 37.0 70.0 Z" fill="none" stroke="#d6d6d6" stroke-width="0.75" />
<path d="M 21.0 78.0 L 37.0 78.0 Z" fill="none" stroke="#d6d6d6" stroke-width="0.75" />
<path d="M 21.0 86.0 L 37.0 86.0 Z" fill="none" stroke="#d6d6d6" stroke-width="0.75" />
<path d="M 21.0 94.0 L 37.0 94.0 Z" fill="none" stroke="#d6d6d6" stroke-width="0.75" />
<path d="M 21.0 70.0 L 37.0 70.0 Z" fill="none" stroke="#d6d6d6" stroke-width="0.75" />
<path d="M 21.0 78.0 L 37.0 78.0 Z" fill="none" stroke="#d6d6d6" stroke-width="0.75" />
<path d="M 21.0 86.0 L 37.0 86.0 Z" fill="none" stroke="#d6d6d6" stroke-width="0.75" />
<path d="M 21.0 94.0 L 37.0 94.0 Z" fill="none" stroke="#d6d6d6" stroke-width="0.75" />
<path d="M 24.52 95.232 C 24.52 96.456 25.7152 97.68 26.896 97.68 C 30.496 97.68 34.096 95.232 34.096 92.856 C 34.096 91.6752 32.872 90.48 31.720001 90.48 C 28.12 90.48 24.52 92.856 24.52 95.232 Z" fill="#404040" stroke="none" stroke-width="1.0" />
<path d="M 23.0 164.25 L 31.0 164.25 L 31.0 171.75 L 23.0 171.75 L 23.0 164.25 Z" fill="#ffffff" stroke="none" stroke-width="1.0" />
<text x='23.0' y='171.75' font-family="Default" font-size="10.0" fill="#404040" >0</text>
<path d="M 33.18 93.04 L 34.18 93.04 L 34.18 62.0 L 33.18 62.0 M 33.18 93.04 Z" fill="#404040" stroke="none" stroke-width="0.75" />
<path d="M 49.229507 70.0 L 65.22951 70.0 Z" fill="none" stroke="#d6d6d6" stroke-width="0.75" />
<path d="M 49.229507 78.0 L 65.22951 78.0 Z" fill="none" stroke="#d6d6d6" stroke-width="0.75" />
<path d="M 49.229507 86.0 L 65.22951 86.0 Z" fill="none" stroke="#d6d6d6" stroke-width="0.75" />
<path d="M 49.229507 94.0 L 65.22951 94.0 Z" fill="none" stroke="#d6d6d6" stroke-width="0.75" />
<path d="M 49.229507 70.0 L 65.22951 70.0 Z" fill="none" stroke="#d6d6d6" stroke-width="0.75" />
<path d="M 49.229507 78.0 L 65.22951 78.0 Z" fill="none" stroke="#d6d6d6" stroke-width="0.75" />
<path d="M 49.229507 86.0 L 65.22951 86.0 Z" fill="none" stroke="#d6d6d6" stroke-width="0.75" />
<path d="M 49.229507 94.0 L 65.22951 94.0 Z" fill="none" stroke="#d6d6d6" stroke-width="0.75" />
<path d="M 52.749508 95.232 C 52.749508 96.456 53.94471 97.68 55.125507 97.68 C 58.72551 97.68 62.32551 95.232 62.32551 92.856 C 62.32551 91.6752 61.10151 90.48 59.94951 90.48 C 56.349506 90.48 52.749508 92.856 52.749508 95.232 Z" fill="#404040" stroke="none" stroke-width="1.0" />
<path d="M 51.229507 164.25 L 59.229507 164.25 L 59.229507 171.75 L 51.229507 171.75 L 51.229507 164.25 Z" fill="#ffffff" stroke="none" stroke-width="1.0" />
<text x='51.229507' y='171.75' font-family="Default" font-size="10.0" fill="#404040" >0</text>
<path d="M 61.409508 93.04 L 62.409508 93.04 L 62.409508 62.0 L 61.409508 62.0 M 61.409508 93.04 Z" fill="#404040" stroke="none" stroke-width="0.75" />
<path d="M 66.55951 77.95 C 66.68451 78.0 66.95951 77.95 67.05951 77.9 C 67.20951 77.8 67.25951 77.75 67.40951 77.475 C 67.93451 76.5 68.359505 75.3 68.53451 74.3 C 68.88451 72.325 68.63451 70.875 67.63451 69.225 C 67.18451 68.45 66.63451 67.75 65.40951 66.375 C 64.13451 64.9 63.73451 64.375 63.23451 63.675 C 62.73451 62.9 62.384506 62.175 62.159508 61.45 C 62.034508 61.0 61.93451 60.325 61.93451 59.95 L 61.93451 59.825 L 61.68451 59.825 L 61.409508 59.825 L 61.409508 62.95 L 61.409508 66.075 L 61.68451 66.075 L 61.959507 66.075 L 62.60951 66.525 C 64.45951 67.75 65.58451 68.75 66.38451 69.825 C 67.359505 71.15 67.63451 72.25 67.359505 73.9 C 67.18451 74.95 66.75951 76.025 66.20951 76.975 C 66.08451 77.15 66.05951 77.225 66.05951 77.3 C 66.05951 77.6 66.25951 77.85 66.55951 77.95 Z" fill="#404040" stroke="none" stroke-width="0.75" />
<path d="M 76.11475 70.0 L 92.11475 70.0 Z" fill="none" stroke="#d6d6d6" stroke-width="0.75" />
<path d="M 76.11475 78.0 L 92.11475 78.0 Z" fill="none" stroke="#d6d6d6" stroke-width="0.75" />
<path d="M 76.11475 86.0 L 92.11475 86.0 Z" fill="none" stroke="#d6d6d6" stroke-width="0.75" />
<path d="M 76.11475 94.0 L 92.11475 94.0 Z" fill="none" stroke="#d6d6d6" stroke-width="0.75" />
<path d="M 76.11475 70.0 L 92.11475 70.0 Z" fill="none" stroke="#d6d6d6" stroke-width="0.75" />
<path d="M 76.11475 78.0 L 92.11475 78.0 Z" fill="none" stroke="#d6d6d6" stroke-width="0.75" />
<path d="M 76.11475 86.0 L 92.11475 86.0 Z" fill="none" stroke="#d6d6d6" stroke-width="0.75" />
<path d="M 76.11475 94.0 L 92.11475 94.0 Z" fill="none" stroke="#d6d6d6" stroke-width="0.75" />
<path d="M 79.63475 95.232 C 79.63475 96.456 80.82995 97.68 82.01075 97.68 C 85.61075 97.68 89.210754 95.232 89.210754 92.856 C 89.210754 91.6752 87.98675 90.48 86.83475 90.48 C 83.23475 90.48 79.63475 92.856 79.63475 95.232 Z" fill="#404040" stroke="none" stroke-width="1.0" />
<path d="M 78.11475 164.25 L 86.11475 164.25 L 86.11475 171.75 L 78.11475 171.75 L 78.11475 164.25 Z" fill="#ffffff" stroke="none" stroke-width="1.0" />
<text x='78.11475' y='171.75' font-family="Default" font-size="10.0" fill="#404040" >0</text>
<path d="M 88.294754 93.04 L 89.294754 93.04 L 89.294754 62.0 L 88.294754 62.0 M 88.294754 93.04 Z" fill="#404040" stroke="none" stroke-width="0.75" />
<path d="M 104.34426 70.0 L 120.34426 70.0 Z" fill="none" stroke="#d6d6d6" stroke-width="0.75" />
<path d="M 104.34426 78.0 L 120.34426 78.0 Z" fill="none" stroke="#d6d6d6" stroke-width="0.75" />
<path d="M 104.34426 86.0 L 120.34426 86.0 Z" fill="none" stroke="#d6d6d6" stroke-width="0.75" />
<path d="M 104.34426 94.0 L 120.34426 94.0 Z" fill="none" stroke="#d6d6d6" stroke-width="0.75" />
<path d="M 104.34426 70.0 L 120.34426 70.0 Z" fill="none" stroke="#d6d6d6" stroke-width="0.75" />
<path d="M 104.34426 78.0 L 120.34426 78.0 Z" fill="none" stroke="#d6d6d6" stroke-width="0.75" />
<path d="M 104.34426 86.0 L 120.34426 86.0 Z" fill="none" stroke="#d6d6d6" stroke-width="0.75" />
<path d="M 104.34426 94.0 L 120.34426 94.0 Z" fill="none" stroke="#d6d6d6" stroke-width="0.75" />
<path d="M 107.86426 95.232 C 107.86426 96.456 109.059456 97.68 110.24026 97.68 C 113.840256 97.68 117.44026 95.232 117.44026 92.856 C 117.44026 91.6752 116.216255 90.48 115.064255 90.48 C 111.46426 90.48 107.86426 92.856 107.86426 95.232 Z" fill="#404040" stroke="none" stroke-width="1.0" />
<path d="M 106.34426 164.25 L 114.34426 164.25 L 114.34426 171.75 L 106.34426 171.75 L 106.34426 164.25 Z" fill="#ffffff" stroke="none" stroke-width="1.0" />
<text x='106.34426' y='171.75' font-family="Default" font-size="10.0" fill="#404040" >0</text>
<path d="M 116.52426 93.04 L 117.52426 93.04 L 117.52426 62.0 L 116.52426 62.0 M 116.52426 93.04 Z" fill="#404040" stroke="none" stroke-width="0.75" />
<path d="M 121.67426 77.95 C 121.79926 78.0 122.074265 77.95 122.17426 77.9 C 122.324265 77.8 122.37426 77.75 122.52426 77.475 C 123.04926 76.5 123.47426 75.3 123.64926 74.3 C 123.99926 72.325 123.74926 70.875 122.74926 69.225 C 122.29926 68.45 121.74926 67.75 120.52426 66.375 C 119.24926 64.9 118.84926 64.375 118.34926 63.675 C 117.84926 62.9 117.49926 62.175 117.27426 61.45 C 117.14926 61.0 117.04926 60.325 117.04926 59.95 L 117.04926 59.825 L 116.79926 59.825 L 116.52426 59.825 L 116.52426 62.95 L 116.52426 66.075 L 116.79926 66.075 L 117.074265 66.075 L 117.72426 66.525 C 119.574265 67.75 120.699265 68.75 121.49926 69.825 C 122.47426 71.15 122.74926 72.25 122.47426 73.9 C 122.29926 74.95 121.87426 76.025 121.324265 76.975 C 121.199265 77.15 121.17426 77.225 121.17426 77.3 C 121.17426 77.6 121.37426 77.85 121.67426 77.95 Z" fill="#404040" stroke="none" stroke-width="0.75" />
<path d="M 131.2295 70.0 L 147.2295 70.0 Z" fill="none" stroke="#d6d6d6" stroke-width="0.75" />
<path d="M 131.2295 78.0 L 147.2295 78.0 Z" fill="none" stroke="#d6d6d6" stroke-width="0.75" />
<path d="M 131.2295 86.0 L 147.2295 86.0 Z" fill="none" stroke="#d6d6d6" stroke-width="0.75" />
<path d="M 131.2295 94.0 L 147.2295 94.0 Z" fill="none" stroke="#d6d6d6" stroke-width="0.75" />
<path d="M 131.2295 70.0 L 147.2295 70.0 Z" fill="none" stroke="#d6d6d6" stroke-width="0.75" />
<path d="M 131.2295 78.0 L 147.2295 78.0 Z" fill="none" stroke="#d6d6d6" stroke-width="0.75" />
<path d="M 131.2295 86.0 L 147.2295 86.0 Z" fill="none" stroke="#d6d6d6" stroke-width="0.75" />
<path d="M 131.2295 94.0 L 147.2295 94.0 Z" fill="none" stroke="#d6d6d6" stroke-width="0.75" />
<path d="M 134.74951 95.232 C 134.74951 96.456 135.94472 97.68 137.12552 97.68 C 140.72551 97.68 144.32552 95.232 144.32552 92.856 C 144.32552 91.6752 143.10152 90.48 141.94951 90.48 C 138.34952 90.48 134.74951 92.856 134.74951 95.232 Z" fill="#404040" stroke="none" stroke-width="1.0" />
<path d="M 133.2295 164.25 L 141.2295 164.25 L 141.2295 171.75 L 133.2295 171.75 L 133.2295 164.25 Z" fill="#ffffff" stroke="none" stroke-width="1.0" />
<text x='133.2295' y='171.75' font-family="Default" font-size="10.0" fill="#404040" >0</text>
<path d="M 143.40952 93.04 L 144.40952 93.04 L 144.40952 62.0 L 143.40952 62.0 M 143.40952 93.04 Z" fill="#404040" stroke="none" stroke-width="0.75" />
<path d="M 159.45901 70.0 L 175.45901 70.0 Z" fill="none" stroke="#d6d6d6" stroke-width="0.75" />
<path d="M 159.45901 78.0 L 175.45901 78.0 Z" fill="none" stroke="#d6d6d6" stroke-width="0.75" />
<path d="M 159.45901 86.0 L 175.45901 86.0 Z" fill="none" stroke="#d6d6d6" stroke-width="0.75" />
<path d="M 159.45901 94.0 L 175.45901 94.0 Z" fill="none" stroke="#d6d6d6" stroke-width="0.75" />
<path d="M 159.45901 70.0 L 175.45901 70.0 Z" fill="none" stroke="#d6d6d6" stroke-width="0.75" />
<path d="M 159.45901 78.0 L 175.45901 78.0 Z" fill="none" stroke="#d6d6d6" stroke-width="0.75" />
<path d="M 159.45901 86.0 L 175.45901 86.0 Z" fill="none" stroke="#d6d6d6" stroke-width="0.75" />
<path d="M 159.45901 94.0 L 175.45901 94.0 Z" fill="none" stroke="#d6d6d6" stroke-width="0.75" />
<path d="M 162.97902 95.232 C 162.97902 96.456 164.17422 97.68 165.35503 97.68 C 168.95502 97.68 172.55502 95.232 172.55502 92.856 C 172.55502 91.6752 171.33102 90.48 170.17902 90.48 C 166.57903 90.48 162.97902 92.856 162.97902 95.232 Z" fill="#404040" stroke="none" stroke-width="1.0" />
<path d="M 161.45901 164.25 L 169.45901 164.25 L 169.45901 171.75 L 161.45901 171.75 L 161.45901 164.25 Z" fill="#ffffff" stroke="none" stroke-width="1.0" />
<text x='161.45901' y='171.75' font-family="Default" font-size="10.0" fill="#404040" >0</text>
<path d="M 171.639 93.04 L 172.639 93.04 L 172.639 62.0 L 171.639 62.0 M 171.639 93.04 Z" fill="#404040" stroke="none" stroke-width="0.75" />
<path d="M 176.789 77.95 C 176.914 78.0 177.18901 77.95 177.289 77.9 C 177.43901 77.8 177.48901 77.75 177.639 77.475 C 178.164 76.5 178.589 75.3 178.764 74.3 C 179.11401 72.325 178.86401 70.875 177.86401 69.225 C 177.414 68.45 176.86401 67.75 175.639 66.375 C 174.36401 64.9 173.964 64.375 173.464 63.675 C 172.964 62.9 172.61401 62.175 172.389 61.45 C 172.264 61.0 172.164 60.325 172.164 59.95 L 172.164 59.825 L 171.914 59.825 L 171.639 59.825 L 171.639 62.95 L 171.639 66.075 L 171.914 66.075 L 172.18901 66.075 L 172.839 66.525 C 174.68901 67.75 175.81401 68.75 176.61401 69.825 C 177.589 71.15 177.86401 72.25 177.589 73.9 C 177.414 74.95 176.98901 76.025 176.43901 76.975 C 176.31401 77.15 176.289 77.225 176.289 77.3 C 176.289 77.6 176.48901 77.85 176.789 77.95 Z" fill="#404040" stroke="none" stroke-width="0.75" />
<path d="M 186.34427 70.0 L 202.34427 70.0 Z" fill="none" stroke="#d6d6d6" stroke-width="0.75" />
<path d="M 186.34427 78.0 L 202.34427 78.0 Z" fill="none" stroke="#d6d6d6" stroke-width="0.75" />
<path d="M 186.34427 70.0 L 202.34427 70.0 Z" fill="none" stroke="#d6d6d6" stroke-width="0.75" />
<path d="M 186.34427 78.0 L 202.34427 78.0 Z" fill="none" stroke="#d6d6d6" stroke-width="0.75" />
<path d="M 189.86427 83.232 C 189.86427 84.456 191.05948 85.68 192.24028 85.68 C 195.84027 85.68 199.44028 83.232 199.44028 80.856 C 199.44028 79.6752 198.21628 78.48 197.06427 78.48 C 193.46428 78.48 189.86427 80.856 189.86427 83.232 Z" fill="#404040" stroke="none" stroke-width="1.0" />
<path d="M 188.34427 164.25 L 196.34427 164.25 L 196.34427 171.75 L 188.34427 171.75 L 188.34427 164.25 Z" fill="#ffffff" stroke="none" stroke-width="1.0" />
<text x='188.34427' y='171.75' font-family="Default" font-size="10.0" fill="#404040" >5</text>
<path d="M 197.34427 168.0 C 197.34427 163.0 214.2295 163.0 214.2295 168.0 C 214.2295 165.0 197.34427 165.0 197.34427 168.0 Z" fill="#404040" stroke="none" stroke-width="1.0" />
<path d="M 198.52426 81.04 L 199.52426 81.04 L 199.52426 50.0 L 198.52426 50.0 M 198.52426 81.04 Z" fill="#404040" stroke="none" stroke-width="0.75" />
<path d="M 198.52426 48.0 L 198.52426 52.0 L 226.40952 54.0 L 226.40952 50.0 L 198.52426 48.0 Z" fill="#404040" stroke="none" stroke-width="0.75" />
<path d="M 213.2295 70.0 L 229.2295 70.0 Z" fill="none" stroke="#d6d6d6" stroke-width="0.75" />
<path d="M 213.2295 78.0 L 229.2295 78.0 Z" fill="none" stroke="#d6d6d6" stroke-width="0.75" />
<path d="M 213.2295 86.0 L 229.2295 86.0 Z" fill="none" stroke="#d6d6d6" stroke-width="0.75" />
<path d="M 213.2295 94.0 L 229.2295 94.0 Z" fill="none" stroke="#d6d6d6" stroke-width="0.75" />
<path d="M 213.2295 70.0 L 229.2295 70.0 Z" fill="none" stroke="#d6d6d6" stroke-width="0.75" />
<path d="M 213.2295 78.0 L 229.2295 78.0 Z" fill="none" stroke="#d6d6d6" stroke-width="0.75" />
<path d="M 213.2295 86.0 L 229.2295 86.0 Z" fill="none" stroke="#d6d6d6" stroke-width="0.75" />
<path d="M 213.2295 94.0 L 229.2295 94.0 Z" fill="none" stroke="#d6d6d6" stroke-width="0.75" />
<path d="M 216.74951 95.232 C 216.74951 96.456 217.94472 97.68 219.12552 97.68 C 222.72551 97.68 226.32552 95.232 226.32552 92.856 C 226.32552 91.6752 225.10152 90.48 223.94951 90.48 C 220.34952 90.48 216.74951 92.856 216.74951 95.232 Z" fill="#404040" stroke="none" stroke-width="1.0" />
<path d="M 215.2295 164.25 L 223.2295 164.25 L 223.2295 171.75 L 215.2295 171.75 L 215.2295 164.25 Z" fill="#ffffff" stroke="none" stroke-width="1.0" />
<text x='215.2295' y='171.75' font-family="Default" font-size="10.0" fill="#404040" >0</text>
<path d="M 224.2295 168.0 C 224.2295 163.0 241.11476 163.0 241.11476 168.0 C 241.11476 165.0 224.2295 165.0 224.2295 168.0 Z" fill="#404040" stroke="none" stroke-width="1.0" />
<path d="M 225.40952 93.04 L 226.40952 93.04 L 226.40952 52.0 L 225.40952 52.0 M 225.40952 93.04 Z" fill="#404040" stroke="none" stroke-width="0.75" />
<path d="M 225.40952 50.0 L 225.40952 54.0 L 253.29477 56.0 L 253.29477 52.0 L 225.40952 50.0 Z" fill="#404040" stroke="none" stroke-width="0.75" />
<path d="M 240.11476 70.0 L 256.11475 70.0 Z" fill="none" stroke="#d6d6d6" stroke-width="0.75" />
<path d="M 240.11476 78.0 L 256.11475 78.0 Z" fill="none" stroke="#d6d6d6" stroke-width="0.75" />
<path d="M 240.11476 86.0 L 256.11475 86.0 Z" fill="none" stroke="#d6d6d6" stroke-width="0.75" />
<path d="M 240.11476 70.0 L 256.11475 70.0 Z" fill="none" stroke="#d6d6d6" stroke-width="0.75" />
<path d="M 240.11476 78.0 L 256.11475 78.0 Z" fill="none" stroke="#d6d6d6" stroke-width="0.75" />
<path d="M 240.11476 86.0 L 256.11475 86.0 Z" fill="none" stroke="#d6d6d6" stroke-width="0.75" />
<path d="M 243.63477 87.232 C 243.63477 88.456 244.82997 89.68 246.01077 89.68 C 249.61076 89.68 253.21077 87.232 253.21077 84.856 C 253.21077 83.6752 251.98677 82.48 250.83476 82.48 C 247.23477 82.48 243.63477 84.856 243.63477 87.232 Z" fill="#404040" stroke="none" stroke-width="1.0" />
<path d="M 242.11476 164.25 L 250.11476 164.25 L 250.11476 171.75 L 242.11476 171.75 L 242.11476 164.25 Z" fill="#ffffff" stroke="none" stroke-width="1.0" />
<text x='242.11476' y='171.75' font-family="Default" font-size="10.0" fill="#404040" >3</text>
<path d="M 252.29477 85.04 L 253.29477 85.04 L 253.29477 54.0 L 252.29477 54.0 M 252.29477 85.04 Z" fill="#404040" stroke="none" stroke-width="0.75" />
<path d="M 19.66 28.0 L 19.66 24.0 L 36.78475 24.0 M 63.909508 28.0 L 63.909508 24.0 L 46.78475 24.0 Z" fill="none" stroke="#404040" stroke-width="1.0" />
<text x='37.78475' y='27.75' font-family="Default" font-size="10.0" fill="#404040" >3</text>
<path d="M 74.77475 28.0 L 74.77475 24.0 L 91.899506 24.0 M 119.02426 28.0 L 119.02426 24.0 L 101.899506 24.0 Z" fill="none" stroke="#404040" stroke-width="1.0" />
<text x='92.899506' y='27.75' font-family="Default" font-size="10.0" fill="#404040" >3</text>
<path d="M 129.88951 28.0 L 129.88951 24.0 L 147.01425 24.0 M 174.139 28.0 L 174.139 24.0 L 157.01425 24.0 Z" fill="none" stroke="#404040" stroke-width="1.0" />
<text x='148.01425' y='27.75' font-family="Default" font-size="10.0" fill="#404040" >3</text>
<path d="M 185.00427 28.0 L 185.00427 24.0 L 214.89952 24.0 M 254.79477 28.0 L 254.79477 24.0 L 224.89952 24.0 Z" fill="none" stroke="#404040" stroke-width="1.0" />
<text x='215.89952' y='27.75' font-family="Default" font-size="10.0" fill="#404040" >3</text></g>
<text x='665.0' y='48.0' font-family="Default" font-size="10.0" fill="#ff0000" >3</text>
<path d="M 664.0 50.0 L 664.0 82.0 Z" fill="#000000" stroke="#000000" stroke-width="0.75" />
<path d="M 950.0 50.0 L 950.0 82.0 Z" fill="#000000" stroke="#000000" stroke-width="0.75" />
<path d="M 664.0 138.0 L 664.0 188.0 Z" fill="#000000" stroke="#000000" stroke-width="0.75" />
<path d="M 950.0 138.0 L 950.0 188.0 Z" fill="#000000" stroke="#000000" stroke-width="0.75" /><g transform="translate(20.0,220.0)">
<path d="M 0.0 0.0 L 241.0 0.0 L 241.0 180.0 L 0.0 180.0 L 0.0 0.0 Z" fill="#ffffff" stroke="none" stroke-width="1.0" />
<path d="M 0.0 32.0 L 241.0 32.0 M 0.0 40.0 L 241.0 40.0 M 0.0 48.0 L 241.0 48.0 M 0.0 56.0 L 241.0 56.0 M 0.0 64.0 L 241.0 64.0 Z" fill="none" stroke="#d6d6d6" stroke-width="0.75" />
<path d="M 0.0 109.0 L 241.0 109.0 M 0.0 119.0 L 241.0 119.0 M 0.0 129.0 L 241.0 129.0 M 0.0 139.0 L 241.0 139.0 M 0.0 149.0 L 241.0 149.0 M 0.0 159.0 L 241.0 159.0 Z" fill="none" stroke="#d6d6d6" stroke-width="0.75" />
<path d="M 26.491554 42.729687 C 26.953726 42.666664 27.352875 42.79271 27.66799 43.08682 C 27.857061 43.296898 27.941092 43.46496 28.067139 43.969147 C 28.130161 44.200233 28.193186 44.43132 28.214195 44.473335 C 28.298225 44.662403 28.44528 44.788452 28.63435 44.80946 C 28.71838 44.80946 28.760395 44.80946 28.865435 44.746437 C 29.138536 44.620388 29.78978 43.8431 30.041872 43.35992 C 30.104895 43.212868 30.209934 43.149845 30.314974 43.149845 C 30.399004 43.149845 30.504044 43.212868 30.546059 43.27589 C 30.567066 43.317905 30.356989 44.05318 29.243574 47.77156 C 28.52931 50.20846 27.920084 52.246212 27.899076 52.267227 C 27.899076 52.288246 27.815046 52.35125 27.731014 52.372265 C 27.604967 52.43529 27.58396 52.43529 27.415897 52.43529 C 27.247833 52.43529 27.205818 52.43529 27.079773 52.39328 C 27.016748 52.35125 26.932718 52.30924 26.932718 52.288246 C 26.890703 52.267227 27.037756 51.889088 28.109154 48.842957 C 28.781403 46.973263 29.327608 45.418686 29.306599 45.418686 L 28.949467 45.523724 C 28.193186 45.775818 27.731014 45.859848 27.163803 45.859848 C 26.701632 45.859848 26.575584 45.83884 26.23946 45.67078 C 25.315117 45.229614 25.0 44.15822 25.525194 43.35992 C 25.75628 43.044804 26.113413 42.79271 26.491554 42.729687 Z" fill="#404040" stroke="none" stroke-width="0.75" />
<path d="M 46.491554 42.729687 C 46.953724 42.666664 47.352875 42.79271 47.66799 43.08682 C 47.85706 43.296898 47.94109 43.46496 48.06714 43.969147 C 48.13016 44.200233 48.193188 44.43132 48.214195 44.473335 C 48.298225 44.662403 48.44528 44.788452 48.63435 44.80946 C 48.71838 44.80946 48.760395 44.80946 48.865437 44.746437 C 49.13854 44.620388 49.78978 43.8431 50.041874 43.35992 C 50.104897 43.212868 50.209934 43.149845 50.314972 43.149845 C 50.399002 43.149845 50.504044 43.212868 50.54606 43.27589 C 50.567066 43.317905 50.356987 44.05318 49.243576 47.77156 C 48.529312 50.20846 47.920082 52.246212 47.899075 52.267227 C 47.899075 52.288246 47.815044 52.35125 47.731014 52.372265 C 47.60497 52.43529 47.58396 52.43529 47.415897 52.43529 C 47.247833 52.43529 47.20582 52.43529 47.079773 52.39328 C 47.016747 52.35125 46.932716 52.30924 46.932716 52.288246 C 46.8907 52.267227 47.037754 51.889088 48.109154 48.842957 C 48.781403 46.973263 49.327606 45.418686 49.3066 45.418686 L 48.949467 45.523724 C 48.193188 45.775818 47.731014 45.859848 47.163803 45.859848 C 46.701633 45.859848 46.575584 45.83884 46.23946 45.67078 C 45.315117 45.229614 45.0 44.15822 45.525196 43.35992 C 45.75628 43.044804 46.11341 42.79271 46.491554 42.729687 Z" fill="#404040" stroke="none" stroke-width="0.75" />
<path d="M 61.0 24.0 L 77.0 24.0 Z" fill="none" stroke="#d6d6d6" stroke-width="0.75" />
<path d="M 61.0 24.0 L 77.0 24.0 Z" fill="none" stroke="#d6d6d6" stroke-width="0.75" />
<path d="M 62.464394 17.631191 C 62.591362 17.558638 62.790882 17.613052 62.863434 17.776297 C 62.899708 17.84885 62.899708 17.903263 62.899708 19.172935 C 62.899708 19.916603 62.899708 20.515162 62.917847 20.515162 C 62.917847 20.515162 63.081093 20.44261 63.28061 20.370056 C 63.69779 20.206814 63.752205 20.188675 63.861034 20.279366 C 63.988 20.370056 63.988 20.388195 63.988 21.113722 C 63.988 21.73042 63.988 21.784836 63.951725 21.839249 C 63.933586 21.875526 63.89731 21.911802 63.879173 21.92994 C 63.842896 21.948078 63.625237 22.056908 63.371304 22.147598 L 62.917847 22.347118 L 62.899708 23.81631 C 62.899708 24.614391 62.899708 25.285505 62.917847 25.285505 C 62.917847 25.285505 63.081093 25.212952 63.28061 25.1404 C 63.69779 24.977156 63.752205 24.959017 63.861034 25.049707 C 63.988 25.1404 63.988 25.158537 63.988 25.884064 C 63.988 26.500763 63.988 26.555178 63.951725 26.609592 C 63.933586 26.645868 63.89731 26.682144 63.879173 26.700283 C 63.842896 26.718422 63.625237 26.82725 63.371304 26.91794 L 62.917847 27.11746 L 62.899708 28.641068 C 62.899708 30.019571 62.881573 30.182814 62.863434 30.237228 C 62.736465 30.454887 62.428116 30.454887 62.30115 30.237228 C 62.283012 30.182814 62.264874 30.037708 62.264874 28.768036 L 62.264874 27.371395 L 61.484932 27.679745 L 60.72313 27.988094 L 60.72313 29.457285 C 60.72313 31.017172 60.72313 30.980894 60.632435 31.071585 C 60.59616 31.126 60.469193 31.180414 60.41478 31.180414 C 60.342224 31.180414 60.21526 31.126 60.17898 31.071585 C 60.08829 30.980894 60.08829 31.017172 60.08829 29.602392 C 60.08829 28.858727 60.08829 28.260166 60.070152 28.260166 C 60.070152 28.260166 59.90691 28.33272 59.70739 28.405272 C 59.29021 28.568516 59.235798 28.586655 59.12697 28.495962 C 59.0 28.405272 59.0 28.387133 59.0 27.661606 C 59.0 27.044909 59.0 26.990494 59.036278 26.936079 C 59.054413 26.899803 59.09069 26.863525 59.10883 26.845388 C 59.145107 26.82725 59.362762 26.718422 59.6167 26.62773 L 60.08829 26.42821 L 60.08829 24.959017 C 60.08829 24.160938 60.08829 23.489824 60.070152 23.489824 C 60.070152 23.489824 59.90691 23.562378 59.70739 23.63493 C 59.29021 23.798174 59.235798 23.81631 59.12697 23.72562 C 59.0 23.63493 59.0 23.616793 59.0 22.891264 C 59.0 22.274567 59.0 22.220152 59.036278 22.165737 C 59.054413 22.129461 59.09069 22.093184 59.10883 22.075047 C 59.145107 22.056908 59.362762 21.948078 59.6167 21.857388 L 60.08829 21.657867 L 60.08829 20.13426 C 60.08829 18.755758 60.10643 18.592514 60.12457 18.538101 C 60.251534 18.320442 60.559883 18.320442 60.68685 18.538101 C 60.70499 18.592514 60.72313 18.73762 60.72313 20.007294 L 60.741264 21.403933 L 61.50307 21.095585 L 62.264874 20.787235 L 62.264874 19.318043 C 62.264874 17.93954 62.264874 17.84885 62.30115 17.776297 C 62.337425 17.703743 62.373703 17.667467 62.464394 17.631191 M 62.264874 24.070246 L 62.264874 22.601053 L 61.484932 22.909403 L 60.72313 23.217752 L 60.72313 24.705082 L 60.72313 26.174274 L 60.777542 26.156137 C 60.81382 26.137999 61.158443 25.992893 61.557484 25.847788 L 62.264874 25.557577 L 62.264874 24.070246 Z" fill="#404040" stroke="none" stroke-width="0.75" />
<path d="M 66.066666 20.8 L 72.46667 27.199999 M 66.066666 27.199999 L 72.46667 20.8 Z" fill="none" stroke="#404040" stroke-width="1.0" />
<path d="M 63.0 115.25 L 71.0 115.25 L 71.0 122.75 L 63.0 122.75 L 63.0 115.25 Z" fill="#ffffff" stroke="none" stroke-width="1.0" />
<text x='63.0' y='122.75' font-family="Default" font-size="10.0" fill="#404040" >X</text>
<path d="M 64.5 24.96 L 65.5 24.96 L 65.5 55.0 L 64.5 55.0 M 64.5 24.96 Z" fill="#404040" stroke="none" stroke-width="0.75" />
<path d="M 69.65 39.05 C 69.775 39.0 70.05 39.05 70.15 39.1 C 70.3 39.2 70.35 39.25 70.5 39.525 C 71.025 40.5 71.45 41.7 71.625 42.7 C 71.975 44.675 71.725 46.125 70.725 47.775 C 70.275 48.55 69.725 49.25 68.5 50.625 C 67.225 52.1 66.825 52.625 66.325 53.325 C 65.825 54.1 65.475 54.825 65.25 55.55 C 65.125 56.0 65.025 56.675 65.025 57.05 L 65.025 57.175 L 64.775 57.175 L 64.5 57.175 L 64.5 54.05 L 64.5 50.925 L 64.775 50.925 L 65.05 50.925 L 65.7 50.475 C 67.55 49.25 68.675 48.25 69.475 47.175 C 70.45 45.85 70.725 44.75 70.45 43.1 C 70.275 42.05 69.85 40.975 69.3 40.025 C 69.175 39.85 69.15 39.775 69.15 39.7 C 69.15 39.4 69.35 39.15 69.65 39.05 Z" fill="#404040" stroke="none" stroke-width="0.75" />
<path d="M 81.0 24.0 L 97.0 24.0 Z" fill="none" stroke="#d6d6d6" stroke-width="0.75" />
<path d="M 81.0 24.0 L 97.0 24.0 Z" fill="none" stroke="#d6d6d6" stroke-width="0.75" />
<path d="M 84.52 25.231998 C 84.52 26.456 85.715195 27.68 86.895996 27.68 C 90.495995 27.68 94.09599 25.231998 94.09599 22.855999 C 94.09599 21.6752 92.871994 20.48 91.71999 20.48 C 88.119995 20.48 84.52 22.855999 84.52 25.231998 Z" fill="#404040" stroke="none" stroke-width="1.0" />
<path d="M 79.5 115.25 L 94.5 115.25 L 94.5 122.75 L 79.5 122.75 L 79.5 115.25 Z" fill="#ffffff" stroke="none" stroke-width="1.0" />
<text x='79.5' y='122.75' font-family="Default" font-size="10.0" fill="#404040" >13</text>
<path d="M 84.5 24.96 L 85.5 24.96 L 85.5 55.0 L 84.5 55.0 M 84.5 24.96 Z" fill="#404040" stroke="none" stroke-width="0.75" />
<path d="M 89.65 39.05 C 89.775 39.0 90.05 39.05 90.15 39.1 C 90.3 39.2 90.35 39.25 90.5 39.525 C 91.025 40.5 91.45 41.7 91.625 42.7 C 91.975 44.675 91.725 46.125 90.725 47.775 C 90.275 48.55 89.725 49.25 88.5 50.625 C 87.225 52.1 86.825 52.625 86.325 53.325 C 85.825 54.1 85.475 54.825 85.25 55.55 C 85.125 56.0 85.025 56.675 85.025 57.05 L 85.025 57.175 L 84.775 57.175 L 84.5 57.175 L 84.5 54.05 L 84.5 50.925 L 84.775 50.925 L 85.05 50.925 L 85.7 50.475 C 87.55 49.25 88.675 48.25 89.475 47.175 C 90.45 45.85 90.725 44.75 90.45 43.1 C 90.275 42.05 89.85 40.975 89.3 40.025 C 89.175 39.85 89.15 39.775 89.15 39.7 C 89.15 39.4 89.35 39.15 89.65 39.05 Z" fill="#404040" stroke="none" stroke-width="0.75" />
<path d="M 106.491554 42.729687 C 106.95373 42.666664 107.352875 42.79271 107.66799 43.08682 C 107.85706 43.296898 107.94109 43.46496 108.06714 43.969147 C 108.130165 44.200233 108.193184 44.43132 108.214195 44.473335 C 108.298225 44.662403 108.44528 44.788452 108.634346 44.80946 C 108.71838 44.80946 108.7604 44.80946 108.86543 44.746437 C 109.138535 44.620388 109.78978 43.8431 110.04187 43.35992 C 110.1049 43.212868 110.20993 43.149845 110.31497 43.149845 C 110.399 43.149845 110.50404 43.212868 110.54606 43.27589 C 110.56707 43.317905 110.35699 44.05318 109.243576 47.77156 C 108.52931 50.20846 107.92008 52.246212 107.89908 52.267227 C 107.89908 52.288246 107.81505 52.35125 107.73101 52.372265 C 107.604965 52.43529 107.58396 52.43529 107.41589 52.43529 C 107.24783 52.43529 107.20582 52.43529 107.07977 52.39328 C 107.01675 52.35125 106.93272 52.30924 106.93272 52.288246 C 106.8907 52.267227 107.03776 51.889088 108.10915 48.842957 C 108.7814 46.973263 109.32761 45.418686 109.306595 45.418686 L 108.94946 45.523724 C 108.193184 45.775818 107.73101 45.859848 107.1638 45.859848 C 106.70163 45.859848 106.575584 45.83884 106.23946 45.67078 C 105.31512 45.229614 105.0 44.15822 105.52519 43.35992 C 105.75628 43.044804 106.11341 42.79271 106.491554 42.729687 Z" fill="#404040" stroke="none" stroke-width="0.75" />
<path d="M 121.0 24.0 L 137.0 24.0 Z" fill="none" stroke="#d6d6d6" stroke-width="0.75" />
<path d="M 121.0 24.0 L 137.0 24.0 Z" fill="none" stroke="#d6d6d6" stroke-width="0.75" />
<path d="M 126.066666 20.8 L 132.46666 27.199999 M 126.066666 27.199999 L 132.46666 20.8 Z" fill="none" stroke="#404040" stroke-width="1.0" />
<path d="M 123.0 115.25 L 131.0 115.25 L 131.0 122.75 L 123.0 122.75 L 123.0 115.25 Z" fill="#ffffff" stroke="none" stroke-width="1.0" />
<text x='123.0' y='122.75' font-family="Default" font-size="10.0" fill="#404040" >X</text>
<path d="M 124.5 24.96 L 125.5 24.96 L 125.5 55.0 L 124.5 55.0 M 124.5 24.96 Z" fill="#404040" stroke="none" stroke-width="0.75" />
<path d="M 129.65 39.05 C 129.775 39.0 130.05 39.05 130.15 39.1 C 130.3 39.2 130.35 39.25 130.5 39.525 C 131.025 40.5 131.45 41.7 131.625 42.7 C 131.975 44.675 131.725 46.125 130.725 47.775 C 130.275 48.55 129.725 49.25 128.5 50.625 C 127.225 52.1 126.825 52.625 126.325 53.325 C 125.825 54.1 125.475 54.825 125.25 55.55 C 125.125 56.0 125.025 56.675 125.025 57.05 L 125.025 57.175 L 124.775 57.175 L 124.5 57.175 L 124.5 54.05 L 124.5 50.925 L 124.775 50.925 L 125.05 50.925 L 125.7 50.475 C 127.55 49.25 128.675 48.25 129.475 47.175 C 130.45 45.85 130.725 44.75 130.45 43.1 C 130.275 42.05 129.85 40.975 129.3 40.025 C 129.175 39.85 129.15 39.775 129.15 39.7 C 129.15 39.4 129.35 39.15 129.65 39.05 Z" fill="#404040" stroke="none" stroke-width="0.75" />
<path d="M 141.0 24.0 L 157.0 24.0 Z" fill="none" stroke="#d6d6d6" stroke-width="0.75" />
<path d="M 141.0 24.0 L 157.0 24.0 Z" fill="none" stroke="#d6d6d6" stroke-width="0.75" />
<path d="M 144.52 25.231998 C 144.52 26.456 145.71521 27.68 146.89601 27.68 C 150.496 27.68 154.09601 25.231998 154.09601 22.855999 C 154.09601 21.6752 152.87201 20.48 151.72 20.48 C 148.12001 20.48 144.52 22.855999 144.52 25.231998 Z" fill="#404040" stroke="none" stroke-width="1.0" />
<path d="M 139.5 115.25 L 154.5 115.25 L 154.5 122.75 L 139.5 122.75 L 139.5 115.25 Z" fill="#ffffff" stroke="none" stroke-width="1.0" />
<text x='139.5' y='122.75' font-family="Default" font-size="10.0" fill="#404040" >13</text>
<path d="M 144.5 24.96 L 145.5 24.96 L 145.5 55.0 L 144.5 55.0 M 144.5 24.96 Z" fill="#404040" stroke="none" stroke-width="0.75" />
<path d="M 149.65 39.05 C 149.775 39.0 150.05 39.05 150.15 39.1 C 150.3 39.2 150.35 39.25 150.5 39.525 C 151.025 40.5 151.45 41.7 151.625 42.7 C 151.975 44.675 151.725 46.125 150.725 47.775 C 150.275 48.55 149.725 49.25 148.5 50.625 C 147.225 52.1 146.825 52.625 146.325 53.325 C 145.825 54.1 145.475 54.825 145.25 55.55 C 145.125 56.0 145.025 56.675 145.025 57.05 L 145.025 57.175 L 144.775 57.175 L 144.5 57.175 L 144.5 54.05 L 144.5 50.925 L 144.775 50.925 L 145.05 50.925 L 145.7 50.475 C 147.55 49.25 148.675 48.25 149.475 47.175 C 150.45 45.85 150.725 44.75 150.45 43.1 C 150.275 42.05 149.85 40.975 149.3 40.025 C 149.175 39.85 149.15 39.775 149.15 39.7 C 149.15 39.4 149.35 39.15 149.65 39.05 Z" fill="#404040" stroke="none" stroke-width="0.75" />
<path d="M 166.49155 42.729687 C 166.95372 42.666664 167.35287 42.79271 167.66798 43.08682 C 167.85706 43.296898 167.94109 43.46496 168.06714 43.969147 C 168.13016 44.200233 168.19319 44.43132 168.21419 44.473335 C 168.29822 44.662403 168.44528 44.788452 168.63435 44.80946 C 168.71838 44.80946 168.76039 44.80946 168.86543 44.746437 C 169.13853 44.620388 169.78978 43.8431 170.04187 43.35992 C 170.10489 43.212868 170.20993 43.149845 170.31497 43.149845 C 170.399 43.149845 170.50404 43.212868 170.54605 43.27589 C 170.56706 43.317905 170.357 44.05318 169.24358 47.77156 C 168.52931 50.20846 167.92009 52.246212 167.89908 52.267227 C 167.89908 52.288246 167.81505 52.35125 167.73102 52.372265 C 167.60497 52.43529 167.58395 52.43529 167.4159 52.43529 C 167.24783 52.43529 167.20583 52.43529 167.07977 52.39328 C 167.01675 52.35125 166.93272 52.30924 166.93272 52.288246 C 166.8907 52.267227 167.03775 51.889088 168.10916 48.842957 C 168.7814 46.973263 169.3276 45.418686 169.3066 45.418686 L 168.94946 45.523724 C 168.19319 45.775818 167.73102 45.859848 167.1638 45.859848 C 166.70163 45.859848 166.57558 45.83884 166.23946 45.67078 C 165.31512 45.229614 165.0 44.15822 165.52519 43.35992 C 165.75629 43.044804 166.11342 42.79271 166.49155 42.729687 Z" fill="#404040" stroke="none" stroke-width="0.75" />
<path d="M 182.46439 33.63119 C 182.59135 33.55864 182.79088 33.613052 182.86343 33.7763 C 182.8997 33.84885 182.8997 33.903263 182.8997 35.172935 C 182.8997 35.916603 182.8997 36.515163 182.91785 36.515163 C 182.91785 36.515163 183.08109 36.442608 183.28061 36.370056 C 183.69778 36.206814 183.7522 36.188675 183.86104 36.279366 C 183.988 36.370056 183.988 36.388195 183.988 37.113724 C 183.988 37.73042 183.988 37.784836 183.95172 37.83925 C 183.93358 37.875526 183.89731 37.911804 183.87917 37.92994 C 183.8429 37.94808 183.62524 38.056908 183.3713 38.1476 L 182.91785 38.34712 L 182.8997 39.81631 C 182.8997 40.61439 182.8997 41.285503 182.91785 41.285503 C 182.91785 41.285503 183.08109 41.21295 183.28061 41.1404 C 183.69778 40.977154 183.7522 40.95902 183.86104 41.04971 C 183.988 41.1404 183.988 41.15854 183.988 41.884064 C 183.988 42.500763 183.988 42.555176 183.95172 42.609592 C 183.93358 42.64587 183.89731 42.682144 183.87917 42.700283 C 183.8429 42.718422 183.62524 42.82725 183.3713 42.917942 L 182.91785 43.117462 L 182.8997 44.641068 C 182.8997 46.01957 182.88158 46.18281 182.86343 46.23723 C 182.73647 46.454887 182.42812 46.454887 182.30115 46.23723 C 182.283 46.18281 182.26488 46.03771 182.26488 44.768036 L 182.26488 43.371395 L 181.48492 43.679745 L 180.72313 43.988094 L 180.72313 45.457287 C 180.72313 47.01717 180.72313 46.980892 180.63243 47.071587 C 180.59616 47.126 180.4692 47.180412 180.41478 47.180412 C 180.34222 47.180412 180.21526 47.126 180.17899 47.071587 C 180.08829 46.980892 180.08829 47.01717 180.08829 45.60239 C 180.08829 44.858727 180.08829 44.260166 180.07016 44.260166 C 180.07016 44.260166 179.9069 44.332718 179.70738 44.405273 C 179.2902 44.568516 179.2358 44.586655 179.12697 44.495964 C 179.0 44.405273 179.0 44.387135 179.0 43.661606 C 179.0 43.044907 179.0 42.990494 179.03627 42.936077 C 179.05441 42.899803 179.0907 42.863525 179.10883 42.845387 C 179.14511 42.82725 179.36276 42.718422 179.6167 42.62773 L 180.08829 42.42821 L 180.08829 40.95902 C 180.08829 40.16094 180.08829 39.489826 180.07016 39.489826 C 180.07016 39.489826 179.9069 39.562378 179.70738 39.63493 C 179.2902 39.798172 179.2358 39.81631 179.12697 39.72562 C 179.0 39.63493 179.0 39.61679 179.0 38.891266 C 179.0 38.274567 179.0 38.22015 179.03627 38.165737 C 179.05441 38.12946 179.0907 38.093185 179.10883 38.075047 C 179.14511 38.056908 179.36276 37.94808 179.6167 37.857388 L 180.08829 37.657867 L 180.08829 36.134262 C 180.08829 34.75576 180.10643 34.592514 180.12457 34.5381 C 180.25154 34.320442 180.55989 34.320442 180.68684 34.5381 C 180.70499 34.592514 180.72313 34.73762 180.72313 36.007294 L 180.74127 37.403934 L 181.50307 37.095585 L 182.26488 36.787235 L 182.26488 35.318043 C 182.26488 33.93954 182.26488 33.84885 182.30115 33.7763 C 182.33743 33.703743 182.3737 33.667465 182.46439 33.63119 M 182.26488 40.070248 L 182.26488 38.601055 L 181.48492 38.9094 L 180.72313 39.21775 L 180.72313 40.705082 L 180.72313 42.174274 L 180.77754 42.156136 C 180.81381 42.138 181.15845 41.992893 181.55748 41.84779 L 182.26488 41.55758 L 182.26488 40.070248 Z" fill="#404040" stroke="none" stroke-width="0.75" />
<path d="M 184.52 41.232 C 184.52 42.456 185.71521 43.68 186.89601 43.68 C 190.496 43.68 194.09601 41.232 194.09601 38.856 C 194.09601 37.6752 192.87201 36.48 191.72 36.48 C 188.12001 36.48 184.52 38.856 184.52 41.232 Z" fill="#404040" stroke="none" stroke-width="1.0" />
<path d="M 187.0 84.0 L 187.0 84.0 C 187.0 84.0 188.0 83.0 189.0 84.0 L 191.0 86.0 L 193.0 84.0 C 193.0 84.0 194.0 83.0 195.0 84.0 L 197.0 86.0 L 199.0 84.0 C 199.0 84.0 200.0 83.0 201.0 84.0 L 203.0 86.0 L 204.0 85.0 C 204.0 85.0 205.0 85.0 204.0 86.0 L 203.0 87.0 C 203.0 87.0 202.0 88.0 201.0 87.0 L 199.0 85.0 L 198.0 86.0 L 197.0 87.0 C 197.0 87.0 196.0 88.0 195.0 87.0 L 193.0 85.0 L 192.0 86.0 L 191.0 87.0 C 191.0 87.0 190.0 88.0 189.0 87.0 L 187.0 85.0 L 186.0 86.0 C 186.0 86.0 185.0 86.0 186.0 85.0 L 187.0 84.0 Z" fill="#404040" stroke="none" stroke-width="1.0" />
<path d="M 179.5 125.25 L 194.5 125.25 L 194.5 132.75 L 179.5 132.75 L 179.5 125.25 Z" fill="#ffffff" stroke="none" stroke-width="1.0" />
<text x='179.5' y='132.75' font-family="Default" font-size="10.0" fill="#404040" >10</text>
<path d="M 184.5 40.96 L 185.5 40.96 L 185.5 71.0 L 184.5 71.0 M 184.5 40.96 Z" fill="#404040" stroke="none" stroke-width="0.75" />
<path d="M 189.65 55.05 C 189.775 55.0 190.05 55.05 190.15 55.1 C 190.3 55.2 190.35 55.25 190.5 55.525 C 191.025 56.5 191.45 57.7 191.625 58.7 C 191.975 60.675 191.725 62.125 190.725 63.775 C 190.275 64.55 189.725 65.25 188.5 66.625 C 187.225 68.1 186.825 68.625 186.325 69.325 C 185.825 70.1 185.475 70.825 185.25 71.55 C 185.125 72.0 185.025 72.675 185.025 73.05 L 185.025 73.175 L 184.775 73.175 L 184.5 73.175 L 184.5 70.05 L 184.5 66.925 L 184.775 66.925 L 185.05 66.925 L 185.7 66.475 C 187.55 65.25 188.675 64.25 189.475 63.175 C 190.45 61.85 190.725 60.75 190.45 59.1 C 190.275 58.05 189.85 56.975 189.3 56.025 C 189.175 55.85 189.15 55.775 189.15 55.7 C 189.15 55.4 189.35 55.15 189.65 55.05 Z" fill="#404040" stroke="none" stroke-width="0.75" />
<path d="M 195.0 32.0 C 195.0 28.0 202.0 28.0 202.0 32.0 C 202.0 30.0 195.0 30.0 195.0 32.0 Z" fill="#404040" stroke="none" stroke-width="0.75" />
<path d="M 202.46439 25.631191 C 202.59135 25.558638 202.79088 25.613052 202.86343 25.776297 C 202.8997 25.84885 202.8997 25.903263 202.8997 27.172935 C 202.8997 27.916603 202.8997 28.515162 202.91785 28.515162 C 202.91785 28.515162 203.08109 28.44261 203.28061 28.370056 C 203.69778 28.206814 203.7522 28.188675 203.86104 28.279366 C 203.988 28.370056 203.988 28.388195 203.988 29.113722 C 203.988 29.73042 203.988 29.784836 203.95172 29.839249 C 203.93358 29.875526 203.89731 29.911802 203.87917 29.92994 C 203.8429 29.948078 203.62524 30.056908 203.3713 30.147598 L 202.91785 30.347118 L 202.8997 31.81631 C 202.8997 32.61439 202.8997 33.285503 202.91785 33.285503 C 202.91785 33.285503 203.08109 33.21295 203.28061 33.1404 C 203.69778 32.977154 203.7522 32.95902 203.86104 33.04971 C 203.988 33.1404 203.988 33.15854 203.988 33.884064 C 203.988 34.500763 203.988 34.555176 203.95172 34.609592 C 203.93358 34.64587 203.89731 34.682144 203.87917 34.700283 C 203.8429 34.718422 203.62524 34.82725 203.3713 34.917942 L 202.91785 35.117462 L 202.8997 36.641068 C 202.8997 38.01957 202.88158 38.18281 202.86343 38.23723 C 202.73647 38.454887 202.42812 38.454887 202.30115 38.23723 C 202.283 38.18281 202.26488 38.03771 202.26488 36.768036 L 202.26488 35.371395 L 201.48492 35.679745 L 200.72313 35.988094 L 200.72313 37.457287 C 200.72313 39.01717 200.72313 38.980892 200.63243 39.071587 C 200.59616 39.126 200.4692 39.180412 200.41478 39.180412 C 200.34222 39.180412 200.21526 39.126 200.17899 39.071587 C 200.08829 38.980892 200.08829 39.01717 200.08829 37.60239 C 200.08829 36.858727 200.08829 36.260166 200.07016 36.260166 C 200.07016 36.260166 199.9069 36.332718 199.70738 36.405273 C 199.2902 36.568516 199.2358 36.586655 199.12697 36.495964 C 199.0 36.405273 199.0 36.387135 199.0 35.661606 C 199.0 35.044907 199.0 34.990494 199.03627 34.936077 C 199.05441 34.899803 199.0907 34.863525 199.10883 34.845387 C 199.14511 34.82725 199.36276 34.718422 199.6167 34.62773 L 200.08829 34.42821 L 200.08829 32.95902 C 200.08829 32.16094 200.08829 31.489824 200.07016 31.489824 C 200.07016 31.489824 199.9069 31.562378 199.70738 31.63493 C 199.2902 31.798174 199.2358 31.81631 199.12697 31.72562 C 199.0 31.63493 199.0 31.616793 199.0 30.891264 C 199.0 30.274567 199.0 30.220152 199.03627 30.165737 C 199.05441 30.129461 199.0907 30.093184 199.10883 30.075047 C 199.14511 30.056908 199.36276 29.948078 199.6167 29.857388 L 200.08829 29.657867 L 200.08829 28.13426 C 200.08829 26.755758 200.10643 26.592514 200.12457 26.538101 C 200.25154 26.320442 200.55989 26.320442 200.68684 26.538101 C 200.70499 26.592514 200.72313 26.73762 200.72313 28.007294 L 200.74127 29.403933 L 201.50307 29.095585 L 202.26488 28.787235 L 202.26488 27.318043 C 202.26488 25.93954 202.26488 25.84885 202.30115 25.776297 C 202.33743 25.703743 202.3737 25.667467 202.46439 25.631191 M 202.26488 32.070248 L 202.26488 30.601053 L 201.48492 30.909403 L 200.72313 31.217752 L 200.72313 32.705082 L 200.72313 34.174274 L 200.77754 34.156136 C 200.81381 34.138 201.15845 33.992893 201.55748 33.84779 L 202.26488 33.55758 L 202.26488 32.070248 Z" fill="#404040" stroke="none" stroke-width="0.75" />
<path d="M 204.52 33.232 C 204.52 34.456 205.71521 35.68 206.89601 35.68 C 210.496 35.68 214.09601 33.232 214.09601 30.855999 C 214.09601 29.6752 212.87201 28.48 211.72 28.48 C 208.12001 28.48 204.52 30.855999 204.52 33.232 Z" fill="#404040" stroke="none" stroke-width="1.0" />
<path d="M 204.5 32.96 L 205.5 32.96 L 205.5 63.0 L 204.5 63.0 M 204.5 32.96 Z" fill="#404040" stroke="none" stroke-width="0.75" />
<path d="M 19.66 18.0 L 19.66 14.0 L 42.67 14.0 M 75.68 18.0 L 75.68 14.0 L 52.67 14.0 Z" fill="none" stroke="#404040" stroke-width="1.0" />
<text x='43.67' y='17.75' font-family="Default" font-size="10.0" fill="#404040" >3</text>
<path d="M 79.66 18.0 L 79.66 14.0 L 102.67 14.0 M 135.68 18.0 L 135.68 14.0 L 112.67 14.0 Z" fill="none" stroke="#404040" stroke-width="1.0" />
<text x='103.67' y='17.75' font-family="Default" font-size="10.0" fill="#404040" >3</text>
<path d="M 139.66 18.0 L 139.66 14.0 L 162.67 14.0 M 195.68 18.0 L 195.68 14.0 L 172.67 14.0 Z" fill="none" stroke="#404040" stroke-width="1.0" />
<text x='163.67' y='17.75' font-family="Default" font-size="10.0" fill="#404040" >3</text></g>
<text x='21.0' y='250.0' font-family="Default" font-size="10.0" fill="#ff0000" >4</text>
<path d="M 20.0 252.0 L 20.0 329.0 Z" fill="#000000" stroke="#000000" stroke-width="0.75" />
<path d="M 255.0 252.0 L 256.0 252.0 L 256.0 284.0 L 255.0 284.0 L 255.0 252.0 Z" fill="#000000" stroke="#000000" stroke-width="0.75" />
<path d="M 258.0 252.0 L 261.0 252.0 L 261.0 284.0 L 258.0 284.0 L 258.0 252.0 Z" fill="#000000" stroke="#000000" stroke-width="0.75" />
<path d="M 20.0 329.0 L 20.0 379.0 Z" fill="#000000" stroke="#000000" stroke-width="0.75" />
<path d="M 255.0 329.0 L 256.0 329.0 L 256.0 379.0 L 255.0 379.0 L 255.0 329.0 Z" fill="#000000" stroke="#000000" stroke-width="0.75" />
<path d="M 258.0 329.0 L 261.0 329.0 L 261.0 379.0 L 258.0 379.0 L 258.0 329.0 Z" fill="#000000" stroke="#000000" stroke-width="0.75" />
<path d="M 263.0 252.0 L 930.0 252.0 M 263.0 260.0 L 930.0 260.0 M 263.0 268.0 L 930.0 268.0 M 263.0 276.0 L 930.0 276.0 M 263.0 284.0 L 930.0 284.0 Z" fill="none" stroke="#d6d6d6" stroke-width="0.75" />
<path d="M 263.0 329.0 L 930.0 329.0 M 263.0 339.0 L 930.0 339.0 M 263.0 349.0 L 930.0 349.0 M 263.0 359.0 L 930.0 359.0 M 263.0 369.0 L 930.0 369.0 M 263.0 379.0 L 930.0 379.0 Z" fill="none" stroke="#d6d6d6" stroke-width="0.75" />
</svg>