<svg width="960.0px" height="220.0px" xmlns="http://www.w3.org/2000/svg" version="1.1">

<path d="M 0.0 0.0 L 960.0 0.0 L 960.0 220.0 L 0.0 220.0 L 0.0 0.0 Z" fill="#ffffff" stroke="none" stroke-width="1.0" /><g transform="translate(20.0,20.0)">
<path d="M 0.0 0.0 L 312.0 0.0 L 312.0 189.0 L 0.0 189.0 L 0.0 0.0 Z" fill="#ffffff" stroke="none" stroke-width="1.0" />
<path d="M 0.0 30.0 L 312.0 30.0 M 0.0 38.0 L 312.0 38.0 M 0.0 46.0 L 312.0 46.0 M 0.0 54.0 L 312.0 54.0 M 0.0 62.0 L 312.0 62.0 Z" fill="none" stroke="#d6d6d6" stroke-width="0.75" />
<path d="M 0.0 118.0 L 312.0 118.0 M 0.0 128.0 L 312.0 128.0 M 0.0 138.0 L 312.0 138.0 M 0.0 148.0 L 312.0 148.0 M 0.0 158.0 L 312.0 158.0 M 0.0 168.0 L 312.0 168.0 Z" fill="none" stroke="#d6d6d6" stroke-width="0.75" />
<path d="M 67.77043 30.40856 C 68.324905 30.40856 68.821014 30.350195 69.25876 30.20428 C 69.6965 30.058365 69.959145 30.0 70.04669 30.0 C 70.192604 30.0 70.28015 30.029182 70.36771 30.116732 C 70.42607 30.175097 70.45525 30.233463 70.484436 30.321012 C 70.484436 30.379377 70.45525 30.437744 70.42607 30.496109 L 61.933853 40.35992 L 66.924126 40.35992 L 66.924126 36.449417 C 66.924126 36.18677 67.01167 35.95331 67.1284 35.807392 C 67.3035 35.661476 67.4786 35.515564 67.71206 35.4572 C 67.97471 35.340466 68.26653 35.07782 68.64591 34.640076 C 68.937744 34.319065 69.317116 33.706226 69.75486 32.801556 C 69.81323 32.684826 69.90078 32.626457 70.01751 32.626457 C 70.28015 32.626457 70.39688 32.772373 70.42607 33.03502 L 70.42607 40.35992 L 72.55642 40.35992 C 72.84825 40.35992 72.99416 40.505836 73.023346 40.797665 C 73.023346 41.089493 72.877426 41.235405 72.55642 41.235405 L 70.42607 41.235405 L 70.42607 41.468872 C 70.42607 42.28599 70.63035 42.928013 71.00973 43.45331 C 71.44747 43.9786 71.97276 44.270428 72.5856 44.270428 C 72.81906 44.270428 72.9358 44.387157 72.9358 44.62062 C 72.9358 44.854084 72.81906 44.970818 72.5856 44.970818 C 72.14786 44.970818 71.50584 44.91245 70.601166 44.79572 C 69.696495 44.649803 69.054474 44.59144 68.64591 44.59144 C 68.23735 44.59144 67.56615 44.649803 66.69066 44.79572 C 65.81517 44.91245 65.17315 44.970818 64.735405 44.970818 C 64.501945 44.970818 64.385216 44.854084 64.385216 44.62062 C 64.385216 44.387157 64.501945 44.270428 64.735405 44.270428 C 65.34825 44.270428 65.87354 43.9786 66.31128 43.45331 C 66.71984 42.89883 66.924126 42.25681 66.924126 41.468872 L 66.924126 41.235405 L 61.933853 41.235405 C 61.61284 41.235405 61.379375 41.17704 61.233463 41.001945 C 61.087547 40.885212 61.0 40.710114 61.0 40.53502 C 61.0 40.476654 61.145912 40.272373 61.437744 39.92218 C 61.729572 39.571983 62.079765 39.105057 62.488327 38.492218 C 62.488327 38.492218 63.305447 37.20817 63.71401 36.449417 C 63.71401 36.449417 64.47276 34.78599 64.735405 33.706226 C 65.02724 32.65564 65.17315 31.575874 65.17315 30.496109 C 65.17315 30.175097 65.31907 30.029182 65.58171 30.029182 C 65.61089 30.029182 65.756805 30.058365 65.96109 30.11673 C 66.16537 30.175097 66.4572 30.233461 66.77821 30.32101 C 67.1284 30.379377 67.44942 30.40856 67.77043 30.40856 Z" fill="#000000" stroke="none" stroke-width="0.75" />
<path d="M 67.77043 47.40856 C 68.324905 47.40856 68.821014 47.350193 69.25876 47.20428 C 69.6965 47.058365 69.959145 47.0 70.04669 47.0 C 70.192604 47.0 70.28015 47.029182 70.36771 47.11673 C 70.42607 47.1751 70.45525 47.233463 70.484436 47.32101 C 70.484436 47.37938 70.45525 47.437744 70.42607 47.49611 L 61.933853 57.35992 L 66.924126 57.35992 L 66.924126 53.449417 C 66.924126 53.18677 67.01167 52.95331 67.1284 52.807392 C 67.3035 52.661476 67.4786 52.515564 67.71206 52.4572 C 67.97471 52.340466 68.26653 52.07782 68.64591 51.640076 C 68.937744 51.319065 69.317116 50.706226 69.75486 49.801556 C 69.81323 49.684826 69.90078 49.626457 70.01751 49.626457 C 70.28015 49.626457 70.39688 49.772373 70.42607 50.03502 L 70.42607 57.35992 L 72.55642 57.35992 C 72.84825 57.35992 72.99416 57.505836 73.023346 57.797665 C 73.023346 58.089493 72.877426 58.235405 72.55642 58.235405 L 70.42607 58.235405 L 70.42607 58.468872 C 70.42607 59.28599 70.63035 59.928013 71.00973 60.45331 C 71.44747 60.9786 71.97276 61.270428 72.5856 61.270428 C 72.81906 61.270428 72.9358 61.387157 72.9358 61.62062 C 72.9358 61.854084 72.81906 61.970818 72.5856 61.970818 C 72.14786 61.970818 71.50584 61.91245 70.601166 61.79572 C 69.696495 61.649803 69.054474 61.59144 68.64591 61.59144 C 68.23735 61.59144 67.56615 61.649803 66.69066 61.79572 C 65.81517 61.91245 65.17315 61.970818 64.735405 61.970818 C 64.501945 61.970818 64.385216 61.854084 64.385216 61.62062 C 64.385216 61.387157 64.501945 61.270428 64.735405 61.270428 C 65.34825 61.270428 65.87354 60.9786 66.31128 60.45331 C 66.71984 59.89883 66.924126 59.25681 66.924126 58.468872 L 66.924126 58.235405 L 61.933853 58.235405 C 61.61284 58.235405 61.379375 58.17704 61.233463 58.001945 C 61.087547 57.885212 61.0 57.710114 61.0 57.53502 C 61.0 57.476654 61.145912 57.272373 61.437744 56.92218 C 61.729572 56.571983 62.079765 56.105057 62.488327 55.492218 C 62.488327 55.492218 63.305447 54.20817 63.71401 53.449417 C 63.71401 53.449417 64.47276 51.78599 64.735405 50.706226 C 65.02724 49.65564 65.17315 48.575874 65.17315 47.49611 C 65.17315 47.175095 65.31907 47.029182 65.58171 47.029182 C 65.61089 47.029182 65.756805 47.058365 65.96109 47.11673 C 66.16537 47.175095 66.4572 47.233463 66.77821 47.32101 C 67.1284 47.379375 67.44942 47.408558 67.77043 47.408558 Z" fill="#000000" stroke="none" stroke-width="0.75" />
<path d="M 22.764973 22.115383 C 22.921913 22.036913 22.948072 22.036913 23.105015 22.036913 C 23.314268 22.06307 23.445057 22.14154 23.73278 22.455425 C 25.616081 24.39104 27.185501 27.843758 27.577856 30.773342 C 27.630169 31.244167 27.630169 32.34276 27.577856 32.839737 C 27.29013 35.533905 26.165377 37.99266 23.57584 41.52385 L 23.209644 42.020832 L 23.418898 42.62244 C 23.915882 44.061073 24.491331 45.81359 24.85753 47.095284 C 24.96216 47.409164 25.04063 47.67074 25.04063 47.696896 C 25.04063 47.696896 25.223728 47.696896 25.406826 47.723053 C 26.322319 47.80152 27.10703 48.01078 27.917896 48.40313 C 28.57182 48.74317 29.147274 49.13552 29.696568 49.658665 C 30.29818 50.260277 30.690535 50.80957 31.05673 51.568123 C 31.606026 52.666718 31.84144 53.81762 31.81528 54.96853 C 31.789125 55.700924 31.684496 56.25022 31.449085 56.930305 C 31.1352 57.924263 30.559748 58.83976 29.77504 59.62447 C 29.094955 60.30455 28.46719 60.72306 27.630169 61.063103 L 27.316284 61.193886 L 27.316284 62.135536 C 27.316284 63.469543 27.237814 65.038956 27.133184 65.980606 C 27.02856 66.94841 26.766989 67.86391 26.348476 68.700935 C 25.249886 70.92427 23.314268 72.10133 21.143244 71.89209 C 18.684484 71.65667 16.69656 69.98262 16.199577 67.73312 C 15.964161 66.713 16.068794 65.9283 16.487303 65.27437 C 17.036598 64.411194 18.082878 63.91421 19.102997 63.940365 C 20.30622 63.992683 21.274027 64.934326 21.457123 66.24218 C 21.58791 67.28845 21.143244 68.25626 20.30622 68.7794 C 19.835394 69.06713 19.181469 69.197914 18.684484 69.119446 C 18.606018 69.119446 18.527544 69.093285 18.527544 69.119446 L 18.84143 69.43333 C 19.416882 70.00878 20.070807 70.374985 20.907831 70.558075 C 21.090927 70.584236 21.247868 70.584236 21.666382 70.584236 C 22.137207 70.584236 22.189518 70.584236 22.451088 70.53192 C 22.81729 70.42729 23.131172 70.29651 23.418898 70.139565 C 24.726748 69.35486 25.616081 67.73312 25.851494 65.77136 C 25.929964 65.038956 26.008434 63.469543 26.008434 62.318638 C 26.008434 61.560085 26.008434 61.50777 25.956123 61.50777 C 25.851494 61.560085 25.302197 61.6124 24.909843 61.638554 C 24.41286 61.66471 23.57584 61.66471 23.183485 61.6124 C 21.640223 61.4293 20.227747 60.90616 18.998373 60.042976 C 17.167385 58.761288 15.859535 56.851826 15.31024 54.654644 C 14.604002 51.908165 15.100986 48.978584 16.827343 45.89206 C 17.55974 44.610374 18.265978 43.564095 20.018494 41.236122 L 21.012455 39.902122 L 20.829355 39.405136 C 19.573822 36.083202 19.15531 34.173744 19.024527 31.401108 C 18.972214 30.197887 19.024527 29.177761 19.181469 28.340742 C 19.573822 26.143559 20.593945 24.181787 22.189518 22.612366 C 22.503403 22.298483 22.63419 22.193855 22.764973 22.115383 M 24.831371 26.588224 C 24.569805 26.143559 24.622118 26.169712 24.386707 26.326658 C 23.65431 26.771324 22.89576 27.451405 22.34646 28.131483 C 21.221714 29.57012 20.593945 31.244167 20.515476 33.048996 C 20.489319 33.78139 20.56779 34.252216 20.907831 35.37696 C 21.169397 36.292458 21.901793 38.5158 21.95411 38.56811 C 21.95411 38.59427 22.111048 38.411175 22.26799 38.17576 C 24.072823 35.58622 25.04063 33.467506 25.406826 31.348791 C 25.485298 30.799496 25.53761 30.354828 25.563768 29.727062 C 25.589928 28.28843 25.432985 27.582191 24.831371 26.588224 M 22.581877 44.191864 C 22.424934 43.694878 22.26799 43.302525 22.26799 43.302525 C 22.241835 43.302525 21.143244 44.76731 20.672415 45.421238 C 19.129156 47.592266 18.187506 49.34478 17.638206 51.071136 C 17.27201 52.143574 17.115068 53.137543 17.062756 54.236134 C 17.062756 54.837746 17.088915 55.20394 17.193539 55.64861 C 17.795153 57.976578 20.280064 59.886036 23.209644 60.30455 C 23.65431 60.35686 24.909843 60.35686 25.459139 60.30455 C 26.008434 60.226078 25.956123 60.252235 25.929964 60.016823 C 25.773026 57.53191 25.563768 56.014805 25.14526 53.765305 C 24.988314 52.823658 24.543648 50.835728 24.517488 50.80957 C 24.491331 50.783417 23.99435 50.835728 23.706627 50.9142 C 23.340427 50.99267 23.105015 51.071136 22.79113 51.22808 C 21.090927 52.091263 20.593945 54.053036 21.666382 55.64861 C 21.849482 55.91018 22.320305 56.381004 22.608032 56.564102 C 22.71266 56.642574 22.948072 56.799515 23.105015 56.877987 C 23.340427 57.00877 23.392738 57.061085 23.445057 57.165714 C 23.65431 57.505756 23.523525 57.924263 23.131172 58.107365 C 22.921913 58.21199 22.764973 58.185837 22.34646 57.976578 C 21.326344 57.4796 20.56779 56.799515 20.018494 55.962494 C 18.998373 54.393074 18.867586 52.37899 19.70461 50.678787 C 20.437006 49.213997 21.744852 48.22003 23.418898 47.853836 C 23.57584 47.80152 23.706627 47.775368 23.706627 47.775368 C 23.73278 47.749207 23.000385 45.368923 22.581877 44.191864 M 26.139221 50.94036 C 26.060753 50.94036 25.98228 50.9142 25.956123 50.9142 L 25.877651 50.88804 L 26.008434 51.43734 C 26.610046 54.07919 27.054714 56.956455 27.211655 59.389057 C 27.237814 59.650627 27.237814 59.859882 27.237814 59.859882 C 27.263973 59.859882 27.60401 59.70294 27.78711 59.572155 C 28.231777 59.31058 28.65029 58.91823 28.99033 58.47356 C 29.801197 57.401123 30.08892 56.06712 29.77504 54.706955 C 29.539627 53.608364 28.911861 52.58824 28.022522 51.882008 C 27.473227 51.463493 26.740831 51.097298 26.139221 50.94036 Z" fill="#000000" stroke="none" stroke-width="0.75" />
<path d="M 92.0 70.0 L 108.0 70.0 Z" fill="none" stroke="#d6d6d6" stroke-width="0.75" />
<path d="M 92.0 78.0 L 108.0 78.0 Z" fill="none" stroke="#d6d6d6" stroke-width="0.75" />
<path d="M 92.0 86.0 L 108.0 86.0 Z" fill="none" stroke="#d6d6d6" stroke-width="0.75" />
<path d="M 92.0 94.0 L 108.0 94.0 Z" fill="none" stroke="#d6d6d6" stroke-width="0.75" />
<path d="M 92.0 70.0 L 108.0 70.0 Z" fill="none" stroke="#d6d6d6" stroke-width="0.75" />
<path d="M 92.0 78.0 L 108.0 78.0 Z" fill="none" stroke="#d6d6d6" stroke-width="0.75" />
<path d="M 92.0 86.0 L 108.0 86.0 Z" fill="none" stroke="#d6d6d6" stroke-width="0.75" />
<path d="M 92.0 94.0 L 108.0 94.0 Z" fill="none" stroke="#d6d6d6" stroke-width="0.75" />
<path d="M 95.52 95.232 C 95.52 96.456 96.715195 97.68 97.895996 97.68 C 101.495995 97.68 105.09599 95.232 105.09599 92.856 C 105.09599 91.6752 103.871994 90.48 102.71999 90.48 C 99.119995 90.48 95.52 92.856 95.52 95.232 Z" fill="#404040" stroke="none" stroke-width="1.0" />
<path d="M 94.0 164.25 L 102.0 164.25 L 102.0 171.75 L 94.0 171.75 L 94.0 164.25 Z" fill="#ffffff" stroke="none" stroke-width="1.0" />
<text x='94.0' y='171.75' font-family="Default" font-size="10.0" fill="#404040" >0</text>
<path d="M 104.18 93.04 L 105.18 93.04 L 105.18 62.0 L 104.18 62.0 M 104.18 93.04 Z" fill="#404040" stroke="none" stroke-width="0.75" />
<path d="M 113.0 70.0 L 129.0 70.0 Z" fill="none" stroke="#d6d6d6" stroke-width="0.75" />
<path d="M 113.0 78.0 L 129.0 78.0 Z" fill="none" stroke="#d6d6d6" stroke-width="0.75" />
<path d="M 113.0 86.0 L 129.0 86.0 Z" fill="none" stroke="#d6d6d6" stroke-width="0.75" />
<path d="M 113.0 70.0 L 129.0 70.0 Z" fill="none" stroke="#d6d6d6" stroke-width="0.75" />
<path d="M 113.0 78.0 L 129.0 78.0 Z" fill="none" stroke="#d6d6d6" stroke-width="0.75" />
<path d="M 113.0 86.0 L 129.0 86.0 Z" fill="none" stroke="#d6d6d6" stroke-width="0.75" />
<path d="M 116.52 87.232 C 116.52 88.456 117.715195 89.68 118.895996 89.68 C 122.495995 89.68 126.09599 87.232 126.09599 84.856 C 126.09599 83.6752 124.871994 82.48 123.71999 82.48 C 120.119995 82.48 116.52 84.856 116.52 87.232 Z" fill="#404040" stroke="none" stroke-width="1.0" />
<path d="M 115.0 164.25 L 123.0 164.25 L 123.0 171.75 L 115.0 171.75 L 115.0 164.25 Z" fill="#ffffff" stroke="none" stroke-width="1.0" />
<text x='115.0' y='171.75' font-family="Default" font-size="10.0" fill="#404040" >3</text>
<path d="M 125.18 85.04 L 126.18 85.04 L 126.18 54.0 L 125.18 54.0 M 125.18 85.04 Z" fill="#404040" stroke="none" stroke-width="0.75" />
<path d="M 130.33 69.95 C 130.455 70.0 130.73 69.95 130.83 69.9 C 130.98 69.8 131.03 69.75 131.18 69.475 C 131.705 68.5 132.13 67.3 132.305 66.3 C 132.655 64.325 132.405 62.875 131.405 61.225 C 130.955 60.45 130.405 59.75 129.18 58.375 C 127.905 56.9 127.505 56.375 127.005 55.675 C 126.505 54.9 126.155 54.175 125.93 53.45 C 125.805 53.0 125.705 52.325 125.705 51.95 L 125.705 51.825 L 125.455 51.825 L 125.18 51.825 L 125.18 54.95 L 125.18 58.075 L 125.455 58.075 L 125.73 58.075 L 126.38 58.525 C 128.23 59.75 129.355 60.75 130.155 61.825 C 131.13 63.15 131.405 64.25 131.13 65.9 C 130.955 66.95 130.53 68.025 129.98 68.975 C 129.855 69.15 129.83 69.225 129.83 69.3 C 129.83 69.6 130.03 69.85 130.33 69.95 Z" fill="#404040" stroke="none" stroke-width="0.75" />
<path d="M 138.49155 40.729687 C 138.95372 40.666664 139.35287 40.79271 139.66798 41.08682 C 139.85706 41.296898 139.94109 41.46496 140.06714 41.969147 C 140.13016 42.200233 140.19319 42.43132 140.21419 42.473335 C 140.29822 42.662403 140.44528 42.788452 140.63435 42.80946 C 140.71838 42.80946 140.76039 42.80946 140.86543 42.746437 C 141.13853 42.620388 141.78978 41.8431 142.04187 41.35992 C 142.10489 41.212868 142.20993 41.149845 142.31497 41.149845 C 142.399 41.149845 142.50404 41.212868 142.54605 41.27589 C 142.56706 41.317905 142.357 42.05318 141.24358 45.77156 C 140.52931 48.20846 139.92009 50.246212 139.89908 50.267227 C 139.89908 50.288246 139.81505 50.35125 139.73102 50.372265 C 139.60497 50.43529 139.58395 50.43529 139.4159 50.43529 C 139.24783 50.43529 139.20583 50.43529 139.07977 50.39328 C 139.01675 50.35125 138.93272 50.30924 138.93272 50.288246 C 138.8907 50.267227 139.03775 49.889088 140.10916 46.842957 C 140.7814 44.973263 141.3276 43.418686 141.3066 43.418686 L 140.94946 43.523724 C 140.19319 43.775818 139.73102 43.859848 139.1638 43.859848 C 138.70163 43.859848 138.57558 43.83884 138.23946 43.67078 C 137.31512 43.229614 137.0 42.15822 137.52519 41.35992 C 137.75629 41.044804 138.11342 40.79271 138.49155 40.729687 Z" fill="#404040" stroke="none" stroke-width="0.75" />
<path d="M 153.0 70.0 L 169.0 70.0 Z" fill="none" stroke="#d6d6d6" stroke-width="0.75" />
<path d="M 153.0 78.0 L 169.0 78.0 Z" fill="none" stroke="#d6d6d6" stroke-width="0.75" />
<path d="M 153.0 86.0 L 169.0 86.0 Z" fill="none" stroke="#d6d6d6" stroke-width="0.75" />
<path d="M 153.0 94.0 L 169.0 94.0 Z" fill="none" stroke="#d6d6d6" stroke-width="0.75" />
<path d="M 153.0 70.0 L 169.0 70.0 Z" fill="none" stroke="#d6d6d6" stroke-width="0.75" />
<path d="M 153.0 78.0 L 169.0 78.0 Z" fill="none" stroke="#d6d6d6" stroke-width="0.75" />
<path d="M 153.0 86.0 L 169.0 86.0 Z" fill="none" stroke="#d6d6d6" stroke-width="0.75" />
<path d="M 153.0 94.0 L 169.0 94.0 Z" fill="none" stroke="#d6d6d6" stroke-width="0.75" />
<path d="M 156.52 95.232 C 156.52 96.456 157.71521 97.68 158.89601 97.68 C 162.496 97.68 166.09601 95.232 166.09601 92.856 C 166.09601 91.6752 164.87201 90.48 163.72 90.48 C 160.12001 90.48 156.52 92.856 156.52 95.232 Z" fill="#404040" stroke="none" stroke-width="1.0" />
<path d="M 155.0 164.25 L 163.0 164.25 L 163.0 171.75 L 155.0 171.75 L 155.0 164.25 Z" fill="#ffffff" stroke="none" stroke-width="1.0" />
<text x='155.0' y='171.75' font-family="Default" font-size="10.0" fill="#404040" >0</text>
<path d="M 165.18 93.04 L 166.18 93.04 L 166.18 62.0 L 165.18 62.0 M 165.18 93.04 Z" fill="#404040" stroke="none" stroke-width="0.75" />
<path d="M 170.32999 77.95 C 170.45499 78.0 170.73 77.95 170.82999 77.9 C 170.98 77.8 171.03 77.75 171.18 77.475 C 171.70499 76.5 172.12999 75.3 172.305 74.3 C 172.655 72.325 172.405 70.875 171.405 69.225 C 170.95499 68.45 170.405 67.75 169.18 66.375 C 167.905 64.9 167.50499 64.375 167.00499 63.675 C 166.50499 62.9 166.155 62.175 165.93 61.45 C 165.805 61.0 165.70499 60.325 165.70499 59.95 L 165.70499 59.825 L 165.45499 59.825 L 165.18 59.825 L 165.18 62.95 L 165.18 66.075 L 165.45499 66.075 L 165.73 66.075 L 166.37999 66.525 C 168.23 67.75 169.355 68.75 170.155 69.825 C 171.12999 71.15 171.405 72.25 171.12999 73.9 C 170.95499 74.95 170.53 76.025 169.98 76.975 C 169.855 77.15 169.82999 77.225 169.82999 77.3 C 169.82999 77.6 170.03 77.85 170.32999 77.95 Z" fill="#404040" stroke="none" stroke-width="0.75" />
<path d="M 173.0 70.0 L 189.0 70.0 Z" fill="none" stroke="#d6d6d6" stroke-width="0.75" />
<path d="M 173.0 78.0 L 189.0 78.0 Z" fill="none" stroke="#d6d6d6" stroke-width="0.75" />
<path d="M 173.0 70.0 L 189.0 70.0 Z" fill="none" stroke="#d6d6d6" stroke-width="0.75" />
<path d="M 173.0 78.0 L 189.0 78.0 Z" fill="none" stroke="#d6d6d6" stroke-width="0.75" />
<path d="M 176.52 83.232 C 176.52 84.456 177.71521 85.68 178.89601 85.68 C 182.496 85.68 186.09601 83.232 186.09601 80.856 C 186.09601 79.6752 184.87201 78.48 183.72 78.48 C 180.12001 78.48 176.52 80.856 176.52 83.232 Z" fill="#404040" stroke="none" stroke-width="1.0" />
<path d="M 175.0 164.25 L 183.0 164.25 L 183.0 171.75 L 175.0 171.75 L 175.0 164.25 Z" fill="#ffffff" stroke="none" stroke-width="1.0" />
<text x='175.0' y='171.75' font-family="Default" font-size="10.0" fill="#404040" >5</text>
<path d="M 185.18 81.04 L 186.18 81.04 L 186.18 50.0 L 185.18 50.0 M 185.18 81.04 Z" fill="#404040" stroke="none" stroke-width="0.75" />
<path d="M 190.32999 65.95 C 190.45499 66.0 190.73 65.95 190.82999 65.9 C 190.98 65.8 191.03 65.75 191.18 65.475 C 191.70499 64.5 192.12999 63.3 192.305 62.3 C 192.655 60.325 192.405 58.875 191.405 57.225 C 190.95499 56.45 190.405 55.75 189.18 54.375 C 187.905 52.9 187.50499 52.375 187.00499 51.675 C 186.50499 50.9 186.155 50.175 185.93 49.45 C 185.805 49.0 185.70499 48.325 185.70499 47.95 L 185.70499 47.825 L 185.45499 47.825 L 185.18 47.825 L 185.18 50.95 L 185.18 54.075 L 185.45499 54.075 L 185.73 54.075 L 186.37999 54.525 C 188.23 55.75 189.355 56.75 190.155 57.825 C 191.12999 59.15 191.405 60.25 191.12999 61.9 C 190.95499 62.95 190.53 64.025 189.98 64.975 C 189.855 65.15 189.82999 65.225 189.82999 65.3 C 189.82999 65.6 190.03 65.85 190.32999 65.95 Z" fill="#404040" stroke="none" stroke-width="0.75" />
<path d="M 198.49155 40.729687 C 198.95372 40.666664 199.35287 40.79271 199.66798 41.08682 C 199.85706 41.296898 199.94109 41.46496 200.06714 41.969147 C 200.13016 42.200233 200.19319 42.43132 200.21419 42.473335 C 200.29822 42.662403 200.44528 42.788452 200.63435 42.80946 C 200.71838 42.80946 200.76039 42.80946 200.86543 42.746437 C 201.13853 42.620388 201.78978 41.8431 202.04187 41.35992 C 202.10489 41.212868 202.20993 41.149845 202.31497 41.149845 C 202.399 41.149845 202.50404 41.212868 202.54605 41.27589 C 202.56706 41.317905 202.357 42.05318 201.24358 45.77156 C 200.52931 48.20846 199.92009 50.246212 199.89908 50.267227 C 199.89908 50.288246 199.81505 50.35125 199.73102 50.372265 C 199.60497 50.43529 199.58395 50.43529 199.4159 50.43529 C 199.24783 50.43529 199.20583 50.43529 199.07977 50.39328 C 199.01675 50.35125 198.93272 50.30924 198.93272 50.288246 C 198.8907 50.267227 199.03775 49.889088 200.10916 46.842957 C 200.7814 44.973263 201.3276 43.418686 201.3066 43.418686 L 200.94946 43.523724 C 200.19319 43.775818 199.73102 43.859848 199.1638 43.859848 C 198.70163 43.859848 198.57558 43.83884 198.23946 43.67078 C 197.31512 43.229614 197.0 42.15822 197.52519 41.35992 C 197.75629 41.044804 198.11342 40.79271 198.49155 40.729687 Z" fill="#404040" stroke="none" stroke-width="0.75" />
<path d="M 213.0 70.0 L 229.0 70.0 Z" fill="none" stroke="#d6d6d6" stroke-width="0.75" />
<path d="M 213.0 78.0 L 229.0 78.0 Z" fill="none" stroke="#d6d6d6" stroke-width="0.75" />
<path d="M 213.0 86.0 L 229.0 86.0 Z" fill="none" stroke="#d6d6d6" stroke-width="0.75" />
<path d="M 213.0 94.0 L 229.0 94.0 Z" fill="none" stroke="#d6d6d6" stroke-width="0.75" />
<path d="M 213.0 70.0 L 229.0 70.0 Z" fill="none" stroke="#d6d6d6" stroke-width="0.75" />
<path d="M 213.0 78.0 L 229.0 78.0 Z" fill="none" stroke="#d6d6d6" stroke-width="0.75" />
<path d="M 213.0 86.0 L 229.0 86.0 Z" fill="none" stroke="#d6d6d6" stroke-width="0.75" />
<path d="M 213.0 94.0 L 229.0 94.0 Z" fill="none" stroke="#d6d6d6" stroke-width="0.75" />
<path d="M 216.52 95.232 C 216.52 96.456 217.71521 97.68 218.89601 97.68 C 222.496 97.68 226.09601 95.232 226.09601 92.856 C 226.09601 91.6752 224.87201 90.48 223.72 90.48 C 220.12001 90.48 216.52 92.856 216.52 95.232 Z" fill="#404040" stroke="none" stroke-width="1.0" />
<path d="M 215.0 164.25 L 223.0 164.25 L 223.0 171.75 L 215.0 171.75 L 215.0 164.25 Z" fill="#ffffff" stroke="none" stroke-width="1.0" />
<text x='215.0' y='171.75' font-family="Default" font-size="10.0" fill="#404040" >0</text>
<path d="M 225.18 93.04 L 226.18 93.04 L 226.18 62.0 L 225.18 62.0 M 225.18 93.04 Z" fill="#404040" stroke="none" stroke-width="0.75" />
<path d="M 230.32999 77.95 C 230.45499 78.0 230.73 77.95 230.82999 77.9 C 230.98 77.8 231.03 77.75 231.18 77.475 C 231.70499 76.5 232.12999 75.3 232.305 74.3 C 232.655 72.325 232.405 70.875 231.405 69.225 C 230.95499 68.45 230.405 67.75 229.18 66.375 C 227.905 64.9 227.50499 64.375 227.00499 63.675 C 226.50499 62.9 226.155 62.175 225.93 61.45 C 225.805 61.0 225.70499 60.325 225.70499 59.95 L 225.70499 59.825 L 225.45499 59.825 L 225.18 59.825 L 225.18 62.95 L 225.18 66.075 L 225.45499 66.075 L 225.73 66.075 L 226.37999 66.525 C 228.23 67.75 229.355 68.75 230.155 69.825 C 231.12999 71.15 231.405 72.25 231.12999 73.9 C 230.95499 74.95 230.53 76.025 229.98 76.975 C 229.855 77.15 229.82999 77.225 229.82999 77.3 C 229.82999 77.6 230.03 77.85 230.32999 77.95 Z" fill="#404040" stroke="none" stroke-width="0.75" />
<path d="M 233.0 70.0 L 249.0 70.0 Z" fill="none" stroke="#d6d6d6" stroke-width="0.75" />
<path d="M 233.0 78.0 L 249.0 78.0 Z" fill="none" stroke="#d6d6d6" stroke-width="0.75" />
<path d="M 233.0 86.0 L 249.0 86.0 Z" fill="none" stroke="#d6d6d6" stroke-width="0.75" />
<path d="M 233.0 70.0 L 249.0 70.0 Z" fill="none" stroke="#d6d6d6" stroke-width="0.75" />
<path d="M 233.0 78.0 L 249.0 78.0 Z" fill="none" stroke="#d6d6d6" stroke-width="0.75" />
<path d="M 233.0 86.0 L 249.0 86.0 Z" fill="none" stroke="#d6d6d6" stroke-width="0.75" />
<path d="M 236.52 87.232 C 236.52 88.456 237.71521 89.68 238.89601 89.68 C 242.496 89.68 246.09601 87.232 246.09601 84.856 C 246.09601 83.6752 244.87201 82.48 243.72 82.48 C 240.12001 82.48 236.52 84.856 236.52 87.232 Z" fill="#404040" stroke="none" stroke-width="1.0" />
<path d="M 235.0 164.25 L 243.0 164.25 L 243.0 171.75 L 235.0 171.75 L 235.0 164.25 Z" fill="#ffffff" stroke="none" stroke-width="1.0" />
<text x='235.0' y='171.75' font-family="Default" font-size="10.0" fill="#404040" >3</text>
<path d="M 245.18 85.04 L 246.18 85.04 L 246.18 54.0 L 245.18 54.0 M 245.18 85.04 Z" fill="#404040" stroke="none" stroke-width="0.75" />
<path d="M 250.32999 69.95 C 250.45499 70.0 250.73 69.95 250.82999 69.9 C 250.98 69.8 251.03 69.75 251.18 69.475 C 251.70499 68.5 252.12999 67.3 252.305 66.3 C 252.655 64.325 252.405 62.875 251.405 61.225 C 250.95499 60.45 250.405 59.75 249.18 58.375 C 247.905 56.9 247.50499 56.375 247.00499 55.675 C 246.50499 54.9 246.155 54.175 245.93 53.45 C 245.805 53.0 245.70499 52.325 245.70499 51.95 L 245.70499 51.825 L 245.45499 51.825 L 245.18 51.825 L 245.18 54.95 L 245.18 58.075 L 245.45499 58.075 L 245.73 58.075 L 246.37999 58.525 C 248.23 59.75 249.355 60.75 250.155 61.825 C 251.12999 63.15 251.405 64.25 251.12999 65.9 C 250.95499 66.95 250.53 68.025 249.98 68.975 C 249.855 69.15 249.82999 69.225 249.82999 69.3 C 249.82999 69.6 250.03 69.85 250.32999 69.95 Z" fill="#404040" stroke="none" stroke-width="0.75" />
<path d="M 258.49155 40.729687 C 258.95374 40.666664 259.35287 40.79271 259.668 41.08682 C 259.85706 41.296898 259.9411 41.46496 260.06714 41.969147 C 260.13016 42.200233 260.19318 42.43132 260.2142 42.473335 C 260.29822 42.662403 260.44528 42.788452 260.63434 42.80946 C 260.71838 42.80946 260.7604 42.80946 260.86545 42.746437 C 261.13855 42.620388 261.78976 41.8431 262.04187 41.35992 C 262.1049 41.212868 262.20993 41.149845 262.31497 41.149845 C 262.39902 41.149845 262.50403 41.212868 262.54605 41.27589 C 262.56708 41.317905 262.357 42.05318 261.24356 45.77156 C 260.5293 48.20846 259.92007 50.246212 259.89908 50.267227 C 259.89908 50.288246 259.81503 50.35125 259.73102 50.372265 C 259.60498 50.43529 259.58395 50.43529 259.4159 50.43529 C 259.24783 50.43529 259.2058 50.43529 259.07977 50.39328 C 259.01675 50.35125 258.9327 50.30924 258.9327 50.288246 C 258.89072 50.267227 259.03775 49.889088 260.10916 46.842957 C 260.7814 44.973263 261.3276 43.418686 261.3066 43.418686 L 260.94946 43.523724 C 260.19318 43.775818 259.73102 43.859848 259.16382 43.859848 C 258.70163 43.859848 258.5756 43.83884 258.23947 43.67078 C 257.31512 43.229614 257.0 42.15822 257.5252 41.35992 C 257.7563 41.044804 258.1134 40.79271 258.49155 40.729687 Z" fill="#404040" stroke="none" stroke-width="0.75" />
<path d="M 273.0 70.0 L 289.0 70.0 Z" fill="none" stroke="#d6d6d6" stroke-width="0.75" />
<path d="M 273.0 78.0 L 289.0 78.0 Z" fill="none" stroke="#d6d6d6" stroke-width="0.75" />
<path d="M 273.0 86.0 L 289.0 86.0 Z" fill="none" stroke="#d6d6d6" stroke-width="0.75" />
<path d="M 273.0 94.0 L 289.0 94.0 Z" fill="none" stroke="#d6d6d6" stroke-width="0.75" />
<path d="M 273.0 70.0 L 289.0 70.0 Z" fill="none" stroke="#d6d6d6" stroke-width="0.75" />
<path d="M 273.0 78.0 L 289.0 78.0 Z" fill="none" stroke="#d6d6d6" stroke-width="0.75" />
<path d="M 273.0 86.0 L 289.0 86.0 Z" fill="none" stroke="#d6d6d6" stroke-width="0.75" />
<path d="M 273.0 94.0 L 289.0 94.0 Z" fill="none" stroke="#d6d6d6" stroke-width="0.75" />
<path d="M 276.52 95.232 C 276.52 96.456 277.71518 97.68 278.896 97.68 C 282.496 97.68 286.09598 95.232 286.09598 92.856 C 286.09598 91.6752 284.87198 90.48 283.72 90.48 C 280.12 90.48 276.52 92.856 276.52 95.232 Z" fill="#404040" stroke="none" stroke-width="1.0" />
<path d="M 275.0 164.25 L 283.0 164.25 L 283.0 171.75 L 275.0 171.75 L 275.0 164.25 Z" fill="#ffffff" stroke="none" stroke-width="1.0" />
<text x='275.0' y='171.75' font-family="Default" font-size="10.0" fill="#404040" >0</text>
<path d="M 285.18 93.04 L 286.18 93.04 L 286.18 62.0 L 285.18 62.0 M 285.18 93.04 Z" fill="#404040" stroke="none" stroke-width="0.75" />
<path d="M 290.33 77.95 C 290.455 78.0 290.72998 77.95 290.83 77.9 C 290.97998 77.8 291.03 77.75 291.18 77.475 C 291.705 76.5 292.13 75.3 292.305 74.3 C 292.655 72.325 292.405 70.875 291.405 69.225 C 290.955 68.45 290.405 67.75 289.18 66.375 C 287.905 64.9 287.505 64.375 287.005 63.675 C 286.505 62.9 286.155 62.175 285.93 61.45 C 285.805 61.0 285.705 60.325 285.705 59.95 L 285.705 59.825 L 285.455 59.825 L 285.18 59.825 L 285.18 62.95 L 285.18 66.075 L 285.455 66.075 L 285.72998 66.075 L 286.38 66.525 C 288.22998 67.75 289.35498 68.75 290.155 69.825 C 291.13 71.15 291.405 72.25 291.13 73.9 C 290.955 74.95 290.53 76.025 289.97998 76.975 C 289.85498 77.15 289.83 77.225 289.83 77.3 C 289.83 77.6 290.03 77.85 290.33 77.95 Z" fill="#404040" stroke="none" stroke-width="0.75" />
<path d="M 111.66 28.0 L 111.66 24.0 L 134.67 24.0 M 167.68 28.0 L 167.68 24.0 L 144.67 24.0 Z" fill="none" stroke="#404040" stroke-width="1.0" />
<text x='135.67' y='27.75' font-family="Default" font-size="10.0" fill="#404040" >3</text>
<path d="M 171.66 28.0 L 171.66 24.0 L 194.67 24.0 M 227.68 28.0 L 227.68 24.0 L 204.67 24.0 Z" fill="none" stroke="#404040" stroke-width="1.0" />
<text x='195.67' y='27.75' font-family="Default" font-size="10.0" fill="#404040" >3</text>
<path d="M 231.66 28.0 L 231.66 24.0 L 254.66998 24.0 M 287.68 28.0 L 287.68 24.0 L 264.66998 24.0 Z" fill="none" stroke="#404040" stroke-width="1.0" />
<text x='255.66998' y='27.75' font-family="Default" font-size="10.0" fill="#404040" >3</text></g>
<path d="M 35.35 36.3 C 35.35 37.15 36.18 38.0 37.0 38.0 C 39.5 38.0 42.0 36.3 42.0 34.65 C 42.0 33.83 41.149998 33.0 40.35 33.0 C 37.85 33.0 35.35 34.65 35.35 36.3 Z" fill="#000000" stroke="none" stroke-width="1.0" />
<path d="M 42.0 20.0 L 42.0 34.7 Z" fill="none" stroke="#000000" stroke-width="1.0" />
<text x='43.0' y='36.25' font-family="Default" font-size="10.0" fill="#000000" > = 120</text>
<text x='21.0' y='48.0' font-family="Default" font-size="10.0" fill="#ff0000" >1</text>
<path d="M 20.0 50.0 L 23.0 50.0 L 23.0 138.0 L 20.0 138.0 L 20.0 50.0 Z" fill="#000000" stroke="#000000" stroke-width="0.75" />
<path d="M 25.0 50.0 L 26.0 50.0 L 26.0 138.0 L 25.0 138.0 L 25.0 50.0 Z" fill="#000000" stroke="#000000" stroke-width="0.75" />
<path d="M 332.0 50.0 L 332.0 82.0 Z" fill="#000000" stroke="#000000" stroke-width="0.75" />
<path d="M 20.0 138.0 L 23.0 138.0 L 23.0 188.0 L 20.0 188.0 L 20.0 138.0 Z" fill="#000000" stroke="#000000" stroke-width="0.75" />
<path d="M 25.0 138.0 L 26.0 138.0 L 26.0 188.0 L 25.0 188.0 L 25.0 138.0 Z" fill="#000000" stroke="#000000" stroke-width="0.75" />
<path d="M 332.0 138.0 L 332.0 188.0 Z" fill="#000000" stroke="#000000" stroke-width="0.75" /><g transform="translate(332.0,20.0)">
<path d="M 0.0 0.0 L 184.0 0.0 L 184.0 189.0 L 0.0 189.0 L 0.0 0.0 Z" fill="#ffffff" stroke="none" stroke-width="1.0" />
<path d="M 0.0 30.0 L 184.0 30.0 M 0.0 38.0 L 184.0 38.0 M 0.0 46.0 L 184.0 46.0 M 0.0 54.0 L 184.0 54.0 M 0.0 62.0 L 184.0 62.0 Z" fill="none" stroke="#d6d6d6" stroke-width="0.75" />
<path d="M 0.0 118.0 L 184.0 118.0 M 0.0 128.0 L 184.0 128.0 M 0.0 138.0 L 184.0 138.0 M 0.0 148.0 L 184.0 148.0 M 0.0 158.0 L 184.0 158.0 M 0.0 168.0 L 184.0 168.0 Z" fill="none" stroke="#d6d6d6" stroke-width="0.75" />
<path d="M 21.0 70.0 L 37.0 70.0 Z" fill="none" stroke="#d6d6d6" stroke-width="0.75" />
<path d="M 21.0 78.0 L 37.0 78.0 Z" fill="none" stroke="#d6d6d6" stroke-width="0.75" />
<path d="M 21.0 70.0 L 37.0 70.0 Z" fill="none" stroke="#d6d6d6" stroke-width="0.75" />
<path d="M 21.0 78.0 L 37.0 78.0 Z" fill="none" stroke="#d6d6d6" stroke-width="0.75" />
<path d="M 21.0 86.0 L 37.0 86.0 Z" fill="none" stroke="#d6d6d6" stroke-width="0.75" />
<path d="M 21.0 94.0 L 37.0 94.0 Z" fill="none" stroke="#d6d6d6" stroke-width="0.75" />
<path d="M 24.52 95.232 C 24.52 96.456 25.7152 97.68 26.896 97.68 C 30.496 97.68 34.096 95.232 34.096 92.856 C 34.096 91.6752 32.872 90.48 31.720001 90.48 C 28.12 90.48 24.52 92.856 24.52 95.232 Z" fill="#404040" stroke="none" stroke-width="1.0" />
<path d="M 23.0 164.25 L 31.0 164.25 L 31.0 171.75 L 23.0 171.75 L 23.0 164.25 Z" fill="#ffffff" stroke="none" stroke-width="1.0" />
<text x='23.0' y='171.75' font-family="Default" font-size="10.0" fill="#404040" >0</text>
<path d="M 24.52 83.232 C 24.52 84.456 25.7152 85.68 26.896 85.68 C 30.496 85.68 34.096 83.232 34.096 80.856 C 34.096 79.6752 32.872 78.48 31.720001 78.48 C 28.12 78.48 24.52 80.856 24.52 83.232 Z" fill="#404040" stroke="none" stroke-width="1.0" />
<path d="M 23.0 154.25 L 31.0 154.25 L 31.0 161.75 L 23.0 161.75 L 23.0 154.25 Z" fill="#ffffff" stroke="none" stroke-width="1.0" />
<text x='23.0' y='161.75' font-family="Default" font-size="10.0" fill="#404040" >0</text>
<path d="M 33.18 93.04 L 34.18 93.04 L 34.18 50.0 L 33.18 50.0 M 33.18 93.04 Z" fill="#404040" stroke="none" stroke-width="0.75" />
<path d="M 42.0 70.0 L 58.0 70.0 Z" fill="none" stroke="#d6d6d6" stroke-width="0.75" />
<path d="M 42.0 78.0 L 58.0 78.0 Z" fill="none" stroke="#d6d6d6" stroke-width="0.75" />
<path d="M 42.0 70.0 L 58.0 70.0 Z" fill="none" stroke="#d6d6d6" stroke-width="0.75" />
<path d="M 42.0 78.0 L 58.0 78.0 Z" fill="none" stroke="#d6d6d6" stroke-width="0.75" />
<path d="M 42.0 86.0 L 58.0 86.0 Z" fill="none" stroke="#d6d6d6" stroke-width="0.75" />
<path d="M 45.52 87.232 C 45.52 88.456 46.715202 89.68 47.896 89.68 C 51.496002 89.68 55.096 87.232 55.096 84.856 C 55.096 83.6752 53.872 82.48 52.72 82.48 C 49.12 82.48 45.52 84.856 45.52 87.232 Z" fill="#404040" stroke="none" stroke-width="1.0" />
<path d="M 44.0 164.25 L 52.0 164.25 L 52.0 171.75 L 44.0 171.75 L 44.0 164.25 Z" fill="#ffffff" stroke="none" stroke-width="1.0" />
<text x='44.0' y='171.75' font-family="Default" font-size="10.0" fill="#404040" >3</text>
<path d="M 43.464394 71.63119 C 43.591362 71.55864 43.790882 71.61305 43.863434 71.7763 C 43.899708 71.84885 43.899708 71.90327 43.899708 73.172935 C 43.899708 73.9166 43.899708 74.51516 43.917847 74.51516 C 43.917847 74.51516 44.081093 74.44261 44.28061 74.370056 C 44.69779 74.20681 44.752205 74.188675 44.861034 74.279366 C 44.988 74.370056 44.988 74.38819 44.988 75.11372 C 44.988 75.73042 44.988 75.784836 44.951725 75.83925 C 44.933586 75.87553 44.89731 75.911804 44.879173 75.92994 C 44.842896 75.94808 44.625237 76.05691 44.371304 76.1476 L 43.917847 76.34712 L 43.899708 77.816315 C 43.899708 78.614395 43.899708 79.28551 43.917847 79.28551 C 43.917847 79.28551 44.081093 79.21295 44.28061 79.140396 C 44.69779 78.97716 44.752205 78.959015 44.861034 79.049706 C 44.988 79.140396 44.988 79.15854 44.988 79.88406 C 44.988 80.50076 44.988 80.555176 44.951725 80.60959 C 44.933586 80.64587 44.89731 80.682144 44.879173 80.70028 C 44.842896 80.71842 44.625237 80.82725 44.371304 80.91794 L 43.917847 81.11746 L 43.899708 82.64107 C 43.899708 84.01957 43.881573 84.182816 43.863434 84.23723 C 43.736465 84.45489 43.428116 84.45489 43.30115 84.23723 C 43.283012 84.182816 43.264874 84.037704 43.264874 82.768036 L 43.264874 81.3714 L 42.484932 81.67974 L 41.72313 81.98809 L 41.72313 83.45728 C 41.72313 85.01717 41.72313 84.980896 41.632435 85.07159 C 41.59616 85.126 41.469193 85.18041 41.41478 85.18041 C 41.342224 85.18041 41.21526 85.126 41.17898 85.07159 C 41.08829 84.980896 41.08829 85.01717 41.08829 83.602394 C 41.08829 82.85873 41.08829 82.26017 41.070152 82.26017 C 41.070152 82.26017 40.90691 82.33272 40.70739 82.40527 C 40.29021 82.56851 40.235798 82.586655 40.12697 82.495964 C 40.0 82.40527 40.0 82.38713 40.0 81.661606 C 40.0 81.04491 40.0 80.99049 40.036278 80.93608 C 40.054413 80.8998 40.09069 80.863525 40.10883 80.84539 C 40.145107 80.82725 40.362762 80.71842 40.6167 80.62773 L 41.08829 80.42821 L 41.08829 78.959015 C 41.08829 78.160934 41.08829 77.48982 41.070152 77.48982 C 41.070152 77.48982 40.90691 77.56238 40.70739 77.63493 C 40.29021 77.79817 40.235798 77.816315 40.12697 77.725624 C 40.0 77.63493 40.0 77.61679 40.0 76.891266 C 40.0 76.27457 40.0 76.22015 40.036278 76.16573 C 40.054413 76.12946 40.09069 76.093185 40.10883 76.07504 C 40.145107 76.05691 40.362762 75.94808 40.6167 75.85739 L 41.08829 75.65787 L 41.08829 74.13426 C 41.08829 72.75576 41.10643 72.592514 41.12457 72.5381 C 41.251534 72.32044 41.559883 72.32044 41.68685 72.5381 C 41.70499 72.592514 41.72313 72.73762 41.72313 74.00729 L 41.741264 75.40393 L 42.50307 75.09558 L 43.264874 74.78723 L 43.264874 73.31804 C 43.264874 71.93954 43.264874 71.84885 43.30115 71.7763 C 43.337425 71.70374 43.373703 71.667465 43.464394 71.63119 M 43.264874 78.070244 L 43.264874 76.60105 L 42.484932 76.9094 L 41.72313 77.21775 L 41.72313 78.705086 L 41.72313 80.17428 L 41.777542 80.156136 C 41.81382 80.138 42.158443 79.9929 42.557484 79.847786 L 43.264874 79.55758 L 43.264874 78.070244 Z" fill="#404040" stroke="none" stroke-width="0.75" />
<path d="M 45.52 79.232 C 45.52 80.456 46.715202 81.68 47.896 81.68 C 51.496002 81.68 55.096 79.232 55.096 76.856 C 55.096 75.6752 53.872 74.48 52.72 74.48 C 49.12 74.48 45.52 76.856 45.52 79.232 Z" fill="#404040" stroke="none" stroke-width="1.0" />
<path d="M 44.0 154.25 L 52.0 154.25 L 52.0 161.75 L 44.0 161.75 L 44.0 154.25 Z" fill="#ffffff" stroke="none" stroke-width="1.0" />
<text x='44.0' y='161.75' font-family="Default" font-size="10.0" fill="#404040" >3</text>
<path d="M 54.18 85.04 L 55.18 85.04 L 55.18 46.0 L 54.18 46.0 M 54.18 85.04 Z" fill="#404040" stroke="none" stroke-width="0.75" />
<path d="M 59.33 61.95 C 59.455 62.0 59.73 61.95 59.83 61.9 C 59.98 61.8 60.03 61.75 60.18 61.475 C 60.705 60.5 61.13 59.3 61.305 58.3 C 61.655 56.325 61.405 54.875 60.405 53.225 C 59.955 52.45 59.405 51.75 58.18 50.375 C 56.905 48.9 56.505 48.375 56.005 47.675 C 55.505 46.9 55.155 46.175 54.93 45.45 C 54.805 45.0 54.705 44.325 54.705 43.95 L 54.705 43.825 L 54.455 43.825 L 54.18 43.825 L 54.18 46.95 L 54.18 50.075 L 54.455 50.075 L 54.73 50.075 L 55.38 50.525 C 57.23 51.75 58.355 52.75 59.155 53.825 C 60.13 55.15 60.405 56.25 60.13 57.9 C 59.955 58.95 59.53 60.025 58.98 60.975 C 58.855 61.15 58.83 61.225 58.83 61.3 C 58.83 61.6 59.03 61.85 59.33 61.95 Z" fill="#404040" stroke="none" stroke-width="0.75" />
<path d="M 67.491554 40.729687 C 67.95373 40.666664 68.352875 40.79271 68.66799 41.08682 C 68.85706 41.296898 68.94109 41.46496 69.06714 41.969147 C 69.130165 42.200233 69.193184 42.43132 69.214195 42.473335 C 69.298225 42.662403 69.44528 42.788452 69.634346 42.80946 C 69.71838 42.80946 69.7604 42.80946 69.86543 42.746437 C 70.138535 42.620388 70.78978 41.8431 71.04187 41.35992 C 71.1049 41.212868 71.20993 41.149845 71.31497 41.149845 C 71.399 41.149845 71.50404 41.212868 71.54606 41.27589 C 71.56707 41.317905 71.35699 42.05318 70.243576 45.77156 C 69.52931 48.20846 68.92008 50.246212 68.89908 50.267227 C 68.89908 50.288246 68.81505 50.35125 68.73101 50.372265 C 68.604965 50.43529 68.58396 50.43529 68.41589 50.43529 C 68.24783 50.43529 68.20582 50.43529 68.07977 50.39328 C 68.01675 50.35125 67.93272 50.30924 67.93272 50.288246 C 67.8907 50.267227 68.03776 49.889088 69.10915 46.842957 C 69.7814 44.973263 70.32761 43.418686 70.306595 43.418686 L 69.94946 43.523724 C 69.193184 43.775818 68.73101 43.859848 68.1638 43.859848 C 67.70163 43.859848 67.575584 43.83884 67.23946 43.67078 C 66.31512 43.229614 66.0 42.15822 66.52519 41.35992 C 66.75628 41.044804 67.11341 40.79271 67.491554 40.729687 Z" fill="#404040" stroke="none" stroke-width="0.75" />
<path d="M 82.0 70.0 L 98.0 70.0 Z" fill="none" stroke="#d6d6d6" stroke-width="0.75" />
<path d="M 82.0 78.0 L 98.0 78.0 Z" fill="none" stroke="#d6d6d6" stroke-width="0.75" />
<path d="M 82.0 70.0 L 98.0 70.0 Z" fill="none" stroke="#d6d6d6" stroke-width="0.75" />
<path d="M 82.0 78.0 L 98.0 78.0 Z" fill="none" stroke="#d6d6d6" stroke-width="0.75" />
<path d="M 82.0 86.0 L 98.0 86.0 Z" fill="none" stroke="#d6d6d6" stroke-width="0.75" />
<path d="M 82.0 94.0 L 98.0 94.0 Z" fill="none" stroke="#d6d6d6" stroke-width="0.75" />
<path d="M 85.52 95.232 C 85.52 96.456 86.715195 97.68 87.895996 97.68 C 91.495995 97.68 95.09599 95.232 95.09599 92.856 C 95.09599 91.6752 93.871994 90.48 92.71999 90.48 C 89.119995 90.48 85.52 92.856 85.52 95.232 Z" fill="#404040" stroke="none" stroke-width="1.0" />
<path d="M 84.0 164.25 L 92.0 164.25 L 92.0 171.75 L 84.0 171.75 L 84.0 164.25 Z" fill="#ffffff" stroke="none" stroke-width="1.0" />
<text x='84.0' y='171.75' font-family="Default" font-size="10.0" fill="#404040" >0</text>
<path d="M 85.52 83.232 C 85.52 84.456 86.715195 85.68 87.895996 85.68 C 91.495995 85.68 95.09599 83.232 95.09599 80.856 C 95.09599 79.6752 93.871994 78.48 92.71999 78.48 C 89.119995 78.48 85.52 80.856 85.52 83.232 Z" fill="#404040" stroke="none" stroke-width="1.0" />
<path d="M 84.0 154.25 L 92.0 154.25 L 92.0 161.75 L 84.0 161.75 L 84.0 154.25 Z" fill="#ffffff" stroke="none" stroke-width="1.0" />
<text x='84.0' y='161.75' font-family="Default" font-size="10.0" fill="#404040" >0</text>
<path d="M 94.18 93.04 L 95.18 93.04 L 95.18 50.0 L 94.18 50.0 M 94.18 93.04 Z" fill="#404040" stroke="none" stroke-width="0.75" />
<path d="M 99.33 65.95 C 99.455 66.0 99.73 65.95 99.83 65.9 C 99.98 65.8 100.03 65.75 100.18 65.475 C 100.705 64.5 101.13 63.3 101.305 62.3 C 101.655 60.325 101.405 58.875 100.405 57.225 C 99.955 56.45 99.405 55.75 98.18 54.375 C 96.905 52.9 96.505 52.375 96.005 51.675 C 95.505 50.9 95.155 50.175 94.93 49.45 C 94.805 49.0 94.705 48.325 94.705 47.95 L 94.705 47.825 L 94.455 47.825 L 94.18 47.825 L 94.18 50.95 L 94.18 54.075 L 94.455 54.075 L 94.73 54.075 L 95.38 54.525 C 97.23 55.75 98.355 56.75 99.155 57.825 C 100.13 59.15 100.405 60.25 100.13 61.9 C 99.955 62.95 99.53 64.025 98.98 64.975 C 98.855 65.15 98.83 65.225 98.83 65.3 C 98.83 65.6 99.03 65.85 99.33 65.95 Z" fill="#404040" stroke="none" stroke-width="0.75" />
<path d="M 102.0 70.0 L 118.0 70.0 Z" fill="none" stroke="#d6d6d6" stroke-width="0.75" />
<path d="M 102.0 70.0 L 118.0 70.0 Z" fill="none" stroke="#d6d6d6" stroke-width="0.75" />
<path d="M 102.0 78.0 L 118.0 78.0 Z" fill="none" stroke="#d6d6d6" stroke-width="0.75" />
<path d="M 102.0 86.0 L 118.0 86.0 Z" fill="none" stroke="#d6d6d6" stroke-width="0.75" />
<path d="M 105.52 75.232 C 105.52 76.456 106.715195 77.68 107.895996 77.68 C 111.495995 77.68 115.09599 75.232 115.09599 72.856 C 115.09599 71.6752 113.871994 70.48 112.71999 70.48 C 109.119995 70.48 105.52 72.856 105.52 75.232 Z" fill="#404040" stroke="none" stroke-width="1.0" />
<path d="M 104.0 154.25 L 112.0 154.25 L 112.0 161.75 L 104.0 161.75 L 104.0 154.25 Z" fill="#ffffff" stroke="none" stroke-width="1.0" />
<text x='104.0' y='161.75' font-family="Default" font-size="10.0" fill="#404040" >4</text>
<path d="M 103.46439 79.63119 C 103.59136 79.55864 103.79088 79.61305 103.863434 79.7763 C 103.89971 79.84885 103.89971 79.90327 103.89971 81.172935 C 103.89971 81.9166 103.89971 82.51516 103.91785 82.51516 C 103.91785 82.51516 104.08109 82.44261 104.28061 82.370056 C 104.69779 82.20681 104.752205 82.188675 104.86103 82.279366 C 104.988 82.370056 104.988 82.38819 104.988 83.11372 C 104.988 83.73042 104.988 83.784836 104.95172 83.83925 C 104.933586 83.87553 104.89731 83.911804 104.87917 83.92994 C 104.842896 83.94808 104.62524 84.05691 104.3713 84.1476 L 103.91785 84.34712 L 103.89971 85.816315 C 103.89971 86.614395 103.89971 87.28551 103.91785 87.28551 C 103.91785 87.28551 104.08109 87.21295 104.28061 87.140396 C 104.69779 86.97716 104.752205 86.959015 104.86103 87.049706 C 104.988 87.140396 104.988 87.15854 104.988 87.88406 C 104.988 88.50076 104.988 88.555176 104.95172 88.60959 C 104.933586 88.64587 104.89731 88.682144 104.87917 88.70028 C 104.842896 88.71842 104.62524 88.82725 104.3713 88.91794 L 103.91785 89.11746 L 103.89971 90.64107 C 103.89971 92.01957 103.88157 92.182816 103.863434 92.23723 C 103.736465 92.45489 103.428116 92.45489 103.30115 92.23723 C 103.28301 92.182816 103.26487 92.037704 103.26487 90.768036 L 103.26487 89.3714 L 102.48493 89.67974 L 101.72313 89.98809 L 101.72313 91.45728 C 101.72313 93.01717 101.72313 92.980896 101.63244 93.07159 C 101.59616 93.126 101.46919 93.18041 101.41478 93.18041 C 101.342224 93.18041 101.215256 93.126 101.178986 93.07159 C 101.08829 92.980896 101.08829 93.01717 101.08829 91.602394 C 101.08829 90.85873 101.08829 90.26017 101.07015 90.26017 C 101.07015 90.26017 100.906906 90.33272 100.70739 90.40527 C 100.290215 90.56851 100.235794 90.586655 100.12697 90.495964 C 100.0 90.40527 100.0 90.38713 100.0 89.661606 C 100.0 89.04491 100.0 88.99049 100.03628 88.93608 C 100.05441 88.8998 100.09069 88.863525 100.108826 88.84539 C 100.1451 88.82725 100.36276 88.71842 100.6167 88.62773 L 101.08829 88.42821 L 101.08829 86.959015 C 101.08829 86.160934 101.08829 85.48982 101.07015 85.48982 C 101.07015 85.48982 100.906906 85.56238 100.70739 85.63493 C 100.290215 85.79817 100.235794 85.816315 100.12697 85.725624 C 100.0 85.63493 100.0 85.61679 100.0 84.891266 C 100.0 84.27457 100.0 84.22015 100.03628 84.16573 C 100.05441 84.12946 100.09069 84.093185 100.108826 84.07504 C 100.1451 84.05691 100.36276 83.94808 100.6167 83.85739 L 101.08829 83.65787 L 101.08829 82.13426 C 101.08829 80.75576 101.10643 80.592514 101.124565 80.5381 C 101.25153 80.32044 101.55988 80.32044 101.68685 80.5381 C 101.70499 80.592514 101.72313 80.73762 101.72313 82.00729 L 101.741264 83.40393 L 102.50307 83.09558 L 103.26487 82.78723 L 103.26487 81.31804 C 103.26487 79.93954 103.26487 79.84885 103.30115 79.7763 C 103.337425 79.70374 103.3737 79.667465 103.46439 79.63119 M 103.26487 86.070244 L 103.26487 84.60105 L 102.48493 84.9094 L 101.72313 85.21775 L 101.72313 86.705086 L 101.72313 88.17428 L 101.77754 88.156136 C 101.81382 88.138 102.15845 87.9929 102.55749 87.847786 L 103.26487 87.55758 L 103.26487 86.070244 Z" fill="#404040" stroke="none" stroke-width="0.75" />
<path d="M 105.52 87.232 C 105.52 88.456 106.715195 89.68 107.895996 89.68 C 111.495995 89.68 115.09599 87.232 115.09599 84.856 C 115.09599 83.6752 113.871994 82.48 112.71999 82.48 C 109.119995 82.48 105.52 84.856 105.52 87.232 Z" fill="#404040" stroke="none" stroke-width="1.0" />
<path d="M 104.0 164.25 L 112.0 164.25 L 112.0 171.75 L 104.0 171.75 L 104.0 164.25 Z" fill="#ffffff" stroke="none" stroke-width="1.0" />
<text x='104.0' y='171.75' font-family="Default" font-size="10.0" fill="#404040" >4</text>
<path d="M 114.18 85.04 L 115.18 85.04 L 115.18 42.0 L 114.18 42.0 M 114.18 85.04 Z" fill="#404040" stroke="none" stroke-width="0.75" />
<path d="M 123.0 70.0 L 139.0 70.0 Z" fill="none" stroke="#d6d6d6" stroke-width="0.75" />
<path d="M 123.0 70.0 L 139.0 70.0 Z" fill="none" stroke="#d6d6d6" stroke-width="0.75" />
<path d="M 123.0 78.0 L 139.0 78.0 Z" fill="none" stroke="#d6d6d6" stroke-width="0.75" />
<path d="M 126.52 71.232 C 126.52 72.456 127.715195 73.68 128.896 73.68 C 132.496 73.68 136.096 71.232 136.096 68.856 C 136.096 67.6752 134.872 66.48 133.72 66.48 C 130.12 66.48 126.52 68.856 126.52 71.232 Z" fill="#404040" stroke="none" stroke-width="1.0" />
<path d="M 125.0 154.25 L 133.0 154.25 L 133.0 161.75 L 125.0 161.75 L 125.0 154.25 Z" fill="#ffffff" stroke="none" stroke-width="1.0" />
<text x='125.0' y='161.75' font-family="Default" font-size="10.0" fill="#404040" >5</text>
<path d="M 126.52 83.232 C 126.52 84.456 127.715195 85.68 128.896 85.68 C 132.496 85.68 136.096 83.232 136.096 80.856 C 136.096 79.6752 134.872 78.48 133.72 78.48 C 130.12 78.48 126.52 80.856 126.52 83.232 Z" fill="#404040" stroke="none" stroke-width="1.0" />
<path d="M 125.0 164.25 L 133.0 164.25 L 133.0 171.75 L 125.0 171.75 L 125.0 164.25 Z" fill="#ffffff" stroke="none" stroke-width="1.0" />
<text x='125.0' y='171.75' font-family="Default" font-size="10.0" fill="#404040" >5</text>
<path d="M 135.18 81.04 L 136.18 81.04 L 136.18 38.0 L 135.18 38.0 M 135.18 81.04 Z" fill="#404040" stroke="none" stroke-width="0.75" />
<path d="M 149.86969 38.930904 C 149.95374 38.88889 150.03775 38.88889 150.1218 38.909897 C 150.18483 38.951912 153.44102 42.81735 153.52505 42.985413 C 153.67212 43.25851 153.6301 43.531612 153.42001 43.867737 C 153.25197 44.098824 152.91583 44.434948 152.28561 44.960144 C 151.97047 45.21224 151.67638 45.48534 151.61334 45.548363 C 150.9621 46.241623 150.81505 47.292007 151.19319 48.0903 C 151.31924 48.363403 151.38225 48.426434 152.11754 49.266735 C 153.46204 50.842327 153.39902 50.7793 153.39902 50.905357 C 153.39902 51.031387 153.27296 51.15744 153.14693 51.17846 C 153.04187 51.17846 152.95784 51.136433 152.81079 50.98938 C 152.28561 50.464188 151.08815 50.086044 150.4369 50.233093 C 150.1218 50.29612 149.95374 50.422176 149.80669 50.716274 C 149.72264 50.92635 149.6596 51.17846 149.63861 51.514565 C 149.6176 51.976753 149.70164 52.45993 149.8487 52.922092 C 149.95374 53.21621 150.01675 53.384277 150.1638 53.594353 C 150.28986 53.762417 150.28986 53.82543 150.18483 53.88845 C 150.10078 53.930477 150.05878 53.90947 149.86969 53.678375 C 149.11343 52.712017 148.42015 51.32551 148.18909 50.29612 C 148.0 49.560856 148.08405 49.05666 148.37814 48.846584 C 148.52519 48.76256 148.67226 48.741547 148.98737 48.741547 C 149.5966 48.783558 150.45793 49.01465 151.29823 49.371773 L 151.57133 49.497826 L 150.4159 48.132313 C 148.65125 46.052547 148.58821 45.96852 148.52519 45.842472 C 148.46219 45.674408 148.44116 45.506348 148.5042 45.317276 C 148.60924 44.98115 148.90334 44.645027 149.78568 43.90975 C 150.10078 43.65766 150.37389 43.405567 150.4369 43.363552 C 150.92009 42.838356 151.15118 42.10308 151.06714 41.409824 C 151.02513 41.17874 150.92009 40.821606 150.79404 40.632538 C 150.73102 40.527496 150.47893 40.21238 150.22684 39.897263 C 149.97475 39.603153 149.74365 39.330055 149.72264 39.288036 C 149.6596 39.16199 149.72264 38.993927 149.86969 38.930904 Z" fill="#404040" stroke="none" stroke-width="0.75" />
<path d="M 40.66 28.0 L 40.66 24.0 L 63.67 24.0 M 96.68 28.0 L 96.68 24.0 L 73.67 24.0 Z" fill="none" stroke="#404040" stroke-width="1.0" />
<text x='64.67' y='27.75' font-family="Default" font-size="10.0" fill="#404040" >3</text>
<path d="M 100.66 28.0 L 100.66 24.0 L 124.67 24.0 M 158.68 28.0 L 158.68 24.0 L 134.67 24.0 Z" fill="none" stroke="#404040" stroke-width="1.0" />
<text x='125.67' y='27.75' font-family="Default" font-size="10.0" fill="#404040" >3</text></g>
<text x='333.0' y='48.0' font-family="Default" font-size="10.0" fill="#ff0000" >2</text>
<path d="M 332.0 50.0 L 332.0 82.0 Z" fill="#000000" stroke="#000000" stroke-width="0.75" />
<path d="M 510.0 50.0 L 511.0 50.0 L 511.0 82.0 L 510.0 82.0 L 510.0 50.0 Z" fill="#000000" stroke="#000000" stroke-width="0.75" />
<path d="M 513.0 50.0 L 516.0 50.0 L 516.0 82.0 L 513.0 82.0 L 513.0 50.0 Z" fill="#000000" stroke="#000000" stroke-width="0.75" />
<path d="M 332.0 138.0 L 332.0 188.0 Z" fill="#000000" stroke="#000000" stroke-width="0.75" />
<path d="M 510.0 138.0 L 511.0 138.0 L 511.0 188.0 L 510.0 188.0 L 510.0 138.0 Z" fill="#000000" stroke="#000000" stroke-width="0.75" />
<path d="M 513.0 138.0 L 516.0 138.0 L 516.0 188.0 L 513.0 188.0 L 513.0 138.0 Z" fill="#000000" stroke="#000000" stroke-width="0.75" />
<path d="M 518.0 50.0 L 930.0 50.0 M 518.0 58.0 L 930.0 58.0 M 518.0 66.0 L 930.0 66.0 M 518.0 74.0 L 930.0 74.0 M 518.0 82.0 L 930.0 82.0 Z" fill="none" stroke="#d6d6d6" stroke-width="0.75" />
<path d="M 518.0 138.0 L 930.0 138.0 M 518.0 148.0 L 930.0 148.0 M 518.0 158.0 L 930.0 158.0 M 518.0 168.0 L 930.0 168.0 M 518.0 178.0 L 930.0 178.0 M 518.0 188.0 L 930.0 188.0 Z" fill="none" stroke="#d6d6d6" stroke-width="0.75" />
</svg>