<svg width="960.0px" height="224.0px" xmlns="http://www.w3.org/2000/svg" version="1.1">

<path d="M 0.0 0.0 L 960.0 0.0 L 960.0 224.0 L 0.0 224.0 L 0.0 0.0 Z" fill="#ffffff" stroke="none" stroke-width="1.0" /><g transform="translate(20.0,20.0)">
<path d="M 0.0 0.0 L 312.0 0.0 L 312.0 193.0 L 0.0 193.0 L 0.0 0.0 Z" fill="#ffffff" stroke="none" stroke-width="1.0" />
<path d="M 0.0 30.0 L 312.0 30.0 M 0.0 38.0 L 312.0 38.0 M 0.0 46.0 L 312.0 46.0 M 0.0 54.0 L 312.0 54.0 M 0.0 62.0 L 312.0 62.0 Z" fill="none" stroke="#d6d6d6" stroke-width="0.75" />
<path d="M 0.0 122.0 L 312.0 122.0 M 0.0 132.0 L 312.0 132.0 M 0.0 142.0 L 312.0 142.0 M 0.0 152.0 L 312.0 152.0 M 0.0 162.0 L 312.0 162.0 M 0.0 172.0 L 312.0 172.0 Z" fill="none" stroke="#d6d6d6" stroke-width="0.75" />
<path d="M 67.77043 30.40856 C 68.324905 30.40856 68.821014 30.350195 69.25876 30.20428 C 69.6965 30.058365 69.959145 30.0 70.04669 30.0 C 70.192604 30.0 70.28015 30.029182 70.36771 30.116732 C 70.42607 30.175097 70.45525 30.233463 70.484436 30.321012 C 70.484436 30.379377 70.45525 30.437744 70.42607 30.496109 L 61.933853 40.35992 L 66.924126 40.35992 L 66.924126 36.449417 C 66.924126 36.18677 67.01167 35.95331 67.1284 35.807392 C 67.3035 35.661476 67.4786 35.515564 67.71206 35.4572 C 67.97471 35.340466 68.26653 35.07782 68.64591 34.640076 C 68.937744 34.319065 69.317116 33.706226 69.75486 32.801556 C 69.81323 32.684826 69.90078 32.626457 70.01751 32.626457 C 70.28015 32.626457 70.39688 32.772373 70.42607 33.03502 L 70.42607 40.35992 L 72.55642 40.35992 C 72.84825 40.35992 72.99416 40.505836 73.023346 40.797665 C 73.023346 41.089493 72.877426 41.235405 72.55642 41.235405 L 70.42607 41.235405 L 70.42607 41.468872 C 70.42607 42.28599 70.63035 42.928013 71.00973 43.45331 C 71.44747 43.9786 71.97276 44.270428 72.5856 44.270428 C 72.81906 44.270428 72.9358 44.387157 72.9358 44.62062 C 72.9358 44.854084 72.81906 44.970818 72.5856 44.970818 C 72.14786 44.970818 71.50584 44.91245 70.601166 44.79572 C 69.696495 44.649803 69.054474 44.59144 68.64591 44.59144 C 68.23735 44.59144 67.56615 44.649803 66.69066 44.79572 C 65.81517 44.91245 65.17315 44.970818 64.735405 44.970818 C 64.501945 44.970818 64.385216 44.854084 64.385216 44.62062 C 64.385216 44.387157 64.501945 44.270428 64.735405 44.270428 C 65.34825 44.270428 65.87354 43.9786 66.31128 43.45331 C 66.71984 42.89883 66.924126 42.25681 66.924126 41.468872 L 66.924126 41.235405 L 61.933853 41.235405 C 61.61284 41.235405 61.379375 41.17704 61.233463 41.001945 C 61.087547 40.885212 61.0 40.710114 61.0 40.53502 C 61.0 40.476654 61.145912 40.272373 61.437744 39.92218 C 61.729572 39.571983 62.079765 39.105057 62.488327 38.492218 C 62.488327 38.492218 63.305447 37.20817 63.71401 36.449417 C 63.71401 36.449417 64.47276 34.78599 64.735405 33.706226 C 65.02724 32.65564 65.17315 31.575874 65.17315 30.496109 C 65.17315 30.175097 65.31907 30.029182 65.58171 30.029182 C 65.61089 30.029182 65.756805 30.058365 65.96109 30.11673 C 66.16537 30.175097 66.4572 30.233461 66.77821 30.32101 C 67.1284 30.379377 67.44942 30.40856 67.77043 30.40856 Z" fill="#000000" stroke="none" stroke-width="0.75" />
<path d="M 67.77043 47.40856 C 68.324905 47.40856 68.821014 47.350193 69.25876 47.20428 C 69.6965 47.058365 69.959145 47.0 70.04669 47.0 C 70.192604 47.0 70.28015 47.029182 70.36771 47.11673 C 70.42607 47.1751 70.45525 47.233463 70.484436 47.32101 C 70.484436 47.37938 70.45525 47.437744 70.42607 47.49611 L 61.933853 57.35992 L 66.924126 57.35992 L 66.924126 53.449417 C 66.924126 53.18677 67.01167 52.95331 67.1284 52.807392 C 67.3035 52.661476 67.4786 52.515564 67.71206 52.4572 C 67.97471 52.340466 68.26653 52.07782 68.64591 51.640076 C 68.937744 51.319065 69.317116 50.706226 69.75486 49.801556 C 69.81323 49.684826 69.90078 49.626457 70.01751 49.626457 C 70.28015 49.626457 70.39688 49.772373 70.42607 50.03502 L 70.42607 57.35992 L 72.55642 57.35992 C 72.84825 57.35992 72.99416 57.505836 73.023346 57.797665 C 73.023346 58.089493 72.877426 58.235405 72.55642 58.235405 L 70.42607 58.235405 L 70.42607 58.468872 C 70.42607 59.28599 70.63035 59.928013 71.00973 60.45331 C 71.44747 60.9786 71.97276 61.270428 72.5856 61.270428 C 72.81906 61.270428 72.9358 61.387157 72.9358 61.62062 C 72.9358 61.854084 72.81906 61.970818 72.5856 61.970818 C 72.14786 61.970818 71.50584 61.91245 70.601166 61.79572 C 69.696495 61.649803 69.054474 61.59144 68.64591 61.59144 C 68.23735 61.59144 67.56615 61.649803 66.69066 61.79572 C 65.81517 61.91245 65.17315 61.970818 64.735405 61.970818 C 64.501945 61.970818 64.385216 61.854084 64.385216 61.62062 C 64.385216 61.387157 64.501945 61.270428 64.735405 61.270428 C 65.34825 61.270428 65.87354 60.9786 66.31128 60.45331 C 66.71984 59.89883 66.924126 59.25681 66.924126 58.468872 L 66.924126 58.235405 L 61.933853 58.235405 C 61.61284 58.235405 61.379375 58.17704 61.233463 58.001945 C 61.087547 57.885212 61.0 57.710114 61.0 57.53502 C 61.0 57.476654 61.145912 57.272373 61.437744 56.92218 C 61.729572 56.571983 62.079765 56.105057 62.488327 55.492218 C 62.488327 55.492218 63.305447 54.20817 63.71401 53.449417 C 63.71401 53.449417 64.47276 51.78599 64.735405 50.706226 C 65.02724 49.65564 65.17315 48.575874 65.17315 47.49611 C 65.17315 47.175095 65.31907 47.029182 65.58171 47.029182 C 65.61089 47.029182 65.756805 47.058365 65.96109 47.11673 C 66.16537 47.175095 66.4572 47.233463 66.77821 47.32101 C 67.1284 47.379375 67.44942 47.408558 67.77043 47.408558 Z" fill="#000000" stroke="none" stroke-width="0.75" />
<path d="M 22.764973 22.115383 C 22.921913 22.036913 22.948072 22.036913 23.105015 22.036913 C 23.314268 22.06307 23.445057 22.14154 23.73278 22.455425 C 25.616081 24.39104 27.185501 27.843758 27.577856 30.773342 C 27.630169 31.244167 27.630169 32.34276 27.577856 32.839737 C 27.29013 35.533905 26.165377 37.99266 23.57584 41.52385 L 23.209644 42.020832 L 23.418898 42.62244 C 23.915882 44.061073 24.491331 45.81359 24.85753 47.095284 C 24.96216 47.409164 25.04063 47.67074 25.04063 47.696896 C 25.04063 47.696896 25.223728 47.696896 25.406826 47.723053 C 26.322319 47.80152 27.10703 48.01078 27.917896 48.40313 C 28.57182 48.74317 29.147274 49.13552 29.696568 49.658665 C 30.29818 50.260277 30.690535 50.80957 31.05673 51.568123 C 31.606026 52.666718 31.84144 53.81762 31.81528 54.96853 C 31.789125 55.700924 31.684496 56.25022 31.449085 56.930305 C 31.1352 57.924263 30.559748 58.83976 29.77504 59.62447 C 29.094955 60.30455 28.46719 60.72306 27.630169 61.063103 L 27.316284 61.193886 L 27.316284 62.135536 C 27.316284 63.469543 27.237814 65.038956 27.133184 65.980606 C 27.02856 66.94841 26.766989 67.86391 26.348476 68.700935 C 25.249886 70.92427 23.314268 72.10133 21.143244 71.89209 C 18.684484 71.65667 16.69656 69.98262 16.199577 67.73312 C 15.964161 66.713 16.068794 65.9283 16.487303 65.27437 C 17.036598 64.411194 18.082878 63.91421 19.102997 63.940365 C 20.30622 63.992683 21.274027 64.934326 21.457123 66.24218 C 21.58791 67.28845 21.143244 68.25626 20.30622 68.7794 C 19.835394 69.06713 19.181469 69.197914 18.684484 69.119446 C 18.606018 69.119446 18.527544 69.093285 18.527544 69.119446 L 18.84143 69.43333 C 19.416882 70.00878 20.070807 70.374985 20.907831 70.558075 C 21.090927 70.584236 21.247868 70.584236 21.666382 70.584236 C 22.137207 70.584236 22.189518 70.584236 22.451088 70.53192 C 22.81729 70.42729 23.131172 70.29651 23.418898 70.139565 C 24.726748 69.35486 25.616081 67.73312 25.851494 65.77136 C 25.929964 65.038956 26.008434 63.469543 26.008434 62.318638 C 26.008434 61.560085 26.008434 61.50777 25.956123 61.50777 C 25.851494 61.560085 25.302197 61.6124 24.909843 61.638554 C 24.41286 61.66471 23.57584 61.66471 23.183485 61.6124 C 21.640223 61.4293 20.227747 60.90616 18.998373 60.042976 C 17.167385 58.761288 15.859535 56.851826 15.31024 54.654644 C 14.604002 51.908165 15.100986 48.978584 16.827343 45.89206 C 17.55974 44.610374 18.265978 43.564095 20.018494 41.236122 L 21.012455 39.902122 L 20.829355 39.405136 C 19.573822 36.083202 19.15531 34.173744 19.024527 31.401108 C 18.972214 30.197887 19.024527 29.177761 19.181469 28.340742 C 19.573822 26.143559 20.593945 24.181787 22.189518 22.612366 C 22.503403 22.298483 22.63419 22.193855 22.764973 22.115383 M 24.831371 26.588224 C 24.569805 26.143559 24.622118 26.169712 24.386707 26.326658 C 23.65431 26.771324 22.89576 27.451405 22.34646 28.131483 C 21.221714 29.57012 20.593945 31.244167 20.515476 33.048996 C 20.489319 33.78139 20.56779 34.252216 20.907831 35.37696 C 21.169397 36.292458 21.901793 38.5158 21.95411 38.56811 C 21.95411 38.59427 22.111048 38.411175 22.26799 38.17576 C 24.072823 35.58622 25.04063 33.467506 25.406826 31.348791 C 25.485298 30.799496 25.53761 30.354828 25.563768 29.727062 C 25.589928 28.28843 25.432985 27.582191 24.831371 26.588224 M 22.581877 44.191864 C 22.424934 43.694878 22.26799 43.302525 22.26799 43.302525 C 22.241835 43.302525 21.143244 44.76731 20.672415 45.421238 C 19.129156 47.592266 18.187506 49.34478 17.638206 51.071136 C 17.27201 52.143574 17.115068 53.137543 17.062756 54.236134 C 17.062756 54.837746 17.088915 55.20394 17.193539 55.64861 C 17.795153 57.976578 20.280064 59.886036 23.209644 60.30455 C 23.65431 60.35686 24.909843 60.35686 25.459139 60.30455 C 26.008434 60.226078 25.956123 60.252235 25.929964 60.016823 C 25.773026 57.53191 25.563768 56.014805 25.14526 53.765305 C 24.988314 52.823658 24.543648 50.835728 24.517488 50.80957 C 24.491331 50.783417 23.99435 50.835728 23.706627 50.9142 C 23.340427 50.99267 23.105015 51.071136 22.79113 51.22808 C 21.090927 52.091263 20.593945 54.053036 21.666382 55.64861 C 21.849482 55.91018 22.320305 56.381004 22.608032 56.564102 C 22.71266 56.642574 22.948072 56.799515 23.105015 56.877987 C 23.340427 57.00877 23.392738 57.061085 23.445057 57.165714 C 23.65431 57.505756 23.523525 57.924263 23.131172 58.107365 C 22.921913 58.21199 22.764973 58.185837 22.34646 57.976578 C 21.326344 57.4796 20.56779 56.799515 20.018494 55.962494 C 18.998373 54.393074 18.867586 52.37899 19.70461 50.678787 C 20.437006 49.213997 21.744852 48.22003 23.418898 47.853836 C 23.57584 47.80152 23.706627 47.775368 23.706627 47.775368 C 23.73278 47.749207 23.000385 45.368923 22.581877 44.191864 M 26.139221 50.94036 C 26.060753 50.94036 25.98228 50.9142 25.956123 50.9142 L 25.877651 50.88804 L 26.008434 51.43734 C 26.610046 54.07919 27.054714 56.956455 27.211655 59.389057 C 27.237814 59.650627 27.237814 59.859882 27.237814 59.859882 C 27.263973 59.859882 27.60401 59.70294 27.78711 59.572155 C 28.231777 59.31058 28.65029 58.91823 28.99033 58.47356 C 29.801197 57.401123 30.08892 56.06712 29.77504 54.706955 C 29.539627 53.608364 28.911861 52.58824 28.022522 51.882008 C 27.473227 51.463493 26.740831 51.097298 26.139221 50.94036 Z" fill="#000000" stroke="none" stroke-width="0.75" />
<path d="M 92.0 70.0 L 108.0 70.0 Z" fill="none" stroke="#d6d6d6" stroke-width="0.75" />
<path d="M 92.0 78.0 L 108.0 78.0 Z" fill="none" stroke="#d6d6d6" stroke-width="0.75" />
<path d="M 92.0 86.0 L 108.0 86.0 Z" fill="none" stroke="#d6d6d6" stroke-width="0.75" />
<path d="M 92.0 70.0 L 108.0 70.0 Z" fill="none" stroke="#d6d6d6" stroke-width="0.75" />
<path d="M 92.0 78.0 L 108.0 78.0 Z" fill="none" stroke="#d6d6d6" stroke-width="0.75" />
<path d="M 92.0 86.0 L 108.0 86.0 Z" fill="none" stroke="#d6d6d6" stroke-width="0.75" />
<path d="M 95.52 91.232 C 95.52 92.456 96.715195 93.68 97.895996 93.68 C 101.495995 93.68 105.09599 91.232 105.09599 88.856 C 105.09599 87.6752 103.871994 86.48 102.71999 86.48 C 99.119995 86.48 95.52 88.856 95.52 91.232 Z" fill="#404040" stroke="none" stroke-width="1.0" />
<path d="M 94.0 168.25 L 102.0 168.25 L 102.0 175.75 L 94.0 175.75 L 94.0 168.25 Z" fill="#ffffff" stroke="none" stroke-width="1.0" />
<text x='94.0' y='175.75' font-family="Default" font-size="10.0" fill="#404040" >0</text>
<path d="M 104.18 89.04 L 105.18 89.04 L 105.18 58.0 L 104.18 58.0 M 104.18 89.04 Z" fill="#404040" stroke="none" stroke-width="0.75" />
<path d="M 113.0 70.0 L 129.0 70.0 Z" fill="none" stroke="#d6d6d6" stroke-width="0.75" />
<path d="M 113.0 78.0 L 129.0 78.0 Z" fill="none" stroke="#d6d6d6" stroke-width="0.75" />
<path d="M 113.0 70.0 L 129.0 70.0 Z" fill="none" stroke="#d6d6d6" stroke-width="0.75" />
<path d="M 113.0 78.0 L 129.0 78.0 Z" fill="none" stroke="#d6d6d6" stroke-width="0.75" />
<path d="M 116.52 83.232 C 116.52 84.456 117.715195 85.68 118.895996 85.68 C 122.495995 85.68 126.09599 83.232 126.09599 80.856 C 126.09599 79.6752 124.871994 78.48 123.71999 78.48 C 120.119995 78.48 116.52 80.856 116.52 83.232 Z" fill="#404040" stroke="none" stroke-width="1.0" />
<path d="M 115.0 168.25 L 123.0 168.25 L 123.0 175.75 L 115.0 175.75 L 115.0 168.25 Z" fill="#ffffff" stroke="none" stroke-width="1.0" />
<text x='115.0' y='175.75' font-family="Default" font-size="10.0" fill="#404040" >3</text>
<path d="M 125.18 81.04 L 126.18 81.04 L 126.18 50.0 L 125.18 50.0 M 125.18 81.04 Z" fill="#404040" stroke="none" stroke-width="0.75" />
<path d="M 130.33 65.95 C 130.455 66.0 130.73 65.95 130.83 65.9 C 130.98 65.8 131.03 65.75 131.18 65.475 C 131.705 64.5 132.13 63.3 132.305 62.3 C 132.655 60.325 132.405 58.875 131.405 57.225 C 130.955 56.45 130.405 55.75 129.18 54.375 C 127.905 52.9 127.505 52.375 127.005 51.675 C 126.505 50.9 126.155 50.175 125.93 49.45 C 125.805 49.0 125.705 48.325 125.705 47.95 L 125.705 47.825 L 125.455 47.825 L 125.18 47.825 L 125.18 50.95 L 125.18 54.075 L 125.455 54.075 L 125.73 54.075 L 126.38 54.525 C 128.23 55.75 129.355 56.75 130.155 57.825 C 131.13 59.15 131.405 60.25 131.13 61.9 C 130.955 62.95 130.53 64.025 129.98 64.975 C 129.855 65.15 129.83 65.225 129.83 65.3 C 129.83 65.6 130.03 65.85 130.33 65.95 Z" fill="#404040" stroke="none" stroke-width="0.75" />
<path d="M 138.49155 40.729687 C 138.95372 40.666664 139.35287 40.79271 139.66798 41.08682 C 139.85706 41.296898 139.94109 41.46496 140.06714 41.969147 C 140.13016 42.200233 140.19319 42.43132 140.21419 42.473335 C 140.29822 42.662403 140.44528 42.788452 140.63435 42.80946 C 140.71838 42.80946 140.76039 42.80946 140.86543 42.746437 C 141.13853 42.620388 141.78978 41.8431 142.04187 41.35992 C 142.10489 41.212868 142.20993 41.149845 142.31497 41.149845 C 142.399 41.149845 142.50404 41.212868 142.54605 41.27589 C 142.56706 41.317905 142.357 42.05318 141.24358 45.77156 C 140.52931 48.20846 139.92009 50.246212 139.89908 50.267227 C 139.89908 50.288246 139.81505 50.35125 139.73102 50.372265 C 139.60497 50.43529 139.58395 50.43529 139.4159 50.43529 C 139.24783 50.43529 139.20583 50.43529 139.07977 50.39328 C 139.01675 50.35125 138.93272 50.30924 138.93272 50.288246 C 138.8907 50.267227 139.03775 49.889088 140.10916 46.842957 C 140.7814 44.973263 141.3276 43.418686 141.3066 43.418686 L 140.94946 43.523724 C 140.19319 43.775818 139.73102 43.859848 139.1638 43.859848 C 138.70163 43.859848 138.57558 43.83884 138.23946 43.67078 C 137.31512 43.229614 137.0 42.15822 137.52519 41.35992 C 137.75629 41.044804 138.11342 40.79271 138.49155 40.729687 Z" fill="#404040" stroke="none" stroke-width="0.75" />
<path d="M 153.0 70.0 L 169.0 70.0 Z" fill="none" stroke="#d6d6d6" stroke-width="0.75" />
<path d="M 153.0 78.0 L 169.0 78.0 Z" fill="none" stroke="#d6d6d6" stroke-width="0.75" />
<path d="M 153.0 86.0 L 169.0 86.0 Z" fill="none" stroke="#d6d6d6" stroke-width="0.75" />
<path d="M 153.0 70.0 L 169.0 70.0 Z" fill="none" stroke="#d6d6d6" stroke-width="0.75" />
<path d="M 153.0 78.0 L 169.0 78.0 Z" fill="none" stroke="#d6d6d6" stroke-width="0.75" />
<path d="M 153.0 86.0 L 169.0 86.0 Z" fill="none" stroke="#d6d6d6" stroke-width="0.75" />
<path d="M 156.52 91.232 C 156.52 92.456 157.71521 93.68 158.89601 93.68 C 162.496 93.68 166.09601 91.232 166.09601 88.856 C 166.09601 87.6752 164.87201 86.48 163.72 86.48 C 160.12001 86.48 156.52 88.856 156.52 91.232 Z" fill="#404040" stroke="none" stroke-width="1.0" />
<path d="M 155.0 168.25 L 163.0 168.25 L 163.0 175.75 L 155.0 175.75 L 155.0 168.25 Z" fill="#ffffff" stroke="none" stroke-width="1.0" />
<text x='155.0' y='175.75' font-family="Default" font-size="10.0" fill="#404040" >0</text>
<path d="M 165.18 89.04 L 166.18 89.04 L 166.18 58.0 L 165.18 58.0 M 165.18 89.04 Z" fill="#404040" stroke="none" stroke-width="0.75" />
<path d="M 170.32999 73.95 C 170.45499 74.0 170.73 73.95 170.82999 73.9 C 170.98 73.8 171.03 73.75 171.18 73.475 C 171.70499 72.5 172.12999 71.3 172.305 70.3 C 172.655 68.325 172.405 66.875 171.405 65.225 C 170.95499 64.45 170.405 63.75 169.18 62.375 C 167.905 60.9 167.50499 60.375 167.00499 59.675 C 166.50499 58.9 166.155 58.175 165.93 57.45 C 165.805 57.0 165.70499 56.325 165.70499 55.95 L 165.70499 55.825 L 165.45499 55.825 L 165.18 55.825 L 165.18 58.95 L 165.18 62.075 L 165.45499 62.075 L 165.73 62.075 L 166.37999 62.525 C 168.23 63.75 169.355 64.75 170.155 65.825 C 171.12999 67.15 171.405 68.25 171.12999 69.9 C 170.95499 70.95 170.53 72.025 169.98 72.975 C 169.855 73.15 169.82999 73.225 169.82999 73.3 C 169.82999 73.6 170.03 73.85 170.32999 73.95 Z" fill="#404040" stroke="none" stroke-width="0.75" />
<path d="M 173.0 70.0 L 189.0 70.0 Z" fill="none" stroke="#d6d6d6" stroke-width="0.75" />
<path d="M 173.0 78.0 L 189.0 78.0 Z" fill="none" stroke="#d6d6d6" stroke-width="0.75" />
<path d="M 173.0 70.0 L 189.0 70.0 Z" fill="none" stroke="#d6d6d6" stroke-width="0.75" />
<path d="M 173.0 78.0 L 189.0 78.0 Z" fill="none" stroke="#d6d6d6" stroke-width="0.75" />
<path d="M 176.52 79.232 C 176.52 80.456 177.71521 81.68 178.89601 81.68 C 182.496 81.68 186.09601 79.232 186.09601 76.856 C 186.09601 75.6752 184.87201 74.48 183.72 74.48 C 180.12001 74.48 176.52 76.856 176.52 79.232 Z" fill="#404040" stroke="none" stroke-width="1.0" />
<path d="M 175.0 168.25 L 183.0 168.25 L 183.0 175.75 L 175.0 175.75 L 175.0 168.25 Z" fill="#ffffff" stroke="none" stroke-width="1.0" />
<text x='175.0' y='175.75' font-family="Default" font-size="10.0" fill="#404040" >5</text>
<path d="M 185.18 77.04 L 186.18 77.04 L 186.18 46.0 L 185.18 46.0 M 185.18 77.04 Z" fill="#404040" stroke="none" stroke-width="0.75" />
<path d="M 190.32999 61.95 C 190.45499 62.0 190.73 61.95 190.82999 61.9 C 190.98 61.8 191.03 61.75 191.18 61.475 C 191.70499 60.5 192.12999 59.3 192.305 58.3 C 192.655 56.325 192.405 54.875 191.405 53.225 C 190.95499 52.45 190.405 51.75 189.18 50.375 C 187.905 48.9 187.50499 48.375 187.00499 47.675 C 186.50499 46.9 186.155 46.175 185.93 45.45 C 185.805 45.0 185.70499 44.325 185.70499 43.95 L 185.70499 43.825 L 185.45499 43.825 L 185.18 43.825 L 185.18 46.95 L 185.18 50.075 L 185.45499 50.075 L 185.73 50.075 L 186.37999 50.525 C 188.23 51.75 189.355 52.75 190.155 53.825 C 191.12999 55.15 191.405 56.25 191.12999 57.9 C 190.95499 58.95 190.53 60.025 189.98 60.975 C 189.855 61.15 189.82999 61.225 189.82999 61.3 C 189.82999 61.6 190.03 61.85 190.32999 61.95 Z" fill="#404040" stroke="none" stroke-width="0.75" />
<path d="M 198.49155 40.729687 C 198.95372 40.666664 199.35287 40.79271 199.66798 41.08682 C 199.85706 41.296898 199.94109 41.46496 200.06714 41.969147 C 200.13016 42.200233 200.19319 42.43132 200.21419 42.473335 C 200.29822 42.662403 200.44528 42.788452 200.63435 42.80946 C 200.71838 42.80946 200.76039 42.80946 200.86543 42.746437 C 201.13853 42.620388 201.78978 41.8431 202.04187 41.35992 C 202.10489 41.212868 202.20993 41.149845 202.31497 41.149845 C 202.399 41.149845 202.50404 41.212868 202.54605 41.27589 C 202.56706 41.317905 202.357 42.05318 201.24358 45.77156 C 200.52931 48.20846 199.92009 50.246212 199.89908 50.267227 C 199.89908 50.288246 199.81505 50.35125 199.73102 50.372265 C 199.60497 50.43529 199.58395 50.43529 199.4159 50.43529 C 199.24783 50.43529 199.20583 50.43529 199.07977 50.39328 C 199.01675 50.35125 198.93272 50.30924 198.93272 50.288246 C 198.8907 50.267227 199.03775 49.889088 200.10916 46.842957 C 200.7814 44.973263 201.3276 43.418686 201.3066 43.418686 L 200.94946 43.523724 C 200.19319 43.775818 199.73102 43.859848 199.1638 43.859848 C 198.70163 43.859848 198.57558 43.83884 198.23946 43.67078 C 197.31512 43.229614 197.0 42.15822 197.52519 41.35992 C 197.75629 41.044804 198.11342 40.79271 198.49155 40.729687 Z" fill="#404040" stroke="none" stroke-width="0.75" />
<path d="M 213.0 70.0 L 229.0 70.0 Z" fill="none" stroke="#d6d6d6" stroke-width="0.75" />
<path d="M 213.0 78.0 L 229.0 78.0 Z" fill="none" stroke="#d6d6d6" stroke-width="0.75" />
<path d="M 213.0 86.0 L 229.0 86.0 Z" fill="none" stroke="#d6d6d6" stroke-width="0.75" />
<path d="M 213.0 70.0 L 229.0 70.0 Z" fill="none" stroke="#d6d6d6" stroke-width="0.75" />
<path d="M 213.0 78.0 L 229.0 78.0 Z" fill="none" stroke="#d6d6d6" stroke-width="0.75" />
<path d="M 213.0 86.0 L 229.0 86.0 Z" fill="none" stroke="#d6d6d6" stroke-width="0.75" />
<path d="M 216.52 91.232 C 216.52 92.456 217.71521 93.68 218.89601 93.68 C 222.496 93.68 226.09601 91.232 226.09601 88.856 C 226.09601 87.6752 224.87201 86.48 223.72 86.48 C 220.12001 86.48 216.52 88.856 216.52 91.232 Z" fill="#404040" stroke="none" stroke-width="1.0" />
<path d="M 215.0 168.25 L 223.0 168.25 L 223.0 175.75 L 215.0 175.75 L 215.0 168.25 Z" fill="#ffffff" stroke="none" stroke-width="1.0" />
<text x='215.0' y='175.75' font-family="Default" font-size="10.0" fill="#404040" >0</text>
<path d="M 225.18 89.04 L 226.18 89.04 L 226.18 58.0 L 225.18 58.0 M 225.18 89.04 Z" fill="#404040" stroke="none" stroke-width="0.75" />
<path d="M 230.32999 73.95 C 230.45499 74.0 230.73 73.95 230.82999 73.9 C 230.98 73.8 231.03 73.75 231.18 73.475 C 231.70499 72.5 232.12999 71.3 232.305 70.3 C 232.655 68.325 232.405 66.875 231.405 65.225 C 230.95499 64.45 230.405 63.75 229.18 62.375 C 227.905 60.9 227.50499 60.375 227.00499 59.675 C 226.50499 58.9 226.155 58.175 225.93 57.45 C 225.805 57.0 225.70499 56.325 225.70499 55.95 L 225.70499 55.825 L 225.45499 55.825 L 225.18 55.825 L 225.18 58.95 L 225.18 62.075 L 225.45499 62.075 L 225.73 62.075 L 226.37999 62.525 C 228.23 63.75 229.355 64.75 230.155 65.825 C 231.12999 67.15 231.405 68.25 231.12999 69.9 C 230.95499 70.95 230.53 72.025 229.98 72.975 C 229.855 73.15 229.82999 73.225 229.82999 73.3 C 229.82999 73.6 230.03 73.85 230.32999 73.95 Z" fill="#404040" stroke="none" stroke-width="0.75" />
<path d="M 233.0 70.0 L 249.0 70.0 Z" fill="none" stroke="#d6d6d6" stroke-width="0.75" />
<path d="M 233.0 78.0 L 249.0 78.0 Z" fill="none" stroke="#d6d6d6" stroke-width="0.75" />
<path d="M 233.0 70.0 L 249.0 70.0 Z" fill="none" stroke="#d6d6d6" stroke-width="0.75" />
<path d="M 233.0 78.0 L 249.0 78.0 Z" fill="none" stroke="#d6d6d6" stroke-width="0.75" />
<path d="M 236.52 83.232 C 236.52 84.456 237.71521 85.68 238.89601 85.68 C 242.496 85.68 246.09601 83.232 246.09601 80.856 C 246.09601 79.6752 244.87201 78.48 243.72 78.48 C 240.12001 78.48 236.52 80.856 236.52 83.232 Z" fill="#404040" stroke="none" stroke-width="1.0" />
<path d="M 235.0 168.25 L 243.0 168.25 L 243.0 175.75 L 235.0 175.75 L 235.0 168.25 Z" fill="#ffffff" stroke="none" stroke-width="1.0" />
<text x='235.0' y='175.75' font-family="Default" font-size="10.0" fill="#404040" >3</text>
<path d="M 245.18 81.04 L 246.18 81.04 L 246.18 50.0 L 245.18 50.0 M 245.18 81.04 Z" fill="#404040" stroke="none" stroke-width="0.75" />
<path d="M 250.32999 65.95 C 250.45499 66.0 250.73 65.95 250.82999 65.9 C 250.98 65.8 251.03 65.75 251.18 65.475 C 251.70499 64.5 252.12999 63.3 252.305 62.3 C 252.655 60.325 252.405 58.875 251.405 57.225 C 250.95499 56.45 250.405 55.75 249.18 54.375 C 247.905 52.9 247.50499 52.375 247.00499 51.675 C 246.50499 50.9 246.155 50.175 245.93 49.45 C 245.805 49.0 245.70499 48.325 245.70499 47.95 L 245.70499 47.825 L 245.45499 47.825 L 245.18 47.825 L 245.18 50.95 L 245.18 54.075 L 245.45499 54.075 L 245.73 54.075 L 246.37999 54.525 C 248.23 55.75 249.355 56.75 250.155 57.825 C 251.12999 59.15 251.405 60.25 251.12999 61.9 C 250.95499 62.95 250.53 64.025 249.98 64.975 C 249.855 65.15 249.82999 65.225 249.82999 65.3 C 249.82999 65.6 250.03 65.85 250.32999 65.95 Z" fill="#404040" stroke="none" stroke-width="0.75" />
<path d="M 258.49155 40.729687 C 258.95374 40.666664 259.35287 40.79271 259.668 41.08682 C 259.85706 41.296898 259.9411 41.46496 260.06714 41.969147 C 260.13016 42.200233 260.19318 42.43132 260.2142 42.473335 C 260.29822 42.662403 260.44528 42.788452 260.63434 42.80946 C 260.71838 42.80946 260.7604 42.80946 260.86545 42.746437 C 261.13855 42.620388 261.78976 41.8431 262.04187 41.35992 C 262.1049 41.212868 262.20993 41.149845 262.31497 41.149845 C 262.39902 41.149845 262.50403 41.212868 262.54605 41.27589 C 262.56708 41.317905 262.357 42.05318 261.24356 45.77156 C 260.5293 48.20846 259.92007 50.246212 259.89908 50.267227 C 259.89908 50.288246 259.81503 50.35125 259.73102 50.372265 C 259.60498 50.43529 259.58395 50.43529 259.4159 50.43529 C 259.24783 50.43529 259.2058 50.43529 259.07977 50.39328 C 259.01675 50.35125 258.9327 50.30924 258.9327 50.288246 C 258.89072 50.267227 259.03775 49.889088 260.10916 46.842957 C 260.7814 44.973263 261.3276 43.418686 261.3066 43.418686 L 260.94946 43.523724 C 260.19318 43.775818 259.73102 43.859848 259.16382 43.859848 C 258.70163 43.859848 258.5756 43.83884 258.23947 43.67078 C 257.31512 43.229614 257.0 42.15822 257.5252 41.35992 C 257.7563 41.044804 258.1134 40.79271 258.49155 40.729687 Z" fill="#404040" stroke="none" stroke-width="0.75" />
<path d="M 273.0 70.0 L 289.0 70.0 Z" fill="none" stroke="#d6d6d6" stroke-width="0.75" />
<path d="M 273.0 78.0 L 289.0 78.0 Z" fill="none" stroke="#d6d6d6" stroke-width="0.75" />
<path d="M 273.0 86.0 L 289.0 86.0 Z" fill="none" stroke="#d6d6d6" stroke-width="0.75" />
<path d="M 273.0 70.0 L 289.0 70.0 Z" fill="none" stroke="#d6d6d6" stroke-width="0.75" />
<path d="M 273.0 78.0 L 289.0 78.0 Z" fill="none" stroke="#d6d6d6" stroke-width="0.75" />
<path d="M 273.0 86.0 L 289.0 86.0 Z" fill="none" stroke="#d6d6d6" stroke-width="0.75" />
<path d="M 276.52 91.232 C 276.52 92.456 277.71518 93.68 278.896 93.68 C 282.496 93.68 286.09598 91.232 286.09598 88.856 C 286.09598 87.6752 284.87198 86.48 283.72 86.48 C 280.12 86.48 276.52 88.856 276.52 91.232 Z" fill="#404040" stroke="none" stroke-width="1.0" />
<path d="M 275.0 168.25 L 283.0 168.25 L 283.0 175.75 L 275.0 175.75 L 275.0 168.25 Z" fill="#ffffff" stroke="none" stroke-width="1.0" />
<text x='275.0' y='175.75' font-family="Default" font-size="10.0" fill="#404040" >0</text>
<path d="M 285.18 89.04 L 286.18 89.04 L 286.18 58.0 L 285.18 58.0 M 285.18 89.04 Z" fill="#404040" stroke="none" stroke-width="0.75" />
<path d="M 290.33 73.95 C 290.455 74.0 290.72998 73.95 290.83 73.9 C 290.97998 73.8 291.03 73.75 291.18 73.475 C 291.705 72.5 292.13 71.3 292.305 70.3 C 292.655 68.325 292.405 66.875 291.405 65.225 C 290.955 64.45 290.405 63.75 289.18 62.375 C 287.905 60.9 287.505 60.375 287.005 59.675 C 286.505 58.9 286.155 58.175 285.93 57.45 C 285.805 57.0 285.705 56.325 285.705 55.95 L 285.705 55.825 L 285.455 55.825 L 285.18 55.825 L 285.18 58.95 L 285.18 62.075 L 285.455 62.075 L 285.72998 62.075 L 286.38 62.525 C 288.22998 63.75 289.35498 64.75 290.155 65.825 C 291.13 67.15 291.405 68.25 291.13 69.9 C 290.955 70.95 290.53 72.025 289.97998 72.975 C 289.85498 73.15 289.83 73.225 289.83 73.3 C 289.83 73.6 290.03 73.85 290.33 73.95 Z" fill="#404040" stroke="none" stroke-width="0.75" />
<path d="M 111.66 28.0 L 111.66 24.0 L 134.67 24.0 M 167.68 28.0 L 167.68 24.0 L 144.67 24.0 Z" fill="none" stroke="#404040" stroke-width="1.0" />
<text x='135.67' y='27.75' font-family="Default" font-size="10.0" fill="#404040" >3</text>
<path d="M 171.66 28.0 L 171.66 24.0 L 194.67 24.0 M 227.68 28.0 L 227.68 24.0 L 204.67 24.0 Z" fill="none" stroke="#404040" stroke-width="1.0" />
<text x='195.67' y='27.75' font-family="Default" font-size="10.0" fill="#404040" >3</text>
<path d="M 231.66 28.0 L 231.66 24.0 L 254.66998 24.0 M 287.68 28.0 L 287.68 24.0 L 264.66998 24.0 Z" fill="none" stroke="#404040" stroke-width="1.0" />
<text x='255.66998' y='27.75' font-family="Default" font-size="10.0" fill="#404040" >3</text></g>
<path d="M 35.35 36.3 C 35.35 37.15 36.18 38.0 37.0 38.0 C 39.5 38.0 42.0 36.3 42.0 34.65 C 42.0 33.83 41.149998 33.0 40.35 33.0 C 37.85 33.0 35.35 34.65 35.35 36.3 Z" fill="#000000" stroke="none" stroke-width="1.0" />
<path d="M 42.0 20.0 L 42.0 34.7 Z" fill="none" stroke="#000000" stroke-width="1.0" />
<text x='43.0' y='36.25' font-family="Default" font-size="10.0" fill="#000000" > = 120</text>
<text x='21.0' y='48.0' font-family="Default" font-size="10.0" fill="#ff0000" >1</text>
<path d="M 20.0 50.0 L 23.0 50.0 L 23.0 142.0 L 20.0 142.0 L 20.0 50.0 Z" fill="#000000" stroke="#000000" stroke-width="0.75" />
<path d="M 25.0 50.0 L 26.0 50.0 L 26.0 142.0 L 25.0 142.0 L 25.0 50.0 Z" fill="#000000" stroke="#000000" stroke-width="0.75" />
<path d="M 332.0 50.0 L 332.0 82.0 Z" fill="#000000" stroke="#000000" stroke-width="0.75" />
<path d="M 20.0 142.0 L 23.0 142.0 L 23.0 192.0 L 20.0 192.0 L 20.0 142.0 Z" fill="#000000" stroke="#000000" stroke-width="0.75" />
<path d="M 25.0 142.0 L 26.0 142.0 L 26.0 192.0 L 25.0 192.0 L 25.0 142.0 Z" fill="#000000" stroke="#000000" stroke-width="0.75" />
<path d="M 332.0 142.0 L 332.0 192.0 Z" fill="#000000" stroke="#000000" stroke-width="0.75" /><g transform="translate(332.0,20.0)">
<path d="M 0.0 0.0 L 202.0 0.0 L 202.0 193.0 L 0.0 193.0 L 0.0 0.0 Z" fill="#ffffff" stroke="none" stroke-width="1.0" />
<path d="M 0.0 30.0 L 202.0 30.0 M 0.0 38.0 L 202.0 38.0 M 0.0 46.0 L 202.0 46.0 M 0.0 54.0 L 202.0 54.0 M 0.0 62.0 L 202.0 62.0 Z" fill="none" stroke="#d6d6d6" stroke-width="0.75" />
<path d="M 0.0 122.0 L 202.0 122.0 M 0.0 132.0 L 202.0 132.0 M 0.0 142.0 L 202.0 142.0 M 0.0 152.0 L 202.0 152.0 M 0.0 162.0 L 202.0 162.0 M 0.0 172.0 L 202.0 172.0 Z" fill="none" stroke="#d6d6d6" stroke-width="0.75" />
<path d="M 21.0 70.0 L 37.0 70.0 Z" fill="none" stroke="#d6d6d6" stroke-width="0.75" />
<path d="M 21.0 78.0 L 37.0 78.0 Z" fill="none" stroke="#d6d6d6" stroke-width="0.75" />
<path d="M 21.0 86.0 L 37.0 86.0 Z" fill="none" stroke="#d6d6d6" stroke-width="0.75" />
<path d="M 21.0 70.0 L 37.0 70.0 Z" fill="none" stroke="#d6d6d6" stroke-width="0.75" />
<path d="M 21.0 78.0 L 37.0 78.0 Z" fill="none" stroke="#d6d6d6" stroke-width="0.75" />
<path d="M 21.0 86.0 L 37.0 86.0 Z" fill="none" stroke="#d6d6d6" stroke-width="0.75" />
<path d="M 5.0 90.0 C 5.0 94.0 22.0 94.0 22.0 90.0 C 22.0 92.0 5.0 92.0 5.0 90.0 Z" fill="#404040" stroke="none" stroke-width="0.75" />
<path d="M 24.52 91.232 C 24.52 92.456 25.7152 93.68 26.896 93.68 C 30.496 93.68 34.096 91.232 34.096 88.856 C 34.096 87.6752 32.872 86.48 31.720001 86.48 C 28.12 86.48 24.52 88.856 24.52 91.232 Z" fill="#404040" stroke="none" stroke-width="1.0" />
<path d="M 33.18 89.04 L 34.18 89.04 L 34.18 58.0 L 33.18 58.0 M 33.18 89.04 Z" fill="#404040" stroke="none" stroke-width="0.75" />
<path d="M 38.33 73.95 C 38.455 74.0 38.73 73.95 38.83 73.9 C 38.98 73.8 39.03 73.75 39.18 73.475 C 39.705 72.5 40.13 71.3 40.305 70.3 C 40.655 68.325 40.405 66.875 39.405 65.225 C 38.955 64.45 38.405 63.75 37.18 62.375 C 35.905 60.9 35.505 60.375 35.005 59.675 C 34.505 58.9 34.155 58.175 33.93 57.45 C 33.805 57.0 33.705 56.325 33.705 55.95 L 33.705 55.825 L 33.455 55.825 L 33.18 55.825 L 33.18 58.95 L 33.18 62.075 L 33.455 62.075 L 33.73 62.075 L 34.38 62.525 C 36.23 63.75 37.355 64.75 38.155 65.825 C 39.13 67.15 39.405 68.25 39.13 69.9 C 38.955 70.95 38.53 72.025 37.98 72.975 C 37.855 73.15 37.83 73.225 37.83 73.3 C 37.83 73.6 38.03 73.85 38.33 73.95 Z" fill="#404040" stroke="none" stroke-width="0.75" />
<path d="M 46.491554 40.729687 C 46.953724 40.666664 47.352875 40.79271 47.66799 41.08682 C 47.85706 41.296898 47.94109 41.46496 48.06714 41.969147 C 48.13016 42.200233 48.193188 42.43132 48.214195 42.473335 C 48.298225 42.662403 48.44528 42.788452 48.63435 42.80946 C 48.71838 42.80946 48.760395 42.80946 48.865437 42.746437 C 49.13854 42.620388 49.78978 41.8431 50.041874 41.35992 C 50.104897 41.212868 50.209934 41.149845 50.314972 41.149845 C 50.399002 41.149845 50.504044 41.212868 50.54606 41.27589 C 50.567066 41.317905 50.356987 42.05318 49.243576 45.77156 C 48.529312 48.20846 47.920082 50.246212 47.899075 50.267227 C 47.899075 50.288246 47.815044 50.35125 47.731014 50.372265 C 47.60497 50.43529 47.58396 50.43529 47.415897 50.43529 C 47.247833 50.43529 47.20582 50.43529 47.079773 50.39328 C 47.016747 50.35125 46.932716 50.30924 46.932716 50.288246 C 46.8907 50.267227 47.037754 49.889088 48.109154 46.842957 C 48.781403 44.973263 49.327606 43.418686 49.3066 43.418686 L 48.949467 43.523724 C 48.193188 43.775818 47.731014 43.859848 47.163803 43.859848 C 46.701633 43.859848 46.575584 43.83884 46.23946 43.67078 C 45.315117 43.229614 45.0 42.15822 45.525196 41.35992 C 45.75628 41.044804 46.11341 40.79271 46.491554 40.729687 Z" fill="#404040" stroke="none" stroke-width="0.75" />
<path d="M 61.0 70.0 L 77.0 70.0 Z" fill="none" stroke="#d6d6d6" stroke-width="0.75" />
<path d="M 61.0 78.0 L 77.0 78.0 Z" fill="none" stroke="#d6d6d6" stroke-width="0.75" />
<path d="M 61.0 86.0 L 77.0 86.0 Z" fill="none" stroke="#d6d6d6" stroke-width="0.75" />
<path d="M 61.0 70.0 L 77.0 70.0 Z" fill="none" stroke="#d6d6d6" stroke-width="0.75" />
<path d="M 61.0 78.0 L 77.0 78.0 Z" fill="none" stroke="#d6d6d6" stroke-width="0.75" />
<path d="M 61.0 86.0 L 77.0 86.0 Z" fill="none" stroke="#d6d6d6" stroke-width="0.75" />
<path d="M 64.52 91.232 C 64.52 92.456 65.715195 93.68 66.895996 93.68 C 70.495995 93.68 74.09599 91.232 74.09599 88.856 C 74.09599 87.6752 72.871994 86.48 71.71999 86.48 C 68.119995 86.48 64.52 88.856 64.52 91.232 Z" fill="#404040" stroke="none" stroke-width="1.0" />
<path d="M 63.0 168.25 L 71.0 168.25 L 71.0 175.75 L 63.0 175.75 L 63.0 168.25 Z" fill="#ffffff" stroke="none" stroke-width="1.0" />
<text x='63.0' y='175.75' font-family="Default" font-size="10.0" fill="#404040" >0</text>
<path d="M 73.18 89.04 L 74.18 89.04 L 74.18 58.0 L 73.18 58.0 M 73.18 89.04 Z" fill="#404040" stroke="none" stroke-width="0.75" />
<path d="M 78.33 73.95 C 78.455 74.0 78.73 73.95 78.83 73.9 C 78.98 73.8 79.03 73.75 79.18 73.475 C 79.705 72.5 80.13 71.3 80.305 70.3 C 80.655 68.325 80.405 66.875 79.405 65.225 C 78.955 64.45 78.405 63.75 77.18 62.375 C 75.905 60.9 75.505 60.375 75.005 59.675 C 74.505 58.9 74.155 58.175 73.93 57.45 C 73.805 57.0 73.705 56.325 73.705 55.95 L 73.705 55.825 L 73.455 55.825 L 73.18 55.825 L 73.18 58.95 L 73.18 62.075 L 73.455 62.075 L 73.73 62.075 L 74.38 62.525 C 76.23 63.75 77.355 64.75 78.155 65.825 C 79.13 67.15 79.405 68.25 79.13 69.9 C 78.955 70.95 78.53 72.025 77.98 72.975 C 77.855 73.15 77.83 73.225 77.83 73.3 C 77.83 73.6 78.03 73.85 78.33 73.95 Z" fill="#404040" stroke="none" stroke-width="0.75" />
<path d="M 81.0 70.0 L 97.0 70.0 Z" fill="none" stroke="#d6d6d6" stroke-width="0.75" />
<path d="M 81.0 78.0 L 97.0 78.0 Z" fill="none" stroke="#d6d6d6" stroke-width="0.75" />
<path d="M 81.0 70.0 L 97.0 70.0 Z" fill="none" stroke="#d6d6d6" stroke-width="0.75" />
<path d="M 81.0 78.0 L 97.0 78.0 Z" fill="none" stroke="#d6d6d6" stroke-width="0.75" />
<path d="M 84.52 83.232 C 84.52 84.456 85.715195 85.68 86.895996 85.68 C 90.495995 85.68 94.09599 83.232 94.09599 80.856 C 94.09599 79.6752 92.871994 78.48 91.71999 78.48 C 88.119995 78.48 84.52 80.856 84.52 83.232 Z" fill="#404040" stroke="none" stroke-width="1.0" />
<path d="M 83.0 168.25 L 91.0 168.25 L 91.0 175.75 L 83.0 175.75 L 83.0 168.25 Z" fill="#ffffff" stroke="none" stroke-width="1.0" />
<text x='83.0' y='175.75' font-family="Default" font-size="10.0" fill="#404040" >3</text>
<path d="M 93.18 81.04 L 94.18 81.04 L 94.18 50.0 L 93.18 50.0 M 93.18 81.04 Z" fill="#404040" stroke="none" stroke-width="0.75" />
<path d="M 98.33 65.95 C 98.455 66.0 98.73 65.95 98.83 65.9 C 98.98 65.8 99.03 65.75 99.18 65.475 C 99.705 64.5 100.13 63.3 100.305 62.3 C 100.655 60.325 100.405 58.875 99.405 57.225 C 98.955 56.45 98.405 55.75 97.18 54.375 C 95.905 52.9 95.505 52.375 95.005 51.675 C 94.505 50.9 94.155 50.175 93.93 49.45 C 93.805 49.0 93.705 48.325 93.705 47.95 L 93.705 47.825 L 93.455 47.825 L 93.18 47.825 L 93.18 50.95 L 93.18 54.075 L 93.455 54.075 L 93.73 54.075 L 94.38 54.525 C 96.23 55.75 97.355 56.75 98.155 57.825 C 99.13 59.15 99.405 60.25 99.13 61.9 C 98.955 62.95 98.53 64.025 97.98 64.975 C 97.855 65.15 97.83 65.225 97.83 65.3 C 97.83 65.6 98.03 65.85 98.33 65.95 Z" fill="#404040" stroke="none" stroke-width="0.75" />
<path d="M 106.491554 40.729687 C 106.95373 40.666664 107.352875 40.79271 107.66799 41.08682 C 107.85706 41.296898 107.94109 41.46496 108.06714 41.969147 C 108.130165 42.200233 108.193184 42.43132 108.214195 42.473335 C 108.298225 42.662403 108.44528 42.788452 108.634346 42.80946 C 108.71838 42.80946 108.7604 42.80946 108.86543 42.746437 C 109.138535 42.620388 109.78978 41.8431 110.04187 41.35992 C 110.1049 41.212868 110.20993 41.149845 110.31497 41.149845 C 110.399 41.149845 110.50404 41.212868 110.54606 41.27589 C 110.56707 41.317905 110.35699 42.05318 109.243576 45.77156 C 108.52931 48.20846 107.92008 50.246212 107.89908 50.267227 C 107.89908 50.288246 107.81505 50.35125 107.73101 50.372265 C 107.604965 50.43529 107.58396 50.43529 107.41589 50.43529 C 107.24783 50.43529 107.20582 50.43529 107.07977 50.39328 C 107.01675 50.35125 106.93272 50.30924 106.93272 50.288246 C 106.8907 50.267227 107.03776 49.889088 108.10915 46.842957 C 108.7814 44.973263 109.32761 43.418686 109.306595 43.418686 L 108.94946 43.523724 C 108.193184 43.775818 107.73101 43.859848 107.1638 43.859848 C 106.70163 43.859848 106.575584 43.83884 106.23946 43.67078 C 105.31512 43.229614 105.0 42.15822 105.52519 41.35992 C 105.75628 41.044804 106.11341 40.79271 106.491554 40.729687 Z" fill="#404040" stroke="none" stroke-width="0.75" />
<path d="M 121.0 70.0 L 137.0 70.0 Z" fill="none" stroke="#d6d6d6" stroke-width="0.75" />
<path d="M 121.0 78.0 L 137.0 78.0 Z" fill="none" stroke="#d6d6d6" stroke-width="0.75" />
<path d="M 121.0 86.0 L 137.0 86.0 Z" fill="none" stroke="#d6d6d6" stroke-width="0.75" />
<path d="M 121.0 70.0 L 137.0 70.0 Z" fill="none" stroke="#d6d6d6" stroke-width="0.75" />
<path d="M 121.0 78.0 L 137.0 78.0 Z" fill="none" stroke="#d6d6d6" stroke-width="0.75" />
<path d="M 121.0 86.0 L 137.0 86.0 Z" fill="none" stroke="#d6d6d6" stroke-width="0.75" />
<path d="M 124.52 91.232 C 124.52 92.456 125.715195 93.68 126.895996 93.68 C 130.496 93.68 134.096 91.232 134.096 88.856 C 134.096 87.6752 132.872 86.48 131.72 86.48 C 128.12 86.48 124.52 88.856 124.52 91.232 Z" fill="#404040" stroke="none" stroke-width="1.0" />
<path d="M 123.0 168.25 L 131.0 168.25 L 131.0 175.75 L 123.0 175.75 L 123.0 168.25 Z" fill="#ffffff" stroke="none" stroke-width="1.0" />
<text x='123.0' y='175.75' font-family="Default" font-size="10.0" fill="#404040" >0</text>
<path d="M 133.18 89.04 L 134.18 89.04 L 134.18 58.0 L 133.18 58.0 M 133.18 89.04 Z" fill="#404040" stroke="none" stroke-width="0.75" />
<path d="M 138.32999 73.95 C 138.45499 74.0 138.73 73.95 138.82999 73.9 C 138.98 73.8 139.03 73.75 139.18 73.475 C 139.70499 72.5 140.12999 71.3 140.305 70.3 C 140.655 68.325 140.405 66.875 139.405 65.225 C 138.95499 64.45 138.405 63.75 137.18 62.375 C 135.905 60.9 135.50499 60.375 135.00499 59.675 C 134.50499 58.9 134.155 58.175 133.93 57.45 C 133.805 57.0 133.70499 56.325 133.70499 55.95 L 133.70499 55.825 L 133.45499 55.825 L 133.18 55.825 L 133.18 58.95 L 133.18 62.075 L 133.45499 62.075 L 133.73 62.075 L 134.37999 62.525 C 136.23 63.75 137.355 64.75 138.155 65.825 C 139.12999 67.15 139.405 68.25 139.12999 69.9 C 138.95499 70.95 138.53 72.025 137.98 72.975 C 137.855 73.15 137.82999 73.225 137.82999 73.3 C 137.82999 73.6 138.03 73.85 138.32999 73.95 Z" fill="#404040" stroke="none" stroke-width="0.75" />
<path d="M 141.0 70.0 L 157.0 70.0 Z" fill="none" stroke="#d6d6d6" stroke-width="0.75" />
<path d="M 141.0 78.0 L 157.0 78.0 Z" fill="none" stroke="#d6d6d6" stroke-width="0.75" />
<path d="M 141.0 70.0 L 157.0 70.0 Z" fill="none" stroke="#d6d6d6" stroke-width="0.75" />
<path d="M 141.0 78.0 L 157.0 78.0 Z" fill="none" stroke="#d6d6d6" stroke-width="0.75" />
<path d="M 144.52 79.232 C 144.52 80.456 145.71521 81.68 146.89601 81.68 C 150.496 81.68 154.09601 79.232 154.09601 76.856 C 154.09601 75.6752 152.87201 74.48 151.72 74.48 C 148.12001 74.48 144.52 76.856 144.52 79.232 Z" fill="#404040" stroke="none" stroke-width="1.0" />
<path d="M 143.0 168.25 L 151.0 168.25 L 151.0 175.75 L 143.0 175.75 L 143.0 168.25 Z" fill="#ffffff" stroke="none" stroke-width="1.0" />
<text x='143.0' y='175.75' font-family="Default" font-size="10.0" fill="#404040" >5</text>
<path d="M 152.0 172.0 L 153.0 172.0 C 153.0 172.0 155.0 172.0 155.0 170.0 M 155.0 170.0 L 155.0 102.0 M 155.0 102.0 L 153.0 104.0 M 155.0 102.0 L 157.0 104.0 Z" fill="none" stroke="#404040" stroke-width="1.0" />
<text x='151.0' y='101.5' font-family="Default" font-size="10.0" fill="#404040" >1/2</text>
<path d="M 153.18 77.04 L 154.18 77.04 L 154.18 46.0 L 153.18 46.0 M 153.18 77.04 Z" fill="#404040" stroke="none" stroke-width="0.75" />
<path d="M 162.0 70.0 L 178.0 70.0 Z" fill="none" stroke="#d6d6d6" stroke-width="0.75" />
<path d="M 162.0 78.0 L 178.0 78.0 Z" fill="none" stroke="#d6d6d6" stroke-width="0.75" />
<path d="M 162.0 70.0 L 178.0 70.0 Z" fill="none" stroke="#d6d6d6" stroke-width="0.75" />
<path d="M 162.0 78.0 L 178.0 78.0 Z" fill="none" stroke="#d6d6d6" stroke-width="0.75" />
<path d="M 165.52 79.232 C 165.52 80.456 166.71521 81.68 167.89601 81.68 C 171.496 81.68 175.09601 79.232 175.09601 76.856 C 175.09601 75.6752 173.87201 74.48 172.72 74.48 C 169.12001 74.48 165.52 76.856 165.52 79.232 Z" fill="#404040" stroke="none" stroke-width="1.0" />
<path d="M 164.0 168.25 L 172.0 168.25 L 172.0 175.75 L 164.0 175.75 L 164.0 168.25 Z" fill="#ffffff" stroke="none" stroke-width="1.0" />
<text x='164.0' y='175.75' font-family="Default" font-size="10.0" fill="#404040" >5</text>
<path d="M 173.0 172.0 L 174.0 172.0 C 174.0 172.0 176.0 172.0 176.0 170.0 M 176.0 170.0 L 176.0 102.0 M 176.0 102.0 L 174.0 104.0 M 176.0 102.0 L 178.0 104.0 Z" fill="none" stroke="#404040" stroke-width="1.0" />
<text x='172.0' y='101.5' font-family="Default" font-size="10.0" fill="#404040" >1/2</text>
<path d="M 174.18 77.04 L 175.18 77.04 L 175.18 46.0 L 174.18 46.0 M 174.18 77.04 Z" fill="#404040" stroke="none" stroke-width="0.75" />
<path d="M 19.66 28.0 L 19.66 24.0 L 42.67 24.0 M 75.68 28.0 L 75.68 24.0 L 52.67 24.0 Z" fill="none" stroke="#404040" stroke-width="1.0" />
<text x='43.67' y='27.75' font-family="Default" font-size="10.0" fill="#404040" >3</text>
<path d="M 79.66 28.0 L 79.66 24.0 L 102.67 24.0 M 135.68 28.0 L 135.68 24.0 L 112.67 24.0 Z" fill="none" stroke="#404040" stroke-width="1.0" />
<text x='103.67' y='27.75' font-family="Default" font-size="10.0" fill="#404040" >3</text></g>
<text x='333.0' y='48.0' font-family="Default" font-size="10.0" fill="#ff0000" >2</text>
<path d="M 332.0 50.0 L 332.0 82.0 Z" fill="#000000" stroke="#000000" stroke-width="0.75" />
<path d="M 528.0 50.0 L 529.0 50.0 L 529.0 82.0 L 528.0 82.0 L 528.0 50.0 Z" fill="#000000" stroke="#000000" stroke-width="0.75" />
<path d="M 531.0 50.0 L 534.0 50.0 L 534.0 82.0 L 531.0 82.0 L 531.0 50.0 Z" fill="#000000" stroke="#000000" stroke-width="0.75" />
<path d="M 332.0 142.0 L 332.0 192.0 Z" fill="#000000" stroke="#000000" stroke-width="0.75" />
<path d="M 528.0 142.0 L 529.0 142.0 L 529.0 192.0 L 528.0 192.0 L 528.0 142.0 Z" fill="#000000" stroke="#000000" stroke-width="0.75" />
<path d="M 531.0 142.0 L 534.0 142.0 L 534.0 192.0 L 531.0 192.0 L 531.0 142.0 Z" fill="#000000" stroke="#000000" stroke-width="0.75" />
<path d="M 536.0 50.0 L 930.0 50.0 M 536.0 58.0 L 930.0 58.0 M 536.0 66.0 L 930.0 66.0 M 536.0 74.0 L 930.0 74.0 M 536.0 82.0 L 930.0 82.0 Z" fill="none" stroke="#d6d6d6" stroke-width="0.75" />
<path d="M 536.0 142.0 L 930.0 142.0 M 536.0 152.0 L 930.0 152.0 M 536.0 162.0 L 930.0 162.0 M 536.0 172.0 L 930.0 172.0 M 536.0 182.0 L 930.0 182.0 M 536.0 192.0 L 930.0 192.0 Z" fill="none" stroke="#d6d6d6" stroke-width="0.75" />
</svg>