<svg width="960.0px" height="234.0px" xmlns="http://www.w3.org/2000/svg" version="1.1">

<path d="M 0.0 0.0 L 960.0 0.0 L 960.0 234.0 L 0.0 234.0 L 0.0 0.0 Z" fill="#ffffff" stroke="none" stroke-width="1.0" /><g transform="translate(20.0,20.0)">
<path d="M 0.0 0.0 L 312.0 0.0 L 312.0 203.0 L 0.0 203.0 L 0.0 0.0 Z" fill="#ffffff" stroke="none" stroke-width="1.0" />
<path d="M 0.0 36.0 L 312.0 36.0 M 0.0 44.0 L 312.0 44.0 M 0.0 52.0 L 312.0 52.0 M 0.0 60.0 L 312.0 60.0 M 0.0 68.0 L 312.0 68.0 Z" fill="none" stroke="#d6d6d6" stroke-width="0.75" />
<path d="M 0.0 132.0 L 312.0 132.0 M 0.0 142.0 L 312.0 142.0 M 0.0 152.0 L 312.0 152.0 M 0.0 162.0 L 312.0 162.0 M 0.0 172.0 L 312.0 172.0 M 0.0 182.0 L 312.0 182.0 Z" fill="none" stroke="#d6d6d6" stroke-width="0.75" />
<path d="M 67.77043 36.40856 C 68.324905 36.40856 68.821014 36.350193 69.25876 36.20428 C 69.6965 36.058365 69.959145 36.0 70.04669 36.0 C 70.192604 36.0 70.28015 36.029182 70.36771 36.11673 C 70.42607 36.1751 70.45525 36.233463 70.484436 36.32101 C 70.484436 36.37938 70.45525 36.437744 70.42607 36.49611 L 61.933853 46.35992 L 66.924126 46.35992 L 66.924126 42.449417 C 66.924126 42.18677 67.01167 41.95331 67.1284 41.807392 C 67.3035 41.661476 67.4786 41.515564 67.71206 41.4572 C 67.97471 41.340466 68.26653 41.07782 68.64591 40.640076 C 68.937744 40.319065 69.317116 39.706226 69.75486 38.801556 C 69.81323 38.684826 69.90078 38.626457 70.01751 38.626457 C 70.28015 38.626457 70.39688 38.772373 70.42607 39.03502 L 70.42607 46.35992 L 72.55642 46.35992 C 72.84825 46.35992 72.99416 46.505836 73.023346 46.797665 C 73.023346 47.089493 72.877426 47.235405 72.55642 47.235405 L 70.42607 47.235405 L 70.42607 47.468872 C 70.42607 48.28599 70.63035 48.928013 71.00973 49.45331 C 71.44747 49.9786 71.97276 50.270428 72.5856 50.270428 C 72.81906 50.270428 72.9358 50.387157 72.9358 50.62062 C 72.9358 50.854084 72.81906 50.970818 72.5856 50.970818 C 72.14786 50.970818 71.50584 50.91245 70.601166 50.79572 C 69.696495 50.649803 69.054474 50.59144 68.64591 50.59144 C 68.23735 50.59144 67.56615 50.649803 66.69066 50.79572 C 65.81517 50.91245 65.17315 50.970818 64.735405 50.970818 C 64.501945 50.970818 64.385216 50.854084 64.385216 50.62062 C 64.385216 50.387157 64.501945 50.270428 64.735405 50.270428 C 65.34825 50.270428 65.87354 49.9786 66.31128 49.45331 C 66.71984 48.89883 66.924126 48.25681 66.924126 47.468872 L 66.924126 47.235405 L 61.933853 47.235405 C 61.61284 47.235405 61.379375 47.17704 61.233463 47.001945 C 61.087547 46.885212 61.0 46.710114 61.0 46.53502 C 61.0 46.476654 61.145912 46.272373 61.437744 45.92218 C 61.729572 45.571983 62.079765 45.105057 62.488327 44.492218 C 62.488327 44.492218 63.305447 43.20817 63.71401 42.449417 C 63.71401 42.449417 64.47276 40.78599 64.735405 39.706226 C 65.02724 38.65564 65.17315 37.575874 65.17315 36.49611 C 65.17315 36.175095 65.31907 36.029182 65.58171 36.029182 C 65.61089 36.029182 65.756805 36.058365 65.96109 36.11673 C 66.16537 36.175095 66.4572 36.233463 66.77821 36.32101 C 67.1284 36.379375 67.44942 36.408558 67.77043 36.408558 Z" fill="#000000" stroke="none" stroke-width="0.75" />
<path d="M 67.77043 53.40856 C 68.324905 53.40856 68.821014 53.350193 69.25876 53.20428 C 69.6965 53.058365 69.959145 53.0 70.04669 53.0 C 70.192604 53.0 70.28015 53.029182 70.36771 53.11673 C 70.42607 53.1751 70.45525 53.233463 70.484436 53.32101 C 70.484436 53.37938 70.45525 53.437744 70.42607 53.49611 L 61.933853 63.35992 L 66.924126 63.35992 L 66.924126 59.449417 C 66.924126 59.18677 67.01167 58.95331 67.1284 58.807392 C 67.3035 58.661476 67.4786 58.515564 67.71206 58.4572 C 67.97471 58.340466 68.26653 58.07782 68.64591 57.640076 C 68.937744 57.319065 69.317116 56.706226 69.75486 55.801556 C 69.81323 55.684826 69.90078 55.626457 70.01751 55.626457 C 70.28015 55.626457 70.39688 55.772373 70.42607 56.03502 L 70.42607 63.35992 L 72.55642 63.35992 C 72.84825 63.35992 72.99416 63.505836 73.023346 63.797665 C 73.023346 64.08949 72.877426 64.235405 72.55642 64.235405 L 70.42607 64.235405 L 70.42607 64.46887 C 70.42607 65.28599 70.63035 65.92802 71.00973 66.45331 C 71.44747 66.9786 71.97276 67.270424 72.5856 67.270424 C 72.81906 67.270424 72.9358 67.38716 72.9358 67.62062 C 72.9358 67.85408 72.81906 67.97082 72.5856 67.97082 C 72.14786 67.97082 71.50584 67.91245 70.601166 67.795715 C 69.696495 67.6498 69.054474 67.59144 68.64591 67.59144 C 68.23735 67.59144 67.56615 67.6498 66.69066 67.795715 C 65.81517 67.91245 65.17315 67.97082 64.735405 67.97082 C 64.501945 67.97082 64.385216 67.85408 64.385216 67.62062 C 64.385216 67.38716 64.501945 67.270424 64.735405 67.270424 C 65.34825 67.270424 65.87354 66.9786 66.31128 66.45331 C 66.71984 65.898834 66.924126 65.256805 66.924126 64.46887 L 66.924126 64.235405 L 61.933853 64.235405 C 61.61284 64.235405 61.379375 64.17704 61.233463 64.001945 C 61.087547 63.885212 61.0 63.710114 61.0 63.53502 C 61.0 63.476654 61.145912 63.272373 61.437744 62.92218 C 61.729572 62.571983 62.079765 62.105057 62.488327 61.492218 C 62.488327 61.492218 63.305447 60.20817 63.71401 59.449417 C 63.71401 59.449417 64.47276 57.78599 64.735405 56.706226 C 65.02724 55.65564 65.17315 54.575874 65.17315 53.49611 C 65.17315 53.175095 65.31907 53.029182 65.58171 53.029182 C 65.61089 53.029182 65.756805 53.058365 65.96109 53.11673 C 66.16537 53.175095 66.4572 53.233463 66.77821 53.32101 C 67.1284 53.379375 67.44942 53.408558 67.77043 53.408558 Z" fill="#000000" stroke="none" stroke-width="0.75" />
<path d="M 22.764973 28.115383 C 22.921913 28.036913 22.948072 28.036913 23.105015 28.036913 C 23.314268 28.06307 23.445057 28.14154 23.73278 28.455425 C 25.616081 30.39104 27.185501 33.843758 27.577856 36.773342 C 27.630169 37.244167 27.630169 38.34276 27.577856 38.839737 C 27.29013 41.533905 26.165377 43.99266 23.57584 47.52385 L 23.209644 48.020832 L 23.418898 48.62244 C 23.915882 50.061073 24.491331 51.81359 24.85753 53.095284 C 24.96216 53.409164 25.04063 53.67074 25.04063 53.696896 C 25.04063 53.696896 25.223728 53.696896 25.406826 53.723053 C 26.322319 53.80152 27.10703 54.01078 27.917896 54.40313 C 28.57182 54.74317 29.147274 55.13552 29.696568 55.658665 C 30.29818 56.260277 30.690535 56.80957 31.05673 57.568123 C 31.606026 58.666718 31.84144 59.81762 31.81528 60.96853 C 31.789125 61.700924 31.684496 62.25022 31.449085 62.930305 C 31.1352 63.924263 30.559748 64.83976 29.77504 65.624466 C 29.094955 66.30455 28.46719 66.72306 27.630169 67.0631 L 27.316284 67.193886 L 27.316284 68.13554 C 27.316284 69.46954 27.237814 71.038956 27.133184 71.980606 C 27.02856 72.94841 26.766989 73.86391 26.348476 74.700935 C 25.249886 76.92427 23.314268 78.10133 21.143244 77.89209 C 18.684484 77.65667 16.69656 75.98262 16.199577 73.73312 C 15.964161 72.713 16.068794 71.9283 16.487303 71.27437 C 17.036598 70.411194 18.082878 69.914215 19.102997 69.94037 C 20.30622 69.99268 21.274027 70.934326 21.457123 72.24218 C 21.58791 73.28845 21.143244 74.25626 20.30622 74.7794 C 19.835394 75.06713 19.181469 75.197914 18.684484 75.119446 C 18.606018 75.119446 18.527544 75.093285 18.527544 75.119446 L 18.84143 75.43333 C 19.416882 76.00878 20.070807 76.374985 20.907831 76.558075 C 21.090927 76.584236 21.247868 76.584236 21.666382 76.584236 C 22.137207 76.584236 22.189518 76.584236 22.451088 76.53192 C 22.81729 76.42729 23.131172 76.29651 23.418898 76.139565 C 24.726748 75.35486 25.616081 73.73312 25.851494 71.77136 C 25.929964 71.038956 26.008434 69.46954 26.008434 68.318634 C 26.008434 67.56009 26.008434 67.50777 25.956123 67.50777 C 25.851494 67.56009 25.302197 67.6124 24.909843 67.63855 C 24.41286 67.66471 23.57584 67.66471 23.183485 67.6124 C 21.640223 67.4293 20.227747 66.90616 18.998373 66.04298 C 17.167385 64.76129 15.859535 62.851826 15.31024 60.654644 C 14.604002 57.908165 15.100986 54.978584 16.827343 51.89206 C 17.55974 50.610374 18.265978 49.564095 20.018494 47.236122 L 21.012455 45.902122 L 20.829355 45.405136 C 19.573822 42.083202 19.15531 40.173744 19.024527 37.401108 C 18.972214 36.197887 19.024527 35.17776 19.181469 34.34074 C 19.573822 32.14356 20.593945 30.181787 22.189518 28.612366 C 22.503403 28.298483 22.63419 28.193855 22.764973 28.115383 M 24.831371 32.588226 C 24.569805 32.14356 24.622118 32.169712 24.386707 32.32666 C 23.65431 32.771324 22.89576 33.451405 22.34646 34.131485 C 21.221714 35.57012 20.593945 37.244167 20.515476 39.048996 C 20.489319 39.78139 20.56779 40.252216 20.907831 41.37696 C 21.169397 42.292458 21.901793 44.5158 21.95411 44.56811 C 21.95411 44.59427 22.111048 44.411175 22.26799 44.17576 C 24.072823 41.58622 25.04063 39.467506 25.406826 37.348793 C 25.485298 36.799496 25.53761 36.354828 25.563768 35.727062 C 25.589928 34.28843 25.432985 33.58219 24.831371 32.588226 M 22.581877 50.191864 C 22.424934 49.694878 22.26799 49.302525 22.26799 49.302525 C 22.241835 49.302525 21.143244 50.76731 20.672415 51.421238 C 19.129156 53.592266 18.187506 55.34478 17.638206 57.071136 C 17.27201 58.143574 17.115068 59.137543 17.062756 60.236134 C 17.062756 60.837746 17.088915 61.20394 17.193539 61.64861 C 17.795153 63.976578 20.280064 65.88603 23.209644 66.30455 C 23.65431 66.35686 24.909843 66.35686 25.459139 66.30455 C 26.008434 66.226074 25.956123 66.252235 25.929964 66.01682 C 25.773026 63.53191 25.563768 62.014805 25.14526 59.765305 C 24.988314 58.823658 24.543648 56.835728 24.517488 56.80957 C 24.491331 56.783417 23.99435 56.835728 23.706627 56.9142 C 23.340427 56.99267 23.105015 57.071136 22.79113 57.22808 C 21.090927 58.091263 20.593945 60.053036 21.666382 61.64861 C 21.849482 61.91018 22.320305 62.381004 22.608032 62.564102 C 22.71266 62.642574 22.948072 62.799515 23.105015 62.877987 C 23.340427 63.00877 23.392738 63.061085 23.445057 63.165714 C 23.65431 63.505756 23.523525 63.924263 23.131172 64.10736 C 22.921913 64.21199 22.764973 64.18584 22.34646 63.976578 C 21.326344 63.4796 20.56779 62.799515 20.018494 61.962494 C 18.998373 60.393074 18.867586 58.37899 19.70461 56.678787 C 20.437006 55.213997 21.744852 54.22003 23.418898 53.853836 C 23.57584 53.80152 23.706627 53.775368 23.706627 53.775368 C 23.73278 53.749207 23.000385 51.368923 22.581877 50.191864 M 26.139221 56.94036 C 26.060753 56.94036 25.98228 56.9142 25.956123 56.9142 L 25.877651 56.88804 L 26.008434 57.43734 C 26.610046 60.07919 27.054714 62.956455 27.211655 65.38905 C 27.237814 65.65063 27.237814 65.85988 27.237814 65.85988 C 27.263973 65.85988 27.60401 65.70294 27.78711 65.57216 C 28.231777 65.31058 28.65029 64.91823 28.99033 64.47356 C 29.801197 63.401123 30.08892 62.06712 29.77504 60.706955 C 29.539627 59.608364 28.911861 58.58824 28.022522 57.882008 C 27.473227 57.463493 26.740831 57.097298 26.139221 56.94036 Z" fill="#000000" stroke="none" stroke-width="0.75" />
<path d="M 92.0 76.0 L 108.0 76.0 Z" fill="none" stroke="#d6d6d6" stroke-width="0.75" />
<path d="M 92.0 84.0 L 108.0 84.0 Z" fill="none" stroke="#d6d6d6" stroke-width="0.75" />
<path d="M 92.0 92.0 L 108.0 92.0 Z" fill="none" stroke="#d6d6d6" stroke-width="0.75" />
<path d="M 92.0 100.0 L 108.0 100.0 Z" fill="none" stroke="#d6d6d6" stroke-width="0.75" />
<path d="M 92.0 76.0 L 108.0 76.0 Z" fill="none" stroke="#d6d6d6" stroke-width="0.75" />
<path d="M 92.0 84.0 L 108.0 84.0 Z" fill="none" stroke="#d6d6d6" stroke-width="0.75" />
<path d="M 92.0 92.0 L 108.0 92.0 Z" fill="none" stroke="#d6d6d6" stroke-width="0.75" />
<path d="M 92.0 100.0 L 108.0 100.0 Z" fill="none" stroke="#d6d6d6" stroke-width="0.75" />
<path d="M 93.46439 93.63119 C 93.59136 93.55864 93.79088 93.61305 93.863434 93.7763 C 93.89971 93.84885 93.89971 93.90327 93.89971 95.172935 C 93.89971 95.9166 93.89971 96.51516 93.91785 96.51516 C 93.91785 96.51516 94.08109 96.44261 94.28061 96.370056 C 94.69779 96.20681 94.752205 96.188675 94.86103 96.279366 C 94.988 96.370056 94.988 96.38819 94.988 97.11372 C 94.988 97.73042 94.988 97.784836 94.95172 97.83925 C 94.933586 97.87553 94.89731 97.911804 94.87917 97.92994 C 94.842896 97.94808 94.62524 98.05691 94.3713 98.1476 L 93.91785 98.34712 L 93.89971 99.816315 C 93.89971 100.614395 93.89971 101.28551 93.91785 101.28551 C 93.91785 101.28551 94.08109 101.21295 94.28061 101.140396 C 94.69779 100.97716 94.752205 100.959015 94.86103 101.049706 C 94.988 101.140396 94.988 101.15854 94.988 101.88406 C 94.988 102.50076 94.988 102.555176 94.95172 102.60959 C 94.933586 102.64587 94.89731 102.682144 94.87917 102.70028 C 94.842896 102.71842 94.62524 102.82725 94.3713 102.91794 L 93.91785 103.11746 L 93.89971 104.64107 C 93.89971 106.01957 93.88157 106.182816 93.863434 106.23723 C 93.736465 106.45489 93.428116 106.45489 93.30115 106.23723 C 93.28301 106.182816 93.26487 106.037704 93.26487 104.768036 L 93.26487 103.3714 L 92.48493 103.67974 L 91.72313 103.98809 L 91.72313 105.45728 C 91.72313 107.01717 91.72313 106.980896 91.63244 107.07159 C 91.59616 107.126 91.46919 107.18041 91.41478 107.18041 C 91.342224 107.18041 91.215256 107.126 91.178986 107.07159 C 91.08829 106.980896 91.08829 107.01717 91.08829 105.602394 C 91.08829 104.85873 91.08829 104.26017 91.07015 104.26017 C 91.07015 104.26017 90.906906 104.33272 90.70739 104.40527 C 90.290215 104.56851 90.235794 104.586655 90.12697 104.495964 C 90.0 104.40527 90.0 104.38713 90.0 103.661606 C 90.0 103.04491 90.0 102.99049 90.03628 102.93608 C 90.05441 102.8998 90.09069 102.863525 90.108826 102.84539 C 90.1451 102.82725 90.36276 102.71842 90.6167 102.62773 L 91.08829 102.42821 L 91.08829 100.959015 C 91.08829 100.160934 91.08829 99.48982 91.07015 99.48982 C 91.07015 99.48982 90.906906 99.56238 90.70739 99.63493 C 90.290215 99.79817 90.235794 99.816315 90.12697 99.725624 C 90.0 99.63493 90.0 99.61679 90.0 98.891266 C 90.0 98.27457 90.0 98.22015 90.03628 98.16573 C 90.05441 98.12946 90.09069 98.093185 90.108826 98.07504 C 90.1451 98.05691 90.36276 97.94808 90.6167 97.85739 L 91.08829 97.65787 L 91.08829 96.13426 C 91.08829 94.75576 91.10643 94.592514 91.124565 94.5381 C 91.25153 94.32044 91.55988 94.32044 91.68685 94.5381 C 91.70499 94.592514 91.72313 94.73762 91.72313 96.00729 L 91.741264 97.40393 L 92.50307 97.09558 L 93.26487 96.78723 L 93.26487 95.31804 C 93.26487 93.93954 93.26487 93.84885 93.30115 93.7763 C 93.337425 93.70374 93.3737 93.667465 93.46439 93.63119 M 93.26487 100.070244 L 93.26487 98.60105 L 92.48493 98.9094 L 91.72313 99.21775 L 91.72313 100.705086 L 91.72313 102.17428 L 91.77754 102.156136 C 91.81382 102.138 92.15845 101.9929 92.55749 101.847786 L 93.26487 101.55758 L 93.26487 100.070244 Z" fill="#404040" stroke="none" stroke-width="0.75" />
<path d="M 95.52 101.232 C 95.52 102.456 96.715195 103.68 97.895996 103.68 C 101.495995 103.68 105.09599 101.232 105.09599 98.856 C 105.09599 97.6752 103.871994 96.48 102.71999 96.48 C 99.119995 96.48 95.52 98.856 95.52 101.232 Z" fill="#404040" stroke="none" stroke-width="1.0" />
<path d="M 94.0 178.25 L 102.0 178.25 L 102.0 185.75 L 94.0 185.75 L 94.0 178.25 Z" fill="#ffffff" stroke="none" stroke-width="1.0" />
<text x='94.0' y='185.75' font-family="Default" font-size="10.0" fill="#404040" >0</text>
<path d="M 104.18 99.04 L 105.18 99.04 L 105.18 68.0 L 104.18 68.0 M 104.18 99.04 Z" fill="#404040" stroke="none" stroke-width="0.75" />
<path d="M 113.0 76.0 L 129.0 76.0 Z" fill="none" stroke="#d6d6d6" stroke-width="0.75" />
<path d="M 113.0 84.0 L 129.0 84.0 Z" fill="none" stroke="#d6d6d6" stroke-width="0.75" />
<path d="M 113.0 92.0 L 129.0 92.0 Z" fill="none" stroke="#d6d6d6" stroke-width="0.75" />
<path d="M 113.0 76.0 L 129.0 76.0 Z" fill="none" stroke="#d6d6d6" stroke-width="0.75" />
<path d="M 113.0 84.0 L 129.0 84.0 Z" fill="none" stroke="#d6d6d6" stroke-width="0.75" />
<path d="M 113.0 92.0 L 129.0 92.0 Z" fill="none" stroke="#d6d6d6" stroke-width="0.75" />
<path d="M 114.46439 85.63119 C 114.59136 85.55864 114.79088 85.61305 114.863434 85.7763 C 114.89971 85.84885 114.89971 85.90327 114.89971 87.172935 C 114.89971 87.9166 114.89971 88.51516 114.91785 88.51516 C 114.91785 88.51516 115.08109 88.44261 115.28061 88.370056 C 115.69779 88.20681 115.752205 88.188675 115.86103 88.279366 C 115.988 88.370056 115.988 88.38819 115.988 89.11372 C 115.988 89.73042 115.988 89.784836 115.95172 89.83925 C 115.933586 89.87553 115.89731 89.911804 115.87917 89.92994 C 115.842896 89.94808 115.62524 90.05691 115.3713 90.1476 L 114.91785 90.34712 L 114.89971 91.816315 C 114.89971 92.614395 114.89971 93.28551 114.91785 93.28551 C 114.91785 93.28551 115.08109 93.21295 115.28061 93.140396 C 115.69779 92.97716 115.752205 92.959015 115.86103 93.049706 C 115.988 93.140396 115.988 93.15854 115.988 93.88406 C 115.988 94.50076 115.988 94.555176 115.95172 94.60959 C 115.933586 94.64587 115.89731 94.682144 115.87917 94.70028 C 115.842896 94.71842 115.62524 94.82725 115.3713 94.91794 L 114.91785 95.11746 L 114.89971 96.64107 C 114.89971 98.01957 114.88157 98.182816 114.863434 98.23723 C 114.736465 98.45489 114.428116 98.45489 114.30115 98.23723 C 114.28301 98.182816 114.26487 98.037704 114.26487 96.768036 L 114.26487 95.3714 L 113.48493 95.67974 L 112.72313 95.98809 L 112.72313 97.45728 C 112.72313 99.01717 112.72313 98.980896 112.63244 99.07159 C 112.59616 99.126 112.46919 99.18041 112.41478 99.18041 C 112.342224 99.18041 112.215256 99.126 112.178986 99.07159 C 112.08829 98.980896 112.08829 99.01717 112.08829 97.602394 C 112.08829 96.85873 112.08829 96.26017 112.07015 96.26017 C 112.07015 96.26017 111.906906 96.33272 111.70739 96.40527 C 111.290215 96.56851 111.235794 96.586655 111.12697 96.495964 C 111.0 96.40527 111.0 96.38713 111.0 95.661606 C 111.0 95.04491 111.0 94.99049 111.03628 94.93608 C 111.05441 94.8998 111.09069 94.863525 111.108826 94.84539 C 111.1451 94.82725 111.36276 94.71842 111.6167 94.62773 L 112.08829 94.42821 L 112.08829 92.959015 C 112.08829 92.160934 112.08829 91.48982 112.07015 91.48982 C 112.07015 91.48982 111.906906 91.56238 111.70739 91.63493 C 111.290215 91.79817 111.235794 91.816315 111.12697 91.725624 C 111.0 91.63493 111.0 91.61679 111.0 90.891266 C 111.0 90.27457 111.0 90.22015 111.03628 90.16573 C 111.05441 90.12946 111.09069 90.093185 111.108826 90.07504 C 111.1451 90.05691 111.36276 89.94808 111.6167 89.85739 L 112.08829 89.65787 L 112.08829 88.13426 C 112.08829 86.75576 112.10643 86.592514 112.124565 86.5381 C 112.25153 86.32044 112.55988 86.32044 112.68685 86.5381 C 112.70499 86.592514 112.72313 86.73762 112.72313 88.00729 L 112.741264 89.40393 L 113.50307 89.09558 L 114.26487 88.78723 L 114.26487 87.31804 C 114.26487 85.93954 114.26487 85.84885 114.30115 85.7763 C 114.337425 85.70374 114.3737 85.667465 114.46439 85.63119 M 114.26487 92.070244 L 114.26487 90.60105 L 113.48493 90.9094 L 112.72313 91.21775 L 112.72313 92.705086 L 112.72313 94.17428 L 112.77754 94.156136 C 112.81382 94.138 113.15845 93.9929 113.55749 93.847786 L 114.26487 93.55758 L 114.26487 92.070244 Z" fill="#404040" stroke="none" stroke-width="0.75" />
<path d="M 116.52 93.232 C 116.52 94.456 117.715195 95.68 118.895996 95.68 C 122.495995 95.68 126.09599 93.232 126.09599 90.856 C 126.09599 89.6752 124.871994 88.48 123.71999 88.48 C 120.119995 88.48 116.52 90.856 116.52 93.232 Z" fill="#404040" stroke="none" stroke-width="1.0" />
<path d="M 115.0 178.25 L 123.0 178.25 L 123.0 185.75 L 115.0 185.75 L 115.0 178.25 Z" fill="#ffffff" stroke="none" stroke-width="1.0" />
<text x='115.0' y='185.75' font-family="Default" font-size="10.0" fill="#404040" >3</text>
<path d="M 125.18 91.04 L 126.18 91.04 L 126.18 60.0 L 125.18 60.0 M 125.18 91.04 Z" fill="#404040" stroke="none" stroke-width="0.75" />
<path d="M 130.33 75.95 C 130.455 76.0 130.73 75.95 130.83 75.9 C 130.98 75.8 131.03 75.75 131.18 75.475 C 131.705 74.5 132.13 73.3 132.305 72.3 C 132.655 70.325 132.405 68.875 131.405 67.225 C 130.955 66.45 130.405 65.75 129.18 64.375 C 127.905 62.9 127.505 62.375 127.005 61.675 C 126.505 60.9 126.155 60.175 125.93 59.45 C 125.805 59.0 125.705 58.325 125.705 57.95 L 125.705 57.825 L 125.455 57.825 L 125.18 57.825 L 125.18 60.95 L 125.18 64.075 L 125.455 64.075 L 125.73 64.075 L 126.38 64.525 C 128.23 65.75 129.355 66.75 130.155 67.825 C 131.13 69.15 131.405 70.25 131.13 71.9 C 130.955 72.95 130.53 74.025 129.98 74.975 C 129.855 75.15 129.83 75.225 129.83 75.3 C 129.83 75.6 130.03 75.85 130.33 75.95 Z" fill="#404040" stroke="none" stroke-width="0.75" />
<path d="M 138.49155 46.729687 C 138.95372 46.666664 139.35287 46.79271 139.66798 47.08682 C 139.85706 47.296898 139.94109 47.46496 140.06714 47.969147 C 140.13016 48.200233 140.19319 48.43132 140.21419 48.473335 C 140.29822 48.662403 140.44528 48.788452 140.63435 48.80946 C 140.71838 48.80946 140.76039 48.80946 140.86543 48.746437 C 141.13853 48.620388 141.78978 47.8431 142.04187 47.35992 C 142.10489 47.212868 142.20993 47.149845 142.31497 47.149845 C 142.399 47.149845 142.50404 47.212868 142.54605 47.27589 C 142.56706 47.317905 142.357 48.05318 141.24358 51.77156 C 140.52931 54.20846 139.92009 56.246212 139.89908 56.267227 C 139.89908 56.288246 139.81505 56.35125 139.73102 56.372265 C 139.60497 56.43529 139.58395 56.43529 139.4159 56.43529 C 139.24783 56.43529 139.20583 56.43529 139.07977 56.39328 C 139.01675 56.35125 138.93272 56.30924 138.93272 56.288246 C 138.8907 56.267227 139.03775 55.889088 140.10916 52.842957 C 140.7814 50.973263 141.3276 49.418686 141.3066 49.418686 L 140.94946 49.523724 C 140.19319 49.775818 139.73102 49.859848 139.1638 49.859848 C 138.70163 49.859848 138.57558 49.83884 138.23946 49.67078 C 137.31512 49.229614 137.0 48.15822 137.52519 47.35992 C 137.75629 47.044804 138.11342 46.79271 138.49155 46.729687 Z" fill="#404040" stroke="none" stroke-width="0.75" />
<path d="M 153.0 76.0 L 169.0 76.0 Z" fill="none" stroke="#d6d6d6" stroke-width="0.75" />
<path d="M 153.0 84.0 L 169.0 84.0 Z" fill="none" stroke="#d6d6d6" stroke-width="0.75" />
<path d="M 153.0 92.0 L 169.0 92.0 Z" fill="none" stroke="#d6d6d6" stroke-width="0.75" />
<path d="M 153.0 100.0 L 169.0 100.0 Z" fill="none" stroke="#d6d6d6" stroke-width="0.75" />
<path d="M 153.0 76.0 L 169.0 76.0 Z" fill="none" stroke="#d6d6d6" stroke-width="0.75" />
<path d="M 153.0 84.0 L 169.0 84.0 Z" fill="none" stroke="#d6d6d6" stroke-width="0.75" />
<path d="M 153.0 92.0 L 169.0 92.0 Z" fill="none" stroke="#d6d6d6" stroke-width="0.75" />
<path d="M 153.0 100.0 L 169.0 100.0 Z" fill="none" stroke="#d6d6d6" stroke-width="0.75" />
<path d="M 156.52 101.232 C 156.52 102.456 157.71521 103.68 158.89601 103.68 C 162.496 103.68 166.09601 101.232 166.09601 98.856 C 166.09601 97.6752 164.87201 96.48 163.72 96.48 C 160.12001 96.48 156.52 98.856 156.52 101.232 Z" fill="#404040" stroke="none" stroke-width="1.0" />
<path d="M 155.0 178.25 L 163.0 178.25 L 163.0 185.75 L 155.0 185.75 L 155.0 178.25 Z" fill="#ffffff" stroke="none" stroke-width="1.0" />
<text x='155.0' y='185.75' font-family="Default" font-size="10.0" fill="#404040" >0</text>
<path d="M 165.18 99.04 L 166.18 99.04 L 166.18 68.0 L 165.18 68.0 M 165.18 99.04 Z" fill="#404040" stroke="none" stroke-width="0.75" />
<path d="M 170.32999 83.95 C 170.45499 84.0 170.73 83.95 170.82999 83.9 C 170.98 83.8 171.03 83.75 171.18 83.475 C 171.70499 82.5 172.12999 81.3 172.305 80.3 C 172.655 78.325 172.405 76.875 171.405 75.225 C 170.95499 74.45 170.405 73.75 169.18 72.375 C 167.905 70.9 167.50499 70.375 167.00499 69.675 C 166.50499 68.9 166.155 68.175 165.93 67.45 C 165.805 67.0 165.70499 66.325 165.70499 65.95 L 165.70499 65.825 L 165.45499 65.825 L 165.18 65.825 L 165.18 68.95 L 165.18 72.075 L 165.45499 72.075 L 165.73 72.075 L 166.37999 72.525 C 168.23 73.75 169.355 74.75 170.155 75.825 C 171.12999 77.15 171.405 78.25 171.12999 79.9 C 170.95499 80.95 170.53 82.025 169.98 82.975 C 169.855 83.15 169.82999 83.225 169.82999 83.3 C 169.82999 83.6 170.03 83.85 170.32999 83.95 Z" fill="#404040" stroke="none" stroke-width="0.75" />
<path d="M 173.0 76.0 L 189.0 76.0 Z" fill="none" stroke="#d6d6d6" stroke-width="0.75" />
<path d="M 173.0 84.0 L 189.0 84.0 Z" fill="none" stroke="#d6d6d6" stroke-width="0.75" />
<path d="M 173.0 76.0 L 189.0 76.0 Z" fill="none" stroke="#d6d6d6" stroke-width="0.75" />
<path d="M 173.0 84.0 L 189.0 84.0 Z" fill="none" stroke="#d6d6d6" stroke-width="0.75" />
<path d="M 174.46439 81.63119 C 174.59135 81.55864 174.79088 81.61305 174.86343 81.7763 C 174.8997 81.84885 174.8997 81.90327 174.8997 83.172935 C 174.8997 83.9166 174.8997 84.51516 174.91785 84.51516 C 174.91785 84.51516 175.08109 84.44261 175.28061 84.370056 C 175.69778 84.20681 175.7522 84.188675 175.86104 84.279366 C 175.988 84.370056 175.988 84.38819 175.988 85.11372 C 175.988 85.73042 175.988 85.784836 175.95172 85.83925 C 175.93358 85.87553 175.89731 85.911804 175.87917 85.92994 C 175.8429 85.94808 175.62524 86.05691 175.3713 86.1476 L 174.91785 86.34712 L 174.8997 87.816315 C 174.8997 88.614395 174.8997 89.28551 174.91785 89.28551 C 174.91785 89.28551 175.08109 89.21295 175.28061 89.140396 C 175.69778 88.97716 175.7522 88.959015 175.86104 89.049706 C 175.988 89.140396 175.988 89.15854 175.988 89.88406 C 175.988 90.50076 175.988 90.555176 175.95172 90.60959 C 175.93358 90.64587 175.89731 90.682144 175.87917 90.70028 C 175.8429 90.71842 175.62524 90.82725 175.3713 90.91794 L 174.91785 91.11746 L 174.8997 92.64107 C 174.8997 94.01957 174.88158 94.182816 174.86343 94.23723 C 174.73647 94.45489 174.42812 94.45489 174.30115 94.23723 C 174.283 94.182816 174.26488 94.037704 174.26488 92.768036 L 174.26488 91.3714 L 173.48492 91.67974 L 172.72313 91.98809 L 172.72313 93.45728 C 172.72313 95.01717 172.72313 94.980896 172.63243 95.07159 C 172.59616 95.126 172.4692 95.18041 172.41478 95.18041 C 172.34222 95.18041 172.21526 95.126 172.17899 95.07159 C 172.08829 94.980896 172.08829 95.01717 172.08829 93.602394 C 172.08829 92.85873 172.08829 92.26017 172.07016 92.26017 C 172.07016 92.26017 171.9069 92.33272 171.70738 92.40527 C 171.2902 92.56851 171.2358 92.586655 171.12697 92.495964 C 171.0 92.40527 171.0 92.38713 171.0 91.661606 C 171.0 91.04491 171.0 90.99049 171.03627 90.93608 C 171.05441 90.8998 171.0907 90.863525 171.10883 90.84539 C 171.14511 90.82725 171.36276 90.71842 171.6167 90.62773 L 172.08829 90.42821 L 172.08829 88.959015 C 172.08829 88.160934 172.08829 87.48982 172.07016 87.48982 C 172.07016 87.48982 171.9069 87.56238 171.70738 87.63493 C 171.2902 87.79817 171.2358 87.816315 171.12697 87.725624 C 171.0 87.63493 171.0 87.61679 171.0 86.891266 C 171.0 86.27457 171.0 86.22015 171.03627 86.16573 C 171.05441 86.12946 171.0907 86.093185 171.10883 86.07504 C 171.14511 86.05691 171.36276 85.94808 171.6167 85.85739 L 172.08829 85.65787 L 172.08829 84.13426 C 172.08829 82.75576 172.10643 82.592514 172.12457 82.5381 C 172.25154 82.32044 172.55989 82.32044 172.68684 82.5381 C 172.70499 82.592514 172.72313 82.73762 172.72313 84.00729 L 172.74127 85.40393 L 173.50307 85.09558 L 174.26488 84.78723 L 174.26488 83.31804 C 174.26488 81.93954 174.26488 81.84885 174.30115 81.7763 C 174.33743 81.70374 174.3737 81.667465 174.46439 81.63119 M 174.26488 88.070244 L 174.26488 86.60105 L 173.48492 86.9094 L 172.72313 87.21775 L 172.72313 88.705086 L 172.72313 90.17428 L 172.77754 90.156136 C 172.81381 90.138 173.15845 89.9929 173.55748 89.847786 L 174.26488 89.55758 L 174.26488 88.070244 Z" fill="#404040" stroke="none" stroke-width="0.75" />
<path d="M 176.52 89.232 C 176.52 90.456 177.71521 91.68 178.89601 91.68 C 182.496 91.68 186.09601 89.232 186.09601 86.856 C 186.09601 85.6752 184.87201 84.48 183.72 84.48 C 180.12001 84.48 176.52 86.856 176.52 89.232 Z" fill="#404040" stroke="none" stroke-width="1.0" />
<path d="M 175.0 178.25 L 183.0 178.25 L 183.0 185.75 L 175.0 185.75 L 175.0 178.25 Z" fill="#ffffff" stroke="none" stroke-width="1.0" />
<text x='175.0' y='185.75' font-family="Default" font-size="10.0" fill="#404040" >5</text>
<path d="M 185.18 87.04 L 186.18 87.04 L 186.18 56.0 L 185.18 56.0 M 185.18 87.04 Z" fill="#404040" stroke="none" stroke-width="0.75" />
<path d="M 190.32999 71.95 C 190.45499 72.0 190.73 71.95 190.82999 71.9 C 190.98 71.8 191.03 71.75 191.18 71.475 C 191.70499 70.5 192.12999 69.3 192.305 68.3 C 192.655 66.325 192.405 64.875 191.405 63.225 C 190.95499 62.45 190.405 61.75 189.18 60.375 C 187.905 58.9 187.50499 58.375 187.00499 57.675 C 186.50499 56.9 186.155 56.175 185.93 55.45 C 185.805 55.0 185.70499 54.325 185.70499 53.95 L 185.70499 53.825 L 185.45499 53.825 L 185.18 53.825 L 185.18 56.95 L 185.18 60.075 L 185.45499 60.075 L 185.73 60.075 L 186.37999 60.525 C 188.23 61.75 189.355 62.75 190.155 63.825 C 191.12999 65.15 191.405 66.25 191.12999 67.9 C 190.95499 68.95 190.53 70.025 189.98 70.975 C 189.855 71.15 189.82999 71.225 189.82999 71.3 C 189.82999 71.6 190.03 71.85 190.32999 71.95 Z" fill="#404040" stroke="none" stroke-width="0.75" />
<path d="M 198.49155 46.729687 C 198.95372 46.666664 199.35287 46.79271 199.66798 47.08682 C 199.85706 47.296898 199.94109 47.46496 200.06714 47.969147 C 200.13016 48.200233 200.19319 48.43132 200.21419 48.473335 C 200.29822 48.662403 200.44528 48.788452 200.63435 48.80946 C 200.71838 48.80946 200.76039 48.80946 200.86543 48.746437 C 201.13853 48.620388 201.78978 47.8431 202.04187 47.35992 C 202.10489 47.212868 202.20993 47.149845 202.31497 47.149845 C 202.399 47.149845 202.50404 47.212868 202.54605 47.27589 C 202.56706 47.317905 202.357 48.05318 201.24358 51.77156 C 200.52931 54.20846 199.92009 56.246212 199.89908 56.267227 C 199.89908 56.288246 199.81505 56.35125 199.73102 56.372265 C 199.60497 56.43529 199.58395 56.43529 199.4159 56.43529 C 199.24783 56.43529 199.20583 56.43529 199.07977 56.39328 C 199.01675 56.35125 198.93272 56.30924 198.93272 56.288246 C 198.8907 56.267227 199.03775 55.889088 200.10916 52.842957 C 200.7814 50.973263 201.3276 49.418686 201.3066 49.418686 L 200.94946 49.523724 C 200.19319 49.775818 199.73102 49.859848 199.1638 49.859848 C 198.70163 49.859848 198.57558 49.83884 198.23946 49.67078 C 197.31512 49.229614 197.0 48.15822 197.52519 47.35992 C 197.75629 47.044804 198.11342 46.79271 198.49155 46.729687 Z" fill="#404040" stroke="none" stroke-width="0.75" />
<path d="M 213.0 76.0 L 229.0 76.0 Z" fill="none" stroke="#d6d6d6" stroke-width="0.75" />
<path d="M 213.0 84.0 L 229.0 84.0 Z" fill="none" stroke="#d6d6d6" stroke-width="0.75" />
<path d="M 213.0 92.0 L 229.0 92.0 Z" fill="none" stroke="#d6d6d6" stroke-width="0.75" />
<path d="M 213.0 100.0 L 229.0 100.0 Z" fill="none" stroke="#d6d6d6" stroke-width="0.75" />
<path d="M 213.0 76.0 L 229.0 76.0 Z" fill="none" stroke="#d6d6d6" stroke-width="0.75" />
<path d="M 213.0 84.0 L 229.0 84.0 Z" fill="none" stroke="#d6d6d6" stroke-width="0.75" />
<path d="M 213.0 92.0 L 229.0 92.0 Z" fill="none" stroke="#d6d6d6" stroke-width="0.75" />
<path d="M 213.0 100.0 L 229.0 100.0 Z" fill="none" stroke="#d6d6d6" stroke-width="0.75" />
<path d="M 216.52 101.232 C 216.52 102.456 217.71521 103.68 218.89601 103.68 C 222.496 103.68 226.09601 101.232 226.09601 98.856 C 226.09601 97.6752 224.87201 96.48 223.72 96.48 C 220.12001 96.48 216.52 98.856 216.52 101.232 Z" fill="#404040" stroke="none" stroke-width="1.0" />
<path d="M 215.0 178.25 L 223.0 178.25 L 223.0 185.75 L 215.0 185.75 L 215.0 178.25 Z" fill="#ffffff" stroke="none" stroke-width="1.0" />
<text x='215.0' y='185.75' font-family="Default" font-size="10.0" fill="#404040" >0</text>
<path d="M 225.18 99.04 L 226.18 99.04 L 226.18 68.0 L 225.18 68.0 M 225.18 99.04 Z" fill="#404040" stroke="none" stroke-width="0.75" />
<path d="M 230.32999 83.95 C 230.45499 84.0 230.73 83.95 230.82999 83.9 C 230.98 83.8 231.03 83.75 231.18 83.475 C 231.70499 82.5 232.12999 81.3 232.305 80.3 C 232.655 78.325 232.405 76.875 231.405 75.225 C 230.95499 74.45 230.405 73.75 229.18 72.375 C 227.905 70.9 227.50499 70.375 227.00499 69.675 C 226.50499 68.9 226.155 68.175 225.93 67.45 C 225.805 67.0 225.70499 66.325 225.70499 65.95 L 225.70499 65.825 L 225.45499 65.825 L 225.18 65.825 L 225.18 68.95 L 225.18 72.075 L 225.45499 72.075 L 225.73 72.075 L 226.37999 72.525 C 228.23 73.75 229.355 74.75 230.155 75.825 C 231.12999 77.15 231.405 78.25 231.12999 79.9 C 230.95499 80.95 230.53 82.025 229.98 82.975 C 229.855 83.15 229.82999 83.225 229.82999 83.3 C 229.82999 83.6 230.03 83.85 230.32999 83.95 Z" fill="#404040" stroke="none" stroke-width="0.75" />
<path d="M 233.0 76.0 L 249.0 76.0 Z" fill="none" stroke="#d6d6d6" stroke-width="0.75" />
<path d="M 233.0 84.0 L 249.0 84.0 Z" fill="none" stroke="#d6d6d6" stroke-width="0.75" />
<path d="M 233.0 92.0 L 249.0 92.0 Z" fill="none" stroke="#d6d6d6" stroke-width="0.75" />
<path d="M 233.0 76.0 L 249.0 76.0 Z" fill="none" stroke="#d6d6d6" stroke-width="0.75" />
<path d="M 233.0 84.0 L 249.0 84.0 Z" fill="none" stroke="#d6d6d6" stroke-width="0.75" />
<path d="M 233.0 92.0 L 249.0 92.0 Z" fill="none" stroke="#d6d6d6" stroke-width="0.75" />
<path d="M 236.52 93.232 C 236.52 94.456 237.71521 95.68 238.89601 95.68 C 242.496 95.68 246.09601 93.232 246.09601 90.856 C 246.09601 89.6752 244.87201 88.48 243.72 88.48 C 240.12001 88.48 236.52 90.856 236.52 93.232 Z" fill="#404040" stroke="none" stroke-width="1.0" />
<path d="M 235.0 178.25 L 243.0 178.25 L 243.0 185.75 L 235.0 185.75 L 235.0 178.25 Z" fill="#ffffff" stroke="none" stroke-width="1.0" />
<text x='235.0' y='185.75' font-family="Default" font-size="10.0" fill="#404040" >3</text>
<path d="M 245.18 91.04 L 246.18 91.04 L 246.18 60.0 L 245.18 60.0 M 245.18 91.04 Z" fill="#404040" stroke="none" stroke-width="0.75" />
<path d="M 250.32999 75.95 C 250.45499 76.0 250.73 75.95 250.82999 75.9 C 250.98 75.8 251.03 75.75 251.18 75.475 C 251.70499 74.5 252.12999 73.3 252.305 72.3 C 252.655 70.325 252.405 68.875 251.405 67.225 C 250.95499 66.45 250.405 65.75 249.18 64.375 C 247.905 62.9 247.50499 62.375 247.00499 61.675 C 246.50499 60.9 246.155 60.175 245.93 59.45 C 245.805 59.0 245.70499 58.325 245.70499 57.95 L 245.70499 57.825 L 245.45499 57.825 L 245.18 57.825 L 245.18 60.95 L 245.18 64.075 L 245.45499 64.075 L 245.73 64.075 L 246.37999 64.525 C 248.23 65.75 249.355 66.75 250.155 67.825 C 251.12999 69.15 251.405 70.25 251.12999 71.9 C 250.95499 72.95 250.53 74.025 249.98 74.975 C 249.855 75.15 249.82999 75.225 249.82999 75.3 C 249.82999 75.6 250.03 75.85 250.32999 75.95 Z" fill="#404040" stroke="none" stroke-width="0.75" />
<path d="M 258.49155 46.729687 C 258.95374 46.666664 259.35287 46.79271 259.668 47.08682 C 259.85706 47.296898 259.9411 47.46496 260.06714 47.969147 C 260.13016 48.200233 260.19318 48.43132 260.2142 48.473335 C 260.29822 48.662403 260.44528 48.788452 260.63434 48.80946 C 260.71838 48.80946 260.7604 48.80946 260.86545 48.746437 C 261.13855 48.620388 261.78976 47.8431 262.04187 47.35992 C 262.1049 47.212868 262.20993 47.149845 262.31497 47.149845 C 262.39902 47.149845 262.50403 47.212868 262.54605 47.27589 C 262.56708 47.317905 262.357 48.05318 261.24356 51.77156 C 260.5293 54.20846 259.92007 56.246212 259.89908 56.267227 C 259.89908 56.288246 259.81503 56.35125 259.73102 56.372265 C 259.60498 56.43529 259.58395 56.43529 259.4159 56.43529 C 259.24783 56.43529 259.2058 56.43529 259.07977 56.39328 C 259.01675 56.35125 258.9327 56.30924 258.9327 56.288246 C 258.89072 56.267227 259.03775 55.889088 260.10916 52.842957 C 260.7814 50.973263 261.3276 49.418686 261.3066 49.418686 L 260.94946 49.523724 C 260.19318 49.775818 259.73102 49.859848 259.16382 49.859848 C 258.70163 49.859848 258.5756 49.83884 258.23947 49.67078 C 257.31512 49.229614 257.0 48.15822 257.5252 47.35992 C 257.7563 47.044804 258.1134 46.79271 258.49155 46.729687 Z" fill="#404040" stroke="none" stroke-width="0.75" />
<path d="M 273.0 76.0 L 289.0 76.0 Z" fill="none" stroke="#d6d6d6" stroke-width="0.75" />
<path d="M 273.0 84.0 L 289.0 84.0 Z" fill="none" stroke="#d6d6d6" stroke-width="0.75" />
<path d="M 273.0 92.0 L 289.0 92.0 Z" fill="none" stroke="#d6d6d6" stroke-width="0.75" />
<path d="M 273.0 100.0 L 289.0 100.0 Z" fill="none" stroke="#d6d6d6" stroke-width="0.75" />
<path d="M 273.0 76.0 L 289.0 76.0 Z" fill="none" stroke="#d6d6d6" stroke-width="0.75" />
<path d="M 273.0 84.0 L 289.0 84.0 Z" fill="none" stroke="#d6d6d6" stroke-width="0.75" />
<path d="M 273.0 92.0 L 289.0 92.0 Z" fill="none" stroke="#d6d6d6" stroke-width="0.75" />
<path d="M 273.0 100.0 L 289.0 100.0 Z" fill="none" stroke="#d6d6d6" stroke-width="0.75" />
<path d="M 276.52 101.232 C 276.52 102.456 277.71518 103.68 278.896 103.68 C 282.496 103.68 286.09598 101.232 286.09598 98.856 C 286.09598 97.6752 284.87198 96.48 283.72 96.48 C 280.12 96.48 276.52 98.856 276.52 101.232 Z" fill="#404040" stroke="none" stroke-width="1.0" />
<path d="M 275.0 178.25 L 283.0 178.25 L 283.0 185.75 L 275.0 185.75 L 275.0 178.25 Z" fill="#ffffff" stroke="none" stroke-width="1.0" />
<text x='275.0' y='185.75' font-family="Default" font-size="10.0" fill="#404040" >0</text>
<path d="M 285.18 99.04 L 286.18 99.04 L 286.18 68.0 L 285.18 68.0 M 285.18 99.04 Z" fill="#404040" stroke="none" stroke-width="0.75" />
<path d="M 290.33 83.95 C 290.455 84.0 290.72998 83.95 290.83 83.9 C 290.97998 83.8 291.03 83.75 291.18 83.475 C 291.705 82.5 292.13 81.3 292.305 80.3 C 292.655 78.325 292.405 76.875 291.405 75.225 C 290.955 74.45 290.405 73.75 289.18 72.375 C 287.905 70.9 287.505 70.375 287.005 69.675 C 286.505 68.9 286.155 68.175 285.93 67.45 C 285.805 67.0 285.705 66.325 285.705 65.95 L 285.705 65.825 L 285.455 65.825 L 285.18 65.825 L 285.18 68.95 L 285.18 72.075 L 285.455 72.075 L 285.72998 72.075 L 286.38 72.525 C 288.22998 73.75 289.35498 74.75 290.155 75.825 C 291.13 77.15 291.405 78.25 291.13 79.9 C 290.955 80.95 290.53 82.025 289.97998 82.975 C 289.85498 83.15 289.83 83.225 289.83 83.3 C 289.83 83.6 290.03 83.85 290.33 83.95 Z" fill="#404040" stroke="none" stroke-width="0.75" />
<path d="M 111.66 18.0 L 111.66 14.0 L 134.67 14.0 M 167.68 18.0 L 167.68 14.0 L 144.67 14.0 Z" fill="none" stroke="#404040" stroke-width="1.0" />
<text x='135.67' y='17.75' font-family="Default" font-size="10.0" fill="#404040" >3</text>
<path d="M 171.66 18.0 L 171.66 14.0 L 194.67 14.0 M 227.68 18.0 L 227.68 14.0 L 204.67 14.0 Z" fill="none" stroke="#404040" stroke-width="1.0" />
<text x='195.67' y='17.75' font-family="Default" font-size="10.0" fill="#404040" >3</text>
<path d="M 231.66 18.0 L 231.66 14.0 L 254.66998 14.0 M 287.68 18.0 L 287.68 14.0 L 264.66998 14.0 Z" fill="none" stroke="#404040" stroke-width="1.0" />
<text x='255.66998' y='17.75' font-family="Default" font-size="10.0" fill="#404040" >3</text></g>
<path d="M 35.35 42.3 C 35.35 43.15 36.18 44.0 37.0 44.0 C 39.5 44.0 42.0 42.3 42.0 40.65 C 42.0 39.83 41.149998 39.0 40.35 39.0 C 37.85 39.0 35.35 40.65 35.35 42.3 Z" fill="#000000" stroke="none" stroke-width="1.0" />
<path d="M 42.0 26.0 L 42.0 40.7 Z" fill="none" stroke="#000000" stroke-width="1.0" />
<text x='43.0' y='42.25' font-family="Default" font-size="10.0" fill="#000000" > = 120</text>
<text x='21.0' y='54.0' font-family="Default" font-size="10.0" fill="#ff0000" >1</text>
<path d="M 20.0 56.0 L 23.0 56.0 L 23.0 152.0 L 20.0 152.0 L 20.0 56.0 Z" fill="#000000" stroke="#000000" stroke-width="0.75" />
<path d="M 25.0 56.0 L 26.0 56.0 L 26.0 152.0 L 25.0 152.0 L 25.0 56.0 Z" fill="#000000" stroke="#000000" stroke-width="0.75" />
<path d="M 332.0 56.0 L 332.0 88.0 Z" fill="#000000" stroke="#000000" stroke-width="0.75" />
<path d="M 20.0 152.0 L 23.0 152.0 L 23.0 202.0 L 20.0 202.0 L 20.0 152.0 Z" fill="#000000" stroke="#000000" stroke-width="0.75" />
<path d="M 25.0 152.0 L 26.0 152.0 L 26.0 202.0 L 25.0 202.0 L 25.0 152.0 Z" fill="#000000" stroke="#000000" stroke-width="0.75" />
<path d="M 332.0 152.0 L 332.0 202.0 Z" fill="#000000" stroke="#000000" stroke-width="0.75" /><g transform="translate(332.0,20.0)">
<path d="M 0.0 0.0 L 241.0 0.0 L 241.0 203.0 L 0.0 203.0 L 0.0 0.0 Z" fill="#ffffff" stroke="none" stroke-width="1.0" />
<path d="M 0.0 36.0 L 241.0 36.0 M 0.0 44.0 L 241.0 44.0 M 0.0 52.0 L 241.0 52.0 M 0.0 60.0 L 241.0 60.0 M 0.0 68.0 L 241.0 68.0 Z" fill="none" stroke="#d6d6d6" stroke-width="0.75" />
<path d="M 0.0 132.0 L 241.0 132.0 M 0.0 142.0 L 241.0 142.0 M 0.0 152.0 L 241.0 152.0 M 0.0 162.0 L 241.0 162.0 M 0.0 172.0 L 241.0 172.0 M 0.0 182.0 L 241.0 182.0 Z" fill="none" stroke="#d6d6d6" stroke-width="0.75" />
<path d="M 21.0 76.0 L 37.0 76.0 Z" fill="none" stroke="#d6d6d6" stroke-width="0.75" />
<path d="M 21.0 84.0 L 37.0 84.0 Z" fill="none" stroke="#d6d6d6" stroke-width="0.75" />
<path d="M 21.0 92.0 L 37.0 92.0 Z" fill="none" stroke="#d6d6d6" stroke-width="0.75" />
<path d="M 21.0 76.0 L 37.0 76.0 Z" fill="none" stroke="#d6d6d6" stroke-width="0.75" />
<path d="M 21.0 84.0 L 37.0 84.0 Z" fill="none" stroke="#d6d6d6" stroke-width="0.75" />
<path d="M 21.0 92.0 L 37.0 92.0 Z" fill="none" stroke="#d6d6d6" stroke-width="0.75" />
<path d="M 5.0 96.0 C 5.0 100.0 22.0 100.0 22.0 96.0 C 22.0 98.0 5.0 98.0 5.0 96.0 Z" fill="#404040" stroke="none" stroke-width="0.75" />
<path d="M 24.52 97.232 C 24.52 98.456 25.7152 99.68 26.896 99.68 C 30.496 99.68 34.096 97.232 34.096 94.856 C 34.096 93.6752 32.872 92.48 31.720001 92.48 C 28.12 92.48 24.52 94.856 24.52 97.232 Z" fill="#404040" stroke="none" stroke-width="1.0" />
<path d="M 33.18 95.04 L 34.18 95.04 L 34.18 64.0 L 33.18 64.0 M 33.18 95.04 Z" fill="#404040" stroke="none" stroke-width="0.75" />
<path d="M 38.33 79.95 C 38.455 80.0 38.73 79.95 38.83 79.9 C 38.98 79.8 39.03 79.75 39.18 79.475 C 39.705 78.5 40.13 77.3 40.305 76.3 C 40.655 74.325 40.405 72.875 39.405 71.225 C 38.955 70.45 38.405 69.75 37.18 68.375 C 35.905 66.9 35.505 66.375 35.005 65.675 C 34.505 64.9 34.155 64.175 33.93 63.45 C 33.805 63.0 33.705 62.325 33.705 61.95 L 33.705 61.825 L 33.455 61.825 L 33.18 61.825 L 33.18 64.95 L 33.18 68.075 L 33.455 68.075 L 33.73 68.075 L 34.38 68.525 C 36.23 69.75 37.355 70.75 38.155 71.825 C 39.13 73.15 39.405 74.25 39.13 75.9 C 38.955 76.95 38.53 78.025 37.98 78.975 C 37.855 79.15 37.83 79.225 37.83 79.3 C 37.83 79.6 38.03 79.85 38.33 79.95 Z" fill="#404040" stroke="none" stroke-width="0.75" />
<path d="M 46.491554 46.729687 C 46.953724 46.666664 47.352875 46.79271 47.66799 47.08682 C 47.85706 47.296898 47.94109 47.46496 48.06714 47.969147 C 48.13016 48.200233 48.193188 48.43132 48.214195 48.473335 C 48.298225 48.662403 48.44528 48.788452 48.63435 48.80946 C 48.71838 48.80946 48.760395 48.80946 48.865437 48.746437 C 49.13854 48.620388 49.78978 47.8431 50.041874 47.35992 C 50.104897 47.212868 50.209934 47.149845 50.314972 47.149845 C 50.399002 47.149845 50.504044 47.212868 50.54606 47.27589 C 50.567066 47.317905 50.356987 48.05318 49.243576 51.77156 C 48.529312 54.20846 47.920082 56.246212 47.899075 56.267227 C 47.899075 56.288246 47.815044 56.35125 47.731014 56.372265 C 47.60497 56.43529 47.58396 56.43529 47.415897 56.43529 C 47.247833 56.43529 47.20582 56.43529 47.079773 56.39328 C 47.016747 56.35125 46.932716 56.30924 46.932716 56.288246 C 46.8907 56.267227 47.037754 55.889088 48.109154 52.842957 C 48.781403 50.973263 49.327606 49.418686 49.3066 49.418686 L 48.949467 49.523724 C 48.193188 49.775818 47.731014 49.859848 47.163803 49.859848 C 46.701633 49.859848 46.575584 49.83884 46.23946 49.67078 C 45.315117 49.229614 45.0 48.15822 45.525196 47.35992 C 45.75628 47.044804 46.11341 46.79271 46.491554 46.729687 Z" fill="#404040" stroke="none" stroke-width="0.75" />
<path d="M 61.0 28.0 L 77.0 28.0 Z" fill="none" stroke="#d6d6d6" stroke-width="0.75" />
<path d="M 61.0 28.0 L 77.0 28.0 Z" fill="none" stroke="#d6d6d6" stroke-width="0.75" />
<path d="M 66.066666 20.8 L 72.46667 27.199999 M 66.066666 27.199999 L 72.46667 20.8 Z" fill="none" stroke="#404040" stroke-width="1.0" />
<path d="M 63.0 138.25 L 71.0 138.25 L 71.0 145.75 L 63.0 145.75 L 63.0 138.25 Z" fill="#ffffff" stroke="none" stroke-width="1.0" />
<text x='63.0' y='145.75' font-family="Default" font-size="10.0" fill="#404040" >X</text>
<path d="M 64.5 24.96 L 65.5 24.96 L 65.5 55.0 L 64.5 55.0 M 64.5 24.96 Z" fill="#404040" stroke="none" stroke-width="0.75" />
<path d="M 69.65 39.05 C 69.775 39.0 70.05 39.05 70.15 39.1 C 70.3 39.2 70.35 39.25 70.5 39.525 C 71.025 40.5 71.45 41.7 71.625 42.7 C 71.975 44.675 71.725 46.125 70.725 47.775 C 70.275 48.55 69.725 49.25 68.5 50.625 C 67.225 52.1 66.825 52.625 66.325 53.325 C 65.825 54.1 65.475 54.825 65.25 55.55 C 65.125 56.0 65.025 56.675 65.025 57.05 L 65.025 57.175 L 64.775 57.175 L 64.5 57.175 L 64.5 54.05 L 64.5 50.925 L 64.775 50.925 L 65.05 50.925 L 65.7 50.475 C 67.55 49.25 68.675 48.25 69.475 47.175 C 70.45 45.85 70.725 44.75 70.45 43.1 C 70.275 42.05 69.85 40.975 69.3 40.025 C 69.175 39.85 69.15 39.775 69.15 39.7 C 69.15 39.4 69.35 39.15 69.65 39.05 Z" fill="#404040" stroke="none" stroke-width="0.75" />
<path d="M 81.0 28.0 L 97.0 28.0 Z" fill="none" stroke="#d6d6d6" stroke-width="0.75" />
<path d="M 81.0 28.0 L 97.0 28.0 Z" fill="none" stroke="#d6d6d6" stroke-width="0.75" />
<path d="M 84.52 25.231998 C 84.52 26.456 85.715195 27.68 86.895996 27.68 C 90.495995 27.68 94.09599 25.231998 94.09599 22.855999 C 94.09599 21.6752 92.871994 20.48 91.71999 20.48 C 88.119995 20.48 84.52 22.855999 84.52 25.231998 Z" fill="#404040" stroke="none" stroke-width="1.0" />
<path d="M 79.5 138.25 L 94.5 138.25 L 94.5 145.75 L 79.5 145.75 L 79.5 138.25 Z" fill="#ffffff" stroke="none" stroke-width="1.0" />
<text x='79.5' y='145.75' font-family="Default" font-size="10.0" fill="#404040" >13</text>
<path d="M 84.5 24.96 L 85.5 24.96 L 85.5 55.0 L 84.5 55.0 M 84.5 24.96 Z" fill="#404040" stroke="none" stroke-width="0.75" />
<path d="M 89.65 39.05 C 89.775 39.0 90.05 39.05 90.15 39.1 C 90.3 39.2 90.35 39.25 90.5 39.525 C 91.025 40.5 91.45 41.7 91.625 42.7 C 91.975 44.675 91.725 46.125 90.725 47.775 C 90.275 48.55 89.725 49.25 88.5 50.625 C 87.225 52.1 86.825 52.625 86.325 53.325 C 85.825 54.1 85.475 54.825 85.25 55.55 C 85.125 56.0 85.025 56.675 85.025 57.05 L 85.025 57.175 L 84.775 57.175 L 84.5 57.175 L 84.5 54.05 L 84.5 50.925 L 84.775 50.925 L 85.05 50.925 L 85.7 50.475 C 87.55 49.25 88.675 48.25 89.475 47.175 C 90.45 45.85 90.725 44.75 90.45 43.1 C 90.275 42.05 89.85 40.975 89.3 40.025 C 89.175 39.85 89.15 39.775 89.15 39.7 C 89.15 39.4 89.35 39.15 89.65 39.05 Z" fill="#404040" stroke="none" stroke-width="0.75" />
<path d="M 106.491554 46.729687 C 106.95373 46.666664 107.352875 46.79271 107.66799 47.08682 C 107.85706 47.296898 107.94109 47.46496 108.06714 47.969147 C 108.130165 48.200233 108.193184 48.43132 108.214195 48.473335 C 108.298225 48.662403 108.44528 48.788452 108.634346 48.80946 C 108.71838 48.80946 108.7604 48.80946 108.86543 48.746437 C 109.138535 48.620388 109.78978 47.8431 110.04187 47.35992 C 110.1049 47.212868 110.20993 47.149845 110.31497 47.149845 C 110.399 47.149845 110.50404 47.212868 110.54606 47.27589 C 110.56707 47.317905 110.35699 48.05318 109.243576 51.77156 C 108.52931 54.20846 107.92008 56.246212 107.89908 56.267227 C 107.89908 56.288246 107.81505 56.35125 107.73101 56.372265 C 107.604965 56.43529 107.58396 56.43529 107.41589 56.43529 C 107.24783 56.43529 107.20582 56.43529 107.07977 56.39328 C 107.01675 56.35125 106.93272 56.30924 106.93272 56.288246 C 106.8907 56.267227 107.03776 55.889088 108.10915 52.842957 C 108.7814 50.973263 109.32761 49.418686 109.306595 49.418686 L 108.94946 49.523724 C 108.193184 49.775818 107.73101 49.859848 107.1638 49.859848 C 106.70163 49.859848 106.575584 49.83884 106.23946 49.67078 C 105.31512 49.229614 105.0 48.15822 105.52519 47.35992 C 105.75628 47.044804 106.11341 46.79271 106.491554 46.729687 Z" fill="#404040" stroke="none" stroke-width="0.75" />
<path d="M 121.0 28.0 L 137.0 28.0 Z" fill="none" stroke="#d6d6d6" stroke-width="0.75" />
<path d="M 121.0 28.0 L 137.0 28.0 Z" fill="none" stroke="#d6d6d6" stroke-width="0.75" />
<path d="M 126.066666 20.8 L 132.46666 27.199999 M 126.066666 27.199999 L 132.46666 20.8 Z" fill="none" stroke="#404040" stroke-width="1.0" />
<path d="M 123.0 138.25 L 131.0 138.25 L 131.0 145.75 L 123.0 145.75 L 123.0 138.25 Z" fill="#ffffff" stroke="none" stroke-width="1.0" />
<text x='123.0' y='145.75' font-family="Default" font-size="10.0" fill="#404040" >X</text>
<path d="M 124.5 24.96 L 125.5 24.96 L 125.5 55.0 L 124.5 55.0 M 124.5 24.96 Z" fill="#404040" stroke="none" stroke-width="0.75" />
<path d="M 129.65 39.05 C 129.775 39.0 130.05 39.05 130.15 39.1 C 130.3 39.2 130.35 39.25 130.5 39.525 C 131.025 40.5 131.45 41.7 131.625 42.7 C 131.975 44.675 131.725 46.125 130.725 47.775 C 130.275 48.55 129.725 49.25 128.5 50.625 C 127.225 52.1 126.825 52.625 126.325 53.325 C 125.825 54.1 125.475 54.825 125.25 55.55 C 125.125 56.0 125.025 56.675 125.025 57.05 L 125.025 57.175 L 124.775 57.175 L 124.5 57.175 L 124.5 54.05 L 124.5 50.925 L 124.775 50.925 L 125.05 50.925 L 125.7 50.475 C 127.55 49.25 128.675 48.25 129.475 47.175 C 130.45 45.85 130.725 44.75 130.45 43.1 C 130.275 42.05 129.85 40.975 129.3 40.025 C 129.175 39.85 129.15 39.775 129.15 39.7 C 129.15 39.4 129.35 39.15 129.65 39.05 Z" fill="#404040" stroke="none" stroke-width="0.75" />
<path d="M 141.0 28.0 L 157.0 28.0 Z" fill="none" stroke="#d6d6d6" stroke-width="0.75" />
<path d="M 141.0 28.0 L 157.0 28.0 Z" fill="none" stroke="#d6d6d6" stroke-width="0.75" />
<path d="M 144.52 25.231998 C 144.52 26.456 145.71521 27.68 146.89601 27.68 C 150.496 27.68 154.09601 25.231998 154.09601 22.855999 C 154.09601 21.6752 152.87201 20.48 151.72 20.48 C 148.12001 20.48 144.52 22.855999 144.52 25.231998 Z" fill="#404040" stroke="none" stroke-width="1.0" />
<path d="M 139.5 138.25 L 154.5 138.25 L 154.5 145.75 L 139.5 145.75 L 139.5 138.25 Z" fill="#ffffff" stroke="none" stroke-width="1.0" />
<text x='139.5' y='145.75' font-family="Default" font-size="10.0" fill="#404040" >13</text>
<path d="M 144.5 24.96 L 145.5 24.96 L 145.5 55.0 L 144.5 55.0 M 144.5 24.96 Z" fill="#404040" stroke="none" stroke-width="0.75" />
<path d="M 149.65 39.05 C 149.775 39.0 150.05 39.05 150.15 39.1 C 150.3 39.2 150.35 39.25 150.5 39.525 C 151.025 40.5 151.45 41.7 151.625 42.7 C 151.975 44.675 151.725 46.125 150.725 47.775 C 150.275 48.55 149.725 49.25 148.5 50.625 C 147.225 52.1 146.825 52.625 146.325 53.325 C 145.825 54.1 145.475 54.825 145.25 55.55 C 145.125 56.0 145.025 56.675 145.025 57.05 L 145.025 57.175 L 144.775 57.175 L 144.5 57.175 L 144.5 54.05 L 144.5 50.925 L 144.775 50.925 L 145.05 50.925 L 145.7 50.475 C 147.55 49.25 148.675 48.25 149.475 47.175 C 150.45 45.85 150.725 44.75 150.45 43.1 C 150.275 42.05 149.85 40.975 149.3 40.025 C 149.175 39.85 149.15 39.775 149.15 39.7 C 149.15 39.4 149.35 39.15 149.65 39.05 Z" fill="#404040" stroke="none" stroke-width="0.75" />
<path d="M 166.49155 46.729687 C 166.95372 46.666664 167.35287 46.79271 167.66798 47.08682 C 167.85706 47.296898 167.94109 47.46496 168.06714 47.969147 C 168.13016 48.200233 168.19319 48.43132 168.21419 48.473335 C 168.29822 48.662403 168.44528 48.788452 168.63435 48.80946 C 168.71838 48.80946 168.76039 48.80946 168.86543 48.746437 C 169.13853 48.620388 169.78978 47.8431 170.04187 47.35992 C 170.10489 47.212868 170.20993 47.149845 170.31497 47.149845 C 170.399 47.149845 170.50404 47.212868 170.54605 47.27589 C 170.56706 47.317905 170.357 48.05318 169.24358 51.77156 C 168.52931 54.20846 167.92009 56.246212 167.89908 56.267227 C 167.89908 56.288246 167.81505 56.35125 167.73102 56.372265 C 167.60497 56.43529 167.58395 56.43529 167.4159 56.43529 C 167.24783 56.43529 167.20583 56.43529 167.07977 56.39328 C 167.01675 56.35125 166.93272 56.30924 166.93272 56.288246 C 166.8907 56.267227 167.03775 55.889088 168.10916 52.842957 C 168.7814 50.973263 169.3276 49.418686 169.3066 49.418686 L 168.94946 49.523724 C 168.19319 49.775818 167.73102 49.859848 167.1638 49.859848 C 166.70163 49.859848 166.57558 49.83884 166.23946 49.67078 C 165.31512 49.229614 165.0 48.15822 165.52519 47.35992 C 165.75629 47.044804 166.11342 46.79271 166.49155 46.729687 Z" fill="#404040" stroke="none" stroke-width="0.75" />
<path d="M 184.52 41.232 C 184.52 42.456 185.71521 43.68 186.89601 43.68 C 190.496 43.68 194.09601 41.232 194.09601 38.856 C 194.09601 37.6752 192.87201 36.48 191.72 36.48 C 188.12001 36.48 184.52 38.856 184.52 41.232 Z" fill="#404040" stroke="none" stroke-width="1.0" />
<path d="M 187.0 107.0 L 187.0 107.0 C 187.0 107.0 188.0 106.0 189.0 107.0 L 191.0 109.0 L 193.0 107.0 C 193.0 107.0 194.0 106.0 195.0 107.0 L 197.0 109.0 L 199.0 107.0 C 199.0 107.0 200.0 106.0 201.0 107.0 L 203.0 109.0 L 204.0 108.0 C 204.0 108.0 205.0 108.0 204.0 109.0 L 203.0 110.0 C 203.0 110.0 202.0 111.0 201.0 110.0 L 199.0 108.0 L 198.0 109.0 L 197.0 110.0 C 197.0 110.0 196.0 111.0 195.0 110.0 L 193.0 108.0 L 192.0 109.0 L 191.0 110.0 C 191.0 110.0 190.0 111.0 189.0 110.0 L 187.0 108.0 L 186.0 109.0 C 186.0 109.0 185.0 109.0 186.0 108.0 L 187.0 107.0 Z" fill="#404040" stroke="none" stroke-width="1.0" />
<path d="M 179.5 148.25 L 194.5 148.25 L 194.5 155.75 L 179.5 155.75 L 179.5 148.25 Z" fill="#ffffff" stroke="none" stroke-width="1.0" />
<text x='179.5' y='155.75' font-family="Default" font-size="10.0" fill="#404040" >10</text>
<path d="M 184.5 40.96 L 185.5 40.96 L 185.5 71.0 L 184.5 71.0 M 184.5 40.96 Z" fill="#404040" stroke="none" stroke-width="0.75" />
<path d="M 189.65 55.05 C 189.775 55.0 190.05 55.05 190.15 55.1 C 190.3 55.2 190.35 55.25 190.5 55.525 C 191.025 56.5 191.45 57.7 191.625 58.7 C 191.975 60.675 191.725 62.125 190.725 63.775 C 190.275 64.55 189.725 65.25 188.5 66.625 C 187.225 68.1 186.825 68.625 186.325 69.325 C 185.825 70.1 185.475 70.825 185.25 71.55 C 185.125 72.0 185.025 72.675 185.025 73.05 L 185.025 73.175 L 184.775 73.175 L 184.5 73.175 L 184.5 70.05 L 184.5 66.925 L 184.775 66.925 L 185.05 66.925 L 185.7 66.475 C 187.55 65.25 188.675 64.25 189.475 63.175 C 190.45 61.85 190.725 60.75 190.45 59.1 C 190.275 58.05 189.85 56.975 189.3 56.025 C 189.175 55.85 189.15 55.775 189.15 55.7 C 189.15 55.4 189.35 55.15 189.65 55.05 Z" fill="#404040" stroke="none" stroke-width="0.75" />
<path d="M 195.0 36.0 C 195.0 32.0 202.0 32.0 202.0 36.0 C 202.0 34.0 195.0 34.0 195.0 36.0 Z" fill="#404040" stroke="none" stroke-width="0.75" />
<path d="M 202.46439 29.631191 C 202.59135 29.558638 202.79088 29.613052 202.86343 29.776297 C 202.8997 29.84885 202.8997 29.903263 202.8997 31.172935 C 202.8997 31.916603 202.8997 32.515163 202.91785 32.515163 C 202.91785 32.515163 203.08109 32.442608 203.28061 32.370056 C 203.69778 32.206814 203.7522 32.188675 203.86104 32.279366 C 203.988 32.370056 203.988 32.388195 203.988 33.113724 C 203.988 33.73042 203.988 33.784836 203.95172 33.83925 C 203.93358 33.875526 203.89731 33.911804 203.87917 33.92994 C 203.8429 33.94808 203.62524 34.056908 203.3713 34.1476 L 202.91785 34.34712 L 202.8997 35.81631 C 202.8997 36.61439 202.8997 37.285503 202.91785 37.285503 C 202.91785 37.285503 203.08109 37.21295 203.28061 37.1404 C 203.69778 36.977154 203.7522 36.95902 203.86104 37.04971 C 203.988 37.1404 203.988 37.15854 203.988 37.884064 C 203.988 38.500763 203.988 38.555176 203.95172 38.609592 C 203.93358 38.64587 203.89731 38.682144 203.87917 38.700283 C 203.8429 38.718422 203.62524 38.82725 203.3713 38.917942 L 202.91785 39.117462 L 202.8997 40.641068 C 202.8997 42.01957 202.88158 42.18281 202.86343 42.23723 C 202.73647 42.454887 202.42812 42.454887 202.30115 42.23723 C 202.283 42.18281 202.26488 42.03771 202.26488 40.768036 L 202.26488 39.371395 L 201.48492 39.679745 L 200.72313 39.988094 L 200.72313 41.457287 C 200.72313 43.01717 200.72313 42.980892 200.63243 43.071587 C 200.59616 43.126 200.4692 43.180412 200.41478 43.180412 C 200.34222 43.180412 200.21526 43.126 200.17899 43.071587 C 200.08829 42.980892 200.08829 43.01717 200.08829 41.60239 C 200.08829 40.858727 200.08829 40.260166 200.07016 40.260166 C 200.07016 40.260166 199.9069 40.332718 199.70738 40.405273 C 199.2902 40.568516 199.2358 40.586655 199.12697 40.495964 C 199.0 40.405273 199.0 40.387135 199.0 39.661606 C 199.0 39.044907 199.0 38.990494 199.03627 38.936077 C 199.05441 38.899803 199.0907 38.863525 199.10883 38.845387 C 199.14511 38.82725 199.36276 38.718422 199.6167 38.62773 L 200.08829 38.42821 L 200.08829 36.95902 C 200.08829 36.16094 200.08829 35.489826 200.07016 35.489826 C 200.07016 35.489826 199.9069 35.562378 199.70738 35.63493 C 199.2902 35.798172 199.2358 35.81631 199.12697 35.72562 C 199.0 35.63493 199.0 35.61679 199.0 34.891266 C 199.0 34.274567 199.0 34.22015 199.03627 34.165737 C 199.05441 34.12946 199.0907 34.093185 199.10883 34.075047 C 199.14511 34.056908 199.36276 33.94808 199.6167 33.857388 L 200.08829 33.657867 L 200.08829 32.134262 C 200.08829 30.755758 200.10643 30.592514 200.12457 30.538101 C 200.25154 30.320442 200.55989 30.320442 200.68684 30.538101 C 200.70499 30.592514 200.72313 30.73762 200.72313 32.007294 L 200.74127 33.403934 L 201.50307 33.095585 L 202.26488 32.787235 L 202.26488 31.318043 C 202.26488 29.93954 202.26488 29.84885 202.30115 29.776297 C 202.33743 29.703743 202.3737 29.667467 202.46439 29.631191 M 202.26488 36.070248 L 202.26488 34.601055 L 201.48492 34.9094 L 200.72313 35.21775 L 200.72313 36.705082 L 200.72313 38.174274 L 200.77754 38.156136 C 200.81381 38.138 201.15845 37.992893 201.55748 37.84779 L 202.26488 37.55758 L 202.26488 36.070248 Z" fill="#404040" stroke="none" stroke-width="0.75" />
<path d="M 204.52 37.232 C 204.52 38.456 205.71521 39.68 206.89601 39.68 C 210.496 39.68 214.09601 37.232 214.09601 34.856 C 214.09601 33.6752 212.87201 32.48 211.72 32.48 C 208.12001 32.48 204.52 34.856 204.52 37.232 Z" fill="#404040" stroke="none" stroke-width="1.0" />
<path d="M 204.5 36.96 L 205.5 36.96 L 205.5 67.0 L 204.5 67.0 M 204.5 36.96 Z" fill="#404040" stroke="none" stroke-width="0.75" />
<path d="M 19.66 18.0 L 19.66 14.0 L 42.67 14.0 M 75.68 18.0 L 75.68 14.0 L 52.67 14.0 Z" fill="none" stroke="#404040" stroke-width="1.0" />
<text x='43.67' y='17.75' font-family="Default" font-size="10.0" fill="#404040" >3</text>
<path d="M 79.66 18.0 L 79.66 14.0 L 102.67 14.0 M 135.68 18.0 L 135.68 14.0 L 112.67 14.0 Z" fill="none" stroke="#404040" stroke-width="1.0" />
<text x='103.67' y='17.75' font-family="Default" font-size="10.0" fill="#404040" >3</text>
<path d="M 139.66 18.0 L 139.66 14.0 L 162.67 14.0 M 195.68 18.0 L 195.68 14.0 L 172.67 14.0 Z" fill="none" stroke="#404040" stroke-width="1.0" />
<text x='163.67' y='17.75' font-family="Default" font-size="10.0" fill="#404040" >3</text></g>
<text x='333.0' y='54.0' font-family="Default" font-size="10.0" fill="#ff0000" >2</text>
<path d="M 332.0 56.0 L 332.0 88.0 Z" fill="#000000" stroke="#000000" stroke-width="0.75" />
<path d="M 567.0 56.0 L 568.0 56.0 L 568.0 88.0 L 567.0 88.0 L 567.0 56.0 Z" fill="#000000" stroke="#000000" stroke-width="0.75" />
<path d="M 570.0 56.0 L 573.0 56.0 L 573.0 88.0 L 570.0 88.0 L 570.0 56.0 Z" fill="#000000" stroke="#000000" stroke-width="0.75" />
<path d="M 332.0 152.0 L 332.0 202.0 Z" fill="#000000" stroke="#000000" stroke-width="0.75" />
<path d="M 567.0 152.0 L 568.0 152.0 L 568.0 202.0 L 567.0 202.0 L 567.0 152.0 Z" fill="#000000" stroke="#000000" stroke-width="0.75" />
<path d="M 570.0 152.0 L 573.0 152.0 L 573.0 202.0 L 570.0 202.0 L 570.0 152.0 Z" fill="#000000" stroke="#000000" stroke-width="0.75" />
<path d="M 575.0 56.0 L 930.0 56.0 M 575.0 64.0 L 930.0 64.0 M 575.0 72.0 L 930.0 72.0 M 575.0 80.0 L 930.0 80.0 M 575.0 88.0 L 930.0 88.0 Z" fill="none" stroke="#d6d6d6" stroke-width="0.75" />
<path d="M 575.0 152.0 L 930.0 152.0 M 575.0 162.0 L 930.0 162.0 M 575.0 172.0 L 930.0 172.0 M 575.0 182.0 L 930.0 182.0 M 575.0 192.0 L 930.0 192.0 M 575.0 202.0 L 930.0 202.0 Z" fill="none" stroke="#d6d6d6" stroke-width="0.75" />
</svg>