<svg width="960.0px" height="408.0px" xmlns="http://www.w3.org/2000/svg" version="1.1">

<path d="M 0.0 0.0 L 960.0 0.0 L 960.0 408.0 L 0.0 408.0 L 0.0 0.0 Z" fill="#ffffff" stroke="none" stroke-width="1.0" /><g transform="translate(20.0,20.0)">
<path d="M 0.0 0.0 L 286.0 0.0 L 286.0 185.0 L 0.0 185.0 L 0.0 0.0 Z" fill="#ffffff" stroke="none" stroke-width="1.0" />
<path d="M 0.0 30.0 L 286.0 30.0 M 0.0 38.0 L 286.0 38.0 M 0.0 46.0 L 286.0 46.0 M 0.0 54.0 L 286.0 54.0 M 0.0 62.0 L 286.0 62.0 Z" fill="none" stroke="#d6d6d6" stroke-width="0.75" />
<path d="M 0.0 114.0 L 286.0 114.0 M 0.0 124.0 L 286.0 124.0 M 0.0 134.0 L 286.0 134.0 M 0.0 144.0 L 286.0 144.0 M 0.0 154.0 L 286.0 154.0 M 0.0 164.0 L 286.0 164.0 Z" fill="none" stroke="#d6d6d6" stroke-width="0.75" />
<path d="M 67.77043 30.40856 C 68.324905 30.40856 68.821014 30.350195 69.25876 30.20428 C 69.6965 30.058365 69.959145 30.0 70.04669 30.0 C 70.192604 30.0 70.28015 30.029182 70.36771 30.116732 C 70.42607 30.175097 70.45525 30.233463 70.484436 30.321012 C 70.484436 30.379377 70.45525 30.437744 70.42607 30.496109 L 61.933853 40.35992 L 66.924126 40.35992 L 66.924126 36.449417 C 66.924126 36.18677 67.01167 35.95331 67.1284 35.807392 C 67.3035 35.661476 67.4786 35.515564 67.71206 35.4572 C 67.97471 35.340466 68.26653 35.07782 68.64591 34.640076 C 68.937744 34.319065 69.317116 33.706226 69.75486 32.801556 C 69.81323 32.684826 69.90078 32.626457 70.01751 32.626457 C 70.28015 32.626457 70.39688 32.772373 70.42607 33.03502 L 70.42607 40.35992 L 72.55642 40.35992 C 72.84825 40.35992 72.99416 40.505836 73.023346 40.797665 C 73.023346 41.089493 72.877426 41.235405 72.55642 41.235405 L 70.42607 41.235405 L 70.42607 41.468872 C 70.42607 42.28599 70.63035 42.928013 71.00973 43.45331 C 71.44747 43.9786 71.97276 44.270428 72.5856 44.270428 C 72.81906 44.270428 72.9358 44.387157 72.9358 44.62062 C 72.9358 44.854084 72.81906 44.970818 72.5856 44.970818 C 72.14786 44.970818 71.50584 44.91245 70.601166 44.79572 C 69.696495 44.649803 69.054474 44.59144 68.64591 44.59144 C 68.23735 44.59144 67.56615 44.649803 66.69066 44.79572 C 65.81517 44.91245 65.17315 44.970818 64.735405 44.970818 C 64.501945 44.970818 64.385216 44.854084 64.385216 44.62062 C 64.385216 44.387157 64.501945 44.270428 64.735405 44.270428 C 65.34825 44.270428 65.87354 43.9786 66.31128 43.45331 C 66.71984 42.89883 66.924126 42.25681 66.924126 41.468872 L 66.924126 41.235405 L 61.933853 41.235405 C 61.61284 41.235405 61.379375 41.17704 61.233463 41.001945 C 61.087547 40.885212 61.0 40.710114 61.0 40.53502 C 61.0 40.476654 61.145912 40.272373 61.437744 39.92218 C 61.729572 39.571983 62.079765 39.105057 62.488327 38.492218 C 62.488327 38.492218 63.305447 37.20817 63.71401 36.449417 C 63.71401 36.449417 64.47276 34.78599 64.735405 33.706226 C 65.02724 32.65564 65.17315 31.575874 65.17315 30.496109 C 65.17315 30.175097 65.31907 30.029182 65.58171 30.029182 C 65.61089 30.029182 65.756805 30.058365 65.96109 30.11673 C 66.16537 30.175097 66.4572 30.233461 66.77821 30.32101 C 67.1284 30.379377 67.44942 30.40856 67.77043 30.40856 Z" fill="#000000" stroke="none" stroke-width="0.75" />
<path d="M 67.77043 47.40856 C 68.324905 47.40856 68.821014 47.350193 69.25876 47.20428 C 69.6965 47.058365 69.959145 47.0 70.04669 47.0 C 70.192604 47.0 70.28015 47.029182 70.36771 47.11673 C 70.42607 47.1751 70.45525 47.233463 70.484436 47.32101 C 70.484436 47.37938 70.45525 47.437744 70.42607 47.49611 L 61.933853 57.35992 L 66.924126 57.35992 L 66.924126 53.449417 C 66.924126 53.18677 67.01167 52.95331 67.1284 52.807392 C 67.3035 52.661476 67.4786 52.515564 67.71206 52.4572 C 67.97471 52.340466 68.26653 52.07782 68.64591 51.640076 C 68.937744 51.319065 69.317116 50.706226 69.75486 49.801556 C 69.81323 49.684826 69.90078 49.626457 70.01751 49.626457 C 70.28015 49.626457 70.39688 49.772373 70.42607 50.03502 L 70.42607 57.35992 L 72.55642 57.35992 C 72.84825 57.35992 72.99416 57.505836 73.023346 57.797665 C 73.023346 58.089493 72.877426 58.235405 72.55642 58.235405 L 70.42607 58.235405 L 70.42607 58.468872 C 70.42607 59.28599 70.63035 59.928013 71.00973 60.45331 C 71.44747 60.9786 71.97276 61.270428 72.5856 61.270428 C 72.81906 61.270428 72.9358 61.387157 72.9358 61.62062 C 72.9358 61.854084 72.81906 61.970818 72.5856 61.970818 C 72.14786 61.970818 71.50584 61.91245 70.601166 61.79572 C 69.696495 61.649803 69.054474 61.59144 68.64591 61.59144 C 68.23735 61.59144 67.56615 61.649803 66.69066 61.79572 C 65.81517 61.91245 65.17315 61.970818 64.735405 61.970818 C 64.501945 61.970818 64.385216 61.854084 64.385216 61.62062 C 64.385216 61.387157 64.501945 61.270428 64.735405 61.270428 C 65.34825 61.270428 65.87354 60.9786 66.31128 60.45331 C 66.71984 59.89883 66.924126 59.25681 66.924126 58.468872 L 66.924126 58.235405 L 61.933853 58.235405 C 61.61284 58.235405 61.379375 58.17704 61.233463 58.001945 C 61.087547 57.885212 61.0 57.710114 61.0 57.53502 C 61.0 57.476654 61.145912 57.272373 61.437744 56.92218 C 61.729572 56.571983 62.079765 56.105057 62.488327 55.492218 C 62.488327 55.492218 63.305447 54.20817 63.71401 53.449417 C 63.71401 53.449417 64.47276 51.78599 64.735405 50.706226 C 65.02724 49.65564 65.17315 48.575874 65.17315 47.49611 C 65.17315 47.175095 65.31907 47.029182 65.58171 47.029182 C 65.61089 47.029182 65.756805 47.058365 65.96109 47.11673 C 66.16537 47.175095 66.4572 47.233463 66.77821 47.32101 C 67.1284 47.379375 67.44942 47.408558 67.77043 47.408558 Z" fill="#000000" stroke="none" stroke-width="0.75" />
<path d="M 22.764973 22.115383 C 22.921913 22.036913 22.948072 22.036913 23.105015 22.036913 C 23.314268 22.06307 23.445057 22.14154 23.73278 22.455425 C 25.616081 24.39104 27.185501 27.843758 27.577856 30.773342 C 27.630169 31.244167 27.630169 32.34276 27.577856 32.839737 C 27.29013 35.533905 26.165377 37.99266 23.57584 41.52385 L 23.209644 42.020832 L 23.418898 42.62244 C 23.915882 44.061073 24.491331 45.81359 24.85753 47.095284 C 24.96216 47.409164 25.04063 47.67074 25.04063 47.696896 C 25.04063 47.696896 25.223728 47.696896 25.406826 47.723053 C 26.322319 47.80152 27.10703 48.01078 27.917896 48.40313 C 28.57182 48.74317 29.147274 49.13552 29.696568 49.658665 C 30.29818 50.260277 30.690535 50.80957 31.05673 51.568123 C 31.606026 52.666718 31.84144 53.81762 31.81528 54.96853 C 31.789125 55.700924 31.684496 56.25022 31.449085 56.930305 C 31.1352 57.924263 30.559748 58.83976 29.77504 59.62447 C 29.094955 60.30455 28.46719 60.72306 27.630169 61.063103 L 27.316284 61.193886 L 27.316284 62.135536 C 27.316284 63.469543 27.237814 65.038956 27.133184 65.980606 C 27.02856 66.94841 26.766989 67.86391 26.348476 68.700935 C 25.249886 70.92427 23.314268 72.10133 21.143244 71.89209 C 18.684484 71.65667 16.69656 69.98262 16.199577 67.73312 C 15.964161 66.713 16.068794 65.9283 16.487303 65.27437 C 17.036598 64.411194 18.082878 63.91421 19.102997 63.940365 C 20.30622 63.992683 21.274027 64.934326 21.457123 66.24218 C 21.58791 67.28845 21.143244 68.25626 20.30622 68.7794 C 19.835394 69.06713 19.181469 69.197914 18.684484 69.119446 C 18.606018 69.119446 18.527544 69.093285 18.527544 69.119446 L 18.84143 69.43333 C 19.416882 70.00878 20.070807 70.374985 20.907831 70.558075 C 21.090927 70.584236 21.247868 70.584236 21.666382 70.584236 C 22.137207 70.584236 22.189518 70.584236 22.451088 70.53192 C 22.81729 70.42729 23.131172 70.29651 23.418898 70.139565 C 24.726748 69.35486 25.616081 67.73312 25.851494 65.77136 C 25.929964 65.038956 26.008434 63.469543 26.008434 62.318638 C 26.008434 61.560085 26.008434 61.50777 25.956123 61.50777 C 25.851494 61.560085 25.302197 61.6124 24.909843 61.638554 C 24.41286 61.66471 23.57584 61.66471 23.183485 61.6124 C 21.640223 61.4293 20.227747 60.90616 18.998373 60.042976 C 17.167385 58.761288 15.859535 56.851826 15.31024 54.654644 C 14.604002 51.908165 15.100986 48.978584 16.827343 45.89206 C 17.55974 44.610374 18.265978 43.564095 20.018494 41.236122 L 21.012455 39.902122 L 20.829355 39.405136 C 19.573822 36.083202 19.15531 34.173744 19.024527 31.401108 C 18.972214 30.197887 19.024527 29.177761 19.181469 28.340742 C 19.573822 26.143559 20.593945 24.181787 22.189518 22.612366 C 22.503403 22.298483 22.63419 22.193855 22.764973 22.115383 M 24.831371 26.588224 C 24.569805 26.143559 24.622118 26.169712 24.386707 26.326658 C 23.65431 26.771324 22.89576 27.451405 22.34646 28.131483 C 21.221714 29.57012 20.593945 31.244167 20.515476 33.048996 C 20.489319 33.78139 20.56779 34.252216 20.907831 35.37696 C 21.169397 36.292458 21.901793 38.5158 21.95411 38.56811 C 21.95411 38.59427 22.111048 38.411175 22.26799 38.17576 C 24.072823 35.58622 25.04063 33.467506 25.406826 31.348791 C 25.485298 30.799496 25.53761 30.354828 25.563768 29.727062 C 25.589928 28.28843 25.432985 27.582191 24.831371 26.588224 M 22.581877 44.191864 C 22.424934 43.694878 22.26799 43.302525 22.26799 43.302525 C 22.241835 43.302525 21.143244 44.76731 20.672415 45.421238 C 19.129156 47.592266 18.187506 49.34478 17.638206 51.071136 C 17.27201 52.143574 17.115068 53.137543 17.062756 54.236134 C 17.062756 54.837746 17.088915 55.20394 17.193539 55.64861 C 17.795153 57.976578 20.280064 59.886036 23.209644 60.30455 C 23.65431 60.35686 24.909843 60.35686 25.459139 60.30455 C 26.008434 60.226078 25.956123 60.252235 25.929964 60.016823 C 25.773026 57.53191 25.563768 56.014805 25.14526 53.765305 C 24.988314 52.823658 24.543648 50.835728 24.517488 50.80957 C 24.491331 50.783417 23.99435 50.835728 23.706627 50.9142 C 23.340427 50.99267 23.105015 51.071136 22.79113 51.22808 C 21.090927 52.091263 20.593945 54.053036 21.666382 55.64861 C 21.849482 55.91018 22.320305 56.381004 22.608032 56.564102 C 22.71266 56.642574 22.948072 56.799515 23.105015 56.877987 C 23.340427 57.00877 23.392738 57.061085 23.445057 57.165714 C 23.65431 57.505756 23.523525 57.924263 23.131172 58.107365 C 22.921913 58.21199 22.764973 58.185837 22.34646 57.976578 C 21.326344 57.4796 20.56779 56.799515 20.018494 55.962494 C 18.998373 54.393074 18.867586 52.37899 19.70461 50.678787 C 20.437006 49.213997 21.744852 48.22003 23.418898 47.853836 C 23.57584 47.80152 23.706627 47.775368 23.706627 47.775368 C 23.73278 47.749207 23.000385 45.368923 22.581877 44.191864 M 26.139221 50.94036 C 26.060753 50.94036 25.98228 50.9142 25.956123 50.9142 L 25.877651 50.88804 L 26.008434 51.43734 C 26.610046 54.07919 27.054714 56.956455 27.211655 59.389057 C 27.237814 59.650627 27.237814 59.859882 27.237814 59.859882 C 27.263973 59.859882 27.60401 59.70294 27.78711 59.572155 C 28.231777 59.31058 28.65029 58.91823 28.99033 58.47356 C 29.801197 57.401123 30.08892 56.06712 29.77504 54.706955 C 29.539627 53.608364 28.911861 52.58824 28.022522 51.882008 C 27.473227 51.463493 26.740831 51.097298 26.139221 50.94036 Z" fill="#000000" stroke="none" stroke-width="0.75" />
<path d="M 92.0 70.0 L 108.0 70.0 Z" fill="none" stroke="#d6d6d6" stroke-width="0.75" />
<path d="M 92.0 70.0 L 108.0 70.0 Z" fill="none" stroke="#d6d6d6" stroke-width="0.75" />
<path d="M 92.0 78.0 L 108.0 78.0 Z" fill="none" stroke="#d6d6d6" stroke-width="0.75" />
<path d="M 92.0 86.0 L 108.0 86.0 Z" fill="none" stroke="#d6d6d6" stroke-width="0.75" />
<path d="M 93.46439 63.63119 C 93.59136 63.55864 93.79088 63.613052 93.863434 63.7763 C 93.89971 63.84885 93.89971 63.903263 93.89971 65.172935 C 93.89971 65.9166 93.89971 66.51516 93.91785 66.51516 C 93.91785 66.51516 94.08109 66.44261 94.28061 66.370056 C 94.69779 66.20681 94.752205 66.188675 94.86103 66.279366 C 94.988 66.370056 94.988 66.38819 94.988 67.11372 C 94.988 67.73042 94.988 67.784836 94.95172 67.83925 C 94.933586 67.87553 94.89731 67.911804 94.87917 67.92994 C 94.842896 67.94808 94.62524 68.05691 94.3713 68.1476 L 93.91785 68.34712 L 93.89971 69.816315 C 93.89971 70.614395 93.89971 71.28551 93.91785 71.28551 C 93.91785 71.28551 94.08109 71.21295 94.28061 71.140396 C 94.69779 70.97716 94.752205 70.959015 94.86103 71.049706 C 94.988 71.140396 94.988 71.15854 94.988 71.88406 C 94.988 72.50076 94.988 72.555176 94.95172 72.60959 C 94.933586 72.64587 94.89731 72.682144 94.87917 72.70028 C 94.842896 72.71842 94.62524 72.82725 94.3713 72.91794 L 93.91785 73.11746 L 93.89971 74.64107 C 93.89971 76.01957 93.88157 76.182816 93.863434 76.23723 C 93.736465 76.45489 93.428116 76.45489 93.30115 76.23723 C 93.28301 76.182816 93.26487 76.037704 93.26487 74.768036 L 93.26487 73.3714 L 92.48493 73.67974 L 91.72313 73.98809 L 91.72313 75.45728 C 91.72313 77.01717 91.72313 76.980896 91.63244 77.07159 C 91.59616 77.126 91.46919 77.18041 91.41478 77.18041 C 91.342224 77.18041 91.215256 77.126 91.178986 77.07159 C 91.08829 76.980896 91.08829 77.01717 91.08829 75.602394 C 91.08829 74.85873 91.08829 74.26017 91.07015 74.26017 C 91.07015 74.26017 90.906906 74.33272 90.70739 74.40527 C 90.290215 74.56851 90.235794 74.586655 90.12697 74.495964 C 90.0 74.40527 90.0 74.38713 90.0 73.661606 C 90.0 73.04491 90.0 72.99049 90.03628 72.93608 C 90.05441 72.8998 90.09069 72.863525 90.108826 72.84539 C 90.1451 72.82725 90.36276 72.71842 90.6167 72.62773 L 91.08829 72.42821 L 91.08829 70.959015 C 91.08829 70.160934 91.08829 69.48982 91.07015 69.48982 C 91.07015 69.48982 90.906906 69.56238 90.70739 69.63493 C 90.290215 69.79817 90.235794 69.816315 90.12697 69.725624 C 90.0 69.63493 90.0 69.61679 90.0 68.891266 C 90.0 68.27457 90.0 68.22015 90.03628 68.16573 C 90.05441 68.12946 90.09069 68.093185 90.108826 68.07504 C 90.1451 68.05691 90.36276 67.94808 90.6167 67.85739 L 91.08829 67.65787 L 91.08829 66.13426 C 91.08829 64.75576 91.10643 64.592514 91.124565 64.5381 C 91.25153 64.32044 91.55988 64.32044 91.68685 64.5381 C 91.70499 64.592514 91.72313 64.73762 91.72313 66.00729 L 91.741264 67.40393 L 92.50307 67.09558 L 93.26487 66.78723 L 93.26487 65.31804 C 93.26487 63.93954 93.26487 63.84885 93.30115 63.7763 C 93.337425 63.703743 93.3737 63.667465 93.46439 63.63119 M 93.26487 70.070244 L 93.26487 68.60105 L 92.48493 68.9094 L 91.72313 69.21775 L 91.72313 70.705086 L 91.72313 72.17428 L 91.77754 72.156136 C 91.81382 72.138 92.15845 71.9929 92.55749 71.847786 L 93.26487 71.55758 L 93.26487 70.070244 Z" fill="#404040" stroke="none" stroke-width="0.75" />
<path d="M 95.52 71.232 C 95.52 72.456 96.715195 73.68 97.895996 73.68 C 101.495995 73.68 105.09599 71.232 105.09599 68.856 C 105.09599 67.6752 103.871994 66.48 102.71999 66.48 C 99.119995 66.48 95.52 68.856 95.52 71.232 Z" fill="#404040" stroke="none" stroke-width="1.0" />
<path d="M 94.0 150.25 L 102.0 150.25 L 102.0 157.75 L 94.0 157.75 L 94.0 150.25 Z" fill="#ffffff" stroke="none" stroke-width="1.0" />
<text x='94.0' y='157.75' font-family="Default" font-size="10.0" fill="#404040" >4</text>
<path d="M 93.46439 79.63119 C 93.59136 79.55864 93.79088 79.61305 93.863434 79.7763 C 93.89971 79.84885 93.89971 79.90327 93.89971 81.172935 C 93.89971 81.9166 93.89971 82.51516 93.91785 82.51516 C 93.91785 82.51516 94.08109 82.44261 94.28061 82.370056 C 94.69779 82.20681 94.752205 82.188675 94.86103 82.279366 C 94.988 82.370056 94.988 82.38819 94.988 83.11372 C 94.988 83.73042 94.988 83.784836 94.95172 83.83925 C 94.933586 83.87553 94.89731 83.911804 94.87917 83.92994 C 94.842896 83.94808 94.62524 84.05691 94.3713 84.1476 L 93.91785 84.34712 L 93.89971 85.816315 C 93.89971 86.614395 93.89971 87.28551 93.91785 87.28551 C 93.91785 87.28551 94.08109 87.21295 94.28061 87.140396 C 94.69779 86.97716 94.752205 86.959015 94.86103 87.049706 C 94.988 87.140396 94.988 87.15854 94.988 87.88406 C 94.988 88.50076 94.988 88.555176 94.95172 88.60959 C 94.933586 88.64587 94.89731 88.682144 94.87917 88.70028 C 94.842896 88.71842 94.62524 88.82725 94.3713 88.91794 L 93.91785 89.11746 L 93.89971 90.64107 C 93.89971 92.01957 93.88157 92.182816 93.863434 92.23723 C 93.736465 92.45489 93.428116 92.45489 93.30115 92.23723 C 93.28301 92.182816 93.26487 92.037704 93.26487 90.768036 L 93.26487 89.3714 L 92.48493 89.67974 L 91.72313 89.98809 L 91.72313 91.45728 C 91.72313 93.01717 91.72313 92.980896 91.63244 93.07159 C 91.59616 93.126 91.46919 93.18041 91.41478 93.18041 C 91.342224 93.18041 91.215256 93.126 91.178986 93.07159 C 91.08829 92.980896 91.08829 93.01717 91.08829 91.602394 C 91.08829 90.85873 91.08829 90.26017 91.07015 90.26017 C 91.07015 90.26017 90.906906 90.33272 90.70739 90.40527 C 90.290215 90.56851 90.235794 90.586655 90.12697 90.495964 C 90.0 90.40527 90.0 90.38713 90.0 89.661606 C 90.0 89.04491 90.0 88.99049 90.03628 88.93608 C 90.05441 88.8998 90.09069 88.863525 90.108826 88.84539 C 90.1451 88.82725 90.36276 88.71842 90.6167 88.62773 L 91.08829 88.42821 L 91.08829 86.959015 C 91.08829 86.160934 91.08829 85.48982 91.07015 85.48982 C 91.07015 85.48982 90.906906 85.56238 90.70739 85.63493 C 90.290215 85.79817 90.235794 85.816315 90.12697 85.725624 C 90.0 85.63493 90.0 85.61679 90.0 84.891266 C 90.0 84.27457 90.0 84.22015 90.03628 84.16573 C 90.05441 84.12946 90.09069 84.093185 90.108826 84.07504 C 90.1451 84.05691 90.36276 83.94808 90.6167 83.85739 L 91.08829 83.65787 L 91.08829 82.13426 C 91.08829 80.75576 91.10643 80.592514 91.124565 80.5381 C 91.25153 80.32044 91.55988 80.32044 91.68685 80.5381 C 91.70499 80.592514 91.72313 80.73762 91.72313 82.00729 L 91.741264 83.40393 L 92.50307 83.09558 L 93.26487 82.78723 L 93.26487 81.31804 C 93.26487 79.93954 93.26487 79.84885 93.30115 79.7763 C 93.337425 79.70374 93.3737 79.667465 93.46439 79.63119 M 93.26487 86.070244 L 93.26487 84.60105 L 92.48493 84.9094 L 91.72313 85.21775 L 91.72313 86.705086 L 91.72313 88.17428 L 91.77754 88.156136 C 91.81382 88.138 92.15845 87.9929 92.55749 87.847786 L 93.26487 87.55758 L 93.26487 86.070244 Z" fill="#404040" stroke="none" stroke-width="0.75" />
<path d="M 95.52 87.232 C 95.52 88.456 96.715195 89.68 97.895996 89.68 C 101.495995 89.68 105.09599 87.232 105.09599 84.856 C 105.09599 83.6752 103.871994 82.48 102.71999 82.48 C 99.119995 82.48 95.52 84.856 95.52 87.232 Z" fill="#404040" stroke="none" stroke-width="1.0" />
<path d="M 94.0 160.25 L 102.0 160.25 L 102.0 167.75 L 94.0 167.75 L 94.0 160.25 Z" fill="#ffffff" stroke="none" stroke-width="1.0" />
<text x='94.0' y='167.75' font-family="Default" font-size="10.0" fill="#404040" >2</text>
<path d="M 104.18 85.04 L 105.18 85.04 L 105.18 38.0 L 104.18 38.0 M 104.18 85.04 Z" fill="#404040" stroke="none" stroke-width="0.75" />
<path d="M 104.18 36.0 L 104.18 40.0 L 127.055 40.0 L 127.055 36.0 L 104.18 36.0 Z" fill="#404040" stroke="none" stroke-width="0.75" />
<path d="M 113.875 70.0 L 129.875 70.0 Z" fill="none" stroke="#d6d6d6" stroke-width="0.75" />
<path d="M 113.875 70.0 L 129.875 70.0 Z" fill="none" stroke="#d6d6d6" stroke-width="0.75" />
<path d="M 113.875 78.0 L 129.875 78.0 Z" fill="none" stroke="#d6d6d6" stroke-width="0.75" />
<path d="M 113.875 86.0 L 129.875 86.0 Z" fill="none" stroke="#d6d6d6" stroke-width="0.75" />
<path d="M 117.395 71.232 C 117.395 72.456 118.590195 73.68 119.770996 73.68 C 123.370995 73.68 126.97099 71.232 126.97099 68.856 C 126.97099 67.6752 125.746994 66.48 124.59499 66.48 C 120.994995 66.48 117.395 68.856 117.395 71.232 Z" fill="#404040" stroke="none" stroke-width="1.0" />
<path d="M 115.875 150.25 L 123.875 150.25 L 123.875 157.75 L 115.875 157.75 L 115.875 150.25 Z" fill="#ffffff" stroke="none" stroke-width="1.0" />
<text x='115.875' y='157.75' font-family="Default" font-size="10.0" fill="#404040" >4</text>
<path d="M 117.395 87.232 C 117.395 88.456 118.590195 89.68 119.770996 89.68 C 123.370995 89.68 126.97099 87.232 126.97099 84.856 C 126.97099 83.6752 125.746994 82.48 124.59499 82.48 C 120.994995 82.48 117.395 84.856 117.395 87.232 Z" fill="#404040" stroke="none" stroke-width="1.0" />
<path d="M 115.875 160.25 L 123.875 160.25 L 123.875 167.75 L 115.875 167.75 L 115.875 160.25 Z" fill="#ffffff" stroke="none" stroke-width="1.0" />
<text x='115.875' y='167.75' font-family="Default" font-size="10.0" fill="#404040" >2</text>
<path d="M 126.055 85.04 L 127.055 85.04 L 127.055 38.0 L 126.055 38.0 M 126.055 85.04 Z" fill="#404040" stroke="none" stroke-width="0.75" />
<path d="M 141.24155 40.729687 C 141.70372 40.666664 142.10287 40.79271 142.41798 41.08682 C 142.60706 41.296898 142.69109 41.46496 142.81714 41.969147 C 142.88016 42.200233 142.94319 42.43132 142.96419 42.473335 C 143.04822 42.662403 143.19528 42.788452 143.38435 42.80946 C 143.46838 42.80946 143.51039 42.80946 143.61543 42.746437 C 143.88853 42.620388 144.53978 41.8431 144.79187 41.35992 C 144.85489 41.212868 144.95993 41.149845 145.06497 41.149845 C 145.149 41.149845 145.25404 41.212868 145.29605 41.27589 C 145.31706 41.317905 145.107 42.05318 143.99358 45.77156 C 143.27931 48.20846 142.67009 50.246212 142.64908 50.267227 C 142.64908 50.288246 142.56505 50.35125 142.48102 50.372265 C 142.35497 50.43529 142.33395 50.43529 142.1659 50.43529 C 141.99783 50.43529 141.95583 50.43529 141.82977 50.39328 C 141.76675 50.35125 141.68272 50.30924 141.68272 50.288246 C 141.6407 50.267227 141.78775 49.889088 142.85916 46.842957 C 143.5314 44.973263 144.0776 43.418686 144.0566 43.418686 L 143.69946 43.523724 C 142.94319 43.775818 142.48102 43.859848 141.9138 43.859848 C 141.45163 43.859848 141.32558 43.83884 140.98946 43.67078 C 140.06512 43.229614 139.75 42.15822 140.27519 41.35992 C 140.50629 41.044804 140.86342 40.79271 141.24155 40.729687 Z" fill="#404040" stroke="none" stroke-width="0.75" />
<path d="M 163.11655 40.729687 C 163.57872 40.666664 163.97787 40.79271 164.29298 41.08682 C 164.48206 41.296898 164.56609 41.46496 164.69214 41.969147 C 164.75516 42.200233 164.81819 42.43132 164.83919 42.473335 C 164.92322 42.662403 165.07028 42.788452 165.25935 42.80946 C 165.34338 42.80946 165.38539 42.80946 165.49043 42.746437 C 165.76353 42.620388 166.41478 41.8431 166.66687 41.35992 C 166.72989 41.212868 166.83493 41.149845 166.93997 41.149845 C 167.024 41.149845 167.12904 41.212868 167.17105 41.27589 C 167.19206 41.317905 166.982 42.05318 165.86858 45.77156 C 165.15431 48.20846 164.54509 50.246212 164.52408 50.267227 C 164.52408 50.288246 164.44005 50.35125 164.35602 50.372265 C 164.22997 50.43529 164.20895 50.43529 164.0409 50.43529 C 163.87283 50.43529 163.83083 50.43529 163.70477 50.39328 C 163.64175 50.35125 163.55772 50.30924 163.55772 50.288246 C 163.5157 50.267227 163.66275 49.889088 164.73416 46.842957 C 165.4064 44.973263 165.9526 43.418686 165.9316 43.418686 L 165.57446 43.523724 C 164.81819 43.775818 164.35602 43.859848 163.7888 43.859848 C 163.32663 43.859848 163.20058 43.83884 162.86446 43.67078 C 161.94012 43.229614 161.625 42.15822 162.15019 41.35992 C 162.38129 41.044804 162.73842 40.79271 163.11655 40.729687 Z" fill="#404040" stroke="none" stroke-width="0.75" />
<path d="M 184.99155 40.729687 C 185.45372 40.666664 185.85287 40.79271 186.16798 41.08682 C 186.35706 41.296898 186.44109 41.46496 186.56714 41.969147 C 186.63016 42.200233 186.69319 42.43132 186.71419 42.473335 C 186.79822 42.662403 186.94528 42.788452 187.13435 42.80946 C 187.21838 42.80946 187.26039 42.80946 187.36543 42.746437 C 187.63853 42.620388 188.28978 41.8431 188.54187 41.35992 C 188.60489 41.212868 188.70993 41.149845 188.81497 41.149845 C 188.899 41.149845 189.00404 41.212868 189.04605 41.27589 C 189.06706 41.317905 188.857 42.05318 187.74358 45.77156 C 187.02931 48.20846 186.42009 50.246212 186.39908 50.267227 C 186.39908 50.288246 186.31505 50.35125 186.23102 50.372265 C 186.10497 50.43529 186.08395 50.43529 185.9159 50.43529 C 185.74783 50.43529 185.70583 50.43529 185.57977 50.39328 C 185.51675 50.35125 185.43272 50.30924 185.43272 50.288246 C 185.3907 50.267227 185.53775 49.889088 186.60916 46.842957 C 187.2814 44.973263 187.8276 43.418686 187.8066 43.418686 L 187.44946 43.523724 C 186.69319 43.775818 186.23102 43.859848 185.6638 43.859848 C 185.20163 43.859848 185.07558 43.83884 184.73946 43.67078 C 183.81512 43.229614 183.5 42.15822 184.02519 41.35992 C 184.25629 41.044804 184.61342 40.79271 184.99155 40.729687 Z" fill="#404040" stroke="none" stroke-width="0.75" />
<path d="M 206.86655 40.729687 C 207.32872 40.666664 207.72787 40.79271 208.04298 41.08682 C 208.23206 41.296898 208.31609 41.46496 208.44214 41.969147 C 208.50516 42.200233 208.56819 42.43132 208.58919 42.473335 C 208.67322 42.662403 208.82028 42.788452 209.00935 42.80946 C 209.09338 42.80946 209.13539 42.80946 209.24043 42.746437 C 209.51353 42.620388 210.16478 41.8431 210.41687 41.35992 C 210.47989 41.212868 210.58493 41.149845 210.68997 41.149845 C 210.774 41.149845 210.87904 41.212868 210.92105 41.27589 C 210.94206 41.317905 210.732 42.05318 209.61858 45.77156 C 208.90431 48.20846 208.29509 50.246212 208.27408 50.267227 C 208.27408 50.288246 208.19005 50.35125 208.10602 50.372265 C 207.97997 50.43529 207.95895 50.43529 207.7909 50.43529 C 207.62283 50.43529 207.58083 50.43529 207.45477 50.39328 C 207.39175 50.35125 207.30772 50.30924 207.30772 50.288246 C 207.2657 50.267227 207.41275 49.889088 208.48416 46.842957 C 209.1564 44.973263 209.7026 43.418686 209.6816 43.418686 L 209.32446 43.523724 C 208.56819 43.775818 208.10602 43.859848 207.5388 43.859848 C 207.07663 43.859848 206.95058 43.83884 206.61446 43.67078 C 205.69012 43.229614 205.375 42.15822 205.90019 41.35992 C 206.13129 41.044804 206.48842 40.79271 206.86655 40.729687 Z" fill="#404040" stroke="none" stroke-width="0.75" />
<path d="M 228.74155 40.729687 C 229.20372 40.666664 229.60287 40.79271 229.91798 41.08682 C 230.10706 41.296898 230.19109 41.46496 230.31714 41.969147 C 230.38016 42.200233 230.44319 42.43132 230.46419 42.473335 C 230.54822 42.662403 230.69528 42.788452 230.88435 42.80946 C 230.96838 42.80946 231.01039 42.80946 231.11543 42.746437 C 231.38853 42.620388 232.03978 41.8431 232.29187 41.35992 C 232.35489 41.212868 232.45993 41.149845 232.56497 41.149845 C 232.649 41.149845 232.75404 41.212868 232.79605 41.27589 C 232.81706 41.317905 232.607 42.05318 231.49358 45.77156 C 230.77931 48.20846 230.17009 50.246212 230.14908 50.267227 C 230.14908 50.288246 230.06505 50.35125 229.98102 50.372265 C 229.85497 50.43529 229.83395 50.43529 229.6659 50.43529 C 229.49783 50.43529 229.45583 50.43529 229.32977 50.39328 C 229.26675 50.35125 229.18272 50.30924 229.18272 50.288246 C 229.1407 50.267227 229.28775 49.889088 230.35916 46.842957 C 231.0314 44.973263 231.5776 43.418686 231.5566 43.418686 L 231.19946 43.523724 C 230.44319 43.775818 229.98102 43.859848 229.4138 43.859848 C 228.95163 43.859848 228.82558 43.83884 228.48946 43.67078 C 227.56512 43.229614 227.25 42.15822 227.77519 41.35992 C 228.00629 41.044804 228.36342 40.79271 228.74155 40.729687 Z" fill="#404040" stroke="none" stroke-width="0.75" />
<path d="M 250.61655 40.729687 C 251.07872 40.666664 251.47787 40.79271 251.79298 41.08682 C 251.98206 41.296898 252.06609 41.46496 252.19214 41.969147 C 252.25516 42.200233 252.31819 42.43132 252.33919 42.473335 C 252.42322 42.662403 252.57028 42.788452 252.75935 42.80946 C 252.84338 42.80946 252.88539 42.80946 252.99043 42.746437 C 253.26353 42.620388 253.91478 41.8431 254.16687 41.35992 C 254.22989 41.212868 254.33493 41.149845 254.43997 41.149845 C 254.524 41.149845 254.62904 41.212868 254.67105 41.27589 C 254.69206 41.317905 254.482 42.05318 253.36858 45.77156 C 252.65431 48.20846 252.04509 50.246212 252.02408 50.267227 C 252.02408 50.288246 251.94005 50.35125 251.85602 50.372265 C 251.72997 50.43529 251.70895 50.43529 251.5409 50.43529 C 251.37283 50.43529 251.33083 50.43529 251.20477 50.39328 C 251.14175 50.35125 251.05772 50.30924 251.05772 50.288246 C 251.0157 50.267227 251.16275 49.889088 252.23416 46.842957 C 252.9064 44.973263 253.4526 43.418686 253.4316 43.418686 L 253.07446 43.523724 C 252.31819 43.775818 251.85602 43.859848 251.2888 43.859848 C 250.82663 43.859848 250.70058 43.83884 250.36446 43.67078 C 249.44012 43.229614 249.125 42.15822 249.65019 41.35992 C 249.88129 41.044804 250.23842 40.79271 250.61655 40.729687 Z" fill="#404040" stroke="none" stroke-width="0.75" /></g>
<path d="M 35.35 36.3 C 35.35 37.15 36.18 38.0 37.0 38.0 C 39.5 38.0 42.0 36.3 42.0 34.65 C 42.0 33.83 41.149998 33.0 40.35 33.0 C 37.85 33.0 35.35 34.65 35.35 36.3 Z" fill="#000000" stroke="none" stroke-width="1.0" />
<path d="M 42.0 20.0 L 42.0 34.7 Z" fill="none" stroke="#000000" stroke-width="1.0" />
<text x='43.0' y='36.25' font-family="Default" font-size="10.0" fill="#000000" > = 120</text>
<text x='21.0' y='48.0' font-family="Default" font-size="10.0" fill="#ff0000" >1</text>
<path d="M 20.0 50.0 L 23.0 50.0 L 23.0 134.0 L 20.0 134.0 L 20.0 50.0 Z" fill="#000000" stroke="#000000" stroke-width="0.75" />
<path d="M 25.0 50.0 L 26.0 50.0 L 26.0 134.0 L 25.0 134.0 L 25.0 50.0 Z" fill="#000000" stroke="#000000" stroke-width="0.75" />
<path d="M 306.0 50.0 L 306.0 82.0 Z" fill="#000000" stroke="#000000" stroke-width="0.75" />
<path d="M 20.0 134.0 L 23.0 134.0 L 23.0 184.0 L 20.0 184.0 L 20.0 134.0 Z" fill="#000000" stroke="#000000" stroke-width="0.75" />
<path d="M 25.0 134.0 L 26.0 134.0 L 26.0 184.0 L 25.0 184.0 L 25.0 134.0 Z" fill="#000000" stroke="#000000" stroke-width="0.75" />
<path d="M 306.0 134.0 L 306.0 184.0 Z" fill="#000000" stroke="#000000" stroke-width="0.75" /><g transform="translate(306.0,20.0)">
<path d="M 0.0 0.0 L 215.0 0.0 L 215.0 185.0 L 0.0 185.0 L 0.0 0.0 Z" fill="#ffffff" stroke="none" stroke-width="1.0" />
<path d="M 0.0 30.0 L 215.0 30.0 M 0.0 38.0 L 215.0 38.0 M 0.0 46.0 L 215.0 46.0 M 0.0 54.0 L 215.0 54.0 M 0.0 62.0 L 215.0 62.0 Z" fill="none" stroke="#d6d6d6" stroke-width="0.75" />
<path d="M 0.0 114.0 L 215.0 114.0 M 0.0 124.0 L 215.0 124.0 M 0.0 134.0 L 215.0 134.0 M 0.0 144.0 L 215.0 144.0 M 0.0 154.0 L 215.0 154.0 M 0.0 164.0 L 215.0 164.0 Z" fill="none" stroke="#d6d6d6" stroke-width="0.75" />
<path d="M 21.0 70.0 L 37.0 70.0 Z" fill="none" stroke="#d6d6d6" stroke-width="0.75" />
<path d="M 21.0 78.0 L 37.0 78.0 Z" fill="none" stroke="#d6d6d6" stroke-width="0.75" />
<path d="M 24.52 63.232 C 24.52 64.456 25.7152 65.68 26.896 65.68 C 30.496 65.68 34.096 63.232 34.096 60.856 C 34.096 59.6752 32.872 58.48 31.720001 58.48 C 28.12 58.48 24.52 60.856 24.52 63.232 Z" fill="#404040" stroke="none" stroke-width="1.0" />
<path d="M 23.0 140.25 L 31.0 140.25 L 31.0 147.75 L 23.0 147.75 L 23.0 140.25 Z" fill="#ffffff" stroke="none" stroke-width="1.0" />
<text x='23.0' y='147.75' font-family="Default" font-size="10.0" fill="#404040" >2</text>
<path d="M 24.52 79.232 C 24.52 80.456 25.7152 81.68 26.896 81.68 C 30.496 81.68 34.096 79.232 34.096 76.856 C 34.096 75.6752 32.872 74.48 31.720001 74.48 C 28.12 74.48 24.52 76.856 24.52 79.232 Z" fill="#404040" stroke="none" stroke-width="1.0" />
<path d="M 23.0 150.25 L 31.0 150.25 L 31.0 157.75 L 23.0 157.75 L 23.0 150.25 Z" fill="#ffffff" stroke="none" stroke-width="1.0" />
<text x='23.0' y='157.75' font-family="Default" font-size="10.0" fill="#404040" >0</text>
<path d="M 33.18 77.04 L 34.18 77.04 L 34.18 30.0 L 33.18 30.0 M 33.18 77.04 Z" fill="#404040" stroke="none" stroke-width="0.75" />
<path d="M 33.18 28.0 L 33.18 32.0 L 56.055 32.0 L 56.055 28.0 L 33.18 28.0 Z" fill="#404040" stroke="none" stroke-width="0.75" />
<path d="M 42.875 70.0 L 58.875 70.0 Z" fill="none" stroke="#d6d6d6" stroke-width="0.75" />
<path d="M 42.875 78.0 L 58.875 78.0 Z" fill="none" stroke="#d6d6d6" stroke-width="0.75" />
<path d="M 46.395 63.232 C 46.395 64.456 47.590202 65.68 48.771 65.68 C 52.371002 65.68 55.971 63.232 55.971 60.856 C 55.971 59.6752 54.747 58.48 53.595 58.48 C 49.995 58.48 46.395 60.856 46.395 63.232 Z" fill="#404040" stroke="none" stroke-width="1.0" />
<path d="M 44.875 140.25 L 52.875 140.25 L 52.875 147.75 L 44.875 147.75 L 44.875 140.25 Z" fill="#ffffff" stroke="none" stroke-width="1.0" />
<text x='44.875' y='147.75' font-family="Default" font-size="10.0" fill="#404040" >2</text>
<path d="M 46.395 79.232 C 46.395 80.456 47.590202 81.68 48.771 81.68 C 52.371002 81.68 55.971 79.232 55.971 76.856 C 55.971 75.6752 54.747 74.48 53.595 74.48 C 49.995 74.48 46.395 76.856 46.395 79.232 Z" fill="#404040" stroke="none" stroke-width="1.0" />
<path d="M 44.875 150.25 L 52.875 150.25 L 52.875 157.75 L 44.875 157.75 L 44.875 150.25 Z" fill="#ffffff" stroke="none" stroke-width="1.0" />
<text x='44.875' y='157.75' font-family="Default" font-size="10.0" fill="#404040" >0</text>
<path d="M 55.055 77.04 L 56.055 77.04 L 56.055 30.0 L 55.055 30.0 M 55.055 77.04 Z" fill="#404040" stroke="none" stroke-width="0.75" />
<path d="M 70.241554 40.729687 C 70.70373 40.666664 71.102875 40.79271 71.41799 41.08682 C 71.60706 41.296898 71.69109 41.46496 71.81714 41.969147 C 71.880165 42.200233 71.943184 42.43132 71.964195 42.473335 C 72.048225 42.662403 72.19528 42.788452 72.384346 42.80946 C 72.46838 42.80946 72.5104 42.80946 72.61543 42.746437 C 72.888535 42.620388 73.53978 41.8431 73.79187 41.35992 C 73.8549 41.212868 73.95993 41.149845 74.06497 41.149845 C 74.149 41.149845 74.25404 41.212868 74.29606 41.27589 C 74.31707 41.317905 74.10699 42.05318 72.993576 45.77156 C 72.27931 48.20846 71.67008 50.246212 71.64908 50.267227 C 71.64908 50.288246 71.56505 50.35125 71.48101 50.372265 C 71.354965 50.43529 71.33396 50.43529 71.16589 50.43529 C 70.99783 50.43529 70.95582 50.43529 70.82977 50.39328 C 70.76675 50.35125 70.68272 50.30924 70.68272 50.288246 C 70.6407 50.267227 70.78776 49.889088 71.85915 46.842957 C 72.5314 44.973263 73.07761 43.418686 73.056595 43.418686 L 72.69946 43.523724 C 71.943184 43.775818 71.48101 43.859848 70.9138 43.859848 C 70.45163 43.859848 70.325584 43.83884 69.98946 43.67078 C 69.06512 43.229614 68.75 42.15822 69.27519 41.35992 C 69.50628 41.044804 69.86341 40.79271 70.241554 40.729687 Z" fill="#404040" stroke="none" stroke-width="0.75" />
<path d="M 92.116554 40.729687 C 92.57873 40.666664 92.977875 40.79271 93.29299 41.08682 C 93.48206 41.296898 93.56609 41.46496 93.69214 41.969147 C 93.755165 42.200233 93.818184 42.43132 93.839195 42.473335 C 93.923225 42.662403 94.07028 42.788452 94.259346 42.80946 C 94.34338 42.80946 94.3854 42.80946 94.49043 42.746437 C 94.763535 42.620388 95.41478 41.8431 95.66687 41.35992 C 95.7299 41.212868 95.83493 41.149845 95.93997 41.149845 C 96.024 41.149845 96.12904 41.212868 96.17106 41.27589 C 96.19207 41.317905 95.98199 42.05318 94.868576 45.77156 C 94.15431 48.20846 93.54508 50.246212 93.52408 50.267227 C 93.52408 50.288246 93.44005 50.35125 93.35601 50.372265 C 93.229965 50.43529 93.20896 50.43529 93.04089 50.43529 C 92.87283 50.43529 92.83082 50.43529 92.70477 50.39328 C 92.64175 50.35125 92.55772 50.30924 92.55772 50.288246 C 92.5157 50.267227 92.66276 49.889088 93.73415 46.842957 C 94.4064 44.973263 94.95261 43.418686 94.931595 43.418686 L 94.57446 43.523724 C 93.818184 43.775818 93.35601 43.859848 92.7888 43.859848 C 92.32663 43.859848 92.200584 43.83884 91.86446 43.67078 C 90.94012 43.229614 90.625 42.15822 91.15019 41.35992 C 91.38128 41.044804 91.73841 40.79271 92.116554 40.729687 Z" fill="#404040" stroke="none" stroke-width="0.75" />
<path d="M 108.5 70.0 L 124.5 70.0 Z" fill="none" stroke="#d6d6d6" stroke-width="0.75" />
<path d="M 108.5 70.0 L 124.5 70.0 Z" fill="none" stroke="#d6d6d6" stroke-width="0.75" />
<path d="M 108.5 78.0 L 124.5 78.0 Z" fill="none" stroke="#d6d6d6" stroke-width="0.75" />
<path d="M 108.5 86.0 L 124.5 86.0 Z" fill="none" stroke="#d6d6d6" stroke-width="0.75" />
<path d="M 112.02 75.232 C 112.02 76.456 113.215195 77.68 114.395996 77.68 C 117.995995 77.68 121.59599 75.232 121.59599 72.856 C 121.59599 71.6752 120.371994 70.48 119.21999 70.48 C 115.619995 70.48 112.02 72.856 112.02 75.232 Z" fill="#404040" stroke="none" stroke-width="1.0" />
<path d="M 110.5 150.25 L 118.5 150.25 L 118.5 157.75 L 110.5 157.75 L 110.5 150.25 Z" fill="#ffffff" stroke="none" stroke-width="1.0" />
<text x='110.5' y='157.75' font-family="Default" font-size="10.0" fill="#404040" >2</text>
<path d="M 112.02 91.232 C 112.02 92.456 113.215195 93.68 114.395996 93.68 C 117.995995 93.68 121.59599 91.232 121.59599 88.856 C 121.59599 87.6752 120.371994 86.48 119.21999 86.48 C 115.619995 86.48 112.02 88.856 112.02 91.232 Z" fill="#404040" stroke="none" stroke-width="1.0" />
<path d="M 110.5 160.25 L 118.5 160.25 L 118.5 167.75 L 110.5 167.75 L 110.5 160.25 Z" fill="#ffffff" stroke="none" stroke-width="1.0" />
<text x='110.5' y='167.75' font-family="Default" font-size="10.0" fill="#404040" >0</text>
<path d="M 120.68 89.04 L 121.68 89.04 L 121.68 42.0 L 120.68 42.0 M 120.68 89.04 Z" fill="#404040" stroke="none" stroke-width="0.75" />
<path d="M 120.68 40.0 L 120.68 44.0 L 143.555 44.0 L 143.555 40.0 L 120.68 40.0 Z" fill="#404040" stroke="none" stroke-width="0.75" />
<path d="M 130.375 70.0 L 146.375 70.0 Z" fill="none" stroke="#d6d6d6" stroke-width="0.75" />
<path d="M 130.375 70.0 L 146.375 70.0 Z" fill="none" stroke="#d6d6d6" stroke-width="0.75" />
<path d="M 130.375 78.0 L 146.375 78.0 Z" fill="none" stroke="#d6d6d6" stroke-width="0.75" />
<path d="M 130.375 86.0 L 146.375 86.0 Z" fill="none" stroke="#d6d6d6" stroke-width="0.75" />
<path d="M 133.895 75.232 C 133.895 76.456 135.09021 77.68 136.27101 77.68 C 139.871 77.68 143.47101 75.232 143.47101 72.856 C 143.47101 71.6752 142.24701 70.48 141.095 70.48 C 137.49501 70.48 133.895 72.856 133.895 75.232 Z" fill="#404040" stroke="none" stroke-width="1.0" />
<path d="M 132.375 150.25 L 140.375 150.25 L 140.375 157.75 L 132.375 157.75 L 132.375 150.25 Z" fill="#ffffff" stroke="none" stroke-width="1.0" />
<text x='132.375' y='157.75' font-family="Default" font-size="10.0" fill="#404040" >2</text>
<path d="M 133.895 91.232 C 133.895 92.456 135.09021 93.68 136.27101 93.68 C 139.871 93.68 143.47101 91.232 143.47101 88.856 C 143.47101 87.6752 142.24701 86.48 141.095 86.48 C 137.49501 86.48 133.895 88.856 133.895 91.232 Z" fill="#404040" stroke="none" stroke-width="1.0" />
<path d="M 132.375 160.25 L 140.375 160.25 L 140.375 167.75 L 132.375 167.75 L 132.375 160.25 Z" fill="#ffffff" stroke="none" stroke-width="1.0" />
<text x='132.375' y='167.75' font-family="Default" font-size="10.0" fill="#404040" >0</text>
<path d="M 142.555 89.04 L 143.555 89.04 L 143.555 42.0 L 142.555 42.0 M 142.555 89.04 Z" fill="#404040" stroke="none" stroke-width="0.75" />
<path d="M 157.74155 40.729687 C 158.20372 40.666664 158.60287 40.79271 158.91798 41.08682 C 159.10706 41.296898 159.19109 41.46496 159.31714 41.969147 C 159.38016 42.200233 159.44319 42.43132 159.46419 42.473335 C 159.54822 42.662403 159.69528 42.788452 159.88435 42.80946 C 159.96838 42.80946 160.01039 42.80946 160.11543 42.746437 C 160.38853 42.620388 161.03978 41.8431 161.29187 41.35992 C 161.35489 41.212868 161.45993 41.149845 161.56497 41.149845 C 161.649 41.149845 161.75404 41.212868 161.79605 41.27589 C 161.81706 41.317905 161.607 42.05318 160.49358 45.77156 C 159.77931 48.20846 159.17009 50.246212 159.14908 50.267227 C 159.14908 50.288246 159.06505 50.35125 158.98102 50.372265 C 158.85497 50.43529 158.83395 50.43529 158.6659 50.43529 C 158.49783 50.43529 158.45583 50.43529 158.32977 50.39328 C 158.26675 50.35125 158.18272 50.30924 158.18272 50.288246 C 158.1407 50.267227 158.28775 49.889088 159.35916 46.842957 C 160.0314 44.973263 160.5776 43.418686 160.5566 43.418686 L 160.19946 43.523724 C 159.44319 43.775818 158.98102 43.859848 158.4138 43.859848 C 157.95163 43.859848 157.82558 43.83884 157.48946 43.67078 C 156.56512 43.229614 156.25 42.15822 156.77519 41.35992 C 157.00629 41.044804 157.36342 40.79271 157.74155 40.729687 Z" fill="#404040" stroke="none" stroke-width="0.75" />
<path d="M 179.61655 40.729687 C 180.07872 40.666664 180.47787 40.79271 180.79298 41.08682 C 180.98206 41.296898 181.06609 41.46496 181.19214 41.969147 C 181.25516 42.200233 181.31819 42.43132 181.33919 42.473335 C 181.42322 42.662403 181.57028 42.788452 181.75935 42.80946 C 181.84338 42.80946 181.88539 42.80946 181.99043 42.746437 C 182.26353 42.620388 182.91478 41.8431 183.16687 41.35992 C 183.22989 41.212868 183.33493 41.149845 183.43997 41.149845 C 183.524 41.149845 183.62904 41.212868 183.67105 41.27589 C 183.69206 41.317905 183.482 42.05318 182.36858 45.77156 C 181.65431 48.20846 181.04509 50.246212 181.02408 50.267227 C 181.02408 50.288246 180.94005 50.35125 180.85602 50.372265 C 180.72997 50.43529 180.70895 50.43529 180.5409 50.43529 C 180.37283 50.43529 180.33083 50.43529 180.20477 50.39328 C 180.14175 50.35125 180.05772 50.30924 180.05772 50.288246 C 180.0157 50.267227 180.16275 49.889088 181.23416 46.842957 C 181.9064 44.973263 182.4526 43.418686 182.4316 43.418686 L 182.07446 43.523724 C 181.31819 43.775818 180.85602 43.859848 180.2888 43.859848 C 179.82663 43.859848 179.70058 43.83884 179.36446 43.67078 C 178.44012 43.229614 178.125 42.15822 178.65019 41.35992 C 178.88129 41.044804 179.23842 40.79271 179.61655 40.729687 Z" fill="#404040" stroke="none" stroke-width="0.75" /></g>
<text x='307.0' y='48.0' font-family="Default" font-size="10.0" fill="#ff0000" >2</text>
<path d="M 306.0 50.0 L 309.0 50.0 L 309.0 82.0 L 306.0 82.0 L 306.0 50.0 Z" fill="#000000" stroke="#000000" stroke-width="0.75" />
<path d="M 311.0 50.0 L 312.0 50.0 L 312.0 82.0 L 311.0 82.0 L 311.0 50.0 Z" fill="#000000" stroke="#000000" stroke-width="0.75" />
<path d="M 317.0 62.0 M 315.0 62.0 a 2.0 2.0 0 1 0 4.0 0 2.0 2.0 0 1 0 -4.0 0 M 317.0 70.0 M 315.0 70.0 a 2.0 2.0 0 1 0 4.0 0 2.0 2.0 0 1 0 -4.0 0 Z" fill="#000000" stroke="none" stroke-width="1.0" />
<path d="M 521.0 50.0 L 521.0 82.0 Z" fill="#000000" stroke="#000000" stroke-width="0.75" />
<path d="M 306.0 134.0 L 309.0 134.0 L 309.0 184.0 L 306.0 184.0 L 306.0 134.0 Z" fill="#000000" stroke="#000000" stroke-width="0.75" />
<path d="M 311.0 134.0 L 312.0 134.0 L 312.0 184.0 L 311.0 184.0 L 311.0 134.0 Z" fill="#000000" stroke="#000000" stroke-width="0.75" />
<path d="M 317.0 155.0 M 315.0 155.0 a 2.0 2.0 0 1 0 4.0 0 2.0 2.0 0 1 0 -4.0 0 M 317.0 163.0 M 315.0 163.0 a 2.0 2.0 0 1 0 4.0 0 2.0 2.0 0 1 0 -4.0 0 Z" fill="#000000" stroke="none" stroke-width="1.0" />
<path d="M 521.0 134.0 L 521.0 184.0 Z" fill="#000000" stroke="#000000" stroke-width="0.75" /><g transform="translate(521.0,20.0)">
<path d="M 0.0 0.0 L 214.0 0.0 L 214.0 185.0 L 0.0 185.0 L 0.0 0.0 Z" fill="#ffffff" stroke="none" stroke-width="1.0" />
<path d="M 0.0 30.0 L 214.0 30.0 M 0.0 38.0 L 214.0 38.0 M 0.0 46.0 L 214.0 46.0 M 0.0 54.0 L 214.0 54.0 M 0.0 62.0 L 214.0 62.0 Z" fill="none" stroke="#d6d6d6" stroke-width="0.75" />
<path d="M 0.0 114.0 L 214.0 114.0 M 0.0 124.0 L 214.0 124.0 M 0.0 134.0 L 214.0 134.0 M 0.0 144.0 L 214.0 144.0 M 0.0 154.0 L 214.0 154.0 M 0.0 164.0 L 214.0 164.0 Z" fill="none" stroke="#d6d6d6" stroke-width="0.75" />
<path d="M 21.0 70.0 L 37.0 70.0 Z" fill="none" stroke="#d6d6d6" stroke-width="0.75" />
<path d="M 21.0 70.0 L 37.0 70.0 Z" fill="none" stroke="#d6d6d6" stroke-width="0.75" />
<path d="M 21.0 78.0 L 37.0 78.0 Z" fill="none" stroke="#d6d6d6" stroke-width="0.75" />
<path d="M 21.0 86.0 L 37.0 86.0 Z" fill="none" stroke="#d6d6d6" stroke-width="0.75" />
<path d="M 22.464394 63.63119 C 22.59136 63.55864 22.79088 63.613052 22.863434 63.7763 C 22.89971 63.84885 22.89971 63.903263 22.89971 65.172935 C 22.89971 65.9166 22.89971 66.51516 22.917847 66.51516 C 22.917847 66.51516 23.08109 66.44261 23.280611 66.370056 C 23.69779 66.20681 23.752205 66.188675 23.861032 66.279366 C 23.988 66.370056 23.988 66.38819 23.988 67.11372 C 23.988 67.73042 23.988 67.784836 23.951725 67.83925 C 23.933586 67.87553 23.897308 67.911804 23.879171 67.92994 C 23.842896 67.94808 23.625237 68.05691 23.371302 68.1476 L 22.917847 68.34712 L 22.89971 69.816315 C 22.89971 70.614395 22.89971 71.28551 22.917847 71.28551 C 22.917847 71.28551 23.08109 71.21295 23.280611 71.140396 C 23.69779 70.97716 23.752205 70.959015 23.861032 71.049706 C 23.988 71.140396 23.988 71.15854 23.988 71.88406 C 23.988 72.50076 23.988 72.555176 23.951725 72.60959 C 23.933586 72.64587 23.897308 72.682144 23.879171 72.70028 C 23.842896 72.71842 23.625237 72.82725 23.371302 72.91794 L 22.917847 73.11746 L 22.89971 74.64107 C 22.89971 76.01957 22.88157 76.182816 22.863434 76.23723 C 22.736465 76.45489 22.428116 76.45489 22.30115 76.23723 C 22.283012 76.182816 22.264874 76.037704 22.264874 74.768036 L 22.264874 73.3714 L 21.484932 73.67974 L 20.723127 73.98809 L 20.723127 75.45728 C 20.723127 77.01717 20.723127 76.980896 20.632437 77.07159 C 20.59616 77.126 20.469193 77.18041 20.414778 77.18041 C 20.342226 77.18041 20.215258 77.126 20.178982 77.07159 C 20.088291 76.980896 20.088291 77.01717 20.088291 75.602394 C 20.088291 74.85873 20.088291 74.26017 20.070152 74.26017 C 20.070152 74.26017 19.90691 74.33272 19.70739 74.40527 C 19.29021 74.56851 19.235796 74.586655 19.126966 74.495964 C 19.0 74.40527 19.0 74.38713 19.0 73.661606 C 19.0 73.04491 19.0 72.99049 19.036276 72.93608 C 19.054415 72.8998 19.09069 72.863525 19.10883 72.84539 C 19.145105 72.82725 19.362764 72.71842 19.6167 72.62773 L 20.088291 72.42821 L 20.088291 70.959015 C 20.088291 70.160934 20.088291 69.48982 20.070152 69.48982 C 20.070152 69.48982 19.90691 69.56238 19.70739 69.63493 C 19.29021 69.79817 19.235796 69.816315 19.126966 69.725624 C 19.0 69.63493 19.0 69.61679 19.0 68.891266 C 19.0 68.27457 19.0 68.22015 19.036276 68.16573 C 19.054415 68.12946 19.09069 68.093185 19.10883 68.07504 C 19.145105 68.05691 19.362764 67.94808 19.6167 67.85739 L 20.088291 67.65787 L 20.088291 66.13426 C 20.088291 64.75576 20.10643 64.592514 20.124567 64.5381 C 20.251535 64.32044 20.559883 64.32044 20.686852 64.5381 C 20.704988 64.592514 20.723127 64.73762 20.723127 66.00729 L 20.741266 67.40393 L 21.503069 67.09558 L 22.264874 66.78723 L 22.264874 65.31804 C 22.264874 63.93954 22.264874 63.84885 22.30115 63.7763 C 22.337425 63.703743 22.373703 63.667465 22.464394 63.63119 M 22.264874 70.070244 L 22.264874 68.60105 L 21.484932 68.9094 L 20.723127 69.21775 L 20.723127 70.705086 L 20.723127 72.17428 L 20.777542 72.156136 C 20.813818 72.138 21.158443 71.9929 21.557484 71.847786 L 22.264874 71.55758 L 22.264874 70.070244 Z" fill="#404040" stroke="none" stroke-width="0.75" />
<path d="M 24.52 71.232 C 24.52 72.456 25.7152 73.68 26.896 73.68 C 30.496 73.68 34.096 71.232 34.096 68.856 C 34.096 67.6752 32.872 66.48 31.720001 66.48 C 28.12 66.48 24.52 68.856 24.52 71.232 Z" fill="#404040" stroke="none" stroke-width="1.0" />
<path d="M 23.0 150.25 L 31.0 150.25 L 31.0 157.75 L 23.0 157.75 L 23.0 150.25 Z" fill="#ffffff" stroke="none" stroke-width="1.0" />
<text x='23.0' y='157.75' font-family="Default" font-size="10.0" fill="#404040" >4</text>
<path d="M 22.464394 79.63119 C 22.59136 79.55864 22.79088 79.61305 22.863434 79.7763 C 22.89971 79.84885 22.89971 79.90327 22.89971 81.172935 C 22.89971 81.9166 22.89971 82.51516 22.917847 82.51516 C 22.917847 82.51516 23.08109 82.44261 23.280611 82.370056 C 23.69779 82.20681 23.752205 82.188675 23.861032 82.279366 C 23.988 82.370056 23.988 82.38819 23.988 83.11372 C 23.988 83.73042 23.988 83.784836 23.951725 83.83925 C 23.933586 83.87553 23.897308 83.911804 23.879171 83.92994 C 23.842896 83.94808 23.625237 84.05691 23.371302 84.1476 L 22.917847 84.34712 L 22.89971 85.816315 C 22.89971 86.614395 22.89971 87.28551 22.917847 87.28551 C 22.917847 87.28551 23.08109 87.21295 23.280611 87.140396 C 23.69779 86.97716 23.752205 86.959015 23.861032 87.049706 C 23.988 87.140396 23.988 87.15854 23.988 87.88406 C 23.988 88.50076 23.988 88.555176 23.951725 88.60959 C 23.933586 88.64587 23.897308 88.682144 23.879171 88.70028 C 23.842896 88.71842 23.625237 88.82725 23.371302 88.91794 L 22.917847 89.11746 L 22.89971 90.64107 C 22.89971 92.01957 22.88157 92.182816 22.863434 92.23723 C 22.736465 92.45489 22.428116 92.45489 22.30115 92.23723 C 22.283012 92.182816 22.264874 92.037704 22.264874 90.768036 L 22.264874 89.3714 L 21.484932 89.67974 L 20.723127 89.98809 L 20.723127 91.45728 C 20.723127 93.01717 20.723127 92.980896 20.632437 93.07159 C 20.59616 93.126 20.469193 93.18041 20.414778 93.18041 C 20.342226 93.18041 20.215258 93.126 20.178982 93.07159 C 20.088291 92.980896 20.088291 93.01717 20.088291 91.602394 C 20.088291 90.85873 20.088291 90.26017 20.070152 90.26017 C 20.070152 90.26017 19.90691 90.33272 19.70739 90.40527 C 19.29021 90.56851 19.235796 90.586655 19.126966 90.495964 C 19.0 90.40527 19.0 90.38713 19.0 89.661606 C 19.0 89.04491 19.0 88.99049 19.036276 88.93608 C 19.054415 88.8998 19.09069 88.863525 19.10883 88.84539 C 19.145105 88.82725 19.362764 88.71842 19.6167 88.62773 L 20.088291 88.42821 L 20.088291 86.959015 C 20.088291 86.160934 20.088291 85.48982 20.070152 85.48982 C 20.070152 85.48982 19.90691 85.56238 19.70739 85.63493 C 19.29021 85.79817 19.235796 85.816315 19.126966 85.725624 C 19.0 85.63493 19.0 85.61679 19.0 84.891266 C 19.0 84.27457 19.0 84.22015 19.036276 84.16573 C 19.054415 84.12946 19.09069 84.093185 19.10883 84.07504 C 19.145105 84.05691 19.362764 83.94808 19.6167 83.85739 L 20.088291 83.65787 L 20.088291 82.13426 C 20.088291 80.75576 20.10643 80.592514 20.124567 80.5381 C 20.251535 80.32044 20.559883 80.32044 20.686852 80.5381 C 20.704988 80.592514 20.723127 80.73762 20.723127 82.00729 L 20.741266 83.40393 L 21.503069 83.09558 L 22.264874 82.78723 L 22.264874 81.31804 C 22.264874 79.93954 22.264874 79.84885 22.30115 79.7763 C 22.337425 79.70374 22.373703 79.667465 22.464394 79.63119 M 22.264874 86.070244 L 22.264874 84.60105 L 21.484932 84.9094 L 20.723127 85.21775 L 20.723127 86.705086 L 20.723127 88.17428 L 20.777542 88.156136 C 20.813818 88.138 21.158443 87.9929 21.557484 87.847786 L 22.264874 87.55758 L 22.264874 86.070244 Z" fill="#404040" stroke="none" stroke-width="0.75" />
<path d="M 24.52 87.232 C 24.52 88.456 25.7152 89.68 26.896 89.68 C 30.496 89.68 34.096 87.232 34.096 84.856 C 34.096 83.6752 32.872 82.48 31.720001 82.48 C 28.12 82.48 24.52 84.856 24.52 87.232 Z" fill="#404040" stroke="none" stroke-width="1.0" />
<path d="M 23.0 160.25 L 31.0 160.25 L 31.0 167.75 L 23.0 167.75 L 23.0 160.25 Z" fill="#ffffff" stroke="none" stroke-width="1.0" />
<text x='23.0' y='167.75' font-family="Default" font-size="10.0" fill="#404040" >2</text>
<path d="M 33.18 85.04 L 34.18 85.04 L 34.18 38.0 L 33.18 38.0 M 33.18 85.04 Z" fill="#404040" stroke="none" stroke-width="0.75" />
<path d="M 33.18 36.0 L 33.18 40.0 L 55.93 40.0 L 55.93 36.0 L 33.18 36.0 Z" fill="#404040" stroke="none" stroke-width="0.75" />
<path d="M 42.75 70.0 L 58.75 70.0 Z" fill="none" stroke="#d6d6d6" stroke-width="0.75" />
<path d="M 42.75 70.0 L 58.75 70.0 Z" fill="none" stroke="#d6d6d6" stroke-width="0.75" />
<path d="M 42.75 78.0 L 58.75 78.0 Z" fill="none" stroke="#d6d6d6" stroke-width="0.75" />
<path d="M 42.75 86.0 L 58.75 86.0 Z" fill="none" stroke="#d6d6d6" stroke-width="0.75" />
<path d="M 46.27 87.232 C 46.27 88.456 47.465202 89.68 48.646 89.68 C 52.246002 89.68 55.846 87.232 55.846 84.856 C 55.846 83.6752 54.622 82.48 53.47 82.48 C 49.87 82.48 46.27 84.856 46.27 87.232 Z" fill="#404040" stroke="none" stroke-width="1.0" />
<path d="M 44.75 160.25 L 52.75 160.25 L 52.75 167.75 L 44.75 167.75 L 44.75 160.25 Z" fill="#ffffff" stroke="none" stroke-width="1.0" />
<text x='44.75' y='167.75' font-family="Default" font-size="10.0" fill="#404040" >2</text>
<path d="M 46.27 71.232 C 46.27 72.456 47.465202 73.68 48.646 73.68 C 52.246002 73.68 55.846 71.232 55.846 68.856 C 55.846 67.6752 54.622 66.48 53.47 66.48 C 49.87 66.48 46.27 68.856 46.27 71.232 Z" fill="#404040" stroke="none" stroke-width="1.0" />
<path d="M 44.75 150.25 L 52.75 150.25 L 52.75 157.75 L 44.75 157.75 L 44.75 150.25 Z" fill="#ffffff" stroke="none" stroke-width="1.0" />
<text x='44.75' y='157.75' font-family="Default" font-size="10.0" fill="#404040" >4</text>
<path d="M 54.93 85.04 L 55.93 85.04 L 55.93 38.0 L 54.93 38.0 M 54.93 85.04 Z" fill="#404040" stroke="none" stroke-width="0.75" />
<path d="M 69.991554 40.729687 C 70.45373 40.666664 70.852875 40.79271 71.16799 41.08682 C 71.35706 41.296898 71.44109 41.46496 71.56714 41.969147 C 71.630165 42.200233 71.693184 42.43132 71.714195 42.473335 C 71.798225 42.662403 71.94528 42.788452 72.134346 42.80946 C 72.21838 42.80946 72.2604 42.80946 72.36543 42.746437 C 72.638535 42.620388 73.28978 41.8431 73.54187 41.35992 C 73.6049 41.212868 73.70993 41.149845 73.81497 41.149845 C 73.899 41.149845 74.00404 41.212868 74.04606 41.27589 C 74.06707 41.317905 73.85699 42.05318 72.743576 45.77156 C 72.02931 48.20846 71.42008 50.246212 71.39908 50.267227 C 71.39908 50.288246 71.31505 50.35125 71.23101 50.372265 C 71.104965 50.43529 71.08396 50.43529 70.91589 50.43529 C 70.74783 50.43529 70.70582 50.43529 70.57977 50.39328 C 70.51675 50.35125 70.43272 50.30924 70.43272 50.288246 C 70.3907 50.267227 70.53776 49.889088 71.60915 46.842957 C 72.2814 44.973263 72.82761 43.418686 72.806595 43.418686 L 72.44946 43.523724 C 71.693184 43.775818 71.23101 43.859848 70.6638 43.859848 C 70.20163 43.859848 70.075584 43.83884 69.73946 43.67078 C 68.81512 43.229614 68.5 42.15822 69.02519 41.35992 C 69.25628 41.044804 69.61341 40.79271 69.991554 40.729687 Z" fill="#404040" stroke="none" stroke-width="0.75" />
<path d="M 91.741554 40.729687 C 92.20373 40.666664 92.602875 40.79271 92.91799 41.08682 C 93.10706 41.296898 93.19109 41.46496 93.31714 41.969147 C 93.380165 42.200233 93.443184 42.43132 93.464195 42.473335 C 93.548225 42.662403 93.69528 42.788452 93.884346 42.80946 C 93.96838 42.80946 94.0104 42.80946 94.11543 42.746437 C 94.388535 42.620388 95.03978 41.8431 95.29187 41.35992 C 95.3549 41.212868 95.45993 41.149845 95.56497 41.149845 C 95.649 41.149845 95.75404 41.212868 95.79606 41.27589 C 95.81707 41.317905 95.60699 42.05318 94.493576 45.77156 C 93.77931 48.20846 93.17008 50.246212 93.14908 50.267227 C 93.14908 50.288246 93.06505 50.35125 92.98101 50.372265 C 92.854965 50.43529 92.83396 50.43529 92.66589 50.43529 C 92.49783 50.43529 92.45582 50.43529 92.32977 50.39328 C 92.26675 50.35125 92.18272 50.30924 92.18272 50.288246 C 92.1407 50.267227 92.28776 49.889088 93.35915 46.842957 C 94.0314 44.973263 94.57761 43.418686 94.556595 43.418686 L 94.19946 43.523724 C 93.443184 43.775818 92.98101 43.859848 92.4138 43.859848 C 91.95163 43.859848 91.825584 43.83884 91.48946 43.67078 C 90.56512 43.229614 90.25 42.15822 90.77519 41.35992 C 91.00628 41.044804 91.36341 40.79271 91.741554 40.729687 Z" fill="#404040" stroke="none" stroke-width="0.75" />
<path d="M 113.491554 40.729687 C 113.95373 40.666664 114.352875 40.79271 114.66799 41.08682 C 114.85706 41.296898 114.94109 41.46496 115.06714 41.969147 C 115.130165 42.200233 115.193184 42.43132 115.214195 42.473335 C 115.298225 42.662403 115.44528 42.788452 115.634346 42.80946 C 115.71838 42.80946 115.7604 42.80946 115.86543 42.746437 C 116.138535 42.620388 116.78978 41.8431 117.04187 41.35992 C 117.1049 41.212868 117.20993 41.149845 117.31497 41.149845 C 117.399 41.149845 117.50404 41.212868 117.54606 41.27589 C 117.56707 41.317905 117.35699 42.05318 116.243576 45.77156 C 115.52931 48.20846 114.92008 50.246212 114.89908 50.267227 C 114.89908 50.288246 114.81505 50.35125 114.73101 50.372265 C 114.604965 50.43529 114.58396 50.43529 114.41589 50.43529 C 114.24783 50.43529 114.20582 50.43529 114.07977 50.39328 C 114.01675 50.35125 113.93272 50.30924 113.93272 50.288246 C 113.8907 50.267227 114.03776 49.889088 115.10915 46.842957 C 115.7814 44.973263 116.32761 43.418686 116.306595 43.418686 L 115.94946 43.523724 C 115.193184 43.775818 114.73101 43.859848 114.1638 43.859848 C 113.70163 43.859848 113.575584 43.83884 113.23946 43.67078 C 112.31512 43.229614 112.0 42.15822 112.52519 41.35992 C 112.75628 41.044804 113.11341 40.79271 113.491554 40.729687 Z" fill="#404040" stroke="none" stroke-width="0.75" />
<path d="M 135.24155 40.729687 C 135.70372 40.666664 136.10287 40.79271 136.41798 41.08682 C 136.60706 41.296898 136.69109 41.46496 136.81714 41.969147 C 136.88016 42.200233 136.94319 42.43132 136.96419 42.473335 C 137.04822 42.662403 137.19528 42.788452 137.38435 42.80946 C 137.46838 42.80946 137.51039 42.80946 137.61543 42.746437 C 137.88853 42.620388 138.53978 41.8431 138.79187 41.35992 C 138.85489 41.212868 138.95993 41.149845 139.06497 41.149845 C 139.149 41.149845 139.25404 41.212868 139.29605 41.27589 C 139.31706 41.317905 139.107 42.05318 137.99358 45.77156 C 137.27931 48.20846 136.67009 50.246212 136.64908 50.267227 C 136.64908 50.288246 136.56505 50.35125 136.48102 50.372265 C 136.35497 50.43529 136.33395 50.43529 136.1659 50.43529 C 135.99783 50.43529 135.95583 50.43529 135.82977 50.39328 C 135.76675 50.35125 135.68272 50.30924 135.68272 50.288246 C 135.6407 50.267227 135.78775 49.889088 136.85916 46.842957 C 137.5314 44.973263 138.0776 43.418686 138.0566 43.418686 L 137.69946 43.523724 C 136.94319 43.775818 136.48102 43.859848 135.9138 43.859848 C 135.45163 43.859848 135.32558 43.83884 134.98946 43.67078 C 134.06512 43.229614 133.75 42.15822 134.27519 41.35992 C 134.50629 41.044804 134.86342 40.79271 135.24155 40.729687 Z" fill="#404040" stroke="none" stroke-width="0.75" />
<path d="M 156.99155 40.729687 C 157.45372 40.666664 157.85287 40.79271 158.16798 41.08682 C 158.35706 41.296898 158.44109 41.46496 158.56714 41.969147 C 158.63016 42.200233 158.69319 42.43132 158.71419 42.473335 C 158.79822 42.662403 158.94528 42.788452 159.13435 42.80946 C 159.21838 42.80946 159.26039 42.80946 159.36543 42.746437 C 159.63853 42.620388 160.28978 41.8431 160.54187 41.35992 C 160.60489 41.212868 160.70993 41.149845 160.81497 41.149845 C 160.899 41.149845 161.00404 41.212868 161.04605 41.27589 C 161.06706 41.317905 160.857 42.05318 159.74358 45.77156 C 159.02931 48.20846 158.42009 50.246212 158.39908 50.267227 C 158.39908 50.288246 158.31505 50.35125 158.23102 50.372265 C 158.10497 50.43529 158.08395 50.43529 157.9159 50.43529 C 157.74783 50.43529 157.70583 50.43529 157.57977 50.39328 C 157.51675 50.35125 157.43272 50.30924 157.43272 50.288246 C 157.3907 50.267227 157.53775 49.889088 158.60916 46.842957 C 159.2814 44.973263 159.8276 43.418686 159.8066 43.418686 L 159.44946 43.523724 C 158.69319 43.775818 158.23102 43.859848 157.6638 43.859848 C 157.20163 43.859848 157.07558 43.83884 156.73946 43.67078 C 155.81512 43.229614 155.5 42.15822 156.02519 41.35992 C 156.25629 41.044804 156.61342 40.79271 156.99155 40.729687 Z" fill="#404040" stroke="none" stroke-width="0.75" />
<path d="M 178.74155 40.729687 C 179.20372 40.666664 179.60287 40.79271 179.91798 41.08682 C 180.10706 41.296898 180.19109 41.46496 180.31714 41.969147 C 180.38016 42.200233 180.44319 42.43132 180.46419 42.473335 C 180.54822 42.662403 180.69528 42.788452 180.88435 42.80946 C 180.96838 42.80946 181.01039 42.80946 181.11543 42.746437 C 181.38853 42.620388 182.03978 41.8431 182.29187 41.35992 C 182.35489 41.212868 182.45993 41.149845 182.56497 41.149845 C 182.649 41.149845 182.75404 41.212868 182.79605 41.27589 C 182.81706 41.317905 182.607 42.05318 181.49358 45.77156 C 180.77931 48.20846 180.17009 50.246212 180.14908 50.267227 C 180.14908 50.288246 180.06505 50.35125 179.98102 50.372265 C 179.85497 50.43529 179.83395 50.43529 179.6659 50.43529 C 179.49783 50.43529 179.45583 50.43529 179.32977 50.39328 C 179.26675 50.35125 179.18272 50.30924 179.18272 50.288246 C 179.1407 50.267227 179.28775 49.889088 180.35916 46.842957 C 181.0314 44.973263 181.5776 43.418686 181.5566 43.418686 L 181.19946 43.523724 C 180.44319 43.775818 179.98102 43.859848 179.4138 43.859848 C 178.95163 43.859848 178.82558 43.83884 178.48946 43.67078 C 177.56512 43.229614 177.25 42.15822 177.77519 41.35992 C 178.00629 41.044804 178.36342 40.79271 178.74155 40.729687 Z" fill="#404040" stroke="none" stroke-width="0.75" /></g>
<text x='522.0' y='48.0' font-family="Default" font-size="10.0" fill="#ff0000" >3</text>
<path d="M 521.0 50.0 L 521.0 82.0 Z" fill="#000000" stroke="#000000" stroke-width="0.75" />
<path d="M 735.0 50.0 L 735.0 82.0 Z" fill="#000000" stroke="#000000" stroke-width="0.75" />
<path d="M 521.0 134.0 L 521.0 184.0 Z" fill="#000000" stroke="#000000" stroke-width="0.75" />
<path d="M 735.0 134.0 L 735.0 184.0 Z" fill="#000000" stroke="#000000" stroke-width="0.75" /><g transform="translate(735.0,20.0)">
<path d="M 0.0 0.0 L 215.0 0.0 L 215.0 185.0 L 0.0 185.0 L 0.0 0.0 Z" fill="#ffffff" stroke="none" stroke-width="1.0" />
<path d="M 0.0 30.0 L 215.0 30.0 M 0.0 38.0 L 215.0 38.0 M 0.0 46.0 L 215.0 46.0 M 0.0 54.0 L 215.0 54.0 M 0.0 62.0 L 215.0 62.0 Z" fill="none" stroke="#d6d6d6" stroke-width="0.75" />
<path d="M 0.0 114.0 L 215.0 114.0 M 0.0 124.0 L 215.0 124.0 M 0.0 134.0 L 215.0 134.0 M 0.0 144.0 L 215.0 144.0 M 0.0 154.0 L 215.0 154.0 M 0.0 164.0 L 215.0 164.0 Z" fill="none" stroke="#d6d6d6" stroke-width="0.75" />
<path d="M 22.464394 23.631191 C 22.59136 23.558638 22.79088 23.613052 22.863434 23.776297 C 22.89971 23.84885 22.89971 23.903263 22.89971 25.172935 C 22.89971 25.916603 22.89971 26.515162 22.917847 26.515162 C 22.917847 26.515162 23.08109 26.44261 23.280611 26.370056 C 23.69779 26.206814 23.752205 26.188675 23.861032 26.279366 C 23.988 26.370056 23.988 26.388195 23.988 27.113722 C 23.988 27.73042 23.988 27.784836 23.951725 27.839249 C 23.933586 27.875526 23.897308 27.911802 23.879171 27.92994 C 23.842896 27.948078 23.625237 28.056908 23.371302 28.147598 L 22.917847 28.347118 L 22.89971 29.81631 C 22.89971 30.614391 22.89971 31.285505 22.917847 31.285505 C 22.917847 31.285505 23.08109 31.212952 23.280611 31.1404 C 23.69779 30.977156 23.752205 30.959017 23.861032 31.049707 C 23.988 31.1404 23.988 31.158537 23.988 31.884064 C 23.988 32.500763 23.988 32.555176 23.951725 32.609592 C 23.933586 32.64587 23.897308 32.682144 23.879171 32.700283 C 23.842896 32.718422 23.625237 32.82725 23.371302 32.917942 L 22.917847 33.117462 L 22.89971 34.641068 C 22.89971 36.01957 22.88157 36.18281 22.863434 36.23723 C 22.736465 36.454887 22.428116 36.454887 22.30115 36.23723 C 22.283012 36.18281 22.264874 36.03771 22.264874 34.768036 L 22.264874 33.371395 L 21.484932 33.679745 L 20.723127 33.988094 L 20.723127 35.457287 C 20.723127 37.01717 20.723127 36.980892 20.632437 37.071587 C 20.59616 37.126 20.469193 37.180412 20.414778 37.180412 C 20.342226 37.180412 20.215258 37.126 20.178982 37.071587 C 20.088291 36.980892 20.088291 37.01717 20.088291 35.60239 C 20.088291 34.858727 20.088291 34.260166 20.070152 34.260166 C 20.070152 34.260166 19.90691 34.332718 19.70739 34.405273 C 19.29021 34.568516 19.235796 34.586655 19.126966 34.495964 C 19.0 34.405273 19.0 34.387135 19.0 33.661606 C 19.0 33.044907 19.0 32.990494 19.036276 32.936077 C 19.054415 32.899803 19.09069 32.863525 19.10883 32.845387 C 19.145105 32.82725 19.362764 32.718422 19.6167 32.62773 L 20.088291 32.42821 L 20.088291 30.959017 C 20.088291 30.160938 20.088291 29.489824 20.070152 29.489824 C 20.070152 29.489824 19.90691 29.562378 19.70739 29.63493 C 19.29021 29.798174 19.235796 29.81631 19.126966 29.72562 C 19.0 29.63493 19.0 29.616793 19.0 28.891264 C 19.0 28.274567 19.0 28.220152 19.036276 28.165737 C 19.054415 28.129461 19.09069 28.093184 19.10883 28.075047 C 19.145105 28.056908 19.362764 27.948078 19.6167 27.857388 L 20.088291 27.657867 L 20.088291 26.13426 C 20.088291 24.755758 20.10643 24.592514 20.124567 24.538101 C 20.251535 24.320442 20.559883 24.320442 20.686852 24.538101 C 20.704988 24.592514 20.723127 24.73762 20.723127 26.007294 L 20.741266 27.403933 L 21.503069 27.095585 L 22.264874 26.787235 L 22.264874 25.318043 C 22.264874 23.93954 22.264874 23.84885 22.30115 23.776297 C 22.337425 23.703743 22.373703 23.667467 22.464394 23.631191 M 22.264874 30.070246 L 22.264874 28.601053 L 21.484932 28.909403 L 20.723127 29.217752 L 20.723127 30.705082 L 20.723127 32.174274 L 20.777542 32.156136 C 20.813818 32.138 21.158443 31.992893 21.557484 31.847788 L 22.264874 31.557577 L 22.264874 30.070246 Z" fill="#404040" stroke="none" stroke-width="0.75" />
<path d="M 24.52 31.231998 C 24.52 32.456 25.7152 33.68 26.896 33.68 C 30.496 33.68 34.096 31.231998 34.096 28.855999 C 34.096 27.6752 32.872 26.48 31.720001 26.48 C 28.12 26.48 24.52 28.855999 24.52 31.231998 Z" fill="#404040" stroke="none" stroke-width="1.0" />
<path d="M 23.0 110.25 L 31.0 110.25 L 31.0 117.75 L 23.0 117.75 L 23.0 110.25 Z" fill="#ffffff" stroke="none" stroke-width="1.0" />
<text x='23.0' y='117.75' font-family="Default" font-size="10.0" fill="#404040" >2</text>
<path d="M 24.52 39.232 C 24.52 40.456 25.7152 41.68 26.896 41.68 C 30.496 41.68 34.096 39.232 34.096 36.856 C 34.096 35.6752 32.872 34.48 31.720001 34.48 C 28.12 34.48 24.52 36.856 24.52 39.232 Z" fill="#404040" stroke="none" stroke-width="1.0" />
<path d="M 23.0 120.25 L 31.0 120.25 L 31.0 127.75 L 23.0 127.75 L 23.0 120.25 Z" fill="#ffffff" stroke="none" stroke-width="1.0" />
<text x='23.0' y='127.75' font-family="Default" font-size="10.0" fill="#404040" >3</text>
<path d="M 24.52 51.232 C 24.52 52.456 25.7152 53.68 26.896 53.68 C 30.496 53.68 34.096 51.232 34.096 48.856 C 34.096 47.6752 32.872 46.48 31.720001 46.48 C 28.12 46.48 24.52 48.856 24.52 51.232 Z" fill="#404040" stroke="none" stroke-width="1.0" />
<path d="M 23.0 130.25 L 31.0 130.25 L 31.0 137.75 L 23.0 137.75 L 23.0 130.25 Z" fill="#ffffff" stroke="none" stroke-width="1.0" />
<text x='23.0' y='137.75' font-family="Default" font-size="10.0" fill="#404040" >2</text>
<path d="M 24.5 30.96 L 25.5 30.96 L 25.5 81.0 L 24.5 81.0 M 24.5 30.96 Z" fill="#404040" stroke="none" stroke-width="0.75" />
<path d="M 24.5 79.0 L 24.5 83.0 L 47.375 83.0 L 47.375 79.0 L 24.5 79.0 Z" fill="#404040" stroke="none" stroke-width="0.75" />
<path d="M 46.395 51.232 C 46.395 52.456 47.590202 53.68 48.771 53.68 C 52.371002 53.68 55.971 51.232 55.971 48.856 C 55.971 47.6752 54.747 46.48 53.595 46.48 C 49.995 46.48 46.395 48.856 46.395 51.232 Z" fill="#404040" stroke="none" stroke-width="1.0" />
<path d="M 44.875 130.25 L 52.875 130.25 L 52.875 137.75 L 44.875 137.75 L 44.875 130.25 Z" fill="#ffffff" stroke="none" stroke-width="1.0" />
<text x='44.875' y='137.75' font-family="Default" font-size="10.0" fill="#404040" >2</text>
<path d="M 46.395 39.232 C 46.395 40.456 47.590202 41.68 48.771 41.68 C 52.371002 41.68 55.971 39.232 55.971 36.856 C 55.971 35.6752 54.747 34.48 53.595 34.48 C 49.995 34.48 46.395 36.856 46.395 39.232 Z" fill="#404040" stroke="none" stroke-width="1.0" />
<path d="M 44.875 120.25 L 52.875 120.25 L 52.875 127.75 L 44.875 127.75 L 44.875 120.25 Z" fill="#ffffff" stroke="none" stroke-width="1.0" />
<text x='44.875' y='127.75' font-family="Default" font-size="10.0" fill="#404040" >3</text>
<path d="M 46.395 31.231998 C 46.395 32.456 47.590202 33.68 48.771 33.68 C 52.371002 33.68 55.971 31.231998 55.971 28.855999 C 55.971 27.6752 54.747 26.48 53.595 26.48 C 49.995 26.48 46.395 28.855999 46.395 31.231998 Z" fill="#404040" stroke="none" stroke-width="1.0" />
<path d="M 44.875 110.25 L 52.875 110.25 L 52.875 117.75 L 44.875 117.75 L 44.875 110.25 Z" fill="#ffffff" stroke="none" stroke-width="1.0" />
<text x='44.875' y='117.75' font-family="Default" font-size="10.0" fill="#404040" >2</text>
<path d="M 46.375 30.96 L 47.375 30.96 L 47.375 81.0 L 46.375 81.0 M 46.375 30.96 Z" fill="#404040" stroke="none" stroke-width="0.75" />
<path d="M 70.241554 40.729687 C 70.70373 40.666664 71.102875 40.79271 71.41799 41.08682 C 71.60706 41.296898 71.69109 41.46496 71.81714 41.969147 C 71.880165 42.200233 71.943184 42.43132 71.964195 42.473335 C 72.048225 42.662403 72.19528 42.788452 72.384346 42.80946 C 72.46838 42.80946 72.5104 42.80946 72.61543 42.746437 C 72.888535 42.620388 73.53978 41.8431 73.79187 41.35992 C 73.8549 41.212868 73.95993 41.149845 74.06497 41.149845 C 74.149 41.149845 74.25404 41.212868 74.29606 41.27589 C 74.31707 41.317905 74.10699 42.05318 72.993576 45.77156 C 72.27931 48.20846 71.67008 50.246212 71.64908 50.267227 C 71.64908 50.288246 71.56505 50.35125 71.48101 50.372265 C 71.354965 50.43529 71.33396 50.43529 71.16589 50.43529 C 70.99783 50.43529 70.95582 50.43529 70.82977 50.39328 C 70.76675 50.35125 70.68272 50.30924 70.68272 50.288246 C 70.6407 50.267227 70.78776 49.889088 71.85915 46.842957 C 72.5314 44.973263 73.07761 43.418686 73.056595 43.418686 L 72.69946 43.523724 C 71.943184 43.775818 71.48101 43.859848 70.9138 43.859848 C 70.45163 43.859848 70.325584 43.83884 69.98946 43.67078 C 69.06512 43.229614 68.75 42.15822 69.27519 41.35992 C 69.50628 41.044804 69.86341 40.79271 70.241554 40.729687 Z" fill="#404040" stroke="none" stroke-width="0.75" />
<path d="M 92.116554 40.729687 C 92.57873 40.666664 92.977875 40.79271 93.29299 41.08682 C 93.48206 41.296898 93.56609 41.46496 93.69214 41.969147 C 93.755165 42.200233 93.818184 42.43132 93.839195 42.473335 C 93.923225 42.662403 94.07028 42.788452 94.259346 42.80946 C 94.34338 42.80946 94.3854 42.80946 94.49043 42.746437 C 94.763535 42.620388 95.41478 41.8431 95.66687 41.35992 C 95.7299 41.212868 95.83493 41.149845 95.93997 41.149845 C 96.024 41.149845 96.12904 41.212868 96.17106 41.27589 C 96.19207 41.317905 95.98199 42.05318 94.868576 45.77156 C 94.15431 48.20846 93.54508 50.246212 93.52408 50.267227 C 93.52408 50.288246 93.44005 50.35125 93.35601 50.372265 C 93.229965 50.43529 93.20896 50.43529 93.04089 50.43529 C 92.87283 50.43529 92.83082 50.43529 92.70477 50.39328 C 92.64175 50.35125 92.55772 50.30924 92.55772 50.288246 C 92.5157 50.267227 92.66276 49.889088 93.73415 46.842957 C 94.4064 44.973263 94.95261 43.418686 94.931595 43.418686 L 94.57446 43.523724 C 93.818184 43.775818 93.35601 43.859848 92.7888 43.859848 C 92.32663 43.859848 92.200584 43.83884 91.86446 43.67078 C 90.94012 43.229614 90.625 42.15822 91.15019 41.35992 C 91.38128 41.044804 91.73841 40.79271 92.116554 40.729687 Z" fill="#404040" stroke="none" stroke-width="0.75" />
<path d="M 108.5 70.0 L 124.5 70.0 Z" fill="none" stroke="#d6d6d6" stroke-width="0.75" />
<path d="M 108.5 70.0 L 124.5 70.0 Z" fill="none" stroke="#d6d6d6" stroke-width="0.75" />
<path d="M 108.5 78.0 L 124.5 78.0 Z" fill="none" stroke="#d6d6d6" stroke-width="0.75" />
<path d="M 108.5 86.0 L 124.5 86.0 Z" fill="none" stroke="#d6d6d6" stroke-width="0.75" />
<path d="M 112.02 75.232 C 112.02 76.456 113.215195 77.68 114.395996 77.68 C 117.995995 77.68 121.59599 75.232 121.59599 72.856 C 121.59599 71.6752 120.371994 70.48 119.21999 70.48 C 115.619995 70.48 112.02 72.856 112.02 75.232 Z" fill="#404040" stroke="none" stroke-width="1.0" />
<path d="M 110.5 150.25 L 118.5 150.25 L 118.5 157.75 L 110.5 157.75 L 110.5 150.25 Z" fill="#ffffff" stroke="none" stroke-width="1.0" />
<text x='110.5' y='157.75' font-family="Default" font-size="10.0" fill="#404040" >2</text>
<path d="M 112.02 91.232 C 112.02 92.456 113.215195 93.68 114.395996 93.68 C 117.995995 93.68 121.59599 91.232 121.59599 88.856 C 121.59599 87.6752 120.371994 86.48 119.21999 86.48 C 115.619995 86.48 112.02 88.856 112.02 91.232 Z" fill="#404040" stroke="none" stroke-width="1.0" />
<path d="M 110.5 160.25 L 118.5 160.25 L 118.5 167.75 L 110.5 167.75 L 110.5 160.25 Z" fill="#ffffff" stroke="none" stroke-width="1.0" />
<text x='110.5' y='167.75' font-family="Default" font-size="10.0" fill="#404040" >0</text>
<path d="M 120.68 89.04 L 121.68 89.04 L 121.68 42.0 L 120.68 42.0 M 120.68 89.04 Z" fill="#404040" stroke="none" stroke-width="0.75" />
<path d="M 120.68 40.0 L 120.68 44.0 L 143.555 44.0 L 143.555 40.0 L 120.68 40.0 Z" fill="#404040" stroke="none" stroke-width="0.75" />
<path d="M 130.375 70.0 L 146.375 70.0 Z" fill="none" stroke="#d6d6d6" stroke-width="0.75" />
<path d="M 130.375 70.0 L 146.375 70.0 Z" fill="none" stroke="#d6d6d6" stroke-width="0.75" />
<path d="M 130.375 78.0 L 146.375 78.0 Z" fill="none" stroke="#d6d6d6" stroke-width="0.75" />
<path d="M 130.375 86.0 L 146.375 86.0 Z" fill="none" stroke="#d6d6d6" stroke-width="0.75" />
<path d="M 133.895 75.232 C 133.895 76.456 135.09021 77.68 136.27101 77.68 C 139.871 77.68 143.47101 75.232 143.47101 72.856 C 143.47101 71.6752 142.24701 70.48 141.095 70.48 C 137.49501 70.48 133.895 72.856 133.895 75.232 Z" fill="#404040" stroke="none" stroke-width="1.0" />
<path d="M 132.375 150.25 L 140.375 150.25 L 140.375 157.75 L 132.375 157.75 L 132.375 150.25 Z" fill="#ffffff" stroke="none" stroke-width="1.0" />
<text x='132.375' y='157.75' font-family="Default" font-size="10.0" fill="#404040" >2</text>
<path d="M 133.895 91.232 C 133.895 92.456 135.09021 93.68 136.27101 93.68 C 139.871 93.68 143.47101 91.232 143.47101 88.856 C 143.47101 87.6752 142.24701 86.48 141.095 86.48 C 137.49501 86.48 133.895 88.856 133.895 91.232 Z" fill="#404040" stroke="none" stroke-width="1.0" />
<path d="M 132.375 160.25 L 140.375 160.25 L 140.375 167.75 L 132.375 167.75 L 132.375 160.25 Z" fill="#ffffff" stroke="none" stroke-width="1.0" />
<text x='132.375' y='167.75' font-family="Default" font-size="10.0" fill="#404040" >0</text>
<path d="M 142.555 89.04 L 143.555 89.04 L 143.555 42.0 L 142.555 42.0 M 142.555 89.04 Z" fill="#404040" stroke="none" stroke-width="0.75" />
<path d="M 157.74155 40.729687 C 158.20372 40.666664 158.60287 40.79271 158.91798 41.08682 C 159.10706 41.296898 159.19109 41.46496 159.31714 41.969147 C 159.38016 42.200233 159.44319 42.43132 159.46419 42.473335 C 159.54822 42.662403 159.69528 42.788452 159.88435 42.80946 C 159.96838 42.80946 160.01039 42.80946 160.11543 42.746437 C 160.38853 42.620388 161.03978 41.8431 161.29187 41.35992 C 161.35489 41.212868 161.45993 41.149845 161.56497 41.149845 C 161.649 41.149845 161.75404 41.212868 161.79605 41.27589 C 161.81706 41.317905 161.607 42.05318 160.49358 45.77156 C 159.77931 48.20846 159.17009 50.246212 159.14908 50.267227 C 159.14908 50.288246 159.06505 50.35125 158.98102 50.372265 C 158.85497 50.43529 158.83395 50.43529 158.6659 50.43529 C 158.49783 50.43529 158.45583 50.43529 158.32977 50.39328 C 158.26675 50.35125 158.18272 50.30924 158.18272 50.288246 C 158.1407 50.267227 158.28775 49.889088 159.35916 46.842957 C 160.0314 44.973263 160.5776 43.418686 160.5566 43.418686 L 160.19946 43.523724 C 159.44319 43.775818 158.98102 43.859848 158.4138 43.859848 C 157.95163 43.859848 157.82558 43.83884 157.48946 43.67078 C 156.56512 43.229614 156.25 42.15822 156.77519 41.35992 C 157.00629 41.044804 157.36342 40.79271 157.74155 40.729687 Z" fill="#404040" stroke="none" stroke-width="0.75" />
<path d="M 179.61655 40.729687 C 180.07872 40.666664 180.47787 40.79271 180.79298 41.08682 C 180.98206 41.296898 181.06609 41.46496 181.19214 41.969147 C 181.25516 42.200233 181.31819 42.43132 181.33919 42.473335 C 181.42322 42.662403 181.57028 42.788452 181.75935 42.80946 C 181.84338 42.80946 181.88539 42.80946 181.99043 42.746437 C 182.26353 42.620388 182.91478 41.8431 183.16687 41.35992 C 183.22989 41.212868 183.33493 41.149845 183.43997 41.149845 C 183.524 41.149845 183.62904 41.212868 183.67105 41.27589 C 183.69206 41.317905 183.482 42.05318 182.36858 45.77156 C 181.65431 48.20846 181.04509 50.246212 181.02408 50.267227 C 181.02408 50.288246 180.94005 50.35125 180.85602 50.372265 C 180.72997 50.43529 180.70895 50.43529 180.5409 50.43529 C 180.37283 50.43529 180.33083 50.43529 180.20477 50.39328 C 180.14175 50.35125 180.05772 50.30924 180.05772 50.288246 C 180.0157 50.267227 180.16275 49.889088 181.23416 46.842957 C 181.9064 44.973263 182.4526 43.418686 182.4316 43.418686 L 182.07446 43.523724 C 181.31819 43.775818 180.85602 43.859848 180.2888 43.859848 C 179.82663 43.859848 179.70058 43.83884 179.36446 43.67078 C 178.44012 43.229614 178.125 42.15822 178.65019 41.35992 C 178.88129 41.044804 179.23842 40.79271 179.61655 40.729687 Z" fill="#404040" stroke="none" stroke-width="0.75" /></g>
<text x='736.0' y='48.0' font-family="Default" font-size="10.0" fill="#ff0000" >4</text>
<path d="M 735.0 50.0 L 735.0 82.0 Z" fill="#000000" stroke="#000000" stroke-width="0.75" />
<path d="M 950.0 50.0 L 950.0 82.0 Z" fill="#000000" stroke="#000000" stroke-width="0.75" />
<path d="M 735.0 134.0 L 735.0 184.0 Z" fill="#000000" stroke="#000000" stroke-width="0.75" />
<path d="M 950.0 134.0 L 950.0 184.0 Z" fill="#000000" stroke="#000000" stroke-width="0.75" /><g transform="translate(20.0,216.0)">
<path d="M 0.0 0.0 L 220.0 0.0 L 220.0 181.0 L 0.0 181.0 L 0.0 0.0 Z" fill="#ffffff" stroke="none" stroke-width="1.0" />
<path d="M 0.0 30.0 L 220.0 30.0 M 0.0 38.0 L 220.0 38.0 M 0.0 46.0 L 220.0 46.0 M 0.0 54.0 L 220.0 54.0 M 0.0 62.0 L 220.0 62.0 Z" fill="none" stroke="#d6d6d6" stroke-width="0.75" />
<path d="M 0.0 110.0 L 220.0 110.0 M 0.0 120.0 L 220.0 120.0 M 0.0 130.0 L 220.0 130.0 M 0.0 140.0 L 220.0 140.0 M 0.0 150.0 L 220.0 150.0 M 0.0 160.0 L 220.0 160.0 Z" fill="none" stroke="#d6d6d6" stroke-width="0.75" />
<path d="M 21.0 70.0 L 37.0 70.0 Z" fill="none" stroke="#d6d6d6" stroke-width="0.75" />
<path d="M 21.0 70.0 L 37.0 70.0 Z" fill="none" stroke="#d6d6d6" stroke-width="0.75" />
<path d="M 21.0 78.0 L 37.0 78.0 Z" fill="none" stroke="#d6d6d6" stroke-width="0.75" />
<path d="M 21.0 86.0 L 37.0 86.0 Z" fill="none" stroke="#d6d6d6" stroke-width="0.75" />
<path d="M 22.464394 63.63119 C 22.59136 63.55864 22.79088 63.613052 22.863434 63.7763 C 22.89971 63.84885 22.89971 63.903263 22.89971 65.172935 C 22.89971 65.9166 22.89971 66.51516 22.917847 66.51516 C 22.917847 66.51516 23.08109 66.44261 23.280611 66.370056 C 23.69779 66.20681 23.752205 66.188675 23.861032 66.279366 C 23.988 66.370056 23.988 66.38819 23.988 67.11372 C 23.988 67.73042 23.988 67.784836 23.951725 67.83925 C 23.933586 67.87553 23.897308 67.911804 23.879171 67.92994 C 23.842896 67.94808 23.625237 68.05691 23.371302 68.1476 L 22.917847 68.34712 L 22.89971 69.816315 C 22.89971 70.614395 22.89971 71.28551 22.917847 71.28551 C 22.917847 71.28551 23.08109 71.21295 23.280611 71.140396 C 23.69779 70.97716 23.752205 70.959015 23.861032 71.049706 C 23.988 71.140396 23.988 71.15854 23.988 71.88406 C 23.988 72.50076 23.988 72.555176 23.951725 72.60959 C 23.933586 72.64587 23.897308 72.682144 23.879171 72.70028 C 23.842896 72.71842 23.625237 72.82725 23.371302 72.91794 L 22.917847 73.11746 L 22.89971 74.64107 C 22.89971 76.01957 22.88157 76.182816 22.863434 76.23723 C 22.736465 76.45489 22.428116 76.45489 22.30115 76.23723 C 22.283012 76.182816 22.264874 76.037704 22.264874 74.768036 L 22.264874 73.3714 L 21.484932 73.67974 L 20.723127 73.98809 L 20.723127 75.45728 C 20.723127 77.01717 20.723127 76.980896 20.632437 77.07159 C 20.59616 77.126 20.469193 77.18041 20.414778 77.18041 C 20.342226 77.18041 20.215258 77.126 20.178982 77.07159 C 20.088291 76.980896 20.088291 77.01717 20.088291 75.602394 C 20.088291 74.85873 20.088291 74.26017 20.070152 74.26017 C 20.070152 74.26017 19.90691 74.33272 19.70739 74.40527 C 19.29021 74.56851 19.235796 74.586655 19.126966 74.495964 C 19.0 74.40527 19.0 74.38713 19.0 73.661606 C 19.0 73.04491 19.0 72.99049 19.036276 72.93608 C 19.054415 72.8998 19.09069 72.863525 19.10883 72.84539 C 19.145105 72.82725 19.362764 72.71842 19.6167 72.62773 L 20.088291 72.42821 L 20.088291 70.959015 C 20.088291 70.160934 20.088291 69.48982 20.070152 69.48982 C 20.070152 69.48982 19.90691 69.56238 19.70739 69.63493 C 19.29021 69.79817 19.235796 69.816315 19.126966 69.725624 C 19.0 69.63493 19.0 69.61679 19.0 68.891266 C 19.0 68.27457 19.0 68.22015 19.036276 68.16573 C 19.054415 68.12946 19.09069 68.093185 19.10883 68.07504 C 19.145105 68.05691 19.362764 67.94808 19.6167 67.85739 L 20.088291 67.65787 L 20.088291 66.13426 C 20.088291 64.75576 20.10643 64.592514 20.124567 64.5381 C 20.251535 64.32044 20.559883 64.32044 20.686852 64.5381 C 20.704988 64.592514 20.723127 64.73762 20.723127 66.00729 L 20.741266 67.40393 L 21.503069 67.09558 L 22.264874 66.78723 L 22.264874 65.31804 C 22.264874 63.93954 22.264874 63.84885 22.30115 63.7763 C 22.337425 63.703743 22.373703 63.667465 22.464394 63.63119 M 22.264874 70.070244 L 22.264874 68.60105 L 21.484932 68.9094 L 20.723127 69.21775 L 20.723127 70.705086 L 20.723127 72.17428 L 20.777542 72.156136 C 20.813818 72.138 21.158443 71.9929 21.557484 71.847786 L 22.264874 71.55758 L 22.264874 70.070244 Z" fill="#404040" stroke="none" stroke-width="0.75" />
<path d="M 24.52 71.232 C 24.52 72.456 25.7152 73.68 26.896 73.68 C 30.496 73.68 34.096 71.232 34.096 68.856 C 34.096 67.6752 32.872 66.48 31.720001 66.48 C 28.12 66.48 24.52 68.856 24.52 71.232 Z" fill="#404040" stroke="none" stroke-width="1.0" />
<path d="M 23.0 146.25 L 31.0 146.25 L 31.0 153.75 L 23.0 153.75 L 23.0 146.25 Z" fill="#ffffff" stroke="none" stroke-width="1.0" />
<text x='23.0' y='153.75' font-family="Default" font-size="10.0" fill="#404040" >4</text>
<path d="M 22.464394 79.63119 C 22.59136 79.55864 22.79088 79.61305 22.863434 79.7763 C 22.89971 79.84885 22.89971 79.90327 22.89971 81.172935 C 22.89971 81.9166 22.89971 82.51516 22.917847 82.51516 C 22.917847 82.51516 23.08109 82.44261 23.280611 82.370056 C 23.69779 82.20681 23.752205 82.188675 23.861032 82.279366 C 23.988 82.370056 23.988 82.38819 23.988 83.11372 C 23.988 83.73042 23.988 83.784836 23.951725 83.83925 C 23.933586 83.87553 23.897308 83.911804 23.879171 83.92994 C 23.842896 83.94808 23.625237 84.05691 23.371302 84.1476 L 22.917847 84.34712 L 22.89971 85.816315 C 22.89971 86.614395 22.89971 87.28551 22.917847 87.28551 C 22.917847 87.28551 23.08109 87.21295 23.280611 87.140396 C 23.69779 86.97716 23.752205 86.959015 23.861032 87.049706 C 23.988 87.140396 23.988 87.15854 23.988 87.88406 C 23.988 88.50076 23.988 88.555176 23.951725 88.60959 C 23.933586 88.64587 23.897308 88.682144 23.879171 88.70028 C 23.842896 88.71842 23.625237 88.82725 23.371302 88.91794 L 22.917847 89.11746 L 22.89971 90.64107 C 22.89971 92.01957 22.88157 92.182816 22.863434 92.23723 C 22.736465 92.45489 22.428116 92.45489 22.30115 92.23723 C 22.283012 92.182816 22.264874 92.037704 22.264874 90.768036 L 22.264874 89.3714 L 21.484932 89.67974 L 20.723127 89.98809 L 20.723127 91.45728 C 20.723127 93.01717 20.723127 92.980896 20.632437 93.07159 C 20.59616 93.126 20.469193 93.18041 20.414778 93.18041 C 20.342226 93.18041 20.215258 93.126 20.178982 93.07159 C 20.088291 92.980896 20.088291 93.01717 20.088291 91.602394 C 20.088291 90.85873 20.088291 90.26017 20.070152 90.26017 C 20.070152 90.26017 19.90691 90.33272 19.70739 90.40527 C 19.29021 90.56851 19.235796 90.586655 19.126966 90.495964 C 19.0 90.40527 19.0 90.38713 19.0 89.661606 C 19.0 89.04491 19.0 88.99049 19.036276 88.93608 C 19.054415 88.8998 19.09069 88.863525 19.10883 88.84539 C 19.145105 88.82725 19.362764 88.71842 19.6167 88.62773 L 20.088291 88.42821 L 20.088291 86.959015 C 20.088291 86.160934 20.088291 85.48982 20.070152 85.48982 C 20.070152 85.48982 19.90691 85.56238 19.70739 85.63493 C 19.29021 85.79817 19.235796 85.816315 19.126966 85.725624 C 19.0 85.63493 19.0 85.61679 19.0 84.891266 C 19.0 84.27457 19.0 84.22015 19.036276 84.16573 C 19.054415 84.12946 19.09069 84.093185 19.10883 84.07504 C 19.145105 84.05691 19.362764 83.94808 19.6167 83.85739 L 20.088291 83.65787 L 20.088291 82.13426 C 20.088291 80.75576 20.10643 80.592514 20.124567 80.5381 C 20.251535 80.32044 20.559883 80.32044 20.686852 80.5381 C 20.704988 80.592514 20.723127 80.73762 20.723127 82.00729 L 20.741266 83.40393 L 21.503069 83.09558 L 22.264874 82.78723 L 22.264874 81.31804 C 22.264874 79.93954 22.264874 79.84885 22.30115 79.7763 C 22.337425 79.70374 22.373703 79.667465 22.464394 79.63119 M 22.264874 86.070244 L 22.264874 84.60105 L 21.484932 84.9094 L 20.723127 85.21775 L 20.723127 86.705086 L 20.723127 88.17428 L 20.777542 88.156136 C 20.813818 88.138 21.158443 87.9929 21.557484 87.847786 L 22.264874 87.55758 L 22.264874 86.070244 Z" fill="#404040" stroke="none" stroke-width="0.75" />
<path d="M 24.52 87.232 C 24.52 88.456 25.7152 89.68 26.896 89.68 C 30.496 89.68 34.096 87.232 34.096 84.856 C 34.096 83.6752 32.872 82.48 31.720001 82.48 C 28.12 82.48 24.52 84.856 24.52 87.232 Z" fill="#404040" stroke="none" stroke-width="1.0" />
<path d="M 23.0 156.25 L 31.0 156.25 L 31.0 163.75 L 23.0 163.75 L 23.0 156.25 Z" fill="#ffffff" stroke="none" stroke-width="1.0" />
<text x='23.0' y='163.75' font-family="Default" font-size="10.0" fill="#404040" >2</text>
<path d="M 33.18 85.04 L 34.18 85.04 L 34.18 38.0 L 33.18 38.0 M 33.18 85.04 Z" fill="#404040" stroke="none" stroke-width="0.75" />
<path d="M 33.18 36.0 L 33.18 40.0 L 54.18 40.0 L 54.18 36.0 L 33.18 36.0 Z" fill="#404040" stroke="none" stroke-width="0.75" />
<path d="M 41.0 70.0 L 57.0 70.0 Z" fill="none" stroke="#d6d6d6" stroke-width="0.75" />
<path d="M 41.0 70.0 L 57.0 70.0 Z" fill="none" stroke="#d6d6d6" stroke-width="0.75" />
<path d="M 41.0 78.0 L 57.0 78.0 Z" fill="none" stroke="#d6d6d6" stroke-width="0.75" />
<path d="M 41.0 86.0 L 57.0 86.0 Z" fill="none" stroke="#d6d6d6" stroke-width="0.75" />
<path d="M 44.52 87.232 C 44.52 88.456 45.715202 89.68 46.896 89.68 C 50.496002 89.68 54.096 87.232 54.096 84.856 C 54.096 83.6752 52.872 82.48 51.72 82.48 C 48.12 82.48 44.52 84.856 44.52 87.232 Z" fill="#404040" stroke="none" stroke-width="1.0" />
<path d="M 43.0 156.25 L 51.0 156.25 L 51.0 163.75 L 43.0 163.75 L 43.0 156.25 Z" fill="#ffffff" stroke="none" stroke-width="1.0" />
<text x='43.0' y='163.75' font-family="Default" font-size="10.0" fill="#404040" >2</text>
<path d="M 44.52 71.232 C 44.52 72.456 45.715202 73.68 46.896 73.68 C 50.496002 73.68 54.096 71.232 54.096 68.856 C 54.096 67.6752 52.872 66.48 51.72 66.48 C 48.12 66.48 44.52 68.856 44.52 71.232 Z" fill="#404040" stroke="none" stroke-width="1.0" />
<path d="M 43.0 146.25 L 51.0 146.25 L 51.0 153.75 L 43.0 153.75 L 43.0 146.25 Z" fill="#ffffff" stroke="none" stroke-width="1.0" />
<text x='43.0' y='153.75' font-family="Default" font-size="10.0" fill="#404040" >4</text>
<path d="M 53.18 85.04 L 54.18 85.04 L 54.18 38.0 L 53.18 38.0 M 53.18 85.04 Z" fill="#404040" stroke="none" stroke-width="0.75" />
<path d="M 66.491554 40.729687 C 66.95373 40.666664 67.352875 40.79271 67.66799 41.08682 C 67.85706 41.296898 67.94109 41.46496 68.06714 41.969147 C 68.130165 42.200233 68.193184 42.43132 68.214195 42.473335 C 68.298225 42.662403 68.44528 42.788452 68.634346 42.80946 C 68.71838 42.80946 68.7604 42.80946 68.86543 42.746437 C 69.138535 42.620388 69.78978 41.8431 70.04187 41.35992 C 70.1049 41.212868 70.20993 41.149845 70.31497 41.149845 C 70.399 41.149845 70.50404 41.212868 70.54606 41.27589 C 70.56707 41.317905 70.35699 42.05318 69.243576 45.77156 C 68.52931 48.20846 67.92008 50.246212 67.89908 50.267227 C 67.89908 50.288246 67.81505 50.35125 67.73101 50.372265 C 67.604965 50.43529 67.58396 50.43529 67.41589 50.43529 C 67.24783 50.43529 67.20582 50.43529 67.07977 50.39328 C 67.01675 50.35125 66.93272 50.30924 66.93272 50.288246 C 66.8907 50.267227 67.03776 49.889088 68.10915 46.842957 C 68.7814 44.973263 69.32761 43.418686 69.306595 43.418686 L 68.94946 43.523724 C 68.193184 43.775818 67.73101 43.859848 67.1638 43.859848 C 66.70163 43.859848 66.575584 43.83884 66.23946 43.67078 C 65.31512 43.229614 65.0 42.15822 65.52519 41.35992 C 65.75628 41.044804 66.11341 40.79271 66.491554 40.729687 Z" fill="#404040" stroke="none" stroke-width="0.75" />
<path d="M 86.491554 40.729687 C 86.95373 40.666664 87.352875 40.79271 87.66799 41.08682 C 87.85706 41.296898 87.94109 41.46496 88.06714 41.969147 C 88.130165 42.200233 88.193184 42.43132 88.214195 42.473335 C 88.298225 42.662403 88.44528 42.788452 88.634346 42.80946 C 88.71838 42.80946 88.7604 42.80946 88.86543 42.746437 C 89.138535 42.620388 89.78978 41.8431 90.04187 41.35992 C 90.1049 41.212868 90.20993 41.149845 90.31497 41.149845 C 90.399 41.149845 90.50404 41.212868 90.54606 41.27589 C 90.56707 41.317905 90.35699 42.05318 89.243576 45.77156 C 88.52931 48.20846 87.92008 50.246212 87.89908 50.267227 C 87.89908 50.288246 87.81505 50.35125 87.73101 50.372265 C 87.604965 50.43529 87.58396 50.43529 87.41589 50.43529 C 87.24783 50.43529 87.20582 50.43529 87.07977 50.39328 C 87.01675 50.35125 86.93272 50.30924 86.93272 50.288246 C 86.8907 50.267227 87.03776 49.889088 88.10915 46.842957 C 88.7814 44.973263 89.32761 43.418686 89.306595 43.418686 L 88.94946 43.523724 C 88.193184 43.775818 87.73101 43.859848 87.1638 43.859848 C 86.70163 43.859848 86.575584 43.83884 86.23946 43.67078 C 85.31512 43.229614 85.0 42.15822 85.52519 41.35992 C 85.75628 41.044804 86.11341 40.79271 86.491554 40.729687 Z" fill="#404040" stroke="none" stroke-width="0.75" />
<path d="M 106.491554 40.729687 C 106.95373 40.666664 107.352875 40.79271 107.66799 41.08682 C 107.85706 41.296898 107.94109 41.46496 108.06714 41.969147 C 108.130165 42.200233 108.193184 42.43132 108.214195 42.473335 C 108.298225 42.662403 108.44528 42.788452 108.634346 42.80946 C 108.71838 42.80946 108.7604 42.80946 108.86543 42.746437 C 109.138535 42.620388 109.78978 41.8431 110.04187 41.35992 C 110.1049 41.212868 110.20993 41.149845 110.31497 41.149845 C 110.399 41.149845 110.50404 41.212868 110.54606 41.27589 C 110.56707 41.317905 110.35699 42.05318 109.243576 45.77156 C 108.52931 48.20846 107.92008 50.246212 107.89908 50.267227 C 107.89908 50.288246 107.81505 50.35125 107.73101 50.372265 C 107.604965 50.43529 107.58396 50.43529 107.41589 50.43529 C 107.24783 50.43529 107.20582 50.43529 107.07977 50.39328 C 107.01675 50.35125 106.93272 50.30924 106.93272 50.288246 C 106.8907 50.267227 107.03776 49.889088 108.10915 46.842957 C 108.7814 44.973263 109.32761 43.418686 109.306595 43.418686 L 108.94946 43.523724 C 108.193184 43.775818 107.73101 43.859848 107.1638 43.859848 C 106.70163 43.859848 106.575584 43.83884 106.23946 43.67078 C 105.31512 43.229614 105.0 42.15822 105.52519 41.35992 C 105.75628 41.044804 106.11341 40.79271 106.491554 40.729687 Z" fill="#404040" stroke="none" stroke-width="0.75" />
<path d="M 126.491554 40.729687 C 126.95373 40.666664 127.352875 40.79271 127.66799 41.08682 C 127.85706 41.296898 127.94109 41.46496 128.06714 41.969147 C 128.13016 42.200233 128.19319 42.43132 128.21419 42.473335 C 128.29822 42.662403 128.44528 42.788452 128.63435 42.80946 C 128.71838 42.80946 128.76039 42.80946 128.86543 42.746437 C 129.13853 42.620388 129.78978 41.8431 130.04187 41.35992 C 130.10489 41.212868 130.20993 41.149845 130.31497 41.149845 C 130.399 41.149845 130.50404 41.212868 130.54605 41.27589 C 130.56706 41.317905 130.357 42.05318 129.24358 45.77156 C 128.52931 48.20846 127.92008 50.246212 127.89908 50.267227 C 127.89908 50.288246 127.81505 50.35125 127.73101 50.372265 C 127.604965 50.43529 127.58396 50.43529 127.41589 50.43529 C 127.24783 50.43529 127.20582 50.43529 127.07977 50.39328 C 127.01675 50.35125 126.93272 50.30924 126.93272 50.288246 C 126.8907 50.267227 127.03776 49.889088 128.10916 46.842957 C 128.7814 44.973263 129.3276 43.418686 129.3066 43.418686 L 128.94946 43.523724 C 128.19319 43.775818 127.73101 43.859848 127.1638 43.859848 C 126.70163 43.859848 126.575584 43.83884 126.23946 43.67078 C 125.31512 43.229614 125.0 42.15822 125.52519 41.35992 C 125.75628 41.044804 126.11341 40.79271 126.491554 40.729687 Z" fill="#404040" stroke="none" stroke-width="0.75" />
<path d="M 146.49155 40.729687 C 146.95372 40.666664 147.35287 40.79271 147.66798 41.08682 C 147.85706 41.296898 147.94109 41.46496 148.06714 41.969147 C 148.13016 42.200233 148.19319 42.43132 148.21419 42.473335 C 148.29822 42.662403 148.44528 42.788452 148.63435 42.80946 C 148.71838 42.80946 148.76039 42.80946 148.86543 42.746437 C 149.13853 42.620388 149.78978 41.8431 150.04187 41.35992 C 150.10489 41.212868 150.20993 41.149845 150.31497 41.149845 C 150.399 41.149845 150.50404 41.212868 150.54605 41.27589 C 150.56706 41.317905 150.357 42.05318 149.24358 45.77156 C 148.52931 48.20846 147.92009 50.246212 147.89908 50.267227 C 147.89908 50.288246 147.81505 50.35125 147.73102 50.372265 C 147.60497 50.43529 147.58395 50.43529 147.4159 50.43529 C 147.24783 50.43529 147.20583 50.43529 147.07977 50.39328 C 147.01675 50.35125 146.93272 50.30924 146.93272 50.288246 C 146.8907 50.267227 147.03775 49.889088 148.10916 46.842957 C 148.7814 44.973263 149.3276 43.418686 149.3066 43.418686 L 148.94946 43.523724 C 148.19319 43.775818 147.73102 43.859848 147.1638 43.859848 C 146.70163 43.859848 146.57558 43.83884 146.23946 43.67078 C 145.31512 43.229614 145.0 42.15822 145.52519 41.35992 C 145.75629 41.044804 146.11342 40.79271 146.49155 40.729687 Z" fill="#404040" stroke="none" stroke-width="0.75" />
<path d="M 166.49155 40.729687 C 166.95372 40.666664 167.35287 40.79271 167.66798 41.08682 C 167.85706 41.296898 167.94109 41.46496 168.06714 41.969147 C 168.13016 42.200233 168.19319 42.43132 168.21419 42.473335 C 168.29822 42.662403 168.44528 42.788452 168.63435 42.80946 C 168.71838 42.80946 168.76039 42.80946 168.86543 42.746437 C 169.13853 42.620388 169.78978 41.8431 170.04187 41.35992 C 170.10489 41.212868 170.20993 41.149845 170.31497 41.149845 C 170.399 41.149845 170.50404 41.212868 170.54605 41.27589 C 170.56706 41.317905 170.357 42.05318 169.24358 45.77156 C 168.52931 48.20846 167.92009 50.246212 167.89908 50.267227 C 167.89908 50.288246 167.81505 50.35125 167.73102 50.372265 C 167.60497 50.43529 167.58395 50.43529 167.4159 50.43529 C 167.24783 50.43529 167.20583 50.43529 167.07977 50.39328 C 167.01675 50.35125 166.93272 50.30924 166.93272 50.288246 C 166.8907 50.267227 167.03775 49.889088 168.10916 46.842957 C 168.7814 44.973263 169.3276 43.418686 169.3066 43.418686 L 168.94946 43.523724 C 168.19319 43.775818 167.73102 43.859848 167.1638 43.859848 C 166.70163 43.859848 166.57558 43.83884 166.23946 43.67078 C 165.31512 43.229614 165.0 42.15822 165.52519 41.35992 C 165.75629 41.044804 166.11342 40.79271 166.49155 40.729687 Z" fill="#404040" stroke="none" stroke-width="0.75" /></g>
<text x='21.0' y='244.0' font-family="Default" font-size="10.0" fill="#ff0000" >5</text>
<path d="M 20.0 246.0 L 20.0 326.0 Z" fill="#000000" stroke="#000000" stroke-width="0.75" />
<path d="M 234.0 246.0 L 235.0 246.0 L 235.0 278.0 L 234.0 278.0 L 234.0 246.0 Z" fill="#000000" stroke="#000000" stroke-width="0.75" />
<path d="M 237.0 246.0 L 240.0 246.0 L 240.0 278.0 L 237.0 278.0 L 237.0 246.0 Z" fill="#000000" stroke="#000000" stroke-width="0.75" />
<path d="M 229.0 258.0 M 227.0 258.0 a 2.0 2.0 0 1 0 4.0 0 2.0 2.0 0 1 0 -4.0 0 M 229.0 266.0 M 227.0 266.0 a 2.0 2.0 0 1 0 4.0 0 2.0 2.0 0 1 0 -4.0 0 Z" fill="#000000" stroke="none" stroke-width="1.0" />
<text x='221.0' y='244.0' font-family="Default" font-size="10.0" fill="#000000" >x2</text>
<path d="M 20.0 326.0 L 20.0 376.0 Z" fill="#000000" stroke="#000000" stroke-width="0.75" />
<path d="M 234.0 326.0 L 235.0 326.0 L 235.0 376.0 L 234.0 376.0 L 234.0 326.0 Z" fill="#000000" stroke="#000000" stroke-width="0.75" />
<path d="M 237.0 326.0 L 240.0 326.0 L 240.0 376.0 L 237.0 376.0 L 237.0 326.0 Z" fill="#000000" stroke="#000000" stroke-width="0.75" />
<path d="M 229.0 347.0 M 227.0 347.0 a 2.0 2.0 0 1 0 4.0 0 2.0 2.0 0 1 0 -4.0 0 M 229.0 355.0 M 227.0 355.0 a 2.0 2.0 0 1 0 4.0 0 2.0 2.0 0 1 0 -4.0 0 Z" fill="#000000" stroke="none" stroke-width="1.0" />
<path d="M 242.0 246.0 L 930.0 246.0 M 242.0 254.0 L 930.0 254.0 M 242.0 262.0 L 930.0 262.0 M 242.0 270.0 L 930.0 270.0 M 242.0 278.0 L 930.0 278.0 Z" fill="none" stroke="#d6d6d6" stroke-width="0.75" />
<path d="M 242.0 326.0 L 930.0 326.0 M 242.0 336.0 L 930.0 336.0 M 242.0 346.0 L 930.0 346.0 M 242.0 356.0 L 930.0 356.0 M 242.0 366.0 L 930.0 366.0 M 242.0 376.0 L 930.0 376.0 Z" fill="none" stroke="#d6d6d6" stroke-width="0.75" />
</svg>