<svg width="960.0px" height="386.0px" xmlns="http://www.w3.org/2000/svg" version="1.1">

<path d="M 0.0 0.0 L 960.0 0.0 L 960.0 386.0 L 0.0 386.0 L 0.0 0.0 Z" fill="#ffffff" stroke="none" stroke-width="1.0" /><g transform="translate(20.0,20.0)">
<path d="M 0.0 0.0 L 286.0 0.0 L 286.0 183.0 L 0.0 183.0 L 0.0 0.0 Z" fill="#ffffff" stroke="none" stroke-width="1.0" />
<path d="M 0.0 40.0 L 286.0 40.0 M 0.0 48.0 L 286.0 48.0 M 0.0 56.0 L 286.0 56.0 M 0.0 64.0 L 286.0 64.0 M 0.0 72.0 L 286.0 72.0 Z" fill="none" stroke="#d6d6d6" stroke-width="0.75" />
<path d="M 0.0 112.0 L 286.0 112.0 M 0.0 122.0 L 286.0 122.0 M 0.0 132.0 L 286.0 132.0 M 0.0 142.0 L 286.0 142.0 M 0.0 152.0 L 286.0 152.0 M 0.0 162.0 L 286.0 162.0 Z" fill="none" stroke="#d6d6d6" stroke-width="0.75" />
<path d="M 67.77043 40.40856 C 68.324905 40.40856 68.821014 40.350193 69.25876 40.20428 C 69.6965 40.058365 69.959145 40.0 70.04669 40.0 C 70.192604 40.0 70.28015 40.029182 70.36771 40.11673 C 70.42607 40.1751 70.45525 40.233463 70.484436 40.32101 C 70.484436 40.37938 70.45525 40.437744 70.42607 40.49611 L 61.933853 50.35992 L 66.924126 50.35992 L 66.924126 46.449417 C 66.924126 46.18677 67.01167 45.95331 67.1284 45.807392 C 67.3035 45.661476 67.4786 45.515564 67.71206 45.4572 C 67.97471 45.340466 68.26653 45.07782 68.64591 44.640076 C 68.937744 44.319065 69.317116 43.706226 69.75486 42.801556 C 69.81323 42.684826 69.90078 42.626457 70.01751 42.626457 C 70.28015 42.626457 70.39688 42.772373 70.42607 43.03502 L 70.42607 50.35992 L 72.55642 50.35992 C 72.84825 50.35992 72.99416 50.505836 73.023346 50.797665 C 73.023346 51.089493 72.877426 51.235405 72.55642 51.235405 L 70.42607 51.235405 L 70.42607 51.468872 C 70.42607 52.28599 70.63035 52.928013 71.00973 53.45331 C 71.44747 53.9786 71.97276 54.270428 72.5856 54.270428 C 72.81906 54.270428 72.9358 54.387157 72.9358 54.62062 C 72.9358 54.854084 72.81906 54.970818 72.5856 54.970818 C 72.14786 54.970818 71.50584 54.91245 70.601166 54.79572 C 69.696495 54.649803 69.054474 54.59144 68.64591 54.59144 C 68.23735 54.59144 67.56615 54.649803 66.69066 54.79572 C 65.81517 54.91245 65.17315 54.970818 64.735405 54.970818 C 64.501945 54.970818 64.385216 54.854084 64.385216 54.62062 C 64.385216 54.387157 64.501945 54.270428 64.735405 54.270428 C 65.34825 54.270428 65.87354 53.9786 66.31128 53.45331 C 66.71984 52.89883 66.924126 52.25681 66.924126 51.468872 L 66.924126 51.235405 L 61.933853 51.235405 C 61.61284 51.235405 61.379375 51.17704 61.233463 51.001945 C 61.087547 50.885212 61.0 50.710114 61.0 50.53502 C 61.0 50.476654 61.145912 50.272373 61.437744 49.92218 C 61.729572 49.571983 62.079765 49.105057 62.488327 48.492218 C 62.488327 48.492218 63.305447 47.20817 63.71401 46.449417 C 63.71401 46.449417 64.47276 44.78599 64.735405 43.706226 C 65.02724 42.65564 65.17315 41.575874 65.17315 40.49611 C 65.17315 40.175095 65.31907 40.029182 65.58171 40.029182 C 65.61089 40.029182 65.756805 40.058365 65.96109 40.11673 C 66.16537 40.175095 66.4572 40.233463 66.77821 40.32101 C 67.1284 40.379375 67.44942 40.408558 67.77043 40.408558 Z" fill="#000000" stroke="none" stroke-width="0.75" />
<path d="M 67.77043 57.40856 C 68.324905 57.40856 68.821014 57.350193 69.25876 57.20428 C 69.6965 57.058365 69.959145 57.0 70.04669 57.0 C 70.192604 57.0 70.28015 57.029182 70.36771 57.11673 C 70.42607 57.1751 70.45525 57.233463 70.484436 57.32101 C 70.484436 57.37938 70.45525 57.437744 70.42607 57.49611 L 61.933853 67.359924 L 66.924126 67.359924 L 66.924126 63.449417 C 66.924126 63.18677 67.01167 62.95331 67.1284 62.807392 C 67.3035 62.661476 67.4786 62.515564 67.71206 62.4572 C 67.97471 62.340466 68.26653 62.07782 68.64591 61.640076 C 68.937744 61.319065 69.317116 60.706226 69.75486 59.801556 C 69.81323 59.684826 69.90078 59.626457 70.01751 59.626457 C 70.28015 59.626457 70.39688 59.772373 70.42607 60.03502 L 70.42607 67.359924 L 72.55642 67.359924 C 72.84825 67.359924 72.99416 67.50584 73.023346 67.79767 C 73.023346 68.08949 72.877426 68.235405 72.55642 68.235405 L 70.42607 68.235405 L 70.42607 68.46887 C 70.42607 69.28599 70.63035 69.92802 71.00973 70.45331 C 71.44747 70.9786 71.97276 71.270424 72.5856 71.270424 C 72.81906 71.270424 72.9358 71.38716 72.9358 71.62062 C 72.9358 71.85408 72.81906 71.97082 72.5856 71.97082 C 72.14786 71.97082 71.50584 71.91245 70.601166 71.795715 C 69.696495 71.6498 69.054474 71.59144 68.64591 71.59144 C 68.23735 71.59144 67.56615 71.6498 66.69066 71.795715 C 65.81517 71.91245 65.17315 71.97082 64.735405 71.97082 C 64.501945 71.97082 64.385216 71.85408 64.385216 71.62062 C 64.385216 71.38716 64.501945 71.270424 64.735405 71.270424 C 65.34825 71.270424 65.87354 70.9786 66.31128 70.45331 C 66.71984 69.898834 66.924126 69.256805 66.924126 68.46887 L 66.924126 68.235405 L 61.933853 68.235405 C 61.61284 68.235405 61.379375 68.17704 61.233463 68.001945 C 61.087547 67.88521 61.0 67.71011 61.0 67.53502 C 61.0 67.476654 61.145912 67.27237 61.437744 66.92218 C 61.729572 66.57198 62.079765 66.10506 62.488327 65.49222 C 62.488327 65.49222 63.305447 64.20817 63.71401 63.449417 C 63.71401 63.449417 64.47276 61.78599 64.735405 60.706226 C 65.02724 59.65564 65.17315 58.575874 65.17315 57.49611 C 65.17315 57.175095 65.31907 57.029182 65.58171 57.029182 C 65.61089 57.029182 65.756805 57.058365 65.96109 57.11673 C 66.16537 57.175095 66.4572 57.233463 66.77821 57.32101 C 67.1284 57.379375 67.44942 57.408558 67.77043 57.408558 Z" fill="#000000" stroke="none" stroke-width="0.75" />
<path d="M 22.764973 32.115383 C 22.921913 32.03691 22.948072 32.03691 23.105015 32.03691 C 23.314268 32.063072 23.445057 32.14154 23.73278 32.455425 C 25.616081 34.39104 27.185501 37.843758 27.577856 40.773342 C 27.630169 41.244167 27.630169 42.34276 27.577856 42.839737 C 27.29013 45.533905 26.165377 47.99266 23.57584 51.52385 L 23.209644 52.020832 L 23.418898 52.62244 C 23.915882 54.061073 24.491331 55.81359 24.85753 57.095284 C 24.96216 57.409164 25.04063 57.67074 25.04063 57.696896 C 25.04063 57.696896 25.223728 57.696896 25.406826 57.723053 C 26.322319 57.80152 27.10703 58.01078 27.917896 58.40313 C 28.57182 58.74317 29.147274 59.13552 29.696568 59.658665 C 30.29818 60.260277 30.690535 60.80957 31.05673 61.568123 C 31.606026 62.666718 31.84144 63.81762 31.81528 64.96853 C 31.789125 65.70093 31.684496 66.25022 31.449085 66.930305 C 31.1352 67.92426 30.559748 68.83976 29.77504 69.624466 C 29.094955 70.30455 28.46719 70.72306 27.630169 71.0631 L 27.316284 71.193886 L 27.316284 72.13554 C 27.316284 73.46954 27.237814 75.038956 27.133184 75.980606 C 27.02856 76.94841 26.766989 77.86391 26.348476 78.700935 C 25.249886 80.92427 23.314268 82.10133 21.143244 81.89209 C 18.684484 81.65667 16.69656 79.98262 16.199577 77.73312 C 15.964161 76.713 16.068794 75.9283 16.487303 75.27437 C 17.036598 74.411194 18.082878 73.914215 19.102997 73.94037 C 20.30622 73.99268 21.274027 74.934326 21.457123 76.24218 C 21.58791 77.28845 21.143244 78.25626 20.30622 78.7794 C 19.835394 79.06713 19.181469 79.197914 18.684484 79.119446 C 18.606018 79.119446 18.527544 79.093285 18.527544 79.119446 L 18.84143 79.43333 C 19.416882 80.00878 20.070807 80.374985 20.907831 80.558075 C 21.090927 80.584236 21.247868 80.584236 21.666382 80.584236 C 22.137207 80.584236 22.189518 80.584236 22.451088 80.53192 C 22.81729 80.42729 23.131172 80.29651 23.418898 80.139565 C 24.726748 79.35486 25.616081 77.73312 25.851494 75.77136 C 25.929964 75.038956 26.008434 73.46954 26.008434 72.318634 C 26.008434 71.56009 26.008434 71.50777 25.956123 71.50777 C 25.851494 71.56009 25.302197 71.6124 24.909843 71.63855 C 24.41286 71.66471 23.57584 71.66471 23.183485 71.6124 C 21.640223 71.4293 20.227747 70.90616 18.998373 70.04298 C 17.167385 68.76129 15.859535 66.85182 15.31024 64.65465 C 14.604002 61.908165 15.100986 58.978584 16.827343 55.89206 C 17.55974 54.610374 18.265978 53.564095 20.018494 51.236122 L 21.012455 49.902122 L 20.829355 49.405136 C 19.573822 46.083202 19.15531 44.173744 19.024527 41.401108 C 18.972214 40.197887 19.024527 39.17776 19.181469 38.34074 C 19.573822 36.14356 20.593945 34.181786 22.189518 32.612366 C 22.503403 32.298485 22.63419 32.193855 22.764973 32.115383 M 24.831371 36.588226 C 24.569805 36.14356 24.622118 36.169712 24.386707 36.32666 C 23.65431 36.771324 22.89576 37.451405 22.34646 38.131485 C 21.221714 39.57012 20.593945 41.244167 20.515476 43.048996 C 20.489319 43.78139 20.56779 44.252216 20.907831 45.37696 C 21.169397 46.292458 21.901793 48.5158 21.95411 48.56811 C 21.95411 48.59427 22.111048 48.411175 22.26799 48.17576 C 24.072823 45.58622 25.04063 43.467506 25.406826 41.348793 C 25.485298 40.799496 25.53761 40.354828 25.563768 39.727062 C 25.589928 38.28843 25.432985 37.58219 24.831371 36.588226 M 22.581877 54.191864 C 22.424934 53.694878 22.26799 53.302525 22.26799 53.302525 C 22.241835 53.302525 21.143244 54.76731 20.672415 55.421238 C 19.129156 57.592266 18.187506 59.34478 17.638206 61.071136 C 17.27201 62.143574 17.115068 63.137543 17.062756 64.23613 C 17.062756 64.837746 17.088915 65.20394 17.193539 65.648605 C 17.795153 67.97658 20.280064 69.88603 23.209644 70.30455 C 23.65431 70.35686 24.909843 70.35686 25.459139 70.30455 C 26.008434 70.226074 25.956123 70.252235 25.929964 70.01682 C 25.773026 67.531906 25.563768 66.0148 25.14526 63.765305 C 24.988314 62.823658 24.543648 60.835728 24.517488 60.80957 C 24.491331 60.783417 23.99435 60.835728 23.706627 60.9142 C 23.340427 60.99267 23.105015 61.071136 22.79113 61.22808 C 21.090927 62.091263 20.593945 64.05304 21.666382 65.648605 C 21.849482 65.91018 22.320305 66.381004 22.608032 66.5641 C 22.71266 66.64258 22.948072 66.799515 23.105015 66.87799 C 23.340427 67.00877 23.392738 67.06108 23.445057 67.16571 C 23.65431 67.50575 23.523525 67.92426 23.131172 68.10736 C 22.921913 68.21199 22.764973 68.18584 22.34646 67.97658 C 21.326344 67.4796 20.56779 66.799515 20.018494 65.962494 C 18.998373 64.393074 18.867586 62.37899 19.70461 60.678787 C 20.437006 59.213997 21.744852 58.22003 23.418898 57.853836 C 23.57584 57.80152 23.706627 57.775368 23.706627 57.775368 C 23.73278 57.749207 23.000385 55.368923 22.581877 54.191864 M 26.139221 60.94036 C 26.060753 60.94036 25.98228 60.9142 25.956123 60.9142 L 25.877651 60.88804 L 26.008434 61.43734 C 26.610046 64.07919 27.054714 66.95645 27.211655 69.38905 C 27.237814 69.65063 27.237814 69.85988 27.237814 69.85988 C 27.263973 69.85988 27.60401 69.70294 27.78711 69.57216 C 28.231777 69.31058 28.65029 68.91823 28.99033 68.47356 C 29.801197 67.40112 30.08892 66.06712 29.77504 64.706955 C 29.539627 63.608364 28.911861 62.58824 28.022522 61.882008 C 27.473227 61.463493 26.740831 61.097298 26.139221 60.94036 Z" fill="#000000" stroke="none" stroke-width="0.75" />
<path d="M 92.0 80.0 L 108.0 80.0 Z" fill="none" stroke="#d6d6d6" stroke-width="0.75" />
<path d="M 92.0 88.0 L 108.0 88.0 Z" fill="none" stroke="#d6d6d6" stroke-width="0.75" />
<path d="M 92.0 80.0 L 108.0 80.0 Z" fill="none" stroke="#d6d6d6" stroke-width="0.75" />
<path d="M 92.0 88.0 L 108.0 88.0 Z" fill="none" stroke="#d6d6d6" stroke-width="0.75" />
<path d="M 95.52 89.232 C 95.52 90.456 96.715195 91.68 97.895996 91.68 C 101.495995 91.68 105.09599 89.232 105.09599 86.856 C 105.09599 85.6752 103.871994 84.48 102.71999 84.48 C 99.119995 84.48 95.52 86.856 95.52 89.232 Z" fill="#404040" stroke="none" stroke-width="1.0" />
<path d="M 94.0 158.25 L 102.0 158.25 L 102.0 165.75 L 94.0 165.75 L 94.0 158.25 Z" fill="#ffffff" stroke="none" stroke-width="1.0" />
<text x='94.0' y='165.75' font-family="Default" font-size="10.0" fill="#404040" >5</text>
<path d="M 104.18 87.04 L 105.18 87.04 L 105.18 56.0 L 104.18 56.0 M 104.18 87.04 Z" fill="#404040" stroke="none" stroke-width="0.75" />
<path d="M 104.18 54.0 L 104.18 58.0 L 127.055 50.0 L 127.055 46.0 L 104.18 54.0 Z" fill="#404040" stroke="none" stroke-width="0.75" />
<path d="M 113.875 80.0 L 129.875 80.0 Z" fill="none" stroke="#d6d6d6" stroke-width="0.75" />
<path d="M 113.875 80.0 L 129.875 80.0 Z" fill="none" stroke="#d6d6d6" stroke-width="0.75" />
<path d="M 117.395 81.232 C 117.395 82.456 118.590195 83.68 119.770996 83.68 C 123.370995 83.68 126.97099 81.232 126.97099 78.856 C 126.97099 77.6752 125.746994 76.48 124.59499 76.48 C 120.994995 76.48 117.395 78.856 117.395 81.232 Z" fill="#404040" stroke="none" stroke-width="1.0" />
<path d="M 115.875 158.25 L 123.875 158.25 L 123.875 165.75 L 115.875 165.75 L 115.875 158.25 Z" fill="#ffffff" stroke="none" stroke-width="1.0" />
<text x='115.875' y='165.75' font-family="Default" font-size="10.0" fill="#404040" >8</text>
<path d="M 126.055 79.04 L 127.055 79.04 L 127.055 48.0 L 126.055 48.0 M 126.055 79.04 Z" fill="#404040" stroke="none" stroke-width="0.75" />
<path d="M 139.27 77.232 C 139.27 78.456 140.46521 79.68 141.64601 79.68 C 145.246 79.68 148.84601 77.232 148.84601 74.856 C 148.84601 73.6752 147.62201 72.48 146.47 72.48 C 142.87001 72.48 139.27 74.856 139.27 77.232 Z" fill="#404040" stroke="none" stroke-width="1.0" />
<path d="M 137.75 148.25 L 145.75 148.25 L 145.75 155.75 L 137.75 155.75 L 137.75 148.25 Z" fill="#ffffff" stroke="none" stroke-width="1.0" />
<text x='137.75' y='155.75' font-family="Default" font-size="10.0" fill="#404040" >5</text>
<path d="M 147.93 75.04 L 148.93 75.04 L 148.93 44.0 L 147.93 44.0 M 147.93 75.04 Z" fill="#404040" stroke="none" stroke-width="0.75" />
<path d="M 147.93 42.0 L 147.93 46.0 L 170.805 42.0 L 170.805 38.0 L 147.93 42.0 Z" fill="#404040" stroke="none" stroke-width="0.75" />
<path d="M 161.145 73.232 C 161.145 74.456 162.34021 75.68 163.52101 75.68 C 167.121 75.68 170.72101 73.232 170.72101 70.856 C 170.72101 69.6752 169.49701 68.48 168.345 68.48 C 164.74501 68.48 161.145 70.856 161.145 73.232 Z" fill="#404040" stroke="none" stroke-width="1.0" />
<path d="M 159.625 148.25 L 167.625 148.25 L 167.625 155.75 L 159.625 155.75 L 159.625 148.25 Z" fill="#ffffff" stroke="none" stroke-width="1.0" />
<text x='159.625' y='155.75' font-family="Default" font-size="10.0" fill="#404040" >7</text>
<path d="M 169.805 71.04 L 170.805 71.04 L 170.805 40.0 L 169.805 40.0 M 169.805 71.04 Z" fill="#404040" stroke="none" stroke-width="0.75" />
<path d="M 183.02 65.232 C 183.02 66.456 184.21521 67.68 185.39601 67.68 C 188.996 67.68 192.59601 65.232 192.59601 62.856 C 192.59601 61.6752 191.37201 60.48 190.22 60.48 C 186.62001 60.48 183.02 62.856 183.02 65.232 Z" fill="#404040" stroke="none" stroke-width="1.0" />
<path d="M 181.5 138.25 L 189.5 138.25 L 189.5 145.75 L 181.5 145.75 L 181.5 138.25 Z" fill="#ffffff" stroke="none" stroke-width="1.0" />
<text x='181.5' y='145.75' font-family="Default" font-size="10.0" fill="#404040" >5</text>
<path d="M 191.68 63.04 L 192.68 63.04 L 192.68 32.0 L 191.68 32.0 M 191.68 63.04 Z" fill="#404040" stroke="none" stroke-width="0.75" />
<path d="M 191.68 30.0 L 191.68 34.0 L 214.555 30.0 L 214.555 26.0 L 191.68 30.0 Z" fill="#404040" stroke="none" stroke-width="0.75" />
<path d="M 204.895 61.232 C 204.895 62.456 206.09021 63.68 207.27101 63.68 C 210.871 63.68 214.47101 61.232 214.47101 58.856 C 214.47101 57.6752 213.24701 56.48 212.095 56.48 C 208.49501 56.48 204.895 58.856 204.895 61.232 Z" fill="#404040" stroke="none" stroke-width="1.0" />
<path d="M 203.375 138.25 L 211.375 138.25 L 211.375 145.75 L 203.375 145.75 L 203.375 138.25 Z" fill="#ffffff" stroke="none" stroke-width="1.0" />
<text x='203.375' y='145.75' font-family="Default" font-size="10.0" fill="#404040" >7</text>
<path d="M 213.555 59.04 L 214.555 59.04 L 214.555 28.0 L 213.555 28.0 M 213.555 59.04 Z" fill="#404040" stroke="none" stroke-width="0.75" />
<path d="M 226.77 53.232 C 226.77 54.456 227.96521 55.68 229.14601 55.68 C 232.746 55.68 236.34601 53.232 236.34601 50.856 C 236.34601 49.6752 235.12201 48.48 233.97 48.48 C 230.37001 48.48 226.77 50.856 226.77 53.232 Z" fill="#404040" stroke="none" stroke-width="1.0" />
<path d="M 225.25 128.25 L 233.25 128.25 L 233.25 135.75 L 225.25 135.75 L 225.25 128.25 Z" fill="#ffffff" stroke="none" stroke-width="1.0" />
<text x='225.25' y='135.75' font-family="Default" font-size="10.0" fill="#404040" >5</text>
<path d="M 226.75 52.96 L 227.75 52.96 L 227.75 83.0 L 226.75 83.0 M 226.75 52.96 Z" fill="#404040" stroke="none" stroke-width="0.75" />
<path d="M 226.75 81.0 L 226.75 85.0 L 249.625 81.0 L 249.625 77.0 L 226.75 81.0 Z" fill="#404040" stroke="none" stroke-width="0.75" />
<path d="M 248.645 49.232 C 248.645 50.456 249.84021 51.68 251.02101 51.68 C 254.621 51.68 258.221 49.232 258.221 46.856 C 258.221 45.6752 256.997 44.48 255.845 44.48 C 252.24501 44.48 248.645 46.856 248.645 49.232 Z" fill="#404040" stroke="none" stroke-width="1.0" />
<path d="M 247.125 128.25 L 255.125 128.25 L 255.125 135.75 L 247.125 135.75 L 247.125 128.25 Z" fill="#ffffff" stroke="none" stroke-width="1.0" />
<text x='247.125' y='135.75' font-family="Default" font-size="10.0" fill="#404040" >7</text>
<path d="M 248.625 48.96 L 249.625 48.96 L 249.625 79.0 L 248.625 79.0 M 248.625 48.96 Z" fill="#404040" stroke="none" stroke-width="0.75" /></g>
<path d="M 35.35 46.3 C 35.35 47.15 36.18 48.0 37.0 48.0 C 39.5 48.0 42.0 46.3 42.0 44.65 C 42.0 43.83 41.149998 43.0 40.35 43.0 C 37.85 43.0 35.35 44.65 35.35 46.3 Z" fill="#000000" stroke="none" stroke-width="1.0" />
<path d="M 42.0 30.0 L 42.0 44.7 Z" fill="none" stroke="#000000" stroke-width="1.0" />
<text x='43.0' y='46.25' font-family="Default" font-size="10.0" fill="#000000" > = 120</text>
<text x='21.0' y='58.0' font-family="Default" font-size="10.0" fill="#ff0000" >1</text>
<path d="M 20.0 60.0 L 23.0 60.0 L 23.0 132.0 L 20.0 132.0 L 20.0 60.0 Z" fill="#000000" stroke="#000000" stroke-width="0.75" />
<path d="M 25.0 60.0 L 26.0 60.0 L 26.0 132.0 L 25.0 132.0 L 25.0 60.0 Z" fill="#000000" stroke="#000000" stroke-width="0.75" />
<path d="M 306.0 60.0 L 306.0 92.0 Z" fill="#000000" stroke="#000000" stroke-width="0.75" />
<path d="M 20.0 132.0 L 23.0 132.0 L 23.0 182.0 L 20.0 182.0 L 20.0 132.0 Z" fill="#000000" stroke="#000000" stroke-width="0.75" />
<path d="M 25.0 132.0 L 26.0 132.0 L 26.0 182.0 L 25.0 182.0 L 25.0 132.0 Z" fill="#000000" stroke="#000000" stroke-width="0.75" />
<path d="M 306.0 132.0 L 306.0 182.0 Z" fill="#000000" stroke="#000000" stroke-width="0.75" /><g transform="translate(306.0,20.0)">
<path d="M 0.0 0.0 L 215.0 0.0 L 215.0 183.0 L 0.0 183.0 L 0.0 0.0 Z" fill="#ffffff" stroke="none" stroke-width="1.0" />
<path d="M 0.0 40.0 L 215.0 40.0 M 0.0 48.0 L 215.0 48.0 M 0.0 56.0 L 215.0 56.0 M 0.0 64.0 L 215.0 64.0 M 0.0 72.0 L 215.0 72.0 Z" fill="none" stroke="#d6d6d6" stroke-width="0.75" />
<path d="M 0.0 112.0 L 215.0 112.0 M 0.0 122.0 L 215.0 122.0 M 0.0 132.0 L 215.0 132.0 M 0.0 142.0 L 215.0 142.0 M 0.0 152.0 L 215.0 152.0 M 0.0 162.0 L 215.0 162.0 Z" fill="none" stroke="#d6d6d6" stroke-width="0.75" />
<path d="M 24.52 45.232 C 24.52 46.456 25.7152 47.68 26.896 47.68 C 30.496 47.68 34.096 45.232 34.096 42.856 C 34.096 41.6752 32.872 40.48 31.720001 40.48 C 28.12 40.48 24.52 42.856 24.52 45.232 Z" fill="#404040" stroke="none" stroke-width="1.0" />
<path d="M 23.0 118.25 L 31.0 118.25 L 31.0 125.75 L 23.0 125.75 L 23.0 118.25 Z" fill="#ffffff" stroke="none" stroke-width="1.0" />
<text x='23.0' y='125.75' font-family="Default" font-size="10.0" fill="#404040" >5</text>
<path d="M 24.5 44.96 L 25.5 44.96 L 25.5 75.0 L 24.5 75.0 M 24.5 44.96 Z" fill="#404040" stroke="none" stroke-width="0.75" />
<path d="M 24.5 73.0 L 24.5 77.0 L 47.375 69.0 L 47.375 65.0 L 24.5 73.0 Z" fill="#404040" stroke="none" stroke-width="0.75" />
<path d="M 46.395 37.232 C 46.395 38.456 47.590202 39.68 48.771 39.68 C 52.371002 39.68 55.971 37.232 55.971 34.856 C 55.971 33.6752 54.747 32.48 53.595 32.48 C 49.995 32.48 46.395 34.856 46.395 37.232 Z" fill="#404040" stroke="none" stroke-width="1.0" />
<path d="M 44.875 118.25 L 52.875 118.25 L 52.875 125.75 L 44.875 125.75 L 44.875 118.25 Z" fill="#ffffff" stroke="none" stroke-width="1.0" />
<text x='44.875' y='125.75' font-family="Default" font-size="10.0" fill="#404040" >8</text>
<path d="M 46.375 36.96 L 47.375 36.96 L 47.375 67.0 L 46.375 67.0 M 46.375 36.96 Z" fill="#404040" stroke="none" stroke-width="0.75" />
<path d="M 64.75 32.0 L 80.75 32.0 Z" fill="none" stroke="#d6d6d6" stroke-width="0.75" />
<path d="M 64.75 32.0 L 80.75 32.0 Z" fill="none" stroke="#d6d6d6" stroke-width="0.75" />
<path d="M 68.27 33.232 C 68.27 34.456 69.465195 35.68 70.645996 35.68 C 74.245995 35.68 77.84599 33.232 77.84599 30.855999 C 77.84599 29.6752 76.621994 28.48 75.46999 28.48 C 71.869995 28.48 68.27 30.855999 68.27 33.232 Z" fill="#404040" stroke="none" stroke-width="1.0" />
<path d="M 66.75 108.25 L 74.75 108.25 L 74.75 115.75 L 66.75 115.75 L 66.75 108.25 Z" fill="#ffffff" stroke="none" stroke-width="1.0" />
<text x='66.75' y='115.75' font-family="Default" font-size="10.0" fill="#404040" >5</text>
<path d="M 68.25 32.96 L 69.25 32.96 L 69.25 63.0 L 68.25 63.0 M 68.25 32.96 Z" fill="#404040" stroke="none" stroke-width="0.75" />
<path d="M 68.25 61.0 L 68.25 65.0 L 91.125 57.0 L 91.125 53.0 L 68.25 61.0 Z" fill="#404040" stroke="none" stroke-width="0.75" />
<path d="M 86.625 32.0 L 102.625 32.0 Z" fill="none" stroke="#d6d6d6" stroke-width="0.75" />
<path d="M 86.625 24.0 L 102.625 24.0 Z" fill="none" stroke="#d6d6d6" stroke-width="0.75" />
<path d="M 86.625 32.0 L 102.625 32.0 Z" fill="none" stroke="#d6d6d6" stroke-width="0.75" />
<path d="M 86.625 24.0 L 102.625 24.0 Z" fill="none" stroke="#d6d6d6" stroke-width="0.75" />
<path d="M 90.145 25.231998 C 90.145 26.456 91.340195 27.68 92.520996 27.68 C 96.120995 27.68 99.72099 25.231998 99.72099 22.855999 C 99.72099 21.6752 98.496994 20.48 97.34499 20.48 C 93.744995 20.48 90.145 22.855999 90.145 25.231998 Z" fill="#404040" stroke="none" stroke-width="1.0" />
<path d="M 88.625 108.25 L 96.625 108.25 L 96.625 115.75 L 88.625 115.75 L 88.625 108.25 Z" fill="#ffffff" stroke="none" stroke-width="1.0" />
<text x='88.625' y='115.75' font-family="Default" font-size="10.0" fill="#404040" >8</text>
<path d="M 90.125 24.96 L 91.125 24.96 L 91.125 55.0 L 90.125 55.0 M 90.125 24.96 Z" fill="#404040" stroke="none" stroke-width="0.75" />
<path d="M 113.991554 50.729687 C 114.45373 50.666664 114.852875 50.79271 115.16799 51.08682 C 115.35706 51.296898 115.44109 51.46496 115.56714 51.969147 C 115.630165 52.200233 115.693184 52.43132 115.714195 52.473335 C 115.798225 52.662403 115.94528 52.788452 116.134346 52.80946 C 116.21838 52.80946 116.2604 52.80946 116.36543 52.746437 C 116.638535 52.620388 117.28978 51.8431 117.54187 51.35992 C 117.6049 51.212868 117.70993 51.149845 117.81497 51.149845 C 117.899 51.149845 118.00404 51.212868 118.04606 51.27589 C 118.06707 51.317905 117.85699 52.05318 116.743576 55.77156 C 116.02931 58.20846 115.42008 60.246212 115.39908 60.267227 C 115.39908 60.288246 115.31505 60.35125 115.23101 60.372265 C 115.104965 60.43529 115.08396 60.43529 114.91589 60.43529 C 114.74783 60.43529 114.70582 60.43529 114.57977 60.39328 C 114.51675 60.35125 114.43272 60.30924 114.43272 60.288246 C 114.3907 60.267227 114.53776 59.889088 115.60915 56.842957 C 116.2814 54.973263 116.82761 53.418686 116.806595 53.418686 L 116.44946 53.523724 C 115.693184 53.775818 115.23101 53.859848 114.6638 53.859848 C 114.20163 53.859848 114.075584 53.83884 113.73946 53.67078 C 112.81512 53.229614 112.5 52.15822 113.02519 51.35992 C 113.25628 51.044804 113.61341 50.79271 113.991554 50.729687 Z" fill="#404040" stroke="none" stroke-width="0.75" />
<path d="M 135.86655 50.729687 C 136.32872 50.666664 136.72787 50.79271 137.04298 51.08682 C 137.23206 51.296898 137.31609 51.46496 137.44214 51.969147 C 137.50516 52.200233 137.56819 52.43132 137.58919 52.473335 C 137.67322 52.662403 137.82028 52.788452 138.00935 52.80946 C 138.09338 52.80946 138.13539 52.80946 138.24043 52.746437 C 138.51353 52.620388 139.16478 51.8431 139.41687 51.35992 C 139.47989 51.212868 139.58493 51.149845 139.68997 51.149845 C 139.774 51.149845 139.87904 51.212868 139.92105 51.27589 C 139.94206 51.317905 139.732 52.05318 138.61858 55.77156 C 137.90431 58.20846 137.29509 60.246212 137.27408 60.267227 C 137.27408 60.288246 137.19005 60.35125 137.10602 60.372265 C 136.97997 60.43529 136.95895 60.43529 136.7909 60.43529 C 136.62283 60.43529 136.58083 60.43529 136.45477 60.39328 C 136.39175 60.35125 136.30772 60.30924 136.30772 60.288246 C 136.2657 60.267227 136.41275 59.889088 137.48416 56.842957 C 138.1564 54.973263 138.7026 53.418686 138.6816 53.418686 L 138.32446 53.523724 C 137.56819 53.775818 137.10602 53.859848 136.5388 53.859848 C 136.07663 53.859848 135.95058 53.83884 135.61446 53.67078 C 134.69012 53.229614 134.375 52.15822 134.90019 51.35992 C 135.13129 51.044804 135.48842 50.79271 135.86655 50.729687 Z" fill="#404040" stroke="none" stroke-width="0.75" />
<path d="M 157.74155 50.729687 C 158.20372 50.666664 158.60287 50.79271 158.91798 51.08682 C 159.10706 51.296898 159.19109 51.46496 159.31714 51.969147 C 159.38016 52.200233 159.44319 52.43132 159.46419 52.473335 C 159.54822 52.662403 159.69528 52.788452 159.88435 52.80946 C 159.96838 52.80946 160.01039 52.80946 160.11543 52.746437 C 160.38853 52.620388 161.03978 51.8431 161.29187 51.35992 C 161.35489 51.212868 161.45993 51.149845 161.56497 51.149845 C 161.649 51.149845 161.75404 51.212868 161.79605 51.27589 C 161.81706 51.317905 161.607 52.05318 160.49358 55.77156 C 159.77931 58.20846 159.17009 60.246212 159.14908 60.267227 C 159.14908 60.288246 159.06505 60.35125 158.98102 60.372265 C 158.85497 60.43529 158.83395 60.43529 158.6659 60.43529 C 158.49783 60.43529 158.45583 60.43529 158.32977 60.39328 C 158.26675 60.35125 158.18272 60.30924 158.18272 60.288246 C 158.1407 60.267227 158.28775 59.889088 159.35916 56.842957 C 160.0314 54.973263 160.5776 53.418686 160.5566 53.418686 L 160.19946 53.523724 C 159.44319 53.775818 158.98102 53.859848 158.4138 53.859848 C 157.95163 53.859848 157.82558 53.83884 157.48946 53.67078 C 156.56512 53.229614 156.25 52.15822 156.77519 51.35992 C 157.00629 51.044804 157.36342 50.79271 157.74155 50.729687 Z" fill="#404040" stroke="none" stroke-width="0.75" />
<path d="M 179.61655 50.729687 C 180.07872 50.666664 180.47787 50.79271 180.79298 51.08682 C 180.98206 51.296898 181.06609 51.46496 181.19214 51.969147 C 181.25516 52.200233 181.31819 52.43132 181.33919 52.473335 C 181.42322 52.662403 181.57028 52.788452 181.75935 52.80946 C 181.84338 52.80946 181.88539 52.80946 181.99043 52.746437 C 182.26353 52.620388 182.91478 51.8431 183.16687 51.35992 C 183.22989 51.212868 183.33493 51.149845 183.43997 51.149845 C 183.524 51.149845 183.62904 51.212868 183.67105 51.27589 C 183.69206 51.317905 183.482 52.05318 182.36858 55.77156 C 181.65431 58.20846 181.04509 60.246212 181.02408 60.267227 C 181.02408 60.288246 180.94005 60.35125 180.85602 60.372265 C 180.72997 60.43529 180.70895 60.43529 180.5409 60.43529 C 180.37283 60.43529 180.33083 60.43529 180.20477 60.39328 C 180.14175 60.35125 180.05772 60.30924 180.05772 60.288246 C 180.0157 60.267227 180.16275 59.889088 181.23416 56.842957 C 181.9064 54.973263 182.4526 53.418686 182.4316 53.418686 L 182.07446 53.523724 C 181.31819 53.775818 180.85602 53.859848 180.2888 53.859848 C 179.82663 53.859848 179.70058 53.83884 179.36446 53.67078 C 178.44012 53.229614 178.125 52.15822 178.65019 51.35992 C 178.88129 51.044804 179.23842 50.79271 179.61655 50.729687 Z" fill="#404040" stroke="none" stroke-width="0.75" /></g>
<text x='307.0' y='58.0' font-family="Default" font-size="10.0" fill="#ff0000" >2</text>
<path d="M 306.0 60.0 L 306.0 92.0 Z" fill="#000000" stroke="#000000" stroke-width="0.75" />
<path d="M 521.0 60.0 L 521.0 92.0 Z" fill="#000000" stroke="#000000" stroke-width="0.75" />
<path d="M 306.0 132.0 L 306.0 182.0 Z" fill="#000000" stroke="#000000" stroke-width="0.75" />
<path d="M 521.0 132.0 L 521.0 182.0 Z" fill="#000000" stroke="#000000" stroke-width="0.75" /><g transform="translate(521.0,20.0)">
<path d="M 0.0 0.0 L 214.0 0.0 L 214.0 183.0 L 0.0 183.0 L 0.0 0.0 Z" fill="#ffffff" stroke="none" stroke-width="1.0" />
<path d="M 0.0 40.0 L 214.0 40.0 M 0.0 48.0 L 214.0 48.0 M 0.0 56.0 L 214.0 56.0 M 0.0 64.0 L 214.0 64.0 M 0.0 72.0 L 214.0 72.0 Z" fill="none" stroke="#d6d6d6" stroke-width="0.75" />
<path d="M 0.0 112.0 L 214.0 112.0 M 0.0 122.0 L 214.0 122.0 M 0.0 132.0 L 214.0 132.0 M 0.0 142.0 L 214.0 142.0 M 0.0 152.0 L 214.0 152.0 M 0.0 162.0 L 214.0 162.0 Z" fill="none" stroke="#d6d6d6" stroke-width="0.75" />
<path d="M 21.0 80.0 L 37.0 80.0 Z" fill="none" stroke="#d6d6d6" stroke-width="0.75" />
<path d="M 21.0 88.0 L 37.0 88.0 Z" fill="none" stroke="#d6d6d6" stroke-width="0.75" />
<path d="M 21.0 80.0 L 37.0 80.0 Z" fill="none" stroke="#d6d6d6" stroke-width="0.75" />
<path d="M 21.0 88.0 L 37.0 88.0 Z" fill="none" stroke="#d6d6d6" stroke-width="0.75" />
<path d="M 24.52 89.232 C 24.52 90.456 25.7152 91.68 26.896 91.68 C 30.496 91.68 34.096 89.232 34.096 86.856 C 34.096 85.6752 32.872 84.48 31.720001 84.48 C 28.12 84.48 24.52 86.856 24.52 89.232 Z" fill="#404040" stroke="none" stroke-width="1.0" />
<path d="M 23.0 158.25 L 31.0 158.25 L 31.0 165.75 L 23.0 165.75 L 23.0 158.25 Z" fill="#ffffff" stroke="none" stroke-width="1.0" />
<text x='23.0' y='165.75' font-family="Default" font-size="10.0" fill="#404040" >5</text>
<path d="M 33.18 87.04 L 34.18 87.04 L 34.18 56.0 L 33.18 56.0 M 33.18 87.04 Z" fill="#404040" stroke="none" stroke-width="0.75" />
<path d="M 33.18 54.0 L 33.18 58.0 L 55.93 50.0 L 55.93 46.0 L 33.18 54.0 Z" fill="#404040" stroke="none" stroke-width="0.75" />
<path d="M 42.75 80.0 L 58.75 80.0 Z" fill="none" stroke="#d6d6d6" stroke-width="0.75" />
<path d="M 42.75 80.0 L 58.75 80.0 Z" fill="none" stroke="#d6d6d6" stroke-width="0.75" />
<path d="M 46.27 81.232 C 46.27 82.456 47.465202 83.68 48.646 83.68 C 52.246002 83.68 55.846 81.232 55.846 78.856 C 55.846 77.6752 54.622 76.48 53.47 76.48 C 49.87 76.48 46.27 78.856 46.27 81.232 Z" fill="#404040" stroke="none" stroke-width="1.0" />
<path d="M 44.75 158.25 L 52.75 158.25 L 52.75 165.75 L 44.75 165.75 L 44.75 158.25 Z" fill="#ffffff" stroke="none" stroke-width="1.0" />
<text x='44.75' y='165.75' font-family="Default" font-size="10.0" fill="#404040" >8</text>
<path d="M 54.93 79.04 L 55.93 79.04 L 55.93 48.0 L 54.93 48.0 M 54.93 79.04 Z" fill="#404040" stroke="none" stroke-width="0.75" />
<path d="M 68.02 77.232 C 68.02 78.456 69.215195 79.68 70.395996 79.68 C 73.995995 79.68 77.59599 77.232 77.59599 74.856 C 77.59599 73.6752 76.371994 72.48 75.21999 72.48 C 71.619995 72.48 68.02 74.856 68.02 77.232 Z" fill="#404040" stroke="none" stroke-width="1.0" />
<path d="M 66.5 148.25 L 74.5 148.25 L 74.5 155.75 L 66.5 155.75 L 66.5 148.25 Z" fill="#ffffff" stroke="none" stroke-width="1.0" />
<text x='66.5' y='155.75' font-family="Default" font-size="10.0" fill="#404040" >5</text>
<path d="M 76.68 75.04 L 77.68 75.04 L 77.68 44.0 L 76.68 44.0 M 76.68 75.04 Z" fill="#404040" stroke="none" stroke-width="0.75" />
<path d="M 76.68 42.0 L 76.68 46.0 L 99.43 42.0 L 99.43 38.0 L 76.68 42.0 Z" fill="#404040" stroke="none" stroke-width="0.75" />
<path d="M 89.77 73.232 C 89.77 74.456 90.965195 75.68 92.145996 75.68 C 95.745995 75.68 99.34599 73.232 99.34599 70.856 C 99.34599 69.6752 98.121994 68.48 96.96999 68.48 C 93.369995 68.48 89.77 70.856 89.77 73.232 Z" fill="#404040" stroke="none" stroke-width="1.0" />
<path d="M 88.25 148.25 L 96.25 148.25 L 96.25 155.75 L 88.25 155.75 L 88.25 148.25 Z" fill="#ffffff" stroke="none" stroke-width="1.0" />
<text x='88.25' y='155.75' font-family="Default" font-size="10.0" fill="#404040" >7</text>
<path d="M 98.43 71.04 L 99.43 71.04 L 99.43 40.0 L 98.43 40.0 M 98.43 71.04 Z" fill="#404040" stroke="none" stroke-width="0.75" />
<path d="M 111.52 65.232 C 111.52 66.456 112.715195 67.68 113.895996 67.68 C 117.495995 67.68 121.09599 65.232 121.09599 62.856 C 121.09599 61.6752 119.871994 60.48 118.71999 60.48 C 115.119995 60.48 111.52 62.856 111.52 65.232 Z" fill="#404040" stroke="none" stroke-width="1.0" />
<path d="M 110.0 138.25 L 118.0 138.25 L 118.0 145.75 L 110.0 145.75 L 110.0 138.25 Z" fill="#ffffff" stroke="none" stroke-width="1.0" />
<text x='110.0' y='145.75' font-family="Default" font-size="10.0" fill="#404040" >5</text>
<path d="M 120.18 63.04 L 121.18 63.04 L 121.18 32.0 L 120.18 32.0 M 120.18 63.04 Z" fill="#404040" stroke="none" stroke-width="0.75" />
<path d="M 120.18 30.0 L 120.18 34.0 L 142.93 30.0 L 142.93 26.0 L 120.18 30.0 Z" fill="#404040" stroke="none" stroke-width="0.75" />
<path d="M 133.27 61.232 C 133.27 62.456 134.46521 63.68 135.64601 63.68 C 139.246 63.68 142.84601 61.232 142.84601 58.856 C 142.84601 57.6752 141.62201 56.48 140.47 56.48 C 136.87001 56.48 133.27 58.856 133.27 61.232 Z" fill="#404040" stroke="none" stroke-width="1.0" />
<path d="M 131.75 138.25 L 139.75 138.25 L 139.75 145.75 L 131.75 145.75 L 131.75 138.25 Z" fill="#ffffff" stroke="none" stroke-width="1.0" />
<text x='131.75' y='145.75' font-family="Default" font-size="10.0" fill="#404040" >7</text>
<path d="M 141.93 59.04 L 142.93 59.04 L 142.93 28.0 L 141.93 28.0 M 141.93 59.04 Z" fill="#404040" stroke="none" stroke-width="0.75" />
<path d="M 155.02 53.232 C 155.02 54.456 156.21521 55.68 157.39601 55.68 C 160.996 55.68 164.59601 53.232 164.59601 50.856 C 164.59601 49.6752 163.37201 48.48 162.22 48.48 C 158.62001 48.48 155.02 50.856 155.02 53.232 Z" fill="#404040" stroke="none" stroke-width="1.0" />
<path d="M 153.5 128.25 L 161.5 128.25 L 161.5 135.75 L 153.5 135.75 L 153.5 128.25 Z" fill="#ffffff" stroke="none" stroke-width="1.0" />
<text x='153.5' y='135.75' font-family="Default" font-size="10.0" fill="#404040" >5</text>
<path d="M 155.0 52.96 L 156.0 52.96 L 156.0 83.0 L 155.0 83.0 M 155.0 52.96 Z" fill="#404040" stroke="none" stroke-width="0.75" />
<path d="M 155.0 81.0 L 155.0 85.0 L 177.75 81.0 L 177.75 77.0 L 155.0 81.0 Z" fill="#404040" stroke="none" stroke-width="0.75" />
<path d="M 176.77 49.232 C 176.77 50.456 177.96521 51.68 179.14601 51.68 C 182.746 51.68 186.34601 49.232 186.34601 46.856 C 186.34601 45.6752 185.12201 44.48 183.97 44.48 C 180.37001 44.48 176.77 46.856 176.77 49.232 Z" fill="#404040" stroke="none" stroke-width="1.0" />
<path d="M 175.25 128.25 L 183.25 128.25 L 183.25 135.75 L 175.25 135.75 L 175.25 128.25 Z" fill="#ffffff" stroke="none" stroke-width="1.0" />
<text x='175.25' y='135.75' font-family="Default" font-size="10.0" fill="#404040" >7</text>
<path d="M 176.75 48.96 L 177.75 48.96 L 177.75 79.0 L 176.75 79.0 M 176.75 48.96 Z" fill="#404040" stroke="none" stroke-width="0.75" /></g>
<text x='522.0' y='58.0' font-family="Default" font-size="10.0" fill="#ff0000" >3</text>
<path d="M 521.0 60.0 L 521.0 92.0 Z" fill="#000000" stroke="#000000" stroke-width="0.75" />
<path d="M 735.0 60.0 L 735.0 92.0 Z" fill="#000000" stroke="#000000" stroke-width="0.75" />
<path d="M 521.0 132.0 L 521.0 182.0 Z" fill="#000000" stroke="#000000" stroke-width="0.75" />
<path d="M 735.0 132.0 L 735.0 182.0 Z" fill="#000000" stroke="#000000" stroke-width="0.75" /><g transform="translate(735.0,20.0)">
<path d="M 0.0 0.0 L 215.0 0.0 L 215.0 183.0 L 0.0 183.0 L 0.0 0.0 Z" fill="#ffffff" stroke="none" stroke-width="1.0" />
<path d="M 0.0 40.0 L 215.0 40.0 M 0.0 48.0 L 215.0 48.0 M 0.0 56.0 L 215.0 56.0 M 0.0 64.0 L 215.0 64.0 M 0.0 72.0 L 215.0 72.0 Z" fill="none" stroke="#d6d6d6" stroke-width="0.75" />
<path d="M 0.0 112.0 L 215.0 112.0 M 0.0 122.0 L 215.0 122.0 M 0.0 132.0 L 215.0 132.0 M 0.0 142.0 L 215.0 142.0 M 0.0 152.0 L 215.0 152.0 M 0.0 162.0 L 215.0 162.0 Z" fill="none" stroke="#d6d6d6" stroke-width="0.75" />
<path d="M 24.52 45.232 C 24.52 46.456 25.7152 47.68 26.896 47.68 C 30.496 47.68 34.096 45.232 34.096 42.856 C 34.096 41.6752 32.872 40.48 31.720001 40.48 C 28.12 40.48 24.52 42.856 24.52 45.232 Z" fill="#404040" stroke="none" stroke-width="1.0" />
<path d="M 23.0 118.25 L 31.0 118.25 L 31.0 125.75 L 23.0 125.75 L 23.0 118.25 Z" fill="#ffffff" stroke="none" stroke-width="1.0" />
<text x='23.0' y='125.75' font-family="Default" font-size="10.0" fill="#404040" >5</text>
<path d="M 24.5 44.96 L 25.5 44.96 L 25.5 75.0 L 24.5 75.0 M 24.5 44.96 Z" fill="#404040" stroke="none" stroke-width="0.75" />
<path d="M 24.5 73.0 L 24.5 77.0 L 47.375 73.0 L 47.375 69.0 L 24.5 73.0 Z" fill="#404040" stroke="none" stroke-width="0.75" />
<path d="M 46.395 41.232 C 46.395 42.456 47.590202 43.68 48.771 43.68 C 52.371002 43.68 55.971 41.232 55.971 38.856 C 55.971 37.6752 54.747 36.48 53.595 36.48 C 49.995 36.48 46.395 38.856 46.395 41.232 Z" fill="#404040" stroke="none" stroke-width="1.0" />
<path d="M 44.875 118.25 L 52.875 118.25 L 52.875 125.75 L 44.875 125.75 L 44.875 118.25 Z" fill="#ffffff" stroke="none" stroke-width="1.0" />
<text x='44.875' y='125.75' font-family="Default" font-size="10.0" fill="#404040" >6</text>
<path d="M 46.375 40.96 L 47.375 40.96 L 47.375 71.0 L 46.375 71.0 M 46.375 40.96 Z" fill="#404040" stroke="none" stroke-width="0.75" />
<path d="M 68.27 37.232 C 68.27 38.456 69.465195 39.68 70.645996 39.68 C 74.245995 39.68 77.84599 37.232 77.84599 34.856 C 77.84599 33.6752 76.621994 32.48 75.46999 32.48 C 71.869995 32.48 68.27 34.856 68.27 37.232 Z" fill="#404040" stroke="none" stroke-width="1.0" />
<path d="M 66.75 118.25 L 74.75 118.25 L 74.75 125.75 L 66.75 125.75 L 66.75 118.25 Z" fill="#ffffff" stroke="none" stroke-width="1.0" />
<text x='66.75' y='125.75' font-family="Default" font-size="10.0" fill="#404040" >8</text>
<path d="M 68.25 36.96 L 69.25 36.96 L 69.25 67.0 L 68.25 67.0 M 68.25 36.96 Z" fill="#404040" stroke="none" stroke-width="0.75" />
<path d="M 68.25 65.0 L 68.25 69.0 L 91.125 65.0 L 91.125 61.0 L 68.25 65.0 Z" fill="#404040" stroke="none" stroke-width="0.75" />
<path d="M 86.625 32.0 L 102.625 32.0 Z" fill="none" stroke="#d6d6d6" stroke-width="0.75" />
<path d="M 86.625 32.0 L 102.625 32.0 Z" fill="none" stroke="#d6d6d6" stroke-width="0.75" />
<path d="M 90.145 33.232 C 90.145 34.456 91.340195 35.68 92.520996 35.68 C 96.120995 35.68 99.72099 33.232 99.72099 30.855999 C 99.72099 29.6752 98.496994 28.48 97.34499 28.48 C 93.744995 28.48 90.145 30.855999 90.145 33.232 Z" fill="#404040" stroke="none" stroke-width="1.0" />
<path d="M 88.625 108.25 L 96.625 108.25 L 96.625 115.75 L 88.625 115.75 L 88.625 108.25 Z" fill="#ffffff" stroke="none" stroke-width="1.0" />
<text x='88.625' y='115.75' font-family="Default" font-size="10.0" fill="#404040" >5</text>
<path d="M 90.125 32.96 L 91.125 32.96 L 91.125 63.0 L 90.125 63.0 M 90.125 32.96 Z" fill="#404040" stroke="none" stroke-width="0.75" />
<path d="M 108.5 32.0 L 124.5 32.0 Z" fill="none" stroke="#d6d6d6" stroke-width="0.75" />
<path d="M 108.5 32.0 L 124.5 32.0 Z" fill="none" stroke="#d6d6d6" stroke-width="0.75" />
<path d="M 112.02 29.231998 C 112.02 30.456 113.215195 31.68 114.395996 31.68 C 117.995995 31.68 121.59599 29.231998 121.59599 26.855999 C 121.59599 25.6752 120.371994 24.48 119.21999 24.48 C 115.619995 24.48 112.02 26.855999 112.02 29.231998 Z" fill="#404040" stroke="none" stroke-width="1.0" />
<path d="M 110.5 108.25 L 118.5 108.25 L 118.5 115.75 L 110.5 115.75 L 110.5 108.25 Z" fill="#ffffff" stroke="none" stroke-width="1.0" />
<text x='110.5' y='115.75' font-family="Default" font-size="10.0" fill="#404040" >7</text>
<path d="M 112.0 28.96 L 113.0 28.96 L 113.0 59.0 L 112.0 59.0 M 112.0 28.96 Z" fill="#404040" stroke="none" stroke-width="0.75" />
<path d="M 112.0 57.0 L 112.0 61.0 L 134.875 57.0 L 134.875 53.0 L 112.0 57.0 Z" fill="#404040" stroke="none" stroke-width="0.75" />
<path d="M 130.375 32.0 L 146.375 32.0 Z" fill="none" stroke="#d6d6d6" stroke-width="0.75" />
<path d="M 130.375 24.0 L 146.375 24.0 Z" fill="none" stroke="#d6d6d6" stroke-width="0.75" />
<path d="M 130.375 32.0 L 146.375 32.0 Z" fill="none" stroke="#d6d6d6" stroke-width="0.75" />
<path d="M 130.375 24.0 L 146.375 24.0 Z" fill="none" stroke="#d6d6d6" stroke-width="0.75" />
<path d="M 133.895 25.231998 C 133.895 26.456 135.09021 27.68 136.27101 27.68 C 139.871 27.68 143.47101 25.231998 143.47101 22.855999 C 143.47101 21.6752 142.24701 20.48 141.095 20.48 C 137.49501 20.48 133.895 22.855999 133.895 25.231998 Z" fill="#404040" stroke="none" stroke-width="1.0" />
<path d="M 132.375 108.25 L 140.375 108.25 L 140.375 115.75 L 132.375 115.75 L 132.375 108.25 Z" fill="#ffffff" stroke="none" stroke-width="1.0" />
<text x='132.375' y='115.75' font-family="Default" font-size="10.0" fill="#404040" >8</text>
<path d="M 133.875 24.96 L 134.875 24.96 L 134.875 55.0 L 133.875 55.0 M 133.875 24.96 Z" fill="#404040" stroke="none" stroke-width="0.75" />
<path d="M 157.74155 50.729687 C 158.20372 50.666664 158.60287 50.79271 158.91798 51.08682 C 159.10706 51.296898 159.19109 51.46496 159.31714 51.969147 C 159.38016 52.200233 159.44319 52.43132 159.46419 52.473335 C 159.54822 52.662403 159.69528 52.788452 159.88435 52.80946 C 159.96838 52.80946 160.01039 52.80946 160.11543 52.746437 C 160.38853 52.620388 161.03978 51.8431 161.29187 51.35992 C 161.35489 51.212868 161.45993 51.149845 161.56497 51.149845 C 161.649 51.149845 161.75404 51.212868 161.79605 51.27589 C 161.81706 51.317905 161.607 52.05318 160.49358 55.77156 C 159.77931 58.20846 159.17009 60.246212 159.14908 60.267227 C 159.14908 60.288246 159.06505 60.35125 158.98102 60.372265 C 158.85497 60.43529 158.83395 60.43529 158.6659 60.43529 C 158.49783 60.43529 158.45583 60.43529 158.32977 60.39328 C 158.26675 60.35125 158.18272 60.30924 158.18272 60.288246 C 158.1407 60.267227 158.28775 59.889088 159.35916 56.842957 C 160.0314 54.973263 160.5776 53.418686 160.5566 53.418686 L 160.19946 53.523724 C 159.44319 53.775818 158.98102 53.859848 158.4138 53.859848 C 157.95163 53.859848 157.82558 53.83884 157.48946 53.67078 C 156.56512 53.229614 156.25 52.15822 156.77519 51.35992 C 157.00629 51.044804 157.36342 50.79271 157.74155 50.729687 Z" fill="#404040" stroke="none" stroke-width="0.75" />
<path d="M 179.61655 50.729687 C 180.07872 50.666664 180.47787 50.79271 180.79298 51.08682 C 180.98206 51.296898 181.06609 51.46496 181.19214 51.969147 C 181.25516 52.200233 181.31819 52.43132 181.33919 52.473335 C 181.42322 52.662403 181.57028 52.788452 181.75935 52.80946 C 181.84338 52.80946 181.88539 52.80946 181.99043 52.746437 C 182.26353 52.620388 182.91478 51.8431 183.16687 51.35992 C 183.22989 51.212868 183.33493 51.149845 183.43997 51.149845 C 183.524 51.149845 183.62904 51.212868 183.67105 51.27589 C 183.69206 51.317905 183.482 52.05318 182.36858 55.77156 C 181.65431 58.20846 181.04509 60.246212 181.02408 60.267227 C 181.02408 60.288246 180.94005 60.35125 180.85602 60.372265 C 180.72997 60.43529 180.70895 60.43529 180.5409 60.43529 C 180.37283 60.43529 180.33083 60.43529 180.20477 60.39328 C 180.14175 60.35125 180.05772 60.30924 180.05772 60.288246 C 180.0157 60.267227 180.16275 59.889088 181.23416 56.842957 C 181.9064 54.973263 182.4526 53.418686 182.4316 53.418686 L 182.07446 53.523724 C 181.31819 53.775818 180.85602 53.859848 180.2888 53.859848 C 179.82663 53.859848 179.70058 53.83884 179.36446 53.67078 C 178.44012 53.229614 178.125 52.15822 178.65019 51.35992 C 178.88129 51.044804 179.23842 50.79271 179.61655 50.729687 Z" fill="#404040" stroke="none" stroke-width="0.75" /></g>
<text x='736.0' y='58.0' font-family="Default" font-size="10.0" fill="#ff0000" >4</text>
<path d="M 735.0 60.0 L 735.0 92.0 Z" fill="#000000" stroke="#000000" stroke-width="0.75" />
<path d="M 950.0 60.0 L 950.0 92.0 Z" fill="#000000" stroke="#000000" stroke-width="0.75" />
<path d="M 735.0 132.0 L 735.0 182.0 Z" fill="#000000" stroke="#000000" stroke-width="0.75" />
<path d="M 950.0 132.0 L 950.0 182.0 Z" fill="#000000" stroke="#000000" stroke-width="0.75" /><g transform="translate(20.0,214.0)">
<path d="M 0.0 0.0 L 70.0 0.0 L 70.0 161.0 L 0.0 161.0 L 0.0 0.0 Z" fill="#ffffff" stroke="none" stroke-width="1.0" />
<path d="M 0.0 30.0 L 70.0 30.0 M 0.0 38.0 L 70.0 38.0 M 0.0 46.0 L 70.0 46.0 M 0.0 54.0 L 70.0 54.0 M 0.0 62.0 L 70.0 62.0 Z" fill="none" stroke="#d6d6d6" stroke-width="0.75" />
<path d="M 0.0 90.0 L 70.0 90.0 M 0.0 100.0 L 70.0 100.0 M 0.0 110.0 L 70.0 110.0 M 0.0 120.0 L 70.0 120.0 M 0.0 130.0 L 70.0 130.0 M 0.0 140.0 L 70.0 140.0 Z" fill="none" stroke="#d6d6d6" stroke-width="0.75" />
<path d="M 25.041609 38.04161 L 25.104027 38.0 L 28.890621 38.0 L 32.69802 38.0 L 32.760433 38.04161 L 32.802048 38.104027 L 32.802048 39.622826 L 32.802048 41.141624 L 32.760433 41.20404 L 32.69802 41.24565 L 28.890621 41.24565 L 25.104027 41.24565 L 25.041609 41.20404 L 25.0 41.141624 L 25.0 39.622826 L 25.0 38.104027 L 25.041609 38.04161 Z" fill="#404040" stroke="none" stroke-width="0.75" /></g>
<text x='21.0' y='242.0' font-family="Default" font-size="10.0" fill="#ff0000" >5</text>
<path d="M 20.0 244.0 L 20.0 304.0 Z" fill="#000000" stroke="#000000" stroke-width="0.75" />
<path d="M 84.0 244.0 L 85.0 244.0 L 85.0 276.0 L 84.0 276.0 L 84.0 244.0 Z" fill="#000000" stroke="#000000" stroke-width="0.75" />
<path d="M 87.0 244.0 L 90.0 244.0 L 90.0 276.0 L 87.0 276.0 L 87.0 244.0 Z" fill="#000000" stroke="#000000" stroke-width="0.75" />
<path d="M 20.0 304.0 L 20.0 354.0 Z" fill="#000000" stroke="#000000" stroke-width="0.75" />
<path d="M 84.0 304.0 L 85.0 304.0 L 85.0 354.0 L 84.0 354.0 L 84.0 304.0 Z" fill="#000000" stroke="#000000" stroke-width="0.75" />
<path d="M 87.0 304.0 L 90.0 304.0 L 90.0 354.0 L 87.0 354.0 L 87.0 304.0 Z" fill="#000000" stroke="#000000" stroke-width="0.75" />
<path d="M 92.0 244.0 L 930.0 244.0 M 92.0 252.0 L 930.0 252.0 M 92.0 260.0 L 930.0 260.0 M 92.0 268.0 L 930.0 268.0 M 92.0 276.0 L 930.0 276.0 Z" fill="none" stroke="#d6d6d6" stroke-width="0.75" />
<path d="M 92.0 304.0 L 930.0 304.0 M 92.0 314.0 L 930.0 314.0 M 92.0 324.0 L 930.0 324.0 M 92.0 334.0 L 930.0 334.0 M 92.0 344.0 L 930.0 344.0 M 92.0 354.0 L 930.0 354.0 Z" fill="none" stroke="#d6d6d6" stroke-width="0.75" />
</svg>