<svg width="960.0px" height="235.0px" xmlns="http://www.w3.org/2000/svg" version="1.1">

<path d="M 0.0 0.0 L 960.0 0.0 L 960.0 235.0 L 0.0 235.0 L 0.0 0.0 Z" fill="#ffffff" stroke="none" stroke-width="1.0" /><g transform="translate(20.0,20.0)">
<path d="M 0.0 0.0 L 249.0 0.0 L 249.0 204.0 L 0.0 204.0 L 0.0 0.0 Z" fill="#ffffff" stroke="none" stroke-width="1.0" />
<path d="M 0.0 48.0 L 249.0 48.0 M 0.0 56.0 L 249.0 56.0 M 0.0 64.0 L 249.0 64.0 M 0.0 72.0 L 249.0 72.0 M 0.0 80.0 L 249.0 80.0 Z" fill="none" stroke="#d6d6d6" stroke-width="0.75" />
<path d="M 0.0 133.0 L 249.0 133.0 M 0.0 143.0 L 249.0 143.0 M 0.0 153.0 L 249.0 153.0 M 0.0 163.0 L 249.0 163.0 M 0.0 173.0 L 249.0 173.0 M 0.0 183.0 L 249.0 183.0 Z" fill="none" stroke="#d6d6d6" stroke-width="0.75" />
<path d="M 67.77043 48.40856 C 68.324905 48.40856 68.821014 48.350193 69.25876 48.20428 C 69.6965 48.058365 69.959145 48.0 70.04669 48.0 C 70.192604 48.0 70.28015 48.029182 70.36771 48.11673 C 70.42607 48.1751 70.45525 48.233463 70.484436 48.32101 C 70.484436 48.37938 70.45525 48.437744 70.42607 48.49611 L 61.933853 58.35992 L 66.924126 58.35992 L 66.924126 54.449417 C 66.924126 54.18677 67.01167 53.95331 67.1284 53.807392 C 67.3035 53.661476 67.4786 53.515564 67.71206 53.4572 C 67.97471 53.340466 68.26653 53.07782 68.64591 52.640076 C 68.937744 52.319065 69.317116 51.706226 69.75486 50.801556 C 69.81323 50.684826 69.90078 50.626457 70.01751 50.626457 C 70.28015 50.626457 70.39688 50.772373 70.42607 51.03502 L 70.42607 58.35992 L 72.55642 58.35992 C 72.84825 58.35992 72.99416 58.505836 73.023346 58.797665 C 73.023346 59.089493 72.877426 59.235405 72.55642 59.235405 L 70.42607 59.235405 L 70.42607 59.468872 C 70.42607 60.28599 70.63035 60.928013 71.00973 61.45331 C 71.44747 61.9786 71.97276 62.270428 72.5856 62.270428 C 72.81906 62.270428 72.9358 62.387157 72.9358 62.62062 C 72.9358 62.854084 72.81906 62.970818 72.5856 62.970818 C 72.14786 62.970818 71.50584 62.91245 70.601166 62.79572 C 69.696495 62.649803 69.054474 62.59144 68.64591 62.59144 C 68.23735 62.59144 67.56615 62.649803 66.69066 62.79572 C 65.81517 62.91245 65.17315 62.970818 64.735405 62.970818 C 64.501945 62.970818 64.385216 62.854084 64.385216 62.62062 C 64.385216 62.387157 64.501945 62.270428 64.735405 62.270428 C 65.34825 62.270428 65.87354 61.9786 66.31128 61.45331 C 66.71984 60.89883 66.924126 60.25681 66.924126 59.468872 L 66.924126 59.235405 L 61.933853 59.235405 C 61.61284 59.235405 61.379375 59.17704 61.233463 59.001945 C 61.087547 58.885212 61.0 58.710114 61.0 58.53502 C 61.0 58.476654 61.145912 58.272373 61.437744 57.92218 C 61.729572 57.571983 62.079765 57.105057 62.488327 56.492218 C 62.488327 56.492218 63.305447 55.20817 63.71401 54.449417 C 63.71401 54.449417 64.47276 52.78599 64.735405 51.706226 C 65.02724 50.65564 65.17315 49.575874 65.17315 48.49611 C 65.17315 48.175095 65.31907 48.029182 65.58171 48.029182 C 65.61089 48.029182 65.756805 48.058365 65.96109 48.11673 C 66.16537 48.175095 66.4572 48.233463 66.77821 48.32101 C 67.1284 48.379375 67.44942 48.408558 67.77043 48.408558 Z" fill="#000000" stroke="none" stroke-width="0.75" />
<path d="M 67.77043 65.40856 C 68.324905 65.40856 68.821014 65.3502 69.25876 65.20428 C 69.6965 65.058365 69.959145 65.0 70.04669 65.0 C 70.192604 65.0 70.28015 65.02918 70.36771 65.11673 C 70.42607 65.175095 70.45525 65.23346 70.484436 65.321014 C 70.484436 65.37938 70.45525 65.437744 70.42607 65.49611 L 61.933853 75.359924 L 66.924126 75.359924 L 66.924126 71.44942 C 66.924126 71.18677 67.01167 70.95331 67.1284 70.807396 C 67.3035 70.661476 67.4786 70.515564 67.71206 70.4572 C 67.97471 70.34047 68.26653 70.07782 68.64591 69.640076 C 68.937744 69.31907 69.317116 68.70622 69.75486 67.80156 C 69.81323 67.68482 69.90078 67.62646 70.01751 67.62646 C 70.28015 67.62646 70.39688 67.77237 70.42607 68.03502 L 70.42607 75.359924 L 72.55642 75.359924 C 72.84825 75.359924 72.99416 75.50584 73.023346 75.79767 C 73.023346 76.08949 72.877426 76.235405 72.55642 76.235405 L 70.42607 76.235405 L 70.42607 76.46887 C 70.42607 77.28599 70.63035 77.92802 71.00973 78.45331 C 71.44747 78.9786 71.97276 79.270424 72.5856 79.270424 C 72.81906 79.270424 72.9358 79.38716 72.9358 79.62062 C 72.9358 79.85408 72.81906 79.97082 72.5856 79.97082 C 72.14786 79.97082 71.50584 79.91245 70.601166 79.795715 C 69.696495 79.6498 69.054474 79.59144 68.64591 79.59144 C 68.23735 79.59144 67.56615 79.6498 66.69066 79.795715 C 65.81517 79.91245 65.17315 79.97082 64.735405 79.97082 C 64.501945 79.97082 64.385216 79.85408 64.385216 79.62062 C 64.385216 79.38716 64.501945 79.270424 64.735405 79.270424 C 65.34825 79.270424 65.87354 78.9786 66.31128 78.45331 C 66.71984 77.898834 66.924126 77.256805 66.924126 76.46887 L 66.924126 76.235405 L 61.933853 76.235405 C 61.61284 76.235405 61.379375 76.17704 61.233463 76.001945 C 61.087547 75.88521 61.0 75.71011 61.0 75.53502 C 61.0 75.476654 61.145912 75.27237 61.437744 74.92218 C 61.729572 74.57198 62.079765 74.10506 62.488327 73.49222 C 62.488327 73.49222 63.305447 72.20817 63.71401 71.44942 C 63.71401 71.44942 64.47276 69.78599 64.735405 68.70622 C 65.02724 67.65564 65.17315 66.575874 65.17315 65.49611 C 65.17315 65.175095 65.31907 65.02918 65.58171 65.02918 C 65.61089 65.02918 65.756805 65.058365 65.96109 65.11673 C 66.16537 65.175095 66.4572 65.23346 66.77821 65.321014 C 67.1284 65.37938 67.44942 65.40856 67.77043 65.40856 Z" fill="#000000" stroke="none" stroke-width="0.75" />
<path d="M 22.764973 40.115383 C 22.921913 40.03691 22.948072 40.03691 23.105015 40.03691 C 23.314268 40.063072 23.445057 40.14154 23.73278 40.455425 C 25.616081 42.39104 27.185501 45.843758 27.577856 48.773342 C 27.630169 49.244167 27.630169 50.34276 27.577856 50.839737 C 27.29013 53.533905 26.165377 55.99266 23.57584 59.52385 L 23.209644 60.020832 L 23.418898 60.62244 C 23.915882 62.061073 24.491331 63.81359 24.85753 65.09528 C 24.96216 65.409164 25.04063 65.67074 25.04063 65.6969 C 25.04063 65.6969 25.223728 65.6969 25.406826 65.72305 C 26.322319 65.80152 27.10703 66.01078 27.917896 66.40313 C 28.57182 66.74317 29.147274 67.13552 29.696568 67.65866 C 30.29818 68.26028 30.690535 68.80957 31.05673 69.56812 C 31.606026 70.66672 31.84144 71.81762 31.81528 72.96853 C 31.789125 73.70093 31.684496 74.25022 31.449085 74.930305 C 31.1352 75.92426 30.559748 76.83976 29.77504 77.624466 C 29.094955 78.30455 28.46719 78.72306 27.630169 79.0631 L 27.316284 79.193886 L 27.316284 80.13554 C 27.316284 81.46954 27.237814 83.038956 27.133184 83.980606 C 27.02856 84.94841 26.766989 85.86391 26.348476 86.700935 C 25.249886 88.92427 23.314268 90.10133 21.143244 89.89209 C 18.684484 89.65667 16.69656 87.98262 16.199577 85.73312 C 15.964161 84.713 16.068794 83.9283 16.487303 83.27437 C 17.036598 82.411194 18.082878 81.914215 19.102997 81.94037 C 20.30622 81.99268 21.274027 82.934326 21.457123 84.24218 C 21.58791 85.28845 21.143244 86.25626 20.30622 86.7794 C 19.835394 87.06713 19.181469 87.197914 18.684484 87.119446 C 18.606018 87.119446 18.527544 87.093285 18.527544 87.119446 L 18.84143 87.43333 C 19.416882 88.00878 20.070807 88.374985 20.907831 88.558075 C 21.090927 88.584236 21.247868 88.584236 21.666382 88.584236 C 22.137207 88.584236 22.189518 88.584236 22.451088 88.53192 C 22.81729 88.42729 23.131172 88.29651 23.418898 88.139565 C 24.726748 87.35486 25.616081 85.73312 25.851494 83.77136 C 25.929964 83.038956 26.008434 81.46954 26.008434 80.318634 C 26.008434 79.56009 26.008434 79.50777 25.956123 79.50777 C 25.851494 79.56009 25.302197 79.6124 24.909843 79.63855 C 24.41286 79.66471 23.57584 79.66471 23.183485 79.6124 C 21.640223 79.4293 20.227747 78.90616 18.998373 78.04298 C 17.167385 76.76129 15.859535 74.85182 15.31024 72.65465 C 14.604002 69.908165 15.100986 66.978584 16.827343 63.89206 C 17.55974 62.610374 18.265978 61.564095 20.018494 59.236122 L 21.012455 57.902122 L 20.829355 57.405136 C 19.573822 54.083202 19.15531 52.173744 19.024527 49.401108 C 18.972214 48.197887 19.024527 47.17776 19.181469 46.34074 C 19.573822 44.14356 20.593945 42.181786 22.189518 40.612366 C 22.503403 40.298485 22.63419 40.193855 22.764973 40.115383 M 24.831371 44.588226 C 24.569805 44.14356 24.622118 44.169712 24.386707 44.32666 C 23.65431 44.771324 22.89576 45.451405 22.34646 46.131485 C 21.221714 47.57012 20.593945 49.244167 20.515476 51.048996 C 20.489319 51.78139 20.56779 52.252216 20.907831 53.37696 C 21.169397 54.292458 21.901793 56.5158 21.95411 56.56811 C 21.95411 56.59427 22.111048 56.411175 22.26799 56.17576 C 24.072823 53.58622 25.04063 51.467506 25.406826 49.348793 C 25.485298 48.799496 25.53761 48.354828 25.563768 47.727062 C 25.589928 46.28843 25.432985 45.58219 24.831371 44.588226 M 22.581877 62.191864 C 22.424934 61.694878 22.26799 61.302525 22.26799 61.302525 C 22.241835 61.302525 21.143244 62.76731 20.672415 63.421238 C 19.129156 65.59227 18.187506 67.34478 17.638206 69.07114 C 17.27201 70.14357 17.115068 71.13754 17.062756 72.23613 C 17.062756 72.837746 17.088915 73.20394 17.193539 73.648605 C 17.795153 75.97658 20.280064 77.88603 23.209644 78.30455 C 23.65431 78.35686 24.909843 78.35686 25.459139 78.30455 C 26.008434 78.226074 25.956123 78.252235 25.929964 78.01682 C 25.773026 75.531906 25.563768 74.0148 25.14526 71.765305 C 24.988314 70.823654 24.543648 68.835724 24.517488 68.80957 C 24.491331 68.78342 23.99435 68.835724 23.706627 68.9142 C 23.340427 68.99267 23.105015 69.07114 22.79113 69.22808 C 21.090927 70.09126 20.593945 72.05304 21.666382 73.648605 C 21.849482 73.91018 22.320305 74.381004 22.608032 74.5641 C 22.71266 74.64258 22.948072 74.799515 23.105015 74.87799 C 23.340427 75.00877 23.392738 75.06108 23.445057 75.16571 C 23.65431 75.50575 23.523525 75.92426 23.131172 76.10736 C 22.921913 76.21199 22.764973 76.18584 22.34646 75.97658 C 21.326344 75.4796 20.56779 74.799515 20.018494 73.962494 C 18.998373 72.393074 18.867586 70.37899 19.70461 68.67879 C 20.437006 67.214 21.744852 66.22003 23.418898 65.853836 C 23.57584 65.80152 23.706627 65.77537 23.706627 65.77537 C 23.73278 65.74921 23.000385 63.368923 22.581877 62.191864 M 26.139221 68.94036 C 26.060753 68.94036 25.98228 68.9142 25.956123 68.9142 L 25.877651 68.88804 L 26.008434 69.43734 C 26.610046 72.07919 27.054714 74.95645 27.211655 77.38905 C 27.237814 77.65063 27.237814 77.85988 27.237814 77.85988 C 27.263973 77.85988 27.60401 77.70294 27.78711 77.57216 C 28.231777 77.31058 28.65029 76.91823 28.99033 76.47356 C 29.801197 75.40112 30.08892 74.06712 29.77504 72.706955 C 29.539627 71.60837 28.911861 70.58824 28.022522 69.882 C 27.473227 69.46349 26.740831 69.0973 26.139221 68.94036 Z" fill="#000000" stroke="none" stroke-width="0.75" />
<path d="M 93.46439 41.63119 C 93.59136 41.55864 93.79088 41.613052 93.863434 41.7763 C 93.89971 41.84885 93.89971 41.903263 93.89971 43.172935 C 93.89971 43.916603 93.89971 44.515163 93.91785 44.515163 C 93.91785 44.515163 94.08109 44.442608 94.28061 44.370056 C 94.69779 44.206814 94.752205 44.188675 94.86103 44.279366 C 94.988 44.370056 94.988 44.388195 94.988 45.113724 C 94.988 45.73042 94.988 45.784836 94.95172 45.83925 C 94.933586 45.875526 94.89731 45.911804 94.87917 45.92994 C 94.842896 45.94808 94.62524 46.056908 94.3713 46.1476 L 93.91785 46.34712 L 93.89971 47.81631 C 93.89971 48.61439 93.89971 49.285503 93.91785 49.285503 C 93.91785 49.285503 94.08109 49.21295 94.28061 49.1404 C 94.69779 48.977154 94.752205 48.95902 94.86103 49.04971 C 94.988 49.1404 94.988 49.15854 94.988 49.884064 C 94.988 50.500763 94.988 50.555176 94.95172 50.609592 C 94.933586 50.64587 94.89731 50.682144 94.87917 50.700283 C 94.842896 50.718422 94.62524 50.82725 94.3713 50.917942 L 93.91785 51.117462 L 93.89971 52.641068 C 93.89971 54.01957 93.88157 54.18281 93.863434 54.23723 C 93.736465 54.454887 93.428116 54.454887 93.30115 54.23723 C 93.28301 54.18281 93.26487 54.03771 93.26487 52.768036 L 93.26487 51.371395 L 92.48493 51.679745 L 91.72313 51.988094 L 91.72313 53.457287 C 91.72313 55.01717 91.72313 54.980892 91.63244 55.071587 C 91.59616 55.126 91.46919 55.180412 91.41478 55.180412 C 91.342224 55.180412 91.215256 55.126 91.178986 55.071587 C 91.08829 54.980892 91.08829 55.01717 91.08829 53.60239 C 91.08829 52.858727 91.08829 52.260166 91.07015 52.260166 C 91.07015 52.260166 90.906906 52.332718 90.70739 52.405273 C 90.290215 52.568516 90.235794 52.586655 90.12697 52.495964 C 90.0 52.405273 90.0 52.387135 90.0 51.661606 C 90.0 51.044907 90.0 50.990494 90.03628 50.936077 C 90.05441 50.899803 90.09069 50.863525 90.108826 50.845387 C 90.1451 50.82725 90.36276 50.718422 90.6167 50.62773 L 91.08829 50.42821 L 91.08829 48.95902 C 91.08829 48.16094 91.08829 47.489826 91.07015 47.489826 C 91.07015 47.489826 90.906906 47.562378 90.70739 47.63493 C 90.290215 47.798172 90.235794 47.81631 90.12697 47.72562 C 90.0 47.63493 90.0 47.61679 90.0 46.891266 C 90.0 46.274567 90.0 46.22015 90.03628 46.165737 C 90.05441 46.12946 90.09069 46.093185 90.108826 46.075047 C 90.1451 46.056908 90.36276 45.94808 90.6167 45.857388 L 91.08829 45.657867 L 91.08829 44.134262 C 91.08829 42.75576 91.10643 42.592514 91.124565 42.5381 C 91.25153 42.320442 91.55988 42.320442 91.68685 42.5381 C 91.70499 42.592514 91.72313 42.73762 91.72313 44.007294 L 91.741264 45.403934 L 92.50307 45.095585 L 93.26487 44.787235 L 93.26487 43.318043 C 93.26487 41.93954 93.26487 41.84885 93.30115 41.7763 C 93.337425 41.703743 93.3737 41.667465 93.46439 41.63119 M 93.26487 48.070248 L 93.26487 46.601055 L 92.48493 46.9094 L 91.72313 47.21775 L 91.72313 48.705082 L 91.72313 50.174274 L 91.77754 50.156136 C 91.81382 50.138 92.15845 49.992893 92.55749 49.84779 L 93.26487 49.55758 L 93.26487 48.070248 Z" fill="#404040" stroke="none" stroke-width="0.75" />
<path d="M 95.52 49.232 C 95.52 50.456 96.715195 51.68 97.895996 51.68 C 101.495995 51.68 105.09599 49.232 105.09599 46.856 C 105.09599 45.6752 103.871994 44.48 102.71999 44.48 C 99.119995 44.48 95.52 46.856 95.52 49.232 Z" fill="#404040" stroke="none" stroke-width="1.0" />
<path d="M 108.0 48.0 M 106.8 48.0 a 1.2 1.2 0 1 0 2.4 0 1.2 1.2 0 1 0 -2.4 0 Z" fill="#404040" stroke="none" stroke-width="0.75" />
<path d="M 94.0 139.25 L 102.0 139.25 L 102.0 146.75 L 94.0 146.75 L 94.0 139.25 Z" fill="#ffffff" stroke="none" stroke-width="0.75" />
<text x='94.0' y='146.75' font-family="Default" font-size="10.0" fill="#404040" >7</text>
<path d="M 95.52 53.232 C 95.52 54.456 96.715195 55.68 97.895996 55.68 C 101.495995 55.68 105.09599 53.232 105.09599 50.856 C 105.09599 49.6752 103.871994 48.48 102.71999 48.48 C 99.119995 48.48 95.52 50.856 95.52 53.232 Z" fill="#404040" stroke="none" stroke-width="1.0" />
<path d="M 108.0 52.0 M 106.8 52.0 a 1.2 1.2 0 1 0 2.4 0 1.2 1.2 0 1 0 -2.4 0 Z" fill="#404040" stroke="none" stroke-width="0.75" />
<path d="M 94.0 149.25 L 102.0 149.25 L 102.0 156.75 L 94.0 156.75 L 94.0 149.25 Z" fill="#ffffff" stroke="none" stroke-width="0.75" />
<text x='94.0' y='156.75' font-family="Default" font-size="10.0" fill="#404040" >9</text>
<path d="M 103.0 153.0 L 104.0 153.0 C 104.0 153.0 106.0 153.0 106.0 151.0 M 106.0 151.0 L 106.0 113.0 M 106.0 113.0 L 104.0 115.0 M 106.0 113.0 L 108.0 115.0 Z" fill="none" stroke="#404040" stroke-width="1.0" />
<text x='106.0' y='112.5' font-family="Default" font-size="10.0" fill="#404040" >1</text>
<path d="M 95.5 48.96 L 96.5 48.96 L 96.5 83.0 L 95.5 83.0 M 95.5 48.96 Z" fill="#404040" stroke="none" stroke-width="0.75" />
<path d="M 95.5 81.0 L 95.5 85.0 L 116.5 85.0 L 116.5 81.0 L 95.5 81.0 Z" fill="#404040" stroke="none" stroke-width="0.75" />
<path d="M 115.52 49.232 C 115.52 50.456 116.715195 51.68 117.895996 51.68 C 121.495995 51.68 125.09599 49.232 125.09599 46.856 C 125.09599 45.6752 123.871994 44.48 122.71999 44.48 C 119.119995 44.48 115.52 46.856 115.52 49.232 Z" fill="#404040" stroke="none" stroke-width="1.0" />
<path d="M 128.0 48.0 M 126.8 48.0 a 1.2 1.2 0 1 0 2.4 0 1.2 1.2 0 1 0 -2.4 0 Z" fill="#404040" stroke="none" stroke-width="0.75" />
<path d="M 114.0 139.25 L 122.0 139.25 L 122.0 146.75 L 114.0 146.75 L 114.0 139.25 Z" fill="#ffffff" stroke="none" stroke-width="0.75" />
<text x='114.0' y='146.75' font-family="Default" font-size="10.0" fill="#404040" >7</text>
<path d="M 115.52 53.232 C 115.52 54.456 116.715195 55.68 117.895996 55.68 C 121.495995 55.68 125.09599 53.232 125.09599 50.856 C 125.09599 49.6752 123.871994 48.48 122.71999 48.48 C 119.119995 48.48 115.52 50.856 115.52 53.232 Z" fill="#404040" stroke="none" stroke-width="1.0" />
<path d="M 128.0 52.0 M 126.8 52.0 a 1.2 1.2 0 1 0 2.4 0 1.2 1.2 0 1 0 -2.4 0 Z" fill="#404040" stroke="none" stroke-width="0.75" />
<path d="M 114.0 149.25 L 122.0 149.25 L 122.0 156.75 L 114.0 156.75 L 114.0 149.25 Z" fill="#ffffff" stroke="none" stroke-width="0.75" />
<text x='114.0' y='156.75' font-family="Default" font-size="10.0" fill="#404040" >9</text>
<path d="M 123.0 153.0 L 124.0 153.0 C 124.0 153.0 126.0 153.0 126.0 151.0 M 126.0 151.0 L 126.0 113.0 M 126.0 113.0 L 124.0 115.0 M 126.0 113.0 L 128.0 115.0 Z" fill="none" stroke="#404040" stroke-width="1.0" />
<text x='126.0' y='112.5' font-family="Default" font-size="10.0" fill="#404040" >1</text>
<path d="M 115.5 48.96 L 116.5 48.96 L 116.5 83.0 L 115.5 83.0 M 115.5 48.96 Z" fill="#404040" stroke="none" stroke-width="0.75" />
<path d="M 135.52 49.232 C 135.52 50.456 136.71521 51.68 137.89601 51.68 C 141.496 51.68 145.09601 49.232 145.09601 46.856 C 145.09601 45.6752 143.87201 44.48 142.72 44.48 C 139.12001 44.48 135.52 46.856 135.52 49.232 Z" fill="#404040" stroke="none" stroke-width="1.0" />
<path d="M 148.0 48.0 M 146.8 48.0 a 1.2 1.2 0 1 0 2.4 0 1.2 1.2 0 1 0 -2.4 0 Z" fill="#404040" stroke="none" stroke-width="0.75" />
<path d="M 134.0 139.25 L 142.0 139.25 L 142.0 146.75 L 134.0 146.75 L 134.0 139.25 Z" fill="#ffffff" stroke="none" stroke-width="0.75" />
<text x='134.0' y='146.75' font-family="Default" font-size="10.0" fill="#404040" >7</text>
<path d="M 135.52 53.232 C 135.52 54.456 136.71521 55.68 137.89601 55.68 C 141.496 55.68 145.09601 53.232 145.09601 50.856 C 145.09601 49.6752 143.87201 48.48 142.72 48.48 C 139.12001 48.48 135.52 50.856 135.52 53.232 Z" fill="#404040" stroke="none" stroke-width="1.0" />
<path d="M 148.0 52.0 M 146.8 52.0 a 1.2 1.2 0 1 0 2.4 0 1.2 1.2 0 1 0 -2.4 0 Z" fill="#404040" stroke="none" stroke-width="0.75" />
<path d="M 134.0 149.25 L 142.0 149.25 L 142.0 156.75 L 134.0 156.75 L 134.0 149.25 Z" fill="#ffffff" stroke="none" stroke-width="0.75" />
<text x='134.0' y='156.75' font-family="Default" font-size="10.0" fill="#404040" >9</text>
<path d="M 143.0 153.0 L 144.0 153.0 C 144.0 153.0 146.0 153.0 146.0 151.0 M 146.0 151.0 L 146.0 113.0 M 146.0 113.0 L 144.0 115.0 M 146.0 113.0 L 148.0 115.0 Z" fill="none" stroke="#404040" stroke-width="1.0" />
<text x='146.0' y='112.5' font-family="Default" font-size="10.0" fill="#404040" >1</text>
<path d="M 135.5 48.96 L 136.5 48.96 L 136.5 83.0 L 135.5 83.0 M 135.5 48.96 Z" fill="#404040" stroke="none" stroke-width="0.75" />
<path d="M 140.65 67.05 C 140.775 67.0 141.05 67.05 141.15 67.1 C 141.3 67.2 141.35 67.25 141.5 67.525 C 142.025 68.5 142.45 69.7 142.625 70.7 C 142.975 72.675 142.725 74.125 141.725 75.775 C 141.275 76.55 140.725 77.25 139.5 78.625 C 138.225 80.1 137.825 80.625 137.325 81.325 C 136.825 82.1 136.475 82.825 136.25 83.55 C 136.125 84.0 136.025 84.675 136.025 85.05 L 136.025 85.175 L 135.775 85.175 L 135.5 85.175 L 135.5 82.05 L 135.5 78.925 L 135.775 78.925 L 136.05 78.925 L 136.7 78.475 C 138.55 77.25 139.675 76.25 140.475 75.175 C 141.45 73.85 141.725 72.75 141.45 71.1 C 141.275 70.05 140.85 68.975 140.3 68.025 C 140.175 67.85 140.15 67.775 140.15 67.7 C 140.15 67.4 140.35 67.15 140.65 67.05 Z" fill="#404040" stroke="none" stroke-width="0.75" />
<path d="M 155.52 53.232 C 155.52 54.456 156.71521 55.68 157.89601 55.68 C 161.496 55.68 165.09601 53.232 165.09601 50.856 C 165.09601 49.6752 163.87201 48.48 162.72 48.48 C 159.12001 48.48 155.52 50.856 155.52 53.232 Z" fill="#404040" stroke="none" stroke-width="1.0" />
<path d="M 154.0 149.25 L 162.0 149.25 L 162.0 156.75 L 154.0 156.75 L 154.0 149.25 Z" fill="#ffffff" stroke="none" stroke-width="1.0" />
<text x='154.0' y='156.75' font-family="Default" font-size="10.0" fill="#404040" >9</text>
<path d="M 155.5 52.96 L 156.5 52.96 L 156.5 83.0 L 155.5 83.0 M 155.5 52.96 Z" fill="#404040" stroke="none" stroke-width="0.75" />
<path d="M 155.5 81.0 L 155.5 85.0 L 175.5 87.0 L 175.5 83.0 L 155.5 81.0 M 155.5 75.0 L 155.5 79.0 L 175.5 81.0 L 175.5 77.0 L 155.5 75.0 Z" fill="#404040" stroke="none" stroke-width="0.75" />
<path d="M 174.52 53.232 C 174.52 54.456 175.71521 55.68 176.89601 55.68 C 180.496 55.68 184.09601 53.232 184.09601 50.856 C 184.09601 49.6752 182.87201 48.48 181.72 48.48 C 178.12001 48.48 174.52 50.856 174.52 53.232 Z" fill="#404040" stroke="none" stroke-width="1.0" />
<path d="M 173.0 149.25 L 181.0 149.25 L 181.0 156.75 L 173.0 156.75 L 173.0 149.25 Z" fill="#ffffff" stroke="none" stroke-width="1.0" />
<text x='173.0' y='156.75' font-family="Default" font-size="10.0" fill="#404040" >9</text>
<path d="M 174.5 52.96 L 175.5 52.96 L 175.5 85.0 L 174.5 85.0 M 174.5 52.96 Z" fill="#404040" stroke="none" stroke-width="0.75" />
<path d="M 174.5 83.0 L 174.5 87.0 L 194.5 89.0 L 194.5 85.0 L 174.5 83.0 M 174.5 77.0 L 174.5 81.0 L 194.5 83.0 L 194.5 79.0 L 174.5 77.0 Z" fill="#404040" stroke="none" stroke-width="0.75" />
<path d="M 193.52 57.232 C 193.52 58.456 194.71521 59.68 195.89601 59.68 C 199.496 59.68 203.09601 57.232 203.09601 54.856 C 203.09601 53.6752 201.87201 52.48 200.72 52.48 C 197.12001 52.48 193.52 54.856 193.52 57.232 Z" fill="#404040" stroke="none" stroke-width="1.0" />
<path d="M 192.0 149.25 L 200.0 149.25 L 200.0 156.75 L 192.0 156.75 L 192.0 149.25 Z" fill="#ffffff" stroke="none" stroke-width="1.0" />
<text x='192.0' y='156.75' font-family="Default" font-size="10.0" fill="#404040" >7</text>
<path d="M 193.5 56.96 L 194.5 56.96 L 194.5 87.0 L 193.5 87.0 M 193.5 56.96 Z" fill="#404040" stroke="none" stroke-width="0.75" />
<path d="M 212.52 65.232 C 212.52 66.456 213.71521 67.68 214.89601 67.68 C 218.496 67.68 222.09601 65.232 222.09601 62.856 C 222.09601 61.6752 220.87201 60.48 219.72 60.48 C 216.12001 60.48 212.52 62.856 212.52 65.232 Z" fill="#404040" stroke="none" stroke-width="1.0" />
<path d="M 211.0 159.25 L 219.0 159.25 L 219.0 166.75 L 211.0 166.75 L 211.0 159.25 Z" fill="#ffffff" stroke="none" stroke-width="1.0" />
<text x='211.0' y='166.75' font-family="Default" font-size="10.0" fill="#404040" >9</text>
<path d="M 212.5 64.96 L 213.5 64.96 L 213.5 95.0 L 212.5 95.0 M 212.5 64.96 Z" fill="#404040" stroke="none" stroke-width="0.75" /></g>
<path d="M 35.35 54.3 C 35.35 55.15 36.18 56.0 37.0 56.0 C 39.5 56.0 42.0 54.3 42.0 52.65 C 42.0 51.83 41.149998 51.0 40.35 51.0 C 37.85 51.0 35.35 52.65 35.35 54.3 Z" fill="#000000" stroke="none" stroke-width="1.0" />
<path d="M 42.0 38.0 L 42.0 52.7 Z" fill="none" stroke="#000000" stroke-width="1.0" />
<text x='43.0' y='54.25' font-family="Default" font-size="10.0" fill="#000000" > = 81</text>
<text x='21.0' y='66.0' font-family="Default" font-size="10.0" fill="#ff0000" >1</text>
<path d="M 20.0 68.0 L 23.0 68.0 L 23.0 153.0 L 20.0 153.0 L 20.0 68.0 Z" fill="#000000" stroke="#000000" stroke-width="0.75" />
<path d="M 25.0 68.0 L 26.0 68.0 L 26.0 153.0 L 25.0 153.0 L 25.0 68.0 Z" fill="#000000" stroke="#000000" stroke-width="0.75" />
<path d="M 269.0 68.0 L 269.0 100.0 Z" fill="#000000" stroke="#000000" stroke-width="0.75" />
<path d="M 20.0 153.0 L 23.0 153.0 L 23.0 203.0 L 20.0 203.0 L 20.0 153.0 Z" fill="#000000" stroke="#000000" stroke-width="0.75" />
<path d="M 25.0 153.0 L 26.0 153.0 L 26.0 203.0 L 25.0 203.0 L 25.0 153.0 Z" fill="#000000" stroke="#000000" stroke-width="0.75" />
<path d="M 269.0 153.0 L 269.0 203.0 Z" fill="#000000" stroke="#000000" stroke-width="0.75" /><g transform="translate(269.0,20.0)">
<path d="M 0.0 0.0 L 197.0 0.0 L 197.0 204.0 L 0.0 204.0 L 0.0 0.0 Z" fill="#ffffff" stroke="none" stroke-width="1.0" />
<path d="M 0.0 48.0 L 197.0 48.0 M 0.0 56.0 L 197.0 56.0 M 0.0 64.0 L 197.0 64.0 M 0.0 72.0 L 197.0 72.0 M 0.0 80.0 L 197.0 80.0 Z" fill="none" stroke="#d6d6d6" stroke-width="0.75" />
<path d="M 0.0 133.0 L 197.0 133.0 M 0.0 143.0 L 197.0 143.0 M 0.0 153.0 L 197.0 153.0 M 0.0 163.0 L 197.0 163.0 M 0.0 173.0 L 197.0 173.0 M 0.0 183.0 L 197.0 183.0 Z" fill="none" stroke="#d6d6d6" stroke-width="0.75" />
<path d="M 24.52 57.232 C 24.52 58.456 25.7152 59.68 26.896 59.68 C 30.496 59.68 34.096 57.232 34.096 54.856 C 34.096 53.6752 32.872 52.48 31.720001 52.48 C 28.12 52.48 24.52 54.856 24.52 57.232 Z" fill="#404040" stroke="none" stroke-width="1.0" />
<path d="M 37.0 56.0 M 35.8 56.0 a 1.2 1.2 0 1 0 2.4 0 1.2 1.2 0 1 0 -2.4 0 Z" fill="#404040" stroke="none" stroke-width="0.75" />
<path d="M 23.0 149.25 L 31.0 149.25 L 31.0 156.75 L 23.0 156.75 L 23.0 149.25 Z" fill="#ffffff" stroke="none" stroke-width="0.75" />
<text x='23.0' y='156.75' font-family="Default" font-size="10.0" fill="#404040" >7</text>
<path d="M 24.5 56.96 L 25.5 56.96 L 25.5 87.0 L 24.5 87.0 M 24.5 56.96 Z" fill="#404040" stroke="none" stroke-width="0.75" />
<path d="M 24.5 85.0 L 24.5 89.0 L 45.5 85.0 L 45.5 81.0 L 24.5 85.0 Z" fill="#404040" stroke="none" stroke-width="0.75" />
<path d="M 44.52 53.232 C 44.52 54.456 45.715202 55.68 46.896 55.68 C 50.496002 55.68 54.096 53.232 54.096 50.856 C 54.096 49.6752 52.872 48.48 51.72 48.48 C 48.12 48.48 44.52 50.856 44.52 53.232 Z" fill="#404040" stroke="none" stroke-width="1.0" />
<path d="M 57.0 52.0 M 55.8 52.0 a 1.2 1.2 0 1 0 2.4 0 1.2 1.2 0 1 0 -2.4 0 Z" fill="#404040" stroke="none" stroke-width="0.75" />
<path d="M 43.0 149.25 L 51.0 149.25 L 51.0 156.75 L 43.0 156.75 L 43.0 149.25 Z" fill="#ffffff" stroke="none" stroke-width="0.75" />
<text x='43.0' y='156.75' font-family="Default" font-size="10.0" fill="#404040" >9</text>
<path d="M 44.5 52.96 L 45.5 52.96 L 45.5 83.0 L 44.5 83.0 M 44.5 52.96 Z" fill="#404040" stroke="none" stroke-width="0.75" />
<path d="M 62.464394 41.63119 C 62.591362 41.55864 62.790882 41.613052 62.863434 41.7763 C 62.899708 41.84885 62.899708 41.903263 62.899708 43.172935 C 62.899708 43.916603 62.899708 44.515163 62.917847 44.515163 C 62.917847 44.515163 63.081093 44.442608 63.28061 44.370056 C 63.69779 44.206814 63.752205 44.188675 63.861034 44.279366 C 63.988 44.370056 63.988 44.388195 63.988 45.113724 C 63.988 45.73042 63.988 45.784836 63.951725 45.83925 C 63.933586 45.875526 63.89731 45.911804 63.879173 45.92994 C 63.842896 45.94808 63.625237 46.056908 63.371304 46.1476 L 62.917847 46.34712 L 62.899708 47.81631 C 62.899708 48.61439 62.899708 49.285503 62.917847 49.285503 C 62.917847 49.285503 63.081093 49.21295 63.28061 49.1404 C 63.69779 48.977154 63.752205 48.95902 63.861034 49.04971 C 63.988 49.1404 63.988 49.15854 63.988 49.884064 C 63.988 50.500763 63.988 50.555176 63.951725 50.609592 C 63.933586 50.64587 63.89731 50.682144 63.879173 50.700283 C 63.842896 50.718422 63.625237 50.82725 63.371304 50.917942 L 62.917847 51.117462 L 62.899708 52.641068 C 62.899708 54.01957 62.881573 54.18281 62.863434 54.23723 C 62.736465 54.454887 62.428116 54.454887 62.30115 54.23723 C 62.283012 54.18281 62.264874 54.03771 62.264874 52.768036 L 62.264874 51.371395 L 61.484932 51.679745 L 60.72313 51.988094 L 60.72313 53.457287 C 60.72313 55.01717 60.72313 54.980892 60.632435 55.071587 C 60.59616 55.126 60.469193 55.180412 60.41478 55.180412 C 60.342224 55.180412 60.21526 55.126 60.17898 55.071587 C 60.08829 54.980892 60.08829 55.01717 60.08829 53.60239 C 60.08829 52.858727 60.08829 52.260166 60.070152 52.260166 C 60.070152 52.260166 59.90691 52.332718 59.70739 52.405273 C 59.29021 52.568516 59.235798 52.586655 59.12697 52.495964 C 59.0 52.405273 59.0 52.387135 59.0 51.661606 C 59.0 51.044907 59.0 50.990494 59.036278 50.936077 C 59.054413 50.899803 59.09069 50.863525 59.10883 50.845387 C 59.145107 50.82725 59.362762 50.718422 59.6167 50.62773 L 60.08829 50.42821 L 60.08829 48.95902 C 60.08829 48.16094 60.08829 47.489826 60.070152 47.489826 C 60.070152 47.489826 59.90691 47.562378 59.70739 47.63493 C 59.29021 47.798172 59.235798 47.81631 59.12697 47.72562 C 59.0 47.63493 59.0 47.61679 59.0 46.891266 C 59.0 46.274567 59.0 46.22015 59.036278 46.165737 C 59.054413 46.12946 59.09069 46.093185 59.10883 46.075047 C 59.145107 46.056908 59.362762 45.94808 59.6167 45.857388 L 60.08829 45.657867 L 60.08829 44.134262 C 60.08829 42.75576 60.10643 42.592514 60.12457 42.5381 C 60.251534 42.320442 60.559883 42.320442 60.68685 42.5381 C 60.70499 42.592514 60.72313 42.73762 60.72313 44.007294 L 60.741264 45.403934 L 61.50307 45.095585 L 62.264874 44.787235 L 62.264874 43.318043 C 62.264874 41.93954 62.264874 41.84885 62.30115 41.7763 C 62.337425 41.703743 62.373703 41.667465 62.464394 41.63119 M 62.264874 48.070248 L 62.264874 46.601055 L 61.484932 46.9094 L 60.72313 47.21775 L 60.72313 48.705082 L 60.72313 50.174274 L 60.777542 50.156136 C 60.81382 50.138 61.158443 49.992893 61.557484 49.84779 L 62.264874 49.55758 L 62.264874 48.070248 Z" fill="#404040" stroke="none" stroke-width="0.75" />
<path d="M 64.52 49.232 C 64.52 50.456 65.715195 51.68 66.895996 51.68 C 70.495995 51.68 74.09599 49.232 74.09599 46.856 C 74.09599 45.6752 72.871994 44.48 71.71999 44.48 C 68.119995 44.48 64.52 46.856 64.52 49.232 Z" fill="#404040" stroke="none" stroke-width="1.0" />
<path d="M 63.0 139.25 L 71.0 139.25 L 71.0 146.75 L 63.0 146.75 L 63.0 139.25 Z" fill="#ffffff" stroke="none" stroke-width="1.0" />
<text x='63.0' y='146.75' font-family="Default" font-size="10.0" fill="#404040" >7</text>
<path d="M 72.0 146.0 L 81.0 140.0 Z" fill="none" stroke="#404040" stroke-width="1.0" />
<path d="M 64.5 48.96 L 65.5 48.96 L 65.5 79.0 L 64.5 79.0 M 64.5 48.96 Z" fill="#404040" stroke="none" stroke-width="0.75" />
<path d="M 64.5 71.0 L 64.5 75.0 L 71.5 72.47369 L 71.5 68.47369 L 64.5 71.0 Z" fill="#404040" stroke="none" stroke-width="0.75" />
<path d="M 80.0 40.0 L 96.0 40.0 Z" fill="none" stroke="#d6d6d6" stroke-width="0.75" />
<path d="M 80.0 40.0 L 96.0 40.0 Z" fill="none" stroke="#d6d6d6" stroke-width="0.75" />
<path d="M 83.52 41.232 C 83.52 42.456 84.715195 43.68 85.895996 43.68 C 89.495995 43.68 93.09599 41.232 93.09599 38.856 C 93.09599 37.6752 91.871994 36.48 90.71999 36.48 C 87.119995 36.48 83.52 38.856 83.52 41.232 Z" fill="#404040" stroke="none" stroke-width="1.0" />
<path d="M 78.5 139.25 L 93.5 139.25 L 93.5 146.75 L 78.5 146.75 L 78.5 139.25 Z" fill="#ffffff" stroke="none" stroke-width="1.0" />
<text x='78.5' y='146.75' font-family="Default" font-size="10.0" fill="#404040" >10</text>
<path d="M 83.5 40.96 L 84.5 40.96 L 84.5 71.0 L 83.5 71.0 M 83.5 40.96 Z" fill="#404040" stroke="none" stroke-width="0.75" />
<path d="M 64.5 77.0 L 64.5 81.0 L 84.5 73.0 L 84.5 69.0 L 64.5 77.0 Z" fill="#404040" stroke="none" stroke-width="0.75" />
<path d="M 100.0 40.0 L 116.0 40.0 Z" fill="none" stroke="#d6d6d6" stroke-width="0.75" />
<path d="M 100.0 40.0 L 116.0 40.0 Z" fill="none" stroke="#d6d6d6" stroke-width="0.75" />
<path d="M 103.52 41.232 C 103.52 42.456 104.715195 43.68 105.895996 43.68 C 109.495995 43.68 113.09599 41.232 113.09599 38.856 C 113.09599 37.6752 111.871994 36.48 110.71999 36.48 C 107.119995 36.48 103.52 38.856 103.52 41.232 Z" fill="#404040" stroke="none" stroke-width="1.0" />
<path d="M 98.5 139.25 L 113.5 139.25 L 113.5 146.75 L 98.5 146.75 L 98.5 139.25 Z" fill="#ffffff" stroke="none" stroke-width="1.0" />
<text x='98.5' y='146.75' font-family="Default" font-size="10.0" fill="#404040" >10</text>
<path d="M 103.5 40.96 L 104.5 40.96 L 104.5 71.0 L 103.5 71.0 M 103.5 40.96 Z" fill="#404040" stroke="none" stroke-width="0.75" />
<path d="M 103.5 69.0 L 103.5 73.0 L 123.5 68.0 L 123.5 64.0 L 103.5 69.0 M 103.5 63.0 L 103.5 67.0 L 123.5 62.0 L 123.5 58.0 L 103.5 63.0 Z" fill="#404040" stroke="none" stroke-width="0.75" />
<path d="M 119.0 40.0 L 135.0 40.0 Z" fill="none" stroke="#d6d6d6" stroke-width="0.75" />
<path d="M 119.0 40.0 L 135.0 40.0 Z" fill="none" stroke="#d6d6d6" stroke-width="0.75" />
<path d="M 122.52 37.232 C 122.52 38.456 123.715195 39.68 124.895996 39.68 C 128.496 39.68 132.096 37.232 132.096 34.856 C 132.096 33.6752 130.872 32.48 129.72 32.48 C 126.119995 32.48 122.52 34.856 122.52 37.232 Z" fill="#404040" stroke="none" stroke-width="1.0" />
<path d="M 117.5 139.25 L 132.5 139.25 L 132.5 146.75 L 117.5 146.75 L 117.5 139.25 Z" fill="#ffffff" stroke="none" stroke-width="1.0" />
<text x='117.5' y='146.75' font-family="Default" font-size="10.0" fill="#404040" >12</text>
<path d="M 122.5 36.96 L 123.5 36.96 L 123.5 66.0 L 122.5 66.0 M 122.5 36.96 Z" fill="#404040" stroke="none" stroke-width="0.75" />
<path d="M 122.5 64.0 L 122.5 68.0 L 142.5 63.0 L 142.5 59.0 L 122.5 64.0 M 122.5 58.0 L 122.5 62.0 L 142.5 57.0 L 142.5 53.0 L 122.5 58.0 Z" fill="#404040" stroke="none" stroke-width="0.75" />
<path d="M 138.0 40.0 L 154.0 40.0 Z" fill="none" stroke="#d6d6d6" stroke-width="0.75" />
<path d="M 138.0 32.0 L 154.0 32.0 Z" fill="none" stroke="#d6d6d6" stroke-width="0.75" />
<path d="M 138.0 40.0 L 154.0 40.0 Z" fill="none" stroke="#d6d6d6" stroke-width="0.75" />
<path d="M 138.0 32.0 L 154.0 32.0 Z" fill="none" stroke="#d6d6d6" stroke-width="0.75" />
<path d="M 141.52 29.231998 C 141.52 30.456 142.71521 31.68 143.89601 31.68 C 147.496 31.68 151.09601 29.231998 151.09601 26.855999 C 151.09601 25.6752 149.87201 24.48 148.72 24.48 C 145.12001 24.48 141.52 26.855999 141.52 29.231998 Z" fill="#404040" stroke="none" stroke-width="1.0" />
<path d="M 136.5 129.25 L 151.5 129.25 L 151.5 136.75 L 136.5 136.75 L 136.5 129.25 Z" fill="#ffffff" stroke="none" stroke-width="1.0" />
<text x='136.5' y='136.75' font-family="Default" font-size="10.0" fill="#404040" >10</text>
<path d="M 141.5 28.96 L 142.5 28.96 L 142.5 61.0 L 141.5 61.0 M 141.5 28.96 Z" fill="#404040" stroke="none" stroke-width="0.75" />
<path d="M 157.0 40.0 L 173.0 40.0 Z" fill="none" stroke="#d6d6d6" stroke-width="0.75" />
<path d="M 157.0 32.0 L 173.0 32.0 Z" fill="none" stroke="#d6d6d6" stroke-width="0.75" />
<path d="M 157.0 24.0 L 173.0 24.0 Z" fill="none" stroke="#d6d6d6" stroke-width="0.75" />
<path d="M 157.0 40.0 L 173.0 40.0 Z" fill="none" stroke="#d6d6d6" stroke-width="0.75" />
<path d="M 157.0 32.0 L 173.0 32.0 Z" fill="none" stroke="#d6d6d6" stroke-width="0.75" />
<path d="M 157.0 24.0 L 173.0 24.0 Z" fill="none" stroke="#d6d6d6" stroke-width="0.75" />
<path d="M 160.52 25.231998 C 160.52 26.456 161.71521 27.68 162.89601 27.68 C 166.496 27.68 170.09601 25.231998 170.09601 22.855999 C 170.09601 21.6752 168.87201 20.48 167.72 20.48 C 164.12001 20.48 160.52 22.855999 160.52 25.231998 Z" fill="#404040" stroke="none" stroke-width="1.0" />
<path d="M 155.5 129.25 L 170.5 129.25 L 170.5 136.75 L 155.5 136.75 L 155.5 129.25 Z" fill="#ffffff" stroke="none" stroke-width="1.0" />
<text x='155.5' y='136.75' font-family="Default" font-size="10.0" fill="#404040" >12</text>
<path d="M 171.5 133.0 L 172.5 133.0 C 172.5 133.0 174.5 133.0 174.5 131.0 M 174.5 131.0 L 174.5 113.0 M 174.5 113.0 L 172.5 115.0 M 174.5 113.0 L 176.5 115.0 Z" fill="none" stroke="#404040" stroke-width="1.0" />
<text x='174.5' y='112.5' font-family="Default" font-size="10.0" fill="#404040" >1</text>
<path d="M 160.5 24.96 L 161.5 24.96 L 161.5 55.0 L 160.5 55.0 M 160.5 24.96 Z" fill="#404040" stroke="none" stroke-width="0.75" /></g>
<text x='270.0' y='66.0' font-family="Default" font-size="10.0" fill="#ff0000" >2</text>
<path d="M 269.0 68.0 L 269.0 100.0 Z" fill="#000000" stroke="#000000" stroke-width="0.75" />
<path d="M 466.0 68.0 L 466.0 100.0 Z" fill="#000000" stroke="#000000" stroke-width="0.75" />
<path d="M 269.0 153.0 L 269.0 203.0 Z" fill="#000000" stroke="#000000" stroke-width="0.75" />
<path d="M 466.0 153.0 L 466.0 203.0 Z" fill="#000000" stroke="#000000" stroke-width="0.75" /><g transform="translate(466.0,20.0)">
<path d="M 0.0 0.0 L 124.0 0.0 L 124.0 204.0 L 0.0 204.0 L 0.0 0.0 Z" fill="#ffffff" stroke="none" stroke-width="1.0" />
<path d="M 0.0 48.0 L 124.0 48.0 M 0.0 56.0 L 124.0 56.0 M 0.0 64.0 L 124.0 64.0 M 0.0 72.0 L 124.0 72.0 M 0.0 80.0 L 124.0 80.0 Z" fill="none" stroke="#d6d6d6" stroke-width="0.75" />
<path d="M 0.0 133.0 L 124.0 133.0 M 0.0 143.0 L 124.0 143.0 M 0.0 153.0 L 124.0 153.0 M 0.0 163.0 L 124.0 163.0 M 0.0 173.0 L 124.0 173.0 M 0.0 183.0 L 124.0 183.0 Z" fill="none" stroke="#d6d6d6" stroke-width="0.75" />
<path d="M 21.0 40.0 L 37.0 40.0 Z" fill="none" stroke="#d6d6d6" stroke-width="0.75" />
<path d="M 21.0 32.0 L 37.0 32.0 Z" fill="none" stroke="#d6d6d6" stroke-width="0.75" />
<path d="M 21.0 24.0 L 37.0 24.0 Z" fill="none" stroke="#d6d6d6" stroke-width="0.75" />
<path d="M 21.0 40.0 L 37.0 40.0 Z" fill="none" stroke="#d6d6d6" stroke-width="0.75" />
<path d="M 21.0 32.0 L 37.0 32.0 Z" fill="none" stroke="#d6d6d6" stroke-width="0.75" />
<path d="M 21.0 24.0 L 37.0 24.0 Z" fill="none" stroke="#d6d6d6" stroke-width="0.75" />
<path d="M 24.52 25.231998 C 24.52 26.456 25.7152 27.68 26.896 27.68 C 30.496 27.68 34.096 25.231998 34.096 22.855999 C 34.096 21.6752 32.872 20.48 31.720001 20.48 C 28.12 20.48 24.52 22.855999 24.52 25.231998 Z" fill="#404040" stroke="none" stroke-width="1.0" />
<path d="M 19.5 129.25 L 34.5 129.25 L 34.5 136.75 L 19.5 136.75 L 19.5 129.25 Z" fill="#ffffff" stroke="none" stroke-width="1.0" />
<text x='19.5' y='136.75' font-family="Default" font-size="10.0" fill="#404040" >12</text>
<path d="M 35.5 133.0 L 36.5 133.0 C 36.5 133.0 38.5 133.0 38.5 131.0 M 38.5 131.0 L 38.5 113.0 M 38.5 113.0 L 36.5 115.0 M 38.5 113.0 L 40.5 115.0 Z" fill="none" stroke="#404040" stroke-width="1.0" />
<text x='38.5' y='112.5' font-family="Default" font-size="10.0" fill="#404040" >1</text>
<path d="M 24.5 24.96 L 25.5 24.96 L 25.5 55.0 L 24.5 55.0 M 24.5 24.96 Z" fill="#404040" stroke="none" stroke-width="0.75" />
<path d="M 42.0 40.0 L 58.0 40.0 Z" fill="none" stroke="#d6d6d6" stroke-width="0.75" />
<path d="M 42.0 32.0 L 58.0 32.0 Z" fill="none" stroke="#d6d6d6" stroke-width="0.75" />
<path d="M 42.0 24.0 L 58.0 24.0 Z" fill="none" stroke="#d6d6d6" stroke-width="0.75" />
<path d="M 42.0 40.0 L 58.0 40.0 Z" fill="none" stroke="#d6d6d6" stroke-width="0.75" />
<path d="M 42.0 32.0 L 58.0 32.0 Z" fill="none" stroke="#d6d6d6" stroke-width="0.75" />
<path d="M 42.0 24.0 L 58.0 24.0 Z" fill="none" stroke="#d6d6d6" stroke-width="0.75" />
<path d="M 45.52 25.231998 C 45.52 26.456 46.715202 27.68 47.896 27.68 C 51.496002 27.68 55.096 25.231998 55.096 22.855999 C 55.096 21.6752 53.872 20.48 52.72 20.48 C 49.12 20.48 45.52 22.855999 45.52 25.231998 Z" fill="#404040" stroke="none" stroke-width="1.0" />
<path d="M 40.5 129.25 L 55.5 129.25 L 55.5 136.75 L 40.5 136.75 L 40.5 129.25 Z" fill="#ffffff" stroke="none" stroke-width="1.0" />
<text x='40.5' y='136.75' font-family="Default" font-size="10.0" fill="#404040" >12</text>
<path d="M 56.5 133.0 L 57.5 133.0 C 57.5 133.0 59.5 133.0 59.5 131.0 M 59.5 131.0 L 59.5 113.0 M 59.5 113.0 L 57.5 115.0 M 59.5 113.0 L 61.5 115.0 Z" fill="none" stroke="#404040" stroke-width="1.0" />
<text x='59.5' y='112.5' font-family="Default" font-size="10.0" fill="#404040" >1</text>
<path d="M 45.5 24.96 L 46.5 24.96 L 46.5 55.0 L 45.5 55.0 M 45.5 24.96 Z" fill="#404040" stroke="none" stroke-width="0.75" />
<path d="M 63.0 40.0 L 79.0 40.0 Z" fill="none" stroke="#d6d6d6" stroke-width="0.75" />
<path d="M 63.0 32.0 L 79.0 32.0 Z" fill="none" stroke="#d6d6d6" stroke-width="0.75" />
<path d="M 63.0 24.0 L 79.0 24.0 Z" fill="none" stroke="#d6d6d6" stroke-width="0.75" />
<path d="M 63.0 40.0 L 79.0 40.0 Z" fill="none" stroke="#d6d6d6" stroke-width="0.75" />
<path d="M 63.0 32.0 L 79.0 32.0 Z" fill="none" stroke="#d6d6d6" stroke-width="0.75" />
<path d="M 63.0 24.0 L 79.0 24.0 Z" fill="none" stroke="#d6d6d6" stroke-width="0.75" />
<path d="M 66.52 25.231998 C 66.52 26.456 67.715195 27.68 68.895996 27.68 C 72.495995 27.68 76.09599 25.231998 76.09599 22.855999 C 76.09599 21.6752 74.871994 20.48 73.71999 20.48 C 70.119995 20.48 66.52 22.855999 66.52 25.231998 Z" fill="#404040" stroke="none" stroke-width="1.0" />
<path d="M 61.5 129.25 L 76.5 129.25 L 76.5 136.75 L 61.5 136.75 L 61.5 129.25 Z" fill="#ffffff" stroke="none" stroke-width="1.0" />
<text x='61.5' y='136.75' font-family="Default" font-size="10.0" fill="#404040" >12</text>
<path d="M 77.5 133.0 L 78.5 133.0 C 78.5 133.0 80.5 133.0 80.5 131.0 M 80.5 131.0 L 80.5 113.0 M 80.5 113.0 L 78.5 115.0 M 80.5 113.0 L 82.5 115.0 Z" fill="none" stroke="#404040" stroke-width="1.0" />
<text x='80.5' y='112.5' font-family="Default" font-size="10.0" fill="#404040" >1</text>
<path d="M 66.5 24.96 L 67.5 24.96 L 67.5 55.0 L 66.5 55.0 M 66.5 24.96 Z" fill="#404040" stroke="none" stroke-width="0.75" />
<path d="M 84.0 40.0 L 100.0 40.0 Z" fill="none" stroke="#d6d6d6" stroke-width="0.75" />
<path d="M 84.0 32.0 L 100.0 32.0 Z" fill="none" stroke="#d6d6d6" stroke-width="0.75" />
<path d="M 84.0 24.0 L 100.0 24.0 Z" fill="none" stroke="#d6d6d6" stroke-width="0.75" />
<path d="M 84.0 40.0 L 100.0 40.0 Z" fill="none" stroke="#d6d6d6" stroke-width="0.75" />
<path d="M 84.0 32.0 L 100.0 32.0 Z" fill="none" stroke="#d6d6d6" stroke-width="0.75" />
<path d="M 84.0 24.0 L 100.0 24.0 Z" fill="none" stroke="#d6d6d6" stroke-width="0.75" />
<path d="M 87.52 25.231998 C 87.52 26.456 88.715195 27.68 89.895996 27.68 C 93.495995 27.68 97.09599 25.231998 97.09599 22.855999 C 97.09599 21.6752 95.871994 20.48 94.71999 20.48 C 91.119995 20.48 87.52 22.855999 87.52 25.231998 Z" fill="#404040" stroke="none" stroke-width="1.0" />
<path d="M 82.5 129.25 L 97.5 129.25 L 97.5 136.75 L 82.5 136.75 L 82.5 129.25 Z" fill="#ffffff" stroke="none" stroke-width="1.0" />
<text x='82.5' y='136.75' font-family="Default" font-size="10.0" fill="#404040" >12</text>
<path d="M 98.5 133.0 L 99.5 133.0 C 99.5 133.0 101.5 133.0 101.5 131.0 M 101.5 131.0 L 101.5 113.0 M 101.5 113.0 L 99.5 115.0 M 101.5 113.0 L 103.5 115.0 Z" fill="none" stroke="#404040" stroke-width="1.0" />
<text x='101.5' y='112.5' font-family="Default" font-size="10.0" fill="#404040" >1</text>
<path d="M 87.5 24.96 L 88.5 24.96 L 88.5 55.0 L 87.5 55.0 M 87.5 24.96 Z" fill="#404040" stroke="none" stroke-width="0.75" /></g>
<text x='467.0' y='66.0' font-family="Default" font-size="10.0" fill="#ff0000" >3</text>
<path d="M 466.0 68.0 L 466.0 100.0 Z" fill="#000000" stroke="#000000" stroke-width="0.75" />
<path d="M 584.0 68.0 L 585.0 68.0 L 585.0 100.0 L 584.0 100.0 L 584.0 68.0 Z" fill="#000000" stroke="#000000" stroke-width="0.75" />
<path d="M 587.0 68.0 L 590.0 68.0 L 590.0 100.0 L 587.0 100.0 L 587.0 68.0 Z" fill="#000000" stroke="#000000" stroke-width="0.75" />
<path d="M 466.0 153.0 L 466.0 203.0 Z" fill="#000000" stroke="#000000" stroke-width="0.75" />
<path d="M 584.0 153.0 L 585.0 153.0 L 585.0 203.0 L 584.0 203.0 L 584.0 153.0 Z" fill="#000000" stroke="#000000" stroke-width="0.75" />
<path d="M 587.0 153.0 L 590.0 153.0 L 590.0 203.0 L 587.0 203.0 L 587.0 153.0 Z" fill="#000000" stroke="#000000" stroke-width="0.75" />
<path d="M 592.0 68.0 L 930.0 68.0 M 592.0 76.0 L 930.0 76.0 M 592.0 84.0 L 930.0 84.0 M 592.0 92.0 L 930.0 92.0 M 592.0 100.0 L 930.0 100.0 Z" fill="none" stroke="#d6d6d6" stroke-width="0.75" />
<path d="M 592.0 153.0 L 930.0 153.0 M 592.0 163.0 L 930.0 163.0 M 592.0 173.0 L 930.0 173.0 M 592.0 183.0 L 930.0 183.0 M 592.0 193.0 L 930.0 193.0 M 592.0 203.0 L 930.0 203.0 Z" fill="none" stroke="#d6d6d6" stroke-width="0.75" />
</svg>