<svg width="960.0px" height="216.0px" xmlns="http://www.w3.org/2000/svg" version="1.1">

<path d="M 0.0 0.0 L 960.0 0.0 L 960.0 216.0 L 0.0 216.0 L 0.0 0.0 Z" fill="#ffffff" stroke="none" stroke-width="1.0" /><g transform="translate(20.0,20.0)">
<path d="M 0.0 0.0 L 271.0 0.0 L 271.0 185.0 L 0.0 185.0 L 0.0 0.0 Z" fill="#ffffff" stroke="none" stroke-width="1.0" />
<path d="M 0.0 34.0 L 271.0 34.0 M 0.0 42.0 L 271.0 42.0 M 0.0 50.0 L 271.0 50.0 M 0.0 58.0 L 271.0 58.0 M 0.0 66.0 L 271.0 66.0 Z" fill="none" stroke="#d6d6d6" stroke-width="0.75" />
<path d="M 0.0 114.0 L 271.0 114.0 M 0.0 124.0 L 271.0 124.0 M 0.0 134.0 L 271.0 134.0 M 0.0 144.0 L 271.0 144.0 M 0.0 154.0 L 271.0 154.0 M 0.0 164.0 L 271.0 164.0 Z" fill="none" stroke="#d6d6d6" stroke-width="0.75" />
<path d="M 67.77043 34.40856 C 68.324905 34.40856 68.821014 34.350193 69.25876 34.20428 C 69.6965 34.058365 69.959145 34.0 70.04669 34.0 C 70.192604 34.0 70.28015 34.029182 70.36771 34.11673 C 70.42607 34.1751 70.45525 34.233463 70.484436 34.32101 C 70.484436 34.37938 70.45525 34.437744 70.42607 34.49611 L 61.933853 44.35992 L 66.924126 44.35992 L 66.924126 40.449417 C 66.924126 40.18677 67.01167 39.95331 67.1284 39.807392 C 67.3035 39.661476 67.4786 39.515564 67.71206 39.4572 C 67.97471 39.340466 68.26653 39.07782 68.64591 38.640076 C 68.937744 38.319065 69.317116 37.706226 69.75486 36.801556 C 69.81323 36.684826 69.90078 36.626457 70.01751 36.626457 C 70.28015 36.626457 70.39688 36.772373 70.42607 37.03502 L 70.42607 44.35992 L 72.55642 44.35992 C 72.84825 44.35992 72.99416 44.505836 73.023346 44.797665 C 73.023346 45.089493 72.877426 45.235405 72.55642 45.235405 L 70.42607 45.235405 L 70.42607 45.468872 C 70.42607 46.28599 70.63035 46.928013 71.00973 47.45331 C 71.44747 47.9786 71.97276 48.270428 72.5856 48.270428 C 72.81906 48.270428 72.9358 48.387157 72.9358 48.62062 C 72.9358 48.854084 72.81906 48.970818 72.5856 48.970818 C 72.14786 48.970818 71.50584 48.91245 70.601166 48.79572 C 69.696495 48.649803 69.054474 48.59144 68.64591 48.59144 C 68.23735 48.59144 67.56615 48.649803 66.69066 48.79572 C 65.81517 48.91245 65.17315 48.970818 64.735405 48.970818 C 64.501945 48.970818 64.385216 48.854084 64.385216 48.62062 C 64.385216 48.387157 64.501945 48.270428 64.735405 48.270428 C 65.34825 48.270428 65.87354 47.9786 66.31128 47.45331 C 66.71984 46.89883 66.924126 46.25681 66.924126 45.468872 L 66.924126 45.235405 L 61.933853 45.235405 C 61.61284 45.235405 61.379375 45.17704 61.233463 45.001945 C 61.087547 44.885212 61.0 44.710114 61.0 44.53502 C 61.0 44.476654 61.145912 44.272373 61.437744 43.92218 C 61.729572 43.571983 62.079765 43.105057 62.488327 42.492218 C 62.488327 42.492218 63.305447 41.20817 63.71401 40.449417 C 63.71401 40.449417 64.47276 38.78599 64.735405 37.706226 C 65.02724 36.65564 65.17315 35.575874 65.17315 34.49611 C 65.17315 34.175095 65.31907 34.029182 65.58171 34.029182 C 65.61089 34.029182 65.756805 34.058365 65.96109 34.11673 C 66.16537 34.175095 66.4572 34.233463 66.77821 34.32101 C 67.1284 34.379375 67.44942 34.408558 67.77043 34.408558 Z" fill="#000000" stroke="none" stroke-width="0.75" />
<path d="M 67.77043 51.40856 C 68.324905 51.40856 68.821014 51.350193 69.25876 51.20428 C 69.6965 51.058365 69.959145 51.0 70.04669 51.0 C 70.192604 51.0 70.28015 51.029182 70.36771 51.11673 C 70.42607 51.1751 70.45525 51.233463 70.484436 51.32101 C 70.484436 51.37938 70.45525 51.437744 70.42607 51.49611 L 61.933853 61.35992 L 66.924126 61.35992 L 66.924126 57.449417 C 66.924126 57.18677 67.01167 56.95331 67.1284 56.807392 C 67.3035 56.661476 67.4786 56.515564 67.71206 56.4572 C 67.97471 56.340466 68.26653 56.07782 68.64591 55.640076 C 68.937744 55.319065 69.317116 54.706226 69.75486 53.801556 C 69.81323 53.684826 69.90078 53.626457 70.01751 53.626457 C 70.28015 53.626457 70.39688 53.772373 70.42607 54.03502 L 70.42607 61.35992 L 72.55642 61.35992 C 72.84825 61.35992 72.99416 61.505836 73.023346 61.797665 C 73.023346 62.089493 72.877426 62.235405 72.55642 62.235405 L 70.42607 62.235405 L 70.42607 62.468872 C 70.42607 63.28599 70.63035 63.928013 71.00973 64.45331 C 71.44747 64.9786 71.97276 65.270424 72.5856 65.270424 C 72.81906 65.270424 72.9358 65.38716 72.9358 65.62062 C 72.9358 65.85408 72.81906 65.97082 72.5856 65.97082 C 72.14786 65.97082 71.50584 65.91245 70.601166 65.795715 C 69.696495 65.6498 69.054474 65.59144 68.64591 65.59144 C 68.23735 65.59144 67.56615 65.6498 66.69066 65.795715 C 65.81517 65.91245 65.17315 65.97082 64.735405 65.97082 C 64.501945 65.97082 64.385216 65.85408 64.385216 65.62062 C 64.385216 65.38716 64.501945 65.270424 64.735405 65.270424 C 65.34825 65.270424 65.87354 64.9786 66.31128 64.45331 C 66.71984 63.89883 66.924126 63.25681 66.924126 62.468872 L 66.924126 62.235405 L 61.933853 62.235405 C 61.61284 62.235405 61.379375 62.17704 61.233463 62.001945 C 61.087547 61.885212 61.0 61.710114 61.0 61.53502 C 61.0 61.476654 61.145912 61.272373 61.437744 60.92218 C 61.729572 60.571983 62.079765 60.105057 62.488327 59.492218 C 62.488327 59.492218 63.305447 58.20817 63.71401 57.449417 C 63.71401 57.449417 64.47276 55.78599 64.735405 54.706226 C 65.02724 53.65564 65.17315 52.575874 65.17315 51.49611 C 65.17315 51.175095 65.31907 51.029182 65.58171 51.029182 C 65.61089 51.029182 65.756805 51.058365 65.96109 51.11673 C 66.16537 51.175095 66.4572 51.233463 66.77821 51.32101 C 67.1284 51.379375 67.44942 51.408558 67.77043 51.408558 Z" fill="#000000" stroke="none" stroke-width="0.75" />
<path d="M 22.764973 26.115383 C 22.921913 26.036913 22.948072 26.036913 23.105015 26.036913 C 23.314268 26.06307 23.445057 26.14154 23.73278 26.455425 C 25.616081 28.39104 27.185501 31.843758 27.577856 34.773342 C 27.630169 35.244167 27.630169 36.34276 27.577856 36.839737 C 27.29013 39.533905 26.165377 41.99266 23.57584 45.52385 L 23.209644 46.020832 L 23.418898 46.62244 C 23.915882 48.061073 24.491331 49.81359 24.85753 51.095284 C 24.96216 51.409164 25.04063 51.67074 25.04063 51.696896 C 25.04063 51.696896 25.223728 51.696896 25.406826 51.723053 C 26.322319 51.80152 27.10703 52.01078 27.917896 52.40313 C 28.57182 52.74317 29.147274 53.13552 29.696568 53.658665 C 30.29818 54.260277 30.690535 54.80957 31.05673 55.568123 C 31.606026 56.666718 31.84144 57.81762 31.81528 58.96853 C 31.789125 59.700924 31.684496 60.25022 31.449085 60.930305 C 31.1352 61.924263 30.559748 62.83976 29.77504 63.62447 C 29.094955 64.30455 28.46719 64.72306 27.630169 65.0631 L 27.316284 65.193886 L 27.316284 66.13554 C 27.316284 67.46954 27.237814 69.038956 27.133184 69.980606 C 27.02856 70.94841 26.766989 71.86391 26.348476 72.700935 C 25.249886 74.92427 23.314268 76.10133 21.143244 75.89209 C 18.684484 75.65667 16.69656 73.98262 16.199577 71.73312 C 15.964161 70.713 16.068794 69.9283 16.487303 69.27437 C 17.036598 68.411194 18.082878 67.914215 19.102997 67.94037 C 20.30622 67.99268 21.274027 68.934326 21.457123 70.24218 C 21.58791 71.28845 21.143244 72.25626 20.30622 72.7794 C 19.835394 73.06713 19.181469 73.197914 18.684484 73.119446 C 18.606018 73.119446 18.527544 73.093285 18.527544 73.119446 L 18.84143 73.43333 C 19.416882 74.00878 20.070807 74.374985 20.907831 74.558075 C 21.090927 74.584236 21.247868 74.584236 21.666382 74.584236 C 22.137207 74.584236 22.189518 74.584236 22.451088 74.53192 C 22.81729 74.42729 23.131172 74.29651 23.418898 74.139565 C 24.726748 73.35486 25.616081 71.73312 25.851494 69.77136 C 25.929964 69.038956 26.008434 67.46954 26.008434 66.318634 C 26.008434 65.56009 26.008434 65.50777 25.956123 65.50777 C 25.851494 65.56009 25.302197 65.6124 24.909843 65.63855 C 24.41286 65.66471 23.57584 65.66471 23.183485 65.6124 C 21.640223 65.4293 20.227747 64.90616 18.998373 64.04298 C 17.167385 62.761288 15.859535 60.851826 15.31024 58.654644 C 14.604002 55.908165 15.100986 52.978584 16.827343 49.89206 C 17.55974 48.610374 18.265978 47.564095 20.018494 45.236122 L 21.012455 43.902122 L 20.829355 43.405136 C 19.573822 40.083202 19.15531 38.173744 19.024527 35.401108 C 18.972214 34.197887 19.024527 33.17776 19.181469 32.34074 C 19.573822 30.143559 20.593945 28.181787 22.189518 26.612366 C 22.503403 26.298483 22.63419 26.193855 22.764973 26.115383 M 24.831371 30.588224 C 24.569805 30.143559 24.622118 30.169712 24.386707 30.326658 C 23.65431 30.771324 22.89576 31.451405 22.34646 32.131485 C 21.221714 33.57012 20.593945 35.244167 20.515476 37.048996 C 20.489319 37.78139 20.56779 38.252216 20.907831 39.37696 C 21.169397 40.292458 21.901793 42.5158 21.95411 42.56811 C 21.95411 42.59427 22.111048 42.411175 22.26799 42.17576 C 24.072823 39.58622 25.04063 37.467506 25.406826 35.348793 C 25.485298 34.799496 25.53761 34.354828 25.563768 33.727062 C 25.589928 32.28843 25.432985 31.582191 24.831371 30.588224 M 22.581877 48.191864 C 22.424934 47.694878 22.26799 47.302525 22.26799 47.302525 C 22.241835 47.302525 21.143244 48.76731 20.672415 49.421238 C 19.129156 51.592266 18.187506 53.34478 17.638206 55.071136 C 17.27201 56.143574 17.115068 57.137543 17.062756 58.236134 C 17.062756 58.837746 17.088915 59.20394 17.193539 59.64861 C 17.795153 61.976578 20.280064 63.886036 23.209644 64.30455 C 23.65431 64.35686 24.909843 64.35686 25.459139 64.30455 C 26.008434 64.226074 25.956123 64.252235 25.929964 64.01682 C 25.773026 61.53191 25.563768 60.014805 25.14526 57.765305 C 24.988314 56.823658 24.543648 54.835728 24.517488 54.80957 C 24.491331 54.783417 23.99435 54.835728 23.706627 54.9142 C 23.340427 54.99267 23.105015 55.071136 22.79113 55.22808 C 21.090927 56.091263 20.593945 58.053036 21.666382 59.64861 C 21.849482 59.91018 22.320305 60.381004 22.608032 60.564102 C 22.71266 60.642574 22.948072 60.799515 23.105015 60.877987 C 23.340427 61.00877 23.392738 61.061085 23.445057 61.165714 C 23.65431 61.505756 23.523525 61.924263 23.131172 62.107365 C 22.921913 62.21199 22.764973 62.185837 22.34646 61.976578 C 21.326344 61.4796 20.56779 60.799515 20.018494 59.962494 C 18.998373 58.393074 18.867586 56.37899 19.70461 54.678787 C 20.437006 53.213997 21.744852 52.22003 23.418898 51.853836 C 23.57584 51.80152 23.706627 51.775368 23.706627 51.775368 C 23.73278 51.749207 23.000385 49.368923 22.581877 48.191864 M 26.139221 54.94036 C 26.060753 54.94036 25.98228 54.9142 25.956123 54.9142 L 25.877651 54.88804 L 26.008434 55.43734 C 26.610046 58.07919 27.054714 60.956455 27.211655 63.389057 C 27.237814 63.650627 27.237814 63.859882 27.237814 63.859882 C 27.263973 63.859882 27.60401 63.70294 27.78711 63.572155 C 28.231777 63.31058 28.65029 62.91823 28.99033 62.47356 C 29.801197 61.401123 30.08892 60.06712 29.77504 58.706955 C 29.539627 57.608364 28.911861 56.58824 28.022522 55.882008 C 27.473227 55.463493 26.740831 55.097298 26.139221 54.94036 Z" fill="#000000" stroke="none" stroke-width="0.75" />
<path d="M 92.0 74.0 L 108.0 74.0 Z" fill="none" stroke="#d6d6d6" stroke-width="0.75" />
<path d="M 92.0 82.0 L 108.0 82.0 Z" fill="none" stroke="#d6d6d6" stroke-width="0.75" />
<path d="M 92.0 90.0 L 108.0 90.0 Z" fill="none" stroke="#d6d6d6" stroke-width="0.75" />
<path d="M 92.0 74.0 L 108.0 74.0 Z" fill="none" stroke="#d6d6d6" stroke-width="0.75" />
<path d="M 92.0 82.0 L 108.0 82.0 Z" fill="none" stroke="#d6d6d6" stroke-width="0.75" />
<path d="M 92.0 90.0 L 108.0 90.0 Z" fill="none" stroke="#d6d6d6" stroke-width="0.75" />
<path d="M 95.52 91.232 C 95.52 92.456 96.715195 93.68 97.895996 93.68 C 101.495995 93.68 105.09599 91.232 105.09599 88.856 C 105.09599 87.6752 103.871994 86.48 102.71999 86.48 C 99.119995 86.48 95.52 88.856 95.52 91.232 Z" fill="#404040" stroke="none" stroke-width="1.0" />
<path d="M 94.0 160.25 L 102.0 160.25 L 102.0 167.75 L 94.0 167.75 L 94.0 160.25 Z" fill="#ffffff" stroke="none" stroke-width="1.0" />
<text x='94.0' y='167.75' font-family="Default" font-size="10.0" fill="#404040" >1</text>
<path d="M 104.18 89.04 L 105.18 89.04 L 105.18 52.0 L 104.18 52.0 M 104.18 89.04 Z" fill="#404040" stroke="none" stroke-width="0.75" />
<path d="M 104.18 50.0 L 104.18 54.0 L 125.18 44.0 L 125.18 40.0 L 104.18 50.0 Z" fill="#404040" stroke="none" stroke-width="0.75" />
<path d="M 112.0 74.0 L 128.0 74.0 Z" fill="none" stroke="#d6d6d6" stroke-width="0.75" />
<path d="M 112.0 74.0 L 128.0 74.0 Z" fill="none" stroke="#d6d6d6" stroke-width="0.75" />
<path d="M 115.52 75.232 C 115.52 76.456 116.715195 77.68 117.895996 77.68 C 121.495995 77.68 125.09599 75.232 125.09599 72.856 C 125.09599 71.6752 123.871994 70.48 122.71999 70.48 C 119.119995 70.48 115.52 72.856 115.52 75.232 Z" fill="#404040" stroke="none" stroke-width="1.0" />
<path d="M 114.0 150.25 L 122.0 150.25 L 122.0 157.75 L 114.0 157.75 L 114.0 150.25 Z" fill="#ffffff" stroke="none" stroke-width="1.0" />
<text x='114.0' y='157.75' font-family="Default" font-size="10.0" fill="#404040" >3</text>
<path d="M 124.18 73.04 L 125.18 73.04 L 125.18 42.0 L 124.18 42.0 M 124.18 73.04 Z" fill="#404040" stroke="none" stroke-width="0.75" />
<path d="M 135.52 63.232 C 135.52 64.456 136.71521 65.68 137.89601 65.68 C 141.496 65.68 145.09601 63.232 145.09601 60.856 C 145.09601 59.6752 143.87201 58.48 142.72 58.48 C 139.12001 58.48 135.52 60.856 135.52 63.232 Z" fill="#404040" stroke="none" stroke-width="1.0" />
<path d="M 134.0 140.25 L 142.0 140.25 L 142.0 147.75 L 134.0 147.75 L 134.0 140.25 Z" fill="#ffffff" stroke="none" stroke-width="1.0" />
<text x='134.0' y='147.75' font-family="Default" font-size="10.0" fill="#404040" >3</text>
<path d="M 144.18 61.04 L 145.18 61.04 L 145.18 30.0 L 144.18 30.0 M 144.18 61.04 Z" fill="#404040" stroke="none" stroke-width="0.75" />
<path d="M 144.18 28.0 L 144.18 32.0 L 165.18 42.0 L 165.18 38.0 L 144.18 28.0 Z" fill="#404040" stroke="none" stroke-width="0.75" />
<path d="M 152.0 74.0 L 168.0 74.0 Z" fill="none" stroke="#d6d6d6" stroke-width="0.75" />
<path d="M 152.0 74.0 L 168.0 74.0 Z" fill="none" stroke="#d6d6d6" stroke-width="0.75" />
<path d="M 155.52 75.232 C 155.52 76.456 156.71521 77.68 157.89601 77.68 C 161.496 77.68 165.09601 75.232 165.09601 72.856 C 165.09601 71.6752 163.87201 70.48 162.72 70.48 C 159.12001 70.48 155.52 72.856 155.52 75.232 Z" fill="#404040" stroke="none" stroke-width="1.0" />
<path d="M 154.0 150.25 L 162.0 150.25 L 162.0 157.75 L 154.0 157.75 L 154.0 150.25 Z" fill="#ffffff" stroke="none" stroke-width="1.0" />
<text x='154.0' y='157.75' font-family="Default" font-size="10.0" fill="#404040" >3</text>
<path d="M 164.18 73.04 L 165.18 73.04 L 165.18 40.0 L 164.18 40.0 M 164.18 73.04 Z" fill="#404040" stroke="none" stroke-width="0.75" />
<path d="M 175.52 71.232 C 175.52 72.456 176.71521 73.68 177.89601 73.68 C 181.496 73.68 185.09601 71.232 185.09601 68.856 C 185.09601 67.6752 183.87201 66.48 182.72 66.48 C 179.12001 66.48 175.52 68.856 175.52 71.232 Z" fill="#404040" stroke="none" stroke-width="1.0" />
<path d="M 174.0 150.25 L 182.0 150.25 L 182.0 157.75 L 174.0 157.75 L 174.0 150.25 Z" fill="#ffffff" stroke="none" stroke-width="1.0" />
<text x='174.0' y='157.75' font-family="Default" font-size="10.0" fill="#404040" >5</text>
<path d="M 184.18 69.04 L 185.18 69.04 L 185.18 32.0 L 184.18 32.0 M 184.18 69.04 Z" fill="#404040" stroke="none" stroke-width="0.75" />
<path d="M 184.18 30.0 L 184.18 34.0 L 205.18 24.0 L 205.18 20.0 L 184.18 30.0 Z" fill="#404040" stroke="none" stroke-width="0.75" />
<path d="M 195.52 55.232 C 195.52 56.456 196.71521 57.68 197.89601 57.68 C 201.496 57.68 205.09601 55.232 205.09601 52.856 C 205.09601 51.6752 203.87201 50.48 202.72 50.48 C 199.12001 50.48 195.52 52.856 195.52 55.232 Z" fill="#404040" stroke="none" stroke-width="1.0" />
<path d="M 194.0 140.25 L 202.0 140.25 L 202.0 147.75 L 194.0 147.75 L 194.0 140.25 Z" fill="#ffffff" stroke="none" stroke-width="1.0" />
<text x='194.0' y='147.75' font-family="Default" font-size="10.0" fill="#404040" >7</text>
<path d="M 204.18 53.04 L 205.18 53.04 L 205.18 22.0 L 204.18 22.0 M 204.18 53.04 Z" fill="#404040" stroke="none" stroke-width="0.75" />
<path d="M 215.52 43.232 C 215.52 44.456 216.71521 45.68 217.89601 45.68 C 221.496 45.68 225.09601 43.232 225.09601 40.856 C 225.09601 39.6752 223.87201 38.48 222.72 38.48 C 219.12001 38.48 215.52 40.856 215.52 43.232 Z" fill="#404040" stroke="none" stroke-width="1.0" />
<path d="M 214.0 130.25 L 222.0 130.25 L 222.0 137.75 L 214.0 137.75 L 214.0 130.25 Z" fill="#ffffff" stroke="none" stroke-width="1.0" />
<text x='214.0' y='137.75' font-family="Default" font-size="10.0" fill="#404040" >7</text>
<path d="M 215.5 42.96 L 216.5 42.96 L 216.5 75.0 L 215.5 75.0 M 215.5 42.96 Z" fill="#404040" stroke="none" stroke-width="0.75" />
<path d="M 215.5 73.0 L 215.5 77.0 L 236.5 87.0 L 236.5 83.0 L 215.5 73.0 Z" fill="#404040" stroke="none" stroke-width="0.75" />
<path d="M 235.52 55.232 C 235.52 56.456 236.71521 57.68 237.89601 57.68 C 241.496 57.68 245.09601 55.232 245.09601 52.856 C 245.09601 51.6752 243.87201 50.48 242.72 50.48 C 239.12001 50.48 235.52 52.856 235.52 55.232 Z" fill="#404040" stroke="none" stroke-width="1.0" />
<path d="M 234.0 140.25 L 242.0 140.25 L 242.0 147.75 L 234.0 147.75 L 234.0 140.25 Z" fill="#ffffff" stroke="none" stroke-width="1.0" />
<text x='234.0' y='147.75' font-family="Default" font-size="10.0" fill="#404040" >7</text>
<path d="M 235.5 54.96 L 236.5 54.96 L 236.5 85.0 L 235.5 85.0 M 235.5 54.96 Z" fill="#404040" stroke="none" stroke-width="0.75" /></g>
<path d="M 35.35 40.3 C 35.35 41.15 36.18 42.0 37.0 42.0 C 39.5 42.0 42.0 40.3 42.0 38.65 C 42.0 37.83 41.149998 37.0 40.35 37.0 C 37.85 37.0 35.35 38.65 35.35 40.3 Z" fill="#000000" stroke="none" stroke-width="1.0" />
<path d="M 42.0 24.0 L 42.0 38.7 Z" fill="none" stroke="#000000" stroke-width="1.0" />
<text x='43.0' y='40.25' font-family="Default" font-size="10.0" fill="#000000" > = 96</text>
<text x='21.0' y='52.0' font-family="Default" font-size="10.0" fill="#ff0000" >1</text>
<path d="M 20.0 54.0 L 23.0 54.0 L 23.0 134.0 L 20.0 134.0 L 20.0 54.0 Z" fill="#000000" stroke="#000000" stroke-width="0.75" />
<path d="M 25.0 54.0 L 26.0 54.0 L 26.0 134.0 L 25.0 134.0 L 25.0 54.0 Z" fill="#000000" stroke="#000000" stroke-width="0.75" />
<path d="M 31.0 66.0 M 29.0 66.0 a 2.0 2.0 0 1 0 4.0 0 2.0 2.0 0 1 0 -4.0 0 M 31.0 74.0 M 29.0 74.0 a 2.0 2.0 0 1 0 4.0 0 2.0 2.0 0 1 0 -4.0 0 Z" fill="#000000" stroke="none" stroke-width="1.0" />
<path d="M 291.0 54.0 L 291.0 86.0 Z" fill="#000000" stroke="#000000" stroke-width="0.75" />
<path d="M 20.0 134.0 L 23.0 134.0 L 23.0 184.0 L 20.0 184.0 L 20.0 134.0 Z" fill="#000000" stroke="#000000" stroke-width="0.75" />
<path d="M 25.0 134.0 L 26.0 134.0 L 26.0 184.0 L 25.0 184.0 L 25.0 134.0 Z" fill="#000000" stroke="#000000" stroke-width="0.75" />
<path d="M 31.0 155.0 M 29.0 155.0 a 2.0 2.0 0 1 0 4.0 0 2.0 2.0 0 1 0 -4.0 0 M 31.0 163.0 M 29.0 163.0 a 2.0 2.0 0 1 0 4.0 0 2.0 2.0 0 1 0 -4.0 0 Z" fill="#000000" stroke="none" stroke-width="1.0" />
<path d="M 291.0 134.0 L 291.0 184.0 Z" fill="#000000" stroke="#000000" stroke-width="0.75" /><g transform="translate(291.0,20.0)">
<path d="M 0.0 0.0 L 90.0 0.0 L 90.0 185.0 L 0.0 185.0 L 0.0 0.0 Z" fill="#ffffff" stroke="none" stroke-width="1.0" />
<path d="M 0.0 34.0 L 90.0 34.0 M 0.0 42.0 L 90.0 42.0 M 0.0 50.0 L 90.0 50.0 M 0.0 58.0 L 90.0 58.0 M 0.0 66.0 L 90.0 66.0 Z" fill="none" stroke="#d6d6d6" stroke-width="0.75" />
<path d="M 0.0 114.0 L 90.0 114.0 M 0.0 124.0 L 90.0 124.0 M 0.0 134.0 L 90.0 134.0 M 0.0 144.0 L 90.0 144.0 M 0.0 154.0 L 90.0 154.0 M 0.0 164.0 L 90.0 164.0 Z" fill="none" stroke="#d6d6d6" stroke-width="0.75" />
<path d="M 25.041609 42.04161 L 25.104027 42.0 L 28.890621 42.0 L 32.69802 42.0 L 32.760433 42.04161 L 32.802048 42.104027 L 32.802048 43.622826 L 32.802048 45.141624 L 32.760433 45.20404 L 32.69802 45.24565 L 28.890621 45.24565 L 25.104027 45.24565 L 25.041609 45.20404 L 25.0 45.141624 L 25.0 43.622826 L 25.0 42.104027 L 25.041609 42.04161 Z" fill="#404040" stroke="none" stroke-width="0.75" /></g>
<text x='292.0' y='52.0' font-family="Default" font-size="10.0" fill="#ff0000" >2</text>
<path d="M 291.0 54.0 L 291.0 86.0 Z" fill="#000000" stroke="#000000" stroke-width="0.75" />
<path d="M 375.0 54.0 L 376.0 54.0 L 376.0 86.0 L 375.0 86.0 L 375.0 54.0 Z" fill="#000000" stroke="#000000" stroke-width="0.75" />
<path d="M 378.0 54.0 L 381.0 54.0 L 381.0 86.0 L 378.0 86.0 L 378.0 54.0 Z" fill="#000000" stroke="#000000" stroke-width="0.75" />
<path d="M 370.0 66.0 M 368.0 66.0 a 2.0 2.0 0 1 0 4.0 0 2.0 2.0 0 1 0 -4.0 0 M 370.0 74.0 M 368.0 74.0 a 2.0 2.0 0 1 0 4.0 0 2.0 2.0 0 1 0 -4.0 0 Z" fill="#000000" stroke="none" stroke-width="1.0" />
<text x='362.0' y='52.0' font-family="Default" font-size="10.0" fill="#000000" >x2</text>
<path d="M 291.0 134.0 L 291.0 184.0 Z" fill="#000000" stroke="#000000" stroke-width="0.75" />
<path d="M 375.0 134.0 L 376.0 134.0 L 376.0 184.0 L 375.0 184.0 L 375.0 134.0 Z" fill="#000000" stroke="#000000" stroke-width="0.75" />
<path d="M 378.0 134.0 L 381.0 134.0 L 381.0 184.0 L 378.0 184.0 L 378.0 134.0 Z" fill="#000000" stroke="#000000" stroke-width="0.75" />
<path d="M 370.0 155.0 M 368.0 155.0 a 2.0 2.0 0 1 0 4.0 0 2.0 2.0 0 1 0 -4.0 0 M 370.0 163.0 M 368.0 163.0 a 2.0 2.0 0 1 0 4.0 0 2.0 2.0 0 1 0 -4.0 0 Z" fill="#000000" stroke="none" stroke-width="1.0" />
<path d="M 383.0 54.0 L 930.0 54.0 M 383.0 62.0 L 930.0 62.0 M 383.0 70.0 L 930.0 70.0 M 383.0 78.0 L 930.0 78.0 M 383.0 86.0 L 930.0 86.0 Z" fill="none" stroke="#d6d6d6" stroke-width="0.75" />
<path d="M 383.0 134.0 L 930.0 134.0 M 383.0 144.0 L 930.0 144.0 M 383.0 154.0 L 930.0 154.0 M 383.0 164.0 L 930.0 164.0 M 383.0 174.0 L 930.0 174.0 M 383.0 184.0 L 930.0 184.0 Z" fill="none" stroke="#d6d6d6" stroke-width="0.75" />
</svg>