<svg width="960.0px" height="225.0px" xmlns="http://www.w3.org/2000/svg" version="1.1">

<path d="M 0.0 0.0 L 960.0 0.0 L 960.0 225.0 L 0.0 225.0 L 0.0 0.0 Z" fill="#ffffff" stroke="none" stroke-width="1.0" /><g transform="translate(20.0,20.0)">
<path d="M 0.0 0.0 L 271.0 0.0 L 271.0 194.0 L 0.0 194.0 L 0.0 0.0 Z" fill="#ffffff" stroke="none" stroke-width="1.0" />
<path d="M 0.0 38.0 L 271.0 38.0 M 0.0 46.0 L 271.0 46.0 M 0.0 54.0 L 271.0 54.0 M 0.0 62.0 L 271.0 62.0 M 0.0 70.0 L 271.0 70.0 Z" fill="none" stroke="#d6d6d6" stroke-width="0.75" />
<path d="M 0.0 123.0 L 271.0 123.0 M 0.0 133.0 L 271.0 133.0 M 0.0 143.0 L 271.0 143.0 M 0.0 153.0 L 271.0 153.0 M 0.0 163.0 L 271.0 163.0 M 0.0 173.0 L 271.0 173.0 Z" fill="none" stroke="#d6d6d6" stroke-width="0.75" />
<path d="M 67.77043 38.40856 C 68.324905 38.40856 68.821014 38.350193 69.25876 38.20428 C 69.6965 38.058365 69.959145 38.0 70.04669 38.0 C 70.192604 38.0 70.28015 38.029182 70.36771 38.11673 C 70.42607 38.1751 70.45525 38.233463 70.484436 38.32101 C 70.484436 38.37938 70.45525 38.437744 70.42607 38.49611 L 61.933853 48.35992 L 66.924126 48.35992 L 66.924126 44.449417 C 66.924126 44.18677 67.01167 43.95331 67.1284 43.807392 C 67.3035 43.661476 67.4786 43.515564 67.71206 43.4572 C 67.97471 43.340466 68.26653 43.07782 68.64591 42.640076 C 68.937744 42.319065 69.317116 41.706226 69.75486 40.801556 C 69.81323 40.684826 69.90078 40.626457 70.01751 40.626457 C 70.28015 40.626457 70.39688 40.772373 70.42607 41.03502 L 70.42607 48.35992 L 72.55642 48.35992 C 72.84825 48.35992 72.99416 48.505836 73.023346 48.797665 C 73.023346 49.089493 72.877426 49.235405 72.55642 49.235405 L 70.42607 49.235405 L 70.42607 49.468872 C 70.42607 50.28599 70.63035 50.928013 71.00973 51.45331 C 71.44747 51.9786 71.97276 52.270428 72.5856 52.270428 C 72.81906 52.270428 72.9358 52.387157 72.9358 52.62062 C 72.9358 52.854084 72.81906 52.970818 72.5856 52.970818 C 72.14786 52.970818 71.50584 52.91245 70.601166 52.79572 C 69.696495 52.649803 69.054474 52.59144 68.64591 52.59144 C 68.23735 52.59144 67.56615 52.649803 66.69066 52.79572 C 65.81517 52.91245 65.17315 52.970818 64.735405 52.970818 C 64.501945 52.970818 64.385216 52.854084 64.385216 52.62062 C 64.385216 52.387157 64.501945 52.270428 64.735405 52.270428 C 65.34825 52.270428 65.87354 51.9786 66.31128 51.45331 C 66.71984 50.89883 66.924126 50.25681 66.924126 49.468872 L 66.924126 49.235405 L 61.933853 49.235405 C 61.61284 49.235405 61.379375 49.17704 61.233463 49.001945 C 61.087547 48.885212 61.0 48.710114 61.0 48.53502 C 61.0 48.476654 61.145912 48.272373 61.437744 47.92218 C 61.729572 47.571983 62.079765 47.105057 62.488327 46.492218 C 62.488327 46.492218 63.305447 45.20817 63.71401 44.449417 C 63.71401 44.449417 64.47276 42.78599 64.735405 41.706226 C 65.02724 40.65564 65.17315 39.575874 65.17315 38.49611 C 65.17315 38.175095 65.31907 38.029182 65.58171 38.029182 C 65.61089 38.029182 65.756805 38.058365 65.96109 38.11673 C 66.16537 38.175095 66.4572 38.233463 66.77821 38.32101 C 67.1284 38.379375 67.44942 38.408558 67.77043 38.408558 Z" fill="#000000" stroke="none" stroke-width="0.75" />
<path d="M 67.77043 55.40856 C 68.324905 55.40856 68.821014 55.350193 69.25876 55.20428 C 69.6965 55.058365 69.959145 55.0 70.04669 55.0 C 70.192604 55.0 70.28015 55.029182 70.36771 55.11673 C 70.42607 55.1751 70.45525 55.233463 70.484436 55.32101 C 70.484436 55.37938 70.45525 55.437744 70.42607 55.49611 L 61.933853 65.359924 L 66.924126 65.359924 L 66.924126 61.449417 C 66.924126 61.18677 67.01167 60.95331 67.1284 60.807392 C 67.3035 60.661476 67.4786 60.515564 67.71206 60.4572 C 67.97471 60.340466 68.26653 60.07782 68.64591 59.640076 C 68.937744 59.319065 69.317116 58.706226 69.75486 57.801556 C 69.81323 57.684826 69.90078 57.626457 70.01751 57.626457 C 70.28015 57.626457 70.39688 57.772373 70.42607 58.03502 L 70.42607 65.359924 L 72.55642 65.359924 C 72.84825 65.359924 72.99416 65.50584 73.023346 65.79767 C 73.023346 66.08949 72.877426 66.235405 72.55642 66.235405 L 70.42607 66.235405 L 70.42607 66.46887 C 70.42607 67.28599 70.63035 67.92802 71.00973 68.45331 C 71.44747 68.9786 71.97276 69.270424 72.5856 69.270424 C 72.81906 69.270424 72.9358 69.38716 72.9358 69.62062 C 72.9358 69.85408 72.81906 69.97082 72.5856 69.97082 C 72.14786 69.97082 71.50584 69.91245 70.601166 69.795715 C 69.696495 69.6498 69.054474 69.59144 68.64591 69.59144 C 68.23735 69.59144 67.56615 69.6498 66.69066 69.795715 C 65.81517 69.91245 65.17315 69.97082 64.735405 69.97082 C 64.501945 69.97082 64.385216 69.85408 64.385216 69.62062 C 64.385216 69.38716 64.501945 69.270424 64.735405 69.270424 C 65.34825 69.270424 65.87354 68.9786 66.31128 68.45331 C 66.71984 67.898834 66.924126 67.256805 66.924126 66.46887 L 66.924126 66.235405 L 61.933853 66.235405 C 61.61284 66.235405 61.379375 66.17704 61.233463 66.001945 C 61.087547 65.88521 61.0 65.71011 61.0 65.53502 C 61.0 65.476654 61.145912 65.27237 61.437744 64.92218 C 61.729572 64.57198 62.079765 64.10506 62.488327 63.492218 C 62.488327 63.492218 63.305447 62.20817 63.71401 61.449417 C 63.71401 61.449417 64.47276 59.78599 64.735405 58.706226 C 65.02724 57.65564 65.17315 56.575874 65.17315 55.49611 C 65.17315 55.175095 65.31907 55.029182 65.58171 55.029182 C 65.61089 55.029182 65.756805 55.058365 65.96109 55.11673 C 66.16537 55.175095 66.4572 55.233463 66.77821 55.32101 C 67.1284 55.379375 67.44942 55.408558 67.77043 55.408558 Z" fill="#000000" stroke="none" stroke-width="0.75" />
<path d="M 22.764973 30.115383 C 22.921913 30.036913 22.948072 30.036913 23.105015 30.036913 C 23.314268 30.06307 23.445057 30.14154 23.73278 30.455425 C 25.616081 32.39104 27.185501 35.843758 27.577856 38.773342 C 27.630169 39.244167 27.630169 40.34276 27.577856 40.839737 C 27.29013 43.533905 26.165377 45.99266 23.57584 49.52385 L 23.209644 50.020832 L 23.418898 50.62244 C 23.915882 52.061073 24.491331 53.81359 24.85753 55.095284 C 24.96216 55.409164 25.04063 55.67074 25.04063 55.696896 C 25.04063 55.696896 25.223728 55.696896 25.406826 55.723053 C 26.322319 55.80152 27.10703 56.01078 27.917896 56.40313 C 28.57182 56.74317 29.147274 57.13552 29.696568 57.658665 C 30.29818 58.260277 30.690535 58.80957 31.05673 59.568123 C 31.606026 60.666718 31.84144 61.81762 31.81528 62.96853 C 31.789125 63.700924 31.684496 64.25022 31.449085 64.930305 C 31.1352 65.92426 30.559748 66.83976 29.77504 67.624466 C 29.094955 68.30455 28.46719 68.72306 27.630169 69.0631 L 27.316284 69.193886 L 27.316284 70.13554 C 27.316284 71.46954 27.237814 73.038956 27.133184 73.980606 C 27.02856 74.94841 26.766989 75.86391 26.348476 76.700935 C 25.249886 78.92427 23.314268 80.10133 21.143244 79.89209 C 18.684484 79.65667 16.69656 77.98262 16.199577 75.73312 C 15.964161 74.713 16.068794 73.9283 16.487303 73.27437 C 17.036598 72.411194 18.082878 71.914215 19.102997 71.94037 C 20.30622 71.99268 21.274027 72.934326 21.457123 74.24218 C 21.58791 75.28845 21.143244 76.25626 20.30622 76.7794 C 19.835394 77.06713 19.181469 77.197914 18.684484 77.119446 C 18.606018 77.119446 18.527544 77.093285 18.527544 77.119446 L 18.84143 77.43333 C 19.416882 78.00878 20.070807 78.374985 20.907831 78.558075 C 21.090927 78.584236 21.247868 78.584236 21.666382 78.584236 C 22.137207 78.584236 22.189518 78.584236 22.451088 78.53192 C 22.81729 78.42729 23.131172 78.29651 23.418898 78.139565 C 24.726748 77.35486 25.616081 75.73312 25.851494 73.77136 C 25.929964 73.038956 26.008434 71.46954 26.008434 70.318634 C 26.008434 69.56009 26.008434 69.50777 25.956123 69.50777 C 25.851494 69.56009 25.302197 69.6124 24.909843 69.63855 C 24.41286 69.66471 23.57584 69.66471 23.183485 69.6124 C 21.640223 69.4293 20.227747 68.90616 18.998373 68.04298 C 17.167385 66.76129 15.859535 64.85182 15.31024 62.654644 C 14.604002 59.908165 15.100986 56.978584 16.827343 53.89206 C 17.55974 52.610374 18.265978 51.564095 20.018494 49.236122 L 21.012455 47.902122 L 20.829355 47.405136 C 19.573822 44.083202 19.15531 42.173744 19.024527 39.401108 C 18.972214 38.197887 19.024527 37.17776 19.181469 36.34074 C 19.573822 34.14356 20.593945 32.181786 22.189518 30.612366 C 22.503403 30.298483 22.63419 30.193855 22.764973 30.115383 M 24.831371 34.588226 C 24.569805 34.14356 24.622118 34.169712 24.386707 34.32666 C 23.65431 34.771324 22.89576 35.451405 22.34646 36.131485 C 21.221714 37.57012 20.593945 39.244167 20.515476 41.048996 C 20.489319 41.78139 20.56779 42.252216 20.907831 43.37696 C 21.169397 44.292458 21.901793 46.5158 21.95411 46.56811 C 21.95411 46.59427 22.111048 46.411175 22.26799 46.17576 C 24.072823 43.58622 25.04063 41.467506 25.406826 39.348793 C 25.485298 38.799496 25.53761 38.354828 25.563768 37.727062 C 25.589928 36.28843 25.432985 35.58219 24.831371 34.588226 M 22.581877 52.191864 C 22.424934 51.694878 22.26799 51.302525 22.26799 51.302525 C 22.241835 51.302525 21.143244 52.76731 20.672415 53.421238 C 19.129156 55.592266 18.187506 57.34478 17.638206 59.071136 C 17.27201 60.143574 17.115068 61.137543 17.062756 62.236134 C 17.062756 62.837746 17.088915 63.20394 17.193539 63.64861 C 17.795153 65.97658 20.280064 67.88603 23.209644 68.30455 C 23.65431 68.35686 24.909843 68.35686 25.459139 68.30455 C 26.008434 68.226074 25.956123 68.252235 25.929964 68.01682 C 25.773026 65.531906 25.563768 64.0148 25.14526 61.765305 C 24.988314 60.823658 24.543648 58.835728 24.517488 58.80957 C 24.491331 58.783417 23.99435 58.835728 23.706627 58.9142 C 23.340427 58.99267 23.105015 59.071136 22.79113 59.22808 C 21.090927 60.091263 20.593945 62.053036 21.666382 63.64861 C 21.849482 63.91018 22.320305 64.381004 22.608032 64.5641 C 22.71266 64.64258 22.948072 64.799515 23.105015 64.87799 C 23.340427 65.00877 23.392738 65.06108 23.445057 65.16571 C 23.65431 65.50575 23.523525 65.92426 23.131172 66.10736 C 22.921913 66.21199 22.764973 66.18584 22.34646 65.97658 C 21.326344 65.4796 20.56779 64.799515 20.018494 63.962494 C 18.998373 62.393074 18.867586 60.37899 19.70461 58.678787 C 20.437006 57.213997 21.744852 56.22003 23.418898 55.853836 C 23.57584 55.80152 23.706627 55.775368 23.706627 55.775368 C 23.73278 55.749207 23.000385 53.368923 22.581877 52.191864 M 26.139221 58.94036 C 26.060753 58.94036 25.98228 58.9142 25.956123 58.9142 L 25.877651 58.88804 L 26.008434 59.43734 C 26.610046 62.07919 27.054714 64.95645 27.211655 67.38905 C 27.237814 67.65063 27.237814 67.85988 27.237814 67.85988 C 27.263973 67.85988 27.60401 67.70294 27.78711 67.57216 C 28.231777 67.31058 28.65029 66.91823 28.99033 66.47356 C 29.801197 65.40112 30.08892 64.06712 29.77504 62.706955 C 29.539627 61.608364 28.911861 60.58824 28.022522 59.882008 C 27.473227 59.463493 26.740831 59.097298 26.139221 58.94036 Z" fill="#000000" stroke="none" stroke-width="0.75" />
<path d="M 92.0 78.0 L 108.0 78.0 Z" fill="none" stroke="#d6d6d6" stroke-width="0.75" />
<path d="M 92.0 78.0 L 108.0 78.0 Z" fill="none" stroke="#d6d6d6" stroke-width="0.75" />
<path d="M 95.52 79.232 C 95.52 80.456 96.715195 81.68 97.895996 81.68 C 101.495995 81.68 105.09599 79.232 105.09599 76.856 C 105.09599 75.6752 103.871994 74.48 102.71999 74.48 C 99.119995 74.48 95.52 76.856 95.52 79.232 Z" fill="#404040" stroke="none" stroke-width="1.0" />
<path d="M 94.0 159.25 L 102.0 159.25 L 102.0 166.75 L 94.0 166.75 L 94.0 159.25 Z" fill="#ffffff" stroke="none" stroke-width="1.0" />
<text x='94.0' y='166.75' font-family="Default" font-size="10.0" fill="#404040" >3</text>
<path d="M 104.18 77.04 L 105.18 77.04 L 105.18 40.0 L 104.18 40.0 M 104.18 77.04 Z" fill="#404040" stroke="none" stroke-width="0.75" />
<path d="M 104.18 38.0 L 104.18 42.0 L 125.18 32.0 L 125.18 28.0 L 104.18 38.0 Z" fill="#404040" stroke="none" stroke-width="0.75" />
<path d="M 115.52 63.232 C 115.52 64.456 116.715195 65.68 117.895996 65.68 C 121.495995 65.68 125.09599 63.232 125.09599 60.856 C 125.09599 59.6752 123.871994 58.48 122.71999 58.48 C 119.119995 58.48 115.52 60.856 115.52 63.232 Z" fill="#404040" stroke="none" stroke-width="1.0" />
<path d="M 114.0 149.25 L 122.0 149.25 L 122.0 156.75 L 114.0 156.75 L 114.0 149.25 Z" fill="#ffffff" stroke="none" stroke-width="1.0" />
<text x='114.0' y='156.75' font-family="Default" font-size="10.0" fill="#404040" >5</text>
<path d="M 124.18 61.04 L 125.18 61.04 L 125.18 30.0 L 124.18 30.0 M 124.18 61.04 Z" fill="#404040" stroke="none" stroke-width="0.75" />
<path d="M 135.52 43.232 C 135.52 44.456 136.71521 45.68 137.89601 45.68 C 141.496 45.68 145.09601 43.232 145.09601 40.856 C 145.09601 39.6752 143.87201 38.48 142.72 38.48 C 139.12001 38.48 135.52 40.856 135.52 43.232 Z" fill="#404040" stroke="none" stroke-width="1.0" />
<path d="M 134.0 129.25 L 142.0 129.25 L 142.0 136.75 L 134.0 136.75 L 134.0 129.25 Z" fill="#ffffff" stroke="none" stroke-width="1.0" />
<text x='134.0' y='136.75' font-family="Default" font-size="10.0" fill="#404040" >5</text>
<path d="M 135.5 42.96 L 136.5 42.96 L 136.5 83.0 L 135.5 83.0 M 135.5 42.96 Z" fill="#404040" stroke="none" stroke-width="0.75" />
<path d="M 135.5 81.0 L 135.5 85.0 L 156.5 95.0 L 156.5 91.0 L 135.5 81.0 Z" fill="#404040" stroke="none" stroke-width="0.75" />
<path d="M 155.52 63.232 C 155.52 64.456 156.71521 65.68 157.89601 65.68 C 161.496 65.68 165.09601 63.232 165.09601 60.856 C 165.09601 59.6752 163.87201 58.48 162.72 58.48 C 159.12001 58.48 155.52 60.856 155.52 63.232 Z" fill="#404040" stroke="none" stroke-width="1.0" />
<path d="M 154.0 149.25 L 162.0 149.25 L 162.0 156.75 L 154.0 156.75 L 154.0 149.25 Z" fill="#ffffff" stroke="none" stroke-width="1.0" />
<text x='154.0' y='156.75' font-family="Default" font-size="10.0" fill="#404040" >5</text>
<path d="M 155.5 62.96 L 156.5 62.96 L 156.5 93.0 L 155.5 93.0 M 155.5 62.96 Z" fill="#404040" stroke="none" stroke-width="0.75" />
<path d="M 172.0 78.0 L 188.0 78.0 Z" fill="none" stroke="#d6d6d6" stroke-width="0.75" />
<path d="M 172.0 86.0 L 188.0 86.0 Z" fill="none" stroke="#d6d6d6" stroke-width="0.75" />
<path d="M 172.0 78.0 L 188.0 78.0 Z" fill="none" stroke="#d6d6d6" stroke-width="0.75" />
<path d="M 172.0 86.0 L 188.0 86.0 Z" fill="none" stroke="#d6d6d6" stroke-width="0.75" />
<path d="M 175.52 91.232 C 175.52 92.456 176.71521 93.68 177.89601 93.68 C 181.496 93.68 185.09601 91.232 185.09601 88.856 C 185.09601 87.6752 183.87201 86.48 182.72 86.48 C 179.12001 86.48 175.52 88.856 175.52 91.232 Z" fill="#404040" stroke="none" stroke-width="1.0" />
<path d="M 174.0 169.25 L 182.0 169.25 L 182.0 176.75 L 174.0 176.75 L 174.0 169.25 Z" fill="#ffffff" stroke="none" stroke-width="1.0" />
<text x='174.0' y='176.75' font-family="Default" font-size="10.0" fill="#404040" >3</text>
<path d="M 184.18 89.04 L 185.18 89.04 L 185.18 52.0 L 184.18 52.0 M 184.18 89.04 Z" fill="#404040" stroke="none" stroke-width="0.75" />
<path d="M 184.18 50.0 L 184.18 54.0 L 205.18 44.0 L 205.18 40.0 L 184.18 50.0 Z" fill="#404040" stroke="none" stroke-width="0.75" />
<path d="M 195.52 75.232 C 195.52 76.456 196.71521 77.68 197.89601 77.68 C 201.496 77.68 205.09601 75.232 205.09601 72.856 C 205.09601 71.6752 203.87201 70.48 202.72 70.48 C 199.12001 70.48 195.52 72.856 195.52 75.232 Z" fill="#404040" stroke="none" stroke-width="1.0" />
<path d="M 194.0 159.25 L 202.0 159.25 L 202.0 166.75 L 194.0 166.75 L 194.0 159.25 Z" fill="#ffffff" stroke="none" stroke-width="1.0" />
<text x='194.0' y='166.75' font-family="Default" font-size="10.0" fill="#404040" >5</text>
<path d="M 204.18 73.04 L 205.18 73.04 L 205.18 42.0 L 204.18 42.0 M 204.18 73.04 Z" fill="#404040" stroke="none" stroke-width="0.75" />
<path d="M 215.52 55.232 C 215.52 56.456 216.71521 57.68 217.89601 57.68 C 221.496 57.68 225.09601 55.232 225.09601 52.856 C 225.09601 51.6752 223.87201 50.48 222.72 50.48 C 219.12001 50.48 215.52 52.856 215.52 55.232 Z" fill="#404040" stroke="none" stroke-width="1.0" />
<path d="M 214.0 139.25 L 222.0 139.25 L 222.0 146.75 L 214.0 146.75 L 214.0 139.25 Z" fill="#ffffff" stroke="none" stroke-width="1.0" />
<text x='214.0' y='146.75' font-family="Default" font-size="10.0" fill="#404040" >4</text>
<path d="M 224.18 53.04 L 225.18 53.04 L 225.18 22.0 L 224.18 22.0 M 224.18 53.04 Z" fill="#404040" stroke="none" stroke-width="0.75" />
<path d="M 224.18 20.0 L 224.18 24.0 L 245.18 34.0 L 245.18 30.0 L 224.18 20.0 Z" fill="#404040" stroke="none" stroke-width="0.75" />
<path d="M 235.52 75.232 C 235.52 76.456 236.71521 77.68 237.89601 77.68 C 241.496 77.68 245.09601 75.232 245.09601 72.856 C 245.09601 71.6752 243.87201 70.48 242.72 70.48 C 239.12001 70.48 235.52 72.856 235.52 75.232 Z" fill="#404040" stroke="none" stroke-width="1.0" />
<path d="M 234.0 159.25 L 242.0 159.25 L 242.0 166.75 L 234.0 166.75 L 234.0 159.25 Z" fill="#ffffff" stroke="none" stroke-width="1.0" />
<text x='234.0' y='166.75' font-family="Default" font-size="10.0" fill="#404040" >5</text>
<path d="M 244.18 73.04 L 245.18 73.04 L 245.18 32.0 L 244.18 32.0 M 244.18 73.04 Z" fill="#404040" stroke="none" stroke-width="0.75" /></g>
<path d="M 35.35 44.3 C 35.35 45.15 36.18 46.0 37.0 46.0 C 39.5 46.0 42.0 44.3 42.0 42.65 C 42.0 41.83 41.149998 41.0 40.35 41.0 C 37.85 41.0 35.35 42.65 35.35 44.3 Z" fill="#000000" stroke="none" stroke-width="1.0" />
<path d="M 42.0 28.0 L 42.0 42.7 Z" fill="none" stroke="#000000" stroke-width="1.0" />
<text x='43.0' y='44.25' font-family="Default" font-size="10.0" fill="#000000" > = 96</text>
<text x='21.0' y='56.0' font-family="Default" font-size="10.0" fill="#ff0000" >1</text>
<path d="M 20.0 58.0 L 23.0 58.0 L 23.0 143.0 L 20.0 143.0 L 20.0 58.0 Z" fill="#000000" stroke="#000000" stroke-width="0.75" />
<path d="M 25.0 58.0 L 26.0 58.0 L 26.0 143.0 L 25.0 143.0 L 25.0 58.0 Z" fill="#000000" stroke="#000000" stroke-width="0.75" />
<path d="M 31.0 70.0 M 29.0 70.0 a 2.0 2.0 0 1 0 4.0 0 2.0 2.0 0 1 0 -4.0 0 M 31.0 78.0 M 29.0 78.0 a 2.0 2.0 0 1 0 4.0 0 2.0 2.0 0 1 0 -4.0 0 Z" fill="#000000" stroke="none" stroke-width="1.0" />
<path d="M 291.0 58.0 L 291.0 90.0 Z" fill="#000000" stroke="#000000" stroke-width="0.75" />
<path d="M 20.0 143.0 L 23.0 143.0 L 23.0 193.0 L 20.0 193.0 L 20.0 143.0 Z" fill="#000000" stroke="#000000" stroke-width="0.75" />
<path d="M 25.0 143.0 L 26.0 143.0 L 26.0 193.0 L 25.0 193.0 L 25.0 143.0 Z" fill="#000000" stroke="#000000" stroke-width="0.75" />
<path d="M 31.0 164.0 M 29.0 164.0 a 2.0 2.0 0 1 0 4.0 0 2.0 2.0 0 1 0 -4.0 0 M 31.0 172.0 M 29.0 172.0 a 2.0 2.0 0 1 0 4.0 0 2.0 2.0 0 1 0 -4.0 0 Z" fill="#000000" stroke="none" stroke-width="1.0" />
<path d="M 291.0 143.0 L 291.0 193.0 Z" fill="#000000" stroke="#000000" stroke-width="0.75" /><g transform="translate(291.0,20.0)">
<path d="M 0.0 0.0 L 220.0 0.0 L 220.0 194.0 L 0.0 194.0 L 0.0 0.0 Z" fill="#ffffff" stroke="none" stroke-width="1.0" />
<path d="M 0.0 38.0 L 220.0 38.0 M 0.0 46.0 L 220.0 46.0 M 0.0 54.0 L 220.0 54.0 M 0.0 62.0 L 220.0 62.0 M 0.0 70.0 L 220.0 70.0 Z" fill="none" stroke="#d6d6d6" stroke-width="0.75" />
<path d="M 0.0 123.0 L 220.0 123.0 M 0.0 133.0 L 220.0 133.0 M 0.0 143.0 L 220.0 143.0 M 0.0 153.0 L 220.0 153.0 M 0.0 163.0 L 220.0 163.0 M 0.0 173.0 L 220.0 173.0 Z" fill="none" stroke="#d6d6d6" stroke-width="0.75" />
<path d="M 21.0 78.0 L 37.0 78.0 Z" fill="none" stroke="#d6d6d6" stroke-width="0.75" />
<path d="M 21.0 86.0 L 37.0 86.0 Z" fill="none" stroke="#d6d6d6" stroke-width="0.75" />
<path d="M 21.0 94.0 L 37.0 94.0 Z" fill="none" stroke="#d6d6d6" stroke-width="0.75" />
<path d="M 21.0 78.0 L 37.0 78.0 Z" fill="none" stroke="#d6d6d6" stroke-width="0.75" />
<path d="M 21.0 86.0 L 37.0 86.0 Z" fill="none" stroke="#d6d6d6" stroke-width="0.75" />
<path d="M 21.0 94.0 L 37.0 94.0 Z" fill="none" stroke="#d6d6d6" stroke-width="0.75" />
<path d="M 24.52 95.232 C 24.52 96.456 25.7152 97.68 26.896 97.68 C 30.496 97.68 34.096 95.232 34.096 92.856 C 34.096 91.6752 32.872 90.48 31.720001 90.48 C 28.12 90.48 24.52 92.856 24.52 95.232 Z" fill="#404040" stroke="none" stroke-width="1.0" />
<path d="M 23.0 169.25 L 31.0 169.25 L 31.0 176.75 L 23.0 176.75 L 23.0 169.25 Z" fill="#ffffff" stroke="none" stroke-width="1.0" />
<text x='23.0' y='176.75' font-family="Default" font-size="10.0" fill="#404040" >1</text>
<path d="M 33.18 93.04 L 34.18 93.04 L 34.18 56.0 L 33.18 56.0 M 33.18 93.04 Z" fill="#404040" stroke="none" stroke-width="0.75" />
<path d="M 33.18 54.0 L 33.18 58.0 L 54.18 48.0 L 54.18 44.0 L 33.18 54.0 Z" fill="#404040" stroke="none" stroke-width="0.75" />
<path d="M 41.0 78.0 L 57.0 78.0 Z" fill="none" stroke="#d6d6d6" stroke-width="0.75" />
<path d="M 41.0 78.0 L 57.0 78.0 Z" fill="none" stroke="#d6d6d6" stroke-width="0.75" />
<path d="M 44.52 79.232 C 44.52 80.456 45.715202 81.68 46.896 81.68 C 50.496002 81.68 54.096 79.232 54.096 76.856 C 54.096 75.6752 52.872 74.48 51.72 74.48 C 48.12 74.48 44.52 76.856 44.52 79.232 Z" fill="#404040" stroke="none" stroke-width="1.0" />
<path d="M 43.0 159.25 L 51.0 159.25 L 51.0 166.75 L 43.0 166.75 L 43.0 159.25 Z" fill="#ffffff" stroke="none" stroke-width="1.0" />
<text x='43.0' y='166.75' font-family="Default" font-size="10.0" fill="#404040" >3</text>
<path d="M 53.18 77.04 L 54.18 77.04 L 54.18 46.0 L 53.18 46.0 M 53.18 77.04 Z" fill="#404040" stroke="none" stroke-width="0.75" />
<path d="M 64.52 59.232 C 64.52 60.456 65.715195 61.68 66.895996 61.68 C 70.495995 61.68 74.09599 59.232 74.09599 56.856 C 74.09599 55.6752 72.871994 54.48 71.71999 54.48 C 68.119995 54.48 64.52 56.856 64.52 59.232 Z" fill="#404040" stroke="none" stroke-width="1.0" />
<path d="M 63.0 139.25 L 71.0 139.25 L 71.0 146.75 L 63.0 146.75 L 63.0 139.25 Z" fill="#ffffff" stroke="none" stroke-width="1.0" />
<text x='63.0' y='146.75' font-family="Default" font-size="10.0" fill="#404040" >2</text>
<path d="M 73.18 57.04 L 74.18 57.04 L 74.18 26.0 L 73.18 26.0 M 73.18 57.04 Z" fill="#404040" stroke="none" stroke-width="0.75" />
<path d="M 73.18 24.0 L 73.18 28.0 L 94.18 38.0 L 94.18 34.0 L 73.18 24.0 Z" fill="#404040" stroke="none" stroke-width="0.75" />
<path d="M 81.0 78.0 L 97.0 78.0 Z" fill="none" stroke="#d6d6d6" stroke-width="0.75" />
<path d="M 81.0 78.0 L 97.0 78.0 Z" fill="none" stroke="#d6d6d6" stroke-width="0.75" />
<path d="M 84.52 79.232 C 84.52 80.456 85.715195 81.68 86.895996 81.68 C 90.495995 81.68 94.09599 79.232 94.09599 76.856 C 94.09599 75.6752 92.871994 74.48 91.71999 74.48 C 88.119995 74.48 84.52 76.856 84.52 79.232 Z" fill="#404040" stroke="none" stroke-width="1.0" />
<path d="M 83.0 159.25 L 91.0 159.25 L 91.0 166.75 L 83.0 166.75 L 83.0 159.25 Z" fill="#ffffff" stroke="none" stroke-width="1.0" />
<text x='83.0' y='166.75' font-family="Default" font-size="10.0" fill="#404040" >3</text>
<path d="M 93.18 77.04 L 94.18 77.04 L 94.18 36.0 L 93.18 36.0 M 93.18 77.04 Z" fill="#404040" stroke="none" stroke-width="0.75" />
<path d="M 104.52 75.232 C 104.52 76.456 105.715195 77.68 106.895996 77.68 C 110.495995 77.68 114.09599 75.232 114.09599 72.856 C 114.09599 71.6752 112.871994 70.48 111.71999 70.48 C 108.119995 70.48 104.52 72.856 104.52 75.232 Z" fill="#404040" stroke="none" stroke-width="1.0" />
<path d="M 103.0 159.25 L 111.0 159.25 L 111.0 166.75 L 103.0 166.75 L 103.0 159.25 Z" fill="#ffffff" stroke="none" stroke-width="1.0" />
<text x='103.0' y='166.75' font-family="Default" font-size="10.0" fill="#404040" >5</text>
<path d="M 113.18 73.04 L 114.18 73.04 L 114.18 36.0 L 113.18 36.0 M 113.18 73.04 Z" fill="#404040" stroke="none" stroke-width="0.75" />
<path d="M 113.18 34.0 L 113.18 38.0 L 134.18 28.0 L 134.18 24.0 L 113.18 34.0 Z" fill="#404040" stroke="none" stroke-width="0.75" />
<path d="M 124.52 59.232 C 124.52 60.456 125.715195 61.68 126.895996 61.68 C 130.496 61.68 134.096 59.232 134.096 56.856 C 134.096 55.6752 132.872 54.48 131.72 54.48 C 128.12 54.48 124.52 56.856 124.52 59.232 Z" fill="#404040" stroke="none" stroke-width="1.0" />
<path d="M 123.0 149.25 L 131.0 149.25 L 131.0 156.75 L 123.0 156.75 L 123.0 149.25 Z" fill="#ffffff" stroke="none" stroke-width="1.0" />
<text x='123.0' y='156.75' font-family="Default" font-size="10.0" fill="#404040" >7</text>
<path d="M 133.18 57.04 L 134.18 57.04 L 134.18 26.0 L 133.18 26.0 M 133.18 57.04 Z" fill="#404040" stroke="none" stroke-width="0.75" />
<path d="M 144.52 39.232 C 144.52 40.456 145.71521 41.68 146.89601 41.68 C 150.496 41.68 154.09601 39.232 154.09601 36.856 C 154.09601 35.6752 152.87201 34.48 151.72 34.48 C 148.12001 34.48 144.52 36.856 144.52 39.232 Z" fill="#404040" stroke="none" stroke-width="1.0" />
<path d="M 143.0 129.25 L 151.0 129.25 L 151.0 136.75 L 143.0 136.75 L 143.0 129.25 Z" fill="#ffffff" stroke="none" stroke-width="1.0" />
<text x='143.0' y='136.75' font-family="Default" font-size="10.0" fill="#404040" >6</text>
<path d="M 144.5 38.96 L 145.5 38.96 L 145.5 79.0 L 144.5 79.0 M 144.5 38.96 Z" fill="#404040" stroke="none" stroke-width="0.75" />
<path d="M 144.5 77.0 L 144.5 81.0 L 165.5 91.0 L 165.5 87.0 L 144.5 77.0 Z" fill="#404040" stroke="none" stroke-width="0.75" />
<path d="M 164.52 59.232 C 164.52 60.456 165.71521 61.68 166.89601 61.68 C 170.496 61.68 174.09601 59.232 174.09601 56.856 C 174.09601 55.6752 172.87201 54.48 171.72 54.48 C 168.12001 54.48 164.52 56.856 164.52 59.232 Z" fill="#404040" stroke="none" stroke-width="1.0" />
<path d="M 163.0 149.25 L 171.0 149.25 L 171.0 156.75 L 163.0 156.75 L 163.0 149.25 Z" fill="#ffffff" stroke="none" stroke-width="1.0" />
<text x='163.0' y='156.75' font-family="Default" font-size="10.0" fill="#404040" >7</text>
<path d="M 164.5 58.96 L 165.5 58.96 L 165.5 89.0 L 164.5 89.0 M 164.5 58.96 Z" fill="#404040" stroke="none" stroke-width="0.75" /></g>
<text x='292.0' y='56.0' font-family="Default" font-size="10.0" fill="#ff0000" >2</text>
<path d="M 291.0 58.0 L 291.0 90.0 Z" fill="#000000" stroke="#000000" stroke-width="0.75" />
<path d="M 505.0 58.0 L 506.0 58.0 L 506.0 90.0 L 505.0 90.0 L 505.0 58.0 Z" fill="#000000" stroke="#000000" stroke-width="0.75" />
<path d="M 508.0 58.0 L 511.0 58.0 L 511.0 90.0 L 508.0 90.0 L 508.0 58.0 Z" fill="#000000" stroke="#000000" stroke-width="0.75" />
<path d="M 500.0 70.0 M 498.0 70.0 a 2.0 2.0 0 1 0 4.0 0 2.0 2.0 0 1 0 -4.0 0 M 500.0 78.0 M 498.0 78.0 a 2.0 2.0 0 1 0 4.0 0 2.0 2.0 0 1 0 -4.0 0 Z" fill="#000000" stroke="none" stroke-width="1.0" />
<text x='492.0' y='56.0' font-family="Default" font-size="10.0" fill="#000000" >x2</text>
<path d="M 291.0 143.0 L 291.0 193.0 Z" fill="#000000" stroke="#000000" stroke-width="0.75" />
<path d="M 505.0 143.0 L 506.0 143.0 L 506.0 193.0 L 505.0 193.0 L 505.0 143.0 Z" fill="#000000" stroke="#000000" stroke-width="0.75" />
<path d="M 508.0 143.0 L 511.0 143.0 L 511.0 193.0 L 508.0 193.0 L 508.0 143.0 Z" fill="#000000" stroke="#000000" stroke-width="0.75" />
<path d="M 500.0 164.0 M 498.0 164.0 a 2.0 2.0 0 1 0 4.0 0 2.0 2.0 0 1 0 -4.0 0 M 500.0 172.0 M 498.0 172.0 a 2.0 2.0 0 1 0 4.0 0 2.0 2.0 0 1 0 -4.0 0 Z" fill="#000000" stroke="none" stroke-width="1.0" />
<path d="M 513.0 58.0 L 930.0 58.0 M 513.0 66.0 L 930.0 66.0 M 513.0 74.0 L 930.0 74.0 M 513.0 82.0 L 930.0 82.0 M 513.0 90.0 L 930.0 90.0 Z" fill="none" stroke="#d6d6d6" stroke-width="0.75" />
<path d="M 513.0 143.0 L 930.0 143.0 M 513.0 153.0 L 930.0 153.0 M 513.0 163.0 L 930.0 163.0 M 513.0 173.0 L 930.0 173.0 M 513.0 183.0 L 930.0 183.0 M 513.0 193.0 L 930.0 193.0 Z" fill="none" stroke="#d6d6d6" stroke-width="0.75" />
</svg>