<svg width="960.0px" height="223.0px" xmlns="http://www.w3.org/2000/svg" version="1.1">

<path d="M 0.0 0.0 L 960.0 0.0 L 960.0 223.0 L 0.0 223.0 L 0.0 0.0 Z" fill="#ffffff" stroke="none" stroke-width="1.0" /><g transform="translate(20.0,20.0)">
<path d="M 0.0 0.0 L 195.0 0.0 L 195.0 192.0 L 0.0 192.0 L 0.0 0.0 Z" fill="#ffffff" stroke="none" stroke-width="1.0" />
<path d="M 0.0 44.0 L 195.0 44.0 M 0.0 52.0 L 195.0 52.0 M 0.0 60.0 L 195.0 60.0 M 0.0 68.0 L 195.0 68.0 M 0.0 76.0 L 195.0 76.0 Z" fill="none" stroke="#d6d6d6" stroke-width="0.75" />
<path d="M 0.0 121.0 L 195.0 121.0 M 0.0 131.0 L 195.0 131.0 M 0.0 141.0 L 195.0 141.0 M 0.0 151.0 L 195.0 151.0 M 0.0 161.0 L 195.0 161.0 M 0.0 171.0 L 195.0 171.0 Z" fill="none" stroke="#d6d6d6" stroke-width="0.75" />
<path d="M 67.77043 44.40856 C 68.324905 44.40856 68.821014 44.350193 69.25876 44.20428 C 69.6965 44.058365 69.959145 44.0 70.04669 44.0 C 70.192604 44.0 70.28015 44.029182 70.36771 44.11673 C 70.42607 44.1751 70.45525 44.233463 70.484436 44.32101 C 70.484436 44.37938 70.45525 44.437744 70.42607 44.49611 L 61.933853 54.35992 L 66.924126 54.35992 L 66.924126 50.449417 C 66.924126 50.18677 67.01167 49.95331 67.1284 49.807392 C 67.3035 49.661476 67.4786 49.515564 67.71206 49.4572 C 67.97471 49.340466 68.26653 49.07782 68.64591 48.640076 C 68.937744 48.319065 69.317116 47.706226 69.75486 46.801556 C 69.81323 46.684826 69.90078 46.626457 70.01751 46.626457 C 70.28015 46.626457 70.39688 46.772373 70.42607 47.03502 L 70.42607 54.35992 L 72.55642 54.35992 C 72.84825 54.35992 72.99416 54.505836 73.023346 54.797665 C 73.023346 55.089493 72.877426 55.235405 72.55642 55.235405 L 70.42607 55.235405 L 70.42607 55.468872 C 70.42607 56.28599 70.63035 56.928013 71.00973 57.45331 C 71.44747 57.9786 71.97276 58.270428 72.5856 58.270428 C 72.81906 58.270428 72.9358 58.387157 72.9358 58.62062 C 72.9358 58.854084 72.81906 58.970818 72.5856 58.970818 C 72.14786 58.970818 71.50584 58.91245 70.601166 58.79572 C 69.696495 58.649803 69.054474 58.59144 68.64591 58.59144 C 68.23735 58.59144 67.56615 58.649803 66.69066 58.79572 C 65.81517 58.91245 65.17315 58.970818 64.735405 58.970818 C 64.501945 58.970818 64.385216 58.854084 64.385216 58.62062 C 64.385216 58.387157 64.501945 58.270428 64.735405 58.270428 C 65.34825 58.270428 65.87354 57.9786 66.31128 57.45331 C 66.71984 56.89883 66.924126 56.25681 66.924126 55.468872 L 66.924126 55.235405 L 61.933853 55.235405 C 61.61284 55.235405 61.379375 55.17704 61.233463 55.001945 C 61.087547 54.885212 61.0 54.710114 61.0 54.53502 C 61.0 54.476654 61.145912 54.272373 61.437744 53.92218 C 61.729572 53.571983 62.079765 53.105057 62.488327 52.492218 C 62.488327 52.492218 63.305447 51.20817 63.71401 50.449417 C 63.71401 50.449417 64.47276 48.78599 64.735405 47.706226 C 65.02724 46.65564 65.17315 45.575874 65.17315 44.49611 C 65.17315 44.175095 65.31907 44.029182 65.58171 44.029182 C 65.61089 44.029182 65.756805 44.058365 65.96109 44.11673 C 66.16537 44.175095 66.4572 44.233463 66.77821 44.32101 C 67.1284 44.379375 67.44942 44.408558 67.77043 44.408558 Z" fill="#000000" stroke="none" stroke-width="0.75" />
<path d="M 67.77043 61.40856 C 68.324905 61.40856 68.821014 61.350193 69.25876 61.20428 C 69.6965 61.058365 69.959145 61.0 70.04669 61.0 C 70.192604 61.0 70.28015 61.029182 70.36771 61.11673 C 70.42607 61.1751 70.45525 61.233463 70.484436 61.32101 C 70.484436 61.37938 70.45525 61.437744 70.42607 61.49611 L 61.933853 71.359924 L 66.924126 71.359924 L 66.924126 67.44942 C 66.924126 67.18677 67.01167 66.95331 67.1284 66.807396 C 67.3035 66.661476 67.4786 66.515564 67.71206 66.4572 C 67.97471 66.34047 68.26653 66.07782 68.64591 65.640076 C 68.937744 65.31907 69.317116 64.70622 69.75486 63.801556 C 69.81323 63.684826 69.90078 63.626457 70.01751 63.626457 C 70.28015 63.626457 70.39688 63.772373 70.42607 64.03502 L 70.42607 71.359924 L 72.55642 71.359924 C 72.84825 71.359924 72.99416 71.50584 73.023346 71.79767 C 73.023346 72.08949 72.877426 72.235405 72.55642 72.235405 L 70.42607 72.235405 L 70.42607 72.46887 C 70.42607 73.28599 70.63035 73.92802 71.00973 74.45331 C 71.44747 74.9786 71.97276 75.270424 72.5856 75.270424 C 72.81906 75.270424 72.9358 75.38716 72.9358 75.62062 C 72.9358 75.85408 72.81906 75.97082 72.5856 75.97082 C 72.14786 75.97082 71.50584 75.91245 70.601166 75.795715 C 69.696495 75.6498 69.054474 75.59144 68.64591 75.59144 C 68.23735 75.59144 67.56615 75.6498 66.69066 75.795715 C 65.81517 75.91245 65.17315 75.97082 64.735405 75.97082 C 64.501945 75.97082 64.385216 75.85408 64.385216 75.62062 C 64.385216 75.38716 64.501945 75.270424 64.735405 75.270424 C 65.34825 75.270424 65.87354 74.9786 66.31128 74.45331 C 66.71984 73.898834 66.924126 73.256805 66.924126 72.46887 L 66.924126 72.235405 L 61.933853 72.235405 C 61.61284 72.235405 61.379375 72.17704 61.233463 72.001945 C 61.087547 71.88521 61.0 71.71011 61.0 71.53502 C 61.0 71.476654 61.145912 71.27237 61.437744 70.92218 C 61.729572 70.57198 62.079765 70.10506 62.488327 69.49222 C 62.488327 69.49222 63.305447 68.20817 63.71401 67.44942 C 63.71401 67.44942 64.47276 65.78599 64.735405 64.70622 C 65.02724 63.65564 65.17315 62.575874 65.17315 61.49611 C 65.17315 61.175095 65.31907 61.029182 65.58171 61.029182 C 65.61089 61.029182 65.756805 61.058365 65.96109 61.11673 C 66.16537 61.175095 66.4572 61.233463 66.77821 61.32101 C 67.1284 61.379375 67.44942 61.408558 67.77043 61.408558 Z" fill="#000000" stroke="none" stroke-width="0.75" />
<path d="M 22.764973 36.115383 C 22.921913 36.03691 22.948072 36.03691 23.105015 36.03691 C 23.314268 36.063072 23.445057 36.14154 23.73278 36.455425 C 25.616081 38.39104 27.185501 41.843758 27.577856 44.773342 C 27.630169 45.244167 27.630169 46.34276 27.577856 46.839737 C 27.29013 49.533905 26.165377 51.99266 23.57584 55.52385 L 23.209644 56.020832 L 23.418898 56.62244 C 23.915882 58.061073 24.491331 59.81359 24.85753 61.095284 C 24.96216 61.409164 25.04063 61.67074 25.04063 61.696896 C 25.04063 61.696896 25.223728 61.696896 25.406826 61.723053 C 26.322319 61.80152 27.10703 62.01078 27.917896 62.40313 C 28.57182 62.74317 29.147274 63.13552 29.696568 63.658665 C 30.29818 64.26028 30.690535 64.80957 31.05673 65.56812 C 31.606026 66.66672 31.84144 67.81762 31.81528 68.96853 C 31.789125 69.70093 31.684496 70.25022 31.449085 70.930305 C 31.1352 71.92426 30.559748 72.83976 29.77504 73.624466 C 29.094955 74.30455 28.46719 74.72306 27.630169 75.0631 L 27.316284 75.193886 L 27.316284 76.13554 C 27.316284 77.46954 27.237814 79.038956 27.133184 79.980606 C 27.02856 80.94841 26.766989 81.86391 26.348476 82.700935 C 25.249886 84.92427 23.314268 86.10133 21.143244 85.89209 C 18.684484 85.65667 16.69656 83.98262 16.199577 81.73312 C 15.964161 80.713 16.068794 79.9283 16.487303 79.27437 C 17.036598 78.411194 18.082878 77.914215 19.102997 77.94037 C 20.30622 77.99268 21.274027 78.934326 21.457123 80.24218 C 21.58791 81.28845 21.143244 82.25626 20.30622 82.7794 C 19.835394 83.06713 19.181469 83.197914 18.684484 83.119446 C 18.606018 83.119446 18.527544 83.093285 18.527544 83.119446 L 18.84143 83.43333 C 19.416882 84.00878 20.070807 84.374985 20.907831 84.558075 C 21.090927 84.584236 21.247868 84.584236 21.666382 84.584236 C 22.137207 84.584236 22.189518 84.584236 22.451088 84.53192 C 22.81729 84.42729 23.131172 84.29651 23.418898 84.139565 C 24.726748 83.35486 25.616081 81.73312 25.851494 79.77136 C 25.929964 79.038956 26.008434 77.46954 26.008434 76.318634 C 26.008434 75.56009 26.008434 75.50777 25.956123 75.50777 C 25.851494 75.56009 25.302197 75.6124 24.909843 75.63855 C 24.41286 75.66471 23.57584 75.66471 23.183485 75.6124 C 21.640223 75.4293 20.227747 74.90616 18.998373 74.04298 C 17.167385 72.76129 15.859535 70.85182 15.31024 68.65465 C 14.604002 65.908165 15.100986 62.978584 16.827343 59.89206 C 17.55974 58.610374 18.265978 57.564095 20.018494 55.236122 L 21.012455 53.902122 L 20.829355 53.405136 C 19.573822 50.083202 19.15531 48.173744 19.024527 45.401108 C 18.972214 44.197887 19.024527 43.17776 19.181469 42.34074 C 19.573822 40.14356 20.593945 38.181786 22.189518 36.612366 C 22.503403 36.298485 22.63419 36.193855 22.764973 36.115383 M 24.831371 40.588226 C 24.569805 40.14356 24.622118 40.169712 24.386707 40.32666 C 23.65431 40.771324 22.89576 41.451405 22.34646 42.131485 C 21.221714 43.57012 20.593945 45.244167 20.515476 47.048996 C 20.489319 47.78139 20.56779 48.252216 20.907831 49.37696 C 21.169397 50.292458 21.901793 52.5158 21.95411 52.56811 C 21.95411 52.59427 22.111048 52.411175 22.26799 52.17576 C 24.072823 49.58622 25.04063 47.467506 25.406826 45.348793 C 25.485298 44.799496 25.53761 44.354828 25.563768 43.727062 C 25.589928 42.28843 25.432985 41.58219 24.831371 40.588226 M 22.581877 58.191864 C 22.424934 57.694878 22.26799 57.302525 22.26799 57.302525 C 22.241835 57.302525 21.143244 58.76731 20.672415 59.421238 C 19.129156 61.592266 18.187506 63.34478 17.638206 65.07114 C 17.27201 66.14357 17.115068 67.13754 17.062756 68.23613 C 17.062756 68.837746 17.088915 69.20394 17.193539 69.648605 C 17.795153 71.97658 20.280064 73.88603 23.209644 74.30455 C 23.65431 74.35686 24.909843 74.35686 25.459139 74.30455 C 26.008434 74.226074 25.956123 74.252235 25.929964 74.01682 C 25.773026 71.531906 25.563768 70.0148 25.14526 67.765305 C 24.988314 66.823654 24.543648 64.835724 24.517488 64.80957 C 24.491331 64.78342 23.99435 64.835724 23.706627 64.9142 C 23.340427 64.99267 23.105015 65.07114 22.79113 65.22808 C 21.090927 66.09126 20.593945 68.05304 21.666382 69.648605 C 21.849482 69.91018 22.320305 70.381004 22.608032 70.5641 C 22.71266 70.64258 22.948072 70.799515 23.105015 70.87799 C 23.340427 71.00877 23.392738 71.06108 23.445057 71.16571 C 23.65431 71.50575 23.523525 71.92426 23.131172 72.10736 C 22.921913 72.21199 22.764973 72.18584 22.34646 71.97658 C 21.326344 71.4796 20.56779 70.799515 20.018494 69.962494 C 18.998373 68.393074 18.867586 66.37899 19.70461 64.67879 C 20.437006 63.213997 21.744852 62.22003 23.418898 61.853836 C 23.57584 61.80152 23.706627 61.775368 23.706627 61.775368 C 23.73278 61.749207 23.000385 59.368923 22.581877 58.191864 M 26.139221 64.94036 C 26.060753 64.94036 25.98228 64.9142 25.956123 64.9142 L 25.877651 64.88804 L 26.008434 65.43734 C 26.610046 68.07919 27.054714 70.95645 27.211655 73.38905 C 27.237814 73.65063 27.237814 73.85988 27.237814 73.85988 C 27.263973 73.85988 27.60401 73.70294 27.78711 73.57216 C 28.231777 73.31058 28.65029 72.91823 28.99033 72.47356 C 29.801197 71.40112 30.08892 70.06712 29.77504 68.706955 C 29.539627 67.60837 28.911861 66.58824 28.022522 65.882 C 27.473227 65.46349 26.740831 65.0973 26.139221 64.94036 Z" fill="#000000" stroke="none" stroke-width="0.75" />
<path d="M 92.0 84.0 L 108.0 84.0 Z" fill="none" stroke="#d6d6d6" stroke-width="0.75" />
<path d="M 92.0 84.0 L 108.0 84.0 Z" fill="none" stroke="#d6d6d6" stroke-width="0.75" />
<path d="M 95.52 89.232 C 95.52 90.456 96.715195 91.68 97.895996 91.68 C 101.495995 91.68 105.09599 89.232 105.09599 86.856 C 105.09599 85.6752 103.871994 84.48 102.71999 84.48 C 99.119995 84.48 95.52 86.856 95.52 89.232 Z" fill="#404040" stroke="none" stroke-width="1.0" />
<path d="M 94.0 167.25 L 102.0 167.25 L 102.0 174.75 L 94.0 174.75 L 94.0 167.25 Z" fill="#ffffff" stroke="none" stroke-width="1.0" />
<text x='94.0' y='174.75' font-family="Default" font-size="10.0" fill="#404040" >7</text>
<path d="M 104.18 87.04 L 105.18 87.04 L 105.18 56.0 L 104.18 56.0 M 104.18 87.04 Z" fill="#404040" stroke="none" stroke-width="0.75" />
<path d="M 116.52 81.232 C 116.52 82.456 117.715195 83.68 118.895996 83.68 C 122.495995 83.68 126.09599 81.232 126.09599 78.856 C 126.09599 77.6752 124.871994 76.48 123.71999 76.48 C 120.119995 76.48 116.52 78.856 116.52 81.232 Z" fill="#404040" stroke="none" stroke-width="1.0" />
<path d="M 111.5 167.25 L 126.5 167.25 L 126.5 174.75 L 111.5 174.75 L 111.5 167.25 Z" fill="#ffffff" stroke="none" stroke-width="1.0" />
<text x='111.5' y='174.75' font-family="Default" font-size="10.0" fill="#404040" >10</text>
<path d="M 125.18 79.04 L 126.18 79.04 L 126.18 48.0 L 125.18 48.0 M 125.18 79.04 Z" fill="#404040" stroke="none" stroke-width="0.75" />
<path d="M 137.52 77.232 C 137.52 78.456 138.71521 79.68 139.89601 79.68 C 143.496 79.68 147.09601 77.232 147.09601 74.856 C 147.09601 73.6752 145.87201 72.48 144.72 72.48 C 141.12001 72.48 137.52 74.856 137.52 77.232 Z" fill="#404040" stroke="none" stroke-width="1.0" />
<path d="M 136.0 157.25 L 144.0 157.25 L 144.0 164.75 L 136.0 164.75 L 136.0 157.25 Z" fill="#ffffff" stroke="none" stroke-width="1.0" />
<text x='136.0' y='164.75' font-family="Default" font-size="10.0" fill="#404040" >7</text>
<path d="M 146.18 75.04 L 147.18 75.04 L 147.18 44.0 L 146.18 44.0 M 146.18 75.04 Z" fill="#404040" stroke="none" stroke-width="0.75" />
<path d="M 156.46439 65.63119 C 156.59135 65.55864 156.79088 65.61305 156.86343 65.7763 C 156.8997 65.84885 156.8997 65.90327 156.8997 67.172935 C 156.8997 67.9166 156.8997 68.51516 156.91785 68.51516 C 156.91785 68.51516 157.08109 68.44261 157.28061 68.370056 C 157.69778 68.20681 157.7522 68.188675 157.86104 68.279366 C 157.988 68.370056 157.988 68.38819 157.988 69.11372 C 157.988 69.73042 157.988 69.784836 157.95172 69.83925 C 157.93358 69.87553 157.89731 69.911804 157.87917 69.92994 C 157.8429 69.94808 157.62524 70.05691 157.3713 70.1476 L 156.91785 70.34712 L 156.8997 71.816315 C 156.8997 72.614395 156.8997 73.28551 156.91785 73.28551 C 156.91785 73.28551 157.08109 73.21295 157.28061 73.140396 C 157.69778 72.97716 157.7522 72.959015 157.86104 73.049706 C 157.988 73.140396 157.988 73.15854 157.988 73.88406 C 157.988 74.50076 157.988 74.555176 157.95172 74.60959 C 157.93358 74.64587 157.89731 74.682144 157.87917 74.70028 C 157.8429 74.71842 157.62524 74.82725 157.3713 74.91794 L 156.91785 75.11746 L 156.8997 76.64107 C 156.8997 78.01957 156.88158 78.182816 156.86343 78.23723 C 156.73647 78.45489 156.42812 78.45489 156.30115 78.23723 C 156.283 78.182816 156.26488 78.037704 156.26488 76.768036 L 156.26488 75.3714 L 155.48492 75.67974 L 154.72313 75.98809 L 154.72313 77.45728 C 154.72313 79.01717 154.72313 78.980896 154.63243 79.07159 C 154.59616 79.126 154.4692 79.18041 154.41478 79.18041 C 154.34222 79.18041 154.21526 79.126 154.17899 79.07159 C 154.08829 78.980896 154.08829 79.01717 154.08829 77.602394 C 154.08829 76.85873 154.08829 76.26017 154.07016 76.26017 C 154.07016 76.26017 153.9069 76.33272 153.70738 76.40527 C 153.2902 76.56851 153.2358 76.586655 153.12697 76.495964 C 153.0 76.40527 153.0 76.38713 153.0 75.661606 C 153.0 75.04491 153.0 74.99049 153.03627 74.93608 C 153.05441 74.8998 153.0907 74.863525 153.10883 74.84539 C 153.14511 74.82725 153.36276 74.71842 153.6167 74.62773 L 154.08829 74.42821 L 154.08829 72.959015 C 154.08829 72.160934 154.08829 71.48982 154.07016 71.48982 C 154.07016 71.48982 153.9069 71.56238 153.70738 71.63493 C 153.2902 71.79817 153.2358 71.816315 153.12697 71.725624 C 153.0 71.63493 153.0 71.61679 153.0 70.891266 C 153.0 70.27457 153.0 70.22015 153.03627 70.16573 C 153.05441 70.12946 153.0907 70.093185 153.10883 70.07504 C 153.14511 70.05691 153.36276 69.94808 153.6167 69.85739 L 154.08829 69.65787 L 154.08829 68.13426 C 154.08829 66.75576 154.10643 66.592514 154.12457 66.5381 C 154.25154 66.32044 154.55989 66.32044 154.68684 66.5381 C 154.70499 66.592514 154.72313 66.73762 154.72313 68.00729 L 154.74127 69.40393 L 155.50307 69.09558 L 156.26488 68.78723 L 156.26488 67.31804 C 156.26488 65.93954 156.26488 65.84885 156.30115 65.7763 C 156.33743 65.70374 156.3737 65.667465 156.46439 65.63119 M 156.26488 72.070244 L 156.26488 70.60105 L 155.48492 70.9094 L 154.72313 71.21775 L 154.72313 72.705086 L 154.72313 74.17428 L 154.77754 74.156136 C 154.81381 74.138 155.15845 73.9929 155.55748 73.847786 L 156.26488 73.55758 L 156.26488 72.070244 Z" fill="#404040" stroke="none" stroke-width="0.75" />
<path d="M 158.52 73.232 C 158.52 74.456 159.71521 75.68 160.89601 75.68 C 164.496 75.68 168.09601 73.232 168.09601 70.856 C 168.09601 69.6752 166.87201 68.48 165.72 68.48 C 162.12001 68.48 158.52 70.856 158.52 73.232 Z" fill="#404040" stroke="none" stroke-width="1.0" />
<path d="M 157.0 157.25 L 165.0 157.25 L 165.0 164.75 L 157.0 164.75 L 157.0 157.25 Z" fill="#ffffff" stroke="none" stroke-width="1.0" />
<text x='157.0' y='164.75' font-family="Default" font-size="10.0" fill="#404040" >9</text>
<path d="M 167.18 71.04 L 168.18 71.04 L 168.18 40.0 L 167.18 40.0 M 167.18 71.04 Z" fill="#404040" stroke="none" stroke-width="0.75" /></g>
<path d="M 35.35 50.3 C 35.35 51.15 36.18 52.0 37.0 52.0 C 39.5 52.0 42.0 50.3 42.0 48.65 C 42.0 47.83 41.149998 47.0 40.35 47.0 C 37.85 47.0 35.35 48.65 35.35 50.3 Z" fill="#000000" stroke="none" stroke-width="1.0" />
<path d="M 42.0 34.0 L 42.0 48.7 Z" fill="none" stroke="#000000" stroke-width="1.0" />
<text x='43.0' y='50.25' font-family="Default" font-size="10.0" fill="#000000" > = 120</text>
<text x='21.0' y='62.0' font-family="Default" font-size="10.0" fill="#ff0000" >1</text>
<path d="M 20.0 64.0 L 23.0 64.0 L 23.0 141.0 L 20.0 141.0 L 20.0 64.0 Z" fill="#000000" stroke="#000000" stroke-width="0.75" />
<path d="M 25.0 64.0 L 26.0 64.0 L 26.0 141.0 L 25.0 141.0 L 25.0 64.0 Z" fill="#000000" stroke="#000000" stroke-width="0.75" />
<path d="M 215.0 64.0 L 215.0 96.0 Z" fill="#000000" stroke="#000000" stroke-width="0.75" />
<path d="M 20.0 141.0 L 23.0 141.0 L 23.0 191.0 L 20.0 191.0 L 20.0 141.0 Z" fill="#000000" stroke="#000000" stroke-width="0.75" />
<path d="M 25.0 141.0 L 26.0 141.0 L 26.0 191.0 L 25.0 191.0 L 25.0 141.0 Z" fill="#000000" stroke="#000000" stroke-width="0.75" />
<path d="M 215.0 141.0 L 215.0 191.0 Z" fill="#000000" stroke="#000000" stroke-width="0.75" /><g transform="translate(215.0,20.0)">
<path d="M 0.0 0.0 L 124.0 0.0 L 124.0 192.0 L 0.0 192.0 L 0.0 0.0 Z" fill="#ffffff" stroke="none" stroke-width="1.0" />
<path d="M 0.0 44.0 L 124.0 44.0 M 0.0 52.0 L 124.0 52.0 M 0.0 60.0 L 124.0 60.0 M 0.0 68.0 L 124.0 68.0 M 0.0 76.0 L 124.0 76.0 Z" fill="none" stroke="#d6d6d6" stroke-width="0.75" />
<path d="M 0.0 121.0 L 124.0 121.0 M 0.0 131.0 L 124.0 131.0 M 0.0 141.0 L 124.0 141.0 M 0.0 151.0 L 124.0 151.0 M 0.0 161.0 L 124.0 161.0 M 0.0 171.0 L 124.0 171.0 Z" fill="none" stroke="#d6d6d6" stroke-width="0.75" />
<path d="M 24.52 65.232 C 24.52 66.456 25.7152 67.68 26.896 67.68 C 30.496 67.68 34.096 65.232 34.096 62.856 C 34.096 61.6752 32.872 60.48 31.720001 60.48 C 28.12 60.48 24.52 62.856 24.52 65.232 Z" fill="#404040" stroke="none" stroke-width="1.0" />
<path d="M 23.0 147.25 L 31.0 147.25 L 31.0 154.75 L 23.0 154.75 L 23.0 147.25 Z" fill="#ffffff" stroke="none" stroke-width="1.0" />
<text x='23.0' y='154.75' font-family="Default" font-size="10.0" fill="#404040" >7</text>
<path d="M 33.18 63.04 L 34.18 63.04 L 34.18 32.0 L 33.18 32.0 M 33.18 63.04 Z" fill="#404040" stroke="none" stroke-width="0.75" />
<path d="M 45.52 61.232 C 45.52 62.456 46.715202 63.68 47.896 63.68 C 51.496002 63.68 55.096 61.232 55.096 58.856 C 55.096 57.6752 53.872 56.48 52.72 56.48 C 49.12 56.48 45.52 58.856 45.52 61.232 Z" fill="#404040" stroke="none" stroke-width="1.0" />
<path d="M 44.0 147.25 L 52.0 147.25 L 52.0 154.75 L 44.0 154.75 L 44.0 147.25 Z" fill="#ffffff" stroke="none" stroke-width="1.0" />
<text x='44.0' y='154.75' font-family="Default" font-size="10.0" fill="#404040" >9</text>
<path d="M 45.5 60.96 L 46.5 60.96 L 46.5 91.0 L 45.5 91.0 M 45.5 60.96 Z" fill="#404040" stroke="none" stroke-width="0.75" />
<path d="M 66.52 53.232 C 66.52 54.456 67.715195 55.68 68.895996 55.68 C 72.495995 55.68 76.09599 53.232 76.09599 50.856 C 76.09599 49.6752 74.871994 48.48 73.71999 48.48 C 70.119995 48.48 66.52 50.856 66.52 53.232 Z" fill="#404040" stroke="none" stroke-width="1.0" />
<path d="M 65.0 137.25 L 73.0 137.25 L 73.0 144.75 L 65.0 144.75 L 65.0 137.25 Z" fill="#ffffff" stroke="none" stroke-width="1.0" />
<text x='65.0' y='144.75' font-family="Default" font-size="10.0" fill="#404040" >7</text>
<path d="M 66.5 52.96 L 67.5 52.96 L 67.5 83.0 L 66.5 83.0 M 66.5 52.96 Z" fill="#404040" stroke="none" stroke-width="0.75" />
<path d="M 87.52 49.232 C 87.52 50.456 88.715195 51.68 89.895996 51.68 C 93.495995 51.68 97.09599 49.232 97.09599 46.856 C 97.09599 45.6752 95.871994 44.48 94.71999 44.48 C 91.119995 44.48 87.52 46.856 87.52 49.232 Z" fill="#404040" stroke="none" stroke-width="1.0" />
<path d="M 86.0 137.25 L 94.0 137.25 L 94.0 144.75 L 86.0 144.75 L 86.0 137.25 Z" fill="#ffffff" stroke="none" stroke-width="1.0" />
<text x='86.0' y='144.75' font-family="Default" font-size="10.0" fill="#404040" >9</text>
<path d="M 87.5 48.96 L 88.5 48.96 L 88.5 79.0 L 87.5 79.0 M 87.5 48.96 Z" fill="#404040" stroke="none" stroke-width="0.75" /></g>
<text x='216.0' y='62.0' font-family="Default" font-size="10.0" fill="#ff0000" >2</text>
<path d="M 215.0 64.0 L 215.0 96.0 Z" fill="#000000" stroke="#000000" stroke-width="0.75" />
<path d="M 339.0 64.0 L 339.0 96.0 Z" fill="#000000" stroke="#000000" stroke-width="0.75" />
<path d="M 215.0 141.0 L 215.0 191.0 Z" fill="#000000" stroke="#000000" stroke-width="0.75" />
<path d="M 339.0 141.0 L 339.0 191.0 Z" fill="#000000" stroke="#000000" stroke-width="0.75" /><g transform="translate(339.0,20.0)">
<path d="M 0.0 0.0 L 124.0 0.0 L 124.0 192.0 L 0.0 192.0 L 0.0 0.0 Z" fill="#ffffff" stroke="none" stroke-width="1.0" />
<path d="M 0.0 44.0 L 124.0 44.0 M 0.0 52.0 L 124.0 52.0 M 0.0 60.0 L 124.0 60.0 M 0.0 68.0 L 124.0 68.0 M 0.0 76.0 L 124.0 76.0 Z" fill="none" stroke="#d6d6d6" stroke-width="0.75" />
<path d="M 0.0 121.0 L 124.0 121.0 M 0.0 131.0 L 124.0 131.0 M 0.0 141.0 L 124.0 141.0 M 0.0 151.0 L 124.0 151.0 M 0.0 161.0 L 124.0 161.0 M 0.0 171.0 L 124.0 171.0 Z" fill="none" stroke="#d6d6d6" stroke-width="0.75" />
<path d="M 22.464394 37.63119 C 22.59136 37.55864 22.79088 37.613052 22.863434 37.7763 C 22.89971 37.84885 22.89971 37.903263 22.89971 39.172935 C 22.89971 39.916603 22.89971 40.515163 22.917847 40.515163 C 22.917847 40.515163 23.08109 40.442608 23.280611 40.370056 C 23.69779 40.206814 23.752205 40.188675 23.861032 40.279366 C 23.988 40.370056 23.988 40.388195 23.988 41.113724 C 23.988 41.73042 23.988 41.784836 23.951725 41.83925 C 23.933586 41.875526 23.897308 41.911804 23.879171 41.92994 C 23.842896 41.94808 23.625237 42.056908 23.371302 42.1476 L 22.917847 42.34712 L 22.89971 43.81631 C 22.89971 44.61439 22.89971 45.285503 22.917847 45.285503 C 22.917847 45.285503 23.08109 45.21295 23.280611 45.1404 C 23.69779 44.977154 23.752205 44.95902 23.861032 45.04971 C 23.988 45.1404 23.988 45.15854 23.988 45.884064 C 23.988 46.500763 23.988 46.555176 23.951725 46.609592 C 23.933586 46.64587 23.897308 46.682144 23.879171 46.700283 C 23.842896 46.718422 23.625237 46.82725 23.371302 46.917942 L 22.917847 47.117462 L 22.89971 48.641068 C 22.89971 50.01957 22.88157 50.18281 22.863434 50.23723 C 22.736465 50.454887 22.428116 50.454887 22.30115 50.23723 C 22.283012 50.18281 22.264874 50.03771 22.264874 48.768036 L 22.264874 47.371395 L 21.484932 47.679745 L 20.723127 47.988094 L 20.723127 49.457287 C 20.723127 51.01717 20.723127 50.980892 20.632437 51.071587 C 20.59616 51.126 20.469193 51.180412 20.414778 51.180412 C 20.342226 51.180412 20.215258 51.126 20.178982 51.071587 C 20.088291 50.980892 20.088291 51.01717 20.088291 49.60239 C 20.088291 48.858727 20.088291 48.260166 20.070152 48.260166 C 20.070152 48.260166 19.90691 48.332718 19.70739 48.405273 C 19.29021 48.568516 19.235796 48.586655 19.126966 48.495964 C 19.0 48.405273 19.0 48.387135 19.0 47.661606 C 19.0 47.044907 19.0 46.990494 19.036276 46.936077 C 19.054415 46.899803 19.09069 46.863525 19.10883 46.845387 C 19.145105 46.82725 19.362764 46.718422 19.6167 46.62773 L 20.088291 46.42821 L 20.088291 44.95902 C 20.088291 44.16094 20.088291 43.489826 20.070152 43.489826 C 20.070152 43.489826 19.90691 43.562378 19.70739 43.63493 C 19.29021 43.798172 19.235796 43.81631 19.126966 43.72562 C 19.0 43.63493 19.0 43.61679 19.0 42.891266 C 19.0 42.274567 19.0 42.22015 19.036276 42.165737 C 19.054415 42.12946 19.09069 42.093185 19.10883 42.075047 C 19.145105 42.056908 19.362764 41.94808 19.6167 41.857388 L 20.088291 41.657867 L 20.088291 40.134262 C 20.088291 38.75576 20.10643 38.592514 20.124567 38.5381 C 20.251535 38.320442 20.559883 38.320442 20.686852 38.5381 C 20.704988 38.592514 20.723127 38.73762 20.723127 40.007294 L 20.741266 41.403934 L 21.503069 41.095585 L 22.264874 40.787235 L 22.264874 39.318043 C 22.264874 37.93954 22.264874 37.84885 22.30115 37.7763 C 22.337425 37.703743 22.373703 37.667465 22.464394 37.63119 M 22.264874 44.070248 L 22.264874 42.601055 L 21.484932 42.9094 L 20.723127 43.21775 L 20.723127 44.705082 L 20.723127 46.174274 L 20.777542 46.156136 C 20.813818 46.138 21.158443 45.992893 21.557484 45.84779 L 22.264874 45.55758 L 22.264874 44.070248 Z" fill="#404040" stroke="none" stroke-width="0.75" />
<path d="M 24.52 45.232 C 24.52 46.456 25.7152 47.68 26.896 47.68 C 30.496 47.68 34.096 45.232 34.096 42.856 C 34.096 41.6752 32.872 40.48 31.720001 40.48 C 28.12 40.48 24.52 42.856 24.52 45.232 Z" fill="#404040" stroke="none" stroke-width="1.0" />
<path d="M 23.0 127.25 L 31.0 127.25 L 31.0 134.75 L 23.0 134.75 L 23.0 127.25 Z" fill="#ffffff" stroke="none" stroke-width="1.0" />
<text x='23.0' y='134.75' font-family="Default" font-size="10.0" fill="#404040" >7</text>
<path d="M 24.5 44.96 L 25.5 44.96 L 25.5 75.0 L 24.5 75.0 M 24.5 44.96 Z" fill="#404040" stroke="none" stroke-width="0.75" />
<path d="M 42.0 36.0 L 58.0 36.0 Z" fill="none" stroke="#d6d6d6" stroke-width="0.75" />
<path d="M 42.0 36.0 L 58.0 36.0 Z" fill="none" stroke="#d6d6d6" stroke-width="0.75" />
<path d="M 45.52 37.232 C 45.52 38.456 46.715202 39.68 47.896 39.68 C 51.496002 39.68 55.096 37.232 55.096 34.856 C 55.096 33.6752 53.872 32.48 52.72 32.48 C 49.12 32.48 45.52 34.856 45.52 37.232 Z" fill="#404040" stroke="none" stroke-width="1.0" />
<path d="M 40.5 127.25 L 55.5 127.25 L 55.5 134.75 L 40.5 134.75 L 40.5 127.25 Z" fill="#ffffff" stroke="none" stroke-width="1.0" />
<text x='40.5' y='134.75' font-family="Default" font-size="10.0" fill="#404040" >10</text>
<path d="M 45.5 36.96 L 46.5 36.96 L 46.5 67.0 L 45.5 67.0 M 45.5 36.96 Z" fill="#404040" stroke="none" stroke-width="0.75" />
<path d="M 63.0 36.0 L 79.0 36.0 Z" fill="none" stroke="#d6d6d6" stroke-width="0.75" />
<path d="M 63.0 36.0 L 79.0 36.0 Z" fill="none" stroke="#d6d6d6" stroke-width="0.75" />
<path d="M 66.52 33.232 C 66.52 34.456 67.715195 35.68 68.895996 35.68 C 72.495995 35.68 76.09599 33.232 76.09599 30.855999 C 76.09599 29.6752 74.871994 28.48 73.71999 28.48 C 70.119995 28.48 66.52 30.855999 66.52 33.232 Z" fill="#404040" stroke="none" stroke-width="1.0" />
<path d="M 65.0 117.25 L 73.0 117.25 L 73.0 124.75 L 65.0 124.75 L 65.0 117.25 Z" fill="#ffffff" stroke="none" stroke-width="1.0" />
<text x='65.0' y='124.75' font-family="Default" font-size="10.0" fill="#404040" >7</text>
<path d="M 66.5 32.96 L 67.5 32.96 L 67.5 63.0 L 66.5 63.0 M 66.5 32.96 Z" fill="#404040" stroke="none" stroke-width="0.75" />
<path d="M 84.0 36.0 L 100.0 36.0 Z" fill="none" stroke="#d6d6d6" stroke-width="0.75" />
<path d="M 84.0 28.0 L 100.0 28.0 Z" fill="none" stroke="#d6d6d6" stroke-width="0.75" />
<path d="M 84.0 36.0 L 100.0 36.0 Z" fill="none" stroke="#d6d6d6" stroke-width="0.75" />
<path d="M 84.0 28.0 L 100.0 28.0 Z" fill="none" stroke="#d6d6d6" stroke-width="0.75" />
<path d="M 87.52 25.231998 C 87.52 26.456 88.715195 27.68 89.895996 27.68 C 93.495995 27.68 97.09599 25.231998 97.09599 22.855999 C 97.09599 21.6752 95.871994 20.48 94.71999 20.48 C 91.119995 20.48 87.52 22.855999 87.52 25.231998 Z" fill="#404040" stroke="none" stroke-width="1.0" />
<path d="M 82.5 117.25 L 97.5 117.25 L 97.5 124.75 L 82.5 124.75 L 82.5 117.25 Z" fill="#ffffff" stroke="none" stroke-width="1.0" />
<text x='82.5' y='124.75' font-family="Default" font-size="10.0" fill="#404040" >10</text>
<path d="M 87.5 24.96 L 88.5 24.96 L 88.5 55.0 L 87.5 55.0 M 87.5 24.96 Z" fill="#404040" stroke="none" stroke-width="0.75" /></g>
<text x='340.0' y='62.0' font-family="Default" font-size="10.0" fill="#ff0000" >3</text>
<path d="M 339.0 64.0 L 339.0 96.0 Z" fill="#000000" stroke="#000000" stroke-width="0.75" />
<path d="M 463.0 64.0 L 463.0 96.0 Z" fill="#000000" stroke="#000000" stroke-width="0.75" />
<path d="M 339.0 141.0 L 339.0 191.0 Z" fill="#000000" stroke="#000000" stroke-width="0.75" />
<path d="M 463.0 141.0 L 463.0 191.0 Z" fill="#000000" stroke="#000000" stroke-width="0.75" /><g transform="translate(463.0,20.0)">
<path d="M 0.0 0.0 L 124.0 0.0 L 124.0 192.0 L 0.0 192.0 L 0.0 0.0 Z" fill="#ffffff" stroke="none" stroke-width="1.0" />
<path d="M 0.0 44.0 L 124.0 44.0 M 0.0 52.0 L 124.0 52.0 M 0.0 60.0 L 124.0 60.0 M 0.0 68.0 L 124.0 68.0 M 0.0 76.0 L 124.0 76.0 Z" fill="none" stroke="#d6d6d6" stroke-width="0.75" />
<path d="M 0.0 121.0 L 124.0 121.0 M 0.0 131.0 L 124.0 131.0 M 0.0 141.0 L 124.0 141.0 M 0.0 151.0 L 124.0 151.0 M 0.0 161.0 L 124.0 161.0 M 0.0 171.0 L 124.0 171.0 Z" fill="none" stroke="#d6d6d6" stroke-width="0.75" />
<path d="M 21.0 36.0 L 37.0 36.0 Z" fill="none" stroke="#d6d6d6" stroke-width="0.75" />
<path d="M 21.0 28.0 L 37.0 28.0 Z" fill="none" stroke="#d6d6d6" stroke-width="0.75" />
<path d="M 21.0 36.0 L 37.0 36.0 Z" fill="none" stroke="#d6d6d6" stroke-width="0.75" />
<path d="M 21.0 28.0 L 37.0 28.0 Z" fill="none" stroke="#d6d6d6" stroke-width="0.75" />
<path d="M 24.52 25.231998 C 24.52 26.456 25.7152 27.68 26.896 27.68 C 30.496 27.68 34.096 25.231998 34.096 22.855999 C 34.096 21.6752 32.872 20.48 31.720001 20.48 C 28.12 20.48 24.52 22.855999 24.52 25.231998 Z" fill="#404040" stroke="none" stroke-width="1.0" />
<path d="M 19.5 117.25 L 34.5 117.25 L 34.5 124.75 L 19.5 124.75 L 19.5 117.25 Z" fill="#ffffff" stroke="none" stroke-width="1.0" />
<text x='19.5' y='124.75' font-family="Default" font-size="10.0" fill="#404040" >10</text>
<path d="M 24.5 24.96 L 25.5 24.96 L 25.5 55.0 L 24.5 55.0 M 24.5 24.96 Z" fill="#404040" stroke="none" stroke-width="0.75" />
<path d="M 42.0 36.0 L 58.0 36.0 Z" fill="none" stroke="#d6d6d6" stroke-width="0.75" />
<path d="M 42.0 28.0 L 58.0 28.0 Z" fill="none" stroke="#d6d6d6" stroke-width="0.75" />
<path d="M 42.0 36.0 L 58.0 36.0 Z" fill="none" stroke="#d6d6d6" stroke-width="0.75" />
<path d="M 42.0 28.0 L 58.0 28.0 Z" fill="none" stroke="#d6d6d6" stroke-width="0.75" />
<path d="M 43.464394 21.631191 C 43.591362 21.558638 43.790882 21.613052 43.863434 21.776297 C 43.899708 21.84885 43.899708 21.903263 43.899708 23.172935 C 43.899708 23.916603 43.899708 24.515162 43.917847 24.515162 C 43.917847 24.515162 44.081093 24.44261 44.28061 24.370056 C 44.69779 24.206814 44.752205 24.188675 44.861034 24.279366 C 44.988 24.370056 44.988 24.388195 44.988 25.113722 C 44.988 25.73042 44.988 25.784836 44.951725 25.839249 C 44.933586 25.875526 44.89731 25.911802 44.879173 25.92994 C 44.842896 25.948078 44.625237 26.056908 44.371304 26.147598 L 43.917847 26.347118 L 43.899708 27.81631 C 43.899708 28.614391 43.899708 29.285505 43.917847 29.285505 C 43.917847 29.285505 44.081093 29.212952 44.28061 29.1404 C 44.69779 28.977156 44.752205 28.959017 44.861034 29.049707 C 44.988 29.1404 44.988 29.158537 44.988 29.884064 C 44.988 30.500763 44.988 30.555178 44.951725 30.609592 C 44.933586 30.645868 44.89731 30.682144 44.879173 30.700283 C 44.842896 30.718422 44.625237 30.82725 44.371304 30.91794 L 43.917847 31.11746 L 43.899708 32.641068 C 43.899708 34.01957 43.881573 34.18281 43.863434 34.23723 C 43.736465 34.454887 43.428116 34.454887 43.30115 34.23723 C 43.283012 34.18281 43.264874 34.03771 43.264874 32.768036 L 43.264874 31.371395 L 42.484932 31.679745 L 41.72313 31.988094 L 41.72313 33.457287 C 41.72313 35.01717 41.72313 34.980892 41.632435 35.071587 C 41.59616 35.126 41.469193 35.180412 41.41478 35.180412 C 41.342224 35.180412 41.21526 35.126 41.17898 35.071587 C 41.08829 34.980892 41.08829 35.01717 41.08829 33.60239 C 41.08829 32.858727 41.08829 32.260166 41.070152 32.260166 C 41.070152 32.260166 40.90691 32.332718 40.70739 32.405273 C 40.29021 32.568516 40.235798 32.586655 40.12697 32.495964 C 40.0 32.405273 40.0 32.387135 40.0 31.661606 C 40.0 31.044909 40.0 30.990494 40.036278 30.936079 C 40.054413 30.899803 40.09069 30.863525 40.10883 30.845388 C 40.145107 30.82725 40.362762 30.718422 40.6167 30.62773 L 41.08829 30.42821 L 41.08829 28.959017 C 41.08829 28.160938 41.08829 27.489824 41.070152 27.489824 C 41.070152 27.489824 40.90691 27.562378 40.70739 27.63493 C 40.29021 27.798174 40.235798 27.81631 40.12697 27.72562 C 40.0 27.63493 40.0 27.616793 40.0 26.891264 C 40.0 26.274567 40.0 26.220152 40.036278 26.165737 C 40.054413 26.129461 40.09069 26.093184 40.10883 26.075047 C 40.145107 26.056908 40.362762 25.948078 40.6167 25.857388 L 41.08829 25.657867 L 41.08829 24.13426 C 41.08829 22.755758 41.10643 22.592514 41.12457 22.538101 C 41.251534 22.320442 41.559883 22.320442 41.68685 22.538101 C 41.70499 22.592514 41.72313 22.73762 41.72313 24.007294 L 41.741264 25.403933 L 42.50307 25.095585 L 43.264874 24.787235 L 43.264874 23.318043 C 43.264874 21.93954 43.264874 21.84885 43.30115 21.776297 C 43.337425 21.703743 43.373703 21.667467 43.464394 21.631191 M 43.264874 28.070246 L 43.264874 26.601053 L 42.484932 26.909403 L 41.72313 27.217752 L 41.72313 28.705082 L 41.72313 30.174274 L 41.777542 30.156137 C 41.81382 30.137999 42.158443 29.992893 42.557484 29.847788 L 43.264874 29.557577 L 43.264874 28.070246 Z" fill="#404040" stroke="none" stroke-width="0.75" />
<path d="M 45.52 29.231998 C 45.52 30.456 46.715202 31.68 47.896 31.68 C 51.496002 31.68 55.096 29.231998 55.096 26.855999 C 55.096 25.6752 53.872 24.48 52.72 24.48 C 49.12 24.48 45.52 26.855999 45.52 29.231998 Z" fill="#404040" stroke="none" stroke-width="1.0" />
<path d="M 44.0 117.25 L 52.0 117.25 L 52.0 124.75 L 44.0 124.75 L 44.0 117.25 Z" fill="#ffffff" stroke="none" stroke-width="1.0" />
<text x='44.0' y='124.75' font-family="Default" font-size="10.0" fill="#404040" >9</text>
<path d="M 45.5 28.96 L 46.5 28.96 L 46.5 59.0 L 45.5 59.0 M 45.5 28.96 Z" fill="#404040" stroke="none" stroke-width="0.75" />
<path d="M 63.0 36.0 L 79.0 36.0 Z" fill="none" stroke="#d6d6d6" stroke-width="0.75" />
<path d="M 63.0 36.0 L 79.0 36.0 Z" fill="none" stroke="#d6d6d6" stroke-width="0.75" />
<path d="M 66.52 33.232 C 66.52 34.456 67.715195 35.68 68.895996 35.68 C 72.495995 35.68 76.09599 33.232 76.09599 30.855999 C 76.09599 29.6752 74.871994 28.48 73.71999 28.48 C 70.119995 28.48 66.52 30.855999 66.52 33.232 Z" fill="#404040" stroke="none" stroke-width="1.0" />
<path d="M 65.0 117.25 L 73.0 117.25 L 73.0 124.75 L 65.0 124.75 L 65.0 117.25 Z" fill="#ffffff" stroke="none" stroke-width="1.0" />
<text x='65.0' y='124.75' font-family="Default" font-size="10.0" fill="#404040" >7</text>
<path d="M 66.5 32.96 L 67.5 32.96 L 67.5 63.0 L 66.5 63.0 M 66.5 32.96 Z" fill="#404040" stroke="none" stroke-width="0.75" />
<path d="M 84.0 36.0 L 100.0 36.0 Z" fill="none" stroke="#d6d6d6" stroke-width="0.75" />
<path d="M 84.0 36.0 L 100.0 36.0 Z" fill="none" stroke="#d6d6d6" stroke-width="0.75" />
<path d="M 87.52 37.232 C 87.52 38.456 88.715195 39.68 89.895996 39.68 C 93.495995 39.68 97.09599 37.232 97.09599 34.856 C 97.09599 33.6752 95.871994 32.48 94.71999 32.48 C 91.119995 32.48 87.52 34.856 87.52 37.232 Z" fill="#404040" stroke="none" stroke-width="1.0" />
<path d="M 82.5 127.25 L 97.5 127.25 L 97.5 134.75 L 82.5 134.75 L 82.5 127.25 Z" fill="#ffffff" stroke="none" stroke-width="1.0" />
<text x='82.5' y='134.75' font-family="Default" font-size="10.0" fill="#404040" >10</text>
<path d="M 87.5 36.96 L 88.5 36.96 L 88.5 67.0 L 87.5 67.0 M 87.5 36.96 Z" fill="#404040" stroke="none" stroke-width="0.75" /></g>
<text x='464.0' y='62.0' font-family="Default" font-size="10.0" fill="#ff0000" >4</text>
<path d="M 463.0 64.0 L 463.0 96.0 Z" fill="#000000" stroke="#000000" stroke-width="0.75" />
<path d="M 587.0 64.0 L 587.0 96.0 Z" fill="#000000" stroke="#000000" stroke-width="0.75" />
<path d="M 463.0 141.0 L 463.0 191.0 Z" fill="#000000" stroke="#000000" stroke-width="0.75" />
<path d="M 587.0 141.0 L 587.0 191.0 Z" fill="#000000" stroke="#000000" stroke-width="0.75" /><g transform="translate(587.0,20.0)">
<path d="M 0.0 0.0 L 124.0 0.0 L 124.0 192.0 L 0.0 192.0 L 0.0 0.0 Z" fill="#ffffff" stroke="none" stroke-width="1.0" />
<path d="M 0.0 44.0 L 124.0 44.0 M 0.0 52.0 L 124.0 52.0 M 0.0 60.0 L 124.0 60.0 M 0.0 68.0 L 124.0 68.0 M 0.0 76.0 L 124.0 76.0 Z" fill="none" stroke="#d6d6d6" stroke-width="0.75" />
<path d="M 0.0 121.0 L 124.0 121.0 M 0.0 131.0 L 124.0 131.0 M 0.0 141.0 L 124.0 141.0 M 0.0 151.0 L 124.0 151.0 M 0.0 161.0 L 124.0 161.0 M 0.0 171.0 L 124.0 171.0 Z" fill="none" stroke="#d6d6d6" stroke-width="0.75" />
<path d="M 24.52 41.232 C 24.52 42.456 25.7152 43.68 26.896 43.68 C 30.496 43.68 34.096 41.232 34.096 38.856 C 34.096 37.6752 32.872 36.48 31.720001 36.48 C 28.12 36.48 24.52 38.856 24.52 41.232 Z" fill="#404040" stroke="none" stroke-width="1.0" />
<path d="M 23.0 127.25 L 31.0 127.25 L 31.0 134.75 L 23.0 134.75 L 23.0 127.25 Z" fill="#ffffff" stroke="none" stroke-width="1.0" />
<text x='23.0' y='134.75' font-family="Default" font-size="10.0" fill="#404040" >8</text>
<path d="M 24.5 40.96 L 25.5 40.96 L 25.5 71.0 L 24.5 71.0 M 24.5 40.96 Z" fill="#404040" stroke="none" stroke-width="0.75" />
<path d="M 43.464394 37.63119 C 43.591362 37.55864 43.790882 37.613052 43.863434 37.7763 C 43.899708 37.84885 43.899708 37.903263 43.899708 39.172935 C 43.899708 39.916603 43.899708 40.515163 43.917847 40.515163 C 43.917847 40.515163 44.081093 40.442608 44.28061 40.370056 C 44.69779 40.206814 44.752205 40.188675 44.861034 40.279366 C 44.988 40.370056 44.988 40.388195 44.988 41.113724 C 44.988 41.73042 44.988 41.784836 44.951725 41.83925 C 44.933586 41.875526 44.89731 41.911804 44.879173 41.92994 C 44.842896 41.94808 44.625237 42.056908 44.371304 42.1476 L 43.917847 42.34712 L 43.899708 43.81631 C 43.899708 44.61439 43.899708 45.285503 43.917847 45.285503 C 43.917847 45.285503 44.081093 45.21295 44.28061 45.1404 C 44.69779 44.977154 44.752205 44.95902 44.861034 45.04971 C 44.988 45.1404 44.988 45.15854 44.988 45.884064 C 44.988 46.500763 44.988 46.555176 44.951725 46.609592 C 44.933586 46.64587 44.89731 46.682144 44.879173 46.700283 C 44.842896 46.718422 44.625237 46.82725 44.371304 46.917942 L 43.917847 47.117462 L 43.899708 48.641068 C 43.899708 50.01957 43.881573 50.18281 43.863434 50.23723 C 43.736465 50.454887 43.428116 50.454887 43.30115 50.23723 C 43.283012 50.18281 43.264874 50.03771 43.264874 48.768036 L 43.264874 47.371395 L 42.484932 47.679745 L 41.72313 47.988094 L 41.72313 49.457287 C 41.72313 51.01717 41.72313 50.980892 41.632435 51.071587 C 41.59616 51.126 41.469193 51.180412 41.41478 51.180412 C 41.342224 51.180412 41.21526 51.126 41.17898 51.071587 C 41.08829 50.980892 41.08829 51.01717 41.08829 49.60239 C 41.08829 48.858727 41.08829 48.260166 41.070152 48.260166 C 41.070152 48.260166 40.90691 48.332718 40.70739 48.405273 C 40.29021 48.568516 40.235798 48.586655 40.12697 48.495964 C 40.0 48.405273 40.0 48.387135 40.0 47.661606 C 40.0 47.044907 40.0 46.990494 40.036278 46.936077 C 40.054413 46.899803 40.09069 46.863525 40.10883 46.845387 C 40.145107 46.82725 40.362762 46.718422 40.6167 46.62773 L 41.08829 46.42821 L 41.08829 44.95902 C 41.08829 44.16094 41.08829 43.489826 41.070152 43.489826 C 41.070152 43.489826 40.90691 43.562378 40.70739 43.63493 C 40.29021 43.798172 40.235798 43.81631 40.12697 43.72562 C 40.0 43.63493 40.0 43.61679 40.0 42.891266 C 40.0 42.274567 40.0 42.22015 40.036278 42.165737 C 40.054413 42.12946 40.09069 42.093185 40.10883 42.075047 C 40.145107 42.056908 40.362762 41.94808 40.6167 41.857388 L 41.08829 41.657867 L 41.08829 40.134262 C 41.08829 38.75576 41.10643 38.592514 41.12457 38.5381 C 41.251534 38.320442 41.559883 38.320442 41.68685 38.5381 C 41.70499 38.592514 41.72313 38.73762 41.72313 40.007294 L 41.741264 41.403934 L 42.50307 41.095585 L 43.264874 40.787235 L 43.264874 39.318043 C 43.264874 37.93954 43.264874 37.84885 43.30115 37.7763 C 43.337425 37.703743 43.373703 37.667465 43.464394 37.63119 M 43.264874 44.070248 L 43.264874 42.601055 L 42.484932 42.9094 L 41.72313 43.21775 L 41.72313 44.705082 L 41.72313 46.174274 L 41.777542 46.156136 C 41.81382 46.138 42.158443 45.992893 42.557484 45.84779 L 43.264874 45.55758 L 43.264874 44.070248 Z" fill="#404040" stroke="none" stroke-width="0.75" />
<path d="M 45.52 45.232 C 45.52 46.456 46.715202 47.68 47.896 47.68 C 51.496002 47.68 55.096 45.232 55.096 42.856 C 55.096 41.6752 53.872 40.48 52.72 40.48 C 49.12 40.48 45.52 42.856 45.52 45.232 Z" fill="#404040" stroke="none" stroke-width="1.0" />
<path d="M 44.0 127.25 L 52.0 127.25 L 52.0 134.75 L 44.0 134.75 L 44.0 127.25 Z" fill="#ffffff" stroke="none" stroke-width="1.0" />
<text x='44.0' y='134.75' font-family="Default" font-size="10.0" fill="#404040" >7</text>
<path d="M 45.5 44.96 L 46.5 44.96 L 46.5 75.0 L 45.5 75.0 M 45.5 44.96 Z" fill="#404040" stroke="none" stroke-width="0.75" />
<path d="M 66.52 49.232 C 66.52 50.456 67.715195 51.68 68.895996 51.68 C 72.495995 51.68 76.09599 49.232 76.09599 46.856 C 76.09599 45.6752 74.871994 44.48 73.71999 44.48 C 70.119995 44.48 66.52 46.856 66.52 49.232 Z" fill="#404040" stroke="none" stroke-width="1.0" />
<path d="M 65.0 137.25 L 73.0 137.25 L 73.0 144.75 L 65.0 144.75 L 65.0 137.25 Z" fill="#ffffff" stroke="none" stroke-width="1.0" />
<text x='65.0' y='144.75' font-family="Default" font-size="10.0" fill="#404040" >9</text>
<path d="M 66.5 48.96 L 67.5 48.96 L 67.5 79.0 L 66.5 79.0 M 66.5 48.96 Z" fill="#404040" stroke="none" stroke-width="0.75" />
<path d="M 87.52 53.232 C 87.52 54.456 88.715195 55.68 89.895996 55.68 C 93.495995 55.68 97.09599 53.232 97.09599 50.856 C 97.09599 49.6752 95.871994 48.48 94.71999 48.48 C 91.119995 48.48 87.52 50.856 87.52 53.232 Z" fill="#404040" stroke="none" stroke-width="1.0" />
<path d="M 86.0 137.25 L 94.0 137.25 L 94.0 144.75 L 86.0 144.75 L 86.0 137.25 Z" fill="#ffffff" stroke="none" stroke-width="1.0" />
<text x='86.0' y='144.75' font-family="Default" font-size="10.0" fill="#404040" >7</text>
<path d="M 87.5 52.96 L 88.5 52.96 L 88.5 83.0 L 87.5 83.0 M 87.5 52.96 Z" fill="#404040" stroke="none" stroke-width="0.75" /></g>
<text x='588.0' y='62.0' font-family="Default" font-size="10.0" fill="#ff0000" >5</text>
<path d="M 587.0 64.0 L 587.0 96.0 Z" fill="#000000" stroke="#000000" stroke-width="0.75" />
<path d="M 711.0 64.0 L 711.0 96.0 Z" fill="#000000" stroke="#000000" stroke-width="0.75" />
<path d="M 587.0 141.0 L 587.0 191.0 Z" fill="#000000" stroke="#000000" stroke-width="0.75" />
<path d="M 711.0 141.0 L 711.0 191.0 Z" fill="#000000" stroke="#000000" stroke-width="0.75" /><g transform="translate(711.0,20.0)">
<path d="M 0.0 0.0 L 124.0 0.0 L 124.0 192.0 L 0.0 192.0 L 0.0 0.0 Z" fill="#ffffff" stroke="none" stroke-width="1.0" />
<path d="M 0.0 44.0 L 124.0 44.0 M 0.0 52.0 L 124.0 52.0 M 0.0 60.0 L 124.0 60.0 M 0.0 68.0 L 124.0 68.0 M 0.0 76.0 L 124.0 76.0 Z" fill="none" stroke="#d6d6d6" stroke-width="0.75" />
<path d="M 0.0 121.0 L 124.0 121.0 M 0.0 131.0 L 124.0 131.0 M 0.0 141.0 L 124.0 141.0 M 0.0 151.0 L 124.0 151.0 M 0.0 161.0 L 124.0 161.0 M 0.0 171.0 L 124.0 171.0 Z" fill="none" stroke="#d6d6d6" stroke-width="0.75" />
<path d="M 22.464394 49.63119 C 22.59136 49.55864 22.79088 49.613052 22.863434 49.7763 C 22.89971 49.84885 22.89971 49.903263 22.89971 51.172935 C 22.89971 51.916603 22.89971 52.515163 22.917847 52.515163 C 22.917847 52.515163 23.08109 52.442608 23.280611 52.370056 C 23.69779 52.206814 23.752205 52.188675 23.861032 52.279366 C 23.988 52.370056 23.988 52.388195 23.988 53.113724 C 23.988 53.73042 23.988 53.784836 23.951725 53.83925 C 23.933586 53.875526 23.897308 53.911804 23.879171 53.92994 C 23.842896 53.94808 23.625237 54.056908 23.371302 54.1476 L 22.917847 54.34712 L 22.89971 55.81631 C 22.89971 56.61439 22.89971 57.285503 22.917847 57.285503 C 22.917847 57.285503 23.08109 57.21295 23.280611 57.1404 C 23.69779 56.977154 23.752205 56.95902 23.861032 57.04971 C 23.988 57.1404 23.988 57.15854 23.988 57.884064 C 23.988 58.500763 23.988 58.555176 23.951725 58.609592 C 23.933586 58.64587 23.897308 58.682144 23.879171 58.700283 C 23.842896 58.718422 23.625237 58.82725 23.371302 58.917942 L 22.917847 59.117462 L 22.89971 60.641068 C 22.89971 62.01957 22.88157 62.18281 22.863434 62.23723 C 22.736465 62.454887 22.428116 62.454887 22.30115 62.23723 C 22.283012 62.18281 22.264874 62.03771 22.264874 60.768036 L 22.264874 59.371395 L 21.484932 59.679745 L 20.723127 59.988094 L 20.723127 61.457287 C 20.723127 63.01717 20.723127 62.980892 20.632437 63.071587 C 20.59616 63.126 20.469193 63.180412 20.414778 63.180412 C 20.342226 63.180412 20.215258 63.126 20.178982 63.071587 C 20.088291 62.980892 20.088291 63.01717 20.088291 61.60239 C 20.088291 60.858727 20.088291 60.260166 20.070152 60.260166 C 20.070152 60.260166 19.90691 60.332718 19.70739 60.405273 C 19.29021 60.568516 19.235796 60.586655 19.126966 60.495964 C 19.0 60.405273 19.0 60.387135 19.0 59.661606 C 19.0 59.044907 19.0 58.990494 19.036276 58.936077 C 19.054415 58.899803 19.09069 58.863525 19.10883 58.845387 C 19.145105 58.82725 19.362764 58.718422 19.6167 58.62773 L 20.088291 58.42821 L 20.088291 56.95902 C 20.088291 56.16094 20.088291 55.489826 20.070152 55.489826 C 20.070152 55.489826 19.90691 55.562378 19.70739 55.63493 C 19.29021 55.798172 19.235796 55.81631 19.126966 55.72562 C 19.0 55.63493 19.0 55.61679 19.0 54.891266 C 19.0 54.274567 19.0 54.22015 19.036276 54.165737 C 19.054415 54.12946 19.09069 54.093185 19.10883 54.075047 C 19.145105 54.056908 19.362764 53.94808 19.6167 53.857388 L 20.088291 53.657867 L 20.088291 52.134262 C 20.088291 50.75576 20.10643 50.592514 20.124567 50.5381 C 20.251535 50.320442 20.559883 50.320442 20.686852 50.5381 C 20.704988 50.592514 20.723127 50.73762 20.723127 52.007294 L 20.741266 53.403934 L 21.503069 53.095585 L 22.264874 52.787235 L 22.264874 51.318043 C 22.264874 49.93954 22.264874 49.84885 22.30115 49.7763 C 22.337425 49.703743 22.373703 49.667465 22.464394 49.63119 M 22.264874 56.070248 L 22.264874 54.601055 L 21.484932 54.9094 L 20.723127 55.21775 L 20.723127 56.705082 L 20.723127 58.174274 L 20.777542 58.156136 C 20.813818 58.138 21.158443 57.992893 21.557484 57.84779 L 22.264874 57.55758 L 22.264874 56.070248 Z" fill="#404040" stroke="none" stroke-width="0.75" />
<path d="M 24.52 57.232 C 24.52 58.456 25.7152 59.68 26.896 59.68 C 30.496 59.68 34.096 57.232 34.096 54.856 C 34.096 53.6752 32.872 52.48 31.720001 52.48 C 28.12 52.48 24.52 54.856 24.52 57.232 Z" fill="#404040" stroke="none" stroke-width="1.0" />
<path d="M 23.0 137.25 L 31.0 137.25 L 31.0 144.75 L 23.0 144.75 L 23.0 137.25 Z" fill="#ffffff" stroke="none" stroke-width="1.0" />
<text x='23.0' y='144.75' font-family="Default" font-size="10.0" fill="#404040" >6</text>
<path d="M 24.5 56.96 L 25.5 56.96 L 25.5 87.0 L 24.5 87.0 M 24.5 56.96 Z" fill="#404040" stroke="none" stroke-width="0.75" />
<path d="M 47.869698 52.930904 C 47.95373 52.88889 48.037754 52.88889 48.1218 52.909897 C 48.184826 52.951912 51.441025 56.81735 51.52506 56.985413 C 51.672115 57.25851 51.630104 57.531612 51.42001 57.867737 C 51.251965 58.098824 50.915836 58.434948 50.285606 58.960144 C 49.970474 59.21224 49.676376 59.48534 49.613346 59.548363 C 48.9621 60.241623 48.815052 61.292007 49.19319 62.0903 C 49.319244 62.363403 49.38225 62.426434 50.11754 63.266735 C 51.46204 64.84233 51.399014 64.7793 51.399014 64.90536 C 51.399014 65.03139 51.27296 65.15744 51.146927 65.17846 C 51.041878 65.17846 50.957844 65.13644 50.810795 64.98938 C 50.285606 64.46419 49.088154 64.086044 48.43691 64.23309 C 48.1218 64.29612 47.95373 64.42217 47.806686 64.71627 C 47.72264 64.926346 47.659615 65.17846 47.63862 65.514565 C 47.6176 65.97675 47.701645 66.45993 47.848694 66.9221 C 47.95373 67.21621 48.016758 67.38428 48.163807 67.59435 C 48.289864 67.76242 48.289864 67.82543 48.184826 67.88845 C 48.100784 67.93048 48.05877 67.90947 47.869698 67.678375 C 47.113426 66.71202 46.420155 65.32551 46.18908 64.29612 C 46.0 63.560856 46.08404 63.05666 46.37814 62.846584 C 46.525196 62.76256 46.67226 62.741547 46.987373 62.741547 C 47.596607 62.783558 48.457928 63.01465 49.298233 63.371773 L 49.571335 63.497826 L 48.415894 62.132313 C 46.651245 60.052547 46.588215 59.96852 46.525196 59.842472 C 46.462185 59.674408 46.44117 59.506348 46.504196 59.317276 C 46.609234 58.98115 46.903336 58.645027 47.785667 57.90975 C 48.100784 57.65766 48.373886 57.405567 48.43691 57.363552 C 48.92009 56.838356 49.15118 56.10308 49.06714 55.409824 C 49.02513 55.17874 48.92009 54.821606 48.794037 54.632538 C 48.731014 54.527496 48.478924 54.21238 48.226833 53.897263 C 47.974747 53.603153 47.743656 53.330055 47.72264 53.288036 C 47.659615 53.16199 47.72264 52.993927 47.869698 52.930904 Z" fill="#404040" stroke="none" stroke-width="0.75" />
<path d="M 68.8697 52.930904 C 68.953735 52.88889 69.03775 52.88889 69.121796 52.909897 C 69.18482 52.951912 72.441025 56.81735 72.525055 56.985413 C 72.67212 57.25851 72.630104 57.531612 72.42001 57.867737 C 72.25196 58.098824 71.91583 58.434948 71.28561 58.960144 C 70.970474 59.21224 70.67638 59.48534 70.61334 59.548363 C 69.9621 60.241623 69.815056 61.292007 70.19319 62.0903 C 70.319244 62.363403 70.382256 62.426434 71.11754 63.266735 C 72.462036 64.84233 72.39902 64.7793 72.39902 64.90536 C 72.39902 65.03139 72.27296 65.15744 72.14693 65.17846 C 72.04188 65.17846 71.95785 65.13644 71.81079 64.98938 C 71.28561 64.46419 70.08816 64.086044 69.43691 64.23309 C 69.121796 64.29612 68.953735 64.42217 68.80669 64.71627 C 68.72264 64.926346 68.659615 65.17846 68.63862 65.514565 C 68.6176 65.97675 68.701645 66.45993 68.848694 66.9221 C 68.953735 67.21621 69.016754 67.38428 69.16381 67.59435 C 69.28986 67.76242 69.28986 67.82543 69.18482 67.88845 C 69.100784 67.93048 69.05877 67.90947 68.8697 67.678375 C 68.11343 66.71202 67.42016 65.32551 67.18908 64.29612 C 67.0 63.560856 67.084045 63.05666 67.37814 62.846584 C 67.5252 62.76256 67.672264 62.741547 67.98737 62.741547 C 68.59661 62.783558 69.457924 63.01465 70.29823 63.371773 L 70.571335 63.497826 L 69.41589 62.132313 C 67.651245 60.052547 67.58822 59.96852 67.5252 59.842472 C 67.46219 59.674408 67.44117 59.506348 67.504196 59.317276 C 67.60923 58.98115 67.903336 58.645027 68.78567 57.90975 C 69.100784 57.65766 69.373886 57.405567 69.43691 57.363552 C 69.92009 56.838356 70.151184 56.10308 70.06714 55.409824 C 70.02513 55.17874 69.92009 54.821606 69.79404 54.632538 C 69.73102 54.527496 69.47892 54.21238 69.22684 53.897263 C 68.97475 53.603153 68.74365 53.330055 68.72264 53.288036 C 68.659615 53.16199 68.72264 52.993927 68.8697 52.930904 Z" fill="#404040" stroke="none" stroke-width="0.75" />
<path d="M 89.8697 52.930904 C 89.953735 52.88889 90.03775 52.88889 90.121796 52.909897 C 90.18482 52.951912 93.441025 56.81735 93.525055 56.985413 C 93.67212 57.25851 93.630104 57.531612 93.42001 57.867737 C 93.25196 58.098824 92.91583 58.434948 92.28561 58.960144 C 91.970474 59.21224 91.67638 59.48534 91.61334 59.548363 C 90.9621 60.241623 90.815056 61.292007 91.19319 62.0903 C 91.319244 62.363403 91.382256 62.426434 92.11754 63.266735 C 93.462036 64.84233 93.39902 64.7793 93.39902 64.90536 C 93.39902 65.03139 93.27296 65.15744 93.14693 65.17846 C 93.04188 65.17846 92.95785 65.13644 92.81079 64.98938 C 92.28561 64.46419 91.08816 64.086044 90.43691 64.23309 C 90.121796 64.29612 89.953735 64.42217 89.80669 64.71627 C 89.72264 64.926346 89.659615 65.17846 89.63862 65.514565 C 89.6176 65.97675 89.701645 66.45993 89.848694 66.9221 C 89.953735 67.21621 90.016754 67.38428 90.16381 67.59435 C 90.28986 67.76242 90.28986 67.82543 90.18482 67.88845 C 90.100784 67.93048 90.05877 67.90947 89.8697 67.678375 C 89.11343 66.71202 88.42016 65.32551 88.18908 64.29612 C 88.0 63.560856 88.084045 63.05666 88.37814 62.846584 C 88.5252 62.76256 88.672264 62.741547 88.98737 62.741547 C 89.59661 62.783558 90.457924 63.01465 91.29823 63.371773 L 91.571335 63.497826 L 90.41589 62.132313 C 88.651245 60.052547 88.58822 59.96852 88.5252 59.842472 C 88.46219 59.674408 88.44117 59.506348 88.504196 59.317276 C 88.60923 58.98115 88.903336 58.645027 89.78567 57.90975 C 90.100784 57.65766 90.373886 57.405567 90.43691 57.363552 C 90.92009 56.838356 91.151184 56.10308 91.06714 55.409824 C 91.02513 55.17874 90.92009 54.821606 90.79404 54.632538 C 90.73102 54.527496 90.47892 54.21238 90.22684 53.897263 C 89.97475 53.603153 89.74365 53.330055 89.72264 53.288036 C 89.659615 53.16199 89.72264 52.993927 89.8697 52.930904 Z" fill="#404040" stroke="none" stroke-width="0.75" /></g>
<text x='712.0' y='62.0' font-family="Default" font-size="10.0" fill="#ff0000" >6</text>
<path d="M 711.0 64.0 L 711.0 96.0 Z" fill="#000000" stroke="#000000" stroke-width="0.75" />
<path d="M 829.0 64.0 L 830.0 64.0 L 830.0 96.0 L 829.0 96.0 L 829.0 64.0 Z" fill="#000000" stroke="#000000" stroke-width="0.75" />
<path d="M 832.0 64.0 L 835.0 64.0 L 835.0 96.0 L 832.0 96.0 L 832.0 64.0 Z" fill="#000000" stroke="#000000" stroke-width="0.75" />
<path d="M 711.0 141.0 L 711.0 191.0 Z" fill="#000000" stroke="#000000" stroke-width="0.75" />
<path d="M 829.0 141.0 L 830.0 141.0 L 830.0 191.0 L 829.0 191.0 L 829.0 141.0 Z" fill="#000000" stroke="#000000" stroke-width="0.75" />
<path d="M 832.0 141.0 L 835.0 141.0 L 835.0 191.0 L 832.0 191.0 L 832.0 141.0 Z" fill="#000000" stroke="#000000" stroke-width="0.75" />
<path d="M 837.0 64.0 L 930.0 64.0 M 837.0 72.0 L 930.0 72.0 M 837.0 80.0 L 930.0 80.0 M 837.0 88.0 L 930.0 88.0 M 837.0 96.0 L 930.0 96.0 Z" fill="none" stroke="#d6d6d6" stroke-width="0.75" />
<path d="M 837.0 141.0 L 930.0 141.0 M 837.0 151.0 L 930.0 151.0 M 837.0 161.0 L 930.0 161.0 M 837.0 171.0 L 930.0 171.0 M 837.0 181.0 L 930.0 181.0 M 837.0 191.0 L 930.0 191.0 Z" fill="none" stroke="#d6d6d6" stroke-width="0.75" />
</svg>