<svg width="960.0px" height="216.0px" xmlns="http://www.w3.org/2000/svg" version="1.1">

<path d="M 0.0 0.0 L 960.0 0.0 L 960.0 216.0 L 0.0 216.0 L 0.0 0.0 Z" fill="#ffffff" stroke="none" stroke-width="1.0" /><g transform="translate(20.0,20.0)">
<path d="M 0.0 0.0 L 271.0 0.0 L 271.0 185.0 L 0.0 185.0 L 0.0 0.0 Z" fill="#ffffff" stroke="none" stroke-width="1.0" />
<path d="M 0.0 30.0 L 271.0 30.0 M 0.0 38.0 L 271.0 38.0 M 0.0 46.0 L 271.0 46.0 M 0.0 54.0 L 271.0 54.0 M 0.0 62.0 L 271.0 62.0 Z" fill="none" stroke="#d6d6d6" stroke-width="0.75" />
<path d="M 0.0 114.0 L 271.0 114.0 M 0.0 124.0 L 271.0 124.0 M 0.0 134.0 L 271.0 134.0 M 0.0 144.0 L 271.0 144.0 M 0.0 154.0 L 271.0 154.0 M 0.0 164.0 L 271.0 164.0 Z" fill="none" stroke="#d6d6d6" stroke-width="0.75" />
<path d="M 67.77043 30.40856 C 68.324905 30.40856 68.821014 30.350195 69.25876 30.20428 C 69.6965 30.058365 69.959145 30.0 70.04669 30.0 C 70.192604 30.0 70.28015 30.029182 70.36771 30.116732 C 70.42607 30.175097 70.45525 30.233463 70.484436 30.321012 C 70.484436 30.379377 70.45525 30.437744 70.42607 30.496109 L 61.933853 40.35992 L 66.924126 40.35992 L 66.924126 36.449417 C 66.924126 36.18677 67.01167 35.95331 67.1284 35.807392 C 67.3035 35.661476 67.4786 35.515564 67.71206 35.4572 C 67.97471 35.340466 68.26653 35.07782 68.64591 34.640076 C 68.937744 34.319065 69.317116 33.706226 69.75486 32.801556 C 69.81323 32.684826 69.90078 32.626457 70.01751 32.626457 C 70.28015 32.626457 70.39688 32.772373 70.42607 33.03502 L 70.42607 40.35992 L 72.55642 40.35992 C 72.84825 40.35992 72.99416 40.505836 73.023346 40.797665 C 73.023346 41.089493 72.877426 41.235405 72.55642 41.235405 L 70.42607 41.235405 L 70.42607 41.468872 C 70.42607 42.28599 70.63035 42.928013 71.00973 43.45331 C 71.44747 43.9786 71.97276 44.270428 72.5856 44.270428 C 72.81906 44.270428 72.9358 44.387157 72.9358 44.62062 C 72.9358 44.854084 72.81906 44.970818 72.5856 44.970818 C 72.14786 44.970818 71.50584 44.91245 70.601166 44.79572 C 69.696495 44.649803 69.054474 44.59144 68.64591 44.59144 C 68.23735 44.59144 67.56615 44.649803 66.69066 44.79572 C 65.81517 44.91245 65.17315 44.970818 64.735405 44.970818 C 64.501945 44.970818 64.385216 44.854084 64.385216 44.62062 C 64.385216 44.387157 64.501945 44.270428 64.735405 44.270428 C 65.34825 44.270428 65.87354 43.9786 66.31128 43.45331 C 66.71984 42.89883 66.924126 42.25681 66.924126 41.468872 L 66.924126 41.235405 L 61.933853 41.235405 C 61.61284 41.235405 61.379375 41.17704 61.233463 41.001945 C 61.087547 40.885212 61.0 40.710114 61.0 40.53502 C 61.0 40.476654 61.145912 40.272373 61.437744 39.92218 C 61.729572 39.571983 62.079765 39.105057 62.488327 38.492218 C 62.488327 38.492218 63.305447 37.20817 63.71401 36.449417 C 63.71401 36.449417 64.47276 34.78599 64.735405 33.706226 C 65.02724 32.65564 65.17315 31.575874 65.17315 30.496109 C 65.17315 30.175097 65.31907 30.029182 65.58171 30.029182 C 65.61089 30.029182 65.756805 30.058365 65.96109 30.11673 C 66.16537 30.175097 66.4572 30.233461 66.77821 30.32101 C 67.1284 30.379377 67.44942 30.40856 67.77043 30.40856 Z" fill="#000000" stroke="none" stroke-width="0.75" />
<path d="M 67.77043 47.40856 C 68.324905 47.40856 68.821014 47.350193 69.25876 47.20428 C 69.6965 47.058365 69.959145 47.0 70.04669 47.0 C 70.192604 47.0 70.28015 47.029182 70.36771 47.11673 C 70.42607 47.1751 70.45525 47.233463 70.484436 47.32101 C 70.484436 47.37938 70.45525 47.437744 70.42607 47.49611 L 61.933853 57.35992 L 66.924126 57.35992 L 66.924126 53.449417 C 66.924126 53.18677 67.01167 52.95331 67.1284 52.807392 C 67.3035 52.661476 67.4786 52.515564 67.71206 52.4572 C 67.97471 52.340466 68.26653 52.07782 68.64591 51.640076 C 68.937744 51.319065 69.317116 50.706226 69.75486 49.801556 C 69.81323 49.684826 69.90078 49.626457 70.01751 49.626457 C 70.28015 49.626457 70.39688 49.772373 70.42607 50.03502 L 70.42607 57.35992 L 72.55642 57.35992 C 72.84825 57.35992 72.99416 57.505836 73.023346 57.797665 C 73.023346 58.089493 72.877426 58.235405 72.55642 58.235405 L 70.42607 58.235405 L 70.42607 58.468872 C 70.42607 59.28599 70.63035 59.928013 71.00973 60.45331 C 71.44747 60.9786 71.97276 61.270428 72.5856 61.270428 C 72.81906 61.270428 72.9358 61.387157 72.9358 61.62062 C 72.9358 61.854084 72.81906 61.970818 72.5856 61.970818 C 72.14786 61.970818 71.50584 61.91245 70.601166 61.79572 C 69.696495 61.649803 69.054474 61.59144 68.64591 61.59144 C 68.23735 61.59144 67.56615 61.649803 66.69066 61.79572 C 65.81517 61.91245 65.17315 61.970818 64.735405 61.970818 C 64.501945 61.970818 64.385216 61.854084 64.385216 61.62062 C 64.385216 61.387157 64.501945 61.270428 64.735405 61.270428 C 65.34825 61.270428 65.87354 60.9786 66.31128 60.45331 C 66.71984 59.89883 66.924126 59.25681 66.924126 58.468872 L 66.924126 58.235405 L 61.933853 58.235405 C 61.61284 58.235405 61.379375 58.17704 61.233463 58.001945 C 61.087547 57.885212 61.0 57.710114 61.0 57.53502 C 61.0 57.476654 61.145912 57.272373 61.437744 56.92218 C 61.729572 56.571983 62.079765 56.105057 62.488327 55.492218 C 62.488327 55.492218 63.305447 54.20817 63.71401 53.449417 C 63.71401 53.449417 64.47276 51.78599 64.735405 50.706226 C 65.02724 49.65564 65.17315 48.575874 65.17315 47.49611 C 65.17315 47.175095 65.31907 47.029182 65.58171 47.029182 C 65.61089 47.029182 65.756805 47.058365 65.96109 47.11673 C 66.16537 47.175095 66.4572 47.233463 66.77821 47.32101 C 67.1284 47.379375 67.44942 47.408558 67.77043 47.408558 Z" fill="#000000" stroke="none" stroke-width="0.75" />
<path d="M 22.764973 22.115383 C 22.921913 22.036913 22.948072 22.036913 23.105015 22.036913 C 23.314268 22.06307 23.445057 22.14154 23.73278 22.455425 C 25.616081 24.39104 27.185501 27.843758 27.577856 30.773342 C 27.630169 31.244167 27.630169 32.34276 27.577856 32.839737 C 27.29013 35.533905 26.165377 37.99266 23.57584 41.52385 L 23.209644 42.020832 L 23.418898 42.62244 C 23.915882 44.061073 24.491331 45.81359 24.85753 47.095284 C 24.96216 47.409164 25.04063 47.67074 25.04063 47.696896 C 25.04063 47.696896 25.223728 47.696896 25.406826 47.723053 C 26.322319 47.80152 27.10703 48.01078 27.917896 48.40313 C 28.57182 48.74317 29.147274 49.13552 29.696568 49.658665 C 30.29818 50.260277 30.690535 50.80957 31.05673 51.568123 C 31.606026 52.666718 31.84144 53.81762 31.81528 54.96853 C 31.789125 55.700924 31.684496 56.25022 31.449085 56.930305 C 31.1352 57.924263 30.559748 58.83976 29.77504 59.62447 C 29.094955 60.30455 28.46719 60.72306 27.630169 61.063103 L 27.316284 61.193886 L 27.316284 62.135536 C 27.316284 63.469543 27.237814 65.038956 27.133184 65.980606 C 27.02856 66.94841 26.766989 67.86391 26.348476 68.700935 C 25.249886 70.92427 23.314268 72.10133 21.143244 71.89209 C 18.684484 71.65667 16.69656 69.98262 16.199577 67.73312 C 15.964161 66.713 16.068794 65.9283 16.487303 65.27437 C 17.036598 64.411194 18.082878 63.91421 19.102997 63.940365 C 20.30622 63.992683 21.274027 64.934326 21.457123 66.24218 C 21.58791 67.28845 21.143244 68.25626 20.30622 68.7794 C 19.835394 69.06713 19.181469 69.197914 18.684484 69.119446 C 18.606018 69.119446 18.527544 69.093285 18.527544 69.119446 L 18.84143 69.43333 C 19.416882 70.00878 20.070807 70.374985 20.907831 70.558075 C 21.090927 70.584236 21.247868 70.584236 21.666382 70.584236 C 22.137207 70.584236 22.189518 70.584236 22.451088 70.53192 C 22.81729 70.42729 23.131172 70.29651 23.418898 70.139565 C 24.726748 69.35486 25.616081 67.73312 25.851494 65.77136 C 25.929964 65.038956 26.008434 63.469543 26.008434 62.318638 C 26.008434 61.560085 26.008434 61.50777 25.956123 61.50777 C 25.851494 61.560085 25.302197 61.6124 24.909843 61.638554 C 24.41286 61.66471 23.57584 61.66471 23.183485 61.6124 C 21.640223 61.4293 20.227747 60.90616 18.998373 60.042976 C 17.167385 58.761288 15.859535 56.851826 15.31024 54.654644 C 14.604002 51.908165 15.100986 48.978584 16.827343 45.89206 C 17.55974 44.610374 18.265978 43.564095 20.018494 41.236122 L 21.012455 39.902122 L 20.829355 39.405136 C 19.573822 36.083202 19.15531 34.173744 19.024527 31.401108 C 18.972214 30.197887 19.024527 29.177761 19.181469 28.340742 C 19.573822 26.143559 20.593945 24.181787 22.189518 22.612366 C 22.503403 22.298483 22.63419 22.193855 22.764973 22.115383 M 24.831371 26.588224 C 24.569805 26.143559 24.622118 26.169712 24.386707 26.326658 C 23.65431 26.771324 22.89576 27.451405 22.34646 28.131483 C 21.221714 29.57012 20.593945 31.244167 20.515476 33.048996 C 20.489319 33.78139 20.56779 34.252216 20.907831 35.37696 C 21.169397 36.292458 21.901793 38.5158 21.95411 38.56811 C 21.95411 38.59427 22.111048 38.411175 22.26799 38.17576 C 24.072823 35.58622 25.04063 33.467506 25.406826 31.348791 C 25.485298 30.799496 25.53761 30.354828 25.563768 29.727062 C 25.589928 28.28843 25.432985 27.582191 24.831371 26.588224 M 22.581877 44.191864 C 22.424934 43.694878 22.26799 43.302525 22.26799 43.302525 C 22.241835 43.302525 21.143244 44.76731 20.672415 45.421238 C 19.129156 47.592266 18.187506 49.34478 17.638206 51.071136 C 17.27201 52.143574 17.115068 53.137543 17.062756 54.236134 C 17.062756 54.837746 17.088915 55.20394 17.193539 55.64861 C 17.795153 57.976578 20.280064 59.886036 23.209644 60.30455 C 23.65431 60.35686 24.909843 60.35686 25.459139 60.30455 C 26.008434 60.226078 25.956123 60.252235 25.929964 60.016823 C 25.773026 57.53191 25.563768 56.014805 25.14526 53.765305 C 24.988314 52.823658 24.543648 50.835728 24.517488 50.80957 C 24.491331 50.783417 23.99435 50.835728 23.706627 50.9142 C 23.340427 50.99267 23.105015 51.071136 22.79113 51.22808 C 21.090927 52.091263 20.593945 54.053036 21.666382 55.64861 C 21.849482 55.91018 22.320305 56.381004 22.608032 56.564102 C 22.71266 56.642574 22.948072 56.799515 23.105015 56.877987 C 23.340427 57.00877 23.392738 57.061085 23.445057 57.165714 C 23.65431 57.505756 23.523525 57.924263 23.131172 58.107365 C 22.921913 58.21199 22.764973 58.185837 22.34646 57.976578 C 21.326344 57.4796 20.56779 56.799515 20.018494 55.962494 C 18.998373 54.393074 18.867586 52.37899 19.70461 50.678787 C 20.437006 49.213997 21.744852 48.22003 23.418898 47.853836 C 23.57584 47.80152 23.706627 47.775368 23.706627 47.775368 C 23.73278 47.749207 23.000385 45.368923 22.581877 44.191864 M 26.139221 50.94036 C 26.060753 50.94036 25.98228 50.9142 25.956123 50.9142 L 25.877651 50.88804 L 26.008434 51.43734 C 26.610046 54.07919 27.054714 56.956455 27.211655 59.389057 C 27.237814 59.650627 27.237814 59.859882 27.237814 59.859882 C 27.263973 59.859882 27.60401 59.70294 27.78711 59.572155 C 28.231777 59.31058 28.65029 58.91823 28.99033 58.47356 C 29.801197 57.401123 30.08892 56.06712 29.77504 54.706955 C 29.539627 53.608364 28.911861 52.58824 28.022522 51.882008 C 27.473227 51.463493 26.740831 51.097298 26.139221 50.94036 Z" fill="#000000" stroke="none" stroke-width="0.75" />
<path d="M 92.0 70.0 L 108.0 70.0 Z" fill="none" stroke="#d6d6d6" stroke-width="0.75" />
<path d="M 92.0 78.0 L 108.0 78.0 Z" fill="none" stroke="#d6d6d6" stroke-width="0.75" />
<path d="M 92.0 86.0 L 108.0 86.0 Z" fill="none" stroke="#d6d6d6" stroke-width="0.75" />
<path d="M 92.0 70.0 L 108.0 70.0 Z" fill="none" stroke="#d6d6d6" stroke-width="0.75" />
<path d="M 92.0 78.0 L 108.0 78.0 Z" fill="none" stroke="#d6d6d6" stroke-width="0.75" />
<path d="M 92.0 86.0 L 108.0 86.0 Z" fill="none" stroke="#d6d6d6" stroke-width="0.75" />
<path d="M 95.52 91.232 C 95.52 92.456 96.715195 93.68 97.895996 93.68 C 101.495995 93.68 105.09599 91.232 105.09599 88.856 C 105.09599 87.6752 103.871994 86.48 102.71999 86.48 C 99.119995 86.48 95.52 88.856 95.52 91.232 Z" fill="#404040" stroke="none" stroke-width="1.0" />
<path d="M 94.0 160.25 L 102.0 160.25 L 102.0 167.75 L 94.0 167.75 L 94.0 160.25 Z" fill="#ffffff" stroke="none" stroke-width="1.0" />
<text x='94.0' y='167.75' font-family="Default" font-size="10.0" fill="#404040" >0</text>
<path d="M 104.18 89.04 L 105.18 89.04 L 105.18 58.0 L 104.18 58.0 M 104.18 89.04 Z" fill="#404040" stroke="none" stroke-width="0.75" />
<path d="M 104.18 56.0 L 104.18 60.0 L 125.18 60.0 L 125.18 56.0 L 104.18 56.0 Z" fill="#404040" stroke="none" stroke-width="0.75" />
<path d="M 112.0 70.0 L 128.0 70.0 Z" fill="none" stroke="#d6d6d6" stroke-width="0.75" />
<path d="M 112.0 78.0 L 128.0 78.0 Z" fill="none" stroke="#d6d6d6" stroke-width="0.75" />
<path d="M 112.0 86.0 L 128.0 86.0 Z" fill="none" stroke="#d6d6d6" stroke-width="0.75" />
<path d="M 112.0 70.0 L 128.0 70.0 Z" fill="none" stroke="#d6d6d6" stroke-width="0.75" />
<path d="M 112.0 78.0 L 128.0 78.0 Z" fill="none" stroke="#d6d6d6" stroke-width="0.75" />
<path d="M 112.0 86.0 L 128.0 86.0 Z" fill="none" stroke="#d6d6d6" stroke-width="0.75" />
<path d="M 115.52 91.232 C 115.52 92.456 116.715195 93.68 117.895996 93.68 C 121.495995 93.68 125.09599 91.232 125.09599 88.856 C 125.09599 87.6752 123.871994 86.48 122.71999 86.48 C 119.119995 86.48 115.52 88.856 115.52 91.232 Z" fill="#404040" stroke="none" stroke-width="1.0" />
<path d="M 114.0 160.25 L 122.0 160.25 L 122.0 167.75 L 114.0 167.75 L 114.0 160.25 Z" fill="#ffffff" stroke="none" stroke-width="1.0" />
<text x='114.0' y='167.75' font-family="Default" font-size="10.0" fill="#404040" >0</text>
<path d="M 124.18 89.04 L 125.18 89.04 L 125.18 58.0 L 124.18 58.0 M 124.18 89.04 Z" fill="#404040" stroke="none" stroke-width="0.75" />
<path d="M 135.52 67.232 C 135.52 68.456 136.71521 69.68 137.89601 69.68 C 141.496 69.68 145.09601 67.232 145.09601 64.856 C 145.09601 63.6752 143.87201 62.48 142.72 62.48 C 139.12001 62.48 135.52 64.856 135.52 67.232 Z" fill="#404040" stroke="none" stroke-width="1.0" />
<path d="M 134.0 150.25 L 142.0 150.25 L 142.0 157.75 L 134.0 157.75 L 134.0 150.25 Z" fill="#ffffff" stroke="none" stroke-width="1.0" />
<text x='134.0' y='157.75' font-family="Default" font-size="10.0" fill="#404040" >5</text>
<path d="M 144.18 65.04 L 145.18 65.04 L 145.18 34.0 L 144.18 34.0 M 144.18 65.04 Z" fill="#404040" stroke="none" stroke-width="0.75" />
<path d="M 144.18 32.0 L 144.18 36.0 L 165.18 46.0 L 165.18 42.0 L 144.18 32.0 Z" fill="#404040" stroke="none" stroke-width="0.75" />
<path d="M 152.0 70.0 L 168.0 70.0 Z" fill="none" stroke="#d6d6d6" stroke-width="0.75" />
<path d="M 152.0 78.0 L 168.0 78.0 Z" fill="none" stroke="#d6d6d6" stroke-width="0.75" />
<path d="M 152.0 86.0 L 168.0 86.0 Z" fill="none" stroke="#d6d6d6" stroke-width="0.75" />
<path d="M 152.0 70.0 L 168.0 70.0 Z" fill="none" stroke="#d6d6d6" stroke-width="0.75" />
<path d="M 152.0 78.0 L 168.0 78.0 Z" fill="none" stroke="#d6d6d6" stroke-width="0.75" />
<path d="M 152.0 86.0 L 168.0 86.0 Z" fill="none" stroke="#d6d6d6" stroke-width="0.75" />
<path d="M 155.52 91.232 C 155.52 92.456 156.71521 93.68 157.89601 93.68 C 161.496 93.68 165.09601 91.232 165.09601 88.856 C 165.09601 87.6752 163.87201 86.48 162.72 86.48 C 159.12001 86.48 155.52 88.856 155.52 91.232 Z" fill="#404040" stroke="none" stroke-width="1.0" />
<path d="M 154.0 160.25 L 162.0 160.25 L 162.0 167.75 L 154.0 167.75 L 154.0 160.25 Z" fill="#ffffff" stroke="none" stroke-width="1.0" />
<text x='154.0' y='167.75' font-family="Default" font-size="10.0" fill="#404040" >0</text>
<path d="M 164.18 89.04 L 165.18 89.04 L 165.18 44.0 L 164.18 44.0 M 164.18 89.04 Z" fill="#404040" stroke="none" stroke-width="0.75" />
<path d="M 175.52 63.232 C 175.52 64.456 176.71521 65.68 177.89601 65.68 C 181.496 65.68 185.09601 63.232 185.09601 60.856 C 185.09601 59.6752 183.87201 58.48 182.72 58.48 C 179.12001 58.48 175.52 60.856 175.52 63.232 Z" fill="#404040" stroke="none" stroke-width="1.0" />
<path d="M 174.0 150.25 L 182.0 150.25 L 182.0 157.75 L 174.0 157.75 L 174.0 150.25 Z" fill="#ffffff" stroke="none" stroke-width="1.0" />
<text x='174.0' y='157.75' font-family="Default" font-size="10.0" fill="#404040" >7</text>
<path d="M 184.18 61.04 L 185.18 61.04 L 185.18 30.0 L 184.18 30.0 M 184.18 61.04 Z" fill="#404040" stroke="none" stroke-width="0.75" />
<path d="M 184.18 28.0 L 184.18 32.0 L 205.18 42.0 L 205.18 38.0 L 184.18 28.0 Z" fill="#404040" stroke="none" stroke-width="0.75" />
<path d="M 192.0 70.0 L 208.0 70.0 Z" fill="none" stroke="#d6d6d6" stroke-width="0.75" />
<path d="M 192.0 78.0 L 208.0 78.0 Z" fill="none" stroke="#d6d6d6" stroke-width="0.75" />
<path d="M 192.0 86.0 L 208.0 86.0 Z" fill="none" stroke="#d6d6d6" stroke-width="0.75" />
<path d="M 192.0 70.0 L 208.0 70.0 Z" fill="none" stroke="#d6d6d6" stroke-width="0.75" />
<path d="M 192.0 78.0 L 208.0 78.0 Z" fill="none" stroke="#d6d6d6" stroke-width="0.75" />
<path d="M 192.0 86.0 L 208.0 86.0 Z" fill="none" stroke="#d6d6d6" stroke-width="0.75" />
<path d="M 195.52 91.232 C 195.52 92.456 196.71521 93.68 197.89601 93.68 C 201.496 93.68 205.09601 91.232 205.09601 88.856 C 205.09601 87.6752 203.87201 86.48 202.72 86.48 C 199.12001 86.48 195.52 88.856 195.52 91.232 Z" fill="#404040" stroke="none" stroke-width="1.0" />
<path d="M 194.0 160.25 L 202.0 160.25 L 202.0 167.75 L 194.0 167.75 L 194.0 160.25 Z" fill="#ffffff" stroke="none" stroke-width="1.0" />
<text x='194.0' y='167.75' font-family="Default" font-size="10.0" fill="#404040" >0</text>
<path d="M 204.18 89.04 L 205.18 89.04 L 205.18 40.0 L 204.18 40.0 M 204.18 89.04 Z" fill="#404040" stroke="none" stroke-width="0.75" />
<path d="M 212.0 70.0 L 228.0 70.0 Z" fill="none" stroke="#d6d6d6" stroke-width="0.75" />
<path d="M 212.0 78.0 L 228.0 78.0 Z" fill="none" stroke="#d6d6d6" stroke-width="0.75" />
<path d="M 212.0 86.0 L 228.0 86.0 Z" fill="none" stroke="#d6d6d6" stroke-width="0.75" />
<path d="M 212.0 70.0 L 228.0 70.0 Z" fill="none" stroke="#d6d6d6" stroke-width="0.75" />
<path d="M 212.0 78.0 L 228.0 78.0 Z" fill="none" stroke="#d6d6d6" stroke-width="0.75" />
<path d="M 212.0 86.0 L 228.0 86.0 Z" fill="none" stroke="#d6d6d6" stroke-width="0.75" />
<path d="M 215.52 91.232 C 215.52 92.456 216.71521 93.68 217.89601 93.68 C 221.496 93.68 225.09601 91.232 225.09601 88.856 C 225.09601 87.6752 223.87201 86.48 222.72 86.48 C 219.12001 86.48 215.52 88.856 215.52 91.232 Z" fill="#404040" stroke="none" stroke-width="1.0" />
<path d="M 214.0 160.25 L 222.0 160.25 L 222.0 167.75 L 214.0 167.75 L 214.0 160.25 Z" fill="#ffffff" stroke="none" stroke-width="1.0" />
<text x='214.0' y='167.75' font-family="Default" font-size="10.0" fill="#404040" >0</text>
<path d="M 224.18 89.04 L 225.18 89.04 L 225.18 44.0 L 224.18 44.0 M 224.18 89.04 Z" fill="#404040" stroke="none" stroke-width="0.75" />
<path d="M 224.18 42.0 L 224.18 46.0 L 245.18 36.0 L 245.18 32.0 L 224.18 42.0 Z" fill="#404040" stroke="none" stroke-width="0.75" />
<path d="M 235.52 67.232 C 235.52 68.456 236.71521 69.68 237.89601 69.68 C 241.496 69.68 245.09601 67.232 245.09601 64.856 C 245.09601 63.6752 243.87201 62.48 242.72 62.48 C 239.12001 62.48 235.52 64.856 235.52 67.232 Z" fill="#404040" stroke="none" stroke-width="1.0" />
<path d="M 234.0 150.25 L 242.0 150.25 L 242.0 157.75 L 234.0 157.75 L 234.0 150.25 Z" fill="#ffffff" stroke="none" stroke-width="1.0" />
<text x='234.0' y='157.75' font-family="Default" font-size="10.0" fill="#404040" >5</text>
<path d="M 244.18 65.04 L 245.18 65.04 L 245.18 34.0 L 244.18 34.0 M 244.18 65.04 Z" fill="#404040" stroke="none" stroke-width="0.75" /></g>
<path d="M 35.35 36.3 C 35.35 37.15 36.18 38.0 37.0 38.0 C 39.5 38.0 42.0 36.3 42.0 34.65 C 42.0 33.83 41.149998 33.0 40.35 33.0 C 37.85 33.0 35.35 34.65 35.35 36.3 Z" fill="#000000" stroke="none" stroke-width="1.0" />
<path d="M 42.0 20.0 L 42.0 34.7 Z" fill="none" stroke="#000000" stroke-width="1.0" />
<text x='43.0' y='36.25' font-family="Default" font-size="10.0" fill="#000000" > = 120</text>
<text x='21.0' y='48.0' font-family="Default" font-size="10.0" fill="#ff0000" >1</text>
<path d="M 20.0 50.0 L 23.0 50.0 L 23.0 134.0 L 20.0 134.0 L 20.0 50.0 Z" fill="#000000" stroke="#000000" stroke-width="0.75" />
<path d="M 25.0 50.0 L 26.0 50.0 L 26.0 134.0 L 25.0 134.0 L 25.0 50.0 Z" fill="#000000" stroke="#000000" stroke-width="0.75" />
<path d="M 291.0 50.0 L 291.0 82.0 Z" fill="#000000" stroke="#000000" stroke-width="0.75" />
<path d="M 20.0 134.0 L 23.0 134.0 L 23.0 184.0 L 20.0 184.0 L 20.0 134.0 Z" fill="#000000" stroke="#000000" stroke-width="0.75" />
<path d="M 25.0 134.0 L 26.0 134.0 L 26.0 184.0 L 25.0 184.0 L 25.0 134.0 Z" fill="#000000" stroke="#000000" stroke-width="0.75" />
<path d="M 291.0 134.0 L 291.0 184.0 Z" fill="#000000" stroke="#000000" stroke-width="0.75" /><g transform="translate(291.0,20.0)">
<path d="M 0.0 0.0 L 200.0 0.0 L 200.0 185.0 L 0.0 185.0 L 0.0 0.0 Z" fill="#ffffff" stroke="none" stroke-width="1.0" />
<path d="M 0.0 30.0 L 200.0 30.0 M 0.0 38.0 L 200.0 38.0 M 0.0 46.0 L 200.0 46.0 M 0.0 54.0 L 200.0 54.0 M 0.0 62.0 L 200.0 62.0 Z" fill="none" stroke="#d6d6d6" stroke-width="0.75" />
<path d="M 0.0 114.0 L 200.0 114.0 M 0.0 124.0 L 200.0 124.0 M 0.0 134.0 L 200.0 134.0 M 0.0 144.0 L 200.0 144.0 M 0.0 154.0 L 200.0 154.0 M 0.0 164.0 L 200.0 164.0 Z" fill="none" stroke="#d6d6d6" stroke-width="0.75" />
<path d="M 21.0 70.0 L 37.0 70.0 Z" fill="none" stroke="#d6d6d6" stroke-width="0.75" />
<path d="M 21.0 78.0 L 37.0 78.0 Z" fill="none" stroke="#d6d6d6" stroke-width="0.75" />
<path d="M 21.0 86.0 L 37.0 86.0 Z" fill="none" stroke="#d6d6d6" stroke-width="0.75" />
<path d="M 21.0 70.0 L 37.0 70.0 Z" fill="none" stroke="#d6d6d6" stroke-width="0.75" />
<path d="M 21.0 78.0 L 37.0 78.0 Z" fill="none" stroke="#d6d6d6" stroke-width="0.75" />
<path d="M 21.0 86.0 L 37.0 86.0 Z" fill="none" stroke="#d6d6d6" stroke-width="0.75" />
<path d="M 24.52 91.232 C 24.52 92.456 25.7152 93.68 26.896 93.68 C 30.496 93.68 34.096 91.232 34.096 88.856 C 34.096 87.6752 32.872 86.48 31.720001 86.48 C 28.12 86.48 24.52 88.856 24.52 91.232 Z" fill="#404040" stroke="none" stroke-width="1.0" />
<path d="M 23.0 160.25 L 31.0 160.25 L 31.0 167.75 L 23.0 167.75 L 23.0 160.25 Z" fill="#ffffff" stroke="none" stroke-width="1.0" />
<text x='23.0' y='167.75' font-family="Default" font-size="10.0" fill="#404040" >0</text>
<path d="M 33.18 89.04 L 34.18 89.04 L 34.18 40.0 L 33.18 40.0 M 33.18 89.04 Z" fill="#404040" stroke="none" stroke-width="0.75" />
<path d="M 33.18 38.0 L 33.18 42.0 L 54.18 32.0 L 54.18 28.0 L 33.18 38.0 Z" fill="#404040" stroke="none" stroke-width="0.75" />
<path d="M 44.52 63.232 C 44.52 64.456 45.715202 65.68 46.896 65.68 C 50.496002 65.68 54.096 63.232 54.096 60.856 C 54.096 59.6752 52.872 58.48 51.72 58.48 C 48.12 58.48 44.52 60.856 44.52 63.232 Z" fill="#404040" stroke="none" stroke-width="1.0" />
<path d="M 43.0 150.25 L 51.0 150.25 L 51.0 157.75 L 43.0 157.75 L 43.0 150.25 Z" fill="#ffffff" stroke="none" stroke-width="1.0" />
<text x='43.0' y='157.75' font-family="Default" font-size="10.0" fill="#404040" >7</text>
<path d="M 53.18 61.04 L 54.18 61.04 L 54.18 30.0 L 53.18 30.0 M 53.18 61.04 Z" fill="#404040" stroke="none" stroke-width="0.75" />
<path d="M 61.0 70.0 L 77.0 70.0 Z" fill="none" stroke="#d6d6d6" stroke-width="0.75" />
<path d="M 61.0 78.0 L 77.0 78.0 Z" fill="none" stroke="#d6d6d6" stroke-width="0.75" />
<path d="M 61.0 86.0 L 77.0 86.0 Z" fill="none" stroke="#d6d6d6" stroke-width="0.75" />
<path d="M 61.0 70.0 L 77.0 70.0 Z" fill="none" stroke="#d6d6d6" stroke-width="0.75" />
<path d="M 61.0 78.0 L 77.0 78.0 Z" fill="none" stroke="#d6d6d6" stroke-width="0.75" />
<path d="M 61.0 86.0 L 77.0 86.0 Z" fill="none" stroke="#d6d6d6" stroke-width="0.75" />
<path d="M 64.52 91.232 C 64.52 92.456 65.715195 93.68 66.895996 93.68 C 70.495995 93.68 74.09599 91.232 74.09599 88.856 C 74.09599 87.6752 72.871994 86.48 71.71999 86.48 C 68.119995 86.48 64.52 88.856 64.52 91.232 Z" fill="#404040" stroke="none" stroke-width="1.0" />
<path d="M 63.0 160.25 L 71.0 160.25 L 71.0 167.75 L 63.0 167.75 L 63.0 160.25 Z" fill="#ffffff" stroke="none" stroke-width="1.0" />
<text x='63.0' y='167.75' font-family="Default" font-size="10.0" fill="#404040" >0</text>
<path d="M 73.18 89.04 L 74.18 89.04 L 74.18 58.0 L 73.18 58.0 M 73.18 89.04 Z" fill="#404040" stroke="none" stroke-width="0.75" />
<path d="M 73.18 56.0 L 73.18 60.0 L 94.18 60.0 L 94.18 56.0 L 73.18 56.0 Z" fill="#404040" stroke="none" stroke-width="0.75" />
<path d="M 81.0 70.0 L 97.0 70.0 Z" fill="none" stroke="#d6d6d6" stroke-width="0.75" />
<path d="M 81.0 78.0 L 97.0 78.0 Z" fill="none" stroke="#d6d6d6" stroke-width="0.75" />
<path d="M 81.0 86.0 L 97.0 86.0 Z" fill="none" stroke="#d6d6d6" stroke-width="0.75" />
<path d="M 81.0 70.0 L 97.0 70.0 Z" fill="none" stroke="#d6d6d6" stroke-width="0.75" />
<path d="M 81.0 78.0 L 97.0 78.0 Z" fill="none" stroke="#d6d6d6" stroke-width="0.75" />
<path d="M 81.0 86.0 L 97.0 86.0 Z" fill="none" stroke="#d6d6d6" stroke-width="0.75" />
<path d="M 84.52 91.232 C 84.52 92.456 85.715195 93.68 86.895996 93.68 C 90.495995 93.68 94.09599 91.232 94.09599 88.856 C 94.09599 87.6752 92.871994 86.48 91.71999 86.48 C 88.119995 86.48 84.52 88.856 84.52 91.232 Z" fill="#404040" stroke="none" stroke-width="1.0" />
<path d="M 83.0 160.25 L 91.0 160.25 L 91.0 167.75 L 83.0 167.75 L 83.0 160.25 Z" fill="#ffffff" stroke="none" stroke-width="1.0" />
<text x='83.0' y='167.75' font-family="Default" font-size="10.0" fill="#404040" >0</text>
<path d="M 93.18 89.04 L 94.18 89.04 L 94.18 58.0 L 93.18 58.0 M 93.18 89.04 Z" fill="#404040" stroke="none" stroke-width="0.75" />
<path d="M 101.0 70.0 L 117.0 70.0 Z" fill="none" stroke="#d6d6d6" stroke-width="0.75" />
<path d="M 101.0 78.0 L 117.0 78.0 Z" fill="none" stroke="#d6d6d6" stroke-width="0.75" />
<path d="M 101.0 86.0 L 117.0 86.0 Z" fill="none" stroke="#d6d6d6" stroke-width="0.75" />
<path d="M 101.0 70.0 L 117.0 70.0 Z" fill="none" stroke="#d6d6d6" stroke-width="0.75" />
<path d="M 101.0 78.0 L 117.0 78.0 Z" fill="none" stroke="#d6d6d6" stroke-width="0.75" />
<path d="M 101.0 86.0 L 117.0 86.0 Z" fill="none" stroke="#d6d6d6" stroke-width="0.75" />
<path d="M 104.52 91.232 C 104.52 92.456 105.715195 93.68 106.895996 93.68 C 110.495995 93.68 114.09599 91.232 114.09599 88.856 C 114.09599 87.6752 112.871994 86.48 111.71999 86.48 C 108.119995 86.48 104.52 88.856 104.52 91.232 Z" fill="#404040" stroke="none" stroke-width="1.0" />
<path d="M 103.0 160.25 L 111.0 160.25 L 111.0 167.75 L 103.0 167.75 L 103.0 160.25 Z" fill="#ffffff" stroke="none" stroke-width="1.0" />
<text x='103.0' y='167.75' font-family="Default" font-size="10.0" fill="#404040" >0</text>
<path d="M 113.18 89.04 L 114.18 89.04 L 114.18 44.0 L 113.18 44.0 M 113.18 89.04 Z" fill="#404040" stroke="none" stroke-width="0.75" />
<path d="M 113.18 42.0 L 113.18 46.0 L 134.18 36.0 L 134.18 32.0 L 113.18 42.0 Z" fill="#404040" stroke="none" stroke-width="0.75" />
<path d="M 124.52 67.232 C 124.52 68.456 125.715195 69.68 126.895996 69.68 C 130.496 69.68 134.096 67.232 134.096 64.856 C 134.096 63.6752 132.872 62.48 131.72 62.48 C 128.12 62.48 124.52 64.856 124.52 67.232 Z" fill="#404040" stroke="none" stroke-width="1.0" />
<path d="M 123.0 150.25 L 131.0 150.25 L 131.0 157.75 L 123.0 157.75 L 123.0 150.25 Z" fill="#ffffff" stroke="none" stroke-width="1.0" />
<text x='123.0' y='157.75' font-family="Default" font-size="10.0" fill="#404040" >5</text>
<path d="M 133.18 65.04 L 134.18 65.04 L 134.18 34.0 L 133.18 34.0 M 133.18 65.04 Z" fill="#404040" stroke="none" stroke-width="0.75" />
<path d="M 141.0 70.0 L 157.0 70.0 Z" fill="none" stroke="#d6d6d6" stroke-width="0.75" />
<path d="M 141.0 78.0 L 157.0 78.0 Z" fill="none" stroke="#d6d6d6" stroke-width="0.75" />
<path d="M 141.0 86.0 L 157.0 86.0 Z" fill="none" stroke="#d6d6d6" stroke-width="0.75" />
<path d="M 141.0 70.0 L 157.0 70.0 Z" fill="none" stroke="#d6d6d6" stroke-width="0.75" />
<path d="M 141.0 78.0 L 157.0 78.0 Z" fill="none" stroke="#d6d6d6" stroke-width="0.75" />
<path d="M 141.0 86.0 L 157.0 86.0 Z" fill="none" stroke="#d6d6d6" stroke-width="0.75" />
<path d="M 144.52 91.232 C 144.52 92.456 145.71521 93.68 146.89601 93.68 C 150.496 93.68 154.09601 91.232 154.09601 88.856 C 154.09601 87.6752 152.87201 86.48 151.72 86.48 C 148.12001 86.48 144.52 88.856 144.52 91.232 Z" fill="#404040" stroke="none" stroke-width="1.0" />
<path d="M 143.0 160.25 L 151.0 160.25 L 151.0 167.75 L 143.0 167.75 L 143.0 160.25 Z" fill="#ffffff" stroke="none" stroke-width="1.0" />
<text x='143.0' y='167.75' font-family="Default" font-size="10.0" fill="#404040" >0</text>
<path d="M 153.18 89.04 L 154.18 89.04 L 154.18 40.0 L 153.18 40.0 M 153.18 89.04 Z" fill="#404040" stroke="none" stroke-width="0.75" />
<path d="M 153.18 38.0 L 153.18 42.0 L 174.18 32.0 L 174.18 28.0 L 153.18 38.0 Z" fill="#404040" stroke="none" stroke-width="0.75" />
<path d="M 164.52 63.232 C 164.52 64.456 165.71521 65.68 166.89601 65.68 C 170.496 65.68 174.09601 63.232 174.09601 60.856 C 174.09601 59.6752 172.87201 58.48 171.72 58.48 C 168.12001 58.48 164.52 60.856 164.52 63.232 Z" fill="#404040" stroke="none" stroke-width="1.0" />
<path d="M 163.0 150.25 L 171.0 150.25 L 171.0 157.75 L 163.0 157.75 L 163.0 150.25 Z" fill="#ffffff" stroke="none" stroke-width="1.0" />
<text x='163.0' y='157.75' font-family="Default" font-size="10.0" fill="#404040" >7</text>
<path d="M 173.18 61.04 L 174.18 61.04 L 174.18 30.0 L 173.18 30.0 M 173.18 61.04 Z" fill="#404040" stroke="none" stroke-width="0.75" /></g>
<text x='292.0' y='48.0' font-family="Default" font-size="10.0" fill="#ff0000" >2</text>
<path d="M 291.0 50.0 L 291.0 82.0 Z" fill="#000000" stroke="#000000" stroke-width="0.75" />
<path d="M 491.0 50.0 L 491.0 82.0 Z" fill="#000000" stroke="#000000" stroke-width="0.75" />
<path d="M 291.0 134.0 L 291.0 184.0 Z" fill="#000000" stroke="#000000" stroke-width="0.75" />
<path d="M 491.0 134.0 L 491.0 184.0 Z" fill="#000000" stroke="#000000" stroke-width="0.75" /><g transform="translate(491.0,20.0)">
<path d="M 0.0 0.0 L 200.0 0.0 L 200.0 185.0 L 0.0 185.0 L 0.0 0.0 Z" fill="#ffffff" stroke="none" stroke-width="1.0" />
<path d="M 0.0 30.0 L 200.0 30.0 M 0.0 38.0 L 200.0 38.0 M 0.0 46.0 L 200.0 46.0 M 0.0 54.0 L 200.0 54.0 M 0.0 62.0 L 200.0 62.0 Z" fill="none" stroke="#d6d6d6" stroke-width="0.75" />
<path d="M 0.0 114.0 L 200.0 114.0 M 0.0 124.0 L 200.0 124.0 M 0.0 134.0 L 200.0 134.0 M 0.0 144.0 L 200.0 144.0 M 0.0 154.0 L 200.0 154.0 M 0.0 164.0 L 200.0 164.0 Z" fill="none" stroke="#d6d6d6" stroke-width="0.75" />
<path d="M 21.0 70.0 L 37.0 70.0 Z" fill="none" stroke="#d6d6d6" stroke-width="0.75" />
<path d="M 21.0 78.0 L 37.0 78.0 Z" fill="none" stroke="#d6d6d6" stroke-width="0.75" />
<path d="M 21.0 70.0 L 37.0 70.0 Z" fill="none" stroke="#d6d6d6" stroke-width="0.75" />
<path d="M 21.0 78.0 L 37.0 78.0 Z" fill="none" stroke="#d6d6d6" stroke-width="0.75" />
<path d="M 24.52 83.232 C 24.52 84.456 25.7152 85.68 26.896 85.68 C 30.496 85.68 34.096 83.232 34.096 80.856 C 34.096 79.6752 32.872 78.48 31.720001 78.48 C 28.12 78.48 24.52 80.856 24.52 83.232 Z" fill="#404040" stroke="none" stroke-width="1.0" />
<path d="M 23.0 160.25 L 31.0 160.25 L 31.0 167.75 L 23.0 167.75 L 23.0 160.25 Z" fill="#ffffff" stroke="none" stroke-width="1.0" />
<text x='23.0' y='167.75' font-family="Default" font-size="10.0" fill="#404040" >3</text>
<path d="M 33.18 81.04 L 34.18 81.04 L 34.18 50.0 L 33.18 50.0 M 33.18 81.04 Z" fill="#404040" stroke="none" stroke-width="0.75" />
<path d="M 33.18 48.0 L 33.18 52.0 L 54.18 52.0 L 54.18 48.0 L 33.18 48.0 Z" fill="#404040" stroke="none" stroke-width="0.75" />
<path d="M 41.0 70.0 L 57.0 70.0 Z" fill="none" stroke="#d6d6d6" stroke-width="0.75" />
<path d="M 41.0 78.0 L 57.0 78.0 Z" fill="none" stroke="#d6d6d6" stroke-width="0.75" />
<path d="M 41.0 70.0 L 57.0 70.0 Z" fill="none" stroke="#d6d6d6" stroke-width="0.75" />
<path d="M 41.0 78.0 L 57.0 78.0 Z" fill="none" stroke="#d6d6d6" stroke-width="0.75" />
<path d="M 44.52 83.232 C 44.52 84.456 45.715202 85.68 46.896 85.68 C 50.496002 85.68 54.096 83.232 54.096 80.856 C 54.096 79.6752 52.872 78.48 51.72 78.48 C 48.12 78.48 44.52 80.856 44.52 83.232 Z" fill="#404040" stroke="none" stroke-width="1.0" />
<path d="M 43.0 160.25 L 51.0 160.25 L 51.0 167.75 L 43.0 167.75 L 43.0 160.25 Z" fill="#ffffff" stroke="none" stroke-width="1.0" />
<text x='43.0' y='167.75' font-family="Default" font-size="10.0" fill="#404040" >3</text>
<path d="M 53.18 81.04 L 54.18 81.04 L 54.18 50.0 L 53.18 50.0 M 53.18 81.04 Z" fill="#404040" stroke="none" stroke-width="0.75" />
<path d="M 61.0 70.0 L 77.0 70.0 Z" fill="none" stroke="#d6d6d6" stroke-width="0.75" />
<path d="M 64.52 71.232 C 64.52 72.456 65.715195 73.68 66.895996 73.68 C 70.495995 73.68 74.09599 71.232 74.09599 68.856 C 74.09599 67.6752 72.871994 66.48 71.71999 66.48 C 68.119995 66.48 64.52 68.856 64.52 71.232 Z" fill="#404040" stroke="none" stroke-width="1.0" />
<path d="M 63.0 150.25 L 71.0 150.25 L 71.0 157.75 L 63.0 157.75 L 63.0 150.25 Z" fill="#ffffff" stroke="none" stroke-width="1.0" />
<text x='63.0' y='157.75' font-family="Default" font-size="10.0" fill="#404040" >3</text>
<path d="M 64.52 59.232 C 64.52 60.456 65.715195 61.68 66.895996 61.68 C 70.495995 61.68 74.09599 59.232 74.09599 56.856 C 74.09599 55.6752 72.871994 54.48 71.71999 54.48 C 68.119995 54.48 64.52 56.856 64.52 59.232 Z" fill="#404040" stroke="none" stroke-width="1.0" />
<path d="M 63.0 140.25 L 71.0 140.25 L 71.0 147.75 L 63.0 147.75 L 63.0 140.25 Z" fill="#ffffff" stroke="none" stroke-width="1.0" />
<text x='63.0' y='147.75' font-family="Default" font-size="10.0" fill="#404040" >3</text>
<path d="M 73.18 69.04 L 74.18 69.04 L 74.18 26.0 L 73.18 26.0 M 73.18 69.04 Z" fill="#404040" stroke="none" stroke-width="0.75" />
<path d="M 73.18 24.0 L 73.18 28.0 L 94.18 38.0 L 94.18 34.0 L 73.18 24.0 Z" fill="#404040" stroke="none" stroke-width="0.75" />
<path d="M 81.0 70.0 L 97.0 70.0 Z" fill="none" stroke="#d6d6d6" stroke-width="0.75" />
<path d="M 81.0 78.0 L 97.0 78.0 Z" fill="none" stroke="#d6d6d6" stroke-width="0.75" />
<path d="M 81.0 70.0 L 97.0 70.0 Z" fill="none" stroke="#d6d6d6" stroke-width="0.75" />
<path d="M 81.0 78.0 L 97.0 78.0 Z" fill="none" stroke="#d6d6d6" stroke-width="0.75" />
<path d="M 84.52 83.232 C 84.52 84.456 85.715195 85.68 86.895996 85.68 C 90.495995 85.68 94.09599 83.232 94.09599 80.856 C 94.09599 79.6752 92.871994 78.48 91.71999 78.48 C 88.119995 78.48 84.52 80.856 84.52 83.232 Z" fill="#404040" stroke="none" stroke-width="1.0" />
<path d="M 83.0 160.25 L 91.0 160.25 L 91.0 167.75 L 83.0 167.75 L 83.0 160.25 Z" fill="#ffffff" stroke="none" stroke-width="1.0" />
<text x='83.0' y='167.75' font-family="Default" font-size="10.0" fill="#404040" >3</text>
<path d="M 93.18 81.04 L 94.18 81.04 L 94.18 36.0 L 93.18 36.0 M 93.18 81.04 Z" fill="#404040" stroke="none" stroke-width="0.75" />
<path d="M 104.52 67.232 C 104.52 68.456 105.715195 69.68 106.895996 69.68 C 110.495995 69.68 114.09599 67.232 114.09599 64.856 C 114.09599 63.6752 112.871994 62.48 111.71999 62.48 C 108.119995 62.48 104.52 64.856 104.52 67.232 Z" fill="#404040" stroke="none" stroke-width="1.0" />
<path d="M 103.0 150.25 L 111.0 150.25 L 111.0 157.75 L 103.0 157.75 L 103.0 150.25 Z" fill="#ffffff" stroke="none" stroke-width="1.0" />
<text x='103.0' y='157.75' font-family="Default" font-size="10.0" fill="#404040" >5</text>
<path d="M 104.52 55.232 C 104.52 56.456 105.715195 57.68 106.895996 57.68 C 110.495995 57.68 114.09599 55.232 114.09599 52.856 C 114.09599 51.6752 112.871994 50.48 111.71999 50.48 C 108.119995 50.48 104.52 52.856 104.52 55.232 Z" fill="#404040" stroke="none" stroke-width="1.0" />
<path d="M 103.0 140.25 L 111.0 140.25 L 111.0 147.75 L 103.0 147.75 L 103.0 140.25 Z" fill="#ffffff" stroke="none" stroke-width="1.0" />
<text x='103.0' y='147.75' font-family="Default" font-size="10.0" fill="#404040" >5</text>
<path d="M 113.18 65.04 L 114.18 65.04 L 114.18 22.0 L 113.18 22.0 M 113.18 65.04 Z" fill="#404040" stroke="none" stroke-width="0.75" />
<path d="M 113.18 20.0 L 113.18 24.0 L 134.18 34.0 L 134.18 30.0 L 113.18 20.0 Z" fill="#404040" stroke="none" stroke-width="0.75" />
<path d="M 121.0 70.0 L 137.0 70.0 Z" fill="none" stroke="#d6d6d6" stroke-width="0.75" />
<path d="M 121.0 78.0 L 137.0 78.0 Z" fill="none" stroke="#d6d6d6" stroke-width="0.75" />
<path d="M 121.0 70.0 L 137.0 70.0 Z" fill="none" stroke="#d6d6d6" stroke-width="0.75" />
<path d="M 121.0 78.0 L 137.0 78.0 Z" fill="none" stroke="#d6d6d6" stroke-width="0.75" />
<path d="M 124.52 83.232 C 124.52 84.456 125.715195 85.68 126.895996 85.68 C 130.496 85.68 134.096 83.232 134.096 80.856 C 134.096 79.6752 132.872 78.48 131.72 78.48 C 128.12 78.48 124.52 80.856 124.52 83.232 Z" fill="#404040" stroke="none" stroke-width="1.0" />
<path d="M 123.0 160.25 L 131.0 160.25 L 131.0 167.75 L 123.0 167.75 L 123.0 160.25 Z" fill="#ffffff" stroke="none" stroke-width="1.0" />
<text x='123.0' y='167.75' font-family="Default" font-size="10.0" fill="#404040" >3</text>
<path d="M 133.18 81.04 L 134.18 81.04 L 134.18 32.0 L 133.18 32.0 M 133.18 81.04 Z" fill="#404040" stroke="none" stroke-width="0.75" />
<path d="M 141.0 70.0 L 157.0 70.0 Z" fill="none" stroke="#d6d6d6" stroke-width="0.75" />
<path d="M 141.0 78.0 L 157.0 78.0 Z" fill="none" stroke="#d6d6d6" stroke-width="0.75" />
<path d="M 141.0 70.0 L 157.0 70.0 Z" fill="none" stroke="#d6d6d6" stroke-width="0.75" />
<path d="M 141.0 78.0 L 157.0 78.0 Z" fill="none" stroke="#d6d6d6" stroke-width="0.75" />
<path d="M 144.52 83.232 C 144.52 84.456 145.71521 85.68 146.89601 85.68 C 150.496 85.68 154.09601 83.232 154.09601 80.856 C 154.09601 79.6752 152.87201 78.48 151.72 78.48 C 148.12001 78.48 144.52 80.856 144.52 83.232 Z" fill="#404040" stroke="none" stroke-width="1.0" />
<path d="M 143.0 160.25 L 151.0 160.25 L 151.0 167.75 L 143.0 167.75 L 143.0 160.25 Z" fill="#ffffff" stroke="none" stroke-width="1.0" />
<text x='143.0' y='167.75' font-family="Default" font-size="10.0" fill="#404040" >3</text>
<path d="M 153.18 81.04 L 154.18 81.04 L 154.18 36.0 L 153.18 36.0 M 153.18 81.04 Z" fill="#404040" stroke="none" stroke-width="0.75" />
<path d="M 153.18 34.0 L 153.18 38.0 L 174.18 28.0 L 174.18 24.0 L 153.18 34.0 Z" fill="#404040" stroke="none" stroke-width="0.75" />
<path d="M 161.0 70.0 L 177.0 70.0 Z" fill="none" stroke="#d6d6d6" stroke-width="0.75" />
<path d="M 164.52 71.232 C 164.52 72.456 165.71521 73.68 166.89601 73.68 C 170.496 73.68 174.09601 71.232 174.09601 68.856 C 174.09601 67.6752 172.87201 66.48 171.72 66.48 C 168.12001 66.48 164.52 68.856 164.52 71.232 Z" fill="#404040" stroke="none" stroke-width="1.0" />
<path d="M 163.0 150.25 L 171.0 150.25 L 171.0 157.75 L 163.0 157.75 L 163.0 150.25 Z" fill="#ffffff" stroke="none" stroke-width="1.0" />
<text x='163.0' y='157.75' font-family="Default" font-size="10.0" fill="#404040" >3</text>
<path d="M 164.52 59.232 C 164.52 60.456 165.71521 61.68 166.89601 61.68 C 170.496 61.68 174.09601 59.232 174.09601 56.856 C 174.09601 55.6752 172.87201 54.48 171.72 54.48 C 168.12001 54.48 164.52 56.856 164.52 59.232 Z" fill="#404040" stroke="none" stroke-width="1.0" />
<path d="M 163.0 140.25 L 171.0 140.25 L 171.0 147.75 L 163.0 147.75 L 163.0 140.25 Z" fill="#ffffff" stroke="none" stroke-width="1.0" />
<text x='163.0' y='147.75' font-family="Default" font-size="10.0" fill="#404040" >3</text>
<path d="M 173.18 69.04 L 174.18 69.04 L 174.18 26.0 L 173.18 26.0 M 173.18 69.04 Z" fill="#404040" stroke="none" stroke-width="0.75" /></g>
<text x='492.0' y='48.0' font-family="Default" font-size="10.0" fill="#ff0000" >3</text>
<path d="M 491.0 50.0 L 491.0 82.0 Z" fill="#000000" stroke="#000000" stroke-width="0.75" />
<path d="M 691.0 50.0 L 691.0 82.0 Z" fill="#000000" stroke="#000000" stroke-width="0.75" />
<path d="M 491.0 134.0 L 491.0 184.0 Z" fill="#000000" stroke="#000000" stroke-width="0.75" />
<path d="M 691.0 134.0 L 691.0 184.0 Z" fill="#000000" stroke="#000000" stroke-width="0.75" /><g transform="translate(691.0,20.0)">
<path d="M 0.0 0.0 L 200.0 0.0 L 200.0 185.0 L 0.0 185.0 L 0.0 0.0 Z" fill="#ffffff" stroke="none" stroke-width="1.0" />
<path d="M 0.0 30.0 L 200.0 30.0 M 0.0 38.0 L 200.0 38.0 M 0.0 46.0 L 200.0 46.0 M 0.0 54.0 L 200.0 54.0 M 0.0 62.0 L 200.0 62.0 Z" fill="none" stroke="#d6d6d6" stroke-width="0.75" />
<path d="M 0.0 114.0 L 200.0 114.0 M 0.0 124.0 L 200.0 124.0 M 0.0 134.0 L 200.0 134.0 M 0.0 144.0 L 200.0 144.0 M 0.0 154.0 L 200.0 154.0 M 0.0 164.0 L 200.0 164.0 Z" fill="none" stroke="#d6d6d6" stroke-width="0.75" />
<path d="M 21.0 70.0 L 37.0 70.0 Z" fill="none" stroke="#d6d6d6" stroke-width="0.75" />
<path d="M 21.0 78.0 L 37.0 78.0 Z" fill="none" stroke="#d6d6d6" stroke-width="0.75" />
<path d="M 21.0 70.0 L 37.0 70.0 Z" fill="none" stroke="#d6d6d6" stroke-width="0.75" />
<path d="M 21.0 78.0 L 37.0 78.0 Z" fill="none" stroke="#d6d6d6" stroke-width="0.75" />
<path d="M 24.52 83.232 C 24.52 84.456 25.7152 85.68 26.896 85.68 C 30.496 85.68 34.096 83.232 34.096 80.856 C 34.096 79.6752 32.872 78.48 31.720001 78.48 C 28.12 78.48 24.52 80.856 24.52 83.232 Z" fill="#404040" stroke="none" stroke-width="1.0" />
<path d="M 23.0 160.25 L 31.0 160.25 L 31.0 167.75 L 23.0 167.75 L 23.0 160.25 Z" fill="#ffffff" stroke="none" stroke-width="1.0" />
<text x='23.0' y='167.75' font-family="Default" font-size="10.0" fill="#404040" >3</text>
<path d="M 33.18 81.04 L 34.18 81.04 L 34.18 32.0 L 33.18 32.0 M 33.18 81.04 Z" fill="#404040" stroke="none" stroke-width="0.75" />
<path d="M 33.18 30.0 L 33.18 34.0 L 54.18 24.0 L 54.18 20.0 L 33.18 30.0 Z" fill="#404040" stroke="none" stroke-width="0.75" />
<path d="M 44.52 67.232 C 44.52 68.456 45.715202 69.68 46.896 69.68 C 50.496002 69.68 54.096 67.232 54.096 64.856 C 54.096 63.6752 52.872 62.48 51.72 62.48 C 48.12 62.48 44.52 64.856 44.52 67.232 Z" fill="#404040" stroke="none" stroke-width="1.0" />
<path d="M 43.0 150.25 L 51.0 150.25 L 51.0 157.75 L 43.0 157.75 L 43.0 150.25 Z" fill="#ffffff" stroke="none" stroke-width="1.0" />
<text x='43.0' y='157.75' font-family="Default" font-size="10.0" fill="#404040" >5</text>
<path d="M 44.52 55.232 C 44.52 56.456 45.715202 57.68 46.896 57.68 C 50.496002 57.68 54.096 55.232 54.096 52.856 C 54.096 51.6752 52.872 50.48 51.72 50.48 C 48.12 50.48 44.52 52.856 44.52 55.232 Z" fill="#404040" stroke="none" stroke-width="1.0" />
<path d="M 43.0 140.25 L 51.0 140.25 L 51.0 147.75 L 43.0 147.75 L 43.0 140.25 Z" fill="#ffffff" stroke="none" stroke-width="1.0" />
<text x='43.0' y='147.75' font-family="Default" font-size="10.0" fill="#404040" >5</text>
<path d="M 53.18 65.04 L 54.18 65.04 L 54.18 22.0 L 53.18 22.0 M 53.18 65.04 Z" fill="#404040" stroke="none" stroke-width="0.75" />
<path d="M 61.0 70.0 L 77.0 70.0 Z" fill="none" stroke="#d6d6d6" stroke-width="0.75" />
<path d="M 61.0 78.0 L 77.0 78.0 Z" fill="none" stroke="#d6d6d6" stroke-width="0.75" />
<path d="M 61.0 70.0 L 77.0 70.0 Z" fill="none" stroke="#d6d6d6" stroke-width="0.75" />
<path d="M 61.0 78.0 L 77.0 78.0 Z" fill="none" stroke="#d6d6d6" stroke-width="0.75" />
<path d="M 64.52 83.232 C 64.52 84.456 65.715195 85.68 66.895996 85.68 C 70.495995 85.68 74.09599 83.232 74.09599 80.856 C 74.09599 79.6752 72.871994 78.48 71.71999 78.48 C 68.119995 78.48 64.52 80.856 64.52 83.232 Z" fill="#404040" stroke="none" stroke-width="1.0" />
<path d="M 63.0 160.25 L 71.0 160.25 L 71.0 167.75 L 63.0 167.75 L 63.0 160.25 Z" fill="#ffffff" stroke="none" stroke-width="1.0" />
<text x='63.0' y='167.75' font-family="Default" font-size="10.0" fill="#404040" >3</text>
<path d="M 73.18 81.04 L 74.18 81.04 L 74.18 50.0 L 73.18 50.0 M 73.18 81.04 Z" fill="#404040" stroke="none" stroke-width="0.75" />
<path d="M 73.18 48.0 L 73.18 52.0 L 94.18 52.0 L 94.18 48.0 L 73.18 48.0 Z" fill="#404040" stroke="none" stroke-width="0.75" />
<path d="M 81.0 70.0 L 97.0 70.0 Z" fill="none" stroke="#d6d6d6" stroke-width="0.75" />
<path d="M 81.0 78.0 L 97.0 78.0 Z" fill="none" stroke="#d6d6d6" stroke-width="0.75" />
<path d="M 81.0 70.0 L 97.0 70.0 Z" fill="none" stroke="#d6d6d6" stroke-width="0.75" />
<path d="M 81.0 78.0 L 97.0 78.0 Z" fill="none" stroke="#d6d6d6" stroke-width="0.75" />
<path d="M 84.52 83.232 C 84.52 84.456 85.715195 85.68 86.895996 85.68 C 90.495995 85.68 94.09599 83.232 94.09599 80.856 C 94.09599 79.6752 92.871994 78.48 91.71999 78.48 C 88.119995 78.48 84.52 80.856 84.52 83.232 Z" fill="#404040" stroke="none" stroke-width="1.0" />
<path d="M 83.0 160.25 L 91.0 160.25 L 91.0 167.75 L 83.0 167.75 L 83.0 160.25 Z" fill="#ffffff" stroke="none" stroke-width="1.0" />
<text x='83.0' y='167.75' font-family="Default" font-size="10.0" fill="#404040" >3</text>
<path d="M 93.18 81.04 L 94.18 81.04 L 94.18 50.0 L 93.18 50.0 M 93.18 81.04 Z" fill="#404040" stroke="none" stroke-width="0.75" />
<path d="M 101.0 70.0 L 117.0 70.0 Z" fill="none" stroke="#d6d6d6" stroke-width="0.75" />
<path d="M 101.0 78.0 L 117.0 78.0 Z" fill="none" stroke="#d6d6d6" stroke-width="0.75" />
<path d="M 101.0 70.0 L 117.0 70.0 Z" fill="none" stroke="#d6d6d6" stroke-width="0.75" />
<path d="M 101.0 78.0 L 117.0 78.0 Z" fill="none" stroke="#d6d6d6" stroke-width="0.75" />
<path d="M 104.52 83.232 C 104.52 84.456 105.715195 85.68 106.895996 85.68 C 110.495995 85.68 114.09599 83.232 114.09599 80.856 C 114.09599 79.6752 112.871994 78.48 111.71999 78.48 C 108.119995 78.48 104.52 80.856 104.52 83.232 Z" fill="#404040" stroke="none" stroke-width="1.0" />
<path d="M 103.0 160.25 L 111.0 160.25 L 111.0 167.75 L 103.0 167.75 L 103.0 160.25 Z" fill="#ffffff" stroke="none" stroke-width="1.0" />
<text x='103.0' y='167.75' font-family="Default" font-size="10.0" fill="#404040" >3</text>
<path d="M 113.18 81.04 L 114.18 81.04 L 114.18 36.0 L 113.18 36.0 M 113.18 81.04 Z" fill="#404040" stroke="none" stroke-width="0.75" />
<path d="M 113.18 34.0 L 113.18 38.0 L 134.18 28.0 L 134.18 24.0 L 113.18 34.0 Z" fill="#404040" stroke="none" stroke-width="0.75" />
<path d="M 121.0 70.0 L 137.0 70.0 Z" fill="none" stroke="#d6d6d6" stroke-width="0.75" />
<path d="M 124.52 71.232 C 124.52 72.456 125.715195 73.68 126.895996 73.68 C 130.496 73.68 134.096 71.232 134.096 68.856 C 134.096 67.6752 132.872 66.48 131.72 66.48 C 128.12 66.48 124.52 68.856 124.52 71.232 Z" fill="#404040" stroke="none" stroke-width="1.0" />
<path d="M 123.0 150.25 L 131.0 150.25 L 131.0 157.75 L 123.0 157.75 L 123.0 150.25 Z" fill="#ffffff" stroke="none" stroke-width="1.0" />
<text x='123.0' y='157.75' font-family="Default" font-size="10.0" fill="#404040" >3</text>
<path d="M 124.52 59.232 C 124.52 60.456 125.715195 61.68 126.895996 61.68 C 130.496 61.68 134.096 59.232 134.096 56.856 C 134.096 55.6752 132.872 54.48 131.72 54.48 C 128.12 54.48 124.52 56.856 124.52 59.232 Z" fill="#404040" stroke="none" stroke-width="1.0" />
<path d="M 123.0 140.25 L 131.0 140.25 L 131.0 147.75 L 123.0 147.75 L 123.0 140.25 Z" fill="#ffffff" stroke="none" stroke-width="1.0" />
<text x='123.0' y='147.75' font-family="Default" font-size="10.0" fill="#404040" >3</text>
<path d="M 133.18 69.04 L 134.18 69.04 L 134.18 26.0 L 133.18 26.0 M 133.18 69.04 Z" fill="#404040" stroke="none" stroke-width="0.75" />
<path d="M 141.0 70.0 L 157.0 70.0 Z" fill="none" stroke="#d6d6d6" stroke-width="0.75" />
<path d="M 141.0 78.0 L 157.0 78.0 Z" fill="none" stroke="#d6d6d6" stroke-width="0.75" />
<path d="M 141.0 70.0 L 157.0 70.0 Z" fill="none" stroke="#d6d6d6" stroke-width="0.75" />
<path d="M 141.0 78.0 L 157.0 78.0 Z" fill="none" stroke="#d6d6d6" stroke-width="0.75" />
<path d="M 144.52 83.232 C 144.52 84.456 145.71521 85.68 146.89601 85.68 C 150.496 85.68 154.09601 83.232 154.09601 80.856 C 154.09601 79.6752 152.87201 78.48 151.72 78.48 C 148.12001 78.48 144.52 80.856 144.52 83.232 Z" fill="#404040" stroke="none" stroke-width="1.0" />
<path d="M 143.0 160.25 L 151.0 160.25 L 151.0 167.75 L 143.0 167.75 L 143.0 160.25 Z" fill="#ffffff" stroke="none" stroke-width="1.0" />
<text x='143.0' y='167.75' font-family="Default" font-size="10.0" fill="#404040" >3</text>
<path d="M 153.18 81.04 L 154.18 81.04 L 154.18 32.0 L 153.18 32.0 M 153.18 81.04 Z" fill="#404040" stroke="none" stroke-width="0.75" />
<path d="M 153.18 30.0 L 153.18 34.0 L 174.18 24.0 L 174.18 20.0 L 153.18 30.0 Z" fill="#404040" stroke="none" stroke-width="0.75" />
<path d="M 164.52 67.232 C 164.52 68.456 165.71521 69.68 166.89601 69.68 C 170.496 69.68 174.09601 67.232 174.09601 64.856 C 174.09601 63.6752 172.87201 62.48 171.72 62.48 C 168.12001 62.48 164.52 64.856 164.52 67.232 Z" fill="#404040" stroke="none" stroke-width="1.0" />
<path d="M 163.0 150.25 L 171.0 150.25 L 171.0 157.75 L 163.0 157.75 L 163.0 150.25 Z" fill="#ffffff" stroke="none" stroke-width="1.0" />
<text x='163.0' y='157.75' font-family="Default" font-size="10.0" fill="#404040" >5</text>
<path d="M 164.52 55.232 C 164.52 56.456 165.71521 57.68 166.89601 57.68 C 170.496 57.68 174.09601 55.232 174.09601 52.856 C 174.09601 51.6752 172.87201 50.48 171.72 50.48 C 168.12001 50.48 164.52 52.856 164.52 55.232 Z" fill="#404040" stroke="none" stroke-width="1.0" />
<path d="M 163.0 140.25 L 171.0 140.25 L 171.0 147.75 L 163.0 147.75 L 163.0 140.25 Z" fill="#ffffff" stroke="none" stroke-width="1.0" />
<text x='163.0' y='147.75' font-family="Default" font-size="10.0" fill="#404040" >5</text>
<path d="M 173.18 65.04 L 174.18 65.04 L 174.18 22.0 L 173.18 22.0 M 173.18 65.04 Z" fill="#404040" stroke="none" stroke-width="0.75" /></g>
<text x='692.0' y='48.0' font-family="Default" font-size="10.0" fill="#ff0000" >4</text>
<path d="M 691.0 50.0 L 691.0 82.0 Z" fill="#000000" stroke="#000000" stroke-width="0.75" />
<path d="M 885.0 50.0 L 886.0 50.0 L 886.0 82.0 L 885.0 82.0 L 885.0 50.0 Z" fill="#000000" stroke="#000000" stroke-width="0.75" />
<path d="M 888.0 50.0 L 891.0 50.0 L 891.0 82.0 L 888.0 82.0 L 888.0 50.0 Z" fill="#000000" stroke="#000000" stroke-width="0.75" />
<path d="M 691.0 134.0 L 691.0 184.0 Z" fill="#000000" stroke="#000000" stroke-width="0.75" />
<path d="M 885.0 134.0 L 886.0 134.0 L 886.0 184.0 L 885.0 184.0 L 885.0 134.0 Z" fill="#000000" stroke="#000000" stroke-width="0.75" />
<path d="M 888.0 134.0 L 891.0 134.0 L 891.0 184.0 L 888.0 184.0 L 888.0 134.0 Z" fill="#000000" stroke="#000000" stroke-width="0.75" />
<path d="M 893.0 50.0 L 930.0 50.0 M 893.0 58.0 L 930.0 58.0 M 893.0 66.0 L 930.0 66.0 M 893.0 74.0 L 930.0 74.0 M 893.0 82.0 L 930.0 82.0 Z" fill="none" stroke="#d6d6d6" stroke-width="0.75" />
<path d="M 893.0 134.0 L 930.0 134.0 M 893.0 144.0 L 930.0 144.0 M 893.0 154.0 L 930.0 154.0 M 893.0 164.0 L 930.0 164.0 M 893.0 174.0 L 930.0 174.0 M 893.0 184.0 L 930.0 184.0 Z" fill="none" stroke="#d6d6d6" stroke-width="0.75" />
</svg>