<svg width="960.0px" height="280.0px" xmlns="http://www.w3.org/2000/svg" version="1.1">

<path d="M 0.0 0.0 L 960.0 0.0 L 960.0 280.0 L 0.0 280.0 L 0.0 0.0 Z" fill="#ffffff" stroke="none" stroke-width="1.0" /><g transform="translate(20.0,20.0)">
<path d="M 0.0 0.0 L 141.0 0.0 L 141.0 249.0 L 0.0 249.0 L 0.0 0.0 Z" fill="#ffffff" stroke="none" stroke-width="1.0" />
<path d="M 0.0 73.0 L 141.0 73.0 M 0.0 81.0 L 141.0 81.0 M 0.0 89.0 L 141.0 89.0 M 0.0 97.0 L 141.0 97.0 M 0.0 105.0 L 141.0 105.0 Z" fill="none" stroke="#d6d6d6" stroke-width="0.75" />
<path d="M 0.0 178.0 L 141.0 178.0 M 0.0 188.0 L 141.0 188.0 M 0.0 198.0 L 141.0 198.0 M 0.0 208.0 L 141.0 208.0 M 0.0 218.0 L 141.0 218.0 M 0.0 228.0 L 141.0 228.0 Z" fill="none" stroke="#d6d6d6" stroke-width="0.75" />
<path d="M 67.77043 73.40856 C 68.324905 73.40856 68.821014 73.3502 69.25876 73.20428 C 69.6965 73.058365 69.959145 73.0 70.04669 73.0 C 70.192604 73.0 70.28015 73.02918 70.36771 73.11673 C 70.42607 73.175095 70.45525 73.23346 70.484436 73.321014 C 70.484436 73.37938 70.45525 73.437744 70.42607 73.49611 L 61.933853 83.359924 L 66.924126 83.359924 L 66.924126 79.44942 C 66.924126 79.18677 67.01167 78.95331 67.1284 78.807396 C 67.3035 78.661476 67.4786 78.515564 67.71206 78.4572 C 67.97471 78.34047 68.26653 78.07782 68.64591 77.640076 C 68.937744 77.31907 69.317116 76.70622 69.75486 75.80156 C 69.81323 75.68482 69.90078 75.62646 70.01751 75.62646 C 70.28015 75.62646 70.39688 75.77237 70.42607 76.03502 L 70.42607 83.359924 L 72.55642 83.359924 C 72.84825 83.359924 72.99416 83.50584 73.023346 83.79767 C 73.023346 84.08949 72.877426 84.235405 72.55642 84.235405 L 70.42607 84.235405 L 70.42607 84.46887 C 70.42607 85.28599 70.63035 85.92802 71.00973 86.45331 C 71.44747 86.9786 71.97276 87.270424 72.5856 87.270424 C 72.81906 87.270424 72.9358 87.38716 72.9358 87.62062 C 72.9358 87.85408 72.81906 87.97082 72.5856 87.97082 C 72.14786 87.97082 71.50584 87.91245 70.601166 87.795715 C 69.696495 87.6498 69.054474 87.59144 68.64591 87.59144 C 68.23735 87.59144 67.56615 87.6498 66.69066 87.795715 C 65.81517 87.91245 65.17315 87.97082 64.735405 87.97082 C 64.501945 87.97082 64.385216 87.85408 64.385216 87.62062 C 64.385216 87.38716 64.501945 87.270424 64.735405 87.270424 C 65.34825 87.270424 65.87354 86.9786 66.31128 86.45331 C 66.71984 85.898834 66.924126 85.256805 66.924126 84.46887 L 66.924126 84.235405 L 61.933853 84.235405 C 61.61284 84.235405 61.379375 84.17704 61.233463 84.001945 C 61.087547 83.88521 61.0 83.71011 61.0 83.53502 C 61.0 83.476654 61.145912 83.27237 61.437744 82.92218 C 61.729572 82.57198 62.079765 82.10506 62.488327 81.49222 C 62.488327 81.49222 63.305447 80.20817 63.71401 79.44942 C 63.71401 79.44942 64.47276 77.78599 64.735405 76.70622 C 65.02724 75.65564 65.17315 74.575874 65.17315 73.49611 C 65.17315 73.175095 65.31907 73.02918 65.58171 73.02918 C 65.61089 73.02918 65.756805 73.058365 65.96109 73.11673 C 66.16537 73.175095 66.4572 73.23346 66.77821 73.321014 C 67.1284 73.37938 67.44942 73.40856 67.77043 73.40856 Z" fill="#000000" stroke="none" stroke-width="0.75" />
<path d="M 67.77043 90.40856 C 68.324905 90.40856 68.821014 90.3502 69.25876 90.20428 C 69.6965 90.058365 69.959145 90.0 70.04669 90.0 C 70.192604 90.0 70.28015 90.02918 70.36771 90.11673 C 70.42607 90.175095 70.45525 90.23346 70.484436 90.321014 C 70.484436 90.37938 70.45525 90.437744 70.42607 90.49611 L 61.933853 100.359924 L 66.924126 100.359924 L 66.924126 96.44942 C 66.924126 96.18677 67.01167 95.95331 67.1284 95.807396 C 67.3035 95.661476 67.4786 95.515564 67.71206 95.4572 C 67.97471 95.34047 68.26653 95.07782 68.64591 94.640076 C 68.937744 94.31907 69.317116 93.70622 69.75486 92.80156 C 69.81323 92.68482 69.90078 92.62646 70.01751 92.62646 C 70.28015 92.62646 70.39688 92.77237 70.42607 93.03502 L 70.42607 100.359924 L 72.55642 100.359924 C 72.84825 100.359924 72.99416 100.50584 73.023346 100.79767 C 73.023346 101.08949 72.877426 101.235405 72.55642 101.235405 L 70.42607 101.235405 L 70.42607 101.46887 C 70.42607 102.28599 70.63035 102.92802 71.00973 103.45331 C 71.44747 103.9786 71.97276 104.270424 72.5856 104.270424 C 72.81906 104.270424 72.9358 104.38716 72.9358 104.62062 C 72.9358 104.85408 72.81906 104.97082 72.5856 104.97082 C 72.14786 104.97082 71.50584 104.91245 70.601166 104.795715 C 69.696495 104.6498 69.054474 104.59144 68.64591 104.59144 C 68.23735 104.59144 67.56615 104.6498 66.69066 104.795715 C 65.81517 104.91245 65.17315 104.97082 64.735405 104.97082 C 64.501945 104.97082 64.385216 104.85408 64.385216 104.62062 C 64.385216 104.38716 64.501945 104.270424 64.735405 104.270424 C 65.34825 104.270424 65.87354 103.9786 66.31128 103.45331 C 66.71984 102.898834 66.924126 102.256805 66.924126 101.46887 L 66.924126 101.235405 L 61.933853 101.235405 C 61.61284 101.235405 61.379375 101.17704 61.233463 101.001945 C 61.087547 100.88521 61.0 100.71011 61.0 100.53502 C 61.0 100.476654 61.145912 100.27237 61.437744 99.92218 C 61.729572 99.57198 62.079765 99.10506 62.488327 98.49222 C 62.488327 98.49222 63.305447 97.20817 63.71401 96.44942 C 63.71401 96.44942 64.47276 94.78599 64.735405 93.70622 C 65.02724 92.65564 65.17315 91.575874 65.17315 90.49611 C 65.17315 90.175095 65.31907 90.02918 65.58171 90.02918 C 65.61089 90.02918 65.756805 90.058365 65.96109 90.11673 C 66.16537 90.175095 66.4572 90.23346 66.77821 90.321014 C 67.1284 90.37938 67.44942 90.40856 67.77043 90.40856 Z" fill="#000000" stroke="none" stroke-width="0.75" />
<path d="M 22.764973 65.11539 C 22.921913 65.03691 22.948072 65.03691 23.105015 65.03691 C 23.314268 65.06307 23.445057 65.14154 23.73278 65.45542 C 25.616081 67.391045 27.185501 70.84376 27.577856 73.77334 C 27.630169 74.24416 27.630169 75.34276 27.577856 75.83974 C 27.29013 78.533905 26.165377 80.99266 23.57584 84.52385 L 23.209644 85.02083 L 23.418898 85.62244 C 23.915882 87.06107 24.491331 88.81359 24.85753 90.09528 C 24.96216 90.409164 25.04063 90.67074 25.04063 90.6969 C 25.04063 90.6969 25.223728 90.6969 25.406826 90.72305 C 26.322319 90.80152 27.10703 91.01078 27.917896 91.40313 C 28.57182 91.74317 29.147274 92.13552 29.696568 92.65866 C 30.29818 93.26028 30.690535 93.80957 31.05673 94.56812 C 31.606026 95.66672 31.84144 96.81762 31.81528 97.96853 C 31.789125 98.70093 31.684496 99.25022 31.449085 99.930305 C 31.1352 100.92426 30.559748 101.83976 29.77504 102.624466 C 29.094955 103.30455 28.46719 103.72306 27.630169 104.0631 L 27.316284 104.193886 L 27.316284 105.13554 C 27.316284 106.46954 27.237814 108.038956 27.133184 108.980606 C 27.02856 109.94841 26.766989 110.86391 26.348476 111.700935 C 25.249886 113.92427 23.314268 115.10133 21.143244 114.89209 C 18.684484 114.65667 16.69656 112.98262 16.199577 110.73312 C 15.964161 109.713 16.068794 108.9283 16.487303 108.27437 C 17.036598 107.411194 18.082878 106.914215 19.102997 106.94037 C 20.30622 106.99268 21.274027 107.934326 21.457123 109.24218 C 21.58791 110.28845 21.143244 111.25626 20.30622 111.7794 C 19.835394 112.06713 19.181469 112.197914 18.684484 112.119446 C 18.606018 112.119446 18.527544 112.093285 18.527544 112.119446 L 18.84143 112.43333 C 19.416882 113.00878 20.070807 113.374985 20.907831 113.558075 C 21.090927 113.584236 21.247868 113.584236 21.666382 113.584236 C 22.137207 113.584236 22.189518 113.584236 22.451088 113.53192 C 22.81729 113.42729 23.131172 113.29651 23.418898 113.139565 C 24.726748 112.35486 25.616081 110.73312 25.851494 108.77136 C 25.929964 108.038956 26.008434 106.46954 26.008434 105.318634 C 26.008434 104.56009 26.008434 104.50777 25.956123 104.50777 C 25.851494 104.56009 25.302197 104.6124 24.909843 104.63855 C 24.41286 104.66471 23.57584 104.66471 23.183485 104.6124 C 21.640223 104.4293 20.227747 103.90616 18.998373 103.04298 C 17.167385 101.76129 15.859535 99.85182 15.31024 97.65465 C 14.604002 94.908165 15.100986 91.978584 16.827343 88.89206 C 17.55974 87.610374 18.265978 86.564095 20.018494 84.23612 L 21.012455 82.90212 L 20.829355 82.405136 C 19.573822 79.083206 19.15531 77.173744 19.024527 74.40111 C 18.972214 73.19789 19.024527 72.177765 19.181469 71.340744 C 19.573822 69.143555 20.593945 67.181786 22.189518 65.612366 C 22.503403 65.298485 22.63419 65.193855 22.764973 65.11539 M 24.831371 69.58823 C 24.569805 69.143555 24.622118 69.16971 24.386707 69.32666 C 23.65431 69.771324 22.89576 70.4514 22.34646 71.131485 C 21.221714 72.57012 20.593945 74.24416 20.515476 76.048996 C 20.489319 76.78139 20.56779 77.25221 20.907831 78.37696 C 21.169397 79.29246 21.901793 81.5158 21.95411 81.568115 C 21.95411 81.59427 22.111048 81.41118 22.26799 81.17576 C 24.072823 78.58622 25.04063 76.46751 25.406826 74.34879 C 25.485298 73.7995 25.53761 73.35483 25.563768 72.727066 C 25.589928 71.28843 25.432985 70.58219 24.831371 69.58823 M 22.581877 87.191864 C 22.424934 86.69488 22.26799 86.30252 22.26799 86.30252 C 22.241835 86.30252 21.143244 87.76731 20.672415 88.421234 C 19.129156 90.59227 18.187506 92.34478 17.638206 94.07114 C 17.27201 95.14357 17.115068 96.13754 17.062756 97.23613 C 17.062756 97.837746 17.088915 98.20394 17.193539 98.648605 C 17.795153 100.97658 20.280064 102.88603 23.209644 103.30455 C 23.65431 103.35686 24.909843 103.35686 25.459139 103.30455 C 26.008434 103.226074 25.956123 103.252235 25.929964 103.01682 C 25.773026 100.531906 25.563768 99.0148 25.14526 96.765305 C 24.988314 95.823654 24.543648 93.835724 24.517488 93.80957 C 24.491331 93.78342 23.99435 93.835724 23.706627 93.9142 C 23.340427 93.99267 23.105015 94.07114 22.79113 94.22808 C 21.090927 95.09126 20.593945 97.05304 21.666382 98.648605 C 21.849482 98.91018 22.320305 99.381004 22.608032 99.5641 C 22.71266 99.64258 22.948072 99.799515 23.105015 99.87799 C 23.340427 100.00877 23.392738 100.06108 23.445057 100.16571 C 23.65431 100.50575 23.523525 100.92426 23.131172 101.10736 C 22.921913 101.21199 22.764973 101.18584 22.34646 100.97658 C 21.326344 100.4796 20.56779 99.799515 20.018494 98.962494 C 18.998373 97.393074 18.867586 95.37899 19.70461 93.67879 C 20.437006 92.214 21.744852 91.22003 23.418898 90.853836 C 23.57584 90.80152 23.706627 90.77537 23.706627 90.77537 C 23.73278 90.74921 23.000385 88.36893 22.581877 87.191864 M 26.139221 93.94036 C 26.060753 93.94036 25.98228 93.9142 25.956123 93.9142 L 25.877651 93.88804 L 26.008434 94.43734 C 26.610046 97.07919 27.054714 99.95645 27.211655 102.38905 C 27.237814 102.65063 27.237814 102.85988 27.237814 102.85988 C 27.263973 102.85988 27.60401 102.70294 27.78711 102.57216 C 28.231777 102.31058 28.65029 101.91823 28.99033 101.47356 C 29.801197 100.40112 30.08892 99.06712 29.77504 97.706955 C 29.539627 96.60837 28.911861 95.58824 28.022522 94.882 C 27.473227 94.46349 26.740831 94.0973 26.139221 93.94036 Z" fill="#000000" stroke="none" stroke-width="0.75" />
<path d="M 92.0 113.0 L 108.0 113.0 Z" fill="none" stroke="#d6d6d6" stroke-width="0.75" />
<path d="M 92.0 121.0 L 108.0 121.0 Z" fill="none" stroke="#d6d6d6" stroke-width="0.75" />
<path d="M 93.46439 118.63119 C 93.59136 118.55864 93.79088 118.61305 93.863434 118.7763 C 93.89971 118.84885 93.89971 118.90327 93.89971 120.172935 C 93.89971 120.9166 93.89971 121.51516 93.91785 121.51516 C 93.91785 121.51516 94.08109 121.44261 94.28061 121.370056 C 94.69779 121.20681 94.752205 121.188675 94.86103 121.279366 C 94.988 121.370056 94.988 121.38819 94.988 122.11372 C 94.988 122.73042 94.988 122.784836 94.95172 122.83925 C 94.933586 122.87553 94.89731 122.911804 94.87917 122.92994 C 94.842896 122.94808 94.62524 123.05691 94.3713 123.1476 L 93.91785 123.34712 L 93.89971 124.816315 C 93.89971 125.614395 93.89971 126.28551 93.91785 126.28551 C 93.91785 126.28551 94.08109 126.21295 94.28061 126.140396 C 94.69779 125.97716 94.752205 125.959015 94.86103 126.049706 C 94.988 126.140396 94.988 126.15854 94.988 126.88406 C 94.988 127.50076 94.988 127.555176 94.95172 127.60959 C 94.933586 127.64587 94.89731 127.682144 94.87917 127.70028 C 94.842896 127.71842 94.62524 127.82725 94.3713 127.91794 L 93.91785 128.11746 L 93.89971 129.64107 C 93.89971 131.01958 93.88157 131.18282 93.863434 131.23723 C 93.736465 131.4549 93.428116 131.4549 93.30115 131.23723 C 93.28301 131.18282 93.26487 131.0377 93.26487 129.76804 L 93.26487 128.3714 L 92.48493 128.67975 L 91.72313 128.9881 L 91.72313 130.45729 C 91.72313 132.01717 91.72313 131.9809 91.63244 132.07158 C 91.59616 132.126 91.46919 132.18042 91.41478 132.18042 C 91.342224 132.18042 91.215256 132.126 91.178986 132.07158 C 91.08829 131.9809 91.08829 132.01717 91.08829 130.60239 C 91.08829 129.85873 91.08829 129.26016 91.07015 129.26016 C 91.07015 129.26016 90.906906 129.33272 90.70739 129.40527 C 90.290215 129.56851 90.235794 129.58665 90.12697 129.49596 C 90.0 129.40527 90.0 129.38713 90.0 128.6616 C 90.0 128.0449 90.0 127.99049 90.03628 127.93608 C 90.05441 127.8998 90.09069 127.863525 90.108826 127.84539 C 90.1451 127.82725 90.36276 127.71842 90.6167 127.62773 L 91.08829 127.42821 L 91.08829 125.959015 C 91.08829 125.160934 91.08829 124.48982 91.07015 124.48982 C 91.07015 124.48982 90.906906 124.56238 90.70739 124.63493 C 90.290215 124.79817 90.235794 124.816315 90.12697 124.725624 C 90.0 124.63493 90.0 124.61679 90.0 123.891266 C 90.0 123.27457 90.0 123.22015 90.03628 123.16573 C 90.05441 123.12946 90.09069 123.093185 90.108826 123.07504 C 90.1451 123.05691 90.36276 122.94808 90.6167 122.85739 L 91.08829 122.65787 L 91.08829 121.13426 C 91.08829 119.75576 91.10643 119.592514 91.124565 119.5381 C 91.25153 119.32044 91.55988 119.32044 91.68685 119.5381 C 91.70499 119.592514 91.72313 119.73762 91.72313 121.00729 L 91.741264 122.40393 L 92.50307 122.09558 L 93.26487 121.78723 L 93.26487 120.31804 C 93.26487 118.93954 93.26487 118.84885 93.30115 118.7763 C 93.337425 118.70374 93.3737 118.667465 93.46439 118.63119 M 93.26487 125.070244 L 93.26487 123.60105 L 92.48493 123.9094 L 91.72313 124.21775 L 91.72313 125.705086 L 91.72313 127.17428 L 91.77754 127.156136 C 91.81382 127.138 92.15845 126.9929 92.55749 126.847786 L 93.26487 126.55758 L 93.26487 125.070244 Z" fill="#404040" stroke="none" stroke-width="0.75" />
<path d="M 96.0 126.024 C 96.0 127.112 97.0624 128.2 98.112 128.2 C 101.312 128.2 104.512 126.024 104.512 123.912 C 104.512 122.862404 103.423996 121.8 102.4 121.8 C 99.2 121.8 96.0 123.912 96.0 126.024 Z" fill="none" stroke="#404040" stroke-width="1.0" />
<path d="M 94.0 224.25 L 102.0 224.25 L 102.0 231.75 L 94.0 231.75 L 94.0 224.25 Z" fill="#ffffff" stroke="none" stroke-width="1.0" />
<text x='94.0' y='231.75' font-family="Default" font-size="10.0" fill="#404040" >4</text>
<path d="M 93.46439 102.63119 C 93.59136 102.55864 93.79088 102.61305 93.863434 102.7763 C 93.89971 102.84885 93.89971 102.90327 93.89971 104.172935 C 93.89971 104.9166 93.89971 105.51516 93.91785 105.51516 C 93.91785 105.51516 94.08109 105.44261 94.28061 105.370056 C 94.69779 105.20681 94.752205 105.188675 94.86103 105.279366 C 94.988 105.370056 94.988 105.38819 94.988 106.11372 C 94.988 106.73042 94.988 106.784836 94.95172 106.83925 C 94.933586 106.87553 94.89731 106.911804 94.87917 106.92994 C 94.842896 106.94808 94.62524 107.05691 94.3713 107.1476 L 93.91785 107.34712 L 93.89971 108.816315 C 93.89971 109.614395 93.89971 110.28551 93.91785 110.28551 C 93.91785 110.28551 94.08109 110.21295 94.28061 110.140396 C 94.69779 109.97716 94.752205 109.959015 94.86103 110.049706 C 94.988 110.140396 94.988 110.15854 94.988 110.88406 C 94.988 111.50076 94.988 111.555176 94.95172 111.60959 C 94.933586 111.64587 94.89731 111.682144 94.87917 111.70028 C 94.842896 111.71842 94.62524 111.82725 94.3713 111.91794 L 93.91785 112.11746 L 93.89971 113.64107 C 93.89971 115.01957 93.88157 115.182816 93.863434 115.23723 C 93.736465 115.45489 93.428116 115.45489 93.30115 115.23723 C 93.28301 115.182816 93.26487 115.037704 93.26487 113.768036 L 93.26487 112.3714 L 92.48493 112.67974 L 91.72313 112.98809 L 91.72313 114.45728 C 91.72313 116.01717 91.72313 115.980896 91.63244 116.07159 C 91.59616 116.126 91.46919 116.18041 91.41478 116.18041 C 91.342224 116.18041 91.215256 116.126 91.178986 116.07159 C 91.08829 115.980896 91.08829 116.01717 91.08829 114.602394 C 91.08829 113.85873 91.08829 113.26017 91.07015 113.26017 C 91.07015 113.26017 90.906906 113.33272 90.70739 113.40527 C 90.290215 113.56851 90.235794 113.586655 90.12697 113.495964 C 90.0 113.40527 90.0 113.38713 90.0 112.661606 C 90.0 112.04491 90.0 111.99049 90.03628 111.93608 C 90.05441 111.8998 90.09069 111.863525 90.108826 111.84539 C 90.1451 111.82725 90.36276 111.71842 90.6167 111.62773 L 91.08829 111.42821 L 91.08829 109.959015 C 91.08829 109.160934 91.08829 108.48982 91.07015 108.48982 C 91.07015 108.48982 90.906906 108.56238 90.70739 108.63493 C 90.290215 108.79817 90.235794 108.816315 90.12697 108.725624 C 90.0 108.63493 90.0 108.61679 90.0 107.891266 C 90.0 107.27457 90.0 107.22015 90.03628 107.16573 C 90.05441 107.12946 90.09069 107.093185 90.108826 107.07504 C 90.1451 107.05691 90.36276 106.94808 90.6167 106.85739 L 91.08829 106.65787 L 91.08829 105.13426 C 91.08829 103.75576 91.10643 103.592514 91.124565 103.5381 C 91.25153 103.32044 91.55988 103.32044 91.68685 103.5381 C 91.70499 103.592514 91.72313 103.73762 91.72313 105.00729 L 91.741264 106.40393 L 92.50307 106.09558 L 93.26487 105.78723 L 93.26487 104.31804 C 93.26487 102.93954 93.26487 102.84885 93.30115 102.7763 C 93.337425 102.70374 93.3737 102.667465 93.46439 102.63119 M 93.26487 109.070244 L 93.26487 107.60105 L 92.48493 107.9094 L 91.72313 108.21775 L 91.72313 109.705086 L 91.72313 111.17428 L 91.77754 111.156136 C 91.81382 111.138 92.15845 110.9929 92.55749 110.847786 L 93.26487 110.55758 L 93.26487 109.070244 Z" fill="#404040" stroke="none" stroke-width="0.75" />
<path d="M 96.0 110.024 C 96.0 111.112 97.0624 112.200005 98.112 112.200005 C 101.312 112.200005 104.512 110.024 104.512 107.912 C 104.512 106.862404 103.423996 105.8 102.4 105.8 C 99.2 105.8 96.0 107.912 96.0 110.024 Z" fill="none" stroke="#404040" stroke-width="1.0" />
<path d="M 94.0 214.25 L 102.0 214.25 L 102.0 221.75 L 94.0 221.75 L 94.0 214.25 Z" fill="#ffffff" stroke="none" stroke-width="1.0" />
<text x='94.0' y='221.75' font-family="Default" font-size="10.0" fill="#404040" >6</text>
<path d="M 93.46439 90.63119 C 93.59136 90.55864 93.79088 90.61305 93.863434 90.7763 C 93.89971 90.84885 93.89971 90.90327 93.89971 92.172935 C 93.89971 92.9166 93.89971 93.51516 93.91785 93.51516 C 93.91785 93.51516 94.08109 93.44261 94.28061 93.370056 C 94.69779 93.20681 94.752205 93.188675 94.86103 93.279366 C 94.988 93.370056 94.988 93.38819 94.988 94.11372 C 94.988 94.73042 94.988 94.784836 94.95172 94.83925 C 94.933586 94.87553 94.89731 94.911804 94.87917 94.92994 C 94.842896 94.94808 94.62524 95.05691 94.3713 95.1476 L 93.91785 95.34712 L 93.89971 96.816315 C 93.89971 97.614395 93.89971 98.28551 93.91785 98.28551 C 93.91785 98.28551 94.08109 98.21295 94.28061 98.140396 C 94.69779 97.97716 94.752205 97.959015 94.86103 98.049706 C 94.988 98.140396 94.988 98.15854 94.988 98.88406 C 94.988 99.50076 94.988 99.555176 94.95172 99.60959 C 94.933586 99.64587 94.89731 99.682144 94.87917 99.70028 C 94.842896 99.71842 94.62524 99.82725 94.3713 99.91794 L 93.91785 100.11746 L 93.89971 101.64107 C 93.89971 103.01957 93.88157 103.182816 93.863434 103.23723 C 93.736465 103.45489 93.428116 103.45489 93.30115 103.23723 C 93.28301 103.182816 93.26487 103.037704 93.26487 101.768036 L 93.26487 100.3714 L 92.48493 100.67974 L 91.72313 100.98809 L 91.72313 102.45728 C 91.72313 104.01717 91.72313 103.980896 91.63244 104.07159 C 91.59616 104.126 91.46919 104.18041 91.41478 104.18041 C 91.342224 104.18041 91.215256 104.126 91.178986 104.07159 C 91.08829 103.980896 91.08829 104.01717 91.08829 102.602394 C 91.08829 101.85873 91.08829 101.26017 91.07015 101.26017 C 91.07015 101.26017 90.906906 101.33272 90.70739 101.40527 C 90.290215 101.56851 90.235794 101.586655 90.12697 101.495964 C 90.0 101.40527 90.0 101.38713 90.0 100.661606 C 90.0 100.04491 90.0 99.99049 90.03628 99.93608 C 90.05441 99.8998 90.09069 99.863525 90.108826 99.84539 C 90.1451 99.82725 90.36276 99.71842 90.6167 99.62773 L 91.08829 99.42821 L 91.08829 97.959015 C 91.08829 97.160934 91.08829 96.48982 91.07015 96.48982 C 91.07015 96.48982 90.906906 96.56238 90.70739 96.63493 C 90.290215 96.79817 90.235794 96.816315 90.12697 96.725624 C 90.0 96.63493 90.0 96.61679 90.0 95.891266 C 90.0 95.27457 90.0 95.22015 90.03628 95.16573 C 90.05441 95.12946 90.09069 95.093185 90.108826 95.07504 C 90.1451 95.05691 90.36276 94.94808 90.6167 94.85739 L 91.08829 94.65787 L 91.08829 93.13426 C 91.08829 91.75576 91.10643 91.592514 91.124565 91.5381 C 91.25153 91.32044 91.55988 91.32044 91.68685 91.5381 C 91.70499 91.592514 91.72313 91.73762 91.72313 93.00729 L 91.741264 94.40393 L 92.50307 94.09558 L 93.26487 93.78723 L 93.26487 92.31804 C 93.26487 90.93954 93.26487 90.84885 93.30115 90.7763 C 93.337425 90.70374 93.3737 90.667465 93.46439 90.63119 M 93.26487 97.070244 L 93.26487 95.60105 L 92.48493 95.9094 L 91.72313 96.21775 L 91.72313 97.705086 L 91.72313 99.17428 L 91.77754 99.156136 C 91.81382 99.138 92.15845 98.9929 92.55749 98.847786 L 93.26487 98.55758 L 93.26487 97.070244 Z" fill="#404040" stroke="none" stroke-width="0.75" />
<path d="M 96.0 98.024 C 96.0 99.112 97.0624 100.200005 98.112 100.200005 C 101.312 100.200005 104.512 98.024 104.512 95.912 C 104.512 94.862404 103.423996 93.8 102.4 93.8 C 99.2 93.8 96.0 95.912 96.0 98.024 Z" fill="none" stroke="#404040" stroke-width="1.0" />
<path d="M 94.0 204.25 L 102.0 204.25 L 102.0 211.75 L 94.0 211.75 L 94.0 204.25 Z" fill="#ffffff" stroke="none" stroke-width="1.0" />
<text x='94.0' y='211.75' font-family="Default" font-size="10.0" fill="#404040" >6</text>
<path d="M 96.0 90.024 C 96.0 91.112 97.0624 92.200005 98.112 92.200005 C 101.312 92.200005 104.512 90.024 104.512 87.912 C 104.512 86.862404 103.423996 85.8 102.4 85.8 C 99.2 85.8 96.0 87.912 96.0 90.024 Z" fill="none" stroke="#404040" stroke-width="1.0" />
<path d="M 94.0 194.25 L 102.0 194.25 L 102.0 201.75 L 94.0 201.75 L 94.0 194.25 Z" fill="#ffffff" stroke="none" stroke-width="1.0" />
<text x='94.0' y='201.75' font-family="Default" font-size="10.0" fill="#404040" >4</text>
<path d="M 93.46439 74.63119 C 93.59136 74.55864 93.79088 74.61305 93.863434 74.7763 C 93.89971 74.84885 93.89971 74.90327 93.89971 76.172935 C 93.89971 76.9166 93.89971 77.51516 93.91785 77.51516 C 93.91785 77.51516 94.08109 77.44261 94.28061 77.370056 C 94.69779 77.20681 94.752205 77.188675 94.86103 77.279366 C 94.988 77.370056 94.988 77.38819 94.988 78.11372 C 94.988 78.73042 94.988 78.784836 94.95172 78.83925 C 94.933586 78.87553 94.89731 78.911804 94.87917 78.92994 C 94.842896 78.94808 94.62524 79.05691 94.3713 79.1476 L 93.91785 79.34712 L 93.89971 80.816315 C 93.89971 81.614395 93.89971 82.28551 93.91785 82.28551 C 93.91785 82.28551 94.08109 82.21295 94.28061 82.140396 C 94.69779 81.97716 94.752205 81.959015 94.86103 82.049706 C 94.988 82.140396 94.988 82.15854 94.988 82.88406 C 94.988 83.50076 94.988 83.555176 94.95172 83.60959 C 94.933586 83.64587 94.89731 83.682144 94.87917 83.70028 C 94.842896 83.71842 94.62524 83.82725 94.3713 83.91794 L 93.91785 84.11746 L 93.89971 85.64107 C 93.89971 87.01957 93.88157 87.182816 93.863434 87.23723 C 93.736465 87.45489 93.428116 87.45489 93.30115 87.23723 C 93.28301 87.182816 93.26487 87.037704 93.26487 85.768036 L 93.26487 84.3714 L 92.48493 84.67974 L 91.72313 84.98809 L 91.72313 86.45728 C 91.72313 88.01717 91.72313 87.980896 91.63244 88.07159 C 91.59616 88.126 91.46919 88.18041 91.41478 88.18041 C 91.342224 88.18041 91.215256 88.126 91.178986 88.07159 C 91.08829 87.980896 91.08829 88.01717 91.08829 86.602394 C 91.08829 85.85873 91.08829 85.26017 91.07015 85.26017 C 91.07015 85.26017 90.906906 85.33272 90.70739 85.40527 C 90.290215 85.56851 90.235794 85.586655 90.12697 85.495964 C 90.0 85.40527 90.0 85.38713 90.0 84.661606 C 90.0 84.04491 90.0 83.99049 90.03628 83.93608 C 90.05441 83.8998 90.09069 83.863525 90.108826 83.84539 C 90.1451 83.82725 90.36276 83.71842 90.6167 83.62773 L 91.08829 83.42821 L 91.08829 81.959015 C 91.08829 81.160934 91.08829 80.48982 91.07015 80.48982 C 91.07015 80.48982 90.906906 80.56238 90.70739 80.63493 C 90.290215 80.79817 90.235794 80.816315 90.12697 80.725624 C 90.0 80.63493 90.0 80.61679 90.0 79.891266 C 90.0 79.27457 90.0 79.22015 90.03628 79.16573 C 90.05441 79.12946 90.09069 79.093185 90.108826 79.07504 C 90.1451 79.05691 90.36276 78.94808 90.6167 78.85739 L 91.08829 78.65787 L 91.08829 77.13426 C 91.08829 75.75576 91.10643 75.592514 91.124565 75.5381 C 91.25153 75.32044 91.55988 75.32044 91.68685 75.5381 C 91.70499 75.592514 91.72313 75.73762 91.72313 77.00729 L 91.741264 78.40393 L 92.50307 78.09558 L 93.26487 77.78723 L 93.26487 76.31804 C 93.26487 74.93954 93.26487 74.84885 93.30115 74.7763 C 93.337425 74.70374 93.3737 74.667465 93.46439 74.63119 M 93.26487 81.070244 L 93.26487 79.60105 L 92.48493 79.9094 L 91.72313 80.21775 L 91.72313 81.705086 L 91.72313 83.17428 L 91.77754 83.156136 C 91.81382 83.138 92.15845 82.9929 92.55749 82.847786 L 93.26487 82.55758 L 93.26487 81.070244 Z" fill="#404040" stroke="none" stroke-width="0.75" />
<path d="M 96.0 82.024 C 96.0 83.112 97.0624 84.200005 98.112 84.200005 C 101.312 84.200005 104.512 82.024 104.512 79.912 C 104.512 78.862404 103.423996 77.8 102.4 77.8 C 99.2 77.8 96.0 79.912 96.0 82.024 Z" fill="none" stroke="#404040" stroke-width="1.0" />
<path d="M 94.0 184.25 L 102.0 184.25 L 102.0 191.75 L 94.0 191.75 L 94.0 184.25 Z" fill="#ffffff" stroke="none" stroke-width="1.0" />
<text x='94.0' y='191.75' font-family="Default" font-size="10.0" fill="#404040" >4</text>
<path d="M 93.46439 62.63119 C 93.59136 62.55864 93.79088 62.613052 93.863434 62.7763 C 93.89971 62.84885 93.89971 62.903263 93.89971 64.172935 C 93.89971 64.9166 93.89971 65.51516 93.91785 65.51516 C 93.91785 65.51516 94.08109 65.44261 94.28061 65.370056 C 94.69779 65.20681 94.752205 65.188675 94.86103 65.279366 C 94.988 65.370056 94.988 65.38819 94.988 66.11372 C 94.988 66.73042 94.988 66.784836 94.95172 66.83925 C 94.933586 66.87553 94.89731 66.911804 94.87917 66.92994 C 94.842896 66.94808 94.62524 67.05691 94.3713 67.1476 L 93.91785 67.34712 L 93.89971 68.816315 C 93.89971 69.614395 93.89971 70.28551 93.91785 70.28551 C 93.91785 70.28551 94.08109 70.21295 94.28061 70.140396 C 94.69779 69.97716 94.752205 69.959015 94.86103 70.049706 C 94.988 70.140396 94.988 70.15854 94.988 70.88406 C 94.988 71.50076 94.988 71.555176 94.95172 71.60959 C 94.933586 71.64587 94.89731 71.682144 94.87917 71.70028 C 94.842896 71.71842 94.62524 71.82725 94.3713 71.91794 L 93.91785 72.11746 L 93.89971 73.64107 C 93.89971 75.01957 93.88157 75.182816 93.863434 75.23723 C 93.736465 75.45489 93.428116 75.45489 93.30115 75.23723 C 93.28301 75.182816 93.26487 75.037704 93.26487 73.768036 L 93.26487 72.3714 L 92.48493 72.67974 L 91.72313 72.98809 L 91.72313 74.45728 C 91.72313 76.01717 91.72313 75.980896 91.63244 76.07159 C 91.59616 76.126 91.46919 76.18041 91.41478 76.18041 C 91.342224 76.18041 91.215256 76.126 91.178986 76.07159 C 91.08829 75.980896 91.08829 76.01717 91.08829 74.602394 C 91.08829 73.85873 91.08829 73.26017 91.07015 73.26017 C 91.07015 73.26017 90.906906 73.33272 90.70739 73.40527 C 90.290215 73.56851 90.235794 73.586655 90.12697 73.495964 C 90.0 73.40527 90.0 73.38713 90.0 72.661606 C 90.0 72.04491 90.0 71.99049 90.03628 71.93608 C 90.05441 71.8998 90.09069 71.863525 90.108826 71.84539 C 90.1451 71.82725 90.36276 71.71842 90.6167 71.62773 L 91.08829 71.42821 L 91.08829 69.959015 C 91.08829 69.160934 91.08829 68.48982 91.07015 68.48982 C 91.07015 68.48982 90.906906 68.56238 90.70739 68.63493 C 90.290215 68.79817 90.235794 68.816315 90.12697 68.725624 C 90.0 68.63493 90.0 68.61679 90.0 67.891266 C 90.0 67.27457 90.0 67.22015 90.03628 67.16573 C 90.05441 67.12946 90.09069 67.093185 90.108826 67.07504 C 90.1451 67.05691 90.36276 66.94808 90.6167 66.85739 L 91.08829 66.65787 L 91.08829 65.13426 C 91.08829 63.75576 91.10643 63.592514 91.124565 63.5381 C 91.25153 63.320442 91.55988 63.320442 91.68685 63.5381 C 91.70499 63.592514 91.72313 63.73762 91.72313 65.00729 L 91.741264 66.40393 L 92.50307 66.09558 L 93.26487 65.78723 L 93.26487 64.31804 C 93.26487 62.93954 93.26487 62.84885 93.30115 62.7763 C 93.337425 62.703743 93.3737 62.667465 93.46439 62.63119 M 93.26487 69.070244 L 93.26487 67.60105 L 92.48493 67.9094 L 91.72313 68.21775 L 91.72313 69.705086 L 91.72313 71.17428 L 91.77754 71.156136 C 91.81382 71.138 92.15845 70.9929 92.55749 70.847786 L 93.26487 70.55758 L 93.26487 69.070244 Z" fill="#404040" stroke="none" stroke-width="0.75" />
<path d="M 96.0 70.024 C 96.0 71.112 97.0624 72.200005 98.112 72.200005 C 101.312 72.200005 104.512 70.024 104.512 67.912 C 104.512 66.862404 103.423996 65.8 102.4 65.8 C 99.2 65.8 96.0 67.912 96.0 70.024 Z" fill="none" stroke="#404040" stroke-width="1.0" />
<path d="M 94.0 174.25 L 102.0 174.25 L 102.0 181.75 L 94.0 181.75 L 94.0 174.25 Z" fill="#ffffff" stroke="none" stroke-width="1.0" />
<text x='94.0' y='181.75' font-family="Default" font-size="10.0" fill="#404040" >4</text></g>
<text x='116.0' y='20.0' font-family="Default" font-size="10.0" fill="#000000" >Sol # m</text>
<path d="M 35.35 79.3 C 35.35 80.15 36.18 81.0 37.0 81.0 C 39.5 81.0 42.0 79.3 42.0 77.65 C 42.0 76.83 41.149998 76.0 40.35 76.0 C 37.85 76.0 35.35 77.65 35.35 79.3 Z" fill="#000000" stroke="none" stroke-width="1.0" />
<path d="M 42.0 63.0 L 42.0 77.7 Z" fill="none" stroke="#000000" stroke-width="1.0" />
<text x='43.0' y='79.25' font-family="Default" font-size="10.0" fill="#000000" > = 120</text>
<text x='21.0' y='91.0' font-family="Default" font-size="10.0" fill="#ff0000" >1</text>
<path d="M 20.0 93.0 L 23.0 93.0 L 23.0 198.0 L 20.0 198.0 L 20.0 93.0 Z" fill="#000000" stroke="#000000" stroke-width="0.75" />
<path d="M 25.0 93.0 L 26.0 93.0 L 26.0 198.0 L 25.0 198.0 L 25.0 93.0 Z" fill="#000000" stroke="#000000" stroke-width="0.75" />
<path d="M 161.0 93.0 L 161.0 125.0 Z" fill="#000000" stroke="#000000" stroke-width="0.75" />
<path d="M 20.0 198.0 L 23.0 198.0 L 23.0 248.0 L 20.0 248.0 L 20.0 198.0 Z" fill="#000000" stroke="#000000" stroke-width="0.75" />
<path d="M 25.0 198.0 L 26.0 198.0 L 26.0 248.0 L 25.0 248.0 L 25.0 198.0 Z" fill="#000000" stroke="#000000" stroke-width="0.75" />
<path d="M 161.0 198.0 L 161.0 248.0 Z" fill="#000000" stroke="#000000" stroke-width="0.75" /><g transform="translate(161.0,20.0)">
<path d="M 0.0 0.0 L 70.0 0.0 L 70.0 249.0 L 0.0 249.0 L 0.0 0.0 Z" fill="#ffffff" stroke="none" stroke-width="1.0" />
<path d="M 0.0 73.0 L 70.0 73.0 M 0.0 81.0 L 70.0 81.0 M 0.0 89.0 L 70.0 89.0 M 0.0 97.0 L 70.0 97.0 M 0.0 105.0 L 70.0 105.0 Z" fill="none" stroke="#d6d6d6" stroke-width="0.75" />
<path d="M 0.0 178.0 L 70.0 178.0 M 0.0 188.0 L 70.0 188.0 M 0.0 198.0 L 70.0 198.0 M 0.0 208.0 L 70.0 208.0 M 0.0 218.0 L 70.0 218.0 M 0.0 228.0 L 70.0 228.0 Z" fill="none" stroke="#d6d6d6" stroke-width="0.75" />
<path d="M 21.0 113.0 L 37.0 113.0 Z" fill="none" stroke="#d6d6d6" stroke-width="0.75" />
<path d="M 25.0 118.024 C 25.0 119.112 26.0624 120.200005 27.112 120.200005 C 30.312 120.200005 33.512 118.024 33.512 115.912 C 33.512 114.862404 32.424 113.8 31.4 113.8 C 28.2 113.8 25.0 115.912 25.0 118.024 Z" fill="none" stroke="#404040" stroke-width="1.0" />
<path d="M 23.0 214.25 L 31.0 214.25 L 31.0 221.75 L 23.0 221.75 L 23.0 214.25 Z" fill="#ffffff" stroke="none" stroke-width="1.0" />
<text x='23.0' y='221.75' font-family="Default" font-size="10.0" fill="#404040" >2</text>
<path d="M 22.464394 94.63119 C 22.59136 94.55864 22.79088 94.61305 22.863434 94.7763 C 22.89971 94.84885 22.89971 94.90327 22.89971 96.172935 C 22.89971 96.9166 22.89971 97.51516 22.917847 97.51516 C 22.917847 97.51516 23.08109 97.44261 23.280611 97.370056 C 23.69779 97.20681 23.752205 97.188675 23.861032 97.279366 C 23.988 97.370056 23.988 97.38819 23.988 98.11372 C 23.988 98.73042 23.988 98.784836 23.951725 98.83925 C 23.933586 98.87553 23.897308 98.911804 23.879171 98.92994 C 23.842896 98.94808 23.625237 99.05691 23.371302 99.1476 L 22.917847 99.34712 L 22.89971 100.816315 C 22.89971 101.614395 22.89971 102.28551 22.917847 102.28551 C 22.917847 102.28551 23.08109 102.21295 23.280611 102.140396 C 23.69779 101.97716 23.752205 101.959015 23.861032 102.049706 C 23.988 102.140396 23.988 102.15854 23.988 102.88406 C 23.988 103.50076 23.988 103.555176 23.951725 103.60959 C 23.933586 103.64587 23.897308 103.682144 23.879171 103.70028 C 23.842896 103.71842 23.625237 103.82725 23.371302 103.91794 L 22.917847 104.11746 L 22.89971 105.64107 C 22.89971 107.01957 22.88157 107.182816 22.863434 107.23723 C 22.736465 107.45489 22.428116 107.45489 22.30115 107.23723 C 22.283012 107.182816 22.264874 107.037704 22.264874 105.768036 L 22.264874 104.3714 L 21.484932 104.67974 L 20.723127 104.98809 L 20.723127 106.45728 C 20.723127 108.01717 20.723127 107.980896 20.632437 108.07159 C 20.59616 108.126 20.469193 108.18041 20.414778 108.18041 C 20.342226 108.18041 20.215258 108.126 20.178982 108.07159 C 20.088291 107.980896 20.088291 108.01717 20.088291 106.602394 C 20.088291 105.85873 20.088291 105.26017 20.070152 105.26017 C 20.070152 105.26017 19.90691 105.33272 19.70739 105.40527 C 19.29021 105.56851 19.235796 105.586655 19.126966 105.495964 C 19.0 105.40527 19.0 105.38713 19.0 104.661606 C 19.0 104.04491 19.0 103.99049 19.036276 103.93608 C 19.054415 103.8998 19.09069 103.863525 19.10883 103.84539 C 19.145105 103.82725 19.362764 103.71842 19.6167 103.62773 L 20.088291 103.42821 L 20.088291 101.959015 C 20.088291 101.160934 20.088291 100.48982 20.070152 100.48982 C 20.070152 100.48982 19.90691 100.56238 19.70739 100.63493 C 19.29021 100.79817 19.235796 100.816315 19.126966 100.725624 C 19.0 100.63493 19.0 100.61679 19.0 99.891266 C 19.0 99.27457 19.0 99.22015 19.036276 99.16573 C 19.054415 99.12946 19.09069 99.093185 19.10883 99.07504 C 19.145105 99.05691 19.362764 98.94808 19.6167 98.85739 L 20.088291 98.65787 L 20.088291 97.13426 C 20.088291 95.75576 20.10643 95.592514 20.124567 95.5381 C 20.251535 95.32044 20.559883 95.32044 20.686852 95.5381 C 20.704988 95.592514 20.723127 95.73762 20.723127 97.00729 L 20.741266 98.40393 L 21.503069 98.09558 L 22.264874 97.78723 L 22.264874 96.31804 C 22.264874 94.93954 22.264874 94.84885 22.30115 94.7763 C 22.337425 94.70374 22.373703 94.667465 22.464394 94.63119 M 22.264874 101.070244 L 22.264874 99.60105 L 21.484932 99.9094 L 20.723127 100.21775 L 20.723127 101.705086 L 20.723127 103.17428 L 20.777542 103.156136 C 20.813818 103.138 21.158443 102.9929 21.557484 102.847786 L 22.264874 102.55758 L 22.264874 101.070244 Z" fill="#404040" stroke="none" stroke-width="0.75" />
<path d="M 25.0 102.024 C 25.0 103.112 26.0624 104.200005 27.112 104.200005 C 30.312 104.200005 33.512 102.024 33.512 99.912 C 33.512 98.862404 32.424 97.8 31.4 97.8 C 28.2 97.8 25.0 99.912 25.0 102.024 Z" fill="none" stroke="#404040" stroke-width="1.0" />
<path d="M 23.0 204.25 L 31.0 204.25 L 31.0 211.75 L 23.0 211.75 L 23.0 204.25 Z" fill="#ffffff" stroke="none" stroke-width="1.0" />
<text x='23.0' y='211.75' font-family="Default" font-size="10.0" fill="#404040" >4</text>
<path d="M 25.0 90.024 C 25.0 91.112 26.0624 92.200005 27.112 92.200005 C 30.312 92.200005 33.512 90.024 33.512 87.912 C 33.512 86.862404 32.424 85.8 31.4 85.8 C 28.2 85.8 25.0 87.912 25.0 90.024 Z" fill="none" stroke="#404040" stroke-width="1.0" />
<path d="M 23.0 194.25 L 31.0 194.25 L 31.0 201.75 L 23.0 201.75 L 23.0 194.25 Z" fill="#ffffff" stroke="none" stroke-width="1.0" />
<text x='23.0' y='201.75' font-family="Default" font-size="10.0" fill="#404040" >4</text>
<path d="M 22.464394 74.63119 C 22.59136 74.55864 22.79088 74.61305 22.863434 74.7763 C 22.89971 74.84885 22.89971 74.90327 22.89971 76.172935 C 22.89971 76.9166 22.89971 77.51516 22.917847 77.51516 C 22.917847 77.51516 23.08109 77.44261 23.280611 77.370056 C 23.69779 77.20681 23.752205 77.188675 23.861032 77.279366 C 23.988 77.370056 23.988 77.38819 23.988 78.11372 C 23.988 78.73042 23.988 78.784836 23.951725 78.83925 C 23.933586 78.87553 23.897308 78.911804 23.879171 78.92994 C 23.842896 78.94808 23.625237 79.05691 23.371302 79.1476 L 22.917847 79.34712 L 22.89971 80.816315 C 22.89971 81.614395 22.89971 82.28551 22.917847 82.28551 C 22.917847 82.28551 23.08109 82.21295 23.280611 82.140396 C 23.69779 81.97716 23.752205 81.959015 23.861032 82.049706 C 23.988 82.140396 23.988 82.15854 23.988 82.88406 C 23.988 83.50076 23.988 83.555176 23.951725 83.60959 C 23.933586 83.64587 23.897308 83.682144 23.879171 83.70028 C 23.842896 83.71842 23.625237 83.82725 23.371302 83.91794 L 22.917847 84.11746 L 22.89971 85.64107 C 22.89971 87.01957 22.88157 87.182816 22.863434 87.23723 C 22.736465 87.45489 22.428116 87.45489 22.30115 87.23723 C 22.283012 87.182816 22.264874 87.037704 22.264874 85.768036 L 22.264874 84.3714 L 21.484932 84.67974 L 20.723127 84.98809 L 20.723127 86.45728 C 20.723127 88.01717 20.723127 87.980896 20.632437 88.07159 C 20.59616 88.126 20.469193 88.18041 20.414778 88.18041 C 20.342226 88.18041 20.215258 88.126 20.178982 88.07159 C 20.088291 87.980896 20.088291 88.01717 20.088291 86.602394 C 20.088291 85.85873 20.088291 85.26017 20.070152 85.26017 C 20.070152 85.26017 19.90691 85.33272 19.70739 85.40527 C 19.29021 85.56851 19.235796 85.586655 19.126966 85.495964 C 19.0 85.40527 19.0 85.38713 19.0 84.661606 C 19.0 84.04491 19.0 83.99049 19.036276 83.93608 C 19.054415 83.8998 19.09069 83.863525 19.10883 83.84539 C 19.145105 83.82725 19.362764 83.71842 19.6167 83.62773 L 20.088291 83.42821 L 20.088291 81.959015 C 20.088291 81.160934 20.088291 80.48982 20.070152 80.48982 C 20.070152 80.48982 19.90691 80.56238 19.70739 80.63493 C 19.29021 80.79817 19.235796 80.816315 19.126966 80.725624 C 19.0 80.63493 19.0 80.61679 19.0 79.891266 C 19.0 79.27457 19.0 79.22015 19.036276 79.16573 C 19.054415 79.12946 19.09069 79.093185 19.10883 79.07504 C 19.145105 79.05691 19.362764 78.94808 19.6167 78.85739 L 20.088291 78.65787 L 20.088291 77.13426 C 20.088291 75.75576 20.10643 75.592514 20.124567 75.5381 C 20.251535 75.32044 20.559883 75.32044 20.686852 75.5381 C 20.704988 75.592514 20.723127 75.73762 20.723127 77.00729 L 20.741266 78.40393 L 21.503069 78.09558 L 22.264874 77.78723 L 22.264874 76.31804 C 22.264874 74.93954 22.264874 74.84885 22.30115 74.7763 C 22.337425 74.70374 22.373703 74.667465 22.464394 74.63119 M 22.264874 81.070244 L 22.264874 79.60105 L 21.484932 79.9094 L 20.723127 80.21775 L 20.723127 81.705086 L 20.723127 83.17428 L 20.777542 83.156136 C 20.813818 83.138 21.158443 82.9929 21.557484 82.847786 L 22.264874 82.55758 L 22.264874 81.070244 Z" fill="#404040" stroke="none" stroke-width="0.75" />
<path d="M 25.0 82.024 C 25.0 83.112 26.0624 84.200005 27.112 84.200005 C 30.312 84.200005 33.512 82.024 33.512 79.912 C 33.512 78.862404 32.424 77.8 31.4 77.8 C 28.2 77.8 25.0 79.912 25.0 82.024 Z" fill="none" stroke="#404040" stroke-width="1.0" />
<path d="M 23.0 184.25 L 31.0 184.25 L 31.0 191.75 L 23.0 191.75 L 23.0 184.25 Z" fill="#ffffff" stroke="none" stroke-width="1.0" />
<text x='23.0' y='191.75' font-family="Default" font-size="10.0" fill="#404040" >4</text></g>
<text x='186.0' y='20.0' font-family="Default" font-size="10.0" fill="#000000" >Si M</text>
<text x='162.0' y='91.0' font-family="Default" font-size="10.0" fill="#ff0000" >2</text>
<path d="M 161.0 93.0 L 161.0 125.0 Z" fill="#000000" stroke="#000000" stroke-width="0.75" />
<path d="M 231.0 93.0 L 231.0 125.0 Z" fill="#000000" stroke="#000000" stroke-width="0.75" />
<path d="M 161.0 198.0 L 161.0 248.0 Z" fill="#000000" stroke="#000000" stroke-width="0.75" />
<path d="M 231.0 198.0 L 231.0 248.0 Z" fill="#000000" stroke="#000000" stroke-width="0.75" /><g transform="translate(231.0,20.0)">
<path d="M 0.0 0.0 L 70.0 0.0 L 70.0 249.0 L 0.0 249.0 L 0.0 0.0 Z" fill="#ffffff" stroke="none" stroke-width="1.0" />
<path d="M 0.0 73.0 L 70.0 73.0 M 0.0 81.0 L 70.0 81.0 M 0.0 89.0 L 70.0 89.0 M 0.0 97.0 L 70.0 97.0 M 0.0 105.0 L 70.0 105.0 Z" fill="none" stroke="#d6d6d6" stroke-width="0.75" />
<path d="M 0.0 178.0 L 70.0 178.0 M 0.0 188.0 L 70.0 188.0 M 0.0 198.0 L 70.0 198.0 M 0.0 208.0 L 70.0 208.0 M 0.0 218.0 L 70.0 218.0 M 0.0 228.0 L 70.0 228.0 Z" fill="none" stroke="#d6d6d6" stroke-width="0.75" />
<path d="M 21.0 113.0 L 37.0 113.0 Z" fill="none" stroke="#d6d6d6" stroke-width="0.75" />
<path d="M 21.0 121.0 L 37.0 121.0 Z" fill="none" stroke="#d6d6d6" stroke-width="0.75" />
<path d="M 21.0 129.0 L 37.0 129.0 Z" fill="none" stroke="#d6d6d6" stroke-width="0.75" />
<path d="M 25.0 134.024 C 25.0 135.112 26.0624 136.2 27.112 136.2 C 30.312 136.2 33.512 134.024 33.512 131.912 C 33.512 130.8624 32.424 129.8 31.4 129.8 C 28.2 129.8 25.0 131.912 25.0 134.024 Z" fill="none" stroke="#404040" stroke-width="1.0" />
<path d="M 23.0 224.25 L 31.0 224.25 L 31.0 231.75 L 23.0 231.75 L 23.0 224.25 Z" fill="#ffffff" stroke="none" stroke-width="1.0" />
<text x='23.0' y='231.75' font-family="Default" font-size="10.0" fill="#404040" >0</text>
<path d="M 25.0 118.024 C 25.0 119.112 26.0624 120.200005 27.112 120.200005 C 30.312 120.200005 33.512 118.024 33.512 115.912 C 33.512 114.862404 32.424 113.8 31.4 113.8 C 28.2 113.8 25.0 115.912 25.0 118.024 Z" fill="none" stroke="#404040" stroke-width="1.0" />
<path d="M 23.0 214.25 L 31.0 214.25 L 31.0 221.75 L 23.0 221.75 L 23.0 214.25 Z" fill="#ffffff" stroke="none" stroke-width="1.0" />
<text x='23.0' y='221.75' font-family="Default" font-size="10.0" fill="#404040" >2</text>
<path d="M 25.0 106.024 C 25.0 107.112 26.0624 108.200005 27.112 108.200005 C 30.312 108.200005 33.512 106.024 33.512 103.912 C 33.512 102.862404 32.424 101.8 31.4 101.8 C 28.2 101.8 25.0 103.912 25.0 106.024 Z" fill="none" stroke="#404040" stroke-width="1.0" />
<path d="M 23.0 204.25 L 31.0 204.25 L 31.0 211.75 L 23.0 211.75 L 23.0 204.25 Z" fill="#ffffff" stroke="none" stroke-width="1.0" />
<text x='23.0' y='211.75' font-family="Default" font-size="10.0" fill="#404040" >2</text>
<path d="M 22.464394 90.63119 C 22.59136 90.55864 22.79088 90.61305 22.863434 90.7763 C 22.89971 90.84885 22.89971 90.90327 22.89971 92.172935 C 22.89971 92.9166 22.89971 93.51516 22.917847 93.51516 C 22.917847 93.51516 23.08109 93.44261 23.280611 93.370056 C 23.69779 93.20681 23.752205 93.188675 23.861032 93.279366 C 23.988 93.370056 23.988 93.38819 23.988 94.11372 C 23.988 94.73042 23.988 94.784836 23.951725 94.83925 C 23.933586 94.87553 23.897308 94.911804 23.879171 94.92994 C 23.842896 94.94808 23.625237 95.05691 23.371302 95.1476 L 22.917847 95.34712 L 22.89971 96.816315 C 22.89971 97.614395 22.89971 98.28551 22.917847 98.28551 C 22.917847 98.28551 23.08109 98.21295 23.280611 98.140396 C 23.69779 97.97716 23.752205 97.959015 23.861032 98.049706 C 23.988 98.140396 23.988 98.15854 23.988 98.88406 C 23.988 99.50076 23.988 99.555176 23.951725 99.60959 C 23.933586 99.64587 23.897308 99.682144 23.879171 99.70028 C 23.842896 99.71842 23.625237 99.82725 23.371302 99.91794 L 22.917847 100.11746 L 22.89971 101.64107 C 22.89971 103.01957 22.88157 103.182816 22.863434 103.23723 C 22.736465 103.45489 22.428116 103.45489 22.30115 103.23723 C 22.283012 103.182816 22.264874 103.037704 22.264874 101.768036 L 22.264874 100.3714 L 21.484932 100.67974 L 20.723127 100.98809 L 20.723127 102.45728 C 20.723127 104.01717 20.723127 103.980896 20.632437 104.07159 C 20.59616 104.126 20.469193 104.18041 20.414778 104.18041 C 20.342226 104.18041 20.215258 104.126 20.178982 104.07159 C 20.088291 103.980896 20.088291 104.01717 20.088291 102.602394 C 20.088291 101.85873 20.088291 101.26017 20.070152 101.26017 C 20.070152 101.26017 19.90691 101.33272 19.70739 101.40527 C 19.29021 101.56851 19.235796 101.586655 19.126966 101.495964 C 19.0 101.40527 19.0 101.38713 19.0 100.661606 C 19.0 100.04491 19.0 99.99049 19.036276 99.93608 C 19.054415 99.8998 19.09069 99.863525 19.10883 99.84539 C 19.145105 99.82725 19.362764 99.71842 19.6167 99.62773 L 20.088291 99.42821 L 20.088291 97.959015 C 20.088291 97.160934 20.088291 96.48982 20.070152 96.48982 C 20.070152 96.48982 19.90691 96.56238 19.70739 96.63493 C 19.29021 96.79817 19.235796 96.816315 19.126966 96.725624 C 19.0 96.63493 19.0 96.61679 19.0 95.891266 C 19.0 95.27457 19.0 95.22015 19.036276 95.16573 C 19.054415 95.12946 19.09069 95.093185 19.10883 95.07504 C 19.145105 95.05691 19.362764 94.94808 19.6167 94.85739 L 20.088291 94.65787 L 20.088291 93.13426 C 20.088291 91.75576 20.10643 91.592514 20.124567 91.5381 C 20.251535 91.32044 20.559883 91.32044 20.686852 91.5381 C 20.704988 91.592514 20.723127 91.73762 20.723127 93.00729 L 20.741266 94.40393 L 21.503069 94.09558 L 22.264874 93.78723 L 22.264874 92.31804 C 22.264874 90.93954 22.264874 90.84885 22.30115 90.7763 C 22.337425 90.70374 22.373703 90.667465 22.464394 90.63119 M 22.264874 97.070244 L 22.264874 95.60105 L 21.484932 95.9094 L 20.723127 96.21775 L 20.723127 97.705086 L 20.723127 99.17428 L 20.777542 99.156136 C 20.813818 99.138 21.158443 98.9929 21.557484 98.847786 L 22.264874 98.55758 L 22.264874 97.070244 Z" fill="#404040" stroke="none" stroke-width="0.75" />
<path d="M 25.0 98.024 C 25.0 99.112 26.0624 100.200005 27.112 100.200005 C 30.312 100.200005 33.512 98.024 33.512 95.912 C 33.512 94.862404 32.424 93.8 31.4 93.8 C 28.2 93.8 25.0 95.912 25.0 98.024 Z" fill="none" stroke="#404040" stroke-width="1.0" />
<path d="M 23.0 194.25 L 31.0 194.25 L 31.0 201.75 L 23.0 201.75 L 23.0 194.25 Z" fill="#ffffff" stroke="none" stroke-width="1.0" />
<text x='23.0' y='201.75' font-family="Default" font-size="10.0" fill="#404040" >1</text>
<path d="M 25.0 90.024 C 25.0 91.112 26.0624 92.200005 27.112 92.200005 C 30.312 92.200005 33.512 90.024 33.512 87.912 C 33.512 86.862404 32.424 85.8 31.4 85.8 C 28.2 85.8 25.0 87.912 25.0 90.024 Z" fill="none" stroke="#404040" stroke-width="1.0" />
<path d="M 23.0 184.25 L 31.0 184.25 L 31.0 191.75 L 23.0 191.75 L 23.0 184.25 Z" fill="#ffffff" stroke="none" stroke-width="1.0" />
<text x='23.0' y='191.75' font-family="Default" font-size="10.0" fill="#404040" >0</text>
<path d="M 25.0 78.024 C 25.0 79.112 26.0624 80.200005 27.112 80.200005 C 30.312 80.200005 33.512 78.024 33.512 75.912 C 33.512 74.862404 32.424 73.8 31.4 73.8 C 28.2 73.8 25.0 75.912 25.0 78.024 Z" fill="none" stroke="#404040" stroke-width="1.0" />
<path d="M 23.0 174.25 L 31.0 174.25 L 31.0 181.75 L 23.0 181.75 L 23.0 174.25 Z" fill="#ffffff" stroke="none" stroke-width="1.0" />
<text x='23.0' y='181.75' font-family="Default" font-size="10.0" fill="#404040" >0</text></g>
<text x='256.0' y='20.0' font-family="Default" font-size="10.0" fill="#000000" >Mi M</text>
<text x='232.0' y='91.0' font-family="Default" font-size="10.0" fill="#ff0000" >3</text>
<path d="M 231.0 93.0 L 231.0 125.0 Z" fill="#000000" stroke="#000000" stroke-width="0.75" />
<path d="M 301.0 93.0 L 301.0 125.0 Z" fill="#000000" stroke="#000000" stroke-width="0.75" />
<path d="M 231.0 198.0 L 231.0 248.0 Z" fill="#000000" stroke="#000000" stroke-width="0.75" />
<path d="M 301.0 198.0 L 301.0 248.0 Z" fill="#000000" stroke="#000000" stroke-width="0.75" /><g transform="translate(301.0,20.0)">
<path d="M 0.0 0.0 L 70.0 0.0 L 70.0 249.0 L 0.0 249.0 L 0.0 0.0 Z" fill="#ffffff" stroke="none" stroke-width="1.0" />
<path d="M 0.0 73.0 L 70.0 73.0 M 0.0 81.0 L 70.0 81.0 M 0.0 89.0 L 70.0 89.0 M 0.0 97.0 L 70.0 97.0 M 0.0 105.0 L 70.0 105.0 Z" fill="none" stroke="#d6d6d6" stroke-width="0.75" />
<path d="M 0.0 178.0 L 70.0 178.0 M 0.0 188.0 L 70.0 188.0 M 0.0 198.0 L 70.0 198.0 M 0.0 208.0 L 70.0 208.0 M 0.0 218.0 L 70.0 218.0 M 0.0 228.0 L 70.0 228.0 Z" fill="none" stroke="#d6d6d6" stroke-width="0.75" />
<path d="M 22.464394 102.63119 C 22.59136 102.55864 22.79088 102.61305 22.863434 102.7763 C 22.89971 102.84885 22.89971 102.90327 22.89971 104.172935 C 22.89971 104.9166 22.89971 105.51516 22.917847 105.51516 C 22.917847 105.51516 23.08109 105.44261 23.280611 105.370056 C 23.69779 105.20681 23.752205 105.188675 23.861032 105.279366 C 23.988 105.370056 23.988 105.38819 23.988 106.11372 C 23.988 106.73042 23.988 106.784836 23.951725 106.83925 C 23.933586 106.87553 23.897308 106.911804 23.879171 106.92994 C 23.842896 106.94808 23.625237 107.05691 23.371302 107.1476 L 22.917847 107.34712 L 22.89971 108.816315 C 22.89971 109.614395 22.89971 110.28551 22.917847 110.28551 C 22.917847 110.28551 23.08109 110.21295 23.280611 110.140396 C 23.69779 109.97716 23.752205 109.959015 23.861032 110.049706 C 23.988 110.140396 23.988 110.15854 23.988 110.88406 C 23.988 111.50076 23.988 111.555176 23.951725 111.60959 C 23.933586 111.64587 23.897308 111.682144 23.879171 111.70028 C 23.842896 111.71842 23.625237 111.82725 23.371302 111.91794 L 22.917847 112.11746 L 22.89971 113.64107 C 22.89971 115.01957 22.88157 115.182816 22.863434 115.23723 C 22.736465 115.45489 22.428116 115.45489 22.30115 115.23723 C 22.283012 115.182816 22.264874 115.037704 22.264874 113.768036 L 22.264874 112.3714 L 21.484932 112.67974 L 20.723127 112.98809 L 20.723127 114.45728 C 20.723127 116.01717 20.723127 115.980896 20.632437 116.07159 C 20.59616 116.126 20.469193 116.18041 20.414778 116.18041 C 20.342226 116.18041 20.215258 116.126 20.178982 116.07159 C 20.088291 115.980896 20.088291 116.01717 20.088291 114.602394 C 20.088291 113.85873 20.088291 113.26017 20.070152 113.26017 C 20.070152 113.26017 19.90691 113.33272 19.70739 113.40527 C 19.29021 113.56851 19.235796 113.586655 19.126966 113.495964 C 19.0 113.40527 19.0 113.38713 19.0 112.661606 C 19.0 112.04491 19.0 111.99049 19.036276 111.93608 C 19.054415 111.8998 19.09069 111.863525 19.10883 111.84539 C 19.145105 111.82725 19.362764 111.71842 19.6167 111.62773 L 20.088291 111.42821 L 20.088291 109.959015 C 20.088291 109.160934 20.088291 108.48982 20.070152 108.48982 C 20.070152 108.48982 19.90691 108.56238 19.70739 108.63493 C 19.29021 108.79817 19.235796 108.816315 19.126966 108.725624 C 19.0 108.63493 19.0 108.61679 19.0 107.891266 C 19.0 107.27457 19.0 107.22015 19.036276 107.16573 C 19.054415 107.12946 19.09069 107.093185 19.10883 107.07504 C 19.145105 107.05691 19.362764 106.94808 19.6167 106.85739 L 20.088291 106.65787 L 20.088291 105.13426 C 20.088291 103.75576 20.10643 103.592514 20.124567 103.5381 C 20.251535 103.32044 20.559883 103.32044 20.686852 103.5381 C 20.704988 103.592514 20.723127 103.73762 20.723127 105.00729 L 20.741266 106.40393 L 21.503069 106.09558 L 22.264874 105.78723 L 22.264874 104.31804 C 22.264874 102.93954 22.264874 102.84885 22.30115 102.7763 C 22.337425 102.70374 22.373703 102.667465 22.464394 102.63119 M 22.264874 109.070244 L 22.264874 107.60105 L 21.484932 107.9094 L 20.723127 108.21775 L 20.723127 109.705086 L 20.723127 111.17428 L 20.777542 111.156136 C 20.813818 111.138 21.158443 110.9929 21.557484 110.847786 L 22.264874 110.55758 L 22.264874 109.070244 Z" fill="#404040" stroke="none" stroke-width="0.75" />
<path d="M 25.0 110.024 C 25.0 111.112 26.0624 112.200005 27.112 112.200005 C 30.312 112.200005 33.512 110.024 33.512 107.912 C 33.512 106.862404 32.424 105.8 31.4 105.8 C 28.2 105.8 25.0 107.912 25.0 110.024 Z" fill="none" stroke="#404040" stroke-width="1.0" />
<path d="M 23.0 214.25 L 31.0 214.25 L 31.0 221.75 L 23.0 221.75 L 23.0 214.25 Z" fill="#ffffff" stroke="none" stroke-width="1.0" />
<text x='23.0' y='221.75' font-family="Default" font-size="10.0" fill="#404040" >6</text>
<path d="M 22.464394 86.63119 C 22.59136 86.55864 22.79088 86.61305 22.863434 86.7763 C 22.89971 86.84885 22.89971 86.90327 22.89971 88.172935 C 22.89971 88.9166 22.89971 89.51516 22.917847 89.51516 C 22.917847 89.51516 23.08109 89.44261 23.280611 89.370056 C 23.69779 89.20681 23.752205 89.188675 23.861032 89.279366 C 23.988 89.370056 23.988 89.38819 23.988 90.11372 C 23.988 90.73042 23.988 90.784836 23.951725 90.83925 C 23.933586 90.87553 23.897308 90.911804 23.879171 90.92994 C 23.842896 90.94808 23.625237 91.05691 23.371302 91.1476 L 22.917847 91.34712 L 22.89971 92.816315 C 22.89971 93.614395 22.89971 94.28551 22.917847 94.28551 C 22.917847 94.28551 23.08109 94.21295 23.280611 94.140396 C 23.69779 93.97716 23.752205 93.959015 23.861032 94.049706 C 23.988 94.140396 23.988 94.15854 23.988 94.88406 C 23.988 95.50076 23.988 95.555176 23.951725 95.60959 C 23.933586 95.64587 23.897308 95.682144 23.879171 95.70028 C 23.842896 95.71842 23.625237 95.82725 23.371302 95.91794 L 22.917847 96.11746 L 22.89971 97.64107 C 22.89971 99.01957 22.88157 99.182816 22.863434 99.23723 C 22.736465 99.45489 22.428116 99.45489 22.30115 99.23723 C 22.283012 99.182816 22.264874 99.037704 22.264874 97.768036 L 22.264874 96.3714 L 21.484932 96.67974 L 20.723127 96.98809 L 20.723127 98.45728 C 20.723127 100.01717 20.723127 99.980896 20.632437 100.07159 C 20.59616 100.126 20.469193 100.18041 20.414778 100.18041 C 20.342226 100.18041 20.215258 100.126 20.178982 100.07159 C 20.088291 99.980896 20.088291 100.01717 20.088291 98.602394 C 20.088291 97.85873 20.088291 97.26017 20.070152 97.26017 C 20.070152 97.26017 19.90691 97.33272 19.70739 97.40527 C 19.29021 97.56851 19.235796 97.586655 19.126966 97.495964 C 19.0 97.40527 19.0 97.38713 19.0 96.661606 C 19.0 96.04491 19.0 95.99049 19.036276 95.93608 C 19.054415 95.8998 19.09069 95.863525 19.10883 95.84539 C 19.145105 95.82725 19.362764 95.71842 19.6167 95.62773 L 20.088291 95.42821 L 20.088291 93.959015 C 20.088291 93.160934 20.088291 92.48982 20.070152 92.48982 C 20.070152 92.48982 19.90691 92.56238 19.70739 92.63493 C 19.29021 92.79817 19.235796 92.816315 19.126966 92.725624 C 19.0 92.63493 19.0 92.61679 19.0 91.891266 C 19.0 91.27457 19.0 91.22015 19.036276 91.16573 C 19.054415 91.12946 19.09069 91.093185 19.10883 91.07504 C 19.145105 91.05691 19.362764 90.94808 19.6167 90.85739 L 20.088291 90.65787 L 20.088291 89.13426 C 20.088291 87.75576 20.10643 87.592514 20.124567 87.5381 C 20.251535 87.32044 20.559883 87.32044 20.686852 87.5381 C 20.704988 87.592514 20.723127 87.73762 20.723127 89.00729 L 20.741266 90.40393 L 21.503069 90.09558 L 22.264874 89.78723 L 22.264874 88.31804 C 22.264874 86.93954 22.264874 86.84885 22.30115 86.7763 C 22.337425 86.70374 22.373703 86.667465 22.464394 86.63119 M 22.264874 93.070244 L 22.264874 91.60105 L 21.484932 91.9094 L 20.723127 92.21775 L 20.723127 93.705086 L 20.723127 95.17428 L 20.777542 95.156136 C 20.813818 95.138 21.158443 94.9929 21.557484 94.847786 L 22.264874 94.55758 L 22.264874 93.070244 Z" fill="#404040" stroke="none" stroke-width="0.75" />
<path d="M 25.0 94.024 C 25.0 95.112 26.0624 96.200005 27.112 96.200005 C 30.312 96.200005 33.512 94.024 33.512 91.912 C 33.512 90.862404 32.424 89.8 31.4 89.8 C 28.2 89.8 25.0 91.912 25.0 94.024 Z" fill="none" stroke="#404040" stroke-width="1.0" />
<path d="M 23.0 204.25 L 31.0 204.25 L 31.0 211.75 L 23.0 211.75 L 23.0 204.25 Z" fill="#ffffff" stroke="none" stroke-width="1.0" />
<text x='23.0' y='211.75' font-family="Default" font-size="10.0" fill="#404040" >8</text>
<path d="M 22.464394 74.63119 C 22.59136 74.55864 22.79088 74.61305 22.863434 74.7763 C 22.89971 74.84885 22.89971 74.90327 22.89971 76.172935 C 22.89971 76.9166 22.89971 77.51516 22.917847 77.51516 C 22.917847 77.51516 23.08109 77.44261 23.280611 77.370056 C 23.69779 77.20681 23.752205 77.188675 23.861032 77.279366 C 23.988 77.370056 23.988 77.38819 23.988 78.11372 C 23.988 78.73042 23.988 78.784836 23.951725 78.83925 C 23.933586 78.87553 23.897308 78.911804 23.879171 78.92994 C 23.842896 78.94808 23.625237 79.05691 23.371302 79.1476 L 22.917847 79.34712 L 22.89971 80.816315 C 22.89971 81.614395 22.89971 82.28551 22.917847 82.28551 C 22.917847 82.28551 23.08109 82.21295 23.280611 82.140396 C 23.69779 81.97716 23.752205 81.959015 23.861032 82.049706 C 23.988 82.140396 23.988 82.15854 23.988 82.88406 C 23.988 83.50076 23.988 83.555176 23.951725 83.60959 C 23.933586 83.64587 23.897308 83.682144 23.879171 83.70028 C 23.842896 83.71842 23.625237 83.82725 23.371302 83.91794 L 22.917847 84.11746 L 22.89971 85.64107 C 22.89971 87.01957 22.88157 87.182816 22.863434 87.23723 C 22.736465 87.45489 22.428116 87.45489 22.30115 87.23723 C 22.283012 87.182816 22.264874 87.037704 22.264874 85.768036 L 22.264874 84.3714 L 21.484932 84.67974 L 20.723127 84.98809 L 20.723127 86.45728 C 20.723127 88.01717 20.723127 87.980896 20.632437 88.07159 C 20.59616 88.126 20.469193 88.18041 20.414778 88.18041 C 20.342226 88.18041 20.215258 88.126 20.178982 88.07159 C 20.088291 87.980896 20.088291 88.01717 20.088291 86.602394 C 20.088291 85.85873 20.088291 85.26017 20.070152 85.26017 C 20.070152 85.26017 19.90691 85.33272 19.70739 85.40527 C 19.29021 85.56851 19.235796 85.586655 19.126966 85.495964 C 19.0 85.40527 19.0 85.38713 19.0 84.661606 C 19.0 84.04491 19.0 83.99049 19.036276 83.93608 C 19.054415 83.8998 19.09069 83.863525 19.10883 83.84539 C 19.145105 83.82725 19.362764 83.71842 19.6167 83.62773 L 20.088291 83.42821 L 20.088291 81.959015 C 20.088291 81.160934 20.088291 80.48982 20.070152 80.48982 C 20.070152 80.48982 19.90691 80.56238 19.70739 80.63493 C 19.29021 80.79817 19.235796 80.816315 19.126966 80.725624 C 19.0 80.63493 19.0 80.61679 19.0 79.891266 C 19.0 79.27457 19.0 79.22015 19.036276 79.16573 C 19.054415 79.12946 19.09069 79.093185 19.10883 79.07504 C 19.145105 79.05691 19.362764 78.94808 19.6167 78.85739 L 20.088291 78.65787 L 20.088291 77.13426 C 20.088291 75.75576 20.10643 75.592514 20.124567 75.5381 C 20.251535 75.32044 20.559883 75.32044 20.686852 75.5381 C 20.704988 75.592514 20.723127 75.73762 20.723127 77.00729 L 20.741266 78.40393 L 21.503069 78.09558 L 22.264874 77.78723 L 22.264874 76.31804 C 22.264874 74.93954 22.264874 74.84885 22.30115 74.7763 C 22.337425 74.70374 22.373703 74.667465 22.464394 74.63119 M 22.264874 81.070244 L 22.264874 79.60105 L 21.484932 79.9094 L 20.723127 80.21775 L 20.723127 81.705086 L 20.723127 83.17428 L 20.777542 83.156136 C 20.813818 83.138 21.158443 82.9929 21.557484 82.847786 L 22.264874 82.55758 L 22.264874 81.070244 Z" fill="#404040" stroke="none" stroke-width="0.75" />
<path d="M 25.0 82.024 C 25.0 83.112 26.0624 84.200005 27.112 84.200005 C 30.312 84.200005 33.512 82.024 33.512 79.912 C 33.512 78.862404 32.424 77.8 31.4 77.8 C 28.2 77.8 25.0 79.912 25.0 82.024 Z" fill="none" stroke="#404040" stroke-width="1.0" />
<path d="M 23.0 194.25 L 31.0 194.25 L 31.0 201.75 L 23.0 201.75 L 23.0 194.25 Z" fill="#ffffff" stroke="none" stroke-width="1.0" />
<text x='23.0' y='201.75' font-family="Default" font-size="10.0" fill="#404040" >8</text>
<path d="M 25.0 70.024 C 25.0 71.112 26.0624 72.200005 27.112 72.200005 C 30.312 72.200005 33.512 70.024 33.512 67.912 C 33.512 66.862404 32.424 65.8 31.4 65.8 C 28.2 65.8 25.0 67.912 25.0 70.024 Z" fill="none" stroke="#404040" stroke-width="1.0" />
<path d="M 23.0 184.25 L 31.0 184.25 L 31.0 191.75 L 23.0 191.75 L 23.0 184.25 Z" fill="#ffffff" stroke="none" stroke-width="1.0" />
<text x='23.0' y='191.75' font-family="Default" font-size="10.0" fill="#404040" >8</text></g>
<text x='326.0' y='20.0' font-family="Default" font-size="10.0" fill="#000000" >R</text>
<text x='302.0' y='91.0' font-family="Default" font-size="10.0" fill="#ff0000" >4</text>
<path d="M 301.0 93.0 L 301.0 125.0 Z" fill="#000000" stroke="#000000" stroke-width="0.75" />
<path d="M 371.0 93.0 L 371.0 125.0 Z" fill="#000000" stroke="#000000" stroke-width="0.75" />
<path d="M 301.0 198.0 L 301.0 248.0 Z" fill="#000000" stroke="#000000" stroke-width="0.75" />
<path d="M 371.0 198.0 L 371.0 248.0 Z" fill="#000000" stroke="#000000" stroke-width="0.75" /><g transform="translate(371.0,20.0)">
<path d="M 0.0 0.0 L 70.0 0.0 L 70.0 249.0 L 0.0 249.0 L 0.0 0.0 Z" fill="#ffffff" stroke="none" stroke-width="1.0" />
<path d="M 0.0 73.0 L 70.0 73.0 M 0.0 81.0 L 70.0 81.0 M 0.0 89.0 L 70.0 89.0 M 0.0 97.0 L 70.0 97.0 M 0.0 105.0 L 70.0 105.0 Z" fill="none" stroke="#d6d6d6" stroke-width="0.75" />
<path d="M 0.0 178.0 L 70.0 178.0 M 0.0 188.0 L 70.0 188.0 M 0.0 198.0 L 70.0 198.0 M 0.0 208.0 L 70.0 208.0 M 0.0 218.0 L 70.0 218.0 M 0.0 228.0 L 70.0 228.0 Z" fill="none" stroke="#d6d6d6" stroke-width="0.75" />
<path d="M 25.0 106.024 C 25.0 107.112 26.0624 108.200005 27.112 108.200005 C 30.312 108.200005 33.512 106.024 33.512 103.912 C 33.512 102.862404 32.424 101.8 31.4 101.8 C 28.2 101.8 25.0 103.912 25.0 106.024 Z" fill="none" stroke="#404040" stroke-width="1.0" />
<path d="M 23.0 214.25 L 31.0 214.25 L 31.0 221.75 L 23.0 221.75 L 23.0 214.25 Z" fill="#ffffff" stroke="none" stroke-width="1.0" />
<text x='23.0' y='221.75' font-family="Default" font-size="10.0" fill="#404040" >7</text>
<path d="M 25.0 90.024 C 25.0 91.112 26.0624 92.200005 27.112 92.200005 C 30.312 92.200005 33.512 90.024 33.512 87.912 C 33.512 86.862404 32.424 85.8 31.4 85.8 C 28.2 85.8 25.0 87.912 25.0 90.024 Z" fill="none" stroke="#404040" stroke-width="1.0" />
<path d="M 23.0 204.25 L 31.0 204.25 L 31.0 211.75 L 23.0 211.75 L 23.0 204.25 Z" fill="#ffffff" stroke="none" stroke-width="1.0" />
<text x='23.0' y='211.75' font-family="Default" font-size="10.0" fill="#404040" >9</text>
<path d="M 25.0 78.024 C 25.0 79.112 26.0624 80.200005 27.112 80.200005 C 30.312 80.200005 33.512 78.024 33.512 75.912 C 33.512 74.862404 32.424 73.8 31.4 73.8 C 28.2 73.8 25.0 75.912 25.0 78.024 Z" fill="none" stroke="#404040" stroke-width="1.0" />
<path d="M 23.0 194.25 L 31.0 194.25 L 31.0 201.75 L 23.0 201.75 L 23.0 194.25 Z" fill="#ffffff" stroke="none" stroke-width="1.0" />
<text x='23.0' y='201.75' font-family="Default" font-size="10.0" fill="#404040" >9</text>
<path d="M 22.464394 62.63119 C 22.59136 62.55864 22.79088 62.613052 22.863434 62.7763 C 22.89971 62.84885 22.89971 62.903263 22.89971 64.172935 C 22.89971 64.9166 22.89971 65.51516 22.917847 65.51516 C 22.917847 65.51516 23.08109 65.44261 23.280611 65.370056 C 23.69779 65.20681 23.752205 65.188675 23.861032 65.279366 C 23.988 65.370056 23.988 65.38819 23.988 66.11372 C 23.988 66.73042 23.988 66.784836 23.951725 66.83925 C 23.933586 66.87553 23.897308 66.911804 23.879171 66.92994 C 23.842896 66.94808 23.625237 67.05691 23.371302 67.1476 L 22.917847 67.34712 L 22.89971 68.816315 C 22.89971 69.614395 22.89971 70.28551 22.917847 70.28551 C 22.917847 70.28551 23.08109 70.21295 23.280611 70.140396 C 23.69779 69.97716 23.752205 69.959015 23.861032 70.049706 C 23.988 70.140396 23.988 70.15854 23.988 70.88406 C 23.988 71.50076 23.988 71.555176 23.951725 71.60959 C 23.933586 71.64587 23.897308 71.682144 23.879171 71.70028 C 23.842896 71.71842 23.625237 71.82725 23.371302 71.91794 L 22.917847 72.11746 L 22.89971 73.64107 C 22.89971 75.01957 22.88157 75.182816 22.863434 75.23723 C 22.736465 75.45489 22.428116 75.45489 22.30115 75.23723 C 22.283012 75.182816 22.264874 75.037704 22.264874 73.768036 L 22.264874 72.3714 L 21.484932 72.67974 L 20.723127 72.98809 L 20.723127 74.45728 C 20.723127 76.01717 20.723127 75.980896 20.632437 76.07159 C 20.59616 76.126 20.469193 76.18041 20.414778 76.18041 C 20.342226 76.18041 20.215258 76.126 20.178982 76.07159 C 20.088291 75.980896 20.088291 76.01717 20.088291 74.602394 C 20.088291 73.85873 20.088291 73.26017 20.070152 73.26017 C 20.070152 73.26017 19.90691 73.33272 19.70739 73.40527 C 19.29021 73.56851 19.235796 73.586655 19.126966 73.495964 C 19.0 73.40527 19.0 73.38713 19.0 72.661606 C 19.0 72.04491 19.0 71.99049 19.036276 71.93608 C 19.054415 71.8998 19.09069 71.863525 19.10883 71.84539 C 19.145105 71.82725 19.362764 71.71842 19.6167 71.62773 L 20.088291 71.42821 L 20.088291 69.959015 C 20.088291 69.160934 20.088291 68.48982 20.070152 68.48982 C 20.070152 68.48982 19.90691 68.56238 19.70739 68.63493 C 19.29021 68.79817 19.235796 68.816315 19.126966 68.725624 C 19.0 68.63493 19.0 68.61679 19.0 67.891266 C 19.0 67.27457 19.0 67.22015 19.036276 67.16573 C 19.054415 67.12946 19.09069 67.093185 19.10883 67.07504 C 19.145105 67.05691 19.362764 66.94808 19.6167 66.85739 L 20.088291 66.65787 L 20.088291 65.13426 C 20.088291 63.75576 20.10643 63.592514 20.124567 63.5381 C 20.251535 63.320442 20.559883 63.320442 20.686852 63.5381 C 20.704988 63.592514 20.723127 63.73762 20.723127 65.00729 L 20.741266 66.40393 L 21.503069 66.09558 L 22.264874 65.78723 L 22.264874 64.31804 C 22.264874 62.93954 22.264874 62.84885 22.30115 62.7763 C 22.337425 62.703743 22.373703 62.667465 22.464394 62.63119 M 22.264874 69.070244 L 22.264874 67.60105 L 21.484932 67.9094 L 20.723127 68.21775 L 20.723127 69.705086 L 20.723127 71.17428 L 20.777542 71.156136 C 20.813818 71.138 21.158443 70.9929 21.557484 70.847786 L 22.264874 70.55758 L 22.264874 69.070244 Z" fill="#404040" stroke="none" stroke-width="0.75" />
<path d="M 25.0 70.024 C 25.0 71.112 26.0624 72.200005 27.112 72.200005 C 30.312 72.200005 33.512 70.024 33.512 67.912 C 33.512 66.862404 32.424 65.8 31.4 65.8 C 28.2 65.8 25.0 67.912 25.0 70.024 Z" fill="none" stroke="#404040" stroke-width="1.0" />
<path d="M 23.0 184.25 L 31.0 184.25 L 31.0 191.75 L 23.0 191.75 L 23.0 184.25 Z" fill="#ffffff" stroke="none" stroke-width="1.0" />
<text x='23.0' y='191.75' font-family="Default" font-size="10.0" fill="#404040" >9</text></g>
<text x='396.0' y='20.0' font-family="Default" font-size="10.0" fill="#000000" >Mi</text>
<text x='372.0' y='91.0' font-family="Default" font-size="10.0" fill="#ff0000" >5</text>
<path d="M 371.0 93.0 L 371.0 125.0 Z" fill="#000000" stroke="#000000" stroke-width="0.75" />
<path d="M 441.0 93.0 L 441.0 125.0 Z" fill="#000000" stroke="#000000" stroke-width="0.75" />
<path d="M 371.0 198.0 L 371.0 248.0 Z" fill="#000000" stroke="#000000" stroke-width="0.75" />
<path d="M 441.0 198.0 L 441.0 248.0 Z" fill="#000000" stroke="#000000" stroke-width="0.75" /><g transform="translate(441.0,20.0)">
<path d="M 0.0 0.0 L 70.0 0.0 L 70.0 249.0 L 0.0 249.0 L 0.0 0.0 Z" fill="#ffffff" stroke="none" stroke-width="1.0" />
<path d="M 0.0 73.0 L 70.0 73.0 M 0.0 81.0 L 70.0 81.0 M 0.0 89.0 L 70.0 89.0 M 0.0 97.0 L 70.0 97.0 M 0.0 105.0 L 70.0 105.0 Z" fill="none" stroke="#d6d6d6" stroke-width="0.75" />
<path d="M 0.0 178.0 L 70.0 178.0 M 0.0 188.0 L 70.0 188.0 M 0.0 198.0 L 70.0 198.0 M 0.0 208.0 L 70.0 208.0 M 0.0 218.0 L 70.0 218.0 M 0.0 228.0 L 70.0 228.0 Z" fill="none" stroke="#d6d6d6" stroke-width="0.75" />
<path d="M 21.0 65.0 L 37.0 65.0 Z" fill="none" stroke="#d6d6d6" stroke-width="0.75" />
<path d="M 25.0 98.024 C 25.0 99.112 26.0624 100.200005 27.112 100.200005 C 30.312 100.200005 33.512 98.024 33.512 95.912 C 33.512 94.862404 32.424 93.8 31.4 93.8 C 28.2 93.8 25.0 95.912 25.0 98.024 Z" fill="none" stroke="#404040" stroke-width="1.0" />
<path d="M 19.5 214.25 L 34.5 214.25 L 34.5 221.75 L 19.5 221.75 L 19.5 214.25 Z" fill="#ffffff" stroke="none" stroke-width="1.0" />
<text x='19.5' y='221.75' font-family="Default" font-size="10.0" fill="#404040" >10</text>
<path d="M 25.0 82.024 C 25.0 83.112 26.0624 84.200005 27.112 84.200005 C 30.312 84.200005 33.512 82.024 33.512 79.912 C 33.512 78.862404 32.424 77.8 31.4 77.8 C 28.2 77.8 25.0 79.912 25.0 82.024 Z" fill="none" stroke="#404040" stroke-width="1.0" />
<path d="M 19.5 204.25 L 34.5 204.25 L 34.5 211.75 L 19.5 211.75 L 19.5 204.25 Z" fill="#ffffff" stroke="none" stroke-width="1.0" />
<text x='19.5' y='211.75' font-family="Default" font-size="10.0" fill="#404040" >12</text>
<path d="M 25.0 70.024 C 25.0 71.112 26.0624 72.200005 27.112 72.200005 C 30.312 72.200005 33.512 70.024 33.512 67.912 C 33.512 66.862404 32.424 65.8 31.4 65.8 C 28.2 65.8 25.0 67.912 25.0 70.024 Z" fill="none" stroke="#404040" stroke-width="1.0" />
<path d="M 19.5 194.25 L 34.5 194.25 L 34.5 201.75 L 19.5 201.75 L 19.5 194.25 Z" fill="#ffffff" stroke="none" stroke-width="1.0" />
<text x='19.5' y='201.75' font-family="Default" font-size="10.0" fill="#404040" >12</text>
<path d="M 25.0 62.024 C 25.0 63.112 26.0624 64.2 27.112 64.2 C 30.312 64.2 33.512 62.024 33.512 59.912 C 33.512 58.8624 32.424 57.8 31.4 57.8 C 28.2 57.8 25.0 59.912 25.0 62.024 Z" fill="none" stroke="#404040" stroke-width="1.0" />
<path d="M 19.5 184.25 L 34.5 184.25 L 34.5 191.75 L 19.5 191.75 L 19.5 184.25 Z" fill="#ffffff" stroke="none" stroke-width="1.0" />
<text x='19.5' y='191.75' font-family="Default" font-size="10.0" fill="#404040" >12</text></g>
<text x='466.0' y='20.0' font-family="Default" font-size="10.0" fill="#000000" >Sol</text>
<text x='442.0' y='91.0' font-family="Default" font-size="10.0" fill="#ff0000" >6</text>
<path d="M 441.0 93.0 L 441.0 125.0 Z" fill="#000000" stroke="#000000" stroke-width="0.75" />
<path d="M 511.0 93.0 L 511.0 125.0 Z" fill="#000000" stroke="#000000" stroke-width="0.75" />
<path d="M 441.0 198.0 L 441.0 248.0 Z" fill="#000000" stroke="#000000" stroke-width="0.75" />
<path d="M 511.0 198.0 L 511.0 248.0 Z" fill="#000000" stroke="#000000" stroke-width="0.75" /><g transform="translate(511.0,20.0)">
<path d="M 0.0 0.0 L 70.0 0.0 L 70.0 249.0 L 0.0 249.0 L 0.0 0.0 Z" fill="#ffffff" stroke="none" stroke-width="1.0" />
<path d="M 0.0 73.0 L 70.0 73.0 M 0.0 81.0 L 70.0 81.0 M 0.0 89.0 L 70.0 89.0 M 0.0 97.0 L 70.0 97.0 M 0.0 105.0 L 70.0 105.0 Z" fill="none" stroke="#d6d6d6" stroke-width="0.75" />
<path d="M 0.0 178.0 L 70.0 178.0 M 0.0 188.0 L 70.0 188.0 M 0.0 198.0 L 70.0 198.0 M 0.0 208.0 L 70.0 208.0 M 0.0 218.0 L 70.0 218.0 M 0.0 228.0 L 70.0 228.0 Z" fill="none" stroke="#d6d6d6" stroke-width="0.75" />
<path d="M 21.0 65.0 L 37.0 65.0 Z" fill="none" stroke="#d6d6d6" stroke-width="0.75" />
<path d="M 25.0 106.024 C 25.0 107.112 26.0624 108.200005 27.112 108.200005 C 30.312 108.200005 33.512 106.024 33.512 103.912 C 33.512 102.862404 32.424 101.8 31.4 101.8 C 28.2 101.8 25.0 103.912 25.0 106.024 Z" fill="none" stroke="#404040" stroke-width="1.0" />
<path d="M 23.0 214.25 L 31.0 214.25 L 31.0 221.75 L 23.0 221.75 L 23.0 214.25 Z" fill="#ffffff" stroke="none" stroke-width="1.0" />
<text x='23.0' y='221.75' font-family="Default" font-size="10.0" fill="#404040" >7</text>
<path d="M 25.0 90.024 C 25.0 91.112 26.0624 92.200005 27.112 92.200005 C 30.312 92.200005 33.512 90.024 33.512 87.912 C 33.512 86.862404 32.424 85.8 31.4 85.8 C 28.2 85.8 25.0 87.912 25.0 90.024 Z" fill="none" stroke="#404040" stroke-width="1.0" />
<path d="M 23.0 204.25 L 31.0 204.25 L 31.0 211.75 L 23.0 211.75 L 23.0 204.25 Z" fill="#ffffff" stroke="none" stroke-width="1.0" />
<text x='23.0' y='211.75' font-family="Default" font-size="10.0" fill="#404040" >9</text>
<path d="M 25.0 78.024 C 25.0 79.112 26.0624 80.200005 27.112 80.200005 C 30.312 80.200005 33.512 78.024 33.512 75.912 C 33.512 74.862404 32.424 73.8 31.4 73.8 C 28.2 73.8 25.0 75.912 25.0 78.024 Z" fill="none" stroke="#404040" stroke-width="1.0" />
<path d="M 23.0 194.25 L 31.0 194.25 L 31.0 201.75 L 23.0 201.75 L 23.0 194.25 Z" fill="#ffffff" stroke="none" stroke-width="1.0" />
<text x='23.0' y='201.75' font-family="Default" font-size="10.0" fill="#404040" >9</text>
<path d="M 25.0 70.024 C 25.0 71.112 26.0624 72.200005 27.112 72.200005 C 30.312 72.200005 33.512 70.024 33.512 67.912 C 33.512 66.862404 32.424 65.8 31.4 65.8 C 28.2 65.8 25.0 67.912 25.0 70.024 Z" fill="none" stroke="#404040" stroke-width="1.0" />
<path d="M 23.0 184.25 L 31.0 184.25 L 31.0 191.75 L 23.0 191.75 L 23.0 184.25 Z" fill="#ffffff" stroke="none" stroke-width="1.0" />
<text x='23.0' y='191.75' font-family="Default" font-size="10.0" fill="#404040" >8</text>
<path d="M 25.0 62.024 C 25.0 63.112 26.0624 64.2 27.112 64.2 C 30.312 64.2 33.512 62.024 33.512 59.912 C 33.512 58.8624 32.424 57.8 31.4 57.8 C 28.2 57.8 25.0 59.912 25.0 62.024 Z" fill="none" stroke="#404040" stroke-width="1.0" />
<path d="M 23.0 174.25 L 31.0 174.25 L 31.0 181.75 L 23.0 181.75 L 23.0 174.25 Z" fill="#ffffff" stroke="none" stroke-width="1.0" />
<text x='23.0' y='181.75' font-family="Default" font-size="10.0" fill="#404040" >7</text></g>
<text x='536.0' y='20.0' font-family="Default" font-size="10.0" fill="#000000" >Mi m</text>
<text x='512.0' y='91.0' font-family="Default" font-size="10.0" fill="#ff0000" >7</text>
<path d="M 511.0 93.0 L 511.0 125.0 Z" fill="#000000" stroke="#000000" stroke-width="0.75" />
<path d="M 581.0 93.0 L 581.0 125.0 Z" fill="#000000" stroke="#000000" stroke-width="0.75" />
<path d="M 511.0 198.0 L 511.0 248.0 Z" fill="#000000" stroke="#000000" stroke-width="0.75" />
<path d="M 581.0 198.0 L 581.0 248.0 Z" fill="#000000" stroke="#000000" stroke-width="0.75" /><g transform="translate(581.0,20.0)">
<path d="M 0.0 0.0 L 70.0 0.0 L 70.0 249.0 L 0.0 249.0 L 0.0 0.0 Z" fill="#ffffff" stroke="none" stroke-width="1.0" />
<path d="M 0.0 73.0 L 70.0 73.0 M 0.0 81.0 L 70.0 81.0 M 0.0 89.0 L 70.0 89.0 M 0.0 97.0 L 70.0 97.0 M 0.0 105.0 L 70.0 105.0 Z" fill="none" stroke="#d6d6d6" stroke-width="0.75" />
<path d="M 0.0 178.0 L 70.0 178.0 M 0.0 188.0 L 70.0 188.0 M 0.0 198.0 L 70.0 198.0 M 0.0 208.0 L 70.0 208.0 M 0.0 218.0 L 70.0 218.0 M 0.0 228.0 L 70.0 228.0 Z" fill="none" stroke="#d6d6d6" stroke-width="0.75" />
<path d="M 21.0 65.0 L 37.0 65.0 Z" fill="none" stroke="#d6d6d6" stroke-width="0.75" />
<path d="M 21.0 113.0 L 37.0 113.0 Z" fill="none" stroke="#d6d6d6" stroke-width="0.75" />
<path d="M 25.0 118.024 C 25.0 119.112 26.0624 120.200005 27.112 120.200005 C 30.312 120.200005 33.512 118.024 33.512 115.912 C 33.512 114.862404 32.424 113.8 31.4 113.8 C 28.2 113.8 25.0 115.912 25.0 118.024 Z" fill="none" stroke="#404040" stroke-width="1.0" />
<path d="M 23.0 224.25 L 31.0 224.25 L 31.0 231.75 L 23.0 231.75 L 23.0 224.25 Z" fill="#ffffff" stroke="none" stroke-width="1.0" />
<text x='23.0' y='231.75' font-family="Default" font-size="10.0" fill="#404040" >7</text>
<path d="M 22.464394 94.63119 C 22.59136 94.55864 22.79088 94.61305 22.863434 94.7763 C 22.89971 94.84885 22.89971 94.90327 22.89971 96.172935 C 22.89971 96.9166 22.89971 97.51516 22.917847 97.51516 C 22.917847 97.51516 23.08109 97.44261 23.280611 97.370056 C 23.69779 97.20681 23.752205 97.188675 23.861032 97.279366 C 23.988 97.370056 23.988 97.38819 23.988 98.11372 C 23.988 98.73042 23.988 98.784836 23.951725 98.83925 C 23.933586 98.87553 23.897308 98.911804 23.879171 98.92994 C 23.842896 98.94808 23.625237 99.05691 23.371302 99.1476 L 22.917847 99.34712 L 22.89971 100.816315 C 22.89971 101.614395 22.89971 102.28551 22.917847 102.28551 C 22.917847 102.28551 23.08109 102.21295 23.280611 102.140396 C 23.69779 101.97716 23.752205 101.959015 23.861032 102.049706 C 23.988 102.140396 23.988 102.15854 23.988 102.88406 C 23.988 103.50076 23.988 103.555176 23.951725 103.60959 C 23.933586 103.64587 23.897308 103.682144 23.879171 103.70028 C 23.842896 103.71842 23.625237 103.82725 23.371302 103.91794 L 22.917847 104.11746 L 22.89971 105.64107 C 22.89971 107.01957 22.88157 107.182816 22.863434 107.23723 C 22.736465 107.45489 22.428116 107.45489 22.30115 107.23723 C 22.283012 107.182816 22.264874 107.037704 22.264874 105.768036 L 22.264874 104.3714 L 21.484932 104.67974 L 20.723127 104.98809 L 20.723127 106.45728 C 20.723127 108.01717 20.723127 107.980896 20.632437 108.07159 C 20.59616 108.126 20.469193 108.18041 20.414778 108.18041 C 20.342226 108.18041 20.215258 108.126 20.178982 108.07159 C 20.088291 107.980896 20.088291 108.01717 20.088291 106.602394 C 20.088291 105.85873 20.088291 105.26017 20.070152 105.26017 C 20.070152 105.26017 19.90691 105.33272 19.70739 105.40527 C 19.29021 105.56851 19.235796 105.586655 19.126966 105.495964 C 19.0 105.40527 19.0 105.38713 19.0 104.661606 C 19.0 104.04491 19.0 103.99049 19.036276 103.93608 C 19.054415 103.8998 19.09069 103.863525 19.10883 103.84539 C 19.145105 103.82725 19.362764 103.71842 19.6167 103.62773 L 20.088291 103.42821 L 20.088291 101.959015 C 20.088291 101.160934 20.088291 100.48982 20.070152 100.48982 C 20.070152 100.48982 19.90691 100.56238 19.70739 100.63493 C 19.29021 100.79817 19.235796 100.816315 19.126966 100.725624 C 19.0 100.63493 19.0 100.61679 19.0 99.891266 C 19.0 99.27457 19.0 99.22015 19.036276 99.16573 C 19.054415 99.12946 19.09069 99.093185 19.10883 99.07504 C 19.145105 99.05691 19.362764 98.94808 19.6167 98.85739 L 20.088291 98.65787 L 20.088291 97.13426 C 20.088291 95.75576 20.10643 95.592514 20.124567 95.5381 C 20.251535 95.32044 20.559883 95.32044 20.686852 95.5381 C 20.704988 95.592514 20.723127 95.73762 20.723127 97.00729 L 20.741266 98.40393 L 21.503069 98.09558 L 22.264874 97.78723 L 22.264874 96.31804 C 22.264874 94.93954 22.264874 94.84885 22.30115 94.7763 C 22.337425 94.70374 22.373703 94.667465 22.464394 94.63119 M 22.264874 101.070244 L 22.264874 99.60105 L 21.484932 99.9094 L 20.723127 100.21775 L 20.723127 101.705086 L 20.723127 103.17428 L 20.777542 103.156136 C 20.813818 103.138 21.158443 102.9929 21.557484 102.847786 L 22.264874 102.55758 L 22.264874 101.070244 Z" fill="#404040" stroke="none" stroke-width="0.75" />
<path d="M 25.0 102.024 C 25.0 103.112 26.0624 104.200005 27.112 104.200005 C 30.312 104.200005 33.512 102.024 33.512 99.912 C 33.512 98.862404 32.424 97.8 31.4 97.8 C 28.2 97.8 25.0 99.912 25.0 102.024 Z" fill="none" stroke="#404040" stroke-width="1.0" />
<path d="M 23.0 214.25 L 31.0 214.25 L 31.0 221.75 L 23.0 221.75 L 23.0 214.25 Z" fill="#ffffff" stroke="none" stroke-width="1.0" />
<text x='23.0' y='221.75' font-family="Default" font-size="10.0" fill="#404040" >9</text>
<path d="M 25.0 90.024 C 25.0 91.112 26.0624 92.200005 27.112 92.200005 C 30.312 92.200005 33.512 90.024 33.512 87.912 C 33.512 86.862404 32.424 85.8 31.4 85.8 C 28.2 85.8 25.0 87.912 25.0 90.024 Z" fill="none" stroke="#404040" stroke-width="1.0" />
<path d="M 23.0 204.25 L 31.0 204.25 L 31.0 211.75 L 23.0 211.75 L 23.0 204.25 Z" fill="#ffffff" stroke="none" stroke-width="1.0" />
<text x='23.0' y='211.75' font-family="Default" font-size="10.0" fill="#404040" >9</text>
<path d="M 22.464394 74.63119 C 22.59136 74.55864 22.79088 74.61305 22.863434 74.7763 C 22.89971 74.84885 22.89971 74.90327 22.89971 76.172935 C 22.89971 76.9166 22.89971 77.51516 22.917847 77.51516 C 22.917847 77.51516 23.08109 77.44261 23.280611 77.370056 C 23.69779 77.20681 23.752205 77.188675 23.861032 77.279366 C 23.988 77.370056 23.988 77.38819 23.988 78.11372 C 23.988 78.73042 23.988 78.784836 23.951725 78.83925 C 23.933586 78.87553 23.897308 78.911804 23.879171 78.92994 C 23.842896 78.94808 23.625237 79.05691 23.371302 79.1476 L 22.917847 79.34712 L 22.89971 80.816315 C 22.89971 81.614395 22.89971 82.28551 22.917847 82.28551 C 22.917847 82.28551 23.08109 82.21295 23.280611 82.140396 C 23.69779 81.97716 23.752205 81.959015 23.861032 82.049706 C 23.988 82.140396 23.988 82.15854 23.988 82.88406 C 23.988 83.50076 23.988 83.555176 23.951725 83.60959 C 23.933586 83.64587 23.897308 83.682144 23.879171 83.70028 C 23.842896 83.71842 23.625237 83.82725 23.371302 83.91794 L 22.917847 84.11746 L 22.89971 85.64107 C 22.89971 87.01957 22.88157 87.182816 22.863434 87.23723 C 22.736465 87.45489 22.428116 87.45489 22.30115 87.23723 C 22.283012 87.182816 22.264874 87.037704 22.264874 85.768036 L 22.264874 84.3714 L 21.484932 84.67974 L 20.723127 84.98809 L 20.723127 86.45728 C 20.723127 88.01717 20.723127 87.980896 20.632437 88.07159 C 20.59616 88.126 20.469193 88.18041 20.414778 88.18041 C 20.342226 88.18041 20.215258 88.126 20.178982 88.07159 C 20.088291 87.980896 20.088291 88.01717 20.088291 86.602394 C 20.088291 85.85873 20.088291 85.26017 20.070152 85.26017 C 20.070152 85.26017 19.90691 85.33272 19.70739 85.40527 C 19.29021 85.56851 19.235796 85.586655 19.126966 85.495964 C 19.0 85.40527 19.0 85.38713 19.0 84.661606 C 19.0 84.04491 19.0 83.99049 19.036276 83.93608 C 19.054415 83.8998 19.09069 83.863525 19.10883 83.84539 C 19.145105 83.82725 19.362764 83.71842 19.6167 83.62773 L 20.088291 83.42821 L 20.088291 81.959015 C 20.088291 81.160934 20.088291 80.48982 20.070152 80.48982 C 20.070152 80.48982 19.90691 80.56238 19.70739 80.63493 C 19.29021 80.79817 19.235796 80.816315 19.126966 80.725624 C 19.0 80.63493 19.0 80.61679 19.0 79.891266 C 19.0 79.27457 19.0 79.22015 19.036276 79.16573 C 19.054415 79.12946 19.09069 79.093185 19.10883 79.07504 C 19.145105 79.05691 19.362764 78.94808 19.6167 78.85739 L 20.088291 78.65787 L 20.088291 77.13426 C 20.088291 75.75576 20.10643 75.592514 20.124567 75.5381 C 20.251535 75.32044 20.559883 75.32044 20.686852 75.5381 C 20.704988 75.592514 20.723127 75.73762 20.723127 77.00729 L 20.741266 78.40393 L 21.503069 78.09558 L 22.264874 77.78723 L 22.264874 76.31804 C 22.264874 74.93954 22.264874 74.84885 22.30115 74.7763 C 22.337425 74.70374 22.373703 74.667465 22.464394 74.63119 M 22.264874 81.070244 L 22.264874 79.60105 L 21.484932 79.9094 L 20.723127 80.21775 L 20.723127 81.705086 L 20.723127 83.17428 L 20.777542 83.156136 C 20.813818 83.138 21.158443 82.9929 21.557484 82.847786 L 22.264874 82.55758 L 22.264874 81.070244 Z" fill="#404040" stroke="none" stroke-width="0.75" />
<path d="M 25.0 82.024 C 25.0 83.112 26.0624 84.200005 27.112 84.200005 C 30.312 84.200005 33.512 82.024 33.512 79.912 C 33.512 78.862404 32.424 77.8 31.4 77.8 C 28.2 77.8 25.0 79.912 25.0 82.024 Z" fill="none" stroke="#404040" stroke-width="1.0" />
<path d="M 23.0 194.25 L 31.0 194.25 L 31.0 201.75 L 23.0 201.75 L 23.0 194.25 Z" fill="#ffffff" stroke="none" stroke-width="1.0" />
<text x='23.0' y='201.75' font-family="Default" font-size="10.0" fill="#404040" >8</text>
<path d="M 22.464394 66.63119 C 22.59136 66.55864 22.79088 66.61305 22.863434 66.7763 C 22.89971 66.84885 22.89971 66.90327 22.89971 68.172935 C 22.89971 68.9166 22.89971 69.51516 22.917847 69.51516 C 22.917847 69.51516 23.08109 69.44261 23.280611 69.370056 C 23.69779 69.20681 23.752205 69.188675 23.861032 69.279366 C 23.988 69.370056 23.988 69.38819 23.988 70.11372 C 23.988 70.73042 23.988 70.784836 23.951725 70.83925 C 23.933586 70.87553 23.897308 70.911804 23.879171 70.92994 C 23.842896 70.94808 23.625237 71.05691 23.371302 71.1476 L 22.917847 71.34712 L 22.89971 72.816315 C 22.89971 73.614395 22.89971 74.28551 22.917847 74.28551 C 22.917847 74.28551 23.08109 74.21295 23.280611 74.140396 C 23.69779 73.97716 23.752205 73.959015 23.861032 74.049706 C 23.988 74.140396 23.988 74.15854 23.988 74.88406 C 23.988 75.50076 23.988 75.555176 23.951725 75.60959 C 23.933586 75.64587 23.897308 75.682144 23.879171 75.70028 C 23.842896 75.71842 23.625237 75.82725 23.371302 75.91794 L 22.917847 76.11746 L 22.89971 77.64107 C 22.89971 79.01957 22.88157 79.182816 22.863434 79.23723 C 22.736465 79.45489 22.428116 79.45489 22.30115 79.23723 C 22.283012 79.182816 22.264874 79.037704 22.264874 77.768036 L 22.264874 76.3714 L 21.484932 76.67974 L 20.723127 76.98809 L 20.723127 78.45728 C 20.723127 80.01717 20.723127 79.980896 20.632437 80.07159 C 20.59616 80.126 20.469193 80.18041 20.414778 80.18041 C 20.342226 80.18041 20.215258 80.126 20.178982 80.07159 C 20.088291 79.980896 20.088291 80.01717 20.088291 78.602394 C 20.088291 77.85873 20.088291 77.26017 20.070152 77.26017 C 20.070152 77.26017 19.90691 77.33272 19.70739 77.40527 C 19.29021 77.56851 19.235796 77.586655 19.126966 77.495964 C 19.0 77.40527 19.0 77.38713 19.0 76.661606 C 19.0 76.04491 19.0 75.99049 19.036276 75.93608 C 19.054415 75.8998 19.09069 75.863525 19.10883 75.84539 C 19.145105 75.82725 19.362764 75.71842 19.6167 75.62773 L 20.088291 75.42821 L 20.088291 73.959015 C 20.088291 73.160934 20.088291 72.48982 20.070152 72.48982 C 20.070152 72.48982 19.90691 72.56238 19.70739 72.63493 C 19.29021 72.79817 19.235796 72.816315 19.126966 72.725624 C 19.0 72.63493 19.0 72.61679 19.0 71.891266 C 19.0 71.27457 19.0 71.22015 19.036276 71.16573 C 19.054415 71.12946 19.09069 71.093185 19.10883 71.07504 C 19.145105 71.05691 19.362764 70.94808 19.6167 70.85739 L 20.088291 70.65787 L 20.088291 69.13426 C 20.088291 67.75576 20.10643 67.592514 20.124567 67.5381 C 20.251535 67.32044 20.559883 67.32044 20.686852 67.5381 C 20.704988 67.592514 20.723127 67.73762 20.723127 69.00729 L 20.741266 70.40393 L 21.503069 70.09558 L 22.264874 69.78723 L 22.264874 68.31804 C 22.264874 66.93954 22.264874 66.84885 22.30115 66.7763 C 22.337425 66.70374 22.373703 66.667465 22.464394 66.63119 M 22.264874 73.070244 L 22.264874 71.60105 L 21.484932 71.9094 L 20.723127 72.21775 L 20.723127 73.705086 L 20.723127 75.17428 L 20.777542 75.156136 C 20.813818 75.138 21.158443 74.9929 21.557484 74.847786 L 22.264874 74.55758 L 22.264874 73.070244 Z" fill="#404040" stroke="none" stroke-width="0.75" />
<path d="M 25.0 74.024 C 25.0 75.112 26.0624 76.200005 27.112 76.200005 C 30.312 76.200005 33.512 74.024 33.512 71.912 C 33.512 70.862404 32.424 69.8 31.4 69.8 C 28.2 69.8 25.0 71.912 25.0 74.024 Z" fill="none" stroke="#404040" stroke-width="1.0" />
<path d="M 23.0 184.25 L 31.0 184.25 L 31.0 191.75 L 23.0 191.75 L 23.0 184.25 Z" fill="#ffffff" stroke="none" stroke-width="1.0" />
<text x='23.0' y='191.75' font-family="Default" font-size="10.0" fill="#404040" >7</text>
<path d="M 25.0 62.024 C 25.0 63.112 26.0624 64.2 27.112 64.2 C 30.312 64.2 33.512 62.024 33.512 59.912 C 33.512 58.8624 32.424 57.8 31.4 57.8 C 28.2 57.8 25.0 59.912 25.0 62.024 Z" fill="none" stroke="#404040" stroke-width="1.0" />
<path d="M 23.0 174.25 L 31.0 174.25 L 31.0 181.75 L 23.0 181.75 L 23.0 174.25 Z" fill="#ffffff" stroke="none" stroke-width="1.0" />
<text x='23.0' y='181.75' font-family="Default" font-size="10.0" fill="#404040" >7</text></g>
<text x='606.0' y='20.0' font-family="Default" font-size="10.0" fill="#000000" >Si M</text>
<text x='582.0' y='91.0' font-family="Default" font-size="10.0" fill="#ff0000" >8</text>
<path d="M 581.0 93.0 L 581.0 125.0 Z" fill="#000000" stroke="#000000" stroke-width="0.75" />
<path d="M 651.0 93.0 L 651.0 125.0 Z" fill="#000000" stroke="#000000" stroke-width="0.75" />
<path d="M 581.0 198.0 L 581.0 248.0 Z" fill="#000000" stroke="#000000" stroke-width="0.75" />
<path d="M 651.0 198.0 L 651.0 248.0 Z" fill="#000000" stroke="#000000" stroke-width="0.75" /><g transform="translate(651.0,20.0)">
<path d="M 0.0 0.0 L 70.0 0.0 L 70.0 249.0 L 0.0 249.0 L 0.0 0.0 Z" fill="#ffffff" stroke="none" stroke-width="1.0" />
<path d="M 0.0 73.0 L 70.0 73.0 M 0.0 81.0 L 70.0 81.0 M 0.0 89.0 L 70.0 89.0 M 0.0 97.0 L 70.0 97.0 M 0.0 105.0 L 70.0 105.0 Z" fill="none" stroke="#d6d6d6" stroke-width="0.75" />
<path d="M 0.0 178.0 L 70.0 178.0 M 0.0 188.0 L 70.0 188.0 M 0.0 198.0 L 70.0 198.0 M 0.0 208.0 L 70.0 208.0 M 0.0 218.0 L 70.0 218.0 M 0.0 228.0 L 70.0 228.0 Z" fill="none" stroke="#d6d6d6" stroke-width="0.75" />
<path d="M 21.0 65.0 L 37.0 65.0 Z" fill="none" stroke="#d6d6d6" stroke-width="0.75" />
<path d="M 21.0 57.0 L 37.0 57.0 Z" fill="none" stroke="#d6d6d6" stroke-width="0.75" />
<path d="M 21.0 113.0 L 37.0 113.0 Z" fill="none" stroke="#d6d6d6" stroke-width="0.75" />
<path d="M 25.0 114.024 C 25.0 115.112 26.0624 116.200005 27.112 116.200005 C 30.312 116.200005 33.512 114.024 33.512 111.912 C 33.512 110.862404 32.424 109.8 31.4 109.8 C 28.2 109.8 25.0 111.912 25.0 114.024 Z" fill="none" stroke="#404040" stroke-width="1.0" />
<path d="M 23.0 224.25 L 31.0 224.25 L 31.0 231.75 L 23.0 231.75 L 23.0 224.25 Z" fill="#ffffff" stroke="none" stroke-width="1.0" />
<text x='23.0' y='231.75' font-family="Default" font-size="10.0" fill="#404040" >8</text>
<path d="M 25.0 98.024 C 25.0 99.112 26.0624 100.200005 27.112 100.200005 C 30.312 100.200005 33.512 98.024 33.512 95.912 C 33.512 94.862404 32.424 93.8 31.4 93.8 C 28.2 93.8 25.0 95.912 25.0 98.024 Z" fill="none" stroke="#404040" stroke-width="1.0" />
<path d="M 19.5 214.25 L 34.5 214.25 L 34.5 221.75 L 19.5 221.75 L 19.5 214.25 Z" fill="#ffffff" stroke="none" stroke-width="1.0" />
<text x='19.5' y='221.75' font-family="Default" font-size="10.0" fill="#404040" >10</text>
<path d="M 25.0 86.024 C 25.0 87.112 26.0624 88.200005 27.112 88.200005 C 30.312 88.200005 33.512 86.024 33.512 83.912 C 33.512 82.862404 32.424 81.8 31.4 81.8 C 28.2 81.8 25.0 83.912 25.0 86.024 Z" fill="none" stroke="#404040" stroke-width="1.0" />
<path d="M 19.5 204.25 L 34.5 204.25 L 34.5 211.75 L 19.5 211.75 L 19.5 204.25 Z" fill="#ffffff" stroke="none" stroke-width="1.0" />
<text x='19.5' y='211.75' font-family="Default" font-size="10.0" fill="#404040" >10</text>
<path d="M 25.0 78.024 C 25.0 79.112 26.0624 80.200005 27.112 80.200005 C 30.312 80.200005 33.512 78.024 33.512 75.912 C 33.512 74.862404 32.424 73.8 31.4 73.8 C 28.2 73.8 25.0 75.912 25.0 78.024 Z" fill="none" stroke="#404040" stroke-width="1.0" />
<path d="M 23.0 194.25 L 31.0 194.25 L 31.0 201.75 L 23.0 201.75 L 23.0 194.25 Z" fill="#ffffff" stroke="none" stroke-width="1.0" />
<text x='23.0' y='201.75' font-family="Default" font-size="10.0" fill="#404040" >9</text>
<path d="M 25.0 70.024 C 25.0 71.112 26.0624 72.200005 27.112 72.200005 C 30.312 72.200005 33.512 70.024 33.512 67.912 C 33.512 66.862404 32.424 65.8 31.4 65.8 C 28.2 65.8 25.0 67.912 25.0 70.024 Z" fill="none" stroke="#404040" stroke-width="1.0" />
<path d="M 23.0 184.25 L 31.0 184.25 L 31.0 191.75 L 23.0 191.75 L 23.0 184.25 Z" fill="#ffffff" stroke="none" stroke-width="1.0" />
<text x='23.0' y='191.75' font-family="Default" font-size="10.0" fill="#404040" >8</text>
<path d="M 25.0 58.024 C 25.0 59.112 26.0624 60.2 27.112 60.2 C 30.312 60.2 33.512 58.024 33.512 55.912 C 33.512 54.8624 32.424 53.8 31.4 53.8 C 28.2 53.8 25.0 55.912 25.0 58.024 Z" fill="none" stroke="#404040" stroke-width="1.0" />
<path d="M 23.0 174.25 L 31.0 174.25 L 31.0 181.75 L 23.0 181.75 L 23.0 174.25 Z" fill="#ffffff" stroke="none" stroke-width="1.0" />
<text x='23.0' y='181.75' font-family="Default" font-size="10.0" fill="#404040" >8</text></g>
<text x='676.0' y='20.0' font-family="Default" font-size="10.0" fill="#000000" >Do M</text>
<text x='652.0' y='91.0' font-family="Default" font-size="10.0" fill="#ff0000" >9</text>
<path d="M 651.0 93.0 L 651.0 125.0 Z" fill="#000000" stroke="#000000" stroke-width="0.75" />
<path d="M 721.0 93.0 L 721.0 125.0 Z" fill="#000000" stroke="#000000" stroke-width="0.75" />
<path d="M 651.0 198.0 L 651.0 248.0 Z" fill="#000000" stroke="#000000" stroke-width="0.75" />
<path d="M 721.0 198.0 L 721.0 248.0 Z" fill="#000000" stroke="#000000" stroke-width="0.75" /><g transform="translate(721.0,20.0)">
<path d="M 0.0 0.0 L 70.0 0.0 L 70.0 249.0 L 0.0 249.0 L 0.0 0.0 Z" fill="#ffffff" stroke="none" stroke-width="1.0" />
<path d="M 0.0 73.0 L 70.0 73.0 M 0.0 81.0 L 70.0 81.0 M 0.0 89.0 L 70.0 89.0 M 0.0 97.0 L 70.0 97.0 M 0.0 105.0 L 70.0 105.0 Z" fill="none" stroke="#d6d6d6" stroke-width="0.75" />
<path d="M 0.0 178.0 L 70.0 178.0 M 0.0 188.0 L 70.0 188.0 M 0.0 198.0 L 70.0 198.0 M 0.0 208.0 L 70.0 208.0 M 0.0 218.0 L 70.0 218.0 M 0.0 228.0 L 70.0 228.0 Z" fill="none" stroke="#d6d6d6" stroke-width="0.75" />
<path d="M 25.041609 81.04161 L 25.104027 81.0 L 28.890621 81.0 L 32.69802 81.0 L 32.760433 81.04161 L 32.802048 81.10403 L 32.802048 82.622826 L 32.802048 84.141624 L 32.760433 84.20404 L 32.69802 84.24565 L 28.890621 84.24565 L 25.104027 84.24565 L 25.041609 84.20404 L 25.0 84.141624 L 25.0 82.622826 L 25.0 81.10403 L 25.041609 81.04161 Z" fill="#404040" stroke="none" stroke-width="0.75" /></g>
<text x='722.0' y='91.0' font-family="Default" font-size="10.0" fill="#ff0000" >10</text>
<path d="M 721.0 93.0 L 721.0 125.0 Z" fill="#000000" stroke="#000000" stroke-width="0.75" />
<path d="M 785.0 93.0 L 786.0 93.0 L 786.0 125.0 L 785.0 125.0 L 785.0 93.0 Z" fill="#000000" stroke="#000000" stroke-width="0.75" />
<path d="M 788.0 93.0 L 791.0 93.0 L 791.0 125.0 L 788.0 125.0 L 788.0 93.0 Z" fill="#000000" stroke="#000000" stroke-width="0.75" />
<path d="M 721.0 198.0 L 721.0 248.0 Z" fill="#000000" stroke="#000000" stroke-width="0.75" />
<path d="M 785.0 198.0 L 786.0 198.0 L 786.0 248.0 L 785.0 248.0 L 785.0 198.0 Z" fill="#000000" stroke="#000000" stroke-width="0.75" />
<path d="M 788.0 198.0 L 791.0 198.0 L 791.0 248.0 L 788.0 248.0 L 788.0 198.0 Z" fill="#000000" stroke="#000000" stroke-width="0.75" />
<path d="M 793.0 93.0 L 930.0 93.0 M 793.0 101.0 L 930.0 101.0 M 793.0 109.0 L 930.0 109.0 M 793.0 117.0 L 930.0 117.0 M 793.0 125.0 L 930.0 125.0 Z" fill="none" stroke="#d6d6d6" stroke-width="0.75" />
<path d="M 793.0 198.0 L 930.0 198.0 M 793.0 208.0 L 930.0 208.0 M 793.0 218.0 L 930.0 218.0 M 793.0 228.0 L 930.0 228.0 M 793.0 238.0 L 930.0 238.0 M 793.0 248.0 L 930.0 248.0 Z" fill="none" stroke="#d6d6d6" stroke-width="0.75" />
</svg>