<svg width="960.0px" height="253.0px" xmlns="http://www.w3.org/2000/svg" version="1.1">

<path d="M 0.0 0.0 L 960.0 0.0 L 960.0 253.0 L 0.0 253.0 L 0.0 0.0 Z" fill="#ffffff" stroke="none" stroke-width="1.0" /><g transform="translate(20.0,20.0)">
<path d="M 0.0 0.0 L 141.0 0.0 L 141.0 222.0 L 0.0 222.0 L 0.0 0.0 Z" fill="#ffffff" stroke="none" stroke-width="1.0" />
<path d="M 0.0 79.0 L 141.0 79.0 M 0.0 87.0 L 141.0 87.0 M 0.0 95.0 L 141.0 95.0 M 0.0 103.0 L 141.0 103.0 M 0.0 111.0 L 141.0 111.0 Z" fill="none" stroke="#d6d6d6" stroke-width="0.75" />
<path d="M 0.0 151.0 L 141.0 151.0 M 0.0 161.0 L 141.0 161.0 M 0.0 171.0 L 141.0 171.0 M 0.0 181.0 L 141.0 181.0 M 0.0 191.0 L 141.0 191.0 M 0.0 201.0 L 141.0 201.0 Z" fill="none" stroke="#d6d6d6" stroke-width="0.75" />
<path d="M 67.77043 79.40856 C 68.324905 79.40856 68.821014 79.3502 69.25876 79.20428 C 69.6965 79.058365 69.959145 79.0 70.04669 79.0 C 70.192604 79.0 70.28015 79.02918 70.36771 79.11673 C 70.42607 79.175095 70.45525 79.23346 70.484436 79.321014 C 70.484436 79.37938 70.45525 79.437744 70.42607 79.49611 L 61.933853 89.359924 L 66.924126 89.359924 L 66.924126 85.44942 C 66.924126 85.18677 67.01167 84.95331 67.1284 84.807396 C 67.3035 84.661476 67.4786 84.515564 67.71206 84.4572 C 67.97471 84.34047 68.26653 84.07782 68.64591 83.640076 C 68.937744 83.31907 69.317116 82.70622 69.75486 81.80156 C 69.81323 81.68482 69.90078 81.62646 70.01751 81.62646 C 70.28015 81.62646 70.39688 81.77237 70.42607 82.03502 L 70.42607 89.359924 L 72.55642 89.359924 C 72.84825 89.359924 72.99416 89.50584 73.023346 89.79767 C 73.023346 90.08949 72.877426 90.235405 72.55642 90.235405 L 70.42607 90.235405 L 70.42607 90.46887 C 70.42607 91.28599 70.63035 91.92802 71.00973 92.45331 C 71.44747 92.9786 71.97276 93.270424 72.5856 93.270424 C 72.81906 93.270424 72.9358 93.38716 72.9358 93.62062 C 72.9358 93.85408 72.81906 93.97082 72.5856 93.97082 C 72.14786 93.97082 71.50584 93.91245 70.601166 93.795715 C 69.696495 93.6498 69.054474 93.59144 68.64591 93.59144 C 68.23735 93.59144 67.56615 93.6498 66.69066 93.795715 C 65.81517 93.91245 65.17315 93.97082 64.735405 93.97082 C 64.501945 93.97082 64.385216 93.85408 64.385216 93.62062 C 64.385216 93.38716 64.501945 93.270424 64.735405 93.270424 C 65.34825 93.270424 65.87354 92.9786 66.31128 92.45331 C 66.71984 91.898834 66.924126 91.256805 66.924126 90.46887 L 66.924126 90.235405 L 61.933853 90.235405 C 61.61284 90.235405 61.379375 90.17704 61.233463 90.001945 C 61.087547 89.88521 61.0 89.71011 61.0 89.53502 C 61.0 89.476654 61.145912 89.27237 61.437744 88.92218 C 61.729572 88.57198 62.079765 88.10506 62.488327 87.49222 C 62.488327 87.49222 63.305447 86.20817 63.71401 85.44942 C 63.71401 85.44942 64.47276 83.78599 64.735405 82.70622 C 65.02724 81.65564 65.17315 80.575874 65.17315 79.49611 C 65.17315 79.175095 65.31907 79.02918 65.58171 79.02918 C 65.61089 79.02918 65.756805 79.058365 65.96109 79.11673 C 66.16537 79.175095 66.4572 79.23346 66.77821 79.321014 C 67.1284 79.37938 67.44942 79.40856 67.77043 79.40856 Z" fill="#000000" stroke="none" stroke-width="0.75" />
<path d="M 67.77043 96.40856 C 68.324905 96.40856 68.821014 96.3502 69.25876 96.20428 C 69.6965 96.058365 69.959145 96.0 70.04669 96.0 C 70.192604 96.0 70.28015 96.02918 70.36771 96.11673 C 70.42607 96.175095 70.45525 96.23346 70.484436 96.321014 C 70.484436 96.37938 70.45525 96.437744 70.42607 96.49611 L 61.933853 106.359924 L 66.924126 106.359924 L 66.924126 102.44942 C 66.924126 102.18677 67.01167 101.95331 67.1284 101.807396 C 67.3035 101.661476 67.4786 101.515564 67.71206 101.4572 C 67.97471 101.34047 68.26653 101.07782 68.64591 100.640076 C 68.937744 100.31907 69.317116 99.70622 69.75486 98.80156 C 69.81323 98.68482 69.90078 98.62646 70.01751 98.62646 C 70.28015 98.62646 70.39688 98.77237 70.42607 99.03502 L 70.42607 106.359924 L 72.55642 106.359924 C 72.84825 106.359924 72.99416 106.50584 73.023346 106.79767 C 73.023346 107.08949 72.877426 107.235405 72.55642 107.235405 L 70.42607 107.235405 L 70.42607 107.46887 C 70.42607 108.28599 70.63035 108.92802 71.00973 109.45331 C 71.44747 109.9786 71.97276 110.270424 72.5856 110.270424 C 72.81906 110.270424 72.9358 110.38716 72.9358 110.62062 C 72.9358 110.85408 72.81906 110.97082 72.5856 110.97082 C 72.14786 110.97082 71.50584 110.91245 70.601166 110.795715 C 69.696495 110.6498 69.054474 110.59144 68.64591 110.59144 C 68.23735 110.59144 67.56615 110.6498 66.69066 110.795715 C 65.81517 110.91245 65.17315 110.97082 64.735405 110.97082 C 64.501945 110.97082 64.385216 110.85408 64.385216 110.62062 C 64.385216 110.38716 64.501945 110.270424 64.735405 110.270424 C 65.34825 110.270424 65.87354 109.9786 66.31128 109.45331 C 66.71984 108.898834 66.924126 108.256805 66.924126 107.46887 L 66.924126 107.235405 L 61.933853 107.235405 C 61.61284 107.235405 61.379375 107.17704 61.233463 107.001945 C 61.087547 106.88521 61.0 106.71011 61.0 106.53502 C 61.0 106.476654 61.145912 106.27237 61.437744 105.92218 C 61.729572 105.57198 62.079765 105.10506 62.488327 104.49222 C 62.488327 104.49222 63.305447 103.20817 63.71401 102.44942 C 63.71401 102.44942 64.47276 100.78599 64.735405 99.70622 C 65.02724 98.65564 65.17315 97.575874 65.17315 96.49611 C 65.17315 96.175095 65.31907 96.02918 65.58171 96.02918 C 65.61089 96.02918 65.756805 96.058365 65.96109 96.11673 C 66.16537 96.175095 66.4572 96.23346 66.77821 96.321014 C 67.1284 96.37938 67.44942 96.40856 67.77043 96.40856 Z" fill="#000000" stroke="none" stroke-width="0.75" />
<path d="M 22.764973 71.11539 C 22.921913 71.03691 22.948072 71.03691 23.105015 71.03691 C 23.314268 71.06307 23.445057 71.14154 23.73278 71.45542 C 25.616081 73.391045 27.185501 76.84376 27.577856 79.77334 C 27.630169 80.24416 27.630169 81.34276 27.577856 81.83974 C 27.29013 84.533905 26.165377 86.99266 23.57584 90.52385 L 23.209644 91.02083 L 23.418898 91.62244 C 23.915882 93.06107 24.491331 94.81359 24.85753 96.09528 C 24.96216 96.409164 25.04063 96.67074 25.04063 96.6969 C 25.04063 96.6969 25.223728 96.6969 25.406826 96.72305 C 26.322319 96.80152 27.10703 97.01078 27.917896 97.40313 C 28.57182 97.74317 29.147274 98.13552 29.696568 98.65866 C 30.29818 99.26028 30.690535 99.80957 31.05673 100.56812 C 31.606026 101.66672 31.84144 102.81762 31.81528 103.96853 C 31.789125 104.70093 31.684496 105.25022 31.449085 105.930305 C 31.1352 106.92426 30.559748 107.83976 29.77504 108.624466 C 29.094955 109.30455 28.46719 109.72306 27.630169 110.0631 L 27.316284 110.193886 L 27.316284 111.13554 C 27.316284 112.46954 27.237814 114.038956 27.133184 114.980606 C 27.02856 115.94841 26.766989 116.86391 26.348476 117.700935 C 25.249886 119.92427 23.314268 121.10133 21.143244 120.89209 C 18.684484 120.65667 16.69656 118.98262 16.199577 116.73312 C 15.964161 115.713 16.068794 114.9283 16.487303 114.27437 C 17.036598 113.411194 18.082878 112.914215 19.102997 112.94037 C 20.30622 112.99268 21.274027 113.934326 21.457123 115.24218 C 21.58791 116.28845 21.143244 117.25626 20.30622 117.7794 C 19.835394 118.06713 19.181469 118.197914 18.684484 118.119446 C 18.606018 118.119446 18.527544 118.093285 18.527544 118.119446 L 18.84143 118.43333 C 19.416882 119.00878 20.070807 119.374985 20.907831 119.558075 C 21.090927 119.584236 21.247868 119.584236 21.666382 119.584236 C 22.137207 119.584236 22.189518 119.584236 22.451088 119.53192 C 22.81729 119.42729 23.131172 119.29651 23.418898 119.139565 C 24.726748 118.35486 25.616081 116.73312 25.851494 114.77136 C 25.929964 114.038956 26.008434 112.46954 26.008434 111.318634 C 26.008434 110.56009 26.008434 110.50777 25.956123 110.50777 C 25.851494 110.56009 25.302197 110.6124 24.909843 110.63855 C 24.41286 110.66471 23.57584 110.66471 23.183485 110.6124 C 21.640223 110.4293 20.227747 109.90616 18.998373 109.04298 C 17.167385 107.76129 15.859535 105.85182 15.31024 103.65465 C 14.604002 100.908165 15.100986 97.978584 16.827343 94.89206 C 17.55974 93.610374 18.265978 92.564095 20.018494 90.23612 L 21.012455 88.90212 L 20.829355 88.405136 C 19.573822 85.083206 19.15531 83.173744 19.024527 80.40111 C 18.972214 79.19789 19.024527 78.177765 19.181469 77.340744 C 19.573822 75.143555 20.593945 73.181786 22.189518 71.612366 C 22.503403 71.298485 22.63419 71.193855 22.764973 71.11539 M 24.831371 75.58823 C 24.569805 75.143555 24.622118 75.16971 24.386707 75.32666 C 23.65431 75.771324 22.89576 76.4514 22.34646 77.131485 C 21.221714 78.57012 20.593945 80.24416 20.515476 82.048996 C 20.489319 82.78139 20.56779 83.25221 20.907831 84.37696 C 21.169397 85.29246 21.901793 87.5158 21.95411 87.568115 C 21.95411 87.59427 22.111048 87.41118 22.26799 87.17576 C 24.072823 84.58622 25.04063 82.46751 25.406826 80.34879 C 25.485298 79.7995 25.53761 79.35483 25.563768 78.727066 C 25.589928 77.28843 25.432985 76.58219 24.831371 75.58823 M 22.581877 93.191864 C 22.424934 92.69488 22.26799 92.30252 22.26799 92.30252 C 22.241835 92.30252 21.143244 93.76731 20.672415 94.421234 C 19.129156 96.59227 18.187506 98.34478 17.638206 100.07114 C 17.27201 101.14357 17.115068 102.13754 17.062756 103.23613 C 17.062756 103.837746 17.088915 104.20394 17.193539 104.648605 C 17.795153 106.97658 20.280064 108.88603 23.209644 109.30455 C 23.65431 109.35686 24.909843 109.35686 25.459139 109.30455 C 26.008434 109.226074 25.956123 109.252235 25.929964 109.01682 C 25.773026 106.531906 25.563768 105.0148 25.14526 102.765305 C 24.988314 101.823654 24.543648 99.835724 24.517488 99.80957 C 24.491331 99.78342 23.99435 99.835724 23.706627 99.9142 C 23.340427 99.99267 23.105015 100.07114 22.79113 100.22808 C 21.090927 101.09126 20.593945 103.05304 21.666382 104.648605 C 21.849482 104.91018 22.320305 105.381004 22.608032 105.5641 C 22.71266 105.64258 22.948072 105.799515 23.105015 105.87799 C 23.340427 106.00877 23.392738 106.06108 23.445057 106.16571 C 23.65431 106.50575 23.523525 106.92426 23.131172 107.10736 C 22.921913 107.21199 22.764973 107.18584 22.34646 106.97658 C 21.326344 106.4796 20.56779 105.799515 20.018494 104.962494 C 18.998373 103.393074 18.867586 101.37899 19.70461 99.67879 C 20.437006 98.214 21.744852 97.22003 23.418898 96.853836 C 23.57584 96.80152 23.706627 96.77537 23.706627 96.77537 C 23.73278 96.74921 23.000385 94.36893 22.581877 93.191864 M 26.139221 99.94036 C 26.060753 99.94036 25.98228 99.9142 25.956123 99.9142 L 25.877651 99.88804 L 26.008434 100.43734 C 26.610046 103.07919 27.054714 105.95645 27.211655 108.38905 C 27.237814 108.65063 27.237814 108.85988 27.237814 108.85988 C 27.263973 108.85988 27.60401 108.70294 27.78711 108.57216 C 28.231777 108.31058 28.65029 107.91823 28.99033 107.47356 C 29.801197 106.40112 30.08892 105.06712 29.77504 103.706955 C 29.539627 102.60837 28.911861 101.58824 28.022522 100.882 C 27.473227 100.46349 26.740831 100.0973 26.139221 99.94036 Z" fill="#000000" stroke="none" stroke-width="0.75" />
<path d="M 92.0 119.0 L 108.0 119.0 Z" fill="none" stroke="#d6d6d6" stroke-width="0.75" />
<path d="M 92.0 127.0 L 108.0 127.0 Z" fill="none" stroke="#d6d6d6" stroke-width="0.75" />
<path d="M 93.46439 84.63119 C 93.59136 84.55864 93.79088 84.61305 93.863434 84.7763 C 93.89971 84.84885 93.89971 84.90327 93.89971 86.172935 C 93.89971 86.9166 93.89971 87.51516 93.91785 87.51516 C 93.91785 87.51516 94.08109 87.44261 94.28061 87.370056 C 94.69779 87.20681 94.752205 87.188675 94.86103 87.279366 C 94.988 87.370056 94.988 87.38819 94.988 88.11372 C 94.988 88.73042 94.988 88.784836 94.95172 88.83925 C 94.933586 88.87553 94.89731 88.911804 94.87917 88.92994 C 94.842896 88.94808 94.62524 89.05691 94.3713 89.1476 L 93.91785 89.34712 L 93.89971 90.816315 C 93.89971 91.614395 93.89971 92.28551 93.91785 92.28551 C 93.91785 92.28551 94.08109 92.21295 94.28061 92.140396 C 94.69779 91.97716 94.752205 91.959015 94.86103 92.049706 C 94.988 92.140396 94.988 92.15854 94.988 92.88406 C 94.988 93.50076 94.988 93.555176 94.95172 93.60959 C 94.933586 93.64587 94.89731 93.682144 94.87917 93.70028 C 94.842896 93.71842 94.62524 93.82725 94.3713 93.91794 L 93.91785 94.11746 L 93.89971 95.64107 C 93.89971 97.01957 93.88157 97.182816 93.863434 97.23723 C 93.736465 97.45489 93.428116 97.45489 93.30115 97.23723 C 93.28301 97.182816 93.26487 97.037704 93.26487 95.768036 L 93.26487 94.3714 L 92.48493 94.67974 L 91.72313 94.98809 L 91.72313 96.45728 C 91.72313 98.01717 91.72313 97.980896 91.63244 98.07159 C 91.59616 98.126 91.46919 98.18041 91.41478 98.18041 C 91.342224 98.18041 91.215256 98.126 91.178986 98.07159 C 91.08829 97.980896 91.08829 98.01717 91.08829 96.602394 C 91.08829 95.85873 91.08829 95.26017 91.07015 95.26017 C 91.07015 95.26017 90.906906 95.33272 90.70739 95.40527 C 90.290215 95.56851 90.235794 95.586655 90.12697 95.495964 C 90.0 95.40527 90.0 95.38713 90.0 94.661606 C 90.0 94.04491 90.0 93.99049 90.03628 93.93608 C 90.05441 93.8998 90.09069 93.863525 90.108826 93.84539 C 90.1451 93.82725 90.36276 93.71842 90.6167 93.62773 L 91.08829 93.42821 L 91.08829 91.959015 C 91.08829 91.160934 91.08829 90.48982 91.07015 90.48982 C 91.07015 90.48982 90.906906 90.56238 90.70739 90.63493 C 90.290215 90.79817 90.235794 90.816315 90.12697 90.725624 C 90.0 90.63493 90.0 90.61679 90.0 89.891266 C 90.0 89.27457 90.0 89.22015 90.03628 89.16573 C 90.05441 89.12946 90.09069 89.093185 90.108826 89.07504 C 90.1451 89.05691 90.36276 88.94808 90.6167 88.85739 L 91.08829 88.65787 L 91.08829 87.13426 C 91.08829 85.75576 91.10643 85.592514 91.124565 85.5381 C 91.25153 85.32044 91.55988 85.32044 91.68685 85.5381 C 91.70499 85.592514 91.72313 85.73762 91.72313 87.00729 L 91.741264 88.40393 L 92.50307 88.09558 L 93.26487 87.78723 L 93.26487 86.31804 C 93.26487 84.93954 93.26487 84.84885 93.30115 84.7763 C 93.337425 84.70374 93.3737 84.667465 93.46439 84.63119 M 93.26487 91.070244 L 93.26487 89.60105 L 92.48493 89.9094 L 91.72313 90.21775 L 91.72313 91.705086 L 91.72313 93.17428 L 91.77754 93.156136 C 91.81382 93.138 92.15845 92.9929 92.55749 92.847786 L 93.26487 92.55758 L 93.26487 91.070244 Z" fill="#404040" stroke="none" stroke-width="0.75" />
<path d="M 96.0 92.024 C 96.0 93.112 97.0624 94.200005 98.112 94.200005 C 101.312 94.200005 104.512 92.024 104.512 89.912 C 104.512 88.862404 103.423996 87.8 102.4 87.8 C 99.2 87.8 96.0 89.912 96.0 92.024 Z" fill="none" stroke="#404040" stroke-width="1.0" />
<path d="M 94.0 157.25 L 102.0 157.25 L 102.0 164.75 L 94.0 164.75 L 94.0 157.25 Z" fill="#ffffff" stroke="none" stroke-width="1.0" />
<text x='94.0' y='164.75' font-family="Default" font-size="10.0" fill="#404040" >2</text>
<path d="M 96.0 100.024 C 96.0 101.112 97.0624 102.200005 98.112 102.200005 C 101.312 102.200005 104.512 100.024 104.512 97.912 C 104.512 96.862404 103.423996 95.8 102.4 95.8 C 99.2 95.8 96.0 97.912 96.0 100.024 Z" fill="none" stroke="#404040" stroke-width="1.0" />
<path d="M 94.0 167.25 L 102.0 167.25 L 102.0 174.75 L 94.0 174.75 L 94.0 167.25 Z" fill="#ffffff" stroke="none" stroke-width="1.0" />
<text x='94.0' y='174.75' font-family="Default" font-size="10.0" fill="#404040" >2</text>
<path d="M 96.0 112.024 C 96.0 113.112 97.0624 114.200005 98.112 114.200005 C 101.312 114.200005 104.512 112.024 104.512 109.912 C 104.512 108.862404 103.423996 107.8 102.4 107.8 C 99.2 107.8 96.0 109.912 96.0 112.024 Z" fill="none" stroke="#404040" stroke-width="1.0" />
<path d="M 94.0 177.25 L 102.0 177.25 L 102.0 184.75 L 94.0 184.75 L 94.0 177.25 Z" fill="#ffffff" stroke="none" stroke-width="1.0" />
<text x='94.0' y='184.75' font-family="Default" font-size="10.0" fill="#404040" >2</text>
<path d="M 96.0 128.024 C 96.0 129.112 97.0624 130.2 98.112 130.2 C 101.312 130.2 104.512 128.024 104.512 125.912 C 104.512 124.862404 103.423996 123.8 102.4 123.8 C 99.2 123.8 96.0 125.912 96.0 128.024 Z" fill="none" stroke="#404040" stroke-width="1.0" />
<path d="M 94.0 187.25 L 102.0 187.25 L 102.0 194.75 L 94.0 194.75 L 94.0 187.25 Z" fill="#ffffff" stroke="none" stroke-width="1.0" />
<text x='94.0' y='194.75' font-family="Default" font-size="10.0" fill="#404040" >0</text><g transform="translate(74.5,0.0)">
<path d="M 0.0 0.0 L 43.0 0.0 L 43.0 42.0 L 0.0 42.0 L 0.0 0.0 Z" fill="#ffffff" stroke="none" stroke-width="0.75" />
<text x='2.0' y='12.0' font-family="Default" font-size="8.0" fill="#d6d6d6" >1</text>
<path d="M 13.0 6.0 L 13.0 36.0 M 18.0 6.0 L 18.0 36.0 M 23.0 6.0 L 23.0 36.0 M 28.0 6.0 L 28.0 36.0 M 33.0 6.0 L 33.0 36.0 M 38.0 6.0 L 38.0 36.0 Z" fill="none" stroke="#d6d6d6" stroke-width="0.75" />
<path d="M 13.0 6.0 L 38.0 6.0 M 13.0 12.0 L 38.0 12.0 M 13.0 18.0 L 38.0 18.0 M 13.0 24.0 L 38.0 24.0 M 13.0 30.0 L 38.0 30.0 M 13.0 36.0 L 38.0 36.0 Z" fill="none" stroke="#d6d6d6" stroke-width="0.75" />
<path d="M 36.0 0.0 L 40.0 4.0 M 40.0 0.0 L 36.0 4.0 Z" fill="none" stroke="#d6d6d6" stroke-width="0.75" />
<path d="M 30.5 15.0 a 2.5 2.5 0 1 0 5.0 0 2.5 2.5 0 1 0 -5.0 0 Z" fill="#404040" stroke="none" stroke-width="0.75" />
<path d="M 25.5 15.0 a 2.5 2.5 0 1 0 5.0 0 2.5 2.5 0 1 0 -5.0 0 Z" fill="#404040" stroke="none" stroke-width="0.75" />
<path d="M 20.5 15.0 a 2.5 2.5 0 1 0 5.0 0 2.5 2.5 0 1 0 -5.0 0 Z" fill="#404040" stroke="none" stroke-width="0.75" />
<path d="M 16.0 2.0 a 2.0 2.0 0 1 0 4.0 0 2.0 2.0 0 1 0 -4.0 0 Z" fill="none" stroke="#d6d6d6" stroke-width="0.75" />
<path d="M 11.0 0.0 L 15.0 4.0 M 15.0 0.0 L 11.0 4.0 Z" fill="none" stroke="#d6d6d6" stroke-width="0.75" /></g>
<text x='96.0' y='49.5' font-family="Default" font-size="10.0" fill="#000000" >A</text></g>
<path d="M 35.35 85.3 C 35.35 86.15 36.18 87.0 37.0 87.0 C 39.5 87.0 42.0 85.3 42.0 83.65 C 42.0 82.83 41.149998 82.0 40.35 82.0 C 37.85 82.0 35.35 83.65 35.35 85.3 Z" fill="#000000" stroke="none" stroke-width="1.0" />
<path d="M 42.0 69.0 L 42.0 83.7 Z" fill="none" stroke="#000000" stroke-width="1.0" />
<text x='43.0' y='85.25' font-family="Default" font-size="10.0" fill="#000000" > = 120</text>
<text x='21.0' y='97.0' font-family="Default" font-size="10.0" fill="#ff0000" >1</text>
<path d="M 20.0 99.0 L 23.0 99.0 L 23.0 171.0 L 20.0 171.0 L 20.0 99.0 Z" fill="#000000" stroke="#000000" stroke-width="0.75" />
<path d="M 25.0 99.0 L 26.0 99.0 L 26.0 171.0 L 25.0 171.0 L 25.0 99.0 Z" fill="#000000" stroke="#000000" stroke-width="0.75" />
<path d="M 155.0 99.0 L 156.0 99.0 L 156.0 131.0 L 155.0 131.0 L 155.0 99.0 Z" fill="#000000" stroke="#000000" stroke-width="0.75" />
<path d="M 158.0 99.0 L 161.0 99.0 L 161.0 131.0 L 158.0 131.0 L 158.0 99.0 Z" fill="#000000" stroke="#000000" stroke-width="0.75" />
<path d="M 20.0 171.0 L 23.0 171.0 L 23.0 221.0 L 20.0 221.0 L 20.0 171.0 Z" fill="#000000" stroke="#000000" stroke-width="0.75" />
<path d="M 25.0 171.0 L 26.0 171.0 L 26.0 221.0 L 25.0 221.0 L 25.0 171.0 Z" fill="#000000" stroke="#000000" stroke-width="0.75" />
<path d="M 155.0 171.0 L 156.0 171.0 L 156.0 221.0 L 155.0 221.0 L 155.0 171.0 Z" fill="#000000" stroke="#000000" stroke-width="0.75" />
<path d="M 158.0 171.0 L 161.0 171.0 L 161.0 221.0 L 158.0 221.0 L 158.0 171.0 Z" fill="#000000" stroke="#000000" stroke-width="0.75" />
<path d="M 163.0 99.0 L 930.0 99.0 M 163.0 107.0 L 930.0 107.0 M 163.0 115.0 L 930.0 115.0 M 163.0 123.0 L 930.0 123.0 M 163.0 131.0 L 930.0 131.0 Z" fill="none" stroke="#d6d6d6" stroke-width="0.75" />
<path d="M 163.0 171.0 L 930.0 171.0 M 163.0 181.0 L 930.0 181.0 M 163.0 191.0 L 930.0 191.0 M 163.0 201.0 L 930.0 201.0 M 163.0 211.0 L 930.0 211.0 M 163.0 221.0 L 930.0 221.0 Z" fill="none" stroke="#d6d6d6" stroke-width="0.75" />
</svg>