<svg width="960.0px" height="273.0px" xmlns="http://www.w3.org/2000/svg" version="1.1">

<path d="M 0.0 0.0 L 960.0 0.0 L 960.0 273.0 L 0.0 273.0 L 0.0 0.0 Z" fill="#ffffff" stroke="none" stroke-width="1.0" /><g transform="translate(20.0,20.0)">
<path d="M 0.0 0.0 L 141.0 0.0 L 141.0 242.0 L 0.0 242.0 L 0.0 0.0 Z" fill="#ffffff" stroke="none" stroke-width="1.0" />
<path d="M 0.0 87.0 L 141.0 87.0 M 0.0 95.0 L 141.0 95.0 M 0.0 103.0 L 141.0 103.0 M 0.0 111.0 L 141.0 111.0 M 0.0 119.0 L 141.0 119.0 Z" fill="none" stroke="#d6d6d6" stroke-width="0.75" />
<path d="M 0.0 171.0 L 141.0 171.0 M 0.0 181.0 L 141.0 181.0 M 0.0 191.0 L 141.0 191.0 M 0.0 201.0 L 141.0 201.0 M 0.0 211.0 L 141.0 211.0 M 0.0 221.0 L 141.0 221.0 Z" fill="none" stroke="#d6d6d6" stroke-width="0.75" />
<path d="M 67.77043 87.40856 C 68.324905 87.40856 68.821014 87.3502 69.25876 87.20428 C 69.6965 87.058365 69.959145 87.0 70.04669 87.0 C 70.192604 87.0 70.28015 87.02918 70.36771 87.11673 C 70.42607 87.175095 70.45525 87.23346 70.484436 87.321014 C 70.484436 87.37938 70.45525 87.437744 70.42607 87.49611 L 61.933853 97.359924 L 66.924126 97.359924 L 66.924126 93.44942 C 66.924126 93.18677 67.01167 92.95331 67.1284 92.807396 C 67.3035 92.661476 67.4786 92.515564 67.71206 92.4572 C 67.97471 92.34047 68.26653 92.07782 68.64591 91.640076 C 68.937744 91.31907 69.317116 90.70622 69.75486 89.80156 C 69.81323 89.68482 69.90078 89.62646 70.01751 89.62646 C 70.28015 89.62646 70.39688 89.77237 70.42607 90.03502 L 70.42607 97.359924 L 72.55642 97.359924 C 72.84825 97.359924 72.99416 97.50584 73.023346 97.79767 C 73.023346 98.08949 72.877426 98.235405 72.55642 98.235405 L 70.42607 98.235405 L 70.42607 98.46887 C 70.42607 99.28599 70.63035 99.92802 71.00973 100.45331 C 71.44747 100.9786 71.97276 101.270424 72.5856 101.270424 C 72.81906 101.270424 72.9358 101.38716 72.9358 101.62062 C 72.9358 101.85408 72.81906 101.97082 72.5856 101.97082 C 72.14786 101.97082 71.50584 101.91245 70.601166 101.795715 C 69.696495 101.6498 69.054474 101.59144 68.64591 101.59144 C 68.23735 101.59144 67.56615 101.6498 66.69066 101.795715 C 65.81517 101.91245 65.17315 101.97082 64.735405 101.97082 C 64.501945 101.97082 64.385216 101.85408 64.385216 101.62062 C 64.385216 101.38716 64.501945 101.270424 64.735405 101.270424 C 65.34825 101.270424 65.87354 100.9786 66.31128 100.45331 C 66.71984 99.898834 66.924126 99.256805 66.924126 98.46887 L 66.924126 98.235405 L 61.933853 98.235405 C 61.61284 98.235405 61.379375 98.17704 61.233463 98.001945 C 61.087547 97.88521 61.0 97.71011 61.0 97.53502 C 61.0 97.476654 61.145912 97.27237 61.437744 96.92218 C 61.729572 96.57198 62.079765 96.10506 62.488327 95.49222 C 62.488327 95.49222 63.305447 94.20817 63.71401 93.44942 C 63.71401 93.44942 64.47276 91.78599 64.735405 90.70622 C 65.02724 89.65564 65.17315 88.575874 65.17315 87.49611 C 65.17315 87.175095 65.31907 87.02918 65.58171 87.02918 C 65.61089 87.02918 65.756805 87.058365 65.96109 87.11673 C 66.16537 87.175095 66.4572 87.23346 66.77821 87.321014 C 67.1284 87.37938 67.44942 87.40856 67.77043 87.40856 Z" fill="#000000" stroke="none" stroke-width="0.75" />
<path d="M 67.77043 104.40856 C 68.324905 104.40856 68.821014 104.3502 69.25876 104.20428 C 69.6965 104.058365 69.959145 104.0 70.04669 104.0 C 70.192604 104.0 70.28015 104.02918 70.36771 104.11673 C 70.42607 104.175095 70.45525 104.23346 70.484436 104.321014 C 70.484436 104.37938 70.45525 104.437744 70.42607 104.49611 L 61.933853 114.359924 L 66.924126 114.359924 L 66.924126 110.44942 C 66.924126 110.18677 67.01167 109.95331 67.1284 109.807396 C 67.3035 109.661476 67.4786 109.515564 67.71206 109.4572 C 67.97471 109.34047 68.26653 109.07782 68.64591 108.640076 C 68.937744 108.31907 69.317116 107.70622 69.75486 106.80156 C 69.81323 106.68482 69.90078 106.62646 70.01751 106.62646 C 70.28015 106.62646 70.39688 106.77237 70.42607 107.03502 L 70.42607 114.359924 L 72.55642 114.359924 C 72.84825 114.359924 72.99416 114.50584 73.023346 114.79767 C 73.023346 115.08949 72.877426 115.235405 72.55642 115.235405 L 70.42607 115.235405 L 70.42607 115.46887 C 70.42607 116.28599 70.63035 116.92802 71.00973 117.45331 C 71.44747 117.9786 71.97276 118.270424 72.5856 118.270424 C 72.81906 118.270424 72.9358 118.38716 72.9358 118.62062 C 72.9358 118.85408 72.81906 118.97082 72.5856 118.97082 C 72.14786 118.97082 71.50584 118.91245 70.601166 118.795715 C 69.696495 118.6498 69.054474 118.59144 68.64591 118.59144 C 68.23735 118.59144 67.56615 118.6498 66.69066 118.795715 C 65.81517 118.91245 65.17315 118.97082 64.735405 118.97082 C 64.501945 118.97082 64.385216 118.85408 64.385216 118.62062 C 64.385216 118.38716 64.501945 118.270424 64.735405 118.270424 C 65.34825 118.270424 65.87354 117.9786 66.31128 117.45331 C 66.71984 116.898834 66.924126 116.256805 66.924126 115.46887 L 66.924126 115.235405 L 61.933853 115.235405 C 61.61284 115.235405 61.379375 115.17704 61.233463 115.001945 C 61.087547 114.88521 61.0 114.71011 61.0 114.53502 C 61.0 114.476654 61.145912 114.27237 61.437744 113.92218 C 61.729572 113.57198 62.079765 113.10506 62.488327 112.49222 C 62.488327 112.49222 63.305447 111.20817 63.71401 110.44942 C 63.71401 110.44942 64.47276 108.78599 64.735405 107.70622 C 65.02724 106.65564 65.17315 105.575874 65.17315 104.49611 C 65.17315 104.175095 65.31907 104.02918 65.58171 104.02918 C 65.61089 104.02918 65.756805 104.058365 65.96109 104.11673 C 66.16537 104.175095 66.4572 104.23346 66.77821 104.321014 C 67.1284 104.37938 67.44942 104.40856 67.77043 104.40856 Z" fill="#000000" stroke="none" stroke-width="0.75" />
<path d="M 22.764973 79.11539 C 22.921913 79.03691 22.948072 79.03691 23.105015 79.03691 C 23.314268 79.06307 23.445057 79.14154 23.73278 79.45542 C 25.616081 81.391045 27.185501 84.84376 27.577856 87.77334 C 27.630169 88.24416 27.630169 89.34276 27.577856 89.83974 C 27.29013 92.533905 26.165377 94.99266 23.57584 98.52385 L 23.209644 99.02083 L 23.418898 99.62244 C 23.915882 101.06107 24.491331 102.81359 24.85753 104.09528 C 24.96216 104.409164 25.04063 104.67074 25.04063 104.6969 C 25.04063 104.6969 25.223728 104.6969 25.406826 104.72305 C 26.322319 104.80152 27.10703 105.01078 27.917896 105.40313 C 28.57182 105.74317 29.147274 106.13552 29.696568 106.65866 C 30.29818 107.26028 30.690535 107.80957 31.05673 108.56812 C 31.606026 109.66672 31.84144 110.81762 31.81528 111.96853 C 31.789125 112.70093 31.684496 113.25022 31.449085 113.930305 C 31.1352 114.92426 30.559748 115.83976 29.77504 116.624466 C 29.094955 117.30455 28.46719 117.72306 27.630169 118.0631 L 27.316284 118.193886 L 27.316284 119.13554 C 27.316284 120.46954 27.237814 122.038956 27.133184 122.980606 C 27.02856 123.94841 26.766989 124.86391 26.348476 125.700935 C 25.249886 127.92427 23.314268 129.10133 21.143244 128.89209 C 18.684484 128.65668 16.69656 126.98262 16.199577 124.73312 C 15.964161 123.713 16.068794 122.9283 16.487303 122.27437 C 17.036598 121.411194 18.082878 120.914215 19.102997 120.94037 C 20.30622 120.99268 21.274027 121.934326 21.457123 123.24218 C 21.58791 124.28845 21.143244 125.25626 20.30622 125.7794 C 19.835394 126.06713 19.181469 126.197914 18.684484 126.119446 C 18.606018 126.119446 18.527544 126.093285 18.527544 126.119446 L 18.84143 126.43333 C 19.416882 127.00878 20.070807 127.374985 20.907831 127.558075 C 21.090927 127.584236 21.247868 127.584236 21.666382 127.584236 C 22.137207 127.584236 22.189518 127.584236 22.451088 127.53192 C 22.81729 127.42729 23.131172 127.29651 23.418898 127.139565 C 24.726748 126.35486 25.616081 124.73312 25.851494 122.77136 C 25.929964 122.038956 26.008434 120.46954 26.008434 119.318634 C 26.008434 118.56009 26.008434 118.50777 25.956123 118.50777 C 25.851494 118.56009 25.302197 118.6124 24.909843 118.63855 C 24.41286 118.66471 23.57584 118.66471 23.183485 118.6124 C 21.640223 118.4293 20.227747 117.90616 18.998373 117.04298 C 17.167385 115.76129 15.859535 113.85182 15.31024 111.65465 C 14.604002 108.908165 15.100986 105.978584 16.827343 102.89206 C 17.55974 101.610374 18.265978 100.564095 20.018494 98.23612 L 21.012455 96.90212 L 20.829355 96.405136 C 19.573822 93.083206 19.15531 91.173744 19.024527 88.40111 C 18.972214 87.19789 19.024527 86.177765 19.181469 85.340744 C 19.573822 83.143555 20.593945 81.181786 22.189518 79.612366 C 22.503403 79.298485 22.63419 79.193855 22.764973 79.11539 M 24.831371 83.58823 C 24.569805 83.143555 24.622118 83.16971 24.386707 83.32666 C 23.65431 83.771324 22.89576 84.4514 22.34646 85.131485 C 21.221714 86.57012 20.593945 88.24416 20.515476 90.048996 C 20.489319 90.78139 20.56779 91.25221 20.907831 92.37696 C 21.169397 93.29246 21.901793 95.5158 21.95411 95.568115 C 21.95411 95.59427 22.111048 95.41118 22.26799 95.17576 C 24.072823 92.58622 25.04063 90.46751 25.406826 88.34879 C 25.485298 87.7995 25.53761 87.35483 25.563768 86.727066 C 25.589928 85.28843 25.432985 84.58219 24.831371 83.58823 M 22.581877 101.191864 C 22.424934 100.69488 22.26799 100.30252 22.26799 100.30252 C 22.241835 100.30252 21.143244 101.76731 20.672415 102.421234 C 19.129156 104.59227 18.187506 106.34478 17.638206 108.07114 C 17.27201 109.14357 17.115068 110.13754 17.062756 111.23613 C 17.062756 111.837746 17.088915 112.20394 17.193539 112.648605 C 17.795153 114.97658 20.280064 116.88603 23.209644 117.30455 C 23.65431 117.35686 24.909843 117.35686 25.459139 117.30455 C 26.008434 117.226074 25.956123 117.252235 25.929964 117.01682 C 25.773026 114.531906 25.563768 113.0148 25.14526 110.765305 C 24.988314 109.823654 24.543648 107.835724 24.517488 107.80957 C 24.491331 107.78342 23.99435 107.835724 23.706627 107.9142 C 23.340427 107.99267 23.105015 108.07114 22.79113 108.22808 C 21.090927 109.09126 20.593945 111.05304 21.666382 112.648605 C 21.849482 112.91018 22.320305 113.381004 22.608032 113.5641 C 22.71266 113.64258 22.948072 113.799515 23.105015 113.87799 C 23.340427 114.00877 23.392738 114.06108 23.445057 114.16571 C 23.65431 114.50575 23.523525 114.92426 23.131172 115.10736 C 22.921913 115.21199 22.764973 115.18584 22.34646 114.97658 C 21.326344 114.4796 20.56779 113.799515 20.018494 112.962494 C 18.998373 111.393074 18.867586 109.37899 19.70461 107.67879 C 20.437006 106.214 21.744852 105.22003 23.418898 104.853836 C 23.57584 104.80152 23.706627 104.77537 23.706627 104.77537 C 23.73278 104.74921 23.000385 102.36893 22.581877 101.191864 M 26.139221 107.94036 C 26.060753 107.94036 25.98228 107.9142 25.956123 107.9142 L 25.877651 107.88804 L 26.008434 108.43734 C 26.610046 111.07919 27.054714 113.95645 27.211655 116.38905 C 27.237814 116.65063 27.237814 116.85988 27.237814 116.85988 C 27.263973 116.85988 27.60401 116.70294 27.78711 116.57216 C 28.231777 116.31058 28.65029 115.91823 28.99033 115.47356 C 29.801197 114.40112 30.08892 113.06712 29.77504 111.706955 C 29.539627 110.60837 28.911861 109.58824 28.022522 108.882 C 27.473227 108.46349 26.740831 108.0973 26.139221 107.94036 Z" fill="#000000" stroke="none" stroke-width="0.75" />
<path d="M 92.0 127.0 L 108.0 127.0 Z" fill="none" stroke="#d6d6d6" stroke-width="0.75" />
<path d="M 92.0 135.0 L 108.0 135.0 Z" fill="none" stroke="#d6d6d6" stroke-width="0.75" />
<path d="M 92.0 143.0 L 108.0 143.0 Z" fill="none" stroke="#d6d6d6" stroke-width="0.75" />
<path d="M 96.0 92.024 C 96.0 93.112 97.0624 94.200005 98.112 94.200005 C 101.312 94.200005 104.512 92.024 104.512 89.912 C 104.512 88.862404 103.423996 87.8 102.4 87.8 C 99.2 87.8 96.0 89.912 96.0 92.024 Z" fill="none" stroke="#404040" stroke-width="1.0" />
<path d="M 94.0 167.25 L 102.0 167.25 L 102.0 174.75 L 94.0 174.75 L 94.0 167.25 Z" fill="#ffffff" stroke="none" stroke-width="1.0" />
<text x='94.0' y='174.75' font-family="Default" font-size="10.0" fill="#404040" >0</text>
<path d="M 96.0 104.024 C 96.0 105.112 97.0624 106.200005 98.112 106.200005 C 101.312 106.200005 104.512 104.024 104.512 101.912 C 104.512 100.862404 103.423996 99.8 102.4 99.8 C 99.2 99.8 96.0 101.912 96.0 104.024 Z" fill="none" stroke="#404040" stroke-width="1.0" />
<path d="M 94.0 177.25 L 102.0 177.25 L 102.0 184.75 L 94.0 184.75 L 94.0 177.25 Z" fill="#ffffff" stroke="none" stroke-width="1.0" />
<text x='94.0' y='184.75' font-family="Default" font-size="10.0" fill="#404040" >0</text>
<path d="M 93.46439 104.63119 C 93.59136 104.55864 93.79088 104.61305 93.863434 104.7763 C 93.89971 104.84885 93.89971 104.90327 93.89971 106.172935 C 93.89971 106.9166 93.89971 107.51516 93.91785 107.51516 C 93.91785 107.51516 94.08109 107.44261 94.28061 107.370056 C 94.69779 107.20681 94.752205 107.188675 94.86103 107.279366 C 94.988 107.370056 94.988 107.38819 94.988 108.11372 C 94.988 108.73042 94.988 108.784836 94.95172 108.83925 C 94.933586 108.87553 94.89731 108.911804 94.87917 108.92994 C 94.842896 108.94808 94.62524 109.05691 94.3713 109.1476 L 93.91785 109.34712 L 93.89971 110.816315 C 93.89971 111.614395 93.89971 112.28551 93.91785 112.28551 C 93.91785 112.28551 94.08109 112.21295 94.28061 112.140396 C 94.69779 111.97716 94.752205 111.959015 94.86103 112.049706 C 94.988 112.140396 94.988 112.15854 94.988 112.88406 C 94.988 113.50076 94.988 113.555176 94.95172 113.60959 C 94.933586 113.64587 94.89731 113.682144 94.87917 113.70028 C 94.842896 113.71842 94.62524 113.82725 94.3713 113.91794 L 93.91785 114.11746 L 93.89971 115.64107 C 93.89971 117.01957 93.88157 117.182816 93.863434 117.23723 C 93.736465 117.45489 93.428116 117.45489 93.30115 117.23723 C 93.28301 117.182816 93.26487 117.037704 93.26487 115.768036 L 93.26487 114.3714 L 92.48493 114.67974 L 91.72313 114.98809 L 91.72313 116.45728 C 91.72313 118.01717 91.72313 117.980896 91.63244 118.07159 C 91.59616 118.126 91.46919 118.18041 91.41478 118.18041 C 91.342224 118.18041 91.215256 118.126 91.178986 118.07159 C 91.08829 117.980896 91.08829 118.01717 91.08829 116.602394 C 91.08829 115.85873 91.08829 115.26017 91.07015 115.26017 C 91.07015 115.26017 90.906906 115.33272 90.70739 115.40527 C 90.290215 115.56851 90.235794 115.586655 90.12697 115.495964 C 90.0 115.40527 90.0 115.38713 90.0 114.661606 C 90.0 114.04491 90.0 113.99049 90.03628 113.93608 C 90.05441 113.8998 90.09069 113.863525 90.108826 113.84539 C 90.1451 113.82725 90.36276 113.71842 90.6167 113.62773 L 91.08829 113.42821 L 91.08829 111.959015 C 91.08829 111.160934 91.08829 110.48982 91.07015 110.48982 C 91.07015 110.48982 90.906906 110.56238 90.70739 110.63493 C 90.290215 110.79817 90.235794 110.816315 90.12697 110.725624 C 90.0 110.63493 90.0 110.61679 90.0 109.891266 C 90.0 109.27457 90.0 109.22015 90.03628 109.16573 C 90.05441 109.12946 90.09069 109.093185 90.108826 109.07504 C 90.1451 109.05691 90.36276 108.94808 90.6167 108.85739 L 91.08829 108.65787 L 91.08829 107.13426 C 91.08829 105.75576 91.10643 105.592514 91.124565 105.5381 C 91.25153 105.32044 91.55988 105.32044 91.68685 105.5381 C 91.70499 105.592514 91.72313 105.73762 91.72313 107.00729 L 91.741264 108.40393 L 92.50307 108.09558 L 93.26487 107.78723 L 93.26487 106.31804 C 93.26487 104.93954 93.26487 104.84885 93.30115 104.7763 C 93.337425 104.70374 93.3737 104.667465 93.46439 104.63119 M 93.26487 111.070244 L 93.26487 109.60105 L 92.48493 109.9094 L 91.72313 110.21775 L 91.72313 111.705086 L 91.72313 113.17428 L 91.77754 113.156136 C 91.81382 113.138 92.15845 112.9929 92.55749 112.847786 L 93.26487 112.55758 L 93.26487 111.070244 Z" fill="#404040" stroke="none" stroke-width="0.75" />
<path d="M 96.0 112.024 C 96.0 113.112 97.0624 114.200005 98.112 114.200005 C 101.312 114.200005 104.512 112.024 104.512 109.912 C 104.512 108.862404 103.423996 107.8 102.4 107.8 C 99.2 107.8 96.0 109.912 96.0 112.024 Z" fill="none" stroke="#404040" stroke-width="1.0" />
<path d="M 94.0 187.25 L 102.0 187.25 L 102.0 194.75 L 94.0 194.75 L 94.0 187.25 Z" fill="#ffffff" stroke="none" stroke-width="1.0" />
<text x='94.0' y='194.75' font-family="Default" font-size="10.0" fill="#404040" >1</text>
<path d="M 96.0 120.024 C 96.0 121.112 97.0624 122.200005 98.112 122.200005 C 101.312 122.200005 104.512 120.024 104.512 117.912 C 104.512 116.862404 103.423996 115.8 102.4 115.8 C 99.2 115.8 96.0 117.912 96.0 120.024 Z" fill="none" stroke="#404040" stroke-width="1.0" />
<path d="M 94.0 197.25 L 102.0 197.25 L 102.0 204.75 L 94.0 204.75 L 94.0 197.25 Z" fill="#ffffff" stroke="none" stroke-width="1.0" />
<text x='94.0' y='204.75' font-family="Default" font-size="10.0" fill="#404040" >2</text>
<path d="M 96.0 132.024 C 96.0 133.112 97.0624 134.2 98.112 134.2 C 101.312 134.2 104.512 132.024 104.512 129.912 C 104.512 128.8624 103.423996 127.8 102.4 127.8 C 99.2 127.8 96.0 129.912 96.0 132.024 Z" fill="none" stroke="#404040" stroke-width="1.0" />
<path d="M 94.0 207.25 L 102.0 207.25 L 102.0 214.75 L 94.0 214.75 L 94.0 207.25 Z" fill="#ffffff" stroke="none" stroke-width="1.0" />
<text x='94.0' y='214.75' font-family="Default" font-size="10.0" fill="#404040" >2</text>
<path d="M 96.0 148.024 C 96.0 149.112 97.0624 150.2 98.112 150.2 C 101.312 150.2 104.512 148.024 104.512 145.912 C 104.512 144.8624 103.423996 143.8 102.4 143.8 C 99.2 143.8 96.0 145.912 96.0 148.024 Z" fill="none" stroke="#404040" stroke-width="1.0" />
<path d="M 94.0 217.25 L 102.0 217.25 L 102.0 224.75 L 94.0 224.75 L 94.0 217.25 Z" fill="#ffffff" stroke="none" stroke-width="1.0" />
<text x='94.0' y='224.75' font-family="Default" font-size="10.0" fill="#404040" >0</text><g transform="translate(74.5,0.0)">
<path d="M 0.0 0.0 L 43.0 0.0 L 43.0 42.0 L 0.0 42.0 L 0.0 0.0 Z" fill="#ffffff" stroke="none" stroke-width="0.75" />
<text x='2.0' y='12.0' font-family="Default" font-size="8.0" fill="#d6d6d6" >1</text>
<path d="M 13.0 6.0 L 13.0 36.0 M 18.0 6.0 L 18.0 36.0 M 23.0 6.0 L 23.0 36.0 M 28.0 6.0 L 28.0 36.0 M 33.0 6.0 L 33.0 36.0 M 38.0 6.0 L 38.0 36.0 Z" fill="none" stroke="#d6d6d6" stroke-width="0.75" />
<path d="M 13.0 6.0 L 38.0 6.0 M 13.0 12.0 L 38.0 12.0 M 13.0 18.0 L 38.0 18.0 M 13.0 24.0 L 38.0 24.0 M 13.0 30.0 L 38.0 30.0 M 13.0 36.0 L 38.0 36.0 Z" fill="none" stroke="#d6d6d6" stroke-width="0.75" />
<path d="M 36.0 2.0 a 2.0 2.0 0 1 0 4.0 0 2.0 2.0 0 1 0 -4.0 0 Z" fill="none" stroke="#d6d6d6" stroke-width="0.75" />
<path d="M 31.0 2.0 a 2.0 2.0 0 1 0 4.0 0 2.0 2.0 0 1 0 -4.0 0 Z" fill="none" stroke="#d6d6d6" stroke-width="0.75" />
<path d="M 25.5 9.0 a 2.5 2.5 0 1 0 5.0 0 2.5 2.5 0 1 0 -5.0 0 Z" fill="#404040" stroke="none" stroke-width="0.75" />
<path d="M 20.5 15.0 a 2.5 2.5 0 1 0 5.0 0 2.5 2.5 0 1 0 -5.0 0 Z" fill="#404040" stroke="none" stroke-width="0.75" />
<path d="M 15.5 15.0 a 2.5 2.5 0 1 0 5.0 0 2.5 2.5 0 1 0 -5.0 0 Z" fill="#404040" stroke="none" stroke-width="0.75" />
<path d="M 11.0 2.0 a 2.0 2.0 0 1 0 4.0 0 2.0 2.0 0 1 0 -4.0 0 Z" fill="none" stroke="#d6d6d6" stroke-width="0.75" /></g>
<text x='96.0' y='49.5' font-family="Default" font-size="10.0" fill="#000000" >E</text></g>
<path d="M 35.35 93.3 C 35.35 94.15 36.18 95.0 37.0 95.0 C 39.5 95.0 42.0 93.3 42.0 91.65 C 42.0 90.83 41.149998 90.0 40.35 90.0 C 37.85 90.0 35.35 91.65 35.35 93.3 Z" fill="#000000" stroke="none" stroke-width="1.0" />
<path d="M 42.0 77.0 L 42.0 91.7 Z" fill="none" stroke="#000000" stroke-width="1.0" />
<text x='43.0' y='93.25' font-family="Default" font-size="10.0" fill="#000000" > = 120</text>
<text x='21.0' y='105.0' font-family="Default" font-size="10.0" fill="#ff0000" >1</text>
<path d="M 20.0 107.0 L 23.0 107.0 L 23.0 191.0 L 20.0 191.0 L 20.0 107.0 Z" fill="#000000" stroke="#000000" stroke-width="0.75" />
<path d="M 25.0 107.0 L 26.0 107.0 L 26.0 191.0 L 25.0 191.0 L 25.0 107.0 Z" fill="#000000" stroke="#000000" stroke-width="0.75" />
<path d="M 155.0 107.0 L 156.0 107.0 L 156.0 139.0 L 155.0 139.0 L 155.0 107.0 Z" fill="#000000" stroke="#000000" stroke-width="0.75" />
<path d="M 158.0 107.0 L 161.0 107.0 L 161.0 139.0 L 158.0 139.0 L 158.0 107.0 Z" fill="#000000" stroke="#000000" stroke-width="0.75" />
<path d="M 20.0 191.0 L 23.0 191.0 L 23.0 241.0 L 20.0 241.0 L 20.0 191.0 Z" fill="#000000" stroke="#000000" stroke-width="0.75" />
<path d="M 25.0 191.0 L 26.0 191.0 L 26.0 241.0 L 25.0 241.0 L 25.0 191.0 Z" fill="#000000" stroke="#000000" stroke-width="0.75" />
<path d="M 155.0 191.0 L 156.0 191.0 L 156.0 241.0 L 155.0 241.0 L 155.0 191.0 Z" fill="#000000" stroke="#000000" stroke-width="0.75" />
<path d="M 158.0 191.0 L 161.0 191.0 L 161.0 241.0 L 158.0 241.0 L 158.0 191.0 Z" fill="#000000" stroke="#000000" stroke-width="0.75" />
<path d="M 163.0 107.0 L 930.0 107.0 M 163.0 115.0 L 930.0 115.0 M 163.0 123.0 L 930.0 123.0 M 163.0 131.0 L 930.0 131.0 M 163.0 139.0 L 930.0 139.0 Z" fill="none" stroke="#d6d6d6" stroke-width="0.75" />
<path d="M 163.0 191.0 L 930.0 191.0 M 163.0 201.0 L 930.0 201.0 M 163.0 211.0 L 930.0 211.0 M 163.0 221.0 L 930.0 221.0 M 163.0 231.0 L 930.0 231.0 M 163.0 241.0 L 930.0 241.0 Z" fill="none" stroke="#d6d6d6" stroke-width="0.75" />
</svg>