<svg width="960.0px" height="200.0px" xmlns="http://www.w3.org/2000/svg" version="1.1">

<path d="M 0.0 0.0 L 960.0 0.0 L 960.0 200.0 L 0.0 200.0 L 0.0 0.0 Z" fill="#ffffff" stroke="none" stroke-width="1.0" /><g transform="translate(20.0,20.0)">
<path d="M 0.0 0.0 L 141.0 0.0 L 141.0 169.0 L 0.0 169.0 L 0.0 0.0 Z" fill="#ffffff" stroke="none" stroke-width="1.0" />
<path d="M 0.0 38.0 L 141.0 38.0 M 0.0 46.0 L 141.0 46.0 M 0.0 54.0 L 141.0 54.0 M 0.0 62.0 L 141.0 62.0 M 0.0 70.0 L 141.0 70.0 Z" fill="none" stroke="#d6d6d6" stroke-width="0.75" />
<path d="M 0.0 98.0 L 141.0 98.0 M 0.0 108.0 L 141.0 108.0 M 0.0 118.0 L 141.0 118.0 M 0.0 128.0 L 141.0 128.0 M 0.0 138.0 L 141.0 138.0 M 0.0 148.0 L 141.0 148.0 Z" fill="none" stroke="#d6d6d6" stroke-width="0.75" />
<path d="M 67.77043 38.40856 C 68.324905 38.40856 68.821014 38.350193 69.25876 38.20428 C 69.6965 38.058365 69.959145 38.0 70.04669 38.0 C 70.192604 38.0 70.28015 38.029182 70.36771 38.11673 C 70.42607 38.1751 70.45525 38.233463 70.484436 38.32101 C 70.484436 38.37938 70.45525 38.437744 70.42607 38.49611 L 61.933853 48.35992 L 66.924126 48.35992 L 66.924126 44.449417 C 66.924126 44.18677 67.01167 43.95331 67.1284 43.807392 C 67.3035 43.661476 67.4786 43.515564 67.71206 43.4572 C 67.97471 43.340466 68.26653 43.07782 68.64591 42.640076 C 68.937744 42.319065 69.317116 41.706226 69.75486 40.801556 C 69.81323 40.684826 69.90078 40.626457 70.01751 40.626457 C 70.28015 40.626457 70.39688 40.772373 70.42607 41.03502 L 70.42607 48.35992 L 72.55642 48.35992 C 72.84825 48.35992 72.99416 48.505836 73.023346 48.797665 C 73.023346 49.089493 72.877426 49.235405 72.55642 49.235405 L 70.42607 49.235405 L 70.42607 49.468872 C 70.42607 50.28599 70.63035 50.928013 71.00973 51.45331 C 71.44747 51.9786 71.97276 52.270428 72.5856 52.270428 C 72.81906 52.270428 72.9358 52.387157 72.9358 52.62062 C 72.9358 52.854084 72.81906 52.970818 72.5856 52.970818 C 72.14786 52.970818 71.50584 52.91245 70.601166 52.79572 C 69.696495 52.649803 69.054474 52.59144 68.64591 52.59144 C 68.23735 52.59144 67.56615 52.649803 66.69066 52.79572 C 65.81517 52.91245 65.17315 52.970818 64.735405 52.970818 C 64.501945 52.970818 64.385216 52.854084 64.385216 52.62062 C 64.385216 52.387157 64.501945 52.270428 64.735405 52.270428 C 65.34825 52.270428 65.87354 51.9786 66.31128 51.45331 C 66.71984 50.89883 66.924126 50.25681 66.924126 49.468872 L 66.924126 49.235405 L 61.933853 49.235405 C 61.61284 49.235405 61.379375 49.17704 61.233463 49.001945 C 61.087547 48.885212 61.0 48.710114 61.0 48.53502 C 61.0 48.476654 61.145912 48.272373 61.437744 47.92218 C 61.729572 47.571983 62.079765 47.105057 62.488327 46.492218 C 62.488327 46.492218 63.305447 45.20817 63.71401 44.449417 C 63.71401 44.449417 64.47276 42.78599 64.735405 41.706226 C 65.02724 40.65564 65.17315 39.575874 65.17315 38.49611 C 65.17315 38.175095 65.31907 38.029182 65.58171 38.029182 C 65.61089 38.029182 65.756805 38.058365 65.96109 38.11673 C 66.16537 38.175095 66.4572 38.233463 66.77821 38.32101 C 67.1284 38.379375 67.44942 38.408558 67.77043 38.408558 Z" fill="#000000" stroke="none" stroke-width="0.75" />
<path d="M 67.77043 55.40856 C 68.324905 55.40856 68.821014 55.350193 69.25876 55.20428 C 69.6965 55.058365 69.959145 55.0 70.04669 55.0 C 70.192604 55.0 70.28015 55.029182 70.36771 55.11673 C 70.42607 55.1751 70.45525 55.233463 70.484436 55.32101 C 70.484436 55.37938 70.45525 55.437744 70.42607 55.49611 L 61.933853 65.359924 L 66.924126 65.359924 L 66.924126 61.449417 C 66.924126 61.18677 67.01167 60.95331 67.1284 60.807392 C 67.3035 60.661476 67.4786 60.515564 67.71206 60.4572 C 67.97471 60.340466 68.26653 60.07782 68.64591 59.640076 C 68.937744 59.319065 69.317116 58.706226 69.75486 57.801556 C 69.81323 57.684826 69.90078 57.626457 70.01751 57.626457 C 70.28015 57.626457 70.39688 57.772373 70.42607 58.03502 L 70.42607 65.359924 L 72.55642 65.359924 C 72.84825 65.359924 72.99416 65.50584 73.023346 65.79767 C 73.023346 66.08949 72.877426 66.235405 72.55642 66.235405 L 70.42607 66.235405 L 70.42607 66.46887 C 70.42607 67.28599 70.63035 67.92802 71.00973 68.45331 C 71.44747 68.9786 71.97276 69.270424 72.5856 69.270424 C 72.81906 69.270424 72.9358 69.38716 72.9358 69.62062 C 72.9358 69.85408 72.81906 69.97082 72.5856 69.97082 C 72.14786 69.97082 71.50584 69.91245 70.601166 69.795715 C 69.696495 69.6498 69.054474 69.59144 68.64591 69.59144 C 68.23735 69.59144 67.56615 69.6498 66.69066 69.795715 C 65.81517 69.91245 65.17315 69.97082 64.735405 69.97082 C 64.501945 69.97082 64.385216 69.85408 64.385216 69.62062 C 64.385216 69.38716 64.501945 69.270424 64.735405 69.270424 C 65.34825 69.270424 65.87354 68.9786 66.31128 68.45331 C 66.71984 67.898834 66.924126 67.256805 66.924126 66.46887 L 66.924126 66.235405 L 61.933853 66.235405 C 61.61284 66.235405 61.379375 66.17704 61.233463 66.001945 C 61.087547 65.88521 61.0 65.71011 61.0 65.53502 C 61.0 65.476654 61.145912 65.27237 61.437744 64.92218 C 61.729572 64.57198 62.079765 64.10506 62.488327 63.492218 C 62.488327 63.492218 63.305447 62.20817 63.71401 61.449417 C 63.71401 61.449417 64.47276 59.78599 64.735405 58.706226 C 65.02724 57.65564 65.17315 56.575874 65.17315 55.49611 C 65.17315 55.175095 65.31907 55.029182 65.58171 55.029182 C 65.61089 55.029182 65.756805 55.058365 65.96109 55.11673 C 66.16537 55.175095 66.4572 55.233463 66.77821 55.32101 C 67.1284 55.379375 67.44942 55.408558 67.77043 55.408558 Z" fill="#000000" stroke="none" stroke-width="0.75" />
<path d="M 22.764973 30.115383 C 22.921913 30.036913 22.948072 30.036913 23.105015 30.036913 C 23.314268 30.06307 23.445057 30.14154 23.73278 30.455425 C 25.616081 32.39104 27.185501 35.843758 27.577856 38.773342 C 27.630169 39.244167 27.630169 40.34276 27.577856 40.839737 C 27.29013 43.533905 26.165377 45.99266 23.57584 49.52385 L 23.209644 50.020832 L 23.418898 50.62244 C 23.915882 52.061073 24.491331 53.81359 24.85753 55.095284 C 24.96216 55.409164 25.04063 55.67074 25.04063 55.696896 C 25.04063 55.696896 25.223728 55.696896 25.406826 55.723053 C 26.322319 55.80152 27.10703 56.01078 27.917896 56.40313 C 28.57182 56.74317 29.147274 57.13552 29.696568 57.658665 C 30.29818 58.260277 30.690535 58.80957 31.05673 59.568123 C 31.606026 60.666718 31.84144 61.81762 31.81528 62.96853 C 31.789125 63.700924 31.684496 64.25022 31.449085 64.930305 C 31.1352 65.92426 30.559748 66.83976 29.77504 67.624466 C 29.094955 68.30455 28.46719 68.72306 27.630169 69.0631 L 27.316284 69.193886 L 27.316284 70.13554 C 27.316284 71.46954 27.237814 73.038956 27.133184 73.980606 C 27.02856 74.94841 26.766989 75.86391 26.348476 76.700935 C 25.249886 78.92427 23.314268 80.10133 21.143244 79.89209 C 18.684484 79.65667 16.69656 77.98262 16.199577 75.73312 C 15.964161 74.713 16.068794 73.9283 16.487303 73.27437 C 17.036598 72.411194 18.082878 71.914215 19.102997 71.94037 C 20.30622 71.99268 21.274027 72.934326 21.457123 74.24218 C 21.58791 75.28845 21.143244 76.25626 20.30622 76.7794 C 19.835394 77.06713 19.181469 77.197914 18.684484 77.119446 C 18.606018 77.119446 18.527544 77.093285 18.527544 77.119446 L 18.84143 77.43333 C 19.416882 78.00878 20.070807 78.374985 20.907831 78.558075 C 21.090927 78.584236 21.247868 78.584236 21.666382 78.584236 C 22.137207 78.584236 22.189518 78.584236 22.451088 78.53192 C 22.81729 78.42729 23.131172 78.29651 23.418898 78.139565 C 24.726748 77.35486 25.616081 75.73312 25.851494 73.77136 C 25.929964 73.038956 26.008434 71.46954 26.008434 70.318634 C 26.008434 69.56009 26.008434 69.50777 25.956123 69.50777 C 25.851494 69.56009 25.302197 69.6124 24.909843 69.63855 C 24.41286 69.66471 23.57584 69.66471 23.183485 69.6124 C 21.640223 69.4293 20.227747 68.90616 18.998373 68.04298 C 17.167385 66.76129 15.859535 64.85182 15.31024 62.654644 C 14.604002 59.908165 15.100986 56.978584 16.827343 53.89206 C 17.55974 52.610374 18.265978 51.564095 20.018494 49.236122 L 21.012455 47.902122 L 20.829355 47.405136 C 19.573822 44.083202 19.15531 42.173744 19.024527 39.401108 C 18.972214 38.197887 19.024527 37.17776 19.181469 36.34074 C 19.573822 34.14356 20.593945 32.181786 22.189518 30.612366 C 22.503403 30.298483 22.63419 30.193855 22.764973 30.115383 M 24.831371 34.588226 C 24.569805 34.14356 24.622118 34.169712 24.386707 34.32666 C 23.65431 34.771324 22.89576 35.451405 22.34646 36.131485 C 21.221714 37.57012 20.593945 39.244167 20.515476 41.048996 C 20.489319 41.78139 20.56779 42.252216 20.907831 43.37696 C 21.169397 44.292458 21.901793 46.5158 21.95411 46.56811 C 21.95411 46.59427 22.111048 46.411175 22.26799 46.17576 C 24.072823 43.58622 25.04063 41.467506 25.406826 39.348793 C 25.485298 38.799496 25.53761 38.354828 25.563768 37.727062 C 25.589928 36.28843 25.432985 35.58219 24.831371 34.588226 M 22.581877 52.191864 C 22.424934 51.694878 22.26799 51.302525 22.26799 51.302525 C 22.241835 51.302525 21.143244 52.76731 20.672415 53.421238 C 19.129156 55.592266 18.187506 57.34478 17.638206 59.071136 C 17.27201 60.143574 17.115068 61.137543 17.062756 62.236134 C 17.062756 62.837746 17.088915 63.20394 17.193539 63.64861 C 17.795153 65.97658 20.280064 67.88603 23.209644 68.30455 C 23.65431 68.35686 24.909843 68.35686 25.459139 68.30455 C 26.008434 68.226074 25.956123 68.252235 25.929964 68.01682 C 25.773026 65.531906 25.563768 64.0148 25.14526 61.765305 C 24.988314 60.823658 24.543648 58.835728 24.517488 58.80957 C 24.491331 58.783417 23.99435 58.835728 23.706627 58.9142 C 23.340427 58.99267 23.105015 59.071136 22.79113 59.22808 C 21.090927 60.091263 20.593945 62.053036 21.666382 63.64861 C 21.849482 63.91018 22.320305 64.381004 22.608032 64.5641 C 22.71266 64.64258 22.948072 64.799515 23.105015 64.87799 C 23.340427 65.00877 23.392738 65.06108 23.445057 65.16571 C 23.65431 65.50575 23.523525 65.92426 23.131172 66.10736 C 22.921913 66.21199 22.764973 66.18584 22.34646 65.97658 C 21.326344 65.4796 20.56779 64.799515 20.018494 63.962494 C 18.998373 62.393074 18.867586 60.37899 19.70461 58.678787 C 20.437006 57.213997 21.744852 56.22003 23.418898 55.853836 C 23.57584 55.80152 23.706627 55.775368 23.706627 55.775368 C 23.73278 55.749207 23.000385 53.368923 22.581877 52.191864 M 26.139221 58.94036 C 26.060753 58.94036 25.98228 58.9142 25.956123 58.9142 L 25.877651 58.88804 L 26.008434 59.43734 C 26.610046 62.07919 27.054714 64.95645 27.211655 67.38905 C 27.237814 67.65063 27.237814 67.85988 27.237814 67.85988 C 27.263973 67.85988 27.60401 67.70294 27.78711 67.57216 C 28.231777 67.31058 28.65029 66.91823 28.99033 66.47356 C 29.801197 65.40112 30.08892 64.06712 29.77504 62.706955 C 29.539627 61.608364 28.911861 60.58824 28.022522 59.882008 C 27.473227 59.463493 26.740831 59.097298 26.139221 58.94036 Z" fill="#000000" stroke="none" stroke-width="0.75" />
<path d="M 96.0 71.024 C 96.0 72.112 97.0624 73.200005 98.112 73.200005 C 101.312 73.200005 104.512 71.024 104.512 68.912 C 104.512 67.862404 103.423996 66.8 102.4 66.8 C 99.2 66.8 96.0 68.912 96.0 71.024 Z" fill="none" stroke="#404040" stroke-width="1.0" />
<path d="M 94.0 134.25 L 102.0 134.25 L 102.0 141.75 L 94.0 141.75 L 94.0 134.25 Z" fill="#ffffff" stroke="none" stroke-width="1.0" />
<text x='94.0' y='141.75' font-family="Default" font-size="10.0" fill="#404040" >7</text>
<path d="M 96.0 55.024 C 96.0 56.112 97.0624 57.2 98.112 57.2 C 101.312 57.2 104.512 55.024 104.512 52.912 C 104.512 51.8624 103.423996 50.8 102.4 50.8 C 99.2 50.8 96.0 52.912 96.0 55.024 Z" fill="none" stroke="#404040" stroke-width="1.0" />
<path d="M 94.0 124.25 L 102.0 124.25 L 102.0 131.75 L 94.0 131.75 L 94.0 124.25 Z" fill="#ffffff" stroke="none" stroke-width="1.0" />
<text x='94.0' y='131.75' font-family="Default" font-size="10.0" fill="#404040" >9</text></g>
<path d="M 35.35 44.3 C 35.35 45.15 36.18 46.0 37.0 46.0 C 39.5 46.0 42.0 44.3 42.0 42.65 C 42.0 41.83 41.149998 41.0 40.35 41.0 C 37.85 41.0 35.35 42.65 35.35 44.3 Z" fill="#000000" stroke="none" stroke-width="1.0" />
<path d="M 42.0 28.0 L 42.0 42.7 Z" fill="none" stroke="#000000" stroke-width="1.0" />
<text x='43.0' y='44.25' font-family="Default" font-size="10.0" fill="#000000" > = 120</text>
<text x='21.0' y='56.0' font-family="Default" font-size="10.0" fill="#ff0000" >1</text>
<path d="M 20.0 58.0 L 23.0 58.0 L 23.0 118.0 L 20.0 118.0 L 20.0 58.0 Z" fill="#000000" stroke="#000000" stroke-width="0.75" />
<path d="M 25.0 58.0 L 26.0 58.0 L 26.0 118.0 L 25.0 118.0 L 25.0 58.0 Z" fill="#000000" stroke="#000000" stroke-width="0.75" />
<path d="M 155.0 58.0 L 156.0 58.0 L 156.0 90.0 L 155.0 90.0 L 155.0 58.0 Z" fill="#000000" stroke="#000000" stroke-width="0.75" />
<path d="M 158.0 58.0 L 161.0 58.0 L 161.0 90.0 L 158.0 90.0 L 158.0 58.0 Z" fill="#000000" stroke="#000000" stroke-width="0.75" />
<path d="M 20.0 118.0 L 23.0 118.0 L 23.0 168.0 L 20.0 168.0 L 20.0 118.0 Z" fill="#000000" stroke="#000000" stroke-width="0.75" />
<path d="M 25.0 118.0 L 26.0 118.0 L 26.0 168.0 L 25.0 168.0 L 25.0 118.0 Z" fill="#000000" stroke="#000000" stroke-width="0.75" />
<path d="M 155.0 118.0 L 156.0 118.0 L 156.0 168.0 L 155.0 168.0 L 155.0 118.0 Z" fill="#000000" stroke="#000000" stroke-width="0.75" />
<path d="M 158.0 118.0 L 161.0 118.0 L 161.0 168.0 L 158.0 168.0 L 158.0 118.0 Z" fill="#000000" stroke="#000000" stroke-width="0.75" />
<path d="M 163.0 58.0 L 930.0 58.0 M 163.0 66.0 L 930.0 66.0 M 163.0 74.0 L 930.0 74.0 M 163.0 82.0 L 930.0 82.0 M 163.0 90.0 L 930.0 90.0 Z" fill="none" stroke="#d6d6d6" stroke-width="0.75" />
<path d="M 163.0 118.0 L 930.0 118.0 M 163.0 128.0 L 930.0 128.0 M 163.0 138.0 L 930.0 138.0 M 163.0 148.0 L 930.0 148.0 M 163.0 158.0 L 930.0 158.0 M 163.0 168.0 L 930.0 168.0 Z" fill="none" stroke="#d6d6d6" stroke-width="0.75" />
</svg>