<svg width="960.0px" height="268.0px" xmlns="http://www.w3.org/2000/svg" version="1.1">

<path d="M 0.0 0.0 L 960.0 0.0 L 960.0 268.0 L 0.0 268.0 L 0.0 0.0 Z" fill="#ffffff" stroke="none" stroke-width="1.0" /><g transform="translate(20.0,20.0)">
<path d="M 0.0 0.0 L 141.0 0.0 L 141.0 237.0 L 0.0 237.0 L 0.0 0.0 Z" fill="#ffffff" stroke="none" stroke-width="1.0" />
<path d="M 0.0 73.0 L 141.0 73.0 M 0.0 81.0 L 141.0 81.0 M 0.0 89.0 L 141.0 89.0 M 0.0 97.0 L 141.0 97.0 M 0.0 105.0 L 141.0 105.0 Z" fill="none" stroke="#d6d6d6" stroke-width="0.75" />
<path d="M 0.0 166.0 L 141.0 166.0 M 0.0 176.0 L 141.0 176.0 M 0.0 186.0 L 141.0 186.0 M 0.0 196.0 L 141.0 196.0 M 0.0 206.0 L 141.0 206.0 M 0.0 216.0 L 141.0 216.0 Z" fill="none" stroke="#d6d6d6" stroke-width="0.75" />
<path d="M 67.77043 73.40856 C 68.324905 73.40856 68.821014 73.3502 69.25876 73.20428 C 69.6965 73.058365 69.959145 73.0 70.04669 73.0 C 70.192604 73.0 70.28015 73.02918 70.36771 73.11673 C 70.42607 73.175095 70.45525 73.23346 70.484436 73.321014 C 70.484436 73.37938 70.45525 73.437744 70.42607 73.49611 L 61.933853 83.359924 L 66.924126 83.359924 L 66.924126 79.44942 C 66.924126 79.18677 67.01167 78.95331 67.1284 78.807396 C 67.3035 78.661476 67.4786 78.515564 67.71206 78.4572 C 67.97471 78.34047 68.26653 78.07782 68.64591 77.640076 C 68.937744 77.31907 69.317116 76.70622 69.75486 75.80156 C 69.81323 75.68482 69.90078 75.62646 70.01751 75.62646 C 70.28015 75.62646 70.39688 75.77237 70.42607 76.03502 L 70.42607 83.359924 L 72.55642 83.359924 C 72.84825 83.359924 72.99416 83.50584 73.023346 83.79767 C 73.023346 84.08949 72.877426 84.235405 72.55642 84.235405 L 70.42607 84.235405 L 70.42607 84.46887 C 70.42607 85.28599 70.63035 85.92802 71.00973 86.45331 C 71.44747 86.9786 71.97276 87.270424 72.5856 87.270424 C 72.81906 87.270424 72.9358 87.38716 72.9358 87.62062 C 72.9358 87.85408 72.81906 87.97082 72.5856 87.97082 C 72.14786 87.97082 71.50584 87.91245 70.601166 87.795715 C 69.696495 87.6498 69.054474 87.59144 68.64591 87.59144 C 68.23735 87.59144 67.56615 87.6498 66.69066 87.795715 C 65.81517 87.91245 65.17315 87.97082 64.735405 87.97082 C 64.501945 87.97082 64.385216 87.85408 64.385216 87.62062 C 64.385216 87.38716 64.501945 87.270424 64.735405 87.270424 C 65.34825 87.270424 65.87354 86.9786 66.31128 86.45331 C 66.71984 85.898834 66.924126 85.256805 66.924126 84.46887 L 66.924126 84.235405 L 61.933853 84.235405 C 61.61284 84.235405 61.379375 84.17704 61.233463 84.001945 C 61.087547 83.88521 61.0 83.71011 61.0 83.53502 C 61.0 83.476654 61.145912 83.27237 61.437744 82.92218 C 61.729572 82.57198 62.079765 82.10506 62.488327 81.49222 C 62.488327 81.49222 63.305447 80.20817 63.71401 79.44942 C 63.71401 79.44942 64.47276 77.78599 64.735405 76.70622 C 65.02724 75.65564 65.17315 74.575874 65.17315 73.49611 C 65.17315 73.175095 65.31907 73.02918 65.58171 73.02918 C 65.61089 73.02918 65.756805 73.058365 65.96109 73.11673 C 66.16537 73.175095 66.4572 73.23346 66.77821 73.321014 C 67.1284 73.37938 67.44942 73.40856 67.77043 73.40856 Z" fill="#000000" stroke="none" stroke-width="0.75" />
<path d="M 67.77043 90.40856 C 68.324905 90.40856 68.821014 90.3502 69.25876 90.20428 C 69.6965 90.058365 69.959145 90.0 70.04669 90.0 C 70.192604 90.0 70.28015 90.02918 70.36771 90.11673 C 70.42607 90.175095 70.45525 90.23346 70.484436 90.321014 C 70.484436 90.37938 70.45525 90.437744 70.42607 90.49611 L 61.933853 100.359924 L 66.924126 100.359924 L 66.924126 96.44942 C 66.924126 96.18677 67.01167 95.95331 67.1284 95.807396 C 67.3035 95.661476 67.4786 95.515564 67.71206 95.4572 C 67.97471 95.34047 68.26653 95.07782 68.64591 94.640076 C 68.937744 94.31907 69.317116 93.70622 69.75486 92.80156 C 69.81323 92.68482 69.90078 92.62646 70.01751 92.62646 C 70.28015 92.62646 70.39688 92.77237 70.42607 93.03502 L 70.42607 100.359924 L 72.55642 100.359924 C 72.84825 100.359924 72.99416 100.50584 73.023346 100.79767 C 73.023346 101.08949 72.877426 101.235405 72.55642 101.235405 L 70.42607 101.235405 L 70.42607 101.46887 C 70.42607 102.28599 70.63035 102.92802 71.00973 103.45331 C 71.44747 103.9786 71.97276 104.270424 72.5856 104.270424 C 72.81906 104.270424 72.9358 104.38716 72.9358 104.62062 C 72.9358 104.85408 72.81906 104.97082 72.5856 104.97082 C 72.14786 104.97082 71.50584 104.91245 70.601166 104.795715 C 69.696495 104.6498 69.054474 104.59144 68.64591 104.59144 C 68.23735 104.59144 67.56615 104.6498 66.69066 104.795715 C 65.81517 104.91245 65.17315 104.97082 64.735405 104.97082 C 64.501945 104.97082 64.385216 104.85408 64.385216 104.62062 C 64.385216 104.38716 64.501945 104.270424 64.735405 104.270424 C 65.34825 104.270424 65.87354 103.9786 66.31128 103.45331 C 66.71984 102.898834 66.924126 102.256805 66.924126 101.46887 L 66.924126 101.235405 L 61.933853 101.235405 C 61.61284 101.235405 61.379375 101.17704 61.233463 101.001945 C 61.087547 100.88521 61.0 100.71011 61.0 100.53502 C 61.0 100.476654 61.145912 100.27237 61.437744 99.92218 C 61.729572 99.57198 62.079765 99.10506 62.488327 98.49222 C 62.488327 98.49222 63.305447 97.20817 63.71401 96.44942 C 63.71401 96.44942 64.47276 94.78599 64.735405 93.70622 C 65.02724 92.65564 65.17315 91.575874 65.17315 90.49611 C 65.17315 90.175095 65.31907 90.02918 65.58171 90.02918 C 65.61089 90.02918 65.756805 90.058365 65.96109 90.11673 C 66.16537 90.175095 66.4572 90.23346 66.77821 90.321014 C 67.1284 90.37938 67.44942 90.40856 67.77043 90.40856 Z" fill="#000000" stroke="none" stroke-width="0.75" />
<path d="M 22.764973 65.11539 C 22.921913 65.03691 22.948072 65.03691 23.105015 65.03691 C 23.314268 65.06307 23.445057 65.14154 23.73278 65.45542 C 25.616081 67.391045 27.185501 70.84376 27.577856 73.77334 C 27.630169 74.24416 27.630169 75.34276 27.577856 75.83974 C 27.29013 78.533905 26.165377 80.99266 23.57584 84.52385 L 23.209644 85.02083 L 23.418898 85.62244 C 23.915882 87.06107 24.491331 88.81359 24.85753 90.09528 C 24.96216 90.409164 25.04063 90.67074 25.04063 90.6969 C 25.04063 90.6969 25.223728 90.6969 25.406826 90.72305 C 26.322319 90.80152 27.10703 91.01078 27.917896 91.40313 C 28.57182 91.74317 29.147274 92.13552 29.696568 92.65866 C 30.29818 93.26028 30.690535 93.80957 31.05673 94.56812 C 31.606026 95.66672 31.84144 96.81762 31.81528 97.96853 C 31.789125 98.70093 31.684496 99.25022 31.449085 99.930305 C 31.1352 100.92426 30.559748 101.83976 29.77504 102.624466 C 29.094955 103.30455 28.46719 103.72306 27.630169 104.0631 L 27.316284 104.193886 L 27.316284 105.13554 C 27.316284 106.46954 27.237814 108.038956 27.133184 108.980606 C 27.02856 109.94841 26.766989 110.86391 26.348476 111.700935 C 25.249886 113.92427 23.314268 115.10133 21.143244 114.89209 C 18.684484 114.65667 16.69656 112.98262 16.199577 110.73312 C 15.964161 109.713 16.068794 108.9283 16.487303 108.27437 C 17.036598 107.411194 18.082878 106.914215 19.102997 106.94037 C 20.30622 106.99268 21.274027 107.934326 21.457123 109.24218 C 21.58791 110.28845 21.143244 111.25626 20.30622 111.7794 C 19.835394 112.06713 19.181469 112.197914 18.684484 112.119446 C 18.606018 112.119446 18.527544 112.093285 18.527544 112.119446 L 18.84143 112.43333 C 19.416882 113.00878 20.070807 113.374985 20.907831 113.558075 C 21.090927 113.584236 21.247868 113.584236 21.666382 113.584236 C 22.137207 113.584236 22.189518 113.584236 22.451088 113.53192 C 22.81729 113.42729 23.131172 113.29651 23.418898 113.139565 C 24.726748 112.35486 25.616081 110.73312 25.851494 108.77136 C 25.929964 108.038956 26.008434 106.46954 26.008434 105.318634 C 26.008434 104.56009 26.008434 104.50777 25.956123 104.50777 C 25.851494 104.56009 25.302197 104.6124 24.909843 104.63855 C 24.41286 104.66471 23.57584 104.66471 23.183485 104.6124 C 21.640223 104.4293 20.227747 103.90616 18.998373 103.04298 C 17.167385 101.76129 15.859535 99.85182 15.31024 97.65465 C 14.604002 94.908165 15.100986 91.978584 16.827343 88.89206 C 17.55974 87.610374 18.265978 86.564095 20.018494 84.23612 L 21.012455 82.90212 L 20.829355 82.405136 C 19.573822 79.083206 19.15531 77.173744 19.024527 74.40111 C 18.972214 73.19789 19.024527 72.177765 19.181469 71.340744 C 19.573822 69.143555 20.593945 67.181786 22.189518 65.612366 C 22.503403 65.298485 22.63419 65.193855 22.764973 65.11539 M 24.831371 69.58823 C 24.569805 69.143555 24.622118 69.16971 24.386707 69.32666 C 23.65431 69.771324 22.89576 70.4514 22.34646 71.131485 C 21.221714 72.57012 20.593945 74.24416 20.515476 76.048996 C 20.489319 76.78139 20.56779 77.25221 20.907831 78.37696 C 21.169397 79.29246 21.901793 81.5158 21.95411 81.568115 C 21.95411 81.59427 22.111048 81.41118 22.26799 81.17576 C 24.072823 78.58622 25.04063 76.46751 25.406826 74.34879 C 25.485298 73.7995 25.53761 73.35483 25.563768 72.727066 C 25.589928 71.28843 25.432985 70.58219 24.831371 69.58823 M 22.581877 87.191864 C 22.424934 86.69488 22.26799 86.30252 22.26799 86.30252 C 22.241835 86.30252 21.143244 87.76731 20.672415 88.421234 C 19.129156 90.59227 18.187506 92.34478 17.638206 94.07114 C 17.27201 95.14357 17.115068 96.13754 17.062756 97.23613 C 17.062756 97.837746 17.088915 98.20394 17.193539 98.648605 C 17.795153 100.97658 20.280064 102.88603 23.209644 103.30455 C 23.65431 103.35686 24.909843 103.35686 25.459139 103.30455 C 26.008434 103.226074 25.956123 103.252235 25.929964 103.01682 C 25.773026 100.531906 25.563768 99.0148 25.14526 96.765305 C 24.988314 95.823654 24.543648 93.835724 24.517488 93.80957 C 24.491331 93.78342 23.99435 93.835724 23.706627 93.9142 C 23.340427 93.99267 23.105015 94.07114 22.79113 94.22808 C 21.090927 95.09126 20.593945 97.05304 21.666382 98.648605 C 21.849482 98.91018 22.320305 99.381004 22.608032 99.5641 C 22.71266 99.64258 22.948072 99.799515 23.105015 99.87799 C 23.340427 100.00877 23.392738 100.06108 23.445057 100.16571 C 23.65431 100.50575 23.523525 100.92426 23.131172 101.10736 C 22.921913 101.21199 22.764973 101.18584 22.34646 100.97658 C 21.326344 100.4796 20.56779 99.799515 20.018494 98.962494 C 18.998373 97.393074 18.867586 95.37899 19.70461 93.67879 C 20.437006 92.214 21.744852 91.22003 23.418898 90.853836 C 23.57584 90.80152 23.706627 90.77537 23.706627 90.77537 C 23.73278 90.74921 23.000385 88.36893 22.581877 87.191864 M 26.139221 93.94036 C 26.060753 93.94036 25.98228 93.9142 25.956123 93.9142 L 25.877651 93.88804 L 26.008434 94.43734 C 26.610046 97.07919 27.054714 99.95645 27.211655 102.38905 C 27.237814 102.65063 27.237814 102.85988 27.237814 102.85988 C 27.263973 102.85988 27.60401 102.70294 27.78711 102.57216 C 28.231777 102.31058 28.65029 101.91823 28.99033 101.47356 C 29.801197 100.40112 30.08892 99.06712 29.77504 97.706955 C 29.539627 96.60837 28.911861 95.58824 28.022522 94.882 C 27.473227 94.46349 26.740831 94.0973 26.139221 93.94036 Z" fill="#000000" stroke="none" stroke-width="0.75" />
<path d="M 92.0 65.0 L 108.0 65.0 Z" fill="none" stroke="#d6d6d6" stroke-width="0.75" />
<path d="M 96.0 62.024 C 96.0 63.112 97.0624 64.2 98.112 64.2 C 101.312 64.2 104.512 62.024 104.512 59.912 C 104.512 58.8624 103.423996 57.8 102.4 57.8 C 99.2 57.8 96.0 59.912 96.0 62.024 Z" fill="none" stroke="#404040" stroke-width="1.0" />
<path d="M 94.0 162.25 L 102.0 162.25 L 102.0 169.75 L 94.0 169.75 L 94.0 162.25 Z" fill="#ffffff" stroke="none" stroke-width="1.0" />
<text x='94.0' y='169.75' font-family="Default" font-size="10.0" fill="#404040" >7</text>
<path d="M 93.46439 62.63119 C 93.59136 62.55864 93.79088 62.613052 93.863434 62.7763 C 93.89971 62.84885 93.89971 62.903263 93.89971 64.172935 C 93.89971 64.9166 93.89971 65.51516 93.91785 65.51516 C 93.91785 65.51516 94.08109 65.44261 94.28061 65.370056 C 94.69779 65.20681 94.752205 65.188675 94.86103 65.279366 C 94.988 65.370056 94.988 65.38819 94.988 66.11372 C 94.988 66.73042 94.988 66.784836 94.95172 66.83925 C 94.933586 66.87553 94.89731 66.911804 94.87917 66.92994 C 94.842896 66.94808 94.62524 67.05691 94.3713 67.1476 L 93.91785 67.34712 L 93.89971 68.816315 C 93.89971 69.614395 93.89971 70.28551 93.91785 70.28551 C 93.91785 70.28551 94.08109 70.21295 94.28061 70.140396 C 94.69779 69.97716 94.752205 69.959015 94.86103 70.049706 C 94.988 70.140396 94.988 70.15854 94.988 70.88406 C 94.988 71.50076 94.988 71.555176 94.95172 71.60959 C 94.933586 71.64587 94.89731 71.682144 94.87917 71.70028 C 94.842896 71.71842 94.62524 71.82725 94.3713 71.91794 L 93.91785 72.11746 L 93.89971 73.64107 C 93.89971 75.01957 93.88157 75.182816 93.863434 75.23723 C 93.736465 75.45489 93.428116 75.45489 93.30115 75.23723 C 93.28301 75.182816 93.26487 75.037704 93.26487 73.768036 L 93.26487 72.3714 L 92.48493 72.67974 L 91.72313 72.98809 L 91.72313 74.45728 C 91.72313 76.01717 91.72313 75.980896 91.63244 76.07159 C 91.59616 76.126 91.46919 76.18041 91.41478 76.18041 C 91.342224 76.18041 91.215256 76.126 91.178986 76.07159 C 91.08829 75.980896 91.08829 76.01717 91.08829 74.602394 C 91.08829 73.85873 91.08829 73.26017 91.07015 73.26017 C 91.07015 73.26017 90.906906 73.33272 90.70739 73.40527 C 90.290215 73.56851 90.235794 73.586655 90.12697 73.495964 C 90.0 73.40527 90.0 73.38713 90.0 72.661606 C 90.0 72.04491 90.0 71.99049 90.03628 71.93608 C 90.05441 71.8998 90.09069 71.863525 90.108826 71.84539 C 90.1451 71.82725 90.36276 71.71842 90.6167 71.62773 L 91.08829 71.42821 L 91.08829 69.959015 C 91.08829 69.160934 91.08829 68.48982 91.07015 68.48982 C 91.07015 68.48982 90.906906 68.56238 90.70739 68.63493 C 90.290215 68.79817 90.235794 68.816315 90.12697 68.725624 C 90.0 68.63493 90.0 68.61679 90.0 67.891266 C 90.0 67.27457 90.0 67.22015 90.03628 67.16573 C 90.05441 67.12946 90.09069 67.093185 90.108826 67.07504 C 90.1451 67.05691 90.36276 66.94808 90.6167 66.85739 L 91.08829 66.65787 L 91.08829 65.13426 C 91.08829 63.75576 91.10643 63.592514 91.124565 63.5381 C 91.25153 63.320442 91.55988 63.320442 91.68685 63.5381 C 91.70499 63.592514 91.72313 63.73762 91.72313 65.00729 L 91.741264 66.40393 L 92.50307 66.09558 L 93.26487 65.78723 L 93.26487 64.31804 C 93.26487 62.93954 93.26487 62.84885 93.30115 62.7763 C 93.337425 62.703743 93.3737 62.667465 93.46439 62.63119 M 93.26487 69.070244 L 93.26487 67.60105 L 92.48493 67.9094 L 91.72313 68.21775 L 91.72313 69.705086 L 91.72313 71.17428 L 91.77754 71.156136 C 91.81382 71.138 92.15845 70.9929 92.55749 70.847786 L 93.26487 70.55758 L 93.26487 69.070244 Z" fill="#404040" stroke="none" stroke-width="0.75" />
<path d="M 96.0 70.024 C 96.0 71.112 97.0624 72.200005 98.112 72.200005 C 101.312 72.200005 104.512 70.024 104.512 67.912 C 104.512 66.862404 103.423996 65.8 102.4 65.8 C 99.2 65.8 96.0 67.912 96.0 70.024 Z" fill="none" stroke="#404040" stroke-width="1.0" />
<path d="M 94.0 172.25 L 102.0 172.25 L 102.0 179.75 L 94.0 179.75 L 94.0 172.25 Z" fill="#ffffff" stroke="none" stroke-width="1.0" />
<text x='94.0' y='179.75' font-family="Default" font-size="10.0" fill="#404040" >9</text>
<path d="M 96.0 78.024 C 96.0 79.112 97.0624 80.200005 98.112 80.200005 C 101.312 80.200005 104.512 78.024 104.512 75.912 C 104.512 74.862404 103.423996 73.8 102.4 73.8 C 99.2 73.8 96.0 75.912 96.0 78.024 Z" fill="none" stroke="#404040" stroke-width="1.0" />
<path d="M 94.0 182.25 L 102.0 182.25 L 102.0 189.75 L 94.0 189.75 L 94.0 182.25 Z" fill="#ffffff" stroke="none" stroke-width="1.0" />
<text x='94.0' y='189.75' font-family="Default" font-size="10.0" fill="#404040" >9</text>
<path d="M 96.0 90.024 C 96.0 91.112 97.0624 92.200005 98.112 92.200005 C 101.312 92.200005 104.512 90.024 104.512 87.912 C 104.512 86.862404 103.423996 85.8 102.4 85.8 C 99.2 85.8 96.0 87.912 96.0 90.024 Z" fill="none" stroke="#404040" stroke-width="1.0" />
<path d="M 94.0 192.25 L 102.0 192.25 L 102.0 199.75 L 94.0 199.75 L 94.0 192.25 Z" fill="#ffffff" stroke="none" stroke-width="1.0" />
<text x='94.0' y='199.75' font-family="Default" font-size="10.0" fill="#404040" >9</text>
<path d="M 96.0 106.024 C 96.0 107.112 97.0624 108.200005 98.112 108.200005 C 101.312 108.200005 104.512 106.024 104.512 103.912 C 104.512 102.862404 103.423996 101.8 102.4 101.8 C 99.2 101.8 96.0 103.912 96.0 106.024 Z" fill="none" stroke="#404040" stroke-width="1.0" />
<path d="M 94.0 202.25 L 102.0 202.25 L 102.0 209.75 L 94.0 209.75 L 94.0 202.25 Z" fill="#ffffff" stroke="none" stroke-width="1.0" />
<text x='94.0' y='209.75' font-family="Default" font-size="10.0" fill="#404040" >7</text><g transform="translate(74.5,0.0)">
<path d="M 0.0 0.0 L 43.0 0.0 L 43.0 42.0 L 0.0 42.0 L 0.0 0.0 Z" fill="#ffffff" stroke="none" stroke-width="0.75" />
<text x='2.0' y='12.0' font-family="Default" font-size="8.0" fill="#d6d6d6" >7</text>
<path d="M 13.0 6.0 L 13.0 36.0 M 18.0 6.0 L 18.0 36.0 M 23.0 6.0 L 23.0 36.0 M 28.0 6.0 L 28.0 36.0 M 33.0 6.0 L 33.0 36.0 M 38.0 6.0 L 38.0 36.0 Z" fill="none" stroke="#d6d6d6" stroke-width="0.75" />
<path d="M 13.0 6.0 L 38.0 6.0 M 13.0 12.0 L 38.0 12.0 M 13.0 18.0 L 38.0 18.0 M 13.0 24.0 L 38.0 24.0 M 13.0 30.0 L 38.0 30.0 M 13.0 36.0 L 38.0 36.0 Z" fill="none" stroke="#d6d6d6" stroke-width="0.75" />
<path d="M 35.5 9.0 a 2.5 2.5 0 1 0 5.0 0 2.5 2.5 0 1 0 -5.0 0 Z" fill="#404040" stroke="none" stroke-width="0.75" />
<path d="M 30.5 21.0 a 2.5 2.5 0 1 0 5.0 0 2.5 2.5 0 1 0 -5.0 0 Z" fill="#404040" stroke="none" stroke-width="0.75" />
<path d="M 25.5 21.0 a 2.5 2.5 0 1 0 5.0 0 2.5 2.5 0 1 0 -5.0 0 Z" fill="#404040" stroke="none" stroke-width="0.75" />
<path d="M 20.5 21.0 a 2.5 2.5 0 1 0 5.0 0 2.5 2.5 0 1 0 -5.0 0 Z" fill="#404040" stroke="none" stroke-width="0.75" />
<path d="M 15.5 9.0 a 2.5 2.5 0 1 0 5.0 0 2.5 2.5 0 1 0 -5.0 0 Z" fill="#404040" stroke="none" stroke-width="0.75" />
<path d="M 11.0 0.0 L 15.0 4.0 M 15.0 0.0 L 11.0 4.0 Z" fill="none" stroke="#d6d6d6" stroke-width="0.75" /></g>
<text x='96.0' y='49.5' font-family="Default" font-size="10.0" fill="#000000" >E</text></g>
<path d="M 35.35 79.3 C 35.35 80.15 36.18 81.0 37.0 81.0 C 39.5 81.0 42.0 79.3 42.0 77.65 C 42.0 76.83 41.149998 76.0 40.35 76.0 C 37.85 76.0 35.35 77.65 35.35 79.3 Z" fill="#000000" stroke="none" stroke-width="1.0" />
<path d="M 42.0 63.0 L 42.0 77.7 Z" fill="none" stroke="#000000" stroke-width="1.0" />
<text x='43.0' y='79.25' font-family="Default" font-size="10.0" fill="#000000" > = 120</text>
<text x='21.0' y='91.0' font-family="Default" font-size="10.0" fill="#ff0000" >1</text>
<path d="M 20.0 93.0 L 23.0 93.0 L 23.0 186.0 L 20.0 186.0 L 20.0 93.0 Z" fill="#000000" stroke="#000000" stroke-width="0.75" />
<path d="M 25.0 93.0 L 26.0 93.0 L 26.0 186.0 L 25.0 186.0 L 25.0 93.0 Z" fill="#000000" stroke="#000000" stroke-width="0.75" />
<path d="M 155.0 93.0 L 156.0 93.0 L 156.0 125.0 L 155.0 125.0 L 155.0 93.0 Z" fill="#000000" stroke="#000000" stroke-width="0.75" />
<path d="M 158.0 93.0 L 161.0 93.0 L 161.0 125.0 L 158.0 125.0 L 158.0 93.0 Z" fill="#000000" stroke="#000000" stroke-width="0.75" />
<path d="M 20.0 186.0 L 23.0 186.0 L 23.0 236.0 L 20.0 236.0 L 20.0 186.0 Z" fill="#000000" stroke="#000000" stroke-width="0.75" />
<path d="M 25.0 186.0 L 26.0 186.0 L 26.0 236.0 L 25.0 236.0 L 25.0 186.0 Z" fill="#000000" stroke="#000000" stroke-width="0.75" />
<path d="M 155.0 186.0 L 156.0 186.0 L 156.0 236.0 L 155.0 236.0 L 155.0 186.0 Z" fill="#000000" stroke="#000000" stroke-width="0.75" />
<path d="M 158.0 186.0 L 161.0 186.0 L 161.0 236.0 L 158.0 236.0 L 158.0 186.0 Z" fill="#000000" stroke="#000000" stroke-width="0.75" />
<path d="M 163.0 93.0 L 930.0 93.0 M 163.0 101.0 L 930.0 101.0 M 163.0 109.0 L 930.0 109.0 M 163.0 117.0 L 930.0 117.0 M 163.0 125.0 L 930.0 125.0 Z" fill="none" stroke="#d6d6d6" stroke-width="0.75" />
<path d="M 163.0 186.0 L 930.0 186.0 M 163.0 196.0 L 930.0 196.0 M 163.0 206.0 L 930.0 206.0 M 163.0 216.0 L 930.0 216.0 M 163.0 226.0 L 930.0 226.0 M 163.0 236.0 L 930.0 236.0 Z" fill="none" stroke="#d6d6d6" stroke-width="0.75" />
</svg>