<svg width="960.0px" height="280.0px" xmlns="http://www.w3.org/2000/svg" version="1.1">

<path d="M 0.0 0.0 L 960.0 0.0 L 960.0 280.0 L 0.0 280.0 L 0.0 0.0 Z" fill="#ffffff" stroke="none" stroke-width="1.0" /><g transform="translate(20.0,20.0)">
<path d="M 0.0 0.0 L 141.0 0.0 L 141.0 249.0 L 0.0 249.0 L 0.0 0.0 Z" fill="#ffffff" stroke="none" stroke-width="1.0" />
<path d="M 0.0 85.0 L 141.0 85.0 M 0.0 93.0 L 141.0 93.0 M 0.0 101.0 L 141.0 101.0 M 0.0 109.0 L 141.0 109.0 M 0.0 117.0 L 141.0 117.0 Z" fill="none" stroke="#d6d6d6" stroke-width="0.75" />
<path d="M 0.0 178.0 L 141.0 178.0 M 0.0 188.0 L 141.0 188.0 M 0.0 198.0 L 141.0 198.0 M 0.0 208.0 L 141.0 208.0 M 0.0 218.0 L 141.0 218.0 M 0.0 228.0 L 141.0 228.0 Z" fill="none" stroke="#d6d6d6" stroke-width="0.75" />
<path d="M 67.77043 85.40856 C 68.324905 85.40856 68.821014 85.3502 69.25876 85.20428 C 69.6965 85.058365 69.959145 85.0 70.04669 85.0 C 70.192604 85.0 70.28015 85.02918 70.36771 85.11673 C 70.42607 85.175095 70.45525 85.23346 70.484436 85.321014 C 70.484436 85.37938 70.45525 85.437744 70.42607 85.49611 L 61.933853 95.359924 L 66.924126 95.359924 L 66.924126 91.44942 C 66.924126 91.18677 67.01167 90.95331 67.1284 90.807396 C 67.3035 90.661476 67.4786 90.515564 67.71206 90.4572 C 67.97471 90.34047 68.26653 90.07782 68.64591 89.640076 C 68.937744 89.31907 69.317116 88.70622 69.75486 87.80156 C 69.81323 87.68482 69.90078 87.62646 70.01751 87.62646 C 70.28015 87.62646 70.39688 87.77237 70.42607 88.03502 L 70.42607 95.359924 L 72.55642 95.359924 C 72.84825 95.359924 72.99416 95.50584 73.023346 95.79767 C 73.023346 96.08949 72.877426 96.235405 72.55642 96.235405 L 70.42607 96.235405 L 70.42607 96.46887 C 70.42607 97.28599 70.63035 97.92802 71.00973 98.45331 C 71.44747 98.9786 71.97276 99.270424 72.5856 99.270424 C 72.81906 99.270424 72.9358 99.38716 72.9358 99.62062 C 72.9358 99.85408 72.81906 99.97082 72.5856 99.97082 C 72.14786 99.97082 71.50584 99.91245 70.601166 99.795715 C 69.696495 99.6498 69.054474 99.59144 68.64591 99.59144 C 68.23735 99.59144 67.56615 99.6498 66.69066 99.795715 C 65.81517 99.91245 65.17315 99.97082 64.735405 99.97082 C 64.501945 99.97082 64.385216 99.85408 64.385216 99.62062 C 64.385216 99.38716 64.501945 99.270424 64.735405 99.270424 C 65.34825 99.270424 65.87354 98.9786 66.31128 98.45331 C 66.71984 97.898834 66.924126 97.256805 66.924126 96.46887 L 66.924126 96.235405 L 61.933853 96.235405 C 61.61284 96.235405 61.379375 96.17704 61.233463 96.001945 C 61.087547 95.88521 61.0 95.71011 61.0 95.53502 C 61.0 95.476654 61.145912 95.27237 61.437744 94.92218 C 61.729572 94.57198 62.079765 94.10506 62.488327 93.49222 C 62.488327 93.49222 63.305447 92.20817 63.71401 91.44942 C 63.71401 91.44942 64.47276 89.78599 64.735405 88.70622 C 65.02724 87.65564 65.17315 86.575874 65.17315 85.49611 C 65.17315 85.175095 65.31907 85.02918 65.58171 85.02918 C 65.61089 85.02918 65.756805 85.058365 65.96109 85.11673 C 66.16537 85.175095 66.4572 85.23346 66.77821 85.321014 C 67.1284 85.37938 67.44942 85.40856 67.77043 85.40856 Z" fill="#000000" stroke="none" stroke-width="0.75" />
<path d="M 67.77043 102.40856 C 68.324905 102.40856 68.821014 102.3502 69.25876 102.20428 C 69.6965 102.058365 69.959145 102.0 70.04669 102.0 C 70.192604 102.0 70.28015 102.02918 70.36771 102.11673 C 70.42607 102.175095 70.45525 102.23346 70.484436 102.321014 C 70.484436 102.37938 70.45525 102.437744 70.42607 102.49611 L 61.933853 112.359924 L 66.924126 112.359924 L 66.924126 108.44942 C 66.924126 108.18677 67.01167 107.95331 67.1284 107.807396 C 67.3035 107.661476 67.4786 107.515564 67.71206 107.4572 C 67.97471 107.34047 68.26653 107.07782 68.64591 106.640076 C 68.937744 106.31907 69.317116 105.70622 69.75486 104.80156 C 69.81323 104.68482 69.90078 104.62646 70.01751 104.62646 C 70.28015 104.62646 70.39688 104.77237 70.42607 105.03502 L 70.42607 112.359924 L 72.55642 112.359924 C 72.84825 112.359924 72.99416 112.50584 73.023346 112.79767 C 73.023346 113.08949 72.877426 113.235405 72.55642 113.235405 L 70.42607 113.235405 L 70.42607 113.46887 C 70.42607 114.28599 70.63035 114.92802 71.00973 115.45331 C 71.44747 115.9786 71.97276 116.270424 72.5856 116.270424 C 72.81906 116.270424 72.9358 116.38716 72.9358 116.62062 C 72.9358 116.85408 72.81906 116.97082 72.5856 116.97082 C 72.14786 116.97082 71.50584 116.91245 70.601166 116.795715 C 69.696495 116.6498 69.054474 116.59144 68.64591 116.59144 C 68.23735 116.59144 67.56615 116.6498 66.69066 116.795715 C 65.81517 116.91245 65.17315 116.97082 64.735405 116.97082 C 64.501945 116.97082 64.385216 116.85408 64.385216 116.62062 C 64.385216 116.38716 64.501945 116.270424 64.735405 116.270424 C 65.34825 116.270424 65.87354 115.9786 66.31128 115.45331 C 66.71984 114.898834 66.924126 114.256805 66.924126 113.46887 L 66.924126 113.235405 L 61.933853 113.235405 C 61.61284 113.235405 61.379375 113.17704 61.233463 113.001945 C 61.087547 112.88521 61.0 112.71011 61.0 112.53502 C 61.0 112.476654 61.145912 112.27237 61.437744 111.92218 C 61.729572 111.57198 62.079765 111.10506 62.488327 110.49222 C 62.488327 110.49222 63.305447 109.20817 63.71401 108.44942 C 63.71401 108.44942 64.47276 106.78599 64.735405 105.70622 C 65.02724 104.65564 65.17315 103.575874 65.17315 102.49611 C 65.17315 102.175095 65.31907 102.02918 65.58171 102.02918 C 65.61089 102.02918 65.756805 102.058365 65.96109 102.11673 C 66.16537 102.175095 66.4572 102.23346 66.77821 102.321014 C 67.1284 102.37938 67.44942 102.40856 67.77043 102.40856 Z" fill="#000000" stroke="none" stroke-width="0.75" />
<path d="M 22.764973 77.11539 C 22.921913 77.03691 22.948072 77.03691 23.105015 77.03691 C 23.314268 77.06307 23.445057 77.14154 23.73278 77.45542 C 25.616081 79.391045 27.185501 82.84376 27.577856 85.77334 C 27.630169 86.24416 27.630169 87.34276 27.577856 87.83974 C 27.29013 90.533905 26.165377 92.99266 23.57584 96.52385 L 23.209644 97.02083 L 23.418898 97.62244 C 23.915882 99.06107 24.491331 100.81359 24.85753 102.09528 C 24.96216 102.409164 25.04063 102.67074 25.04063 102.6969 C 25.04063 102.6969 25.223728 102.6969 25.406826 102.72305 C 26.322319 102.80152 27.10703 103.01078 27.917896 103.40313 C 28.57182 103.74317 29.147274 104.13552 29.696568 104.65866 C 30.29818 105.26028 30.690535 105.80957 31.05673 106.56812 C 31.606026 107.66672 31.84144 108.81762 31.81528 109.96853 C 31.789125 110.70093 31.684496 111.25022 31.449085 111.930305 C 31.1352 112.92426 30.559748 113.83976 29.77504 114.624466 C 29.094955 115.30455 28.46719 115.72306 27.630169 116.0631 L 27.316284 116.193886 L 27.316284 117.13554 C 27.316284 118.46954 27.237814 120.038956 27.133184 120.980606 C 27.02856 121.94841 26.766989 122.86391 26.348476 123.700935 C 25.249886 125.92427 23.314268 127.10133 21.143244 126.89209 C 18.684484 126.65667 16.69656 124.98262 16.199577 122.73312 C 15.964161 121.713 16.068794 120.9283 16.487303 120.27437 C 17.036598 119.411194 18.082878 118.914215 19.102997 118.94037 C 20.30622 118.99268 21.274027 119.934326 21.457123 121.24218 C 21.58791 122.28845 21.143244 123.25626 20.30622 123.7794 C 19.835394 124.06713 19.181469 124.197914 18.684484 124.119446 C 18.606018 124.119446 18.527544 124.093285 18.527544 124.119446 L 18.84143 124.43333 C 19.416882 125.00878 20.070807 125.374985 20.907831 125.558075 C 21.090927 125.584236 21.247868 125.584236 21.666382 125.584236 C 22.137207 125.584236 22.189518 125.584236 22.451088 125.53192 C 22.81729 125.42729 23.131172 125.29651 23.418898 125.139565 C 24.726748 124.35486 25.616081 122.73312 25.851494 120.77136 C 25.929964 120.038956 26.008434 118.46954 26.008434 117.318634 C 26.008434 116.56009 26.008434 116.50777 25.956123 116.50777 C 25.851494 116.56009 25.302197 116.6124 24.909843 116.63855 C 24.41286 116.66471 23.57584 116.66471 23.183485 116.6124 C 21.640223 116.4293 20.227747 115.90616 18.998373 115.04298 C 17.167385 113.76129 15.859535 111.85182 15.31024 109.65465 C 14.604002 106.908165 15.100986 103.978584 16.827343 100.89206 C 17.55974 99.610374 18.265978 98.564095 20.018494 96.23612 L 21.012455 94.90212 L 20.829355 94.405136 C 19.573822 91.083206 19.15531 89.173744 19.024527 86.40111 C 18.972214 85.19789 19.024527 84.177765 19.181469 83.340744 C 19.573822 81.143555 20.593945 79.181786 22.189518 77.612366 C 22.503403 77.298485 22.63419 77.193855 22.764973 77.11539 M 24.831371 81.58823 C 24.569805 81.143555 24.622118 81.16971 24.386707 81.32666 C 23.65431 81.771324 22.89576 82.4514 22.34646 83.131485 C 21.221714 84.57012 20.593945 86.24416 20.515476 88.048996 C 20.489319 88.78139 20.56779 89.25221 20.907831 90.37696 C 21.169397 91.29246 21.901793 93.5158 21.95411 93.568115 C 21.95411 93.59427 22.111048 93.41118 22.26799 93.17576 C 24.072823 90.58622 25.04063 88.46751 25.406826 86.34879 C 25.485298 85.7995 25.53761 85.35483 25.563768 84.727066 C 25.589928 83.28843 25.432985 82.58219 24.831371 81.58823 M 22.581877 99.191864 C 22.424934 98.69488 22.26799 98.30252 22.26799 98.30252 C 22.241835 98.30252 21.143244 99.76731 20.672415 100.421234 C 19.129156 102.59227 18.187506 104.34478 17.638206 106.07114 C 17.27201 107.14357 17.115068 108.13754 17.062756 109.23613 C 17.062756 109.837746 17.088915 110.20394 17.193539 110.648605 C 17.795153 112.97658 20.280064 114.88603 23.209644 115.30455 C 23.65431 115.35686 24.909843 115.35686 25.459139 115.30455 C 26.008434 115.226074 25.956123 115.252235 25.929964 115.01682 C 25.773026 112.531906 25.563768 111.0148 25.14526 108.765305 C 24.988314 107.823654 24.543648 105.835724 24.517488 105.80957 C 24.491331 105.78342 23.99435 105.835724 23.706627 105.9142 C 23.340427 105.99267 23.105015 106.07114 22.79113 106.22808 C 21.090927 107.09126 20.593945 109.05304 21.666382 110.648605 C 21.849482 110.91018 22.320305 111.381004 22.608032 111.5641 C 22.71266 111.64258 22.948072 111.799515 23.105015 111.87799 C 23.340427 112.00877 23.392738 112.06108 23.445057 112.16571 C 23.65431 112.50575 23.523525 112.92426 23.131172 113.10736 C 22.921913 113.21199 22.764973 113.18584 22.34646 112.97658 C 21.326344 112.4796 20.56779 111.799515 20.018494 110.962494 C 18.998373 109.393074 18.867586 107.37899 19.70461 105.67879 C 20.437006 104.214 21.744852 103.22003 23.418898 102.853836 C 23.57584 102.80152 23.706627 102.77537 23.706627 102.77537 C 23.73278 102.74921 23.000385 100.36893 22.581877 99.191864 M 26.139221 105.94036 C 26.060753 105.94036 25.98228 105.9142 25.956123 105.9142 L 25.877651 105.88804 L 26.008434 106.43734 C 26.610046 109.07919 27.054714 111.95645 27.211655 114.38905 C 27.237814 114.65063 27.237814 114.85988 27.237814 114.85988 C 27.263973 114.85988 27.60401 114.70294 27.78711 114.57216 C 28.231777 114.31058 28.65029 113.91823 28.99033 113.47356 C 29.801197 112.40112 30.08892 111.06712 29.77504 109.706955 C 29.539627 108.60837 28.911861 107.58824 28.022522 106.882 C 27.473227 106.46349 26.740831 106.0973 26.139221 105.94036 Z" fill="#000000" stroke="none" stroke-width="0.75" />
<path d="M 92.0 77.0 L 108.0 77.0 Z" fill="none" stroke="#d6d6d6" stroke-width="0.75" />
<path d="M 92.0 69.0 L 108.0 69.0 Z" fill="none" stroke="#d6d6d6" stroke-width="0.75" />
<path d="M 92.0 61.0 L 108.0 61.0 Z" fill="none" stroke="#d6d6d6" stroke-width="0.75" />
<path d="M 96.0 62.024 C 96.0 63.112 97.0624 64.2 98.112 64.2 C 101.312 64.2 104.512 62.024 104.512 59.912 C 104.512 58.8624 103.423996 57.8 102.4 57.8 C 99.2 57.8 96.0 59.912 96.0 62.024 Z" fill="none" stroke="#404040" stroke-width="1.0" />
<path d="M 90.5 174.25 L 105.5 174.25 L 105.5 181.75 L 90.5 181.75 L 90.5 174.25 Z" fill="#ffffff" stroke="none" stroke-width="1.0" />
<text x='90.5' y='181.75' font-family="Default" font-size="10.0" fill="#404040" >12</text>
<path d="M 96.0 74.024 C 96.0 75.112 97.0624 76.200005 98.112 76.200005 C 101.312 76.200005 104.512 74.024 104.512 71.912 C 104.512 70.862404 103.423996 69.8 102.4 69.8 C 99.2 69.8 96.0 71.912 96.0 74.024 Z" fill="none" stroke="#404040" stroke-width="1.0" />
<path d="M 90.5 184.25 L 105.5 184.25 L 105.5 191.75 L 90.5 191.75 L 90.5 184.25 Z" fill="#ffffff" stroke="none" stroke-width="1.0" />
<text x='90.5' y='191.75' font-family="Default" font-size="10.0" fill="#404040" >12</text>
<path d="M 93.46439 74.63119 C 93.59136 74.55864 93.79088 74.61305 93.863434 74.7763 C 93.89971 74.84885 93.89971 74.90327 93.89971 76.172935 C 93.89971 76.9166 93.89971 77.51516 93.91785 77.51516 C 93.91785 77.51516 94.08109 77.44261 94.28061 77.370056 C 94.69779 77.20681 94.752205 77.188675 94.86103 77.279366 C 94.988 77.370056 94.988 77.38819 94.988 78.11372 C 94.988 78.73042 94.988 78.784836 94.95172 78.83925 C 94.933586 78.87553 94.89731 78.911804 94.87917 78.92994 C 94.842896 78.94808 94.62524 79.05691 94.3713 79.1476 L 93.91785 79.34712 L 93.89971 80.816315 C 93.89971 81.614395 93.89971 82.28551 93.91785 82.28551 C 93.91785 82.28551 94.08109 82.21295 94.28061 82.140396 C 94.69779 81.97716 94.752205 81.959015 94.86103 82.049706 C 94.988 82.140396 94.988 82.15854 94.988 82.88406 C 94.988 83.50076 94.988 83.555176 94.95172 83.60959 C 94.933586 83.64587 94.89731 83.682144 94.87917 83.70028 C 94.842896 83.71842 94.62524 83.82725 94.3713 83.91794 L 93.91785 84.11746 L 93.89971 85.64107 C 93.89971 87.01957 93.88157 87.182816 93.863434 87.23723 C 93.736465 87.45489 93.428116 87.45489 93.30115 87.23723 C 93.28301 87.182816 93.26487 87.037704 93.26487 85.768036 L 93.26487 84.3714 L 92.48493 84.67974 L 91.72313 84.98809 L 91.72313 86.45728 C 91.72313 88.01717 91.72313 87.980896 91.63244 88.07159 C 91.59616 88.126 91.46919 88.18041 91.41478 88.18041 C 91.342224 88.18041 91.215256 88.126 91.178986 88.07159 C 91.08829 87.980896 91.08829 88.01717 91.08829 86.602394 C 91.08829 85.85873 91.08829 85.26017 91.07015 85.26017 C 91.07015 85.26017 90.906906 85.33272 90.70739 85.40527 C 90.290215 85.56851 90.235794 85.586655 90.12697 85.495964 C 90.0 85.40527 90.0 85.38713 90.0 84.661606 C 90.0 84.04491 90.0 83.99049 90.03628 83.93608 C 90.05441 83.8998 90.09069 83.863525 90.108826 83.84539 C 90.1451 83.82725 90.36276 83.71842 90.6167 83.62773 L 91.08829 83.42821 L 91.08829 81.959015 C 91.08829 81.160934 91.08829 80.48982 91.07015 80.48982 C 91.07015 80.48982 90.906906 80.56238 90.70739 80.63493 C 90.290215 80.79817 90.235794 80.816315 90.12697 80.725624 C 90.0 80.63493 90.0 80.61679 90.0 79.891266 C 90.0 79.27457 90.0 79.22015 90.03628 79.16573 C 90.05441 79.12946 90.09069 79.093185 90.108826 79.07504 C 90.1451 79.05691 90.36276 78.94808 90.6167 78.85739 L 91.08829 78.65787 L 91.08829 77.13426 C 91.08829 75.75576 91.10643 75.592514 91.124565 75.5381 C 91.25153 75.32044 91.55988 75.32044 91.68685 75.5381 C 91.70499 75.592514 91.72313 75.73762 91.72313 77.00729 L 91.741264 78.40393 L 92.50307 78.09558 L 93.26487 77.78723 L 93.26487 76.31804 C 93.26487 74.93954 93.26487 74.84885 93.30115 74.7763 C 93.337425 74.70374 93.3737 74.667465 93.46439 74.63119 M 93.26487 81.070244 L 93.26487 79.60105 L 92.48493 79.9094 L 91.72313 80.21775 L 91.72313 81.705086 L 91.72313 83.17428 L 91.77754 83.156136 C 91.81382 83.138 92.15845 82.9929 92.55749 82.847786 L 93.26487 82.55758 L 93.26487 81.070244 Z" fill="#404040" stroke="none" stroke-width="0.75" />
<path d="M 96.0 82.024 C 96.0 83.112 97.0624 84.200005 98.112 84.200005 C 101.312 84.200005 104.512 82.024 104.512 79.912 C 104.512 78.862404 103.423996 77.8 102.4 77.8 C 99.2 77.8 96.0 79.912 96.0 82.024 Z" fill="none" stroke="#404040" stroke-width="1.0" />
<path d="M 90.5 194.25 L 105.5 194.25 L 105.5 201.75 L 90.5 201.75 L 90.5 194.25 Z" fill="#ffffff" stroke="none" stroke-width="1.0" />
<text x='90.5' y='201.75' font-family="Default" font-size="10.0" fill="#404040" >13</text>
<path d="M 96.0 90.024 C 96.0 91.112 97.0624 92.200005 98.112 92.200005 C 101.312 92.200005 104.512 90.024 104.512 87.912 C 104.512 86.862404 103.423996 85.8 102.4 85.8 C 99.2 85.8 96.0 87.912 96.0 90.024 Z" fill="none" stroke="#404040" stroke-width="1.0" />
<path d="M 90.5 204.25 L 105.5 204.25 L 105.5 211.75 L 90.5 211.75 L 90.5 204.25 Z" fill="#ffffff" stroke="none" stroke-width="1.0" />
<text x='90.5' y='211.75' font-family="Default" font-size="10.0" fill="#404040" >14</text>
<path d="M 96.0 102.024 C 96.0 103.112 97.0624 104.200005 98.112 104.200005 C 101.312 104.200005 104.512 102.024 104.512 99.912 C 104.512 98.862404 103.423996 97.8 102.4 97.8 C 99.2 97.8 96.0 99.912 96.0 102.024 Z" fill="none" stroke="#404040" stroke-width="1.0" />
<path d="M 90.5 214.25 L 105.5 214.25 L 105.5 221.75 L 90.5 221.75 L 90.5 214.25 Z" fill="#ffffff" stroke="none" stroke-width="1.0" />
<text x='90.5' y='221.75' font-family="Default" font-size="10.0" fill="#404040" >14</text>
<path d="M 96.0 118.024 C 96.0 119.112 97.0624 120.200005 98.112 120.200005 C 101.312 120.200005 104.512 118.024 104.512 115.912 C 104.512 114.862404 103.423996 113.8 102.4 113.8 C 99.2 113.8 96.0 115.912 96.0 118.024 Z" fill="none" stroke="#404040" stroke-width="1.0" />
<path d="M 90.5 224.25 L 105.5 224.25 L 105.5 231.75 L 90.5 231.75 L 90.5 224.25 Z" fill="#ffffff" stroke="none" stroke-width="1.0" />
<text x='90.5' y='231.75' font-family="Default" font-size="10.0" fill="#404040" >12</text><g transform="translate(74.5,0.0)">
<path d="M 0.0 0.0 L 43.0 0.0 L 43.0 42.0 L 0.0 42.0 L 0.0 0.0 Z" fill="#ffffff" stroke="none" stroke-width="0.75" />
<text x='-4.0' y='12.0' font-family="Default" font-size="8.0" fill="#d6d6d6" >12</text>
<path d="M 13.0 6.0 L 13.0 36.0 M 18.0 6.0 L 18.0 36.0 M 23.0 6.0 L 23.0 36.0 M 28.0 6.0 L 28.0 36.0 M 33.0 6.0 L 33.0 36.0 M 38.0 6.0 L 38.0 36.0 Z" fill="none" stroke="#d6d6d6" stroke-width="0.75" />
<path d="M 13.0 6.0 L 38.0 6.0 M 13.0 12.0 L 38.0 12.0 M 13.0 18.0 L 38.0 18.0 M 13.0 24.0 L 38.0 24.0 M 13.0 30.0 L 38.0 30.0 M 13.0 36.0 L 38.0 36.0 Z" fill="none" stroke="#d6d6d6" stroke-width="0.75" />
<path d="M 35.5 9.0 a 2.5 2.5 0 1 0 5.0 0 2.5 2.5 0 1 0 -5.0 0 Z" fill="#404040" stroke="none" stroke-width="0.75" />
<path d="M 30.5 9.0 a 2.5 2.5 0 1 0 5.0 0 2.5 2.5 0 1 0 -5.0 0 Z" fill="#404040" stroke="none" stroke-width="0.75" />
<path d="M 25.5 15.0 a 2.5 2.5 0 1 0 5.0 0 2.5 2.5 0 1 0 -5.0 0 Z" fill="#404040" stroke="none" stroke-width="0.75" />
<path d="M 20.5 21.0 a 2.5 2.5 0 1 0 5.0 0 2.5 2.5 0 1 0 -5.0 0 Z" fill="#404040" stroke="none" stroke-width="0.75" />
<path d="M 15.5 21.0 a 2.5 2.5 0 1 0 5.0 0 2.5 2.5 0 1 0 -5.0 0 Z" fill="#404040" stroke="none" stroke-width="0.75" />
<path d="M 10.5 9.0 a 2.5 2.5 0 1 0 5.0 0 2.5 2.5 0 1 0 -5.0 0 Z" fill="#404040" stroke="none" stroke-width="0.75" /></g>
<text x='96.0' y='49.5' font-family="Default" font-size="10.0" fill="#000000" >E</text></g>
<path d="M 35.35 91.3 C 35.35 92.15 36.18 93.0 37.0 93.0 C 39.5 93.0 42.0 91.3 42.0 89.65 C 42.0 88.83 41.149998 88.0 40.35 88.0 C 37.85 88.0 35.35 89.65 35.35 91.3 Z" fill="#000000" stroke="none" stroke-width="1.0" />
<path d="M 42.0 75.0 L 42.0 89.7 Z" fill="none" stroke="#000000" stroke-width="1.0" />
<text x='43.0' y='91.25' font-family="Default" font-size="10.0" fill="#000000" > = 120</text>
<text x='21.0' y='103.0' font-family="Default" font-size="10.0" fill="#ff0000" >1</text>
<path d="M 20.0 105.0 L 23.0 105.0 L 23.0 198.0 L 20.0 198.0 L 20.0 105.0 Z" fill="#000000" stroke="#000000" stroke-width="0.75" />
<path d="M 25.0 105.0 L 26.0 105.0 L 26.0 198.0 L 25.0 198.0 L 25.0 105.0 Z" fill="#000000" stroke="#000000" stroke-width="0.75" />
<path d="M 155.0 105.0 L 156.0 105.0 L 156.0 137.0 L 155.0 137.0 L 155.0 105.0 Z" fill="#000000" stroke="#000000" stroke-width="0.75" />
<path d="M 158.0 105.0 L 161.0 105.0 L 161.0 137.0 L 158.0 137.0 L 158.0 105.0 Z" fill="#000000" stroke="#000000" stroke-width="0.75" />
<path d="M 20.0 198.0 L 23.0 198.0 L 23.0 248.0 L 20.0 248.0 L 20.0 198.0 Z" fill="#000000" stroke="#000000" stroke-width="0.75" />
<path d="M 25.0 198.0 L 26.0 198.0 L 26.0 248.0 L 25.0 248.0 L 25.0 198.0 Z" fill="#000000" stroke="#000000" stroke-width="0.75" />
<path d="M 155.0 198.0 L 156.0 198.0 L 156.0 248.0 L 155.0 248.0 L 155.0 198.0 Z" fill="#000000" stroke="#000000" stroke-width="0.75" />
<path d="M 158.0 198.0 L 161.0 198.0 L 161.0 248.0 L 158.0 248.0 L 158.0 198.0 Z" fill="#000000" stroke="#000000" stroke-width="0.75" />
<path d="M 163.0 105.0 L 930.0 105.0 M 163.0 113.0 L 930.0 113.0 M 163.0 121.0 L 930.0 121.0 M 163.0 129.0 L 930.0 129.0 M 163.0 137.0 L 930.0 137.0 Z" fill="none" stroke="#d6d6d6" stroke-width="0.75" />
<path d="M 163.0 198.0 L 930.0 198.0 M 163.0 208.0 L 930.0 208.0 M 163.0 218.0 L 930.0 218.0 M 163.0 228.0 L 930.0 228.0 M 163.0 238.0 L 930.0 238.0 M 163.0 248.0 L 930.0 248.0 Z" fill="none" stroke="#d6d6d6" stroke-width="0.75" />
</svg>